<?xml version="1.0" encoding="utf-8"?>
<!-- Generator: Adobe Illustrator 13.0.0, SVG Export Plug-In . SVG Version: 6.00 Build 14948)  -->
<!DOCTYPE svg PUBLIC "-//W3C//DTD SVG 1.1//EN" "http://www.w3.org/Graphics/SVG/1.1/DTD/svg11.dtd">
<svg version="1.1" id="Layer_1" xmlns="http://www.w3.org/2000/svg" xmlns:xlink="http://www.w3.org/1999/xlink" x="0px" y="0px"
	 width="512px" height="512px" viewBox="0 0 512 512" enable-background="new 0 0 512 512" xml:space="preserve">
<circle fill="#787878" cx="256" cy="256" r="256"/>
<g>
	<path fill="#FFFFFF" d="M256.686,56.434c-2.764,1.685-4.613,2.929-7.121,4.815c-13.565,10.161-25.997,24.733-36.065,42.308
		c-23.928,41.723-34.106,98.676-29.933,167.238c0.33,5.455,1.007,11.496,2.398,21.327c0.348,2.509,0.659,4.742,0.677,4.962
		c0.037,0.293-0.495,0.769-2.252,2.087c-11.698,8.732-22.372,19.076-30.481,29.548c-15.159,19.553-24.184,41.759-26.985,66.382
		c-0.677,5.822-0.824,8.788-0.824,15.928c0,10.361,0.714,18.069,2.563,27.37c1.044,5.218,2.874,12.357,3.167,12.357
		c0.055,0,0.696-1.099,1.392-2.435c1.721-3.26,5.309-9.173,7.799-12.907c13.145-19.607,30.427-35.15,50.144-45.055
		c1.757-0.896,4.083-2.014,5.181-2.489c1.336-0.604,1.959-0.971,1.959-1.172c-0.018-0.165-1.117-8.897-2.453-19.424
		c-1.336-10.527-2.417-19.149-2.398-19.187c0.019-0.037,1.996,4.833,4.394,10.801c5.675,14.226,11.039,27.479,12.302,30.445
		c2.637,6.17,5.236,11.149,7.342,14.098c5.693,7.89,15.085,13.912,26.124,16.751c15.599,3.99,32.733,1.391,45.128-6.829
		c4.559-3.021,8.568-6.994,11.277-11.112c2.984-4.577,4.484-8.019,16.751-38.61c3.368-8.385,6.133-15.141,6.17-14.993
		c0.036,0.164-0.989,8.769-2.252,19.148c-1.263,10.362-2.288,18.93-2.288,19.04c0,0.092,0.879,0.567,1.977,1.044
		c21.621,9.593,41.045,26.271,55.27,47.507c3.113,4.65,7.817,12.541,8.861,14.866c0.128,0.292,0.274,0.513,0.348,0.513
		c0.312,0,2.124-7.012,3.186-12.357c1.099-5.529,1.812-10.93,2.344-17.575c0.292-3.79,0.292-15.781,0-19.589
		c-0.897-11.46-2.728-21.091-5.933-31.397c-0.604-1.959-1.171-3.734-1.263-3.937c-0.091-0.201-0.513-1.354-0.971-2.562
		c-4.484-12.192-11.441-24.514-20.046-35.425c-5.603-7.122-13.31-15.104-20.797-21.511c-2.344-2.015-6.756-5.529-9.355-7.433
		l-2.196-1.63l0.494-3.625c0.714-4.998,1.556-11.588,1.995-15.506c1.538-13.529,1.959-41.119,0.915-59.957
		c-3.021-54.317-17.135-99.354-41.265-131.538c-9.776-13.071-21.804-24.294-32.897-30.72l-0.843-0.494L256.686,56.434z
		 M263.111,148.776c6.334,0.989,12.065,3.936,16.66,8.513c4.431,4.449,7.359,10.069,8.439,16.22c0.477,2.783,0.513,7.213,0.092,9.85
		c-1.629,9.886-7.615,18.014-16.605,22.536c-6.188,3.131-13.986,3.918-20.98,2.124c-8.329-2.142-15.542-7.982-19.46-15.763
		c-2.16-4.302-3.148-8.604-3.148-13.639c0.018-8.202,3.075-15.562,8.824-21.329c5.292-5.272,11.882-8.256,19.589-8.86
		C257.857,148.318,261.445,148.52,263.111,148.776z"/>
</g>
</svg>
