<?xml version="1.0" encoding="utf-8"?>
<!-- Generator: Adobe Illustrator 17.1.0, SVG Export Plug-In . SVG Version: 6.00 Build 0)  -->
<!DOCTYPE svg PUBLIC "-//W3C//DTD SVG 1.1//EN" "http://www.w3.org/Graphics/SVG/1.1/DTD/svg11.dtd">
<svg version="1.1" id="Layer_1" xmlns="http://www.w3.org/2000/svg" xmlns:xlink="http://www.w3.org/1999/xlink" x="0px" y="0px"
	 viewBox="0 0 512 512" enable-background="new 0 0 512 512" xml:space="preserve">
<circle fill="#787878" cx="256" cy="256" r="256"/>
<path fill="#8D8D8D" fill-opacity="0.1" stroke="#FFFFFF" stroke-width="7" stroke-miterlimit="10" d="M397.8,297.2
	c0-77.9-63.2-141.2-141.2-141.2s-141.2,63.2-141.2,141.2h40.5c0-55.7,45.2-100.9,100.9-100.9s100.9,45.2,100.9,100.9"/>
<circle fill="#5E5E5E" cx="255.5" cy="256" r="90.7"/>
<path fill="#787878" stroke="#FFFFFF" stroke-width="16" stroke-miterlimit="10" d="M458.3,156C402.7,44.4,267.2-1.3,155.4,54.3
	C120.6,71.6,90.7,97.7,69,129.8l90.7,157.3c-16.7-53.2,12.8-109.7,66-126.5c9.3-3,19.1-4.5,28.8-4.7"/>
<path fill="#787878" stroke="#FFFFFF" stroke-width="16" stroke-miterlimit="10" d="M69,129.8c-69.4,103.6-41.8,244,61.9,313.5
	c32,21.5,69.1,34.4,107.6,37.5l94.8-161.4c-35.5,42.9-99,49-142,13.6c-14.6-12.1-25.5-28-31.4-45.9"/>
<path fill="#787878" stroke="#FFFFFF" stroke-width="16" stroke-miterlimit="10" d="M238.3,480.8c124.4,9.4,233-83.8,242.3-208.2
	c3-40.2-4.7-80.3-22.5-116.5H254.5c55.7,0.2,100.6,45.7,100.4,101.4c-0.1,22.6-7.8,44.3-21.8,62"/>
<path fill="#787878" stroke="#FFFFFF" stroke-width="16" stroke-miterlimit="10" d="M238.3,480.8l94.8-161.4
	c-14.9,17.8-35.6,30-58.5,34.3l-40.3,127.1"/>
<path fill="#787878" stroke="#FFFFFF" stroke-width="16" stroke-miterlimit="10" d="M458.3,156H254.5c30.7,0.1,59.6,14.2,78.7,38.4
	l129-32.4"/>
<path fill="#787878" stroke="#FFFFFF" stroke-width="16" stroke-miterlimit="10" d="M69,130.8l90.7,157.3
	c-6.7-22.6-5.3-46.9,4.1-68.6l-90.7-94.8"/>
</svg>
