<?xml version="1.0" encoding="utf-8"?>
<!-- Generator: Adobe Illustrator 13.0.0, SVG Export Plug-In . SVG Version: 6.00 Build 14948)  -->
<!DOCTYPE svg PUBLIC "-//W3C//DTD SVG 1.1//EN" "http://www.w3.org/Graphics/SVG/1.1/DTD/svg11.dtd">
<svg version="1.1" id="Layer_1" xmlns="http://www.w3.org/2000/svg" xmlns:xlink="http://www.w3.org/1999/xlink" x="0px" y="0px"
	 width="512px" height="512px" viewBox="0 0 512 512" enable-background="new 0 0 512 512" xml:space="preserve">
<circle fill="#FFFFFF" cx="256" cy="256" r="256"/>
<g>
	<path fill="#787878" d="M157.147,397.626c-8.656,8.656-24.549,6.799-35.497-4.147l-4.955-4.957
		c-10.948-10.946-12.805-26.84-4.148-35.496l241.65-241.65c8.656-8.658,24.55-6.8,35.498,4.148l4.955,4.956
		c10.946,10.947,12.807,26.839,4.147,35.497L157.147,397.626z"/>
	<path fill="#787878" d="M398.798,353.023c8.656,8.656,6.799,24.551-4.147,35.498l-4.955,4.955
		c-10.948,10.947-26.843,12.806-35.498,4.148l-241.65-241.651c-8.658-8.657-6.8-24.55,4.148-35.498l4.956-4.956
		c10.947-10.947,26.839-12.805,35.497-4.147L398.798,353.023z"/>
</g>
</svg>
