<?xml version="1.0" encoding="utf-8"?>
<!-- Generator: Adobe Illustrator 13.0.0, SVG Export Plug-In . SVG Version: 6.00 Build 14948)  -->
<!DOCTYPE svg PUBLIC "-//W3C//DTD SVG 1.1//EN" "http://www.w3.org/Graphics/SVG/1.1/DTD/svg11.dtd">
<svg version="1.1" id="Layer_1" xmlns="http://www.w3.org/2000/svg" xmlns:xlink="http://www.w3.org/1999/xlink" x="0px" y="0px"
	 width="615.52px" height="176.961px" viewBox="0 0 615.52 176.961" enable-background="new 0 0 615.52 176.961"
	 xml:space="preserve">
<g>
	<path fill="#DCDCDC" d="M501.452,0.042c-1.113,0.096-3.047,0.299-3.923,0.411c-8.594,1.079-17.067,3.326-25.632,6.779
		c-0.757,0.307-1.55,0.632-1.767,0.728c-0.215,0.094-0.402,0.169-0.414,0.169c-0.041,0,0.396-0.236,1.344-0.725
		c7.532-3.887,17.039-6.357,27.88-7.245c1.286-0.104,1.416-0.12,0.852-0.099c-0.631,0.024-2.823,0.203-4.293,0.348
		c-9.822,0.993-19.209,2.918-29.232,6.003c-1.133,0.349-5.516,1.806-5.914,1.963l-0.209,0.083l2.283,0.004c1.258,0,5.26,0,8.902,0
		h6.612l0.359-0.283c1.85-1.461,3.861-2.698,6.166-3.79c4.75-2.254,10.367-3.669,17.087-4.309C502.001,0.038,502.253,0,502.116,0
		C501.979,0.004,501.681,0.021,501.452,0.042z"/>
	<path fill="#DCDCDC" d="M497.114,0.104c-0.105,0.009-0.739,0.05-1.412,0.101c-13.131,0.899-26.637,3.226-40.146,6.911
		c-1.7,0.465-4.616,1.295-4.646,1.329c-0.018,0.017,1.57,0.021,6.704,0.017h2.205l0.536-0.232c5.71-2.466,13.103-4.654,20.339-6.012
		c5.427-1.017,10.146-1.612,16.751-2.097c0.378-0.024,0.416-0.033,0.166-0.033C497.441,0.087,497.217,0.095,497.114,0.104z"/>
	<path fill="#DCDCDC" d="M464.337,8.615c-0.137,0.054-0.752,0.307-1.371,0.561c-12.305,5.015-24.912,12.18-37.176,21.115
		c-0.674,0.493-1.304,0.949-1.4,1.017c-0.098,0.07-0.17,0.132-0.161,0.141c0.028,0.029,35.579,0.013,35.604-0.016
		c0.014-0.021,0.066-0.379,0.121-0.801c0.706-5.804,2.907-11.147,6.393-15.507c1.847-2.308,4.312-4.599,6.785-6.307
		c0.221-0.153,0.402-0.286,0.402-0.299c0-0.024-1.295,0.632-2.375,1.2c-9.535,5.069-18.844,11.923-28.28,20.824
		c-0.295,0.278-0.544,0.498-0.552,0.486c-0.025-0.025,0.568-1.312,1.025-2.225c1.938-3.873,4.377-7.252,7.53-10.458
		c3.661-3.706,7.672-6.621,12.915-9.382C464.678,8.498,464.794,8.423,464.337,8.615z"/>
	<path fill="#DCDCDC" d="M453.938,8.955c-15.41,5.111-30.847,12.234-46.764,21.584l-1.527,0.9l4.495,0.021
		c2.476,0.013,6.511,0.017,8.966,0.009l4.461-0.013l0.673-0.88c4.22-5.53,9.876-10.59,16.52-14.772
		c4.141-2.607,8.895-5.011,13.696-6.929c0.41-0.162,0.756-0.307,0.764-0.315C455.263,8.519,455.095,8.573,453.938,8.955z"/>
	<path fill="#DCDCDC" d="M412.894,32.635c-12.426,8.304-25.27,18.358-38.367,30.05l-1.369,1.219l6.788,0.013l6.787,0.008
		l-0.697,0.719c-1.578,1.623-4.001,4.135-4.816,4.991c-8.318,8.76-17.058,18.656-26.188,29.662l-1.565,1.891l9.28,0.013l9.282,0.008
		l-0.346,0.49c-6.362,9.034-14.045,20.521-23.627,35.338l-0.896,1.394l22.359,0.01c12.302,0.004,22.373,0,22.384-0.008
		c0.012-0.008-0.296-0.387-0.683-0.844c-6.09-7.188-11.085-15.054-14.592-22.97c-1.545-3.482-2.778-6.884-3.771-10.388
		c-0.283-0.987-0.791-2.918-0.791-2.996c0-0.014,3.878-0.026,8.62-0.026c8.19,0,8.618-0.005,8.591-0.074
		c-0.079-0.188-0.591-1.739-0.827-2.499c-1.777-5.71-2.777-11.074-3.168-16.979c-0.104-1.573-0.104-5.954,0-7.493
		c0.188-2.794,0.485-5.215,0.947-7.702c0.133-0.718,0.424-2.109,0.497-2.375l0.041-0.158h6.617c3.642,0,6.623-0.017,6.623-0.033
		c0-0.096,0.183-1.503,0.293-2.247c1.271-8.609,4.539-16.817,9.611-24.132c1.252-1.803,2.897-3.916,4.265-5.464
		c0.248-0.283,0.442-0.523,0.432-0.531C414.602,31.51,413.829,32.013,412.894,32.635z"/>
	<path fill="#DCDCDC" d="M432.345,32.211c-5.197,4.406-9.757,8.632-15.106,14.017c-5.301,5.326-9.951,10.366-15.146,16.406
		l-1.088,1.271l6.791,0.021l6.793,0.021l-0.469,0.644c-4.982,6.872-10.878,15.746-16.378,24.668
		c-2.434,3.944-7.116,11.79-7.116,11.923c0,0.014,3.641,0.025,8.088,0.025h8.086l4.646-12.758
		c5.427-14.899,4.694-12.877,4.646-12.844c-0.079,0.046-0.689-3.3-0.925-5.056c-0.267-1.952-0.449-4.015-0.529-5.929l-0.028-0.694
		h13.273c7.298,0,13.269,0.014,13.269,0.029c0,0.022-0.188,0.42-0.411,0.893l-0.41,0.863h0.701c0.656,0,0.701-0.003,0.669-0.075
		c-0.021-0.037-0.138-0.406-0.253-0.817c-0.12-0.412-0.226-0.781-0.238-0.823c-0.02-0.066,0.312-0.071,6.605-0.071
		c5.29,0,6.627-0.013,6.608-0.054c-2.051-5.085-3.523-10.474-4.197-15.327c-0.368-2.669-0.506-4.878-0.469-7.535
		c0.046-3.177,0.35-5.758,1.009-8.647c0.104-0.454,0.18-0.834,0.172-0.843c-0.021-0.021-1.634,1.827-2.759,3.159
		c-6.521,7.751-13.123,17.026-19.454,27.325c-0.507,0.827-0.926,1.496-0.934,1.491c-0.017-0.018-0.25-1.91-0.316-2.6
		c-0.228-2.245-0.29-3.765-0.261-6.364c0.021-2.143,0.062-2.947,0.236-4.679c0.502-4.986,1.765-9.793,3.762-14.322
		c0.356-0.809,1.275-2.661,1.693-3.421c0.174-0.316,0.312-0.581,0.299-0.594C433.196,31.507,432.806,31.817,432.345,32.211z"/>
	<path fill="#DCDCDC" d="M421.552,68.521c-0.024,0.066-4.742,13.015-10.487,28.784c-5.745,15.768-10.453,28.691-10.463,28.715
		c-0.016,0.043,3.405,0.057,17.022,0.057c16.188,0,17.041-0.004,17.07-0.075c0.069-0.178,3.384-9.274,3.384-9.291
		c0-0.009-2.788-0.021-6.193-0.024l-6.199-0.014l-0.193-0.095c-0.476-0.237-0.781-0.655-0.814-1.125l-0.016-0.274l8.514-23.367
		c4.684-12.851,8.517-23.371,8.517-23.383c0-0.009-4.521-0.017-10.048-0.017h-10.047L421.552,68.521z"/>
	<path fill="#DCDCDC" d="M473.226,68.501c-0.028,0.055-7.207,12.903-15.945,28.554c-8.739,15.65-15.963,28.584-16.052,28.74
		l-0.156,0.279l10.304-0.008l10.302-0.014l2.494-5.063c1.369-2.785,2.532-5.136,2.586-5.218c0.054-0.084,0.184-0.215,0.291-0.283
		c0.394-0.262,0.182-0.254,4.994-0.242l4.375,0.012l0.238,0.119c0.451,0.223,0.698,0.605,0.729,1.127
		c0.018,0.324-0.021,0.471-1.131,4.909c-0.631,2.521-1.146,4.594-1.146,4.62c0,0.029,3.388,0.037,10.283,0.033l10.283-0.015
		l4.228-28.749c2.319-15.813,4.221-28.783,4.227-28.824c0-0.066-0.76-0.071-15.424-0.071h-15.424L473.226,68.501z M485.64,79.304
		c0.298,0.136,0.529,0.36,0.681,0.655c0.207,0.415,0.19,0.548-0.295,2.511c-2.233,9.071-3.695,15.52-5.045,22.202
		c-0.194,0.98-0.386,1.84-0.419,1.911c-0.12,0.235-0.254,0.377-0.473,0.499l-0.225,0.125h-4.402h-4.4l-0.189-0.098
		c-0.257-0.125-0.469-0.35-0.609-0.627c-0.096-0.203-0.111-0.282-0.111-0.605c0-0.35,0.012-0.398,0.188-0.786
		c0.256-0.577,2.863-5.798,3.568-7.144c1.869-3.562,3.846-7.174,6.606-12.059c2.756-4.889,3.521-6.211,3.666-6.358
		c0.148-0.153,0.365-0.273,0.584-0.332C484.966,79.146,485.41,79.2,485.64,79.304z"/>
	<path fill="#DCDCDC" d="M516.19,68.501c-0.009,0.055-1.878,12.985-4.152,28.741c-2.271,15.756-4.144,28.688-4.15,28.74
		l-0.021,0.093l16.295-0.009l16.299-0.012l16.063-28.791c8.835-15.833,16.066-28.805,16.066-28.825c0-0.017-4.733-0.03-10.521-0.03
		h-10.521l-0.581,1.129c-0.319,0.623-2.01,3.973-3.758,7.444c-6.317,12.542-11.047,22.204-15.33,31.325
		c-0.479,1.012-0.918,1.904-0.984,1.979c-0.067,0.075-0.221,0.183-0.346,0.243c-0.198,0.102-0.26,0.109-0.548,0.094
		c-0.743-0.041-1.336-0.576-1.401-1.271c-0.021-0.203,0.019-0.4,0.294-1.461c2.039-7.904,4.284-17.654,6.395-27.792
		c0.871-4.189,2.344-11.497,2.344-11.643c0-0.032-2.747-0.044-10.709-0.044H516.21L516.19,68.501z"/>
	<path fill="#DCDCDC" d="M568.729,96.917c-8.756,15.678-16,28.656-16.099,28.834l-0.18,0.324l10.309-0.009l10.306-0.012l2.52-5.123
		c1.383-2.82,2.565-5.187,2.623-5.261c0.062-0.075,0.238-0.201,0.391-0.274l0.283-0.139l4.375-0.011
		c3.791-0.009,4.404,0,4.588,0.055c0.511,0.149,0.894,0.644,0.924,1.198c0.021,0.279-0.049,0.578-1.141,4.938l-1.162,4.639
		l10.3-0.008l10.306-0.014l4.2-28.646c2.31-15.755,4.211-28.725,4.227-28.824l0.025-0.174h-15.437h-15.437L568.729,96.917z
		 M596.771,79.225c0.627,0.163,1.058,0.697,1.058,1.308c0,0.108-0.176,0.926-0.396,1.81c-2.2,8.968-3.812,16.06-5.104,22.494
		c-0.174,0.863-0.34,1.634-0.372,1.71c-0.104,0.249-0.274,0.428-0.513,0.543l-0.234,0.117l-4.326,0.011
		c-4.275,0.009-4.326,0.009-4.551-0.073c-0.609-0.229-0.958-0.992-0.76-1.668c0.037-0.129,0.438-1.007,0.9-1.953
		c2.208-4.549,4.973-9.748,8.852-16.64c2.018-3.582,4.035-7.132,4.127-7.256c0.132-0.179,0.386-0.341,0.627-0.408
		C596.341,79.149,596.481,79.149,596.771,79.225z"/>
	<path fill="#DCDCDC" d="M438.124,86.125c-3.002,8.236-5.468,15.004-5.477,15.029c-0.013,0.041,1.195,0.053,5.967,0.053
		c3.293,0,5.981,0.008,5.981,0.021c0,0.008-0.149,0.691-0.332,1.519c-1.237,5.562-2.468,11.666-3.426,17.019
		c-0.148,0.834-0.277,1.553-0.29,1.594c-0.008,0.041,0,0.062,0.018,0.041c0.02-0.021,1.881-3.338,4.131-7.377l4.098-7.334
		l-0.598-0.762c-1.14-1.449-2.261-2.932-3.22-4.256l-0.336-0.465h3.604h3.608l2.043-3.666c1.123-2.014,2.07-3.71,2.107-3.77
		c0.06-0.104,0.041-0.129-0.74-1.246c-4.683-6.675-8.477-13.518-11.149-20.088c-0.236-0.581-0.457-1.112-0.484-1.175
		C443.583,71.154,443.226,72.113,438.124,86.125z"/>
	<path fill="#DCDCDC" d="M464.578,126.295c-0.581,1.178-0.979,1.941-1.079,2.059c-0.101,0.116-0.25,0.229-0.426,0.312l-0.272,0.128
		l-11.753,0.013l-11.75,0.01l-0.158,0.985c-0.276,1.763-0.725,4.769-0.966,6.486c-0.13,0.927-0.245,1.692-0.257,1.71
		c-0.029,0.034-0.764-0.631-2.475-2.227c-1.339-1.244-4.982-4.869-6.166-6.127l-0.764-0.812l-15.07-0.019l-15.073-0.021
		l-0.232-0.107c-0.129-0.062-0.312-0.179-0.402-0.262l-0.166-0.152l-0.758,1.899c-0.699,1.769-2.337,5.929-2.96,7.548
		c-0.149,0.387-0.269,0.709-0.262,0.715c0.006,0.008,20.049,0.008,44.539,0.004l44.525-0.012l-1.166-0.859
		c-3.588-2.65-7.324-5.608-10.62-8.408c-1.665-1.411-4.526-3.928-5.141-4.521l-0.229-0.224L464.578,126.295z"/>
</g>
<g>
	<g>
		<path fill="#DCDCDC" d="M223.716,98.898h-44.285c0,6.897,1.728,12.418,5.184,16.57c3.456,4.152,8.163,6.227,14.119,6.227
			c4.045,0,7.573-1.043,10.588-3.127c3.381-2.383,5.587-5.773,6.619-10.17h7.389c-1.762,5.929-4.408,10.451-7.933,13.563
			c-4.188,3.78-9.695,5.669-16.527,5.669c-9.254,0-16.16-3.09-20.714-9.277c-3.819-5.229-5.729-12.041-5.729-20.438
			c0-8.689,2.275-15.868,6.823-21.538c4.843-6.039,11.299-9.059,19.374-9.059c8.29,0,14.599,2.897,18.929,8.692
			C221.661,81.513,223.716,89.145,223.716,98.898z M216.712,93.438c0-5.662-1.396-10.292-4.19-13.895
			c-3.236-4.193-7.869-6.289-13.899-6.289c-4.928,0-9.043,1.617-12.354,4.853c-3.677,3.532-5.957,8.642-6.837,15.331H216.712
			L216.712,93.438z"/>
		<path fill="#DCDCDC" d="M281.966,68.861L259.8,125.969h-7.388l-21.813-57.108l7.123,0.015l18.527,49.171l18.559-49.175
			L281.966,68.861z"/>
		<path fill="#DCDCDC" d="M299.342,125.969h-6.649v-79.31h6.649V125.969z"/>
	</g>
	<path fill="#DCDCDC" d="M160.589,94.202C151.192,50.277,99.3,16.058,99.3,16.058s64.251,65.953,50.667,80.575
		c-13.587,14.622-95.565-30.001-95.565-30.001s76.942,42.541,71.983,53.155c-3.731,7.992-11.867,19.499-126.385,57.175
		C0,176.961,169.986,138.13,160.589,94.202z"/>
</g>
</svg>
