<?xml version="1.0" encoding="utf-8"?>
<!-- Generator: Adobe Illustrator 13.0.0, SVG Export Plug-In . SVG Version: 6.00 Build 14948)  -->
<!DOCTYPE svg PUBLIC "-//W3C//DTD SVG 1.1//EN" "http://www.w3.org/Graphics/SVG/1.1/DTD/svg11.dtd">
<svg version="1.1" id="Layer_1" xmlns="http://www.w3.org/2000/svg" xmlns:xlink="http://www.w3.org/1999/xlink" x="0px" y="0px"
	 width="1291.03px" height="459.313px" viewBox="0 0 1291.03 459.313" enable-background="new 0 0 1291.03 459.313"
	 xml:space="preserve">
<g>
	<g>
		<path d="M638.615,236.478H512.2c0,19.688,4.931,35.447,14.795,47.299c9.867,11.852,23.301,17.771,40.305,17.771
			c11.545,0,21.617-2.976,30.222-8.927c9.653-6.8,15.95-16.48,18.894-29.03h21.093c-5.031,16.925-12.583,29.835-22.644,38.721
			c-11.958,10.792-27.68,16.184-47.178,16.184c-26.419,0-46.129-8.822-59.13-26.488c-10.904-14.923-16.352-34.369-16.352-58.336
			c0-24.805,6.492-45.298,19.476-61.481c13.822-17.242,32.255-25.863,55.302-25.863c23.665,0,41.676,8.271,54.035,24.814
			C632.748,186.848,638.615,208.633,638.615,236.478z M618.62,220.888c0-16.162-3.988-29.38-11.963-39.664
			c-9.236-11.968-22.463-17.952-39.674-17.952c-14.065,0-25.816,4.618-35.264,13.854c-10.496,10.083-17.003,24.667-19.519,43.763
			H618.62z"/>
		<path d="M804.895,150.732l-63.281,163.017h-21.088l-62.264-163.017l20.329,0.042l52.887,140.363l52.976-140.374L804.895,150.732z"
			/>
		<path d="M854.493,313.749h-18.979V87.355h18.979V313.749z"/>
	</g>
	<g>
		<path d="M922.005,121.014h-30.588c0,4.713,1.192,8.494,3.57,11.332c2.383,2.838,5.623,4.258,9.728,4.258
			c2.785,0,5.217-0.709,7.297-2.134c2.33-1.626,3.851-3.935,4.561-6.932h5.089c-1.213,4.046-3.035,7.139-5.465,9.262
			c-2.886,2.579-6.678,3.871-11.386,3.871c-6.382,0-11.137-2.128-14.271-6.386c-2.637-3.601-3.95-8.287-3.95-14.065
			c0-5.983,1.567-10.929,4.712-14.827c3.342-4.163,7.802-6.239,13.377-6.239c5.725,0,10.083,2.007,13.069,6.016
			C920.586,108.982,922.005,114.262,922.005,121.014z M917.176,117.201c0-3.919-0.964-7.127-2.896-9.627
			c-2.235-2.902-5.438-4.353-9.602-4.353c-3.405,0-6.249,1.122-8.537,3.362c-2.541,2.441-4.114,5.984-4.724,10.618H917.176z"/>
		<path d="M936.086,139.569h-4.575V84.919h4.575V139.569z"/>
		<path d="M981.066,121.014h-30.587c0,4.713,1.192,8.494,3.575,11.332c2.377,2.838,5.618,4.258,9.723,4.258
			c2.785,0,5.222-0.709,7.297-2.134c2.33-1.626,3.85-3.935,4.561-6.932h5.088c-1.213,4.046-3.034,7.139-5.465,9.262
			c-2.886,2.579-6.678,3.871-11.385,3.871c-6.382,0-11.137-2.128-14.272-6.386c-2.632-3.601-3.95-8.287-3.95-14.065
			c0-5.983,1.572-10.929,4.713-14.827c3.342-4.163,7.801-6.239,13.377-6.239c5.724,0,10.083,2.007,13.068,6.016
			C979.647,108.982,981.066,114.262,981.066,121.014z M976.237,117.201c0-3.919-0.963-7.127-2.896-9.627
			c-2.234-2.902-5.434-4.353-9.601-4.353c-3.405,0-6.249,1.122-8.536,3.362c-2.537,2.441-4.115,5.984-4.725,10.618H976.237z"/>
		<path d="M1023.039,126.012c-0.964,5.116-3.066,8.913-6.307,11.391c-2.833,2.176-6.322,3.267-10.474,3.267
			c-6.228,0-10.915-2.054-14.05-6.158c-2.786-3.648-4.178-8.488-4.178-14.526c0-5.724,1.493-10.516,4.479-14.372
			c3.342-4.306,7.895-6.461,13.668-6.461c4.606,0,8.292,1.091,11.052,3.272c2.758,2.182,4.49,5.582,5.2,10.2h-4.64
			c-0.857-3.209-2.318-5.582-4.368-7.112c-2.056-1.53-4.476-2.292-7.26-2.292c-4.258,0-7.541,1.6-9.845,4.803
			c-2.304,3.199-3.458,7.186-3.458,11.962s1.037,8.643,3.112,11.587c2.385,3.358,5.805,5.031,10.264,5.031
			c3.295,0,5.983-0.937,8.06-2.817c2.076-1.88,3.368-4.47,3.877-7.774H1023.039z"/>
		<path d="M1045.968,139.749c-0.509,0.159-1.329,0.349-2.473,0.577c-1.139,0.228-2.064,0.344-2.774,0.344
			c-2.536,0-4.337-0.635-5.401-1.896c-1.064-1.271-1.6-3.219-1.6-5.852v-28.855h-5.512v-3.813h5.512v-10.93h4.575v10.93h7.371v3.813
			h-7.371v27.595c0,1.975,0.254,3.294,0.763,3.956c0.503,0.656,1.594,0.985,3.267,0.985c1.367,0,2.579-0.223,3.644-0.678V139.749z"
			/>
		<path d="M1071.016,104.068c-2.685,0-4.92,0.455-6.721,1.366c-1.793,0.916-3.224,2.41-4.284,4.485
			c-1.317,2.637-1.975,5.958-1.975,9.96v19.689h-4.575v-39.325h4.575v7.361c1.319-3.284,3.188-5.592,5.619-6.906
			c1.869-1.027,4.321-1.546,7.36-1.546V104.068z"/>
		<path d="M1111.012,119.912c0,6.085-1.62,11.062-4.854,14.945c-3.241,3.876-7.668,5.813-13.287,5.813
			c-5.258,0-9.563-1.747-12.899-5.248c-3.597-3.802-5.39-8.944-5.39-15.437c0-6.286,1.604-11.327,4.817-15.129
			c3.215-3.802,7.679-5.704,13.398-5.704c5.818,0,10.347,1.955,13.587,5.857C1109.472,108.759,1111.012,113.727,1111.012,119.912z
			 M1106.184,120.065c0-5.083-0.99-9.045-2.967-11.888c-2.281-3.304-5.756-4.957-10.42-4.957c-4.258,0-7.558,1.525-9.888,4.575
			c-2.335,3.045-3.5,7.085-3.5,12.116c0,5.232,1.192,9.326,3.575,12.271c2.382,2.949,5.681,4.421,9.886,4.421
			c4.412,0,7.811-1.7,10.194-5.105C1105.147,128.501,1106.184,124.688,1106.184,120.065z"/>
		<path d="M1150.512,139.569h-4.575v-25.853c0-6.995-3.33-10.496-9.993-10.496c-4.844,0-8.33,2.102-10.447,6.312
			c-1.059,2.129-1.589,4.739-1.589,7.832v22.204h-4.575v-39.325h4.575v5.465c2.019-2.176,4.03-3.813,6.026-4.909
			c1.996-1.096,4.205-1.647,6.631-1.647c2.07,0,4.003,0.292,5.798,0.874c1.796,0.582,3.347,1.546,4.661,2.886
			c1.312,1.345,2.223,2.796,2.731,4.369c0.503,1.573,0.757,3.543,0.757,5.926V139.569z"/>
		<path d="M1167.051,91.697h-4.999v-6.778h4.999V91.697z M1166.796,139.569h-4.575v-39.314h4.575V139.569z"/>
		<path d="M1211.54,126.012c-0.965,5.116-3.067,8.913-6.302,11.391c-2.839,2.176-6.329,3.267-10.481,3.267
			c-6.226,0-10.913-2.054-14.049-6.158c-2.785-3.648-4.177-8.488-4.177-14.526c0-5.724,1.492-10.516,4.479-14.372
			c3.342-4.306,7.895-6.461,13.667-6.461c4.607,0,8.294,1.091,11.052,3.272c2.76,2.182,4.491,5.582,5.201,10.2h-4.64
			c-0.857-3.209-2.32-5.582-4.368-7.112c-2.056-1.53-4.476-2.292-7.262-2.292c-4.257,0-7.534,1.6-9.844,4.803
			c-2.303,3.199-3.458,7.186-3.458,11.962s1.038,8.643,3.12,11.587c2.377,3.358,5.798,5.031,10.262,5.031
			c3.295,0,5.979-0.937,8.055-2.817c2.076-1.88,3.368-4.47,3.877-7.774H1211.54z"/>
		<path d="M919.872,187.017l-15.283,39.314H899.5l-15.028-39.314l4.903,0.011l12.772,33.887l12.789-33.887L919.872,187.017z"/>
		<path d="M932.088,178.459h-4.999v-6.778h4.999V178.459z M931.833,226.331h-4.575v-39.314h4.575V226.331z"/>
		<path d="M972.494,215.941c0,3.653-1.441,6.482-4.333,8.483c-2.886,2.007-6.734,3.008-11.549,3.008
			c-4.311,0-7.859-1.138-10.644-3.421c-2.987-2.437-4.485-5.756-4.485-9.966h4.645c0.709,3.31,1.964,5.691,3.765,7.143
			c1.8,1.451,4.453,2.178,7.954,2.178c3.197,0,5.682-0.764,7.461-2.283c1.573-1.319,2.356-2.97,2.356-4.951
			c0-3.146-2.177-5.349-6.541-6.619c-4.056-1.018-8.112-2.028-12.169-3.045c-4.357-1.774-6.539-4.92-6.539-9.442
			c0-3.294,1.255-5.973,3.754-8.027c2.505-2.055,5.857-3.083,10.057-3.083c4.396,0,7.886,0.975,10.464,2.929
			c2.579,1.954,4.152,5.11,4.708,9.474h-4.634c-0.762-5.555-4.306-8.335-10.633-8.335c-2.733,0-4.899,0.599-6.492,1.79
			c-1.595,1.191-2.394,2.827-2.394,4.908c0,2.893,2.182,5.026,6.539,6.393c4.057,1.17,8.112,2.335,12.169,3.505
			C970.316,208.507,972.494,211.626,972.494,215.941z"/>
		<path d="M1012.57,226.331h-4.575v-5.423c-1.971,2.378-3.967,4.058-5.984,5.047c-2.022,0.985-4.3,1.478-6.826,1.478
			c-4.697,0-8.234-1.34-10.607-4.024c-2.123-2.432-3.188-5.8-3.188-10.104v-26.287h4.576v25.933c0,6.942,3.356,10.417,10.072,10.417
			c3.834,0,6.836-1.494,9.008-4.486c1.964-2.685,2.949-6.058,2.949-10.113v-21.75h4.575V226.331z"/>
		<path d="M1058.699,226.167c-0.869,0.301-1.519,0.503-1.954,0.608c-0.434,0.096-0.979,0.148-1.641,0.148
			c-1.992,0-3.4-0.381-4.217-1.144c-1.021-0.916-1.529-2.568-1.529-4.956c-2.018,2.308-4.39,4.023-7.118,5.146
			c-2.371,0.976-4.866,1.462-7.492,1.462c-3.734,0-6.81-0.965-9.235-2.892c-2.573-2.081-3.861-4.897-3.861-8.452
			c0-3.5,1.293-6.265,3.871-8.292c2.33-1.832,5.619-3.019,9.871-3.58l5.692-0.763c1.113-0.148,2.251-0.302,3.415-0.455
			c1.924-0.307,3.21-0.784,3.873-1.445c0.655-0.663,0.984-1.827,0.984-3.501c0-2.536-0.795-4.518-2.389-5.941
			c-1.594-1.419-4.04-2.129-7.329-2.129c-3.743,0-6.503,0.71-8.271,2.129c-1.774,1.414-2.859,3.665-3.262,6.752h-4.635
			c0-3.797,1.319-6.858,3.951-9.183c2.887-2.511,6.964-3.766,12.228-3.766c4.205,0,7.499,0.837,9.877,2.505
			c2.938,2.076,4.406,5.365,4.406,9.871v21.261c0,2.433,0.682,3.644,2.043,3.644c0.758,0,1.663-0.195,2.722-0.593V226.167z
			 M1049.358,211.731v-6.148c-2.229,0.911-4.888,1.521-7.979,1.821c-5.679,0.609-9.274,1.293-10.793,2.05
			c-2.739,1.366-4.104,3.569-4.104,6.604c0,2.182,0.826,3.914,2.473,5.2c1.648,1.292,3.734,1.938,6.271,1.938
			c3.696,0,6.862-0.884,9.5-2.658C1047.812,218.461,1049.358,215.528,1049.358,211.731z"/>
		<path d="M1071.065,226.331h-4.576v-54.65h4.576V226.331z"/>
		<path d="M1088.168,178.459h-4.998v-6.778h4.998V178.459z M1087.915,226.331h-4.575v-39.314h4.575V226.331z"/>
		<path d="M1129.5,226.331h-32.949v-4.025l26.097-31.476h-24.35v-3.813h30.195l0.026,4.036l-26.09,31.465h27.07V226.331z"/>
		<path d="M1172.575,226.167c-0.869,0.301-1.521,0.503-1.954,0.608c-0.436,0.096-0.985,0.148-1.646,0.148
			c-1.992,0-3.396-0.381-4.211-1.144c-1.021-0.916-1.53-2.568-1.53-4.956c-2.018,2.308-4.391,4.023-7.117,5.146
			c-2.373,0.976-4.873,1.462-7.494,1.462c-3.738,0-6.814-0.965-9.234-2.892c-2.574-2.081-3.86-4.897-3.86-8.452
			c0-3.5,1.286-6.265,3.871-8.292c2.324-1.832,5.613-3.019,9.865-3.58l5.692-0.763c1.113-0.148,2.257-0.302,3.415-0.455
			c1.923-0.307,3.216-0.784,3.873-1.445c0.655-0.663,0.989-1.827,0.989-3.501c0-2.536-0.8-4.518-2.394-5.941
			c-1.594-1.419-4.036-2.129-7.323-2.129c-3.744,0-6.504,0.71-8.272,2.129c-1.773,1.414-2.86,3.665-3.267,6.752h-4.629
			c0-3.797,1.313-6.858,3.951-9.183c2.886-2.511,6.962-3.766,12.227-3.766c4.205,0,7.494,0.837,9.876,2.505
			c2.935,2.076,4.406,5.365,4.406,9.871v21.261c0,2.433,0.678,3.644,2.039,3.644c0.757,0,1.667-0.195,2.728-0.593V226.167z
			 M1163.233,211.731v-6.148c-2.229,0.911-4.893,1.521-7.98,1.821c-5.677,0.609-9.272,1.293-10.793,2.05
			c-2.737,1.366-4.104,3.569-4.104,6.604c0,2.182,0.82,3.914,2.468,5.2c1.647,1.292,3.738,1.938,6.271,1.938
			c3.701,0,6.868-0.884,9.5-2.658C1161.686,218.461,1163.233,215.528,1163.233,211.731z"/>
		<path d="M1193.549,226.511c-0.508,0.159-1.329,0.35-2.473,0.578c-1.138,0.228-2.065,0.344-2.775,0.344
			c-2.536,0-4.337-0.635-5.401-1.896c-1.069-1.271-1.599-3.22-1.599-5.853V190.83h-5.513v-3.813h5.513v-10.93h4.575v10.93h7.372
			v3.813h-7.372v27.595c0,1.976,0.255,3.295,0.757,3.956c0.51,0.655,1.6,0.985,3.268,0.985c1.371,0,2.584-0.224,3.648-0.678V226.511
			z"/>
		<path d="M1206.296,178.459h-4.999v-6.778h4.999V178.459z M1206.042,226.331h-4.575v-39.314h4.575V226.331z"/>
		<path d="M1251.532,206.674c0,6.085-1.622,11.062-4.857,14.944c-3.241,3.877-7.668,5.814-13.281,5.814
			c-5.265,0-9.563-1.748-12.905-5.247c-3.59-3.804-5.391-8.945-5.391-15.438c0-6.285,1.609-11.327,4.819-15.129
			c3.214-3.803,7.679-5.704,13.397-5.704c5.819,0,10.348,1.954,13.588,5.857C1249.989,195.521,1251.532,200.489,1251.532,206.674z
			 M1246.701,206.827c0-5.083-0.985-9.044-2.966-11.889c-2.281-3.304-5.756-4.956-10.421-4.956c-4.258,0-7.552,1.525-9.887,4.575
			c-2.33,3.045-3.501,7.085-3.501,12.116c0,5.231,1.192,9.325,3.574,12.27c2.383,2.949,5.683,4.423,9.893,4.423
			c4.411,0,7.806-1.7,10.189-5.106C1245.663,215.264,1246.701,211.45,1246.701,206.827z"/>
		<path d="M1291.03,226.331h-4.575v-25.853c0-6.996-3.331-10.496-9.993-10.496c-4.844,0-8.328,2.103-10.448,6.312
			c-1.059,2.128-1.588,4.739-1.588,7.832v22.204h-4.575v-39.324h4.575v5.465c2.022-2.177,4.029-3.812,6.026-4.909
			c1.996-1.097,4.204-1.647,6.629-1.647c2.076,0,4.009,0.292,5.8,0.875c1.795,0.582,3.353,1.546,4.665,2.886
			c1.312,1.345,2.219,2.796,2.728,4.368c0.503,1.572,0.757,3.543,0.757,5.926V226.331z"/>
		<path d="M893.876,313.094H889.3v-54.65h4.576V313.094z"/>
		<path d="M940.571,312.929c-0.868,0.302-1.514,0.503-1.947,0.609c-0.435,0.095-0.985,0.148-1.647,0.148
			c-1.992,0-3.395-0.381-4.21-1.145c-1.022-0.916-1.536-2.568-1.536-4.956c-2.018,2.309-4.39,4.024-7.112,5.147
			c-2.372,0.974-4.871,1.461-7.498,1.461c-3.733,0-6.81-0.964-9.235-2.892c-2.573-2.08-3.86-4.898-3.86-8.452
			c0-3.499,1.292-6.265,3.871-8.292c2.33-1.832,5.618-3.019,9.87-3.58l5.693-0.763c1.112-0.148,2.25-0.302,3.416-0.454
			c1.922-0.308,3.214-0.785,3.87-1.446c0.657-0.662,0.985-1.826,0.985-3.501c0-2.536-0.795-4.517-2.388-5.941
			c-1.594-1.419-4.035-2.129-7.323-2.129c-3.75,0-6.504,0.71-8.277,2.129c-1.769,1.415-2.859,3.665-3.263,6.751h-4.633
			c0-3.796,1.317-6.856,3.95-9.181c2.886-2.512,6.964-3.766,12.232-3.766c4.199,0,7.493,0.837,9.871,2.504
			c2.938,2.076,4.405,5.364,4.405,9.871v21.262c0,2.431,0.684,3.644,2.045,3.644c0.757,0,1.662-0.195,2.721-0.593V312.929z
			 M931.23,298.493v-6.148c-2.229,0.911-4.888,1.521-7.98,1.821c-5.671,0.61-9.272,1.293-10.792,2.05
			c-2.732,1.367-4.104,3.569-4.104,6.604c0,2.182,0.826,3.913,2.473,5.2c1.647,1.292,3.734,1.938,6.271,1.938
			c3.696,0,6.863-0.884,9.501-2.658C929.684,305.224,931.23,302.291,931.23,298.493z"/>
		<path d="M984.455,293.282c0,6.54-1.444,11.613-4.331,15.21c-3.04,3.802-7.52,5.702-13.444,5.702c-2.686,0-5.317-0.714-7.901-2.145
			c-2.584-1.435-4.507-3.399-5.772-5.904l-0.153,6.948h-4.576v-54.65h4.576v21.627c1.218-2.087,3.077-3.835,5.581-5.259
			c2.511-1.425,5.307-2.134,8.398-2.134c5.772,0,10.231,2.103,13.372,6.312C983.037,282.791,984.455,287.558,984.455,293.282z
			 M979.626,293.743c0-5.185-1.182-9.315-3.538-12.387c-2.357-3.075-5.64-4.612-9.85-4.612c-3.855,0-7.048,1.537-9.585,4.612
			c-2.536,3.071-3.802,7.102-3.802,12.079c0,4.677,1.064,8.511,3.193,11.507c2.436,3.458,5.91,5.186,10.422,5.186
			c1.726,0,3.319-0.292,4.792-0.879c1.473-0.584,2.764-1.431,3.881-2.554c1.467-1.472,2.584-3.224,3.348-5.258
			C979.245,299.409,979.626,296.841,979.626,293.743z"/>
		<path d="M1027.958,293.436c0,6.085-1.62,11.063-4.856,14.944c-3.24,3.876-7.667,5.814-13.28,5.814
			c-5.265,0-9.565-1.748-12.905-5.248c-3.59-3.802-5.392-8.943-5.392-15.436c0-6.287,1.61-11.328,4.819-15.13
			c3.214-3.802,7.679-5.703,13.398-5.703c5.818,0,10.347,1.954,13.587,5.856C1026.417,282.284,1027.958,287.251,1027.958,293.436z
			 M1023.128,293.59c0-5.084-0.985-9.045-2.965-11.89c-2.282-3.303-5.756-4.956-10.421-4.956c-4.258,0-7.553,1.524-9.888,4.575
			c-2.33,3.045-3.5,7.085-3.5,12.116c0,5.232,1.19,9.325,3.574,12.271c2.383,2.949,5.682,4.422,9.893,4.422
			c4.411,0,7.806-1.701,10.188-5.105C1022.09,302.026,1023.128,298.212,1023.128,293.59z"/>
		<path d="M1054.086,277.591c-2.685,0-4.919,0.456-6.721,1.368c-1.795,0.915-3.224,2.409-4.283,4.483
			c-1.319,2.638-1.975,5.959-1.975,9.963v19.688h-4.575v-39.325h4.575v7.36c1.317-3.283,3.188-5.592,5.617-6.904
			c1.87-1.027,4.321-1.547,7.361-1.547V277.591z"/>
		<path d="M1096.658,312.929c-0.869,0.302-1.521,0.503-1.954,0.609c-0.436,0.095-0.98,0.148-1.648,0.148
			c-1.99,0-3.393-0.381-4.209-1.145c-1.021-0.916-1.53-2.568-1.53-4.956c-2.017,2.309-4.39,4.024-7.117,5.147
			c-2.373,0.974-4.872,1.461-7.493,1.461c-3.733,0-6.814-0.964-9.236-2.892c-2.572-2.08-3.859-4.898-3.859-8.452
			c0-3.499,1.287-6.265,3.871-8.292c2.324-1.832,5.619-3.019,9.865-3.58l5.692-0.763c1.117-0.148,2.256-0.302,3.417-0.454
			c1.922-0.308,3.214-0.785,3.869-1.446c0.663-0.662,0.991-1.826,0.991-3.501c0-2.536-0.8-4.517-2.394-5.941
			c-1.594-1.419-4.035-2.129-7.324-2.129c-3.743,0-6.503,0.71-8.271,2.129c-1.773,1.415-2.859,3.665-3.267,6.751h-4.628
			c0-3.796,1.312-6.856,3.95-9.181c2.886-2.512,6.964-3.766,12.228-3.766c4.205,0,7.492,0.837,9.875,2.504
			c2.935,2.076,4.406,5.364,4.406,9.871v21.262c0,2.431,0.678,3.644,2.044,3.644c0.753,0,1.664-0.195,2.723-0.593V312.929z
			 M1087.316,298.493v-6.148c-2.229,0.911-4.893,1.521-7.98,1.821c-5.676,0.61-9.272,1.293-10.792,2.05
			c-2.738,1.367-4.104,3.569-4.104,6.604c0,2.182,0.82,3.913,2.467,5.2c1.646,1.292,3.738,1.938,6.271,1.938
			c3.7,0,6.867-0.884,9.5-2.658C1085.769,305.224,1087.316,302.291,1087.316,298.493z"/>
		<path d="M1117.633,313.273c-0.509,0.158-1.329,0.35-2.473,0.577c-1.14,0.229-2.066,0.344-2.774,0.344
			c-2.538,0-4.338-0.635-5.401-1.896c-1.064-1.27-1.6-3.22-1.6-5.851v-28.856h-5.514v-3.812h5.514v-10.93h4.574v10.93h7.372v3.812
			h-7.372v27.596c0,1.975,0.255,3.294,0.762,3.957c0.505,0.655,1.596,0.984,3.269,0.984c1.366,0,2.579-0.223,3.644-0.679V313.273z"
			/>
		<path d="M1158.763,293.436c0,6.085-1.62,11.063-4.856,14.944c-3.24,3.876-7.668,5.814-13.286,5.814
			c-5.259,0-9.563-1.748-12.9-5.248c-3.595-3.802-5.39-8.943-5.39-15.436c0-6.287,1.604-11.328,4.819-15.13
			c3.214-3.802,7.677-5.703,13.396-5.703c5.82,0,10.347,1.954,13.589,5.856C1157.222,282.284,1158.763,287.251,1158.763,293.436z
			 M1153.934,293.59c0-5.084-0.991-9.045-2.966-11.89c-2.283-3.303-5.756-4.956-10.422-4.956c-4.258,0-7.558,1.524-9.886,4.575
			c-2.336,3.045-3.501,7.085-3.501,12.116c0,5.232,1.191,9.325,3.574,12.271c2.383,2.949,5.683,4.422,9.887,4.422
			c4.411,0,7.812-1.701,10.193-5.105C1152.896,302.026,1153.934,298.212,1153.934,293.59z"/>
		<path d="M1184.891,277.591c-2.684,0-4.919,0.456-6.72,1.368c-1.795,0.915-3.226,2.409-4.284,4.483
			c-1.318,2.638-1.976,5.959-1.976,9.963v19.688h-4.575v-39.325h4.575v7.36c1.313-3.283,3.188-5.592,5.613-6.904
			c1.876-1.027,4.328-1.547,7.366-1.547V277.591z"/>
		<path d="M1223.559,273.812l-14.837,39.16c-3.899,10.437-8.024,15.659-12.376,15.659c-0.916,0-1.765-0.079-2.548-0.233
			c-0.784-0.153-1.355-0.255-1.704-0.308v-4.289c0.556,0.11,1.148,0.223,1.779,0.339c0.635,0.111,1.255,0.169,1.863,0.169
			c2.076,0,3.717-1.171,4.935-3.499c1.214-3.246,2.171-5.709,2.882-7.382l-15.257-39.616l5.163-0.032l12.619,33.706l12.545-33.664
			L1223.559,273.812z"/>
	</g>
	<path d="M458.413,223.069C431.591,97.682,283.459,0,283.459,0s183.41,188.267,144.632,230.007
		c-38.785,41.739-272.799-85.64-272.799-85.64S374.93,265.804,360.774,296.105C350.125,318.919,326.899,351.762,0,459.313
		C0,459.313,485.24,348.467,458.413,223.069z"/>
</g>
</svg>
