<?xml version="1.0" encoding="utf-8"?>
<!-- Generator: Adobe Illustrator 13.0.0, SVG Export Plug-In . SVG Version: 6.00 Build 14948)  -->
<!DOCTYPE svg PUBLIC "-//W3C//DTD SVG 1.1//EN" "http://www.w3.org/Graphics/SVG/1.1/DTD/svg11.dtd">
<svg version="1.1" id="Layer_1" xmlns="http://www.w3.org/2000/svg" xmlns:xlink="http://www.w3.org/1999/xlink" x="0px" y="0px"
	 width="615.52px" height="176.961px" viewBox="0 0 615.52 176.961" enable-background="new 0 0 615.52 176.961"
	 xml:space="preserve">
<g>
	<path d="M501.452,0.042c-1.113,0.096-3.047,0.299-3.923,0.411c-8.593,1.079-17.067,3.326-25.632,6.779
		c-0.756,0.307-1.549,0.632-1.766,0.728c-0.215,0.094-0.402,0.169-0.414,0.169c-0.041,0,0.395-0.236,1.344-0.725
		c7.532-3.887,17.039-6.357,27.879-7.245c1.287-0.104,1.416-0.12,0.852-0.099c-0.631,0.024-2.823,0.203-4.293,0.348
		c-9.822,0.993-19.209,2.918-29.232,6.003c-1.133,0.349-5.516,1.806-5.914,1.963l-0.209,0.083l2.283,0.004c1.258,0,5.26,0,8.902,0
		h6.612l0.36-0.283c1.849-1.461,3.861-2.698,6.166-3.79c4.75-2.254,10.367-3.669,17.087-4.309C502.001,0.038,502.253,0,502.116,0
		C501.979,0.004,501.681,0.021,501.452,0.042z"/>
	<path d="M497.114,0.104c-0.105,0.009-0.739,0.05-1.412,0.101c-13.131,0.899-26.637,3.226-40.146,6.911
		c-1.701,0.465-4.617,1.295-4.646,1.329c-0.017,0.017,1.57,0.021,6.704,0.017h2.205l0.536-0.232
		c5.71-2.466,13.103-4.654,20.339-6.012c5.427-1.017,10.146-1.612,16.751-2.097c0.378-0.024,0.416-0.033,0.166-0.033
		C497.441,0.087,497.217,0.095,497.114,0.104z"/>
	<path d="M464.337,8.615c-0.137,0.054-0.752,0.307-1.371,0.561c-12.305,5.015-24.912,12.18-37.176,21.115
		c-0.674,0.493-1.304,0.949-1.4,1.017c-0.098,0.07-0.17,0.132-0.162,0.141c0.029,0.029,35.58,0.013,35.604-0.016
		c0.014-0.021,0.066-0.379,0.121-0.801c0.706-5.804,2.907-11.147,6.393-15.507c1.846-2.308,4.311-4.599,6.785-6.307
		c0.221-0.153,0.402-0.286,0.402-0.299c0-0.024-1.295,0.632-2.375,1.2c-9.535,5.069-18.844,11.923-28.28,20.824
		c-0.295,0.278-0.544,0.498-0.552,0.486c-0.025-0.025,0.568-1.312,1.026-2.225c1.938-3.873,4.376-7.252,7.53-10.458
		c3.661-3.706,7.672-6.621,12.915-9.382C464.678,8.498,464.794,8.423,464.337,8.615z"/>
	<path d="M453.937,8.955c-15.41,5.111-30.846,12.234-46.763,21.584l-1.528,0.9l4.496,0.021c2.475,0.013,6.51,0.017,8.965,0.009
		l4.461-0.013l0.673-0.88c4.22-5.53,9.876-10.59,16.52-14.772c4.14-2.607,8.894-5.011,13.696-6.929
		c0.41-0.162,0.756-0.307,0.764-0.315C455.263,8.519,455.095,8.573,453.937,8.955z"/>
	<path d="M412.894,32.635c-12.426,8.304-25.27,18.358-38.368,30.05l-1.369,1.219l6.788,0.013l6.787,0.008l-0.697,0.719
		c-1.578,1.623-4.001,4.135-4.816,4.991c-8.319,8.76-17.058,18.656-26.188,29.662l-1.565,1.89l9.28,0.013l9.282,0.008l-0.345,0.49
		c-6.363,9.035-14.045,20.521-23.627,35.338l-0.896,1.393l22.36,0.011c12.301,0.004,22.373,0,22.383-0.009
		c0.012-0.007-0.296-0.386-0.682-0.843c-6.09-7.187-11.085-15.054-14.592-22.97c-1.545-3.482-2.778-6.883-3.771-10.388
		c-0.283-0.987-0.791-2.918-0.791-2.996c0-0.013,3.878-0.026,8.62-0.026c8.191,0,8.619-0.005,8.591-0.074
		c-0.079-0.188-0.591-1.74-0.827-2.499c-1.777-5.71-2.777-11.074-3.168-16.98c-0.104-1.573-0.104-5.954,0-7.493
		c0.188-2.794,0.486-5.215,0.947-7.702c0.133-0.718,0.424-2.109,0.498-2.375l0.041-0.158h6.617c3.641,0,6.623-0.017,6.623-0.033
		c0-0.096,0.182-1.503,0.293-2.247c1.271-8.609,4.539-16.817,9.611-24.132c1.252-1.803,2.898-3.916,4.265-5.464
		c0.248-0.283,0.442-0.523,0.431-0.531C414.602,31.51,413.829,32.013,412.894,32.635z"/>
	<path d="M432.345,32.211c-5.198,4.406-9.757,8.632-15.107,14.017c-5.301,5.326-9.951,10.366-15.145,16.406l-1.088,1.271
		l6.791,0.021l6.793,0.021l-0.469,0.644c-4.982,6.872-10.878,15.746-16.378,24.668c-2.433,3.944-7.116,11.79-7.116,11.922
		c0,0.014,3.641,0.026,8.088,0.026h8.086l4.646-12.758c5.427-14.899,4.695-12.877,4.646-12.844c-0.079,0.046-0.69-3.3-0.925-5.056
		c-0.267-1.952-0.449-4.015-0.529-5.929l-0.029-0.694h13.274c7.298,0,13.268,0.014,13.268,0.029c0,0.022-0.187,0.42-0.411,0.893
		l-0.41,0.863h0.701c0.656,0,0.701-0.003,0.669-0.075c-0.021-0.037-0.138-0.406-0.253-0.817c-0.12-0.412-0.225-0.781-0.238-0.823
		c-0.02-0.066,0.312-0.071,6.605-0.071c5.29,0,6.627-0.013,6.609-0.054c-2.051-5.085-3.524-10.474-4.197-15.327
		c-0.369-2.669-0.506-4.878-0.469-7.535c0.046-3.177,0.349-5.758,1.009-8.647c0.104-0.454,0.179-0.834,0.171-0.843
		c-0.021-0.021-1.633,1.827-2.758,3.159c-6.521,7.751-13.123,17.026-19.454,27.325c-0.507,0.827-0.926,1.496-0.934,1.491
		c-0.017-0.018-0.25-1.91-0.316-2.6c-0.228-2.245-0.29-3.765-0.261-6.364c0.021-2.143,0.062-2.947,0.236-4.679
		c0.502-4.986,1.765-9.793,3.762-14.322c0.356-0.809,1.275-2.661,1.693-3.421c0.174-0.316,0.312-0.581,0.299-0.594
		C433.196,31.507,432.806,31.817,432.345,32.211z"/>
	<path d="M421.552,68.521c-0.025,0.066-4.742,13.015-10.488,28.783c-5.745,15.768-10.453,28.692-10.462,28.716
		c-0.016,0.043,3.405,0.056,17.022,0.056c16.189,0,17.041-0.004,17.07-0.075c0.07-0.178,3.384-9.275,3.384-9.291
		c0-0.009-2.788-0.021-6.193-0.025l-6.199-0.013l-0.194-0.095c-0.475-0.237-0.781-0.655-0.814-1.125l-0.016-0.274l8.514-23.367
		c4.683-12.851,8.516-23.371,8.516-23.383c0-0.009-4.521-0.017-10.047-0.017h-10.047L421.552,68.521z"/>
	<path d="M473.226,68.501c-0.029,0.055-7.207,12.903-15.946,28.554c-8.739,15.65-15.963,28.584-16.051,28.74l-0.157,0.279
		l10.304-0.008l10.302-0.013l2.494-5.064c1.369-2.785,2.532-5.135,2.586-5.218c0.054-0.084,0.183-0.214,0.291-0.283
		c0.393-0.262,0.182-0.253,4.994-0.242l4.375,0.012l0.238,0.119c0.451,0.223,0.699,0.606,0.73,1.127
		c0.017,0.324-0.021,0.471-1.131,4.909c-0.631,2.52-1.146,4.594-1.146,4.62c0,0.029,3.388,0.038,10.284,0.033l10.283-0.014
		l4.227-28.749c2.32-15.814,4.221-28.783,4.227-28.824c0-0.066-0.76-0.071-15.424-0.071h-15.424L473.226,68.501z M485.64,79.304
		c0.297,0.136,0.529,0.36,0.68,0.655c0.207,0.415,0.191,0.548-0.295,2.511c-2.233,9.071-3.695,15.519-5.045,22.202
		c-0.194,0.98-0.385,1.84-0.418,1.911c-0.121,0.235-0.254,0.377-0.473,0.499l-0.225,0.125h-4.402h-4.4l-0.19-0.098
		c-0.257-0.125-0.469-0.349-0.609-0.626c-0.096-0.204-0.112-0.283-0.112-0.606c0-0.35,0.012-0.398,0.188-0.786
		c0.256-0.578,2.863-5.798,3.568-7.144c1.869-3.562,3.846-7.174,6.607-12.059c2.756-4.889,3.52-6.211,3.666-6.358
		c0.148-0.153,0.365-0.273,0.584-0.332C484.966,79.146,485.41,79.2,485.64,79.304z"/>
	<path d="M516.19,68.501c-0.008,0.055-1.877,12.985-4.152,28.741c-2.27,15.756-4.143,28.688-4.15,28.741l-0.021,0.092l16.295-0.008
		l16.299-0.013l16.063-28.791c8.835-15.833,16.067-28.804,16.067-28.824c0-0.017-4.734-0.03-10.521-0.03h-10.521l-0.581,1.129
		c-0.32,0.623-2.01,3.973-3.758,7.444c-6.318,12.542-11.047,22.203-15.33,31.325c-0.479,1.012-0.918,1.904-0.985,1.979
		c-0.067,0.075-0.22,0.183-0.345,0.244c-0.199,0.101-0.26,0.109-0.548,0.093c-0.743-0.041-1.336-0.576-1.402-1.271
		c-0.021-0.203,0.019-0.401,0.294-1.461c2.039-7.905,4.285-17.655,6.395-27.793c0.871-4.189,2.344-11.497,2.344-11.643
		c0-0.032-2.747-0.044-10.709-0.044H516.21L516.19,68.501z"/>
	<path d="M568.728,96.917c-8.755,15.678-15.999,28.656-16.098,28.834l-0.18,0.324l10.309-0.008l10.305-0.013l2.52-5.123
		c1.383-2.819,2.565-5.186,2.623-5.26c0.062-0.075,0.238-0.201,0.391-0.274l0.283-0.139l4.375-0.011
		c3.791-0.009,4.404,0,4.588,0.055c0.51,0.149,0.893,0.643,0.924,1.198c0.021,0.279-0.049,0.578-1.141,4.938l-1.162,4.638
		l10.3-0.008l10.305-0.013l4.2-28.646c2.31-15.755,4.211-28.725,4.227-28.824l0.025-0.174h-15.436h-15.437L568.728,96.917z
		 M596.771,79.225c0.627,0.163,1.058,0.697,1.058,1.308c0,0.108-0.176,0.926-0.396,1.81c-2.201,8.967-3.812,16.059-5.104,22.494
		c-0.174,0.863-0.34,1.634-0.372,1.71c-0.104,0.249-0.274,0.428-0.513,0.543l-0.234,0.117l-4.326,0.011
		c-4.276,0.009-4.326,0.009-4.551-0.074c-0.609-0.228-0.958-0.991-0.76-1.668c0.037-0.129,0.439-1.006,0.901-1.953
		c2.208-4.549,4.972-9.747,8.851-16.639c2.018-3.582,4.035-7.132,4.127-7.256c0.132-0.179,0.386-0.341,0.627-0.408
		C596.341,79.149,596.481,79.149,596.771,79.225z"/>
	<path d="M438.124,86.125c-3.002,8.236-5.468,15.004-5.477,15.029c-0.012,0.041,1.196,0.053,5.967,0.053
		c3.293,0,5.982,0.008,5.982,0.021c0,0.008-0.15,0.692-0.332,1.519c-1.238,5.561-2.468,11.666-3.426,17.019
		c-0.149,0.833-0.277,1.552-0.29,1.594c-0.008,0.04,0,0.062,0.017,0.04c0.02-0.02,1.881-3.337,4.131-7.376l4.098-7.335l-0.598-0.761
		c-1.139-1.449-2.26-2.932-3.219-4.256l-0.336-0.465h3.604h3.608l2.043-3.666c1.124-2.014,2.071-3.71,2.108-3.77
		c0.059-0.104,0.041-0.128-0.74-1.245c-4.683-6.676-8.477-13.518-11.15-20.089c-0.236-0.581-0.457-1.112-0.484-1.175
		C443.583,71.154,443.226,72.113,438.124,86.125z"/>
	<path d="M464.578,126.295c-0.581,1.178-0.979,1.941-1.079,2.059c-0.101,0.116-0.25,0.229-0.426,0.312l-0.272,0.128l-11.753,0.013
		l-11.75,0.009l-0.158,0.986c-0.277,1.762-0.725,4.768-0.966,6.486c-0.13,0.927-0.245,1.693-0.257,1.71
		c-0.029,0.034-0.764-0.631-2.475-2.226c-1.338-1.244-4.982-4.869-6.166-6.127l-0.763-0.812l-15.071-0.019l-15.073-0.021
		l-0.232-0.108c-0.129-0.062-0.312-0.178-0.403-0.261l-0.166-0.153l-0.757,1.9c-0.7,1.769-2.337,5.929-2.96,7.548
		c-0.15,0.387-0.269,0.709-0.262,0.714c0.006,0.008,20.049,0.008,44.539,0.004l44.525-0.011l-1.166-0.86
		c-3.588-2.65-7.324-5.608-10.62-8.408c-1.665-1.411-4.526-3.928-5.14-4.521l-0.229-0.224L464.578,126.295z"/>
</g>
<g>
	<g>
		<path d="M223.716,98.899h-44.285c0,6.897,1.728,12.418,5.184,16.57s8.163,6.226,14.119,6.226c4.045,0,7.573-1.043,10.588-3.127
			c3.381-2.383,5.587-5.773,6.619-10.17h7.389c-1.762,5.929-4.408,10.451-7.933,13.564c-4.188,3.78-9.695,5.669-16.527,5.669
			c-9.254,0-16.16-3.09-20.714-9.278c-3.819-5.228-5.729-12.041-5.729-20.437c0-8.689,2.275-15.868,6.823-21.538
			c4.843-6.039,11.299-9.059,19.374-9.059c8.29,0,14.599,2.897,18.929,8.692C221.661,81.513,223.716,89.145,223.716,98.899z
			 M216.712,93.437c0-5.661-1.396-10.292-4.19-13.894c-3.236-4.193-7.869-6.289-13.899-6.289c-4.928,0-9.043,1.617-12.354,4.853
			c-3.677,3.532-5.957,8.642-6.837,15.33H216.712L216.712,93.437z"/>
		<path d="M281.966,68.861L259.8,125.969h-7.388l-21.813-57.108l7.123,0.015l18.527,49.171l18.559-49.175L281.966,68.861z"/>
		<path d="M299.342,125.969h-6.649v-79.31h6.649V125.969z"/>
	</g>
	<path d="M160.589,94.202C151.192,50.277,99.3,16.058,99.3,16.058s64.251,65.953,50.667,80.575
		c-13.587,14.622-95.565-30.001-95.565-30.001s76.942,42.541,71.983,53.155c-3.731,7.992-11.867,19.499-126.385,57.175
		C0,176.961,169.986,138.13,160.589,94.202z"/>
</g>
</svg>
