<?xml version="1.0" encoding="utf-8"?>
<!-- Generator: Adobe Illustrator 13.0.0, SVG Export Plug-In . SVG Version: 6.00 Build 14948)  -->
<!DOCTYPE svg PUBLIC "-//W3C//DTD SVG 1.1//EN" "http://www.w3.org/Graphics/SVG/1.1/DTD/svg11.dtd">
<svg version="1.1" id="Layer_1" xmlns="http://www.w3.org/2000/svg" xmlns:xlink="http://www.w3.org/1999/xlink" x="0px" y="0px"
	 width="512px" height="512px" viewBox="0 0 512 512" enable-background="new 0 0 512 512" xml:space="preserve">
<circle fill="#787878" cx="256" cy="256" r="256"/>
<g>
	<path fill="#FFFFFF" d="M291.185,351.986h-68.481c-0.181-9.844-0.269-15.845-0.269-17.993c0-22.198,3.667-40.46,11.011-54.785
		c7.339-14.321,22.021-30.435,44.043-48.34c22.021-17.901,35.181-29.629,39.478-35.181c6.622-8.77,9.937-18.438,9.937-29.004
		c0-14.678-5.866-27.258-17.59-37.732c-11.729-10.474-27.527-15.71-47.4-15.71c-19.16,0-35.181,5.463-48.071,16.382
		c-12.891,10.923-21.753,27.573-26.587,49.951l-69.287-8.594c1.968-32.046,15.618-59.258,40.955-81.641
		c25.332-22.378,58.587-33.569,99.768-33.569c43.325,0,77.789,11.325,103.394,33.972c25.601,22.651,38.403,49.011,38.403,79.089
		c0,16.65-4.699,32.407-14.1,47.266c-9.398,14.863-29.498,35.093-60.29,60.693c-15.937,13.252-25.827,23.901-29.675,31.958
		C292.569,316.806,290.824,331.22,291.185,351.986z M222.703,453.5v-75.464h75.464V453.5H222.703z"/>
</g>
</svg>
