<?xml version="1.0" encoding="utf-8"?>
<!-- Generator: Adobe Illustrator 13.0.0, SVG Export Plug-In . SVG Version: 6.00 Build 14948)  -->
<!DOCTYPE svg PUBLIC "-//W3C//DTD SVG 1.1//EN" "http://www.w3.org/Graphics/SVG/1.1/DTD/svg11.dtd">
<svg version="1.1" id="Layer_1" xmlns="http://www.w3.org/2000/svg" xmlns:xlink="http://www.w3.org/1999/xlink" x="0px" y="0px"
	 width="1290.859px" height="829.082px" viewBox="0 0 1290.859 829.082" enable-background="new 0 0 1290.859 829.082"
	 xml:space="preserve">
<g>
	<path d="M742.175,0.201c-5.354,0.459-14.659,1.438-18.872,1.976c-41.337,5.192-82.095,15.997-123.294,32.61
		c-3.635,1.479-7.449,3.036-8.487,3.495c-1.038,0.46-1.936,0.82-1.997,0.82c-0.199,0,1.897-1.139,6.472-3.495
		C632.219,16.914,677.95,5.034,730.093,0.758c6.189-0.499,6.808-0.579,4.091-0.479c-3.032,0.121-13.575,0.98-20.646,1.678
		c-47.249,4.773-92.401,14.038-140.607,28.875c-5.452,1.679-26.54,8.689-28.456,9.447l-1,0.398l10.983,0.02c6.053,0,25.3,0,42.815,0
		h31.811l1.738-1.357c8.885-7.029,18.572-12.98,29.656-18.232c22.843-10.842,49.862-17.652,82.193-20.727
		C744.811,0.18,746.027,0,745.368,0C744.709,0.02,743.271,0.102,742.175,0.201z"/>
	<path d="M721.306,0.5c-0.501,0.039-3.556,0.238-6.79,0.479C651.35,5.313,586.391,16.496,521.409,34.228
		c-8.188,2.238-22.207,6.231-22.348,6.392c-0.08,0.078,7.549,0.1,32.251,0.078h10.604l2.576-1.117
		c27.459-11.861,63.025-22.387,97.832-28.917c26.101-4.891,48.806-7.748,80.577-10.085c1.819-0.12,1.999-0.159,0.799-0.159
		C722.882,0.42,721.805,0.459,721.306,0.5z"/>
	<path d="M563.642,41.438c-0.657,0.259-3.612,1.477-6.587,2.695c-59.192,24.124-119.838,58.59-178.828,101.565
		c-3.237,2.376-6.272,4.572-6.731,4.894c-0.478,0.338-0.819,0.637-0.778,0.678c0.139,0.139,171.141,0.061,171.26-0.08
		c0.059-0.1,0.318-1.816,0.579-3.852c3.395-27.918,13.98-53.619,30.753-74.588c8.869-11.104,20.729-22.126,32.63-30.336
		c1.061-0.736,1.938-1.375,1.938-1.437c0-0.119-6.23,3.037-11.423,5.771c-45.87,24.385-90.644,57.354-136.033,100.169
		c-1.417,1.338-2.616,2.396-2.655,2.335c-0.121-0.119,2.733-6.309,4.933-10.701c9.326-18.632,21.046-34.888,36.224-50.304
		c17.613-17.833,36.904-31.852,62.126-45.133C565.282,40.879,565.842,40.52,563.642,41.438z"/>
	<path d="M513.619,43.075c-74.125,24.583-148.374,58.85-224.938,103.82l-7.348,4.334l21.626,0.102
		c11.902,0.061,31.312,0.078,43.117,0.039l21.467-0.059l3.232-4.234c20.29-26.601,47.51-50.943,79.461-71.054
		c19.91-12.539,42.776-24.103,65.881-33.328c1.975-0.78,3.633-1.479,3.674-1.518C519.991,40.977,519.191,41.239,513.619,43.075z"/>
	<path d="M316.2,156.981c-59.771,39.941-121.556,88.306-184.56,144.541l-6.59,5.872l32.649,0.061l32.652,0.039l-3.355,3.454
		c-7.588,7.809-19.25,19.891-23.163,24.004c-40.021,42.137-82.056,89.742-125.971,142.681l-7.529,9.088l44.635,0.061l44.65,0.041
		l-1.656,2.355C87.348,532.633,50.403,587.889,4.314,659.16L0,665.85l107.556,0.059c59.171,0.02,107.617,0,107.658-0.039
		c0.059-0.039-1.417-1.857-3.276-4.057c-29.295-34.566-53.319-72.408-70.193-110.488c-7.43-16.756-13.359-33.111-18.133-49.965
		c-1.359-4.75-3.794-14.039-3.794-14.42c0-0.059,18.651-0.117,41.458-0.117c39.397,0,41.456-0.023,41.316-0.361
		c-0.379-0.898-2.836-8.369-3.975-12.021c-8.545-27.459-13.359-53.262-15.236-81.675c-0.499-7.57-0.499-28.637,0-36.047
		c0.9-13.439,2.337-25.081,4.552-37.042c0.64-3.457,2.038-10.146,2.396-11.424l0.2-0.759h31.834c17.511,0,31.85-0.08,31.85-0.161
		c0-0.458,0.88-7.227,1.418-10.803c6.111-41.417,21.827-80.896,46.23-116.083c6.013-8.668,13.939-18.832,20.51-26.281
		c1.198-1.359,2.136-2.516,2.076-2.556C324.406,151.57,320.692,153.987,316.2,156.981z"/>
	<path d="M409.758,154.946c-25.001,21.188-46.93,41.516-72.671,67.418c-25.499,25.621-47.867,49.863-72.849,78.918l-5.231,6.112
		l32.67,0.1l32.671,0.1l-2.256,3.096c-23.964,33.051-52.323,75.745-78.781,118.661c-11.703,18.971-34.228,56.711-34.228,57.352
		c0,0.059,17.513,0.121,38.9,0.121h38.9l22.347-61.367c26.101-71.672,22.586-61.947,22.346-61.787
		c-0.38,0.221-3.314-15.875-4.453-24.323c-1.278-9.387-2.157-19.31-2.536-28.517l-0.14-3.335h63.844
		c35.105,0,63.82,0.061,63.82,0.139c0,0.103-0.896,2.019-1.975,4.295l-1.976,4.153h3.372c3.156,0,3.375-0.02,3.217-0.359
		c-0.1-0.18-0.658-1.956-1.219-3.933c-0.578-1.979-1.077-3.755-1.14-3.954c-0.098-0.321,1.498-0.341,31.773-0.341
		c25.441,0,31.872-0.059,31.791-0.26c-9.866-24.461-16.953-50.383-20.19-73.727c-1.777-12.841-2.434-23.466-2.256-36.247
		c0.221-15.277,1.678-27.696,4.852-41.595c0.501-2.178,0.86-4.014,0.821-4.054c-0.1-0.102-7.848,8.787-13.262,15.196
		c-31.37,37.284-63.122,81.895-93.576,131.44c-2.437,3.974-4.453,7.191-4.492,7.169c-0.082-0.08-1.199-9.186-1.52-12.501
		c-1.098-10.803-1.396-18.112-1.259-30.613c0.102-10.305,0.301-14.179,1.139-22.506c2.416-23.982,8.488-47.107,18.093-68.896
		c1.717-3.892,6.131-12.8,8.147-16.453c0.839-1.52,1.498-2.796,1.438-2.857C413.851,151.55,411.974,153.047,409.758,154.946z"/>
	<path d="M357.837,329.601c-0.121,0.319-22.806,62.605-50.445,138.448c-27.637,75.844-50.282,138.012-50.323,138.133
		c-0.08,0.199,16.375,0.258,81.877,0.258c77.881,0,81.976-0.02,82.114-0.357c0.341-0.861,16.275-44.615,16.275-44.693
		c0-0.043-13.418-0.1-29.793-0.119l-29.816-0.061l-0.938-0.459c-2.276-1.139-3.752-3.154-3.913-5.414l-0.08-1.316l40.957-112.393
		c22.525-61.825,40.958-112.425,40.958-112.486c0-0.041-21.745-0.08-48.324-0.08h-48.328L357.837,329.601z"/>
	<path d="M606.4,329.5c-0.142,0.26-34.669,62.067-76.704,137.349c-42.036,75.285-76.783,137.494-77.203,138.25l-0.759,1.34
		l49.563-0.041l49.546-0.059l12.002-24.363c6.589-13.398,12.182-24.701,12.442-25.1c0.257-0.4,0.877-1.02,1.396-1.359
		c1.897-1.26,0.88-1.219,24.021-1.158l21.05,0.057l1.14,0.562c2.175,1.076,3.373,2.916,3.514,5.432
		c0.083,1.557-0.1,2.258-5.433,23.604c-3.032,12.121-5.511,22.105-5.511,22.227c0,0.141,16.295,0.18,49.467,0.158l49.465-0.059
		l20.329-138.291c11.161-76.064,20.308-138.448,20.327-138.65c0-0.318-3.65-0.338-74.187-0.338h-74.188L606.4,329.5z
		 M666.108,381.461c1.438,0.658,2.557,1.738,3.274,3.156c0.999,1.994,0.92,2.636-1.418,12.08
		c-10.744,43.634-17.772,74.648-24.262,106.796c-0.939,4.715-1.858,8.848-2.017,9.188c-0.581,1.139-1.219,1.816-2.276,2.398
		l-1.08,0.6h-21.168h-21.166l-0.921-0.463c-1.238-0.598-2.257-1.678-2.936-3.016c-0.458-0.979-0.537-1.357-0.537-2.914
		c0-1.678,0.058-1.918,0.897-3.775c1.238-2.793,13.779-27.896,17.174-34.365c8.987-17.137,18.491-34.51,31.773-58.013
		c13.259-23.506,16.936-29.873,17.634-30.574c0.719-0.74,1.758-1.317,2.812-1.599C662.874,380.704,665.01,380.96,666.108,381.461z"
		/>
	<path d="M813.066,329.5c-0.039,0.26-9.028,62.467-19.972,138.25c-10.922,75.785-19.929,137.992-19.968,138.25l-0.102,0.439
		l78.382-0.041l78.4-0.059l77.264-138.49c42.496-76.163,77.284-138.55,77.284-138.648c0-0.08-22.767-0.141-50.605-0.141h-50.604
		l-2.795,5.433c-1.537,2.996-9.666,19.111-18.07,35.805c-30.395,60.329-53.141,106.797-73.75,150.672
		c-2.295,4.869-4.412,9.166-4.735,9.523c-0.318,0.363-1.055,0.879-1.656,1.178c-0.958,0.48-1.257,0.518-2.635,0.439
		c-3.576-0.199-6.429-2.773-6.75-6.113c-0.1-0.977,0.098-1.934,1.418-7.025c9.806-38.023,20.609-84.932,30.753-133.696
		c4.195-20.151,11.284-55.297,11.284-55.997c0-0.158-13.221-0.219-51.522-0.219h-51.524L813.066,329.5z"/>
	<path d="M1065.781,466.189c-42.115,75.41-76.961,137.834-77.438,138.693l-0.864,1.557l49.589-0.041l49.563-0.059l12.122-24.643
		c6.65-13.559,12.342-24.943,12.62-25.303c0.3-0.359,1.14-0.959,1.879-1.318l1.357-0.66l21.048-0.057
		c18.232-0.041,21.187,0,22.066,0.258c2.454,0.719,4.293,3.096,4.453,5.77c0.099,1.34-0.242,2.779-5.494,23.746l-5.59,22.307
		l49.545-0.041l49.565-0.059l20.208-137.791c11.104-75.784,20.251-138.169,20.329-138.649l0.119-0.839h-74.247h-74.246
		L1065.781,466.189z M1200.676,381.082c3.015,0.781,5.092,3.354,5.092,6.293c0,0.517-0.856,4.452-1.915,8.705
		c-10.582,43.133-18.33,77.243-24.543,108.194c-0.838,4.156-1.639,7.869-1.797,8.229c-0.498,1.199-1.318,2.059-2.456,2.617
		l-1.138,0.561l-20.809,0.059c-20.568,0.037-20.809,0.037-21.888-0.361c-2.935-1.096-4.611-4.771-3.651-8.027
		c0.179-0.617,2.113-4.832,4.332-9.387c10.623-21.887,23.921-46.887,42.574-80.037c9.704-17.232,19.41-34.308,19.852-34.906
		c0.637-0.858,1.855-1.639,3.014-1.958C1198.602,380.724,1199.279,380.724,1200.676,381.082z"/>
	<path d="M437.556,414.271c-14.438,39.618-26.3,72.17-26.341,72.29c-0.059,0.199,5.752,0.262,28.697,0.262
		c15.837,0,28.775,0.037,28.775,0.1c0,0.039-0.719,3.334-1.598,7.309c-5.95,26.74-11.862,56.115-16.474,81.855
		c-0.718,4.012-1.338,7.471-1.396,7.668c-0.041,0.199,0,0.299,0.08,0.199c0.098-0.098,9.045-16.057,19.867-35.486l19.712-35.285
		l-2.877-3.656c-5.473-6.969-10.862-14.098-15.475-20.467l-1.618-2.236h17.333h17.353l9.825-17.635
		c5.412-9.686,9.967-17.852,10.145-18.133c0.279-0.5,0.199-0.619-3.556-5.99c-22.525-32.109-40.776-65.021-53.637-96.632
		c-1.138-2.795-2.198-5.352-2.337-5.652C463.816,342.262,462.098,346.875,437.556,414.271z"/>
	<path d="M564.803,607.498c-2.798,5.67-4.713,9.346-5.193,9.904c-0.479,0.561-1.196,1.1-2.038,1.498l-1.316,0.621l-56.532,0.057
		l-56.515,0.041l-0.761,4.752c-1.338,8.467-3.493,22.926-4.65,31.191c-0.62,4.457-1.18,8.152-1.24,8.229
		c-0.139,0.16-3.673-3.035-11.902-10.703c-6.43-5.99-23.963-23.424-29.653-29.475l-3.677-3.896l-72.489-0.098l-72.508-0.098
		L245.208,619c-0.618-0.299-1.499-0.857-1.938-1.256l-0.798-0.74l-3.635,9.145c-3.374,8.508-11.244,28.518-14.237,36.307
		c-0.72,1.857-1.299,3.414-1.258,3.434c0.02,0.039,96.433,0.039,214.233,0.02l214.175-0.059l-5.612-4.133
		c-17.25-12.744-35.226-26.98-51.08-40.439c-8.011-6.791-21.769-18.893-24.726-21.748l-1.095-1.078L564.803,607.498z"/>
	<path d="M312.227,719.947c-2.877,0.918-3.696,2.195-4.852,7.629l-0.542,2.576l-2.036,0.057c-1.936,0.062-2.057,0.082-2.157,0.5
		c-0.061,0.24-0.219,1.041-0.378,1.781l-0.281,1.354h1.977c1.557,0,1.978,0.062,1.978,0.283c0,0.158-1.039,5.25-2.295,11.32
		c-1.258,6.072-2.298,11.164-2.298,11.305c0,0.199,0.52,0.26,2.257,0.26h2.256l2.395-11.545l2.398-11.521l2.536-0.059
		c2.438-0.043,2.537-0.061,2.636-0.5c0.059-0.236,0.22-1.037,0.38-1.797l0.279-1.338h-2.478c-1.855,0-2.476-0.061-2.476-0.262
		c0-0.695,1.038-4.65,1.337-5.111c0.76-1.178,1.799-1.396,4.354-0.918c0.961,0.178,1.778,0.299,1.817,0.26
		c0.1-0.098,0.901-3.795,0.841-3.875c-0.041-0.02-0.88-0.197-1.857-0.357C315.879,719.607,313.343,719.588,312.227,719.947z"/>
	<path d="M933.044,719.967c-2.156,0.6-4.093,2.018-5.271,3.875c-1.058,1.658-1.438,3.215-1.337,5.492
		c0.077,1.797,0.178,2.215,0.917,3.994c0.459,1.098,0.818,1.996,0.799,2.016c-0.041,0.021-0.938,0.5-1.996,1.039
		c-2.439,1.275-4.135,2.596-5.271,4.137c-1.201,1.574-1.419,2.055-1.9,3.852c-1.536,6.07,1.718,11.543,7.73,12.961
		c2.076,0.479,5.488,0.299,7.429-0.42c1.635-0.6,3.193-1.459,4.811-2.676l1.102-0.82l0.599,0.736
		c0.977,1.221,2.575,2.877,3.133,3.277l0.542,0.381l1.617-1.299c0.896-0.719,1.615-1.379,1.615-1.477
		c0-0.082-0.679-0.941-1.517-1.918c-0.821-0.98-1.739-2.057-1.997-2.416l-0.5-0.66l1.279-1.6c1.218-1.555,2.875-4.211,3.056-4.951
		c0.078-0.277-0.28-0.559-1.858-1.338c-1.777-0.877-1.959-0.938-2.159-0.617c-0.698,1.236-2.893,4.473-3.092,4.592
		c-0.299,0.18-0.481-0.039-2.576-3.094c-1.601-2.357-3.914-6.172-3.776-6.271c0.021-0.02,0.7-0.402,1.457-0.82
		c4.597-2.492,6.81-4.932,7.471-8.127c0.638-3.033-1.299-6.391-4.336-7.568C937.557,719.689,934.562,719.547,933.044,719.967z
		 M936.897,723.641c1.599,0.721,2.359,2.436,1.879,4.215c-0.181,0.678-0.579,1.219-1.658,2.297
		c-1.597,1.578-4.215,3.297-4.553,2.955c-0.12-0.121-0.481-0.957-0.802-1.877c-1.035-3.016-0.675-5.393,1.02-6.83
		C934.16,723.264,935.503,723,936.897,723.641z M930.986,740.475c1.2,2.037,3.835,5.953,5.254,7.828l1.197,1.578l-0.879,0.779
		c-1.12,0.959-2.874,2.057-3.993,2.477c-0.54,0.201-1.56,0.34-2.578,0.359c-1.479,0.021-1.836-0.061-2.833-0.539
		c-1.479-0.721-3.017-2.396-3.456-3.754c-0.44-1.32-0.339-4.152,0.18-5.172c0.579-1.1,1.656-2.338,2.678-3.037
		c0.954-0.658,3.232-1.938,3.453-1.957C930.087,739.037,930.526,739.695,930.986,740.475z"/>
	<path d="M45.452,738.4c-2.079,9.963-3.815,18.23-3.876,18.352c-0.059,0.199,2.418,0.26,11.982,0.26h12.063l0.36-1.76
		c0.18-0.957,0.399-1.896,0.438-2.094c0.1-0.322-0.438-0.342-9.385-0.342c-7.348,0-9.506-0.061-9.506-0.24
		c0-0.141,1.478-7.367,3.297-16.055c1.817-8.688,3.293-15.916,3.293-16.037c0-0.139-0.778-0.219-2.435-0.219h-2.458L45.452,738.4z"
		/>
	<path d="M105.939,720.508c-0.042,0.139-1.759,8.307-3.795,18.129c-2.038,9.824-3.754,17.994-3.794,18.115
		c-0.058,0.199,0.421,0.26,1.978,0.26h2.055l0.46-2.299c0.259-1.256,0.52-2.295,0.578-2.295c0.061,0,0.379,0.5,0.681,1.1
		c1.238,2.334,3.595,3.854,6.29,4.033c3.273,0.219,5.771-0.838,8.526-3.615c3.577-3.613,5.154-7.689,5.154-13.299
		c0.02-3.936-0.718-6.33-2.597-8.412c-3.155-3.488-8.826-3.41-12.681,0.184c-0.299,0.277-0.599,0.459-0.657,0.398
		c-0.102-0.08,2.094-11.141,2.415-12.201c0.1-0.299-0.099-0.34-2.217-0.34C106.659,720.266,105.998,720.326,105.939,720.508z
		 M115.545,733.551c2.495,0.734,4.054,3.369,4.072,6.805c0,2.678-1.197,7.172-2.513,9.424c-1.879,3.197-5.054,4.793-7.889,3.977
		c-4.633-1.359-5.492-8.066-1.958-15.238c0.958-1.957,2.376-3.594,3.796-4.352C112.77,733.207,113.928,733.068,115.545,733.551z"/>
	<path d="M390.727,720.705c-0.459,0.742-20.489,36.145-20.489,36.227c0,0.059,1.219,0.059,2.717,0.039l2.733-0.059l2.916-5.234
		l2.916-5.25h7.389h7.408l0.86,5.289l0.878,5.295h2.436h2.419l-2.038-12.441c-1.138-6.828-2.476-15.078-3.016-18.312l-0.958-5.891
		l-2.936-0.061C391.087,720.266,391.007,720.266,390.727,720.705z M393.521,727.518c0.139,1.336,0.62,4.85,1.079,7.826
		c0.438,2.957,0.879,5.811,0.938,6.332l0.119,0.957h-6.01h-5.99l3.614-6.551c1.999-3.592,4.135-7.588,4.732-8.867
		c0.602-1.275,1.138-2.295,1.179-2.234C393.242,725.018,393.383,726.156,393.521,727.518z"/>
	<path d="M431.464,720.605c-0.059,0.201-0.698,3.195-1.418,6.652c-0.718,3.451-1.357,6.451-1.416,6.648
		c-0.102,0.301-0.222,0.199-0.659-0.5c-0.777-1.217-2.257-2.496-3.574-3.115c-1.02-0.48-1.359-0.539-3.337-0.518
		c-2.596,0-3.653,0.336-6.01,1.918c-7.148,4.791-9.444,18.291-4.013,23.58c1.477,1.441,3.133,2.158,5.21,2.279
		c2.835,0.18,5.073-0.74,7.551-3.096c0.997-0.938,1.177-1.039,1.077-0.641c-0.061,0.279-0.222,0.941-0.321,1.498
		c-0.116,0.539-0.258,1.158-0.318,1.34c-0.1,0.318,0.08,0.359,2.058,0.359h2.154l3.777-18.135c2.077-9.963,3.814-18.23,3.853-18.369
		c0.08-0.182-0.439-0.242-2.196-0.242C431.843,720.266,431.564,720.307,431.464,720.605z M423.737,733.826
		c0.419,0.219,1.036,0.619,1.356,0.898c2.596,2.195,2.715,8.309,0.238,13.461c-2.033,4.193-5.25,6.369-8.346,5.629
		c-2.416-0.578-3.854-2.611-4.215-6.029c-0.279-2.396-0.039-4.252,0.821-6.83c1.357-4.072,3.533-6.711,6.17-7.447
		C420.921,733.186,422.737,733.328,423.737,733.826z"/>
	<path d="M596.813,720.605c-0.061,0.201-0.7,3.195-1.417,6.652c-0.718,3.451-1.359,6.451-1.419,6.648
		c-0.099,0.301-0.219,0.199-0.659-0.5c-0.777-1.217-2.254-2.496-3.574-3.115c-1.018-0.48-1.359-0.539-3.335-0.518
		c-2.595,0-3.654,0.336-6.01,1.918c-7.149,4.791-9.447,18.291-4.015,23.58c1.479,1.441,3.135,2.158,5.212,2.279
		c2.835,0.18,5.071-0.74,7.549-3.096c0.999-0.938,1.178-1.039,1.077-0.641c-0.061,0.279-0.219,0.941-0.318,1.498
		c-0.121,0.539-0.26,1.158-0.318,1.34c-0.101,0.318,0.078,0.359,2.055,0.359h2.157l3.774-18.135
		c2.077-9.963,3.813-18.23,3.854-18.369c0.081-0.182-0.439-0.242-2.196-0.242C597.193,720.266,596.913,720.307,596.813,720.605z
		 M589.085,733.826c0.42,0.219,1.038,0.619,1.359,0.898c2.598,2.195,2.716,8.309,0.239,13.461c-2.036,4.193-5.253,6.369-8.348,5.629
		c-2.418-0.578-3.853-2.611-4.213-6.029c-0.281-2.396-0.041-4.252,0.817-6.83c1.357-4.072,3.535-6.711,6.173-7.447
		C586.271,733.186,588.089,733.328,589.085,733.826z"/>
	<path d="M619.857,720.426c0,0.141,6.372,33.471,6.81,35.545l0.222,1.059l2.696-0.059l2.695-0.059l10.044-18.334l10.046-18.332
		l-2.616,0.061l-2.614,0.061l-6.274,11.48c-3.452,6.312-7.206,13.301-8.347,15.537c-1.136,2.219-2.114,3.936-2.157,3.795
		c-0.039-0.141-0.258-1.559-0.499-3.154c-0.239-1.598-1.495-8.447-2.815-15.238c-1.316-6.789-2.396-12.379-2.396-12.42
		c0-0.061-1.077-0.102-2.396-0.102C620.938,720.266,619.857,720.346,619.857,720.426z"/>
	<path d="M655.904,720.705c-0.479,2.096-0.897,4.195-0.897,4.453c0,0.24,0.377,0.299,2.257,0.299h2.255l0.461-2.355
		c0.259-1.277,0.519-2.455,0.577-2.594c0.059-0.182-0.457-0.242-2.235-0.242C656.082,720.266,656.004,720.285,655.904,720.705z"/>
	<path d="M749.763,720.705c-0.26,1.139-7.49,35.967-7.49,36.125c0,0.102,1.041,0.182,2.296,0.182c1.26,0,2.3-0.08,2.3-0.182
		c0-0.1,1.718-8.326,3.792-18.312c2.097-9.984,3.795-18.172,3.795-18.191c0-0.041-1.037-0.061-2.295-0.061
		C749.943,720.266,749.862,720.285,749.763,720.705z"/>
	<path d="M761.347,720.705c-0.481,2.096-0.902,4.195-0.902,4.453c0,0.24,0.38,0.299,2.26,0.299h2.254l0.462-2.355
		c0.259-1.277,0.519-2.455,0.577-2.594c0.061-0.182-0.458-0.242-2.233-0.242C761.524,720.266,761.444,720.285,761.347,720.705z"/>
	<path d="M841.022,720.705c-0.479,2.096-0.897,4.195-0.897,4.453c0,0.24,0.381,0.299,2.257,0.299h2.256l0.461-2.355
		c0.26-1.277,0.52-2.455,0.578-2.594c0.061-0.182-0.46-0.242-2.237-0.242C841.204,720.266,841.122,720.285,841.022,720.705z"/>
	<path d="M980.633,720.705c-0.458,0.742-20.49,36.145-20.49,36.227c0,0.059,1.216,0.059,2.717,0.039l2.732-0.059l2.919-5.234
		l2.914-5.25h7.39h7.411l0.857,5.289l0.878,5.295h2.436h2.417l-2.036-12.441c-1.14-6.828-2.478-15.078-3.018-18.312l-0.956-5.891
		l-2.935-0.061C980.991,720.266,980.909,720.266,980.633,720.705z M983.427,727.518c0.141,1.336,0.618,4.85,1.077,7.826
		c0.442,2.957,0.882,5.811,0.94,6.332l0.12,0.957h-6.011h-5.994l3.618-6.551c1.997-3.592,4.133-7.588,4.731-8.867
		c0.6-1.275,1.14-2.295,1.178-2.234C983.146,725.018,983.287,726.156,983.427,727.518z"/>
	<path d="M1061.29,720.705c-0.261,1.139-7.489,35.967-7.489,36.125c0,0.102,1.038,0.182,2.294,0.182c1.26,0,2.301-0.08,2.301-0.182
		c0-0.1,1.717-8.326,3.792-18.312c2.098-9.984,3.793-18.172,3.793-18.191c0-0.041-1.035-0.061-2.294-0.061
		C1061.469,720.266,1061.389,720.285,1061.29,720.705z"/>
	<path d="M1072.871,720.705c-0.479,2.096-0.9,4.195-0.9,4.453c0,0.24,0.383,0.299,2.259,0.299h2.258l0.457-2.355
		c0.263-1.277,0.521-2.455,0.579-2.594c0.062-0.182-0.458-0.242-2.233-0.242C1073.054,720.266,1072.97,720.285,1072.871,720.705z"/>
	<path d="M1152.75,720.705c-0.481,2.096-0.897,4.195-0.897,4.453c0,0.24,0.38,0.299,2.255,0.299h2.257l0.462-2.355
		c0.256-1.277,0.517-2.455,0.579-2.594c0.059-0.182-0.462-0.242-2.237-0.242C1152.93,720.266,1152.848,720.285,1152.75,720.705z"/>
	<path d="M210.661,722.205l-2.518,1.516l-0.698,3.215l-0.681,3.217l-1.816,0.057l-1.797,0.062l-0.34,1.639
		c-0.178,0.896-0.319,1.695-0.319,1.775c0,0.082,0.797,0.182,1.758,0.201l1.756,0.059l-1.858,8.889
		c-2.136,10.186-2.276,11.422-1.417,12.721c0.738,1.117,2.316,1.875,4.135,2.016c1.476,0.1,3.332-0.059,3.794-0.342
		c0.199-0.141,1.097-3.611,0.958-3.752c-0.021,0-0.54,0.059-1.14,0.18c-1.338,0.24-2.496,0.1-3.014-0.361
		c-0.279-0.256-0.379-0.6-0.379-1.357c0-0.559,0.798-4.832,1.778-9.504l1.756-8.488l2.217-0.059c2.116-0.061,2.236-0.08,2.335-0.5
		c0.061-0.236,0.221-1.037,0.381-1.797l0.278-1.338h-2.176c-1.778,0-2.177-0.061-2.177-0.299c0-0.162,0.399-2.195,0.9-4.537
		c0.499-2.314,0.88-4.33,0.858-4.469C213.195,720.785,212.176,721.285,210.661,722.205z"/>
	<path d="M829.122,722.205l-2.517,1.516l-0.699,3.215l-0.678,3.217l-1.819,0.057l-1.795,0.062l-0.342,1.639
		c-0.178,0.896-0.319,1.695-0.319,1.775c0,0.082,0.8,0.182,1.76,0.201l1.757,0.059l-1.856,8.889
		c-2.139,10.186-2.276,11.422-1.419,12.721c0.738,1.117,2.316,1.875,4.134,2.016c1.477,0.1,3.335-0.059,3.794-0.342
		c0.199-0.141,1.097-3.611,0.958-3.752c-0.02,0-0.54,0.059-1.141,0.18c-1.335,0.24-2.493,0.1-3.014-0.361
		c-0.278-0.256-0.381-0.6-0.381-1.357c0-0.559,0.8-4.832,1.778-9.504l1.758-8.488l2.218-0.059c2.116-0.061,2.235-0.08,2.335-0.5
		c0.062-0.236,0.221-1.037,0.379-1.797l0.28-1.338h-2.177c-1.777,0-2.177-0.061-2.177-0.299c0-0.162,0.399-2.195,0.899-4.537
		c0.499-2.314,0.878-4.33,0.861-4.469C831.658,720.785,830.638,721.285,829.122,722.205z"/>
	<path d="M1140.648,722.205l-2.517,1.516l-0.698,3.215l-0.679,3.217l-1.816,0.057l-1.798,0.062l-0.342,1.639
		c-0.179,0.896-0.317,1.695-0.317,1.775c0,0.082,0.8,0.182,1.757,0.201l1.758,0.059l-1.858,8.889
		c-2.136,10.186-2.273,11.422-1.417,12.721c0.739,1.117,2.317,1.875,4.134,2.016c1.478,0.1,3.334-0.059,3.794-0.342
		c0.2-0.141,1.1-3.611,0.959-3.752c-0.02,0-0.538,0.059-1.141,0.18c-1.336,0.24-2.494,0.1-3.012-0.361
		c-0.281-0.256-0.382-0.6-0.382-1.357c0-0.559,0.801-4.832,1.777-9.504l1.757-8.488l2.218-0.059c2.116-0.061,2.239-0.08,2.337-0.5
		c0.062-0.236,0.219-1.037,0.379-1.797l0.28-1.338h-2.176c-1.778,0-2.18-0.061-2.18-0.299c0-0.162,0.401-2.195,0.9-4.537
		c0.498-2.314,0.879-4.33,0.859-4.469C1143.186,720.785,1142.167,721.285,1140.648,722.205z"/>
	<path d="M81.577,729.973c-3.475,0.736-6.291,2.914-7.87,6.07c-0.998,1.996-1.078,1.875,1.878,2.078l1.997,0.121l0.479-1.041
		c1.378-2.934,4.733-4.414,8.527-3.775c2.278,0.4,3.516,1.338,3.875,2.918c0.159,0.738-0.101,3.215-0.4,3.691
		c-0.26,0.422-2.496,0.783-6.29,0.998c-4.732,0.281-6.831,0.643-8.608,1.479c-3.313,1.559-5.091,4.516-4.811,7.908
		c0.18,2.098,0.819,3.516,2.215,4.914c1.579,1.578,2.875,2.096,5.533,2.236c3.035,0.139,5.552-0.699,8.206-2.717l1.337-1.02
		l0.121,0.738c0.081,0.4,0.2,1.1,0.28,1.539l0.141,0.801l2.355,0.059l2.356,0.059l-0.139-0.658
		c-0.64-2.836-0.459-4.752,0.998-11.402c1.938-8.707,1.838-10.445-0.599-12.701c-1.258-1.115-2.396-1.693-4.453-2.234
		C86.887,729.572,83.632,729.551,81.577,729.973z M88.866,745.848c-0.642,2.496-1.479,4.072-2.875,5.492
		c-2.06,2.037-4.813,2.994-7.351,2.514c-1.596-0.299-2.617-1.018-3.255-2.293c-1.278-2.576,0.161-5.516,3.096-6.332
		c0.759-0.221,3.755-0.641,6.931-0.998c1.117-0.121,2.435-0.338,2.894-0.479C89.403,743.432,89.444,743.592,88.866,745.848z"/>
	<path d="M138.588,730.072c-2.454,0.619-3.894,1.455-5.791,3.377c-3.396,3.395-5.013,7.545-5.052,12.979
		c-0.021,1.898,0.059,2.775,0.338,3.693c0.859,2.836,2.496,4.914,4.894,6.174c5.61,2.951,13.22,0.814,16.834-4.717
		c2.196-3.334,3.038-6.252,3.055-10.443c0-2.396-0.059-3.014-0.479-4.291c-0.579-1.9-1.238-3.018-2.517-4.275
		c-1.217-1.219-2.975-2.195-4.711-2.615C143.382,729.533,140.427,729.594,138.588,730.072z M144.64,733.844
		c1.818,0.861,3.076,2.58,3.555,4.855c0.538,2.494-0.241,6.889-1.778,9.824c-0.878,1.699-3.115,4.014-4.492,4.654
		c-3.677,1.699-7.43,0.479-8.987-2.916c-0.4-0.84-0.439-1.277-0.439-3.936c0-3.395,0.34-4.992,1.598-7.488
		c0.798-1.576,2.715-3.734,3.994-4.473C140.086,733.186,142.803,732.986,144.64,733.844z"/>
	<path d="M170.341,729.832c-1.676,0.518-3.595,2.039-5.132,4.094c-0.499,0.658-0.979,1.299-1.058,1.377
		c-0.081,0.102,0.098-0.996,0.398-2.436l0.559-2.615h-2.078c-1.137,0-2.076,0.039-2.076,0.098c0,0.16-5.411,26.162-5.491,26.422
		c-0.08,0.199,0.399,0.24,2.136,0.199l2.237-0.059l1.259-5.992c1.516-7.25,1.995-9.027,3.174-11.422
		c2.057-4.273,5.91-6.469,8.407-4.812l0.819,0.539l0.898-2.137c0.6-1.459,0.819-2.217,0.698-2.379
		C174.495,729.953,171.659,729.432,170.341,729.832z"/>
	<path d="M184.22,729.973c-3.475,0.736-6.291,2.914-7.868,6.07c-0.999,1.996-1.077,1.875,1.876,2.078l1.997,0.121l0.479-1.041
		c1.381-2.934,4.735-4.414,8.529-3.775c2.277,0.4,3.514,1.338,3.874,2.918c0.161,0.738-0.1,3.215-0.401,3.691
		c-0.258,0.422-2.495,0.783-6.289,0.998c-4.733,0.281-6.829,0.643-8.607,1.479c-3.315,1.559-5.091,4.516-4.811,7.908
		c0.178,2.098,0.817,3.516,2.216,4.914c1.576,1.578,2.875,2.096,5.53,2.236c3.035,0.139,5.552-0.699,8.208-2.717l1.338-1.02
		l0.12,0.738c0.082,0.4,0.201,1.1,0.279,1.539l0.141,0.801l2.356,0.059l2.357,0.059l-0.142-0.658c-0.639-2.836-0.459-4.752,1-11.402
		c1.937-8.707,1.836-10.445-0.601-12.701c-1.257-1.115-2.396-1.693-4.453-2.234C189.534,729.572,186.277,729.551,184.22,729.973z
		 M191.509,745.848c-0.64,2.496-1.479,4.072-2.875,5.492c-2.057,2.037-4.813,2.994-7.351,2.514
		c-1.596-0.299-2.613-1.018-3.252-2.293c-1.279-2.576,0.159-5.516,3.094-6.332c0.759-0.221,3.755-0.641,6.932-0.998
		c1.116-0.121,2.437-0.338,2.894-0.479C192.048,743.432,192.087,743.592,191.509,745.848z"/>
	<path d="M226.855,730.072c-2.458,0.619-3.896,1.455-5.792,3.377c-3.393,3.395-5.011,7.545-5.052,12.979
		c-0.02,1.898,0.061,2.775,0.34,3.693c0.859,2.836,2.496,4.914,4.892,6.174c5.612,2.951,13.22,0.814,16.834-4.717
		c2.198-3.334,3.035-6.252,3.057-10.443c0-2.396-0.061-3.014-0.481-4.291c-0.579-1.9-1.236-3.018-2.515-4.275
		c-1.218-1.219-2.977-2.195-4.713-2.615C231.647,729.533,228.692,729.594,226.855,730.072z M232.907,733.844
		c1.816,0.861,3.074,2.58,3.553,4.855c0.54,2.494-0.239,6.889-1.778,9.824c-0.876,1.699-3.115,4.014-4.492,4.654
		c-3.675,1.699-7.428,0.479-8.986-2.916c-0.399-0.84-0.44-1.277-0.44-3.936c0-3.395,0.34-4.992,1.6-7.488
		c0.795-1.576,2.714-3.734,3.994-4.473C228.352,733.186,231.068,732.986,232.907,733.844z"/>
	<path d="M258.608,729.832c-1.678,0.518-3.595,2.039-5.133,4.094c-0.499,0.658-0.978,1.299-1.058,1.377
		c-0.08,0.102,0.1-0.996,0.399-2.436l0.56-2.615h-2.077c-1.139,0-2.077,0.039-2.077,0.098c0,0.16-5.412,26.162-5.492,26.422
		c-0.08,0.199,0.399,0.24,2.138,0.199l2.235-0.059l1.26-5.992c1.517-7.25,1.997-9.027,3.176-11.422
		c2.055-4.273,5.91-6.469,8.406-4.812l0.819,0.539l0.898-2.137c0.598-1.459,0.821-2.217,0.7-2.379
		C262.76,729.953,259.926,729.432,258.608,729.832z"/>
	<path d="M326.705,730.072c-2.457,0.619-3.896,1.455-5.793,3.377c-3.396,3.395-5.012,7.545-5.053,12.979
		c-0.02,1.898,0.061,2.775,0.341,3.693c0.858,2.836,2.496,4.914,4.894,6.174c5.61,2.951,13.219,0.814,16.832-4.717
		c2.198-3.334,3.035-6.252,3.057-10.443c0-2.396-0.061-3.014-0.479-4.291c-0.578-1.9-1.239-3.018-2.517-4.275
		c-1.218-1.219-2.975-2.195-4.713-2.615C331.496,729.533,328.541,729.594,326.705,730.072z M332.755,733.844
		c1.817,0.861,3.074,2.58,3.554,4.855c0.54,2.494-0.239,6.889-1.775,9.824c-0.881,1.699-3.117,4.014-4.494,4.654
		c-3.675,1.699-7.43,0.479-8.986-2.916c-0.399-0.84-0.438-1.277-0.438-3.936c0-3.395,0.339-4.992,1.597-7.488
		c0.799-1.576,2.716-3.734,3.992-4.473C328.202,733.186,330.916,732.986,332.755,733.844z"/>
	<path d="M358.257,729.832c-1.68,0.518-3.596,2.039-5.134,4.094c-0.498,0.658-0.978,1.299-1.058,1.377
		c-0.08,0.102,0.101-0.996,0.399-2.436l0.559-2.615h-2.076c-1.139,0-2.077,0.039-2.077,0.098c0,0.16-5.411,26.162-5.491,26.422
		c-0.08,0.199,0.398,0.24,2.137,0.199l2.236-0.059l1.259-5.992c1.517-7.25,1.997-9.027,3.176-11.422
		c2.054-4.273,5.909-6.469,8.406-4.812l0.819,0.539l0.897-2.137c0.599-1.459,0.819-2.217,0.7-2.379
		C362.408,729.953,359.573,729.432,358.257,729.832z"/>
	<path d="M472.98,729.973c-3.473,0.736-6.289,2.914-7.867,6.07c-1,1.996-1.078,1.875,1.879,2.078l1.995,0.121l0.481-1.041
		c1.376-2.934,4.73-4.414,8.526-3.775c2.276,0.4,3.515,1.338,3.873,2.918c0.162,0.738-0.099,3.215-0.397,3.691
		c-0.262,0.422-2.498,0.783-6.294,0.998c-4.732,0.281-6.829,0.643-8.604,1.479c-3.317,1.559-5.093,4.516-4.812,7.908
		c0.18,2.098,0.818,3.516,2.215,4.914c1.578,1.578,2.877,2.096,5.533,2.236c3.035,0.139,5.552-0.699,8.207-2.717l1.338-1.02
		l0.119,0.738c0.08,0.4,0.199,1.1,0.28,1.539l0.139,0.801l2.356,0.059l2.356,0.059l-0.139-0.658
		c-0.64-2.836-0.462-4.752,0.999-11.402c1.937-8.707,1.837-10.445-0.601-12.701c-1.257-1.115-2.396-1.693-4.453-2.234
		C478.292,729.572,475.038,729.551,472.98,729.973z M480.271,745.848c-0.64,2.496-1.479,4.072-2.877,5.492
		c-2.056,2.037-4.813,2.994-7.348,2.514c-1.6-0.299-2.616-1.018-3.256-2.293c-1.279-2.576,0.16-5.516,3.096-6.332
		c0.759-0.221,3.755-0.641,6.929-0.998c1.119-0.121,2.437-0.338,2.896-0.479C480.81,743.432,480.851,743.592,480.271,745.848z"/>
	<path d="M505.832,729.934c-2.138,0.615-3.914,1.695-5.912,3.551c-0.679,0.643-1.277,1.158-1.336,1.158
		c-0.08,0,0.219-1.555,0.758-3.951c0.102-0.439,0.08-0.439-1.978-0.439c-1.976,0-2.077,0.02-2.177,0.439
		c-0.241,0.957-5.331,25.881-5.331,26.102c0,0.139,0.719,0.219,2.257,0.219h2.236l1.178-5.852
		c1.598-7.908,2.157-10.045,3.135-12.084c1.479-3.074,3.993-5.09,6.989-5.65c2.258-0.416,4.016,0.125,4.692,1.439
		c0.242,0.5,0.301,0.979,0.221,2.055c-0.08,1.119-3.595,18.273-4.054,19.732c-0.101,0.318,0.1,0.359,2.196,0.359
		c2.018,0,2.298-0.041,2.396-0.359c0.062-0.182,0.979-4.334,2.038-9.227c1.738-7.967,1.938-9.107,1.957-10.982
		c0.02-1.777-0.061-2.258-0.46-3.137c-0.539-1.238-1.877-2.516-3.176-3.115C510.307,729.672,507.211,729.533,505.832,729.934z"/>
	<path d="M530.312,729.973c-4.451,1.078-7.887,4.529-9.604,9.705c-2.138,6.43-1.518,12.102,1.637,15.275
		c1.938,1.938,4.354,2.777,7.529,2.617c3.156-0.16,5.971-1.518,8.108-3.914c0.938-1.037,3.193-5.113,3.193-5.754
		c0-0.299-0.599-0.416-2.794-0.576l-1.698-0.119l-0.839,1.795c-1.518,3.195-3.794,4.895-6.55,4.895
		c-1.179,0-1.557-0.082-2.356-0.541c-1.957-1.158-2.735-2.955-2.735-6.35c0-2.375,0.359-4.592,1.099-6.748
		c1.097-3.238,2.614-5.254,4.773-6.312c1.037-0.496,1.416-0.578,2.895-0.578c1.997,0,2.936,0.359,4.014,1.596
		c0.777,0.898,1.099,1.641,1.298,2.955l0.141,0.959l1.518-0.119c2.916-0.24,3.035-0.279,2.936-0.879
		c-0.039-0.301-0.141-0.959-0.201-1.479c-0.258-2.057-2.216-4.693-4.252-5.73C536.446,729.652,532.871,729.354,530.312,729.973z"/>
	<path d="M556.455,729.85c-1.199,0.242-3.335,1.082-4.312,1.717c-5.073,3.197-8.329,11.246-7.09,17.455
		c0.897,4.455,3.414,7.23,7.527,8.291c1.878,0.498,4.991,0.336,6.973-0.361c3.033-1.08,6.109-3.834,7.605-6.83l0.798-1.598
		l-0.458-0.121c-0.26-0.059-1.296-0.178-2.296-0.26l-1.816-0.141l-0.461,0.941c-0.679,1.379-2.555,3.314-3.914,4.014
		c-5.093,2.695-9.445-0.24-9.445-6.354v-1.775h9.784h9.764l0.162-0.758c0.261-1.217,0.181-5.434-0.118-6.627
		c-0.979-3.877-3.636-6.633-7.229-7.49C560.569,729.633,557.792,729.594,556.455,729.85z M561.886,733.945
		c2.038,0.998,3.256,3.256,3.256,6.014v1.277h-7.408h-7.41l0.141-0.561c0.3-1.24,1.579-3.494,2.574-4.594
		C555.496,733.449,559.071,732.59,561.886,733.945z"/>
	<path d="M670.481,729.934c-3.234,0.838-5.409,2.793-6.209,5.59c-0.96,3.436,0.638,6.311,4.594,8.205
		c0.994,0.463,2.875,1.361,4.152,1.98c3.355,1.594,4.354,2.594,4.354,4.312c0,1.459-0.919,2.637-2.697,3.414
		c-0.815,0.379-1.357,0.461-3.092,0.461c-1.881,0.018-2.218-0.043-3.295-0.541c-2.14-0.996-3.076-2.295-3.259-4.492l-0.098-1.277
		l-1.717,0.139c-2.697,0.201-3.018,0.277-3.018,0.779c0,1.057,0.461,3.115,0.938,4.154c0.661,1.477,2.058,2.777,3.915,3.674
		c3.653,1.717,8.867,1.717,12.46-0.037c3.854-1.883,5.593-6.391,3.833-10.008c-0.897-1.857-2.017-2.676-7.049-5.133
		c-5.17-2.535-5.909-3.096-5.909-4.496c0-0.896,0.622-1.914,1.556-2.553c1.858-1.238,5.833-1.018,7.751,0.438
		c0.737,0.58,1.678,2.318,1.678,3.156v0.58l1.757-0.119c2.675-0.203,2.835-0.262,2.835-0.92c0-1.018-0.78-3.074-1.559-4.09
		c-0.978-1.279-2.454-2.32-4.175-2.898C676.535,729.691,672.1,729.492,670.481,729.934z"/>
	<path d="M725.798,729.973c-3.473,0.736-6.289,2.914-7.867,6.07c-0.998,1.996-1.079,1.875,1.877,2.078l1.997,0.121l0.479-1.041
		c1.377-2.934,4.732-4.414,8.526-3.775c2.276,0.4,3.515,1.338,3.874,2.918c0.16,0.738-0.1,3.215-0.398,3.691
		c-0.261,0.422-2.498,0.783-6.292,0.998c-4.732,0.281-6.827,0.643-8.604,1.479c-3.316,1.559-5.095,4.516-4.815,7.908
		c0.182,2.098,0.822,3.516,2.219,4.914c1.575,1.578,2.874,2.096,5.532,2.236c3.032,0.139,5.55-0.699,8.208-2.717l1.335-1.02
		l0.122,0.738c0.077,0.4,0.199,1.1,0.279,1.539l0.139,0.801l2.356,0.059l2.356,0.059l-0.139-0.658
		c-0.641-2.836-0.462-4.752,0.995-11.402c1.94-8.707,1.839-10.445-0.596-12.701c-1.258-1.115-2.397-1.693-4.453-2.234
		C731.109,729.572,727.857,729.551,725.798,729.973z M733.087,745.848c-0.638,2.496-1.479,4.072-2.877,5.492
		c-2.053,2.037-4.809,2.994-7.346,2.514c-1.6-0.299-2.618-1.018-3.256-2.293c-1.277-2.576,0.158-5.516,3.092-6.332
		c0.761-0.221,3.757-0.641,6.933-0.998c1.117-0.121,2.435-0.338,2.896-0.479C733.625,743.432,733.668,743.592,733.087,745.848z"/>
	<path d="M802.684,729.973c-3.476,0.736-6.292,2.914-7.872,6.07c-0.997,1.996-1.076,1.875,1.88,2.078l1.994,0.121l0.481-1.041
		c1.377-2.934,4.732-4.414,8.526-3.775c2.276,0.4,3.515,1.338,3.874,2.918c0.161,0.738-0.1,3.215-0.398,3.691
		c-0.26,0.422-2.495,0.783-6.291,0.998c-4.731,0.281-6.83,0.643-8.609,1.479c-3.311,1.559-5.089,4.516-4.809,7.908
		c0.18,2.098,0.817,3.516,2.215,4.914c1.577,1.578,2.876,2.096,5.533,2.236c3.033,0.139,5.551-0.699,8.206-2.717l1.338-1.02
		l0.119,0.738c0.082,0.4,0.199,1.1,0.281,1.539l0.14,0.801l2.356,0.059l2.355,0.059l-0.141-0.658c-0.637-2.836-0.459-4.752,1-11.402
		c1.938-8.707,1.838-10.445-0.602-12.701c-1.256-1.115-2.395-1.693-4.449-2.234C807.995,729.572,804.737,729.551,802.684,729.973z
		 M809.97,745.848c-0.639,2.496-1.479,4.072-2.875,5.492c-2.057,2.037-4.811,2.994-7.349,2.514
		c-1.597-0.299-2.616-1.018-3.254-2.293c-1.279-2.576,0.158-5.516,3.096-6.332c0.757-0.221,3.753-0.641,6.927-0.998
		c1.118-0.121,2.438-0.338,2.896-0.479C810.513,743.432,810.551,743.592,809.97,745.848z"/>
	<path d="M856.7,730.072c-2.458,0.619-3.896,1.455-5.792,3.377c-3.393,3.395-5.011,7.545-5.052,12.979
		c-0.021,1.898,0.059,2.775,0.341,3.693c0.858,2.836,2.493,4.914,4.891,6.174c5.612,2.951,13.22,0.814,16.835-4.717
		c2.195-3.334,3.035-6.252,3.055-10.443c0-2.396-0.059-3.014-0.477-4.291c-0.579-1.9-1.24-3.018-2.519-4.275
		c-1.218-1.219-2.976-2.195-4.713-2.615C861.494,729.533,858.537,729.594,856.7,730.072z M862.75,733.844
		c1.818,0.861,3.076,2.58,3.553,4.855c0.543,2.494-0.236,6.889-1.774,9.824c-0.878,1.699-3.116,4.014-4.495,4.654
		c-3.675,1.699-7.428,0.479-8.984-2.916c-0.398-0.84-0.439-1.277-0.439-3.936c0-3.395,0.338-4.992,1.598-7.488
		c0.8-1.576,2.716-3.734,3.993-4.473C858.195,733.186,860.911,732.986,862.75,733.844z"/>
	<path d="M889.65,729.934c-2.137,0.615-3.914,1.695-5.913,3.551c-0.678,0.643-1.276,1.158-1.335,1.158
		c-0.082,0,0.218-1.555,0.758-3.951c0.102-0.439,0.079-0.439-1.979-0.439c-1.977,0-2.074,0.02-2.177,0.439
		c-0.241,0.957-5.333,25.881-5.333,26.102c0,0.139,0.723,0.219,2.257,0.219h2.239l1.178-5.852
		c1.598-7.908,2.156-10.045,3.135-12.084c1.479-3.074,3.994-5.09,6.989-5.65c2.255-0.416,4.014,0.125,4.691,1.439
		c0.24,0.5,0.302,0.979,0.221,2.055c-0.078,1.119-3.594,18.273-4.053,19.732c-0.101,0.318,0.1,0.359,2.196,0.359
		c2.016,0,2.297-0.041,2.396-0.359c0.059-0.182,0.979-4.334,2.037-9.227c1.735-7.967,1.938-9.107,1.957-10.982
		c0.019-1.777-0.059-2.258-0.459-3.137c-0.54-1.238-1.878-2.516-3.177-3.115C894.122,729.672,891.027,729.533,889.65,729.934z"/>
	<path d="M1011.983,729.875c-1.278,0.297-3.033,1.355-4.413,2.615c-1.437,1.316-1.497,1.277-0.996-0.74
		c0.158-0.66,0.279-1.279,0.299-1.357c0-0.082-0.96-0.121-2.136-0.102l-2.118,0.059l-3.054,14.678
		c-1.679,8.07-3.419,16.377-3.857,18.436l-0.778,3.75l2.315-0.057l2.32-0.059l1.338-6.494c0.736-3.574,1.396-6.789,1.476-7.168
		l0.119-0.68l0.681,1c1.116,1.68,2.734,2.996,4.234,3.455c3.376,1.035,6.849,0.059,9.962-2.857
		c3.137-2.914,4.955-6.848,5.513-11.861c0.519-4.672-0.738-8.826-3.273-10.902c-1.559-1.279-2.996-1.816-5.056-1.881
		C1013.581,729.691,1012.423,729.752,1011.983,729.875z M1014.38,733.551c2.935,0.854,4.413,4.148,3.915,8.66
		c-0.579,5.072-3.074,9.709-5.991,11.145c-0.961,0.459-1.378,0.559-2.634,0.541c-1.819,0-3.157-0.602-4.273-1.918
		c-1.023-1.178-1.342-2.477-1.358-5.311c-0.022-1.918,0.075-2.676,0.518-4.316c0.7-2.613,1.878-4.971,3.235-6.469
		C1009.867,733.566,1011.965,732.826,1014.38,733.551z"/>
	<path d="M1040.343,729.875c-1.279,0.297-3.036,1.355-4.417,2.615c-1.437,1.316-1.495,1.277-0.999-0.74
		c0.165-0.66,0.282-1.279,0.299-1.357c0-0.082-0.956-0.121-2.135-0.102l-2.113,0.059l-3.058,14.678
		c-1.679,8.07-3.414,16.377-3.855,18.436l-0.778,3.75l2.318-0.057l2.315-0.059l1.34-6.494c0.739-3.574,1.396-6.789,1.477-7.168
		l0.121-0.68l0.678,1c1.115,1.68,2.734,2.996,4.233,3.455c3.373,1.035,6.85,0.059,9.964-2.857c3.135-2.914,4.953-6.848,5.511-11.861
		c0.52-4.672-0.738-8.826-3.273-10.902c-1.56-1.279-2.994-1.816-5.052-1.881C1041.938,729.691,1040.78,729.752,1040.343,729.875z
		 M1042.735,733.551c2.938,0.854,4.414,4.148,3.917,8.66c-0.58,5.072-3.076,9.709-5.991,11.145
		c-0.959,0.459-1.379,0.559-2.637,0.541c-1.818,0-3.156-0.602-4.274-1.918c-1.018-1.178-1.336-2.477-1.355-5.311
		c-0.021-1.918,0.078-2.676,0.517-4.316c0.7-2.613,1.881-4.971,3.236-6.469C1038.227,733.566,1040.319,732.826,1042.735,733.551z"/>
	<path d="M1088.866,729.973c-4.451,1.078-7.886,4.529-9.602,9.705c-2.139,6.43-1.519,12.102,1.635,15.275
		c1.938,1.938,4.353,2.777,7.527,2.617c3.156-0.16,5.972-1.518,8.109-3.914c0.938-1.037,3.196-5.113,3.196-5.754
		c0-0.299-0.601-0.416-2.798-0.576l-1.699-0.119l-0.837,1.795c-1.518,3.195-3.793,4.895-6.55,4.895
		c-1.176,0-1.559-0.082-2.357-0.541c-1.956-1.158-2.734-2.955-2.734-6.35c0-2.375,0.359-4.592,1.099-6.748
		c1.1-3.238,2.615-5.254,4.771-6.312c1.04-0.496,1.417-0.578,2.898-0.578c1.996,0,2.933,0.359,4.013,1.596
		c0.781,0.898,1.099,1.641,1.296,2.955l0.141,0.959l1.519-0.119c2.917-0.24,3.035-0.279,2.938-0.879
		c-0.043-0.301-0.141-0.959-0.202-1.479c-0.26-2.057-2.216-4.693-4.254-5.73C1094.997,729.652,1091.423,729.354,1088.866,729.973z"
		/>
	<path d="M1114.409,729.973c-3.475,0.736-6.29,2.914-7.869,6.07c-1,1.996-1.078,1.875,1.879,2.078l1.995,0.121l0.479-1.041
		c1.38-2.934,4.732-4.414,8.527-3.775c2.276,0.4,3.517,1.338,3.874,2.918c0.162,0.738-0.098,3.215-0.396,3.691
		c-0.261,0.422-2.498,0.783-6.293,0.998c-4.733,0.281-6.828,0.643-8.604,1.479c-3.316,1.559-5.095,4.516-4.814,7.908
		c0.18,2.098,0.818,3.516,2.217,4.914c1.576,1.578,2.875,2.096,5.531,2.236c3.034,0.139,5.55-0.699,8.205-2.717l1.34-1.02
		l0.118,0.738c0.082,0.4,0.2,1.1,0.281,1.539l0.139,0.801l2.358,0.059l2.356,0.059l-0.139-0.658
		c-0.642-2.836-0.464-4.752,0.998-11.402c1.936-8.707,1.836-10.445-0.603-12.701c-1.256-1.115-2.395-1.693-4.452-2.234
		C1119.72,729.572,1116.465,729.551,1114.409,729.973z M1121.696,745.848c-0.636,2.496-1.477,4.072-2.875,5.492
		c-2.055,2.037-4.813,2.994-7.35,2.514c-1.596-0.299-2.614-1.018-3.255-2.293c-1.276-2.576,0.159-5.516,3.098-6.332
		c0.756-0.221,3.754-0.641,6.928-0.998c1.119-0.121,2.438-0.338,2.895-0.479C1122.236,743.432,1122.276,743.592,1121.696,745.848z"
		/>
	<path d="M1168.427,730.072c-2.457,0.619-3.894,1.455-5.792,3.377c-3.396,3.395-5.011,7.545-5.052,12.979
		c-0.018,1.898,0.059,2.775,0.34,3.693c0.859,2.836,2.496,4.914,4.893,6.174c5.611,2.951,13.222,0.814,16.833-4.717
		c2.199-3.334,3.037-6.252,3.057-10.443c0-2.396-0.061-3.014-0.479-4.291c-0.579-1.9-1.237-3.018-2.516-4.275
		c-1.218-1.219-2.973-2.195-4.714-2.615C1173.22,729.533,1170.263,729.594,1168.427,730.072z M1174.478,733.844
		c1.815,0.861,3.074,2.58,3.555,4.855c0.541,2.494-0.24,6.889-1.779,9.824c-0.877,1.699-3.115,4.014-4.489,4.654
		c-3.677,1.699-7.432,0.479-8.988-2.916c-0.399-0.84-0.439-1.277-0.439-3.936c0-3.395,0.339-4.992,1.599-7.488
		c0.798-1.576,2.716-3.734,3.994-4.473C1169.925,733.186,1172.64,732.986,1174.478,733.844z"/>
	<path d="M1201.376,729.934c-2.136,0.615-3.912,1.695-5.909,3.551c-0.68,0.643-1.278,1.158-1.338,1.158
		c-0.083,0,0.219-1.555,0.756-3.951c0.102-0.439,0.081-0.439-1.973-0.439c-1.979,0-2.079,0.02-2.181,0.439
		c-0.237,0.957-5.329,25.881-5.329,26.102c0,0.139,0.717,0.219,2.257,0.219h2.235l1.179-5.852
		c1.599-7.908,2.158-10.045,3.135-12.084c1.479-3.074,3.994-5.09,6.989-5.65c2.258-0.416,4.013,0.125,4.692,1.439
		c0.241,0.5,0.3,0.979,0.222,2.055c-0.081,1.119-3.597,18.273-4.056,19.732c-0.101,0.318,0.101,0.359,2.194,0.359
		c2.019,0,2.301-0.041,2.398-0.359c0.061-0.182,0.978-4.334,2.038-9.227c1.736-7.967,1.937-9.107,1.956-10.982
		c0.023-1.777-0.059-2.258-0.461-3.137c-0.538-1.238-1.875-2.516-3.174-3.115C1205.851,729.672,1202.755,729.533,1201.376,729.934z"
		/>
	<path d="M1224.242,729.934c-3.235,0.838-5.413,2.793-6.21,5.59c-0.957,3.436,0.638,6.311,4.593,8.205
		c0.999,0.463,2.876,1.361,4.153,1.98c3.356,1.594,4.355,2.594,4.355,4.312c0,1.459-0.921,2.637-2.697,3.414
		c-0.82,0.379-1.358,0.461-3.096,0.461c-1.878,0.018-2.218-0.043-3.295-0.541c-2.136-0.996-3.076-2.295-3.255-4.492l-0.099-1.277
		l-1.718,0.139c-2.696,0.201-3.017,0.277-3.017,0.779c0,1.057,0.458,3.115,0.936,4.154c0.662,1.477,2.059,2.777,3.917,3.674
		c3.655,1.717,8.866,1.717,12.462-0.037c3.855-1.883,5.591-6.391,3.833-10.008c-0.897-1.857-2.019-2.676-7.051-5.133
		c-5.17-2.535-5.911-3.096-5.911-4.496c0-0.896,0.622-1.914,1.559-2.553c1.858-1.238,5.831-1.018,7.751,0.438
		c0.736,0.58,1.676,2.318,1.676,3.156v0.58l1.758-0.119c2.675-0.203,2.836-0.262,2.836-0.92c0-1.018-0.778-3.074-1.56-4.09
		c-0.979-1.279-2.454-2.32-4.172-2.898C1230.295,729.691,1225.858,729.492,1224.242,729.934z"/>
	<path d="M263.898,730.691c0.061,0.258,1.059,6.25,2.218,13.34l2.118,12.881l-0.56,1.1c-1.021,1.934-2.498,4.012-3.256,4.49
		c-0.919,0.621-2.196,0.801-3.694,0.52c-0.659-0.119-1.199-0.201-1.238-0.158c-0.021,0.018-0.119,0.998-0.18,2.154l-0.159,2.119
		l1.057,0.26c0.598,0.141,1.697,0.219,2.597,0.16c2.697-0.16,4.594-1.441,6.65-4.518c0.78-1.156,18.512-32.49,18.512-32.709
		c0-0.039-1.08-0.078-2.376-0.078h-2.378l-5.849,10.566c-3.235,5.809-5.893,10.541-5.93,10.521c-0.021-0.039-0.223-1.396-0.42-3.037
		c-0.221-1.635-0.898-6.328-1.498-10.424c-0.62-4.072-1.119-7.471-1.119-7.529s-1.039-0.098-2.298-0.098
		C263.798,730.252,263.798,730.252,263.898,730.691z"/>
	<path d="M438.016,730.791c0.061,0.318,1.019,6.092,2.116,12.84c1.099,6.75,2.057,12.523,2.116,12.822l0.121,0.559h2.534h2.558
		l6.569-11.545c3.595-6.328,7.028-12.359,7.61-13.377l1.038-1.838h-2.438h-2.437l-4.973,8.988c-2.717,4.928-5.45,9.963-6.07,11.201
		l-1.117,2.217l-0.342-3.055c-0.198-1.701-0.918-6.732-1.597-11.223l-1.259-8.129h-2.274h-2.278L438.016,730.791z"/>
	<path d="M651.15,743.371c-1.496,7.232-2.734,13.26-2.734,13.381c0,0.199,0.581,0.26,2.255,0.26h2.237l2.758-13.24
		c1.516-7.27,2.756-13.281,2.734-13.379c0-0.082-1.018-0.141-2.258-0.141h-2.234L651.15,743.371z"/>
	<path d="M691.251,730.49c-0.219,0.641-3.892,17.412-4.114,18.771c-0.3,1.977-0.159,3.836,0.398,4.916
		c1.02,2.016,3.076,3.252,5.635,3.393c3.232,0.182,6.049-1.078,9.227-4.113c0.536-0.539,0.935-0.799,0.935-0.641
		c0,0.16-0.178,1.098-0.398,2.08c-0.22,0.998-0.401,1.875-0.401,1.953c0,0.082,0.941,0.162,2.079,0.162
		c1.978,0,2.079-0.021,2.177-0.461c0.061-0.238,1.338-6.049,2.835-12.92c1.499-6.869,2.776-12.682,2.835-12.939
		c0.101-0.439,0.082-0.439-2.194-0.439h-2.296l-0.12,0.539c-1.218,5.828-3.174,14.457-3.516,15.436
		c-0.599,1.818-1.837,3.836-3.115,5.094c-2.995,2.936-7.81,3.576-9.286,1.236c-0.679-1.055-0.418-2.896,1.857-13.078l2.077-9.227
		h-2.258C691.969,730.252,691.31,730.311,691.251,730.49z"/>
	<path d="M756.59,743.371c-1.493,7.232-2.733,13.26-2.733,13.381c0,0.199,0.579,0.26,2.256,0.26h2.236l2.757-13.24
		c1.518-7.27,2.756-13.281,2.734-13.379c0-0.082-1.017-0.141-2.255-0.141h-2.239L756.59,743.371z"/>
	<path d="M768.972,731.93c-0.181,0.916-0.339,1.779-0.339,1.914c0,0.182,1.616,0.223,7.072,0.162l7.046-0.061l-1.177,1.297
		c-0.64,0.719-4.551,5.094-8.707,9.746l-7.529,8.428l-0.34,1.656c-0.179,0.898-0.337,1.699-0.358,1.777
		c0,0.102,4.832,0.162,10.742,0.162h10.744l0.422-2.018l0.418-1.998l-7.751,0.059l-7.726,0.062l2.137-2.297
		c1.158-1.26,5.192-5.73,8.926-9.924c6.772-7.549,6.81-7.631,7.048-8.789c0.12-0.639,0.282-1.316,0.323-1.516
		c0.095-0.32-0.481-0.34-10.246-0.34h-10.344L768.972,731.93z"/>
	<path d="M836.272,743.371c-1.5,7.232-2.738,13.26-2.738,13.381c0,0.199,0.581,0.26,2.255,0.26h2.239l2.758-13.24
		c1.513-7.27,2.753-13.281,2.731-13.379c0-0.082-1.017-0.141-2.254-0.141h-2.238L836.272,743.371z"/>
	<path d="M1068.12,743.371c-1.498,7.232-2.738,13.26-2.738,13.381c0,0.199,0.582,0.26,2.258,0.26h2.237l2.755-13.24
		c1.516-7.27,2.756-13.281,2.734-13.379c0-0.082-1.017-0.141-2.254-0.141h-2.236L1068.12,743.371z"/>
	<path d="M1147.996,743.371c-1.496,7.232-2.736,13.26-2.736,13.381c0,0.199,0.58,0.26,2.257,0.26h2.239l2.754-13.24
		c1.517-7.27,2.757-13.281,2.736-13.379c0-0.082-1.019-0.141-2.254-0.141h-2.237L1147.996,743.371z"/>
	<path d="M567.836,781.453c-2.874,0.918-3.693,2.197-4.852,7.629l-0.538,2.574l-2.038,0.061c-1.936,0.059-2.057,0.084-2.154,0.5
		c-0.062,0.24-0.222,1.039-0.382,1.777l-0.279,1.359h1.978c1.556,0,1.977,0.059,1.977,0.281c0,0.158-1.036,5.248-2.296,11.318
		c-1.258,6.074-2.298,11.166-2.298,11.307c0,0.195,0.521,0.26,2.258,0.26h2.256l2.397-11.543l2.396-11.525l2.537-0.059
		c2.436-0.039,2.534-0.061,2.637-0.5c0.057-0.24,0.219-1.037,0.379-1.795l0.279-1.342h-2.478c-1.855,0-2.474-0.059-2.474-0.258
		c0-0.699,1.038-4.65,1.338-5.113c0.759-1.176,1.795-1.395,4.352-0.918c0.958,0.182,1.777,0.299,1.816,0.26
		c0.102-0.102,0.899-3.793,0.841-3.875c-0.041-0.02-0.88-0.197-1.857-0.359C571.49,781.113,568.955,781.092,567.836,781.453z"/>
	<path d="M738.141,781.594c-1.999,0.758-3.653,2.775-4.533,5.471c-0.239,0.762-1.517,6.332-1.517,6.652c0,0.018,1.178,0.018,2.635,0
		l2.637-0.059l0.457-2.201c0.618-3.115,0.7-2.895-0.857-2.895h-1.316l0.117-0.66c0.34-1.717,2.339-4.531,3.236-4.531
		c0.379,0,0.619-0.438,0.778-1.357C739.938,781.016,739.777,780.973,738.141,781.594z"/>
	<path d="M296.849,782.014c-0.12,0.377-4.633,22.207-4.871,23.605c-1.459,8.184,3.653,13.516,12.918,13.5
		c3.634,0,6.131-0.74,8.887-2.598c2.977-2.02,4.974-5.033,6.312-9.545c0.338-1.119,1.636-7.049,2.915-13.18
		c1.277-6.111,2.356-11.324,2.436-11.584c0.102-0.439,0.102-0.439-2.396-0.439h-2.495l-0.222,0.939
		c-0.118,0.537-1.156,5.49-2.314,11.043c-2.697,12.938-3.195,14.715-4.773,17.031c-3.115,4.574-10.244,5.713-14.518,2.32
		c-1.698-1.34-2.357-3.338-1.997-6.072c0.178-1.299,4.013-20.15,4.991-24.504l0.18-0.758h-2.476
		C297.608,781.773,296.908,781.832,296.849,782.014z"/>
	<path d="M361.354,782.213c-0.481,2.098-0.902,4.195-0.902,4.451c0,0.24,0.38,0.303,2.257,0.303h2.257l0.46-2.357
		c0.261-1.277,0.521-2.457,0.579-2.596c0.061-0.182-0.458-0.24-2.236-0.24C361.531,781.773,361.451,781.793,361.354,782.213z"/>
	<path d="M469.586,782.213c-0.479,2.098-0.898,4.195-0.898,4.451c0,0.24,0.38,0.303,2.256,0.303h2.259l0.46-2.357
		c0.258-1.277,0.52-2.457,0.578-2.596c0.06-0.182-0.459-0.24-2.237-0.24C469.768,781.773,469.686,781.793,469.586,782.213z"/>
	<path d="M592.84,782.213c-0.239,0.916-7.527,35.926-7.527,36.123c0,0.102,1.039,0.184,2.454,0.184h2.456l1.759-8.549
		c0.978-4.693,1.837-8.586,1.919-8.688c0.057-0.078,4.352-0.121,9.504-0.098l9.384,0.059l-1.757,8.285
		c-0.958,4.557-1.736,8.449-1.756,8.631c0,0.316,0.239,0.359,2.456,0.359h2.436l3.754-17.955c2.077-9.863,3.816-18.131,3.875-18.371
		c0.1-0.42,0.061-0.42-2.417-0.42c-2.435,0-2.516,0.02-2.615,0.439c-0.059,0.26-0.739,3.475-1.498,7.146
		c-0.756,3.676-1.437,6.891-1.498,7.129l-0.1,0.463h-9.507c-8.945,0-9.482-0.02-9.383-0.359c0.059-0.182,0.737-3.398,1.518-7.131
		c0.778-3.734,1.456-6.988,1.537-7.248c0.1-0.439,0.1-0.439-2.396-0.439C593.02,781.773,592.939,781.793,592.84,782.213z"/>
	<path d="M723.201,782.213c-0.478,2.098-0.896,4.195-0.896,4.451c0,0.24,0.378,0.303,2.255,0.303h2.256l0.461-2.357
		c0.261-1.277,0.519-2.457,0.581-2.596c0.059-0.182-0.459-0.24-2.239-0.24C723.381,781.773,723.303,781.793,723.201,782.213z"/>
	<path d="M745.967,782.213c-0.479,2.098-0.897,4.195-0.897,4.451c0,0.24,0.381,0.303,2.257,0.303h2.255l0.462-2.357
		c0.26-1.277,0.518-2.457,0.577-2.596c0.059-0.182-0.458-0.24-2.236-0.24C746.145,781.773,746.068,781.793,745.967,782.213z"/>
	<path d="M829.341,781.951c0,0.162-7.289,35.211-7.529,36.129l-0.1,0.459l2.459-0.062l2.454-0.059l2.456-11.682
		c1.34-6.434,2.697-13.219,3.018-15.08c0.576-3.373,0.576-3.391,0.718-2.195c0.457,4.154,0.917,7.408,2.476,17.574l1.736,11.383
		l2.418,0.059l2.415,0.062l6.771-11.846c3.716-6.508,7.609-13.418,8.628-15.336c1.035-1.916,1.817-3.314,1.737-3.092
		c-1.679,5.111-2.756,9.424-5.171,20.668l-2.06,9.484l2.397,0.059c1.318,0.02,2.415,0.02,2.454-0.021
		c0.082-0.076,7.669-36.162,7.669-36.465c0-0.139-0.995-0.217-3.074-0.217h-3.076l-6.587,11.623
		c-7.19,12.68-8.928,15.854-10.229,18.732c-1.057,2.314-1.196,2.494-1.196,1.475c0-1.836-0.718-7.127-2.537-19.111l-1.936-12.719
		h-3.156C830.757,781.773,829.341,781.852,829.341,781.951z"/>
	<path d="M483.246,783.711l-2.518,1.516l-0.697,3.217l-0.68,3.213l-1.818,0.061l-1.797,0.059l-0.339,1.641
		c-0.18,0.898-0.318,1.695-0.318,1.777c0,0.08,0.798,0.18,1.756,0.199l1.758,0.059l-1.857,8.887
		c-2.138,10.188-2.276,11.424-1.417,12.721c0.738,1.119,2.316,1.881,4.134,2.018c1.477,0.102,3.334-0.059,3.794-0.34
		c0.199-0.139,1.097-3.613,0.958-3.752c-0.02,0-0.538,0.059-1.139,0.178c-1.337,0.242-2.495,0.102-3.016-0.359
		c-0.279-0.258-0.379-0.6-0.379-1.357c0-0.561,0.8-4.832,1.777-9.506l1.757-8.488l2.218-0.059c2.117-0.061,2.237-0.08,2.335-0.5
		c0.062-0.24,0.221-1.037,0.381-1.795l0.28-1.342h-2.177c-1.778,0-2.177-0.059-2.177-0.299c0-0.158,0.398-2.195,0.897-4.533
		c0.499-2.314,0.878-4.332,0.858-4.473C485.783,782.293,484.764,782.791,483.246,783.711z"/>
	<path d="M802.36,783.711l-2.515,1.516l-0.698,3.217l-0.679,3.213l-1.818,0.061l-1.798,0.059l-0.338,1.641
		c-0.181,0.898-0.318,1.695-0.318,1.777c0,0.08,0.795,0.18,1.756,0.199l1.758,0.059l-1.855,8.887
		c-2.14,10.188-2.278,11.424-1.423,12.721c0.742,1.119,2.32,1.881,4.138,2.018c1.476,0.102,3.333-0.059,3.791-0.34
		c0.201-0.139,1.1-3.613,0.961-3.752c-0.02,0-0.538,0.059-1.139,0.178c-1.338,0.242-2.497,0.102-3.016-0.359
		c-0.279-0.258-0.382-0.6-0.382-1.357c0-0.561,0.803-4.832,1.78-9.506l1.757-8.488l2.217-0.059c2.114-0.061,2.237-0.08,2.337-0.5
		c0.059-0.24,0.219-1.037,0.378-1.795l0.281-1.342h-2.179c-1.777,0-2.177-0.059-2.177-0.299c0-0.158,0.399-2.195,0.898-4.533
		c0.5-2.314,0.882-4.332,0.86-4.473C804.899,782.293,803.88,782.791,802.36,783.711z"/>
	<path d="M873.574,785.607c-0.061,0.26-0.221,1.057-0.38,1.795l-0.281,1.361h7.85h7.827l0.343-1.656
		c0.18-0.902,0.316-1.701,0.316-1.799c0-0.082-3.493-0.141-7.786-0.141h-7.791L873.574,785.607z"/>
	<path d="M341.481,791.439c-2.136,0.619-3.913,1.695-5.912,3.555c-0.679,0.641-1.278,1.156-1.337,1.156
		c-0.078,0,0.221-1.557,0.758-3.953c0.103-0.441,0.08-0.441-1.975-0.441c-1.978,0-2.08,0.02-2.177,0.441
		c-0.241,0.959-5.333,25.883-5.333,26.1c0,0.141,0.718,0.223,2.256,0.223h2.236l1.179-5.854c1.598-7.906,2.157-10.045,3.135-12.082
		c1.479-3.074,3.994-5.09,6.99-5.648c2.256-0.42,4.013,0.117,4.693,1.436c0.238,0.498,0.297,0.98,0.219,2.057
		c-0.08,1.117-3.595,18.273-4.054,19.732c-0.1,0.316,0.1,0.359,2.196,0.359c2.019,0,2.297-0.043,2.397-0.359
		c0.059-0.182,0.978-4.334,2.036-9.227c1.736-7.969,1.936-9.107,1.957-10.982c0.02-1.781-0.061-2.258-0.457-3.135
		c-0.542-1.24-1.88-2.518-3.178-3.119C345.954,791.178,342.857,791.039,341.481,791.439z"/>
	<path d="M403.487,791.357c-1.198,0.242-3.335,1.08-4.313,1.717c-5.073,3.195-8.327,11.246-7.09,17.453
		c0.9,4.457,3.415,7.23,7.527,8.291c1.88,0.498,4.995,0.338,6.971-0.363c3.034-1.074,6.11-3.832,7.609-6.826l0.798-1.6l-0.46-0.117
		c-0.258-0.061-1.299-0.182-2.296-0.26l-1.816-0.143l-0.46,0.941c-0.679,1.375-2.556,3.312-3.913,4.012
		c-5.093,2.699-9.446-0.24-9.446-6.352v-1.775h9.786h9.763l0.161-0.76c0.26-1.217,0.18-5.432-0.119-6.629
		c-0.979-3.871-3.636-6.631-7.229-7.49C407.601,791.141,404.823,791.1,403.487,791.357z M408.918,795.451
		c2.039,0.998,3.256,3.256,3.256,6.01v1.283h-7.409h-7.407l0.139-0.559c0.301-1.24,1.578-3.498,2.577-4.596
		C402.529,794.955,406.104,794.094,408.918,795.451z"/>
	<path d="M434.339,791.34c-1.677,0.52-3.593,2.037-5.13,4.094c-0.499,0.658-0.979,1.299-1.06,1.377
		c-0.079,0.102,0.1-0.998,0.4-2.436l0.557-2.619h-2.074c-1.141,0-2.077,0.045-2.077,0.104c0,0.16-5.41,26.16-5.493,26.418
		c-0.078,0.199,0.398,0.242,2.137,0.199l2.238-0.059l1.257-5.99c1.518-7.248,1.997-9.027,3.176-11.424
		c2.056-4.271,5.91-6.471,8.407-4.811l0.818,0.539l0.899-2.139c0.599-1.459,0.819-2.217,0.698-2.377
		C438.494,791.457,435.658,790.939,434.339,791.34z"/>
	<path d="M447.219,791.439c-3.232,0.838-5.409,2.795-6.209,5.59c-0.959,3.438,0.639,6.312,4.594,8.209
		c0.999,0.455,2.874,1.357,4.153,1.977c3.354,1.598,4.355,2.594,4.355,4.312c0,1.461-0.921,2.637-2.698,3.416
		c-0.818,0.377-1.357,0.461-3.094,0.461c-1.88,0.018-2.219-0.043-3.296-0.541c-2.138-0.998-3.076-2.295-3.256-4.494l-0.1-1.277
		l-1.718,0.139c-2.694,0.201-3.016,0.279-3.016,0.779c0,1.059,0.46,3.119,0.939,4.154c0.659,1.479,2.057,2.773,3.913,3.674
		c3.655,1.719,8.869,1.719,12.462-0.041c3.854-1.875,5.591-6.391,3.835-10.004c-0.897-1.855-2.017-2.676-7.049-5.133
		c-5.175-2.535-5.912-3.096-5.912-4.492c0-0.898,0.62-1.918,1.558-2.557c1.857-1.236,5.831-1.018,7.748,0.438
		c0.739,0.582,1.678,2.32,1.678,3.158v0.58l1.758-0.121c2.676-0.199,2.834-0.258,2.834-0.918c0-1.02-0.778-3.074-1.557-4.096
		c-0.978-1.275-2.456-2.316-4.173-2.896C453.271,791.199,448.838,791,447.219,791.439z"/>
	<path d="M539.382,791.576c-2.458,0.621-3.896,1.459-5.793,3.379c-3.396,3.395-5.013,7.549-5.052,12.979
		c-0.02,1.895,0.059,2.777,0.341,3.695c0.856,2.834,2.495,4.912,4.891,6.168c5.613,2.957,13.221,0.82,16.835-4.711
		c2.197-3.336,3.034-6.25,3.054-10.445c0-2.396-0.059-3.014-0.479-4.291c-0.576-1.9-1.236-3.018-2.515-4.273
		c-1.219-1.221-2.975-2.197-4.714-2.619C544.175,791.039,541.218,791.1,539.382,791.576z M545.432,795.354
		c1.817,0.857,3.076,2.574,3.554,4.852c0.54,2.494-0.24,6.889-1.776,9.824c-0.879,1.699-3.113,4.014-4.492,4.656
		c-3.676,1.695-7.43,0.477-8.987-2.918c-0.398-0.84-0.439-1.279-0.439-3.934c0-3.396,0.34-4.992,1.598-7.488
		c0.8-1.578,2.716-3.736,3.993-4.477C540.877,794.695,543.594,794.492,545.432,795.354z"/>
	<path d="M633.537,791.479c-3.473,0.738-6.289,2.916-7.867,6.07c-0.998,1.996-1.076,1.879,1.877,2.078l1.998,0.121l0.479-1.041
		c1.376-2.936,4.734-4.412,8.528-3.771c2.276,0.396,3.512,1.334,3.872,2.914c0.162,0.738-0.1,3.217-0.399,3.693
		c-0.258,0.418-2.495,0.779-6.289,1c-4.732,0.277-6.831,0.637-8.609,1.479c-3.312,1.555-5.091,4.512-4.811,7.906
		c0.178,2.1,0.817,3.514,2.218,4.912c1.576,1.578,2.873,2.1,5.531,2.236c3.035,0.139,5.552-0.697,8.206-2.715l1.339-1.02
		l0.119,0.738c0.08,0.4,0.2,1.098,0.28,1.537l0.141,0.801l2.354,0.059l2.358,0.062l-0.141-0.66c-0.64-2.836-0.46-4.75,0.999-11.402
		c1.937-8.709,1.837-10.445-0.6-12.703c-1.26-1.115-2.398-1.699-4.453-2.232C638.851,791.076,635.595,791.059,633.537,791.479z
		 M640.828,807.354c-0.64,2.498-1.479,4.076-2.875,5.492c-2.06,2.039-4.814,2.998-7.35,2.516c-1.6-0.299-2.616-1.018-3.258-2.297
		c-1.277-2.576,0.162-5.512,3.098-6.328c0.759-0.219,3.753-0.641,6.929-1c1.119-0.117,2.437-0.342,2.897-0.479
		C641.366,804.938,641.404,805.096,640.828,807.354z"/>
	<path d="M699.039,791.479c-3.474,0.738-6.29,2.916-7.87,6.07c-0.995,1.996-1.075,1.879,1.88,2.078l1.996,0.121l0.478-1.041
		c1.381-2.936,4.732-4.412,8.528-3.771c2.276,0.396,3.515,1.334,3.872,2.914c0.165,0.738-0.098,3.217-0.396,3.693
		c-0.26,0.418-2.496,0.779-6.291,1c-4.733,0.277-6.83,0.637-8.605,1.479c-3.318,1.555-5.095,4.512-4.812,7.906
		c0.178,2.1,0.819,3.514,2.217,4.912c1.577,1.578,2.876,2.1,5.531,2.236c3.033,0.139,5.553-0.697,8.206-2.715l1.339-1.02
		l0.118,0.738c0.08,0.4,0.201,1.098,0.283,1.537l0.135,0.801l2.359,0.059l2.358,0.062l-0.142-0.66c-0.64-2.836-0.461-4.75,1-11.402
		c1.935-8.709,1.833-10.445-0.603-12.703c-1.256-1.115-2.396-1.699-4.451-2.232C704.349,791.076,701.097,791.059,699.039,791.479z
		 M706.327,807.354c-0.638,2.498-1.478,4.076-2.874,5.492c-2.057,2.039-4.813,2.998-7.35,2.516
		c-1.599-0.299-2.617-1.018-3.256-2.297c-1.277-2.576,0.16-5.512,3.097-6.328c0.758-0.219,3.752-0.641,6.93-1
		c1.116-0.117,2.435-0.342,2.894-0.479C706.865,804.938,706.906,805.096,706.327,807.354z"/>
	<path d="M776.123,791.479c-3.477,0.738-6.291,2.916-7.869,6.07c-0.997,1.996-1.077,1.879,1.875,2.078l1.999,0.121l0.479-1.041
		c1.381-2.936,4.732-4.412,8.526-3.771c2.276,0.396,3.517,1.334,3.874,2.914c0.159,0.738-0.1,3.217-0.398,3.693
		c-0.261,0.418-2.495,0.779-6.291,1c-4.731,0.277-6.829,0.637-8.604,1.479c-3.319,1.555-5.095,4.512-4.815,7.906
		c0.181,2.1,0.815,3.514,2.217,4.912c1.575,1.578,2.874,2.1,5.53,2.236c3.035,0.139,5.552-0.697,8.21-2.715l1.336-1.02l0.121,0.738
		c0.08,0.4,0.201,1.098,0.279,1.537l0.139,0.801l2.358,0.059l2.353,0.062l-0.137-0.66c-0.639-2.836-0.462-4.75,0.996-11.402
		c1.939-8.709,1.838-10.445-0.597-12.703c-1.258-1.115-2.397-1.699-4.453-2.232C781.434,791.076,778.179,791.059,776.123,791.479z
		 M783.41,807.354c-0.639,2.498-1.479,4.076-2.875,5.492c-2.057,2.039-4.811,2.998-7.347,2.516
		c-1.598-0.299-2.619-1.018-3.257-2.297c-1.277-2.576,0.158-5.512,3.094-6.328c0.759-0.219,3.755-0.641,6.929-1
		c1.119-0.117,2.439-0.342,2.897-0.479C783.95,804.938,783.991,805.096,783.41,807.354z"/>
	<path d="M875.97,791.457c-3.915,0.859-6.532,2.895-8.207,6.393c-0.818,1.656-0.9,1.578,2.016,1.777l1.999,0.121l0.478-1.041
		c0.68-1.438,2.14-2.814,3.556-3.375c0.921-0.357,1.577-0.439,3.155-0.459c3.096,0,4.595,0.621,5.452,2.275
		c0.38,0.74,0.438,1.078,0.339,1.996c-0.235,2.139-0.438,2.559-1.235,2.779c-0.92,0.262-3.736,0.561-7.651,0.82
		c-3.373,0.217-4.854,0.516-6.71,1.375c-3.933,1.838-5.611,6.131-4.052,10.305c0.618,1.635,2.415,3.455,4.071,4.096
		c1.618,0.615,4.515,0.777,6.312,0.318c1.596-0.4,3.753-1.457,5.131-2.518c0.582-0.441,1.139-0.758,1.259-0.699
		c0.102,0.08,0.181,0.422,0.181,0.76c0,0.359,0.101,0.977,0.22,1.377l0.199,0.762h2.317h2.299l-0.121-0.559
		c-0.302-1.221-0.362-4.496-0.123-5.99c0.123-0.842,0.68-3.5,1.22-5.895c1.479-6.648,1.617-8.469,0.778-10.424
		c-0.778-1.836-3.296-3.535-6.129-4.174C880.982,791.1,877.667,791.076,875.97,791.457z M883.06,807.336
		c-0.621,2.457-1.42,4.031-2.697,5.369c-2.556,2.678-6.527,3.559-9.226,2.018c-0.816-0.48-1.137-0.799-1.558-1.695
		c-0.478-0.941-0.536-1.279-0.438-2.219c0.163-1.539,0.899-2.734,2.179-3.455c1.178-0.676,3.115-1.057,7.444-1.518
		c1.54-0.158,3.199-0.398,3.697-0.559C883.597,804.938,883.639,805.076,883.06,807.336z"/>
	<path d="M908.62,791.439c-2.136,0.619-3.911,1.695-5.909,3.555c-0.68,0.641-1.278,1.156-1.338,1.156
		c-0.081,0,0.219-1.557,0.76-3.953c0.098-0.441,0.077-0.441-1.977-0.441c-1.979,0-2.081,0.02-2.181,0.441
		c-0.237,0.959-5.329,25.883-5.329,26.1c0,0.141,0.717,0.223,2.255,0.223h2.237l1.178-5.854c1.599-7.906,2.156-10.045,3.135-12.082
		c1.479-3.074,3.995-5.09,6.989-5.648c2.259-0.42,4.015,0.117,4.693,1.436c0.241,0.498,0.3,0.98,0.218,2.057
		c-0.077,1.117-3.593,18.273-4.053,19.732c-0.1,0.316,0.102,0.359,2.199,0.359c2.018,0,2.297-0.043,2.395-0.359
		c0.062-0.182,0.978-4.334,2.035-9.227c1.738-7.969,1.939-9.107,1.96-10.982c0.02-1.781-0.06-2.258-0.462-3.135
		c-0.539-1.24-1.875-2.518-3.174-3.119C913.095,791.178,909.999,791.039,908.62,791.439z"/>
	<path d="M932.585,791.576c-2.456,0.621-3.893,1.459-5.791,3.379c-3.396,3.395-5.013,7.549-5.052,12.979
		c-0.023,1.895,0.059,2.777,0.337,3.695c0.859,2.834,2.498,4.912,4.891,6.168c5.615,2.957,13.223,0.82,16.837-4.711
		c2.199-3.336,3.036-6.25,3.055-10.445c0-2.396-0.059-3.014-0.479-4.291c-0.577-1.9-1.237-3.018-2.517-4.273
		c-1.217-1.221-2.978-2.197-4.712-2.619C937.379,791.039,934.421,791.1,932.585,791.576z M938.637,795.354
		c1.815,0.857,3.075,2.574,3.554,4.852c0.538,2.494-0.238,6.889-1.777,9.824c-0.878,1.699-3.116,4.014-4.493,4.656
		c-3.674,1.695-7.428,0.477-8.987-2.918c-0.399-0.84-0.439-1.279-0.439-3.934c0-3.396,0.34-4.992,1.598-7.488
		c0.798-1.578,2.715-3.736,3.993-4.477C934.082,794.695,936.8,794.492,938.637,795.354z"/>
	<path d="M961.242,791.479c-3.477,0.738-6.292,2.916-7.871,6.07c-0.999,1.996-1.076,1.879,1.88,2.078l1.997,0.121l0.477-1.041
		c1.382-2.936,4.732-4.412,8.527-3.771c2.278,0.396,3.516,1.334,3.874,2.914c0.16,0.738-0.098,3.217-0.398,3.693
		c-0.259,0.418-2.494,0.779-6.29,1c-4.73,0.277-6.83,0.637-8.604,1.479c-3.317,1.555-5.094,4.512-4.814,7.906
		c0.179,2.1,0.818,3.514,2.215,4.912c1.582,1.578,2.875,2.1,5.532,2.236c3.035,0.139,5.551-0.697,8.209-2.715l1.335-1.02
		l0.121,0.738c0.081,0.4,0.202,1.098,0.28,1.537l0.14,0.801l2.357,0.059l2.356,0.062l-0.141-0.66
		c-0.641-2.836-0.459-4.75,1.001-11.402c1.935-8.709,1.835-10.445-0.603-12.703c-1.257-1.115-2.397-1.699-4.453-2.232
		C966.553,791.076,963.299,791.059,961.242,791.479z M968.53,807.354c-0.641,2.498-1.479,4.076-2.876,5.492
		c-2.056,2.039-4.814,2.998-7.349,2.516c-1.598-0.299-2.614-1.018-3.257-2.297c-1.276-2.576,0.161-5.512,3.099-6.328
		c0.757-0.219,3.753-0.641,6.93-1c1.117-0.117,2.435-0.342,2.896-0.479C969.069,804.938,969.109,805.096,968.53,807.354z"/>
	<path d="M356.599,804.879c-1.498,7.227-2.736,13.26-2.736,13.381c0,0.195,0.579,0.26,2.257,0.26h2.235l2.757-13.242
		c1.517-7.268,2.755-13.277,2.735-13.379c0-0.078-1.019-0.143-2.257-0.143h-2.236L356.599,804.879z"/>
	<path d="M367.721,792.299c0.059,0.318,1.021,6.088,2.118,12.838c1.097,6.752,2.058,12.523,2.116,12.842l0.121,0.541h2.534h2.556
		l6.572-11.543c3.594-6.332,7.028-12.363,7.607-13.383l1.038-1.838h-2.435h-2.437l-4.974,8.986c-2.717,4.936-5.45,9.969-6.07,11.205
		l-1.119,2.217l-0.34-3.057c-0.199-1.697-0.917-6.729-1.596-11.223l-1.258-8.129h-2.276h-2.278L367.721,792.299z"/>
	<path d="M464.833,804.879c-1.496,7.227-2.735,13.26-2.735,13.381c0,0.195,0.581,0.26,2.257,0.26h2.237l2.756-13.242
		c1.518-7.268,2.755-13.277,2.733-13.379c0-0.078-1.017-0.143-2.255-0.143h-2.237L464.833,804.879z"/>
	<path d="M490.754,792.197c0.061,0.26,1.061,6.25,2.218,13.34l2.116,12.881l-0.558,1.098c-1.021,1.938-2.497,4.014-3.256,4.494
		c-0.92,0.619-2.196,0.799-3.694,0.518c-0.659-0.121-1.197-0.197-1.237-0.158c-0.02,0.02-0.122,0.998-0.181,2.154l-0.16,2.119
		l1.06,0.26c0.599,0.139,1.696,0.219,2.593,0.16c2.697-0.16,4.597-1.439,6.652-4.516c0.778-1.158,18.51-32.488,18.51-32.707
		c0-0.039-1.075-0.084-2.374-0.084h-2.376l-5.852,10.566c-3.235,5.809-5.893,10.547-5.932,10.523
		c-0.02-0.039-0.219-1.396-0.421-3.037c-0.218-1.637-0.896-6.328-1.495-10.424c-0.62-4.072-1.119-7.467-1.119-7.525
		s-1.038-0.104-2.296-0.104C490.654,791.756,490.654,791.756,490.754,792.197z"/>
	<path d="M652.609,791.898c-0.02,0.359,2.614,25.762,2.714,26.182c0.082,0.439,0.141,0.459,2.518,0.396l2.417-0.059l3.634-8.107
		c2.019-4.475,4.114-9.225,4.652-10.584l1.021-2.477l0.02,1.498c0,1.656,0.938,17.572,1.117,18.932l0.1,0.859l2.397-0.062
		l2.378-0.059l4.909-10.084c2.696-5.551,5.615-11.541,6.473-13.34l1.577-3.238h-2.34l-2.335,0.02l-2.495,5.334
		c-4.531,9.727-5.413,11.643-6.271,13.76l-0.858,2.098l-0.098-3.475c-0.061-1.898-0.321-6.672-0.581-10.607l-0.458-7.129h-2.539
		h-2.515l-3.412,7.432c-4.154,9.064-4.555,10.004-5.233,12.121l-0.521,1.68l-0.259-3.777c-0.22-3.375-1.237-14.438-1.519-16.613
		l-0.119-0.842h-2.197C653.589,791.756,652.609,791.82,652.609,791.898z"/>
	<path d="M718.45,804.879c-1.5,7.227-2.737,13.26-2.737,13.381c0,0.195,0.579,0.26,2.257,0.26h2.237l2.755-13.242
		c1.52-7.268,2.756-13.277,2.738-13.379c0-0.078-1.021-0.143-2.259-0.143h-2.235L718.45,804.879z"/>
	<path d="M741.217,804.879c-1.501,7.227-2.738,13.26-2.738,13.381c0,0.195,0.581,0.26,2.259,0.26h2.233l2.758-13.242
		c1.517-7.268,2.757-13.277,2.735-13.379c0-0.078-1.019-0.143-2.254-0.143h-2.24L741.217,804.879z"/>
</g>
</svg>
