<?xml version="1.0" encoding="utf-8"?>
<!-- Generator: Adobe Illustrator 13.0.0, SVG Export Plug-In . SVG Version: 6.00 Build 14948)  -->
<!DOCTYPE svg PUBLIC "-//W3C//DTD SVG 1.1//EN" "http://www.w3.org/Graphics/SVG/1.1/DTD/svg11.dtd">
<svg version="1.1" id="Layer_1" xmlns="http://www.w3.org/2000/svg" xmlns:xlink="http://www.w3.org/1999/xlink" x="0px" y="0px"
	 width="1264.25px" height="982.254px" viewBox="0 0 1264.25 982.254" enable-background="new 0 0 1264.25 982.254"
	 xml:space="preserve">
<text transform="matrix(1 0 0 1 906.8672 83.1309)" font-family="'Verdana'" font-size="48"> </text>
<path fill="#FFFFFF" stroke="#000000" stroke-width="10" stroke-miterlimit="10" d="M492.125,934.129c0,6.627-5.373,12-12,12h-83.05
	c-6.628,0-12-5.373-12-12v-54c0-6.627,5.372-12,12-12h83.05c6.627,0,12,5.373,12,12V934.129z"/>
<g enable-background="new    ">
	<path d="M427.502,907.498h-19.289c0,1.609,0.242,3.012,0.729,4.207c0.48,1.195,1.146,2.176,1.987,2.938
		c0.812,0.75,1.777,1.312,2.896,1.688s2.348,0.562,3.688,0.562c1.781,0,3.574-0.354,5.384-1.062c1.805-0.711,3.09-1.41,3.854-2.099
		h0.234v4.806c-1.484,0.625-3,1.146-4.547,1.569c-1.552,0.423-3.177,0.634-4.875,0.634c-4.349,0-7.734-1.181-10.177-3.527
		c-2.438-2.351-3.651-5.69-3.651-10.02c0-4.281,1.168-7.685,3.504-10.195c2.336-2.517,5.41-3.773,9.223-3.773
		c3.531,0,6.254,1.031,8.168,3.099c1.914,2.062,2.871,4.987,2.871,8.785L427.502,907.498L427.502,907.498z M423.213,904.123
		c-0.016-2.312-0.598-4.102-1.746-5.367c-1.146-1.265-2.895-1.896-5.238-1.896c-2.354,0-4.233,0.69-5.637,2.086
		c-1.396,1.391-2.188,3.112-2.379,5.18L423.213,904.123L423.213,904.123z"/>
	<path d="M452.885,912.583c0,2.391-0.983,4.352-2.965,5.883c-1.977,1.531-4.676,2.297-8.098,2.297c-1.938,0-3.715-0.229-5.332-0.688
		s-2.978-0.965-4.066-1.517v-4.94h0.234c1.391,1.047,2.938,1.879,4.641,2.496c1.703,0.614,3.336,0.926,4.898,0.926
		c1.938,0,3.453-0.312,4.547-0.938c1.094-0.625,1.641-1.604,1.641-2.948c0-1.031-0.297-1.812-0.891-2.349
		c-0.594-0.529-1.734-0.979-3.422-1.354c-0.625-0.146-1.441-0.31-2.449-0.492c-1.008-0.188-1.926-0.393-2.754-0.609
		c-2.297-0.604-3.926-1.504-4.887-2.684c-0.961-1.182-1.441-2.629-1.441-4.35c0-1.076,0.223-2.097,0.668-3.05
		c0.445-0.95,1.121-1.805,2.027-2.555c0.875-0.734,1.983-1.313,3.34-1.746c1.352-0.43,2.863-0.645,4.535-0.645
		c1.562,0,3.145,0.188,4.746,0.569c1.601,0.387,2.934,0.853,3.996,1.396v4.711h-0.234c-1.125-0.828-2.492-1.527-4.104-2.099
		c-1.605-0.57-3.188-0.854-4.729-0.854c-1.609,0-2.969,0.312-4.078,0.926c-1.109,0.617-1.664,1.535-1.664,2.755
		c0,1.077,0.336,1.895,1.008,2.438c0.656,0.547,1.719,0.992,3.188,1.336c0.812,0.188,1.723,0.375,2.729,0.562
		c1.007,0.188,1.853,0.356,2.521,0.518c2.047,0.469,3.625,1.271,4.729,2.414C452.331,909.146,452.885,910.677,452.885,912.583z"/>
	<path d="M478.549,918.49c-1.469,0.703-2.863,1.25-4.184,1.641c-1.321,0.391-2.728,0.586-4.207,0.586
		c-1.896,0-3.625-0.272-5.203-0.832c-1.578-0.555-2.93-1.395-4.055-2.52c-1.146-1.125-2.023-2.547-2.648-4.271
		c-0.625-1.719-0.938-3.727-0.938-6.021c0-4.281,1.176-7.646,3.522-10.078c2.354-2.438,5.457-3.656,9.316-3.656
		c1.5,0,2.973,0.211,4.418,0.633c1.442,0.423,2.77,0.938,3.973,1.548v4.897h-0.229c-1.349-1.047-2.73-1.852-4.16-2.414
		c-1.435-0.562-2.824-0.844-4.188-0.844c-2.5,0-4.473,0.84-5.918,2.52c-1.44,1.685-2.168,4.146-2.168,7.396
		c0,3.156,0.707,5.582,2.121,7.273c1.414,1.694,3.402,2.546,5.965,2.546c0.896,0,1.797-0.116,2.724-0.354
		c0.922-0.234,1.75-0.539,2.479-0.914c0.646-0.328,1.242-0.676,1.808-1.043c0.562-0.367,1.01-0.685,1.338-0.949h0.229
		L478.549,918.49L478.549,918.49z"/>
</g>
<polygon fill="#28B45F" stroke="#000000" stroke-width="10" stroke-linecap="round" stroke-linejoin="round" points="
	251.638,144.641 251.638,267.975 290.283,229.33 342.905,229.33 "/>
<g>
	<g>
		<path fill="#FFFFFF" d="M931.104,116.044c-15.793,0-28.597,12.803-28.597,28.597c0,15.793,12.804,28.597,28.597,28.597
			c15.796,0,28.6-12.803,28.6-28.597C959.701,128.847,946.896,116.044,931.104,116.044z M931.104,161.572
			c-9.35,0-16.931-7.58-16.931-16.931s7.581-16.931,16.931-16.931c9.354,0,16.934,7.58,16.934,16.931
			C948.035,153.992,940.455,161.572,931.104,161.572z"/>
	</g>
	<g>
		<path fill="none" stroke="#000000" stroke-width="5" d="M931.104,116.044c-15.793,0-28.597,12.803-28.597,28.597
			c0,15.793,12.804,28.597,28.597,28.597c15.796,0,28.6-12.803,28.6-28.597C959.701,128.847,946.896,116.044,931.104,116.044z
			 M931.104,161.572c-9.35,0-16.931-7.58-16.931-16.931s7.581-16.931,16.931-16.931c9.354,0,16.934,7.58,16.934,16.931
			C948.035,153.992,940.455,161.572,931.104,161.572z"/>
	</g>
</g>
<polygon fill="#28B45F" stroke="#000000" stroke-width="10" stroke-linecap="round" stroke-linejoin="round" points="
	931.104,144.641 931.104,267.975 969.748,229.33 1022.371,229.33 "/>
<polygon points="643.203,322.011 643.203,831.129 651.178,821.413 651.178,313.13 "/>
<g>
	<polygon fill="#28B45F" points="77.125,383.38 79.125,358.755 87.25,350.38 110.25,350.255 110.375,370.38 103,383.38 	"/>
	<polygon fill="#FFFFFF" points="112.375,349.13 140.125,349.797 148.458,359.463 149.458,447.797 139.792,466.13 123.792,475.13 
		97.458,473.797 82.125,462.13 76.792,446.463 75.792,385.797 102.208,386.047 104.125,375.463 112.042,371.047 	"/>
	<path fill="none" stroke="#000000" stroke-width="6" stroke-miterlimit="10" d="M76.625,369.63c0-15.5,8-21,20-21
		s20.25-0.083,31.25-0.083c14.167,0,21.75,5.083,21.75,20.083s0.082,28.667,0.082,73.667s-73.082,45.5-73.082,1.333
		C76.625,409.13,76.625,369.63,76.625,369.63z"/>
	
		<line fill="none" stroke="#000000" stroke-width="6" stroke-miterlimit="10" x1="112.125" y1="372.463" x2="112.125" y2="348.797"/>
	<line fill="none" stroke="#000000" stroke-width="6" stroke-miterlimit="10" x1="149.125" y1="385.13" x2="121.125" y2="385.13"/>
	<line fill="none" stroke="#000000" stroke-width="6" stroke-miterlimit="10" x1="104.458" y1="385.13" x2="76.458" y2="385.13"/>
	<path fill="none" stroke="#000000" stroke-width="6" stroke-miterlimit="10" d="M120.125,405.114c0,4.242-3.582,7.683-8,7.683l0,0
		c-4.418,0-8-3.438-8-7.683v-24.969c0-4.243,3.582-7.683,8-7.683l0,0c4.418,0,8,3.439,8,7.683V405.114z"/>
</g>
<g>
	<polygon fill="#28B45F" points="147.75,552.879 146.75,528.254 137.625,519.879 114.625,519.754 114.5,539.879 121.875,552.879 	
		"/>
	<polygon fill="#FFFFFF" points="112.875,519.879 85.125,520.545 76.792,530.213 75.792,618.545 85.458,636.879 101.458,645.879 
		127.792,644.545 143.125,632.879 148.458,617.213 149.458,556.545 123.042,556.795 121.125,546.213 113.208,541.795 	"/>
	<path fill="none" stroke="#000000" stroke-width="6" stroke-miterlimit="10" d="M76.625,539.629c0-15.5,8-21,20-21
		s20.25-0.082,31.25-0.082c14.167,0,21.75,5.082,21.75,20.082s0.082,28.666,0.082,73.668c0,45-73.082,45.5-73.082,1.332
		C76.625,579.129,76.625,539.629,76.625,539.629z"/>
	
		<line fill="none" stroke="#000000" stroke-width="6" stroke-miterlimit="10" x1="112.125" y1="542.463" x2="112.125" y2="518.797"/>
	
		<line fill="none" stroke="#000000" stroke-width="6" stroke-miterlimit="10" x1="149.125" y1="555.129" x2="121.125" y2="555.129"/>
	<line fill="none" stroke="#000000" stroke-width="6" stroke-miterlimit="10" x1="104.458" y1="555.129" x2="76.458" y2="555.129"/>
	<path fill="none" stroke="#000000" stroke-width="6" stroke-miterlimit="10" d="M120.125,575.114c0,4.242-3.582,7.684-8,7.684l0,0
		c-4.418,0-8-3.438-8-7.684v-24.97c0-4.241,3.582-7.688,8-7.688l0,0c4.418,0,8,3.439,8,7.688V575.114z"/>
</g>
<g>
	<path fill="#FFFFFF" stroke="#000000" stroke-width="6" stroke-miterlimit="10" d="M76.625,714.629c0-15.5,8-21,20-21
		s20.25-0.082,31.25-0.082c14.167,0,21.75,5.082,21.75,20.082s0.082,28.666,0.082,73.668c0,45-73.082,45.5-73.082,1.332
		C76.625,754.129,76.625,714.629,76.625,714.629z"/>
	
		<line fill="none" stroke="#000000" stroke-width="6" stroke-miterlimit="10" x1="112.125" y1="717.463" x2="112.125" y2="693.797"/>
	
		<line fill="none" stroke="#000000" stroke-width="6" stroke-miterlimit="10" x1="149.125" y1="730.129" x2="121.125" y2="730.129"/>
	<line fill="none" stroke="#000000" stroke-width="6" stroke-miterlimit="10" x1="104.458" y1="730.129" x2="76.458" y2="730.129"/>
	<path fill="#28B45F" stroke="#000000" stroke-width="6" stroke-miterlimit="10" d="M120.125,750.114c0,4.242-3.582,7.684-8,7.684
		l0,0c-4.418,0-8-3.438-8-7.684v-24.97c0-4.241,3.582-7.688,8-7.688l0,0c4.418,0,8,3.439,8,7.688V750.114z"/>
</g>
<polygon fill="#28B45F" stroke="#000000" stroke-width="2" points="111.899,666.658 132.498,686.52 119.917,686.52 119.917,710.627 
	103.792,710.627 103.792,686.627 91.304,686.627 "/>
<polygon fill="#28B45F" stroke="#000000" stroke-width="2" points="111.901,809.627 91.303,789.766 103.884,789.766 
	103.884,765.658 120.009,765.658 120.009,789.658 132.497,789.658 "/>
<rect x="168.625" y="546.627" fill="none" width="267" height="69"/>
<g enable-background="new    ">
	<path d="M223.859,564.307c0,0.906-0.211,1.803-0.633,2.688c-0.422,0.886-1.013,1.636-1.773,2.25
		c-0.833,0.667-1.805,1.188-2.914,1.562s-2.445,0.562-4.008,0.562c-1.677,0-3.185-0.156-4.523-0.469
		c-1.339-0.312-2.701-0.775-4.086-1.391v-3.875h0.219c1.177,0.979,2.536,1.734,4.078,2.266c1.542,0.531,2.989,0.797,4.344,0.797
		c1.917,0,3.409-0.359,4.477-1.078c1.067-0.719,1.602-1.677,1.602-2.875c0-1.031-0.253-1.791-0.758-2.281
		c-0.505-0.489-1.273-0.869-2.305-1.141c-0.781-0.208-1.628-0.38-2.539-0.516c-0.912-0.135-1.878-0.307-2.898-0.516
		c-2.062-0.438-3.591-1.185-4.586-2.242c-0.995-1.057-1.492-2.435-1.492-4.133c0-1.947,0.823-3.544,2.469-4.789
		c1.646-1.244,3.734-1.867,6.266-1.867c1.635,0,3.135,0.156,4.5,0.469c1.364,0.312,2.573,0.698,3.625,1.156v3.656h-0.219
		c-0.886-0.75-2.05-1.372-3.492-1.867c-1.443-0.494-2.919-0.742-4.43-0.742c-1.656,0-2.987,0.344-3.992,1.031
		c-1.005,0.688-1.508,1.573-1.508,2.656c0,0.969,0.25,1.729,0.75,2.281c0.5,0.553,1.38,0.975,2.641,1.266
		c0.667,0.146,1.614,0.323,2.844,0.531c1.229,0.209,2.271,0.422,3.125,0.641c1.729,0.459,3.031,1.151,3.906,2.078
		C223.422,561.344,223.859,562.641,223.859,564.307z"/>
	<path d="M243.188,570.947h-2.938v-9.938c0-0.802-0.047-1.555-0.141-2.258s-0.266-1.252-0.516-1.648
		c-0.261-0.438-0.636-0.763-1.125-0.977c-0.49-0.213-1.125-0.32-1.906-0.32c-0.802,0-1.641,0.198-2.516,0.594
		c-0.875,0.396-1.714,0.901-2.516,1.516v13.031h-2.938v-24.312h2.938v8.797c0.917-0.76,1.864-1.354,2.844-1.781
		c0.979-0.427,1.984-0.641,3.016-0.641c1.885,0,3.323,0.568,4.312,1.703c0.989,1.136,1.484,2.771,1.484,4.906V570.947z"/>
	<path d="M263.719,562.229c0,2.844-0.729,5.089-2.188,6.734c-1.458,1.646-3.412,2.469-5.859,2.469c-2.469,0-4.43-0.822-5.883-2.469
		c-1.453-1.646-2.18-3.891-2.18-6.734s0.727-5.091,2.18-6.742c1.453-1.65,3.414-2.477,5.883-2.477c2.448,0,4.401,0.826,5.859,2.477
		C262.989,557.138,263.719,559.385,263.719,562.229z M260.688,562.229c0-2.26-0.443-3.939-1.328-5.039
		c-0.886-1.099-2.115-1.648-3.688-1.648c-1.594,0-2.831,0.55-3.711,1.648c-0.88,1.1-1.32,2.779-1.32,5.039
		c0,2.188,0.442,3.847,1.328,4.977c0.885,1.131,2.12,1.695,3.703,1.695c1.562,0,2.789-0.56,3.68-1.68
		C260.242,566.102,260.688,564.438,260.688,562.229z"/>
	<path d="M290.219,553.494l-4.547,17.453h-2.719l-4.484-13.453l-4.453,13.453h-2.703l-4.594-17.453h3.062l3.203,13.516l4.359-13.516
		h2.422l4.469,13.516l3.031-13.516H290.219z"/>
	<path d="M316.25,546.635l-11.203,29.062h-2.703l11.156-29.062H316.25z"/>
	<path d="M349.516,570.947h-3.094v-11.391h-11.609v11.391h-3.094v-23.266h3.094v9.125h11.609v-9.125h3.094V570.947z"/>
	<path d="M358.688,550.572h-3.312v-3.047h3.312V550.572z M358.5,570.947h-2.938v-17.453h2.938V570.947z"/>
	<path d="M378.469,570.947h-2.938v-1.828c-0.844,0.729-1.724,1.297-2.641,1.703c-0.917,0.406-1.912,0.609-2.984,0.609
		c-2.083,0-3.737-0.802-4.961-2.406c-1.224-1.604-1.836-3.828-1.836-6.672c0-1.479,0.211-2.797,0.633-3.953s0.992-2.141,1.711-2.953
		c0.708-0.791,1.534-1.396,2.477-1.812c0.942-0.416,1.919-0.625,2.93-0.625c0.917,0,1.729,0.097,2.438,0.289
		c0.708,0.193,1.453,0.492,2.234,0.898v-7.562h2.938V570.947z M375.531,566.65v-10.016c-0.792-0.354-1.5-0.599-2.125-0.734
		c-0.625-0.135-1.308-0.203-2.047-0.203c-1.646,0-2.927,0.573-3.844,1.719c-0.917,1.146-1.375,2.771-1.375,4.875
		c0,2.073,0.354,3.648,1.062,4.727c0.708,1.078,1.844,1.617,3.406,1.617c0.833,0,1.677-0.185,2.531-0.555
		C373.995,567.711,374.792,567.234,375.531,566.65z"/>
	<path d="M398.859,562.525H386c0,1.073,0.161,2.008,0.484,2.805c0.323,0.797,0.766,1.451,1.328,1.961
		c0.542,0.5,1.185,0.875,1.93,1.125c0.745,0.25,1.565,0.375,2.461,0.375c1.188,0,2.383-0.236,3.586-0.711
		c1.203-0.474,2.06-0.939,2.57-1.398h0.156v3.203c-0.99,0.417-2,0.766-3.031,1.047s-2.115,0.422-3.25,0.422
		c-2.896,0-5.156-0.783-6.781-2.352c-1.625-1.567-2.438-3.794-2.438-6.68c0-2.854,0.778-5.119,2.336-6.797
		c1.557-1.677,3.606-2.516,6.148-2.516c2.354,0,4.169,0.688,5.445,2.062c1.276,1.375,1.914,3.328,1.914,5.859V562.525z M396,560.275
		c-0.011-1.541-0.398-2.734-1.164-3.578s-1.93-1.266-3.492-1.266c-1.573,0-2.826,0.464-3.758,1.391
		c-0.933,0.928-1.461,2.078-1.586,3.453H396z"/>
</g>
<g enable-background="new    ">
	<path d="M268.008,586.081l-6.047,23.266h-3.484l-4.891-19.312l-4.781,19.312h-3.406l-6.156-23.266h3.172l4.891,19.344l4.812-19.344
		h3.141l4.859,19.531l4.859-19.531H268.008z"/>
	<path d="M275.493,588.972h-3.312v-3.047h3.312V588.972z M275.305,609.347h-2.938v-17.453h2.938V609.347z"/>
	<path d="M295.274,609.347h-2.938v-1.828c-0.844,0.729-1.724,1.297-2.641,1.703c-0.917,0.406-1.912,0.609-2.984,0.609
		c-2.083,0-3.737-0.802-4.961-2.406c-1.224-1.604-1.836-3.828-1.836-6.672c0-1.479,0.211-2.797,0.633-3.953s0.992-2.141,1.711-2.953
		c0.708-0.791,1.534-1.396,2.477-1.812c0.942-0.416,1.919-0.625,2.93-0.625c0.917,0,1.729,0.097,2.438,0.289
		c0.708,0.193,1.453,0.492,2.234,0.898v-7.562h2.938V609.347z M292.336,605.05v-10.016c-0.792-0.354-1.5-0.599-2.125-0.734
		c-0.625-0.135-1.308-0.203-2.047-0.203c-1.646,0-2.927,0.573-3.844,1.719c-0.917,1.146-1.375,2.771-1.375,4.875
		c0,2.073,0.354,3.648,1.062,4.727c0.708,1.078,1.844,1.617,3.406,1.617c0.833,0,1.677-0.185,2.531-0.555
		C290.8,606.11,291.597,605.634,292.336,605.05z"/>
	<path d="M315.211,607.362c0,2.958-0.672,5.13-2.016,6.516c-1.344,1.385-3.412,2.078-6.203,2.078c-0.927,0-1.831-0.065-2.711-0.195
		c-0.88-0.131-1.748-0.315-2.602-0.555v-3h0.156c0.479,0.188,1.239,0.419,2.281,0.695c1.042,0.275,2.083,0.414,3.125,0.414
		c1,0,1.828-0.12,2.484-0.359c0.656-0.24,1.167-0.573,1.531-1c0.364-0.406,0.625-0.896,0.781-1.469
		c0.156-0.573,0.234-1.213,0.234-1.922v-1.594c-0.886,0.709-1.732,1.237-2.539,1.586c-0.808,0.35-1.836,0.523-3.086,0.523
		c-2.083,0-3.737-0.752-4.961-2.258c-1.224-1.505-1.836-3.627-1.836-6.367c0-1.5,0.211-2.794,0.633-3.883
		c0.422-1.088,0.997-2.028,1.727-2.82c0.677-0.739,1.5-1.314,2.469-1.727c0.969-0.411,1.932-0.617,2.891-0.617
		c1.01,0,1.856,0.102,2.539,0.305c0.682,0.203,1.403,0.514,2.164,0.93l0.188-0.75h2.75V607.362z M312.274,604.55v-9.516
		c-0.781-0.354-1.508-0.606-2.18-0.758c-0.672-0.15-1.341-0.227-2.008-0.227c-1.615,0-2.886,0.542-3.812,1.625
		c-0.927,1.084-1.391,2.656-1.391,4.719c0,1.959,0.344,3.443,1.031,4.453c0.688,1.011,1.828,1.516,3.422,1.516
		c0.854,0,1.711-0.164,2.57-0.492S311.555,605.103,312.274,604.55z"/>
	<path d="M335.602,600.925h-12.859c0,1.073,0.161,2.008,0.484,2.805c0.323,0.797,0.766,1.451,1.328,1.961
		c0.542,0.5,1.185,0.875,1.93,1.125c0.745,0.25,1.565,0.375,2.461,0.375c1.188,0,2.383-0.236,3.586-0.711
		c1.203-0.474,2.06-0.939,2.57-1.398h0.156v3.203c-0.99,0.417-2,0.766-3.031,1.047s-2.115,0.422-3.25,0.422
		c-2.896,0-5.156-0.783-6.781-2.352c-1.625-1.567-2.438-3.794-2.438-6.68c0-2.854,0.778-5.119,2.336-6.797
		c1.557-1.677,3.606-2.516,6.148-2.516c2.354,0,4.169,0.688,5.445,2.062c1.276,1.375,1.914,3.328,1.914,5.859V600.925z
		 M332.743,598.675c-0.011-1.541-0.398-2.734-1.164-3.578s-1.93-1.266-3.492-1.266c-1.573,0-2.826,0.464-3.758,1.391
		c-0.933,0.928-1.461,2.078-1.586,3.453H332.743z"/>
	<path d="M349.118,609.19c-0.552,0.146-1.154,0.266-1.805,0.359c-0.651,0.094-1.232,0.141-1.742,0.141
		c-1.781,0-3.136-0.479-4.062-1.438c-0.927-0.958-1.391-2.494-1.391-4.609v-9.281h-1.984v-2.469h1.984v-5.016h2.938v5.016h6.062
		v2.469h-6.062v7.953c0,0.917,0.021,1.633,0.062,2.148c0.042,0.516,0.188,0.998,0.438,1.445c0.229,0.417,0.544,0.722,0.945,0.914
		c0.401,0.193,1.013,0.289,1.836,0.289c0.479,0,0.979-0.07,1.5-0.211c0.521-0.141,0.896-0.258,1.125-0.352h0.156V609.19z"/>
	<path d="M365.133,604.315c0,1.594-0.659,2.901-1.977,3.922c-1.318,1.021-3.117,1.531-5.398,1.531c-1.292,0-2.477-0.154-3.555-0.461
		s-1.982-0.643-2.711-1.008v-3.297h0.156c0.927,0.698,1.958,1.253,3.094,1.664c1.135,0.412,2.224,0.617,3.266,0.617
		c1.292,0,2.302-0.208,3.031-0.625c0.729-0.416,1.094-1.072,1.094-1.969c0-0.688-0.198-1.208-0.594-1.562
		c-0.396-0.354-1.156-0.656-2.281-0.906c-0.417-0.094-0.961-0.203-1.633-0.328s-1.284-0.26-1.836-0.406
		c-1.531-0.406-2.617-1.002-3.258-1.789c-0.641-0.786-0.961-1.752-0.961-2.898c0-0.719,0.148-1.396,0.445-2.031
		c0.297-0.635,0.747-1.203,1.352-1.703c0.583-0.489,1.325-0.877,2.227-1.164c0.901-0.286,1.909-0.43,3.023-0.43
		c1.042,0,2.096,0.128,3.164,0.383c1.067,0.256,1.956,0.565,2.664,0.93v3.141h-0.156c-0.75-0.552-1.662-1.018-2.734-1.398
		c-1.073-0.38-2.125-0.57-3.156-0.57c-1.073,0-1.979,0.206-2.719,0.617c-0.74,0.412-1.109,1.023-1.109,1.836
		c0,0.719,0.224,1.261,0.672,1.625c0.438,0.365,1.146,0.662,2.125,0.891c0.542,0.125,1.148,0.25,1.82,0.375s1.231,0.24,1.68,0.344
		c1.364,0.312,2.417,0.85,3.156,1.609C364.763,602.024,365.133,603.045,365.133,604.315z"/>
</g>
<rect x="755.625" y="531.627" fill="none" width="398" height="120"/>
<g enable-background="new    ">
	<path d="M828.234,555.947h-3.094V535.9l-6.469,13.641h-1.844l-6.422-13.641v20.047h-2.891v-23.266h4.219l6.203,12.953l6-12.953
		h4.297V555.947z"/>
	<path d="M849.125,547.229c0,2.844-0.729,5.089-2.188,6.734c-1.459,1.646-3.412,2.469-5.859,2.469c-2.469,0-4.43-0.822-5.883-2.469
		c-1.453-1.646-2.18-3.891-2.18-6.734s0.727-5.091,2.18-6.742c1.453-1.65,3.414-2.477,5.883-2.477c2.447,0,4.4,0.826,5.859,2.477
		C848.396,542.138,849.125,544.385,849.125,547.229z M846.094,547.229c0-2.26-0.443-3.939-1.328-5.039
		c-0.886-1.099-2.115-1.648-3.688-1.648c-1.594,0-2.831,0.55-3.711,1.648c-0.881,1.1-1.32,2.779-1.32,5.039
		c0,2.188,0.442,3.847,1.328,4.977c0.885,1.131,2.119,1.695,3.703,1.695c1.562,0,2.789-0.56,3.68-1.68
		C845.648,551.102,846.094,549.438,846.094,547.229z"/>
	<path d="M868.141,555.947h-2.938v-1.938c-0.99,0.781-1.938,1.381-2.844,1.797s-1.906,0.625-3,0.625c-1.834,0-3.261-0.56-4.281-1.68
		c-1.021-1.119-1.531-2.763-1.531-4.93v-11.328h2.938v9.938c0,0.886,0.041,1.644,0.125,2.273c0.083,0.631,0.26,1.17,0.531,1.617
		c0.281,0.459,0.646,0.792,1.094,1c0.447,0.209,1.099,0.312,1.953,0.312c0.76,0,1.591-0.197,2.492-0.594
		c0.9-0.396,1.742-0.9,2.523-1.516v-13.031h2.938V555.947z"/>
	<path d="M886.391,550.916c0,1.594-0.659,2.901-1.977,3.922c-1.318,1.021-3.117,1.531-5.398,1.531c-1.292,0-2.477-0.154-3.555-0.461
		s-1.982-0.643-2.711-1.008v-3.297h0.156c0.927,0.698,1.958,1.253,3.094,1.664c1.135,0.412,2.224,0.617,3.266,0.617
		c1.291,0,2.302-0.208,3.031-0.625c0.729-0.416,1.094-1.072,1.094-1.969c0-0.688-0.198-1.208-0.594-1.562
		c-0.396-0.354-1.156-0.656-2.281-0.906c-0.417-0.094-0.961-0.203-1.633-0.328s-1.284-0.26-1.836-0.406
		c-1.531-0.406-2.617-1.002-3.258-1.789c-0.641-0.786-0.961-1.752-0.961-2.898c0-0.719,0.148-1.396,0.445-2.031
		c0.297-0.635,0.747-1.203,1.352-1.703c0.583-0.489,1.325-0.877,2.227-1.164c0.9-0.286,1.908-0.43,3.023-0.43
		c1.041,0,2.096,0.128,3.164,0.383c1.067,0.256,1.955,0.565,2.664,0.93v3.141h-0.156c-0.75-0.552-1.662-1.018-2.734-1.398
		c-1.073-0.38-2.125-0.57-3.156-0.57c-1.073,0-1.979,0.206-2.719,0.617c-0.74,0.412-1.109,1.023-1.109,1.836
		c0,0.719,0.224,1.261,0.672,1.625c0.438,0.365,1.146,0.662,2.125,0.891c0.541,0.125,1.148,0.25,1.82,0.375s1.231,0.24,1.68,0.344
		c1.364,0.312,2.416,0.85,3.156,1.609C886.021,548.625,886.391,549.646,886.391,550.916z"/>
	<path d="M905.203,547.525h-12.859c0,1.073,0.161,2.008,0.484,2.805c0.322,0.797,0.766,1.451,1.328,1.961
		c0.541,0.5,1.185,0.875,1.93,1.125c0.744,0.25,1.564,0.375,2.461,0.375c1.188,0,2.383-0.236,3.586-0.711
		c1.203-0.474,2.06-0.939,2.57-1.398h0.156v3.203c-0.99,0.417-2,0.766-3.031,1.047s-2.115,0.422-3.25,0.422
		c-2.896,0-5.156-0.783-6.781-2.352c-1.625-1.567-2.438-3.794-2.438-6.68c0-2.854,0.778-5.119,2.336-6.797
		c1.557-1.677,3.606-2.516,6.148-2.516c2.354,0,4.169,0.688,5.445,2.062c1.275,1.375,1.914,3.328,1.914,5.859V547.525z
		 M902.344,545.275c-0.011-1.541-0.398-2.734-1.164-3.578s-1.93-1.266-3.492-1.266c-1.573,0-2.826,0.464-3.758,1.391
		c-0.933,0.928-1.461,2.078-1.586,3.453H902.344z"/>
	<path d="M938.125,541.744v1.5c0,1-0.131,2.125-0.391,3.375c-0.261,1.25-0.703,2.443-1.328,3.578l5.906,5.75h-3.844l-3.578-3.5
		c-1.198,1.479-2.422,2.514-3.672,3.102s-2.537,0.883-3.859,0.883c-2.167,0-3.967-0.633-5.398-1.898
		c-1.433-1.266-2.148-2.924-2.148-4.977c0-0.958,0.135-1.786,0.406-2.484c0.271-0.697,0.588-1.302,0.953-1.812
		c0.364-0.489,0.817-0.95,1.359-1.383c0.541-0.432,1.088-0.81,1.641-1.133c-1.146-0.75-1.972-1.505-2.477-2.266
		c-0.506-0.76-0.758-1.719-0.758-2.875c0-0.697,0.138-1.361,0.414-1.992c0.275-0.63,0.689-1.205,1.242-1.727
		c0.521-0.5,1.2-0.906,2.039-1.219c0.838-0.312,1.763-0.469,2.773-0.469c1.802,0,3.26,0.456,4.375,1.367
		c1.114,0.912,1.672,2.065,1.672,3.461c0,0.459-0.062,0.977-0.188,1.555s-0.339,1.097-0.641,1.555c-0.334,0.511-0.808,1-1.422,1.469
		c-0.615,0.469-1.412,0.87-2.391,1.203l5.797,5.656c0.146-0.416,0.255-0.875,0.328-1.375c0.072-0.5,0.114-1.021,0.125-1.562
		c0.021-0.583,0.028-1.234,0.023-1.953c-0.006-0.719-0.008-1.328-0.008-1.828H938.125z M933.422,551.025l-7.469-7.281
		c-0.323,0.156-0.646,0.362-0.969,0.617c-0.323,0.256-0.646,0.602-0.969,1.039c-0.292,0.406-0.531,0.896-0.719,1.469
		c-0.188,0.573-0.281,1.219-0.281,1.938c0,1.521,0.445,2.748,1.336,3.68c0.891,0.933,2.153,1.398,3.789,1.398
		c0.969,0,1.93-0.236,2.883-0.711C931.977,552.7,932.775,551.984,933.422,551.025z M930.391,537.338
		c0-0.989-0.295-1.768-0.883-2.336c-0.589-0.567-1.342-0.852-2.258-0.852c-0.959,0-1.74,0.32-2.344,0.961
		c-0.604,0.641-0.906,1.425-0.906,2.352c0,0.781,0.205,1.475,0.617,2.078c0.411,0.604,1.299,1.318,2.664,2.141
		c1.021-0.364,1.794-0.898,2.32-1.602C930.127,539.377,930.391,538.463,930.391,537.338z"/>
	<path d="M974.344,555.947h-4.016l-9.203-10.359l-2.312,2.469v7.891h-3.094v-23.266h3.094v12.141l11.297-12.141h3.75l-10.391,10.938
		L974.344,555.947z"/>
	<path d="M991.094,547.525h-12.859c0,1.073,0.161,2.008,0.484,2.805c0.322,0.797,0.766,1.451,1.328,1.961
		c0.541,0.5,1.185,0.875,1.93,1.125c0.744,0.25,1.564,0.375,2.461,0.375c1.188,0,2.383-0.236,3.586-0.711
		c1.203-0.474,2.06-0.939,2.57-1.398h0.156v3.203c-0.99,0.417-2,0.766-3.031,1.047s-2.115,0.422-3.25,0.422
		c-2.896,0-5.156-0.783-6.781-2.352c-1.625-1.567-2.438-3.794-2.438-6.68c0-2.854,0.778-5.119,2.336-6.797
		c1.557-1.677,3.606-2.516,6.148-2.516c2.354,0,4.169,0.688,5.445,2.062c1.275,1.375,1.914,3.328,1.914,5.859V547.525z
		 M988.234,545.275c-0.011-1.541-0.398-2.734-1.164-3.578s-1.93-1.266-3.492-1.266c-1.573,0-2.826,0.464-3.758,1.391
		c-0.933,0.928-1.461,2.078-1.586,3.453H988.234z"/>
	<path d="M1010.641,538.494l-10.188,23.891h-3.141l3.25-7.281l-6.953-16.609h3.188l5.359,12.938l5.406-12.938H1010.641z"/>
	<path d="M1029.844,547.088c0,1.459-0.206,2.771-0.617,3.938c-0.412,1.167-0.967,2.146-1.664,2.938
		c-0.74,0.823-1.553,1.44-2.438,1.852c-0.886,0.411-1.859,0.617-2.922,0.617c-0.99,0-1.854-0.117-2.594-0.352
		c-0.74-0.234-1.469-0.549-2.188-0.945l-0.188,0.812h-2.75v-24.312h2.938v8.688c0.822-0.677,1.697-1.231,2.625-1.664
		c0.927-0.432,1.969-0.648,3.125-0.648c2.062,0,3.689,0.792,4.883,2.375C1029.247,541.969,1029.844,544.203,1029.844,547.088z
		 M1026.812,547.166c0-2.083-0.344-3.664-1.031-4.742s-1.797-1.617-3.328-1.617c-0.854,0-1.719,0.186-2.594,0.555
		c-0.875,0.37-1.688,0.847-2.438,1.43v10c0.833,0.375,1.549,0.636,2.148,0.781c0.599,0.146,1.278,0.219,2.039,0.219
		c1.625,0,2.898-0.533,3.82-1.602C1026.352,551.122,1026.812,549.447,1026.812,547.166z"/>
	<path d="M1049.297,547.229c0,2.844-0.729,5.089-2.188,6.734c-1.459,1.646-3.412,2.469-5.859,2.469c-2.469,0-4.43-0.822-5.883-2.469
		c-1.453-1.646-2.18-3.891-2.18-6.734s0.727-5.091,2.18-6.742c1.453-1.65,3.414-2.477,5.883-2.477c2.447,0,4.4,0.826,5.859,2.477
		C1048.567,542.138,1049.297,544.385,1049.297,547.229z M1046.266,547.229c0-2.26-0.443-3.939-1.328-5.039
		c-0.886-1.099-2.115-1.648-3.688-1.648c-1.594,0-2.831,0.55-3.711,1.648c-0.881,1.1-1.32,2.779-1.32,5.039
		c0,2.188,0.442,3.847,1.328,4.977c0.885,1.131,2.119,1.695,3.703,1.695c1.562,0,2.789-0.56,3.68-1.68
		C1045.82,551.102,1046.266,549.438,1046.266,547.229z"/>
	<path d="M1067.406,555.947h-2.922v-1.859c-0.261,0.178-0.612,0.425-1.055,0.742c-0.443,0.318-0.873,0.57-1.289,0.758
		c-0.49,0.24-1.053,0.439-1.688,0.602c-0.636,0.161-1.381,0.242-2.234,0.242c-1.573,0-2.906-0.521-4-1.562
		c-1.094-1.041-1.641-2.369-1.641-3.984c0-1.322,0.283-2.393,0.852-3.211c0.567-0.817,1.377-1.461,2.43-1.93
		c1.062-0.469,2.338-0.786,3.828-0.953c1.489-0.166,3.088-0.291,4.797-0.375v-0.453c0-0.666-0.117-1.219-0.352-1.656
		s-0.57-0.781-1.008-1.031c-0.417-0.239-0.917-0.4-1.5-0.484c-0.584-0.083-1.193-0.125-1.828-0.125
		c-0.771,0-1.631,0.102-2.578,0.305c-0.948,0.203-1.928,0.498-2.938,0.883h-0.156v-2.984c0.572-0.156,1.4-0.328,2.484-0.516
		c1.083-0.188,2.15-0.281,3.203-0.281c1.229,0,2.299,0.102,3.211,0.305c0.911,0.203,1.7,0.55,2.367,1.039
		c0.656,0.479,1.156,1.1,1.5,1.859c0.344,0.761,0.516,1.703,0.516,2.828V555.947z M1064.484,551.65v-4.859
		c-0.896,0.053-1.951,0.131-3.164,0.234c-1.214,0.104-2.175,0.256-2.883,0.453c-0.844,0.24-1.526,0.612-2.047,1.117
		c-0.521,0.506-0.781,1.201-0.781,2.086c0,1,0.302,1.753,0.906,2.258c0.604,0.506,1.525,0.758,2.766,0.758
		c1.031,0,1.974-0.2,2.828-0.602C1062.963,552.695,1063.755,552.213,1064.484,551.65z"/>
	<path d="M1083.953,541.697h-0.156c-0.438-0.104-0.862-0.18-1.273-0.227c-0.412-0.047-0.898-0.07-1.461-0.07
		c-0.906,0-1.781,0.201-2.625,0.602c-0.844,0.401-1.656,0.92-2.438,1.555v12.391h-2.938v-17.453H1076v2.578
		c1.166-0.938,2.195-1.602,3.086-1.992s1.799-0.586,2.727-0.586c0.51,0,0.88,0.014,1.109,0.039c0.229,0.026,0.572,0.076,1.031,0.148
		V541.697z"/>
	<path d="M1100.875,555.947h-2.938v-1.828c-0.844,0.729-1.725,1.297-2.641,1.703c-0.917,0.406-1.912,0.609-2.984,0.609
		c-2.084,0-3.737-0.802-4.961-2.406c-1.225-1.604-1.836-3.828-1.836-6.672c0-1.479,0.211-2.797,0.633-3.953s0.992-2.141,1.711-2.953
		c0.708-0.791,1.533-1.396,2.477-1.812c0.942-0.416,1.919-0.625,2.93-0.625c0.916,0,1.729,0.097,2.438,0.289
		c0.708,0.193,1.453,0.492,2.234,0.898v-7.562h2.938V555.947z M1097.938,551.65v-10.016c-0.792-0.354-1.5-0.599-2.125-0.734
		c-0.625-0.135-1.308-0.203-2.047-0.203c-1.646,0-2.928,0.573-3.844,1.719c-0.917,1.146-1.375,2.771-1.375,4.875
		c0,2.073,0.354,3.648,1.062,4.727c0.708,1.078,1.844,1.617,3.406,1.617c0.833,0,1.677-0.185,2.531-0.555
		C1096.4,552.711,1097.197,552.234,1097.938,551.65z"/>
</g>
<g enable-background="new    ">
	<path d="M847.086,594.347h-2.938v-1.828c-0.844,0.729-1.725,1.297-2.641,1.703c-0.917,0.406-1.912,0.609-2.984,0.609
		c-2.084,0-3.737-0.802-4.961-2.406c-1.225-1.604-1.836-3.828-1.836-6.672c0-1.479,0.211-2.797,0.633-3.953s0.992-2.141,1.711-2.953
		c0.708-0.791,1.533-1.396,2.477-1.812c0.942-0.416,1.919-0.625,2.93-0.625c0.916,0,1.729,0.097,2.438,0.289
		c0.708,0.193,1.453,0.492,2.234,0.898v-7.562h2.938V594.347z M844.148,590.05v-10.016c-0.792-0.354-1.5-0.599-2.125-0.734
		c-0.625-0.135-1.308-0.203-2.047-0.203c-1.646,0-2.928,0.573-3.844,1.719c-0.917,1.146-1.375,2.771-1.375,4.875
		c0,2.073,0.354,3.648,1.062,4.727c0.708,1.078,1.844,1.617,3.406,1.617c0.833,0,1.677-0.185,2.531-0.555
		C842.611,591.11,843.408,590.634,844.148,590.05z"/>
	<path d="M856.023,573.972h-3.312v-3.047h3.312V573.972z M855.836,594.347h-2.938v-17.453h2.938V594.347z"/>
	<path d="M872.539,580.097h-0.156c-0.438-0.104-0.862-0.18-1.273-0.227c-0.412-0.047-0.898-0.07-1.461-0.07
		c-0.906,0-1.781,0.201-2.625,0.602c-0.844,0.401-1.656,0.92-2.438,1.555v12.391h-2.938v-17.453h2.938v2.578
		c1.166-0.938,2.195-1.602,3.086-1.992s1.799-0.586,2.727-0.586c0.51,0,0.88,0.014,1.109,0.039c0.229,0.026,0.572,0.076,1.031,0.148
		V580.097z"/>
	<path d="M889.914,585.925h-12.859c0,1.073,0.161,2.008,0.484,2.805c0.322,0.797,0.766,1.451,1.328,1.961
		c0.541,0.5,1.185,0.875,1.93,1.125c0.744,0.25,1.564,0.375,2.461,0.375c1.188,0,2.383-0.236,3.586-0.711
		c1.203-0.474,2.06-0.939,2.57-1.398h0.156v3.203c-0.99,0.417-2,0.766-3.031,1.047s-2.115,0.422-3.25,0.422
		c-2.896,0-5.156-0.783-6.781-2.352c-1.625-1.567-2.438-3.794-2.438-6.68c0-2.854,0.778-5.119,2.336-6.797
		c1.557-1.677,3.606-2.516,6.148-2.516c2.354,0,4.169,0.688,5.445,2.062c1.275,1.375,1.914,3.328,1.914,5.859V585.925z
		 M887.055,583.675c-0.011-1.541-0.398-2.734-1.164-3.578s-1.93-1.266-3.492-1.266c-1.573,0-2.826,0.464-3.758,1.391
		c-0.933,0.928-1.461,2.078-1.586,3.453H887.055z"/>
	<path d="M907.273,593.253c-0.979,0.469-1.909,0.834-2.789,1.094c-0.881,0.26-1.815,0.391-2.805,0.391
		c-1.261,0-2.417-0.186-3.469-0.555c-1.053-0.369-1.953-0.93-2.703-1.68c-0.761-0.75-1.35-1.697-1.766-2.844
		c-0.417-1.146-0.625-2.484-0.625-4.016c0-2.854,0.783-5.094,2.352-6.719c1.567-1.625,3.638-2.438,6.211-2.438
		c1,0,1.981,0.141,2.945,0.422c0.963,0.281,1.846,0.625,2.648,1.031v3.266h-0.156c-0.896-0.697-1.82-1.234-2.773-1.609
		s-1.883-0.562-2.789-0.562c-1.667,0-2.982,0.561-3.945,1.68c-0.964,1.12-1.445,2.764-1.445,4.93c0,2.104,0.471,3.722,1.414,4.852
		c0.942,1.131,2.268,1.695,3.977,1.695c0.594,0,1.197-0.078,1.812-0.234c0.614-0.156,1.166-0.359,1.656-0.609
		c0.427-0.219,0.828-0.45,1.203-0.695c0.375-0.244,0.672-0.455,0.891-0.633h0.156V593.253z"/>
	<path d="M920.102,594.19c-0.553,0.146-1.154,0.266-1.805,0.359c-0.651,0.094-1.232,0.141-1.742,0.141
		c-1.781,0-3.136-0.479-4.062-1.438c-0.928-0.958-1.391-2.494-1.391-4.609v-9.281h-1.984v-2.469h1.984v-5.016h2.938v5.016h6.062
		v2.469h-6.062v7.953c0,0.917,0.021,1.633,0.062,2.148c0.041,0.516,0.188,0.998,0.438,1.445c0.229,0.417,0.544,0.722,0.945,0.914
		c0.4,0.193,1.013,0.289,1.836,0.289c0.479,0,0.979-0.07,1.5-0.211c0.521-0.141,0.896-0.258,1.125-0.352h0.156V594.19z"/>
	<path d="M926.617,594.347h-2.938v-24.312h2.938V594.347z"/>
	<path d="M947.523,576.894l-10.188,23.891h-3.141l3.25-7.281l-6.953-16.609h3.188l5.359,12.938l5.406-12.938H947.523z"/>
	<path d="M975.523,593.253c-0.979,0.469-1.909,0.834-2.789,1.094c-0.881,0.26-1.815,0.391-2.805,0.391
		c-1.261,0-2.417-0.186-3.469-0.555c-1.053-0.369-1.953-0.93-2.703-1.68c-0.761-0.75-1.35-1.697-1.766-2.844
		c-0.417-1.146-0.625-2.484-0.625-4.016c0-2.854,0.783-5.094,2.352-6.719c1.567-1.625,3.638-2.438,6.211-2.438
		c1,0,1.981,0.141,2.945,0.422c0.963,0.281,1.846,0.625,2.648,1.031v3.266h-0.156c-0.896-0.697-1.82-1.234-2.773-1.609
		s-1.883-0.562-2.789-0.562c-1.667,0-2.982,0.561-3.945,1.68c-0.964,1.12-1.445,2.764-1.445,4.93c0,2.104,0.471,3.722,1.414,4.852
		c0.942,1.131,2.268,1.695,3.977,1.695c0.594,0,1.197-0.078,1.812-0.234c0.614-0.156,1.166-0.359,1.656-0.609
		c0.427-0.219,0.828-0.45,1.203-0.695c0.375-0.244,0.672-0.455,0.891-0.633h0.156V593.253z"/>
	<path d="M994.164,585.628c0,2.844-0.729,5.089-2.188,6.734c-1.459,1.646-3.412,2.469-5.859,2.469c-2.469,0-4.43-0.822-5.883-2.469
		c-1.453-1.646-2.18-3.891-2.18-6.734s0.727-5.091,2.18-6.742c1.453-1.65,3.414-2.477,5.883-2.477c2.447,0,4.4,0.826,5.859,2.477
		C993.435,580.537,994.164,582.784,994.164,585.628z M991.133,585.628c0-2.26-0.443-3.939-1.328-5.039
		c-0.886-1.099-2.115-1.648-3.688-1.648c-1.594,0-2.831,0.55-3.711,1.648c-0.881,1.1-1.32,2.779-1.32,5.039
		c0,2.188,0.442,3.847,1.328,4.977c0.885,1.131,2.119,1.695,3.703,1.695c1.562,0,2.789-0.56,3.68-1.68
		C990.688,589.501,991.133,587.837,991.133,585.628z"/>
	<path d="M1013.305,594.347h-2.938v-9.938c0-0.802-0.047-1.555-0.141-2.258s-0.266-1.252-0.516-1.648
		c-0.261-0.438-0.636-0.763-1.125-0.977c-0.49-0.213-1.125-0.32-1.906-0.32c-0.803,0-1.641,0.198-2.516,0.594
		c-0.875,0.396-1.714,0.901-2.516,1.516v13.031h-2.938v-17.453h2.938v1.938c0.916-0.76,1.864-1.354,2.844-1.781
		c0.979-0.427,1.984-0.641,3.016-0.641c1.885,0,3.322,0.568,4.312,1.703c0.989,1.136,1.484,2.771,1.484,4.906V594.347z"/>
	<path d="M1028.023,594.19c-0.553,0.146-1.154,0.266-1.805,0.359c-0.651,0.094-1.232,0.141-1.742,0.141
		c-1.781,0-3.136-0.479-4.062-1.438c-0.928-0.958-1.391-2.494-1.391-4.609v-9.281h-1.984v-2.469h1.984v-5.016h2.938v5.016h6.062
		v2.469h-6.062v7.953c0,0.917,0.021,1.633,0.062,2.148c0.041,0.516,0.188,0.998,0.438,1.445c0.229,0.417,0.544,0.722,0.945,0.914
		c0.4,0.193,1.013,0.289,1.836,0.289c0.479,0,0.979-0.07,1.5-0.211c0.521-0.141,0.896-0.258,1.125-0.352h0.156V594.19z"/>
	<path d="M1042.461,580.097h-0.156c-0.438-0.104-0.862-0.18-1.273-0.227c-0.412-0.047-0.898-0.07-1.461-0.07
		c-0.906,0-1.781,0.201-2.625,0.602c-0.844,0.401-1.656,0.92-2.438,1.555v12.391h-2.938v-17.453h2.938v2.578
		c1.166-0.938,2.195-1.602,3.086-1.992s1.799-0.586,2.727-0.586c0.51,0,0.88,0.014,1.109,0.039c0.229,0.026,0.572,0.076,1.031,0.148
		V580.097z"/>
	<path d="M1060.102,585.628c0,2.844-0.729,5.089-2.188,6.734c-1.459,1.646-3.412,2.469-5.859,2.469c-2.469,0-4.43-0.822-5.883-2.469
		c-1.453-1.646-2.18-3.891-2.18-6.734s0.727-5.091,2.18-6.742c1.453-1.65,3.414-2.477,5.883-2.477c2.447,0,4.4,0.826,5.859,2.477
		C1059.372,580.537,1060.102,582.784,1060.102,585.628z M1057.07,585.628c0-2.26-0.443-3.939-1.328-5.039
		c-0.886-1.099-2.115-1.648-3.688-1.648c-1.594,0-2.831,0.55-3.711,1.648c-0.881,1.1-1.32,2.779-1.32,5.039
		c0,2.188,0.442,3.847,1.328,4.977c0.885,1.131,2.119,1.695,3.703,1.695c1.562,0,2.789-0.56,3.68-1.68
		C1056.625,589.501,1057.07,587.837,1057.07,585.628z"/>
	<path d="M1067.617,594.347h-2.938v-24.312h2.938V594.347z"/>
</g>
<g enable-background="new    ">
	<path d="M875.938,632.747h-2.922v-1.859c-0.261,0.178-0.612,0.425-1.055,0.742c-0.443,0.318-0.873,0.57-1.289,0.758
		c-0.49,0.24-1.053,0.439-1.688,0.602c-0.636,0.161-1.381,0.242-2.234,0.242c-1.573,0-2.906-0.521-4-1.562
		c-1.094-1.041-1.641-2.369-1.641-3.984c0-1.322,0.283-2.393,0.852-3.211c0.567-0.817,1.377-1.461,2.43-1.93
		c1.062-0.469,2.338-0.786,3.828-0.953c1.489-0.166,3.088-0.291,4.797-0.375v-0.453c0-0.666-0.117-1.219-0.352-1.656
		s-0.57-0.781-1.008-1.031c-0.417-0.239-0.917-0.4-1.5-0.484c-0.584-0.083-1.193-0.125-1.828-0.125
		c-0.771,0-1.631,0.102-2.578,0.305c-0.948,0.203-1.928,0.498-2.938,0.883h-0.156v-2.984c0.572-0.156,1.4-0.328,2.484-0.516
		c1.083-0.188,2.15-0.281,3.203-0.281c1.229,0,2.299,0.102,3.211,0.305c0.911,0.203,1.7,0.55,2.367,1.039
		c0.656,0.479,1.156,1.1,1.5,1.859c0.344,0.761,0.516,1.703,0.516,2.828V632.747z M873.016,628.45v-4.859
		c-0.896,0.053-1.951,0.131-3.164,0.234c-1.214,0.104-2.175,0.256-2.883,0.453c-0.844,0.24-1.526,0.612-2.047,1.117
		c-0.521,0.506-0.781,1.201-0.781,2.086c0,1,0.302,1.753,0.906,2.258c0.604,0.506,1.525,0.758,2.766,0.758
		c1.031,0,1.974-0.2,2.828-0.602C871.494,629.495,872.286,629.013,873.016,628.45z"/>
	<path d="M896.953,623.81c0,1.417-0.203,2.711-0.609,3.883s-0.979,2.164-1.719,2.977c-0.688,0.771-1.498,1.367-2.43,1.789
		c-0.933,0.422-1.92,0.633-2.961,0.633c-0.906,0-1.727-0.1-2.461-0.297s-1.482-0.505-2.242-0.922v7.312h-2.938v-23.891h2.938v1.828
		c0.781-0.656,1.658-1.205,2.633-1.648c0.974-0.442,2.013-0.664,3.117-0.664c2.104,0,3.742,0.795,4.914,2.383
		C896.367,618.781,896.953,620.987,896.953,623.81z M893.922,623.888c0-2.104-0.359-3.677-1.078-4.719
		c-0.719-1.041-1.823-1.562-3.312-1.562c-0.844,0-1.693,0.183-2.547,0.547c-0.854,0.365-1.672,0.844-2.453,1.438v9.891
		c0.833,0.375,1.549,0.631,2.148,0.766c0.599,0.136,1.278,0.203,2.039,0.203c1.635,0,2.911-0.552,3.828-1.656
		C893.463,627.69,893.922,626.055,893.922,623.888z"/>
	<path d="M916.891,623.81c0,1.417-0.203,2.711-0.609,3.883s-0.979,2.164-1.719,2.977c-0.688,0.771-1.498,1.367-2.43,1.789
		c-0.933,0.422-1.92,0.633-2.961,0.633c-0.906,0-1.727-0.1-2.461-0.297s-1.482-0.505-2.242-0.922v7.312h-2.938v-23.891h2.938v1.828
		c0.781-0.656,1.658-1.205,2.633-1.648c0.974-0.442,2.013-0.664,3.117-0.664c2.104,0,3.742,0.795,4.914,2.383
		C916.305,618.781,916.891,620.987,916.891,623.81z M913.859,623.888c0-2.104-0.359-3.677-1.078-4.719
		c-0.719-1.041-1.823-1.562-3.312-1.562c-0.844,0-1.693,0.183-2.547,0.547c-0.854,0.365-1.672,0.844-2.453,1.438v9.891
		c0.833,0.375,1.549,0.631,2.148,0.766c0.599,0.136,1.278,0.203,2.039,0.203c1.635,0,2.911-0.552,3.828-1.656
		C913.4,627.69,913.859,626.055,913.859,623.888z"/>
	<path d="M924.438,632.747H921.5v-24.312h2.938V632.747z"/>
	<path d="M933.406,612.372h-3.312v-3.047h3.312V612.372z M933.219,632.747h-2.938v-17.453h2.938V632.747z"/>
	<path d="M951.938,631.653c-0.979,0.469-1.909,0.834-2.789,1.094c-0.881,0.26-1.815,0.391-2.805,0.391
		c-1.261,0-2.417-0.186-3.469-0.555c-1.053-0.369-1.953-0.93-2.703-1.68c-0.761-0.75-1.35-1.697-1.766-2.844
		c-0.417-1.146-0.625-2.484-0.625-4.016c0-2.854,0.783-5.094,2.352-6.719c1.567-1.625,3.638-2.438,6.211-2.438
		c1,0,1.981,0.141,2.945,0.422c0.963,0.281,1.846,0.625,2.648,1.031v3.266h-0.156c-0.896-0.697-1.82-1.234-2.773-1.609
		s-1.883-0.562-2.789-0.562c-1.667,0-2.982,0.561-3.945,1.68c-0.964,1.12-1.445,2.764-1.445,4.93c0,2.104,0.471,3.722,1.414,4.852
		c0.942,1.131,2.268,1.695,3.977,1.695c0.594,0,1.197-0.078,1.812-0.234c0.614-0.156,1.166-0.359,1.656-0.609
		c0.427-0.219,0.828-0.45,1.203-0.695c0.375-0.244,0.672-0.455,0.891-0.633h0.156V631.653z"/>
	<path d="M969.266,632.747h-2.922v-1.859c-0.261,0.178-0.612,0.425-1.055,0.742c-0.443,0.318-0.873,0.57-1.289,0.758
		c-0.49,0.24-1.053,0.439-1.688,0.602c-0.636,0.161-1.381,0.242-2.234,0.242c-1.573,0-2.906-0.521-4-1.562
		c-1.094-1.041-1.641-2.369-1.641-3.984c0-1.322,0.283-2.393,0.852-3.211c0.567-0.817,1.377-1.461,2.43-1.93
		c1.062-0.469,2.338-0.786,3.828-0.953c1.489-0.166,3.088-0.291,4.797-0.375v-0.453c0-0.666-0.117-1.219-0.352-1.656
		s-0.57-0.781-1.008-1.031c-0.417-0.239-0.917-0.4-1.5-0.484c-0.584-0.083-1.193-0.125-1.828-0.125
		c-0.771,0-1.631,0.102-2.578,0.305c-0.948,0.203-1.928,0.498-2.938,0.883h-0.156v-2.984c0.572-0.156,1.4-0.328,2.484-0.516
		c1.083-0.188,2.15-0.281,3.203-0.281c1.229,0,2.299,0.102,3.211,0.305c0.911,0.203,1.7,0.55,2.367,1.039
		c0.656,0.479,1.156,1.1,1.5,1.859c0.344,0.761,0.516,1.703,0.516,2.828V632.747z M966.344,628.45v-4.859
		c-0.896,0.053-1.951,0.131-3.164,0.234c-1.214,0.104-2.175,0.256-2.883,0.453c-0.844,0.24-1.526,0.612-2.047,1.117
		c-0.521,0.506-0.781,1.201-0.781,2.086c0,1,0.302,1.753,0.906,2.258c0.604,0.506,1.525,0.758,2.766,0.758
		c1.031,0,1.974-0.2,2.828-0.602C964.822,629.495,965.614,629.013,966.344,628.45z"/>
	<path d="M983.984,632.591c-0.553,0.146-1.154,0.266-1.805,0.359c-0.651,0.094-1.232,0.141-1.742,0.141
		c-1.781,0-3.136-0.479-4.062-1.438c-0.928-0.958-1.391-2.494-1.391-4.609v-9.281H973v-2.469h1.984v-5.016h2.938v5.016h6.062v2.469
		h-6.062v7.953c0,0.917,0.021,1.633,0.062,2.148c0.041,0.516,0.188,0.998,0.438,1.445c0.229,0.417,0.544,0.722,0.945,0.914
		c0.4,0.193,1.013,0.289,1.836,0.289c0.479,0,0.979-0.07,1.5-0.211c0.521-0.141,0.896-0.258,1.125-0.352h0.156V632.591z"/>
	<path d="M990.688,612.372h-3.312v-3.047h3.312V612.372z M990.5,632.747h-2.938v-17.453h2.938V632.747z"/>
	<path d="M1011.188,624.028c0,2.844-0.729,5.089-2.188,6.734c-1.459,1.646-3.412,2.469-5.859,2.469c-2.469,0-4.43-0.822-5.883-2.469
		c-1.453-1.646-2.18-3.891-2.18-6.734s0.727-5.091,2.18-6.742c1.453-1.65,3.414-2.477,5.883-2.477c2.447,0,4.4,0.826,5.859,2.477
		C1010.458,618.938,1011.188,621.185,1011.188,624.028z M1008.156,624.028c0-2.26-0.443-3.939-1.328-5.039
		c-0.886-1.099-2.115-1.648-3.688-1.648c-1.594,0-2.831,0.55-3.711,1.648c-0.881,1.1-1.32,2.779-1.32,5.039
		c0,2.188,0.442,3.847,1.328,4.977c0.885,1.131,2.119,1.695,3.703,1.695c1.562,0,2.789-0.56,3.68-1.68
		C1007.711,627.901,1008.156,626.237,1008.156,624.028z"/>
	<path d="M1030.328,632.747h-2.938v-9.938c0-0.802-0.047-1.555-0.141-2.258s-0.266-1.252-0.516-1.648
		c-0.261-0.438-0.636-0.763-1.125-0.977c-0.49-0.213-1.125-0.32-1.906-0.32c-0.803,0-1.641,0.198-2.516,0.594
		c-0.875,0.396-1.714,0.901-2.516,1.516v13.031h-2.938v-17.453h2.938v1.938c0.916-0.76,1.864-1.354,2.844-1.781
		c0.979-0.427,1.984-0.641,3.016-0.641c1.885,0,3.322,0.568,4.312,1.703c0.989,1.136,1.484,2.771,1.484,4.906V632.747z"/>
	<path d="M1048.453,627.716c0,1.594-0.659,2.901-1.977,3.922c-1.318,1.021-3.117,1.531-5.398,1.531
		c-1.292,0-2.477-0.154-3.555-0.461s-1.982-0.643-2.711-1.008v-3.297h0.156c0.927,0.698,1.958,1.253,3.094,1.664
		c1.135,0.412,2.224,0.617,3.266,0.617c1.291,0,2.302-0.208,3.031-0.625c0.729-0.416,1.094-1.072,1.094-1.969
		c0-0.688-0.198-1.208-0.594-1.562c-0.396-0.354-1.156-0.656-2.281-0.906c-0.417-0.094-0.961-0.203-1.633-0.328
		s-1.284-0.26-1.836-0.406c-1.531-0.406-2.617-1.002-3.258-1.789c-0.641-0.786-0.961-1.752-0.961-2.898
		c0-0.719,0.148-1.396,0.445-2.031c0.297-0.635,0.747-1.203,1.352-1.703c0.583-0.489,1.325-0.877,2.227-1.164
		c0.9-0.286,1.908-0.43,3.023-0.43c1.041,0,2.096,0.128,3.164,0.383c1.067,0.256,1.955,0.565,2.664,0.93v3.141h-0.156
		c-0.75-0.552-1.662-1.018-2.734-1.398c-1.073-0.38-2.125-0.57-3.156-0.57c-1.073,0-1.979,0.206-2.719,0.617
		c-0.74,0.412-1.109,1.023-1.109,1.836c0,0.719,0.224,1.261,0.672,1.625c0.438,0.365,1.146,0.662,2.125,0.891
		c0.541,0.125,1.148,0.25,1.82,0.375s1.231,0.24,1.68,0.344c1.364,0.312,2.416,0.85,3.156,1.609
		C1048.083,625.425,1048.453,626.445,1048.453,627.716z"/>
</g>
<rect x="168.625" y="377.627" fill="none" width="267" height="69"/>
<g enable-background="new    ">
	<path d="M213.938,401.947h-3.094V381.9l-6.469,13.641h-1.844l-6.422-13.641v20.047h-2.891v-23.266h4.219l6.203,12.953l6-12.953
		h4.297V401.947z"/>
	<path d="M234.828,393.229c0,2.844-0.729,5.089-2.188,6.734c-1.458,1.646-3.412,2.469-5.859,2.469c-2.469,0-4.43-0.822-5.883-2.469
		c-1.453-1.646-2.18-3.891-2.18-6.734s0.727-5.091,2.18-6.742c1.453-1.65,3.414-2.477,5.883-2.477c2.448,0,4.401,0.826,5.859,2.477
		C234.099,388.138,234.828,390.385,234.828,393.229z M231.797,393.229c0-2.26-0.443-3.939-1.328-5.039
		c-0.886-1.099-2.115-1.648-3.688-1.648c-1.594,0-2.831,0.55-3.711,1.648c-0.88,1.1-1.32,2.779-1.32,5.039
		c0,2.188,0.442,3.847,1.328,4.977c0.885,1.131,2.12,1.695,3.703,1.695c1.562,0,2.789-0.56,3.68-1.68
		C231.352,397.102,231.797,395.438,231.797,393.229z"/>
	<path d="M254.234,384.494l-7.062,17.453h-2.953l-7.016-17.453h3.188l5.406,13.891l5.359-13.891H254.234z"/>
	<path d="M272.406,393.525h-12.859c0,1.073,0.161,2.008,0.484,2.805c0.323,0.797,0.766,1.451,1.328,1.961
		c0.542,0.5,1.185,0.875,1.93,1.125c0.745,0.25,1.565,0.375,2.461,0.375c1.188,0,2.383-0.236,3.586-0.711
		c1.203-0.474,2.06-0.939,2.57-1.398h0.156v3.203c-0.99,0.417-2,0.766-3.031,1.047s-2.115,0.422-3.25,0.422
		c-2.896,0-5.156-0.783-6.781-2.352c-1.625-1.567-2.438-3.794-2.438-6.68c0-2.854,0.778-5.119,2.336-6.797
		c1.557-1.677,3.606-2.516,6.148-2.516c2.354,0,4.169,0.688,5.445,2.062c1.276,1.375,1.914,3.328,1.914,5.859V393.525z
		 M269.547,391.275c-0.011-1.541-0.398-2.734-1.164-3.578s-1.93-1.266-3.492-1.266c-1.573,0-2.826,0.464-3.758,1.391
		c-0.933,0.928-1.461,2.078-1.586,3.453H269.547z"/>
	<path d="M298.656,377.635l-11.203,29.062h-2.703l11.156-29.062H298.656z"/>
	<path d="M333.375,401.947h-4.016l-7.781-9.25h-4.359v9.25h-3.094v-23.266h6.516c1.406,0,2.578,0.092,3.516,0.273
		c0.938,0.183,1.781,0.508,2.531,0.977c0.844,0.531,1.502,1.201,1.977,2.008c0.474,0.808,0.711,1.831,0.711,3.07
		c0,1.678-0.422,3.081-1.266,4.211c-0.844,1.131-2.005,1.982-3.484,2.555L333.375,401.947z M326.141,385.229
		c0-0.666-0.117-1.258-0.352-1.773s-0.623-0.95-1.164-1.305c-0.448-0.302-0.979-0.513-1.594-0.633
		c-0.615-0.119-1.339-0.18-2.172-0.18h-3.641v8.781h3.125c0.979,0,1.833-0.086,2.562-0.258c0.729-0.172,1.349-0.492,1.859-0.961
		c0.469-0.438,0.815-0.939,1.039-1.508C326.028,386.825,326.141,386.104,326.141,385.229z"/>
	<path d="M349.969,393.525h-12.859c0,1.073,0.161,2.008,0.484,2.805c0.323,0.797,0.766,1.451,1.328,1.961
		c0.542,0.5,1.185,0.875,1.93,1.125c0.745,0.25,1.565,0.375,2.461,0.375c1.188,0,2.383-0.236,3.586-0.711
		c1.203-0.474,2.06-0.939,2.57-1.398h0.156v3.203c-0.99,0.417-2,0.766-3.031,1.047s-2.115,0.422-3.25,0.422
		c-2.896,0-5.156-0.783-6.781-2.352c-1.625-1.567-2.438-3.794-2.438-6.68c0-2.854,0.778-5.119,2.336-6.797
		c1.557-1.677,3.606-2.516,6.148-2.516c2.354,0,4.169,0.688,5.445,2.062c1.276,1.375,1.914,3.328,1.914,5.859V393.525z
		 M347.109,391.275c-0.011-1.541-0.398-2.734-1.164-3.578s-1.93-1.266-3.492-1.266c-1.573,0-2.826,0.464-3.758,1.391
		c-0.933,0.928-1.461,2.078-1.586,3.453H347.109z"/>
	<path d="M366.891,396.916c0,1.594-0.659,2.901-1.977,3.922c-1.318,1.021-3.117,1.531-5.398,1.531c-1.292,0-2.477-0.154-3.555-0.461
		s-1.982-0.643-2.711-1.008v-3.297h0.156c0.927,0.698,1.958,1.253,3.094,1.664c1.135,0.412,2.224,0.617,3.266,0.617
		c1.292,0,2.302-0.208,3.031-0.625c0.729-0.416,1.094-1.072,1.094-1.969c0-0.688-0.198-1.208-0.594-1.562
		c-0.396-0.354-1.156-0.656-2.281-0.906c-0.417-0.094-0.961-0.203-1.633-0.328s-1.284-0.26-1.836-0.406
		c-1.531-0.406-2.617-1.002-3.258-1.789c-0.641-0.786-0.961-1.752-0.961-2.898c0-0.719,0.148-1.396,0.445-2.031
		c0.297-0.635,0.747-1.203,1.352-1.703c0.583-0.489,1.325-0.877,2.227-1.164c0.901-0.286,1.909-0.43,3.023-0.43
		c1.042,0,2.096,0.128,3.164,0.383c1.067,0.256,1.956,0.565,2.664,0.93v3.141h-0.156c-0.75-0.552-1.662-1.018-2.734-1.398
		c-1.073-0.38-2.125-0.57-3.156-0.57c-1.073,0-1.979,0.206-2.719,0.617c-0.74,0.412-1.109,1.023-1.109,1.836
		c0,0.719,0.224,1.261,0.672,1.625c0.438,0.365,1.146,0.662,2.125,0.891c0.542,0.125,1.148,0.25,1.82,0.375s1.231,0.24,1.68,0.344
		c1.364,0.312,2.417,0.85,3.156,1.609C366.521,394.625,366.891,395.646,366.891,396.916z"/>
	<path d="M374.25,381.572h-3.312v-3.047h3.312V381.572z M374.062,401.947h-2.938v-17.453h2.938V401.947z"/>
	<path d="M392.531,401.947h-14.094v-2.172l10.172-12.828h-9.953v-2.453h13.609v2.094l-10.219,12.875h10.484V401.947z"/>
	<path d="M411.109,393.525H398.25c0,1.073,0.161,2.008,0.484,2.805c0.323,0.797,0.766,1.451,1.328,1.961
		c0.542,0.5,1.185,0.875,1.93,1.125c0.745,0.25,1.565,0.375,2.461,0.375c1.188,0,2.383-0.236,3.586-0.711
		c1.203-0.474,2.06-0.939,2.57-1.398h0.156v3.203c-0.99,0.417-2,0.766-3.031,1.047s-2.115,0.422-3.25,0.422
		c-2.896,0-5.156-0.783-6.781-2.352c-1.625-1.567-2.438-3.794-2.438-6.68c0-2.854,0.778-5.119,2.336-6.797
		c1.557-1.677,3.606-2.516,6.148-2.516c2.354,0,4.169,0.688,5.445,2.062c1.276,1.375,1.914,3.328,1.914,5.859V393.525z
		 M408.25,391.275c-0.011-1.541-0.398-2.734-1.164-3.578s-1.93-1.266-3.492-1.266c-1.573,0-2.826,0.464-3.758,1.391
		c-0.933,0.928-1.461,2.078-1.586,3.453H408.25z"/>
</g>
<g enable-background="new    ">
	<path d="M260.883,417.081l-6.047,23.266h-3.484l-4.891-19.312l-4.781,19.312h-3.406l-6.156-23.266h3.172l4.891,19.344l4.812-19.344
		h3.141l4.859,19.531l4.859-19.531H260.883z"/>
	<path d="M268.367,419.972h-3.312v-3.047h3.312V419.972z M268.18,440.347h-2.938v-17.453h2.938V440.347z"/>
	<path d="M288.586,440.347h-2.938v-9.938c0-0.802-0.047-1.555-0.141-2.258s-0.266-1.252-0.516-1.648
		c-0.261-0.438-0.636-0.763-1.125-0.977c-0.49-0.213-1.125-0.32-1.906-0.32c-0.802,0-1.641,0.198-2.516,0.594
		c-0.875,0.396-1.714,0.901-2.516,1.516v13.031h-2.938v-17.453h2.938v1.938c0.917-0.76,1.864-1.354,2.844-1.781
		c0.979-0.427,1.984-0.641,3.016-0.641c1.885,0,3.323,0.568,4.312,1.703c0.989,1.136,1.484,2.771,1.484,4.906V440.347z"/>
	<path d="M308.398,440.347h-2.938v-1.828c-0.844,0.729-1.724,1.297-2.641,1.703c-0.917,0.406-1.912,0.609-2.984,0.609
		c-2.083,0-3.737-0.802-4.961-2.406c-1.224-1.604-1.836-3.828-1.836-6.672c0-1.479,0.211-2.797,0.633-3.953s0.992-2.141,1.711-2.953
		c0.708-0.791,1.534-1.396,2.477-1.812c0.942-0.416,1.919-0.625,2.93-0.625c0.917,0,1.729,0.097,2.438,0.289
		c0.708,0.193,1.453,0.492,2.234,0.898v-7.562h2.938V440.347z M305.461,436.05v-10.016c-0.792-0.354-1.5-0.599-2.125-0.734
		c-0.625-0.135-1.308-0.203-2.047-0.203c-1.646,0-2.927,0.573-3.844,1.719c-0.917,1.146-1.375,2.771-1.375,4.875
		c0,2.073,0.354,3.648,1.062,4.727c0.708,1.078,1.844,1.617,3.406,1.617c0.833,0,1.677-0.185,2.531-0.555
		C303.924,437.11,304.721,436.634,305.461,436.05z"/>
	<path d="M329.055,431.628c0,2.844-0.729,5.089-2.188,6.734c-1.458,1.646-3.412,2.469-5.859,2.469c-2.469,0-4.43-0.822-5.883-2.469
		c-1.453-1.646-2.18-3.891-2.18-6.734s0.727-5.091,2.18-6.742c1.453-1.65,3.414-2.477,5.883-2.477c2.448,0,4.401,0.826,5.859,2.477
		C328.325,426.537,329.055,428.784,329.055,431.628z M326.023,431.628c0-2.26-0.443-3.939-1.328-5.039
		c-0.886-1.099-2.115-1.648-3.688-1.648c-1.594,0-2.831,0.55-3.711,1.648c-0.88,1.1-1.32,2.779-1.32,5.039
		c0,2.188,0.442,3.847,1.328,4.977c0.885,1.131,2.12,1.695,3.703,1.695c1.562,0,2.789-0.56,3.68-1.68
		C325.578,435.501,326.023,433.837,326.023,431.628z"/>
	<path d="M355.555,422.894l-4.547,17.453h-2.719l-4.484-13.453l-4.453,13.453h-2.703l-4.594-17.453h3.062l3.203,13.516l4.359-13.516
		h2.422l4.469,13.516l3.031-13.516H355.555z"/>
	<path d="M372.258,435.315c0,1.594-0.659,2.901-1.977,3.922c-1.318,1.021-3.117,1.531-5.398,1.531c-1.292,0-2.477-0.154-3.555-0.461
		s-1.982-0.643-2.711-1.008v-3.297h0.156c0.927,0.698,1.958,1.253,3.094,1.664c1.135,0.412,2.224,0.617,3.266,0.617
		c1.292,0,2.302-0.208,3.031-0.625c0.729-0.416,1.094-1.072,1.094-1.969c0-0.688-0.198-1.208-0.594-1.562
		c-0.396-0.354-1.156-0.656-2.281-0.906c-0.417-0.094-0.961-0.203-1.633-0.328s-1.284-0.26-1.836-0.406
		c-1.531-0.406-2.617-1.002-3.258-1.789c-0.641-0.786-0.961-1.752-0.961-2.898c0-0.719,0.148-1.396,0.445-2.031
		c0.297-0.635,0.747-1.203,1.352-1.703c0.583-0.489,1.325-0.877,2.227-1.164c0.901-0.286,1.909-0.43,3.023-0.43
		c1.042,0,2.096,0.128,3.164,0.383c1.067,0.256,1.956,0.565,2.664,0.93v3.141h-0.156c-0.75-0.552-1.662-1.018-2.734-1.398
		c-1.073-0.38-2.125-0.57-3.156-0.57c-1.073,0-1.979,0.206-2.719,0.617c-0.74,0.412-1.109,1.023-1.109,1.836
		c0,0.719,0.224,1.261,0.672,1.625c0.438,0.365,1.146,0.662,2.125,0.891c0.542,0.125,1.148,0.25,1.82,0.375s1.231,0.24,1.68,0.344
		c1.364,0.312,2.417,0.85,3.156,1.609C371.888,433.024,372.258,434.045,372.258,435.315z"/>
</g>
<rect x="421.2" y="153.793" fill="none" width="448.814" height="131.694"/>
<g enable-background="new    ">
	<path d="M535.241,180.312c0,1.359-0.316,2.703-0.949,4.031s-1.52,2.453-2.66,3.375c-1.25,1-2.707,1.781-4.371,2.344
		s-3.668,0.844-6.012,0.844c-2.516,0-4.777-0.234-6.785-0.703s-4.051-1.164-6.129-2.086v-5.812h0.328
		c1.766,1.469,3.805,2.602,6.117,3.398s4.484,1.195,6.516,1.195c2.875,0,5.113-0.539,6.715-1.617s2.402-2.516,2.402-4.312
		c0-1.547-0.379-2.688-1.137-3.422s-1.91-1.305-3.457-1.711c-1.172-0.312-2.441-0.57-3.809-0.773s-2.816-0.461-4.348-0.773
		c-3.094-0.656-5.387-1.777-6.879-3.363s-2.238-3.652-2.238-6.199c0-2.922,1.234-5.316,3.703-7.184s5.602-2.801,9.398-2.801
		c2.453,0,4.703,0.234,6.75,0.703s3.859,1.047,5.438,1.734v5.484h-0.328c-1.328-1.125-3.074-2.059-5.238-2.801
		s-4.379-1.113-6.645-1.113c-2.484,0-4.48,0.516-5.988,1.547s-2.262,2.359-2.262,3.984c0,1.453,0.375,2.594,1.125,3.422
		s2.07,1.461,3.961,1.898c1,0.219,2.422,0.484,4.266,0.797s3.406,0.633,4.688,0.961c2.594,0.688,4.547,1.727,5.859,3.117
		S535.241,177.812,535.241,180.312z"/>
	<path d="M569.39,190.272h-4.641v-17.086h-17.414v17.086h-4.641v-34.898h4.641v13.688h17.414v-13.688h4.641V190.272z"/>
	<path d="M591.069,190.272h-13.781v-3.562h4.57v-27.773h-4.57v-3.562h13.781v3.562h-4.57v27.773h4.57V190.272z"/>
	<path d="M621.257,159.499h-17.648v9.844h15.164v4.125h-15.164v16.805h-4.641v-34.898h22.289V159.499z"/>
	<path d="M652.147,159.499h-12.469v30.773h-4.641v-30.773h-12.469v-4.125h29.578V159.499z"/>
	<path d="M686.507,176.866h-12.773v12.773h-3.891v-12.773h-12.773v-3.75h12.773v-12.773h3.891v12.773h12.773V176.866z"/>
	<path d="M721.007,159.499h-12.469v30.773h-4.641v-30.773h-12.469v-4.125h29.578V159.499z"/>
	<path d="M750.397,190.272h-4.945l-3.422-9.727h-15.094l-3.422,9.727h-4.711l12.703-34.898h6.188L750.397,190.272z M740.601,176.562
		l-6.117-17.133l-6.141,17.133H740.601z"/>
	<path d="M782.015,179.538c0,1.734-0.328,3.266-0.984,4.594s-1.539,2.422-2.648,3.281c-1.312,1.031-2.754,1.766-4.324,2.203
		s-3.566,0.656-5.988,0.656h-12.375v-34.898h10.336c2.547,0,4.453,0.094,5.719,0.281s2.477,0.578,3.633,1.172
		c1.281,0.672,2.211,1.535,2.789,2.59s0.867,2.316,0.867,3.785c0,1.656-0.422,3.066-1.266,4.23s-1.969,2.098-3.375,2.801v0.188
		c2.359,0.484,4.219,1.52,5.578,3.105S782.015,177.116,782.015,179.538z M774.21,163.812c0-0.844-0.141-1.555-0.422-2.133
		s-0.734-1.047-1.359-1.406c-0.734-0.422-1.625-0.684-2.672-0.785s-2.344-0.152-3.891-0.152h-5.531v10.078h6
		c1.453,0,2.609-0.074,3.469-0.223s1.656-0.457,2.391-0.926s1.254-1.074,1.559-1.816S774.21,164.827,774.21,163.812z
		 M777.187,179.726c0-1.406-0.211-2.523-0.633-3.352s-1.188-1.531-2.297-2.109c-0.75-0.391-1.66-0.645-2.73-0.762
		s-2.371-0.176-3.902-0.176h-7.289v12.984h6.141c2.031,0,3.695-0.105,4.992-0.316s2.359-0.598,3.188-1.16
		c0.875-0.609,1.516-1.305,1.922-2.086S777.187,180.96,777.187,179.726z"/>
</g>
<g enable-background="new    ">
	<path d="M467.097,247.639c-0.828,0.219-1.73,0.398-2.707,0.539s-1.848,0.211-2.613,0.211c-2.672,0-4.703-0.719-6.094-2.156
		s-2.086-3.742-2.086-6.914v-13.922h-2.977v-3.703h2.977v-7.523h4.406v7.523h9.094v3.703h-9.094v11.93
		c0,1.375,0.031,2.449,0.094,3.223s0.281,1.496,0.656,2.168c0.344,0.625,0.816,1.082,1.418,1.371s1.52,0.434,2.754,0.434
		c0.719,0,1.469-0.105,2.25-0.316s1.344-0.387,1.688-0.527h0.234V247.639z"/>
	<path d="M494.73,234.795c0,4.266-1.094,7.633-3.281,10.102s-5.117,3.703-8.789,3.703c-3.703,0-6.645-1.234-8.824-3.703
		s-3.27-5.836-3.27-10.102s1.09-7.637,3.27-10.113s5.121-3.715,8.824-3.715c3.672,0,6.602,1.238,8.789,3.715
		S494.73,230.529,494.73,234.795z M490.183,234.795c0-3.391-0.664-5.91-1.992-7.559s-3.172-2.473-5.531-2.473
		c-2.391,0-4.246,0.824-5.566,2.473s-1.98,4.168-1.98,7.559c0,3.281,0.664,5.77,1.992,7.465s3.18,2.543,5.555,2.543
		c2.344,0,4.184-0.84,5.52-2.52S490.183,238.107,490.183,234.795z"/>
	<path d="M537.128,240.326c0,2.391-0.988,4.352-2.965,5.883s-4.676,2.297-8.098,2.297c-1.938,0-3.715-0.23-5.332-0.691
		s-2.973-0.965-4.066-1.512v-4.945h0.234c1.391,1.047,2.938,1.879,4.641,2.496s3.336,0.926,4.898,0.926
		c1.938,0,3.453-0.312,4.547-0.938s1.641-1.609,1.641-2.953c0-1.031-0.297-1.812-0.891-2.344s-1.734-0.984-3.422-1.359
		c-0.625-0.141-1.441-0.305-2.449-0.492s-1.926-0.391-2.754-0.609c-2.297-0.609-3.926-1.504-4.887-2.684s-1.441-2.629-1.441-4.348
		c0-1.078,0.223-2.094,0.668-3.047s1.121-1.805,2.027-2.555c0.875-0.734,1.988-1.316,3.34-1.746s2.863-0.645,4.535-0.645
		c1.562,0,3.145,0.191,4.746,0.574s2.934,0.848,3.996,1.395v4.711h-0.234c-1.125-0.828-2.492-1.527-4.102-2.098
		s-3.188-0.855-4.734-0.855c-1.609,0-2.969,0.309-4.078,0.926s-1.664,1.535-1.664,2.754c0,1.078,0.336,1.891,1.008,2.438
		c0.656,0.547,1.719,0.992,3.188,1.336c0.812,0.188,1.723,0.375,2.73,0.562s1.848,0.359,2.52,0.516
		c2.047,0.469,3.625,1.273,4.734,2.414C536.574,236.889,537.128,238.42,537.128,240.326z"/>
	<path d="M576.363,221.693l-6.82,26.18h-4.078l-6.727-20.18l-6.68,20.18h-4.055l-6.891-26.18h4.594l4.805,20.273l6.539-20.273h3.633
		l6.703,20.273l4.547-20.273H576.363z"/>
	<path d="M587.449,217.311h-4.969v-4.57h4.969V217.311z M587.167,247.873h-4.406v-26.18h4.406V247.873z"/>
	<path d="M609.48,247.639c-0.828,0.219-1.73,0.398-2.707,0.539s-1.848,0.211-2.613,0.211c-2.672,0-4.703-0.719-6.094-2.156
		s-2.086-3.742-2.086-6.914v-13.922h-2.977v-3.703h2.977v-7.523h4.406v7.523h9.094v3.703h-9.094v11.93
		c0,1.375,0.031,2.449,0.094,3.223s0.281,1.496,0.656,2.168c0.344,0.625,0.816,1.082,1.418,1.371s1.52,0.434,2.754,0.434
		c0.719,0,1.469-0.105,2.25-0.316s1.344-0.387,1.688-0.527h0.234V247.639z"/>
	<path d="M634.16,246.232c-1.469,0.703-2.864,1.25-4.184,1.641s-2.723,0.586-4.207,0.586c-1.891,0-3.625-0.277-5.203-0.832
		s-2.93-1.395-4.055-2.52c-1.141-1.125-2.023-2.547-2.648-4.266s-0.938-3.727-0.938-6.023c0-4.281,1.176-7.641,3.527-10.078
		s5.457-3.656,9.316-3.656c1.5,0,2.973,0.211,4.418,0.633s2.77,0.938,3.973,1.547v4.898h-0.234
		c-1.344-1.047-2.731-1.852-4.161-2.414s-2.824-0.844-4.184-0.844c-2.5,0-4.473,0.84-5.918,2.52s-2.168,4.145-2.168,7.395
		c0,3.156,0.707,5.582,2.121,7.277s3.402,2.543,5.965,2.543c0.891,0,1.797-0.117,2.719-0.352s1.75-0.539,2.484-0.914
		c0.641-0.328,1.242-0.676,1.805-1.043c0.563-0.367,1.008-0.684,1.336-0.949h0.234V246.232z"/>
	<path d="M661.699,247.873h-4.406v-14.906c0-1.203-0.07-2.332-0.211-3.387s-0.398-1.879-0.773-2.473
		c-0.391-0.656-0.953-1.145-1.688-1.465s-1.688-0.48-2.859-0.48c-1.203,0-2.461,0.297-3.773,0.891s-2.57,1.352-3.773,2.273v19.547
		h-4.406v-36.469h4.406V224.6c1.375-1.141,2.797-2.031,4.266-2.672s2.977-0.961,4.523-0.961c2.828,0,4.984,0.852,6.469,2.555
		s2.227,4.156,2.227,7.359V247.873z"/>
	<path d="M725.262,247.873h-4.406v-14.906c0-1.125-0.051-2.211-0.152-3.258s-0.316-1.883-0.645-2.508
		c-0.359-0.672-0.875-1.18-1.547-1.523s-1.641-0.516-2.906-0.516c-1.234,0-2.469,0.309-3.703,0.926s-2.469,1.402-3.703,2.355
		c0.047,0.359,0.086,0.777,0.117,1.254s0.047,0.949,0.047,1.418v16.758h-4.406v-14.906c0-1.156-0.051-2.254-0.152-3.293
		s-0.316-1.871-0.645-2.496c-0.359-0.672-0.875-1.176-1.547-1.512s-1.641-0.504-2.906-0.504c-1.203,0-2.41,0.297-3.621,0.891
		s-2.418,1.352-3.621,2.273v19.547h-4.406v-26.18h4.406v2.906c1.375-1.141,2.746-2.031,4.113-2.672s2.824-0.961,4.371-0.961
		c1.781,0,3.293,0.375,4.535,1.125s2.168,1.789,2.777,3.117c1.781-1.5,3.406-2.582,4.875-3.246s3.039-0.996,4.711-0.996
		c2.875,0,4.996,0.871,6.363,2.613s2.051,4.176,2.051,7.301V247.873z"/>
	<path d="M756.059,234.795c0,4.266-1.094,7.633-3.281,10.102s-5.117,3.703-8.789,3.703c-3.703,0-6.645-1.234-8.824-3.703
		s-3.27-5.836-3.27-10.102s1.09-7.637,3.27-10.113s5.121-3.715,8.824-3.715c3.672,0,6.602,1.238,8.789,3.715
		S756.059,230.529,756.059,234.795z M751.512,234.795c0-3.391-0.664-5.91-1.992-7.559s-3.172-2.473-5.531-2.473
		c-2.391,0-4.246,0.824-5.566,2.473s-1.98,4.168-1.98,7.559c0,3.281,0.664,5.77,1.992,7.465s3.18,2.543,5.555,2.543
		c2.344,0,4.184-0.84,5.52-2.52S751.512,238.107,751.512,234.795z"/>
	<path d="M784.113,247.873h-4.406v-2.742c-1.266,1.094-2.586,1.945-3.961,2.555s-2.867,0.914-4.477,0.914
		c-3.125,0-5.605-1.203-7.441-3.609s-2.754-5.742-2.754-10.008c0-2.219,0.316-4.195,0.949-5.93s1.488-3.211,2.566-4.43
		c1.062-1.188,2.301-2.094,3.715-2.719s2.879-0.938,4.395-0.938c1.375,0,2.594,0.145,3.656,0.434s2.18,0.738,3.352,1.348v-11.344
		h4.406V247.873z M779.707,241.428v-15.023c-1.188-0.531-2.25-0.898-3.188-1.102s-1.961-0.305-3.07-0.305
		c-2.469,0-4.391,0.859-5.766,2.578s-2.062,4.156-2.062,7.312c0,3.109,0.531,5.473,1.594,7.09s2.766,2.426,5.109,2.426
		c1.25,0,2.516-0.277,3.797-0.832S778.598,242.303,779.707,241.428z"/>
	<path d="M814.699,235.24H795.41c0,1.609,0.242,3.012,0.727,4.207s1.148,2.176,1.992,2.941c0.812,0.75,1.777,1.312,2.895,1.688
		s2.348,0.562,3.691,0.562c1.781,0,3.574-0.355,5.379-1.066s3.09-1.41,3.855-2.098h0.234v4.805c-1.484,0.625-3,1.148-4.547,1.57
		s-3.172,0.633-4.875,0.633c-4.344,0-7.734-1.176-10.172-3.527s-3.656-5.691-3.656-10.02c0-4.281,1.168-7.68,3.504-10.195
		s5.41-3.773,9.223-3.773c3.531,0,6.254,1.031,8.168,3.094s2.871,4.992,2.871,8.789V235.24z M810.41,231.865
		c-0.016-2.312-0.598-4.102-1.746-5.367s-2.895-1.898-5.238-1.898c-2.359,0-4.238,0.695-5.637,2.086s-2.191,3.117-2.379,5.18H810.41
		z"/>
	<path d="M840.082,240.326c0,2.391-0.988,4.352-2.965,5.883s-4.676,2.297-8.098,2.297c-1.938,0-3.715-0.23-5.332-0.691
		s-2.973-0.965-4.066-1.512v-4.945h0.234c1.391,1.047,2.938,1.879,4.641,2.496s3.336,0.926,4.898,0.926
		c1.938,0,3.453-0.312,4.547-0.938s1.641-1.609,1.641-2.953c0-1.031-0.297-1.812-0.891-2.344s-1.734-0.984-3.422-1.359
		c-0.625-0.141-1.441-0.305-2.449-0.492s-1.926-0.391-2.754-0.609c-2.297-0.609-3.926-1.504-4.887-2.684s-1.441-2.629-1.441-4.348
		c0-1.078,0.223-2.094,0.668-3.047s1.121-1.805,2.027-2.555c0.875-0.734,1.988-1.316,3.34-1.746s2.863-0.645,4.535-0.645
		c1.562,0,3.145,0.191,4.746,0.574s2.934,0.848,3.996,1.395v4.711h-0.234c-1.125-0.828-2.492-1.527-4.102-2.098
		s-3.188-0.855-4.734-0.855c-1.609,0-2.969,0.309-4.078,0.926s-1.664,1.535-1.664,2.754c0,1.078,0.336,1.891,1.008,2.438
		c0.656,0.547,1.719,0.992,3.188,1.336c0.812,0.188,1.723,0.375,2.73,0.562s1.848,0.359,2.52,0.516
		c2.047,0.469,3.625,1.273,4.734,2.414C839.527,236.889,840.082,238.42,840.082,240.326z"/>
</g>
<rect x="26.218" y="48.297" fill="none" width="448.816" height="53.698"/>
<g enable-background="new    ">
	<path d="M105.63,93.331c-0.938,0.234-1.863,0.402-2.777,0.504s-1.848,0.152-2.801,0.152c-2.719,0-4.902-0.746-6.551-2.238
		s-2.543-3.629-2.684-6.41c-0.375,0.062-0.738,0.105-1.09,0.129s-0.691,0.035-1.02,0.035c-2.453,0-4.684-0.406-6.691-1.219
		s-3.715-1.992-5.121-3.539s-2.488-3.445-3.246-5.695s-1.137-4.82-1.137-7.711c0-2.844,0.375-5.395,1.125-7.652
		s1.844-4.191,3.281-5.801c1.375-1.531,3.082-2.703,5.121-3.516s4.262-1.219,6.668-1.219c2.5,0,4.746,0.41,6.738,1.23
		s3.684,1.988,5.074,3.504c1.422,1.562,2.512,3.477,3.27,5.742s1.137,4.836,1.137,7.711c0,4.266-0.871,7.859-2.613,10.781
		s-4.082,4.969-7.02,6.141c0.062,1.781,0.484,3.164,1.266,4.148s2.203,1.477,4.266,1.477c0.641,0,1.402-0.098,2.285-0.293
		s1.512-0.371,1.887-0.527h0.633V93.331z M100.099,67.339c0-4.531-1.016-8.027-3.047-10.488s-4.805-3.691-8.32-3.691
		c-3.547,0-6.332,1.23-8.355,3.691s-3.035,5.957-3.035,10.488c0,4.578,1.031,8.082,3.094,10.512s4.828,3.645,8.297,3.645
		s6.23-1.215,8.285-3.645S100.099,71.917,100.099,67.339z"/>
	<path d="M133.638,84.776h-4.406V81.87c-1.484,1.172-2.906,2.07-4.266,2.695s-2.859,0.938-4.5,0.938c-2.75,0-4.891-0.84-6.422-2.52
		s-2.297-4.145-2.297-7.395V58.597h4.406v14.906c0,1.328,0.062,2.465,0.188,3.41s0.391,1.754,0.797,2.426
		c0.422,0.688,0.969,1.188,1.641,1.5s1.648,0.469,2.93,0.469c1.141,0,2.387-0.297,3.738-0.891s2.613-1.352,3.785-2.273V58.597h4.406
		V84.776z"/>
	<path d="M147.044,54.214h-4.969v-4.57h4.969V54.214z M146.763,84.776h-4.406v-26.18h4.406V84.776z"/>
	<path d="M174.841,83.136c-1.469,0.703-2.863,1.25-4.184,1.641s-2.723,0.586-4.207,0.586c-1.891,0-3.625-0.277-5.203-0.832
		s-2.93-1.395-4.055-2.52c-1.141-1.125-2.023-2.547-2.648-4.266s-0.938-3.727-0.938-6.023c0-4.281,1.176-7.641,3.527-10.078
		s5.457-3.656,9.316-3.656c1.5,0,2.973,0.211,4.418,0.633s2.77,0.938,3.973,1.547v4.898h-0.234c-1.344-1.047-2.73-1.852-4.16-2.414
		s-2.824-0.844-4.184-0.844c-2.5,0-4.473,0.84-5.918,2.52s-2.168,4.145-2.168,7.395c0,3.156,0.707,5.582,2.121,7.277
		s3.402,2.543,5.965,2.543c0.891,0,1.797-0.117,2.719-0.352s1.75-0.539,2.484-0.914c0.641-0.328,1.242-0.676,1.805-1.043
		s1.008-0.684,1.336-0.949h0.234V83.136z"/>
	<path d="M204.255,84.776h-5.812l-10.5-11.461l-2.859,2.719v8.742h-4.406V48.308h4.406v23.391l12.727-13.102h5.555L191.2,70.69
		L204.255,84.776z"/>
	<path d="M238.427,84.776h-13.781v-3.562h4.57V53.44h-4.57v-3.562h13.781v3.562h-4.57v27.773h4.57V84.776z"/>
	<path d="M267.864,84.776h-4.406V69.87c0-1.203-0.07-2.332-0.211-3.387s-0.398-1.879-0.773-2.473
		c-0.391-0.656-0.953-1.145-1.688-1.465s-1.688-0.48-2.859-0.48c-1.203,0-2.461,0.297-3.773,0.891s-2.57,1.352-3.773,2.273v19.547
		h-4.406v-26.18h4.406v2.906c1.375-1.141,2.797-2.031,4.266-2.672s2.977-0.961,4.523-0.961c2.828,0,4.984,0.852,6.469,2.555
		s2.227,4.156,2.227,7.359V84.776z"/>
	<path d="M289.942,84.542c-0.828,0.219-1.73,0.398-2.707,0.539s-1.848,0.211-2.613,0.211c-2.672,0-4.703-0.719-6.094-2.156
		s-2.086-3.742-2.086-6.914V62.3h-2.977v-3.703h2.977v-7.523h4.406v7.523h9.094V62.3h-9.094v11.93c0,1.375,0.031,2.449,0.094,3.223
		s0.281,1.496,0.656,2.168c0.344,0.625,0.816,1.082,1.418,1.371s1.52,0.434,2.754,0.434c0.719,0,1.469-0.105,2.25-0.316
		s1.344-0.387,1.688-0.527h0.234V84.542z"/>
	<path d="M317.177,72.144h-19.289c0,1.609,0.242,3.012,0.727,4.207s1.148,2.176,1.992,2.941c0.812,0.75,1.777,1.312,2.895,1.688
		s2.348,0.562,3.691,0.562c1.781,0,3.574-0.355,5.379-1.066s3.09-1.41,3.855-2.098h0.234v4.805c-1.484,0.625-3,1.148-4.547,1.57
		s-3.172,0.633-4.875,0.633c-4.344,0-7.734-1.176-10.172-3.527s-3.656-5.691-3.656-10.02c0-4.281,1.168-7.68,3.504-10.195
		s5.41-3.773,9.223-3.773c3.531,0,6.254,1.031,8.168,3.094s2.871,4.992,2.871,8.789V72.144z M312.888,68.769
		c-0.016-2.312-0.598-4.102-1.746-5.367s-2.895-1.898-5.238-1.898c-2.359,0-4.238,0.695-5.637,2.086s-2.191,3.117-2.379,5.18
		H312.888z"/>
	<path d="M340.192,63.401h-0.234c-0.656-0.156-1.293-0.27-1.91-0.34s-1.348-0.105-2.191-0.105c-1.359,0-2.672,0.301-3.938,0.902
		s-2.484,1.379-3.656,2.332v18.586h-4.406v-26.18h4.406v3.867c1.75-1.406,3.293-2.402,4.629-2.988s2.699-0.879,4.09-0.879
		c0.766,0,1.32,0.02,1.664,0.059s0.859,0.113,1.547,0.223V63.401z"/>
	<path d="M363.841,84.776h-4.383v-2.789c-0.391,0.266-0.918,0.637-1.582,1.113s-1.309,0.855-1.934,1.137
		c-0.734,0.359-1.578,0.66-2.531,0.902s-2.07,0.363-3.352,0.363c-2.359,0-4.359-0.781-6-2.344s-2.461-3.555-2.461-5.977
		c0-1.984,0.426-3.59,1.277-4.816s2.066-2.191,3.645-2.895c1.594-0.703,3.508-1.18,5.742-1.43s4.633-0.438,7.195-0.562V66.8
		c0-1-0.176-1.828-0.527-2.484s-0.855-1.172-1.512-1.547c-0.625-0.359-1.375-0.602-2.25-0.727s-1.789-0.188-2.742-0.188
		c-1.156,0-2.445,0.152-3.867,0.457s-2.891,0.746-4.406,1.324h-0.234v-4.477c0.859-0.234,2.102-0.492,3.727-0.773
		s3.227-0.422,4.805-0.422c1.844,0,3.449,0.152,4.816,0.457s2.551,0.824,3.551,1.559c0.984,0.719,1.734,1.648,2.25,2.789
		s0.773,2.555,0.773,4.242V84.776z M359.458,78.331v-7.289c-1.344,0.078-2.926,0.195-4.746,0.352s-3.262,0.383-4.324,0.68
		c-1.266,0.359-2.289,0.918-3.07,1.676s-1.172,1.801-1.172,3.129c0,1.5,0.453,2.629,1.359,3.387s2.289,1.137,4.148,1.137
		c1.547,0,2.961-0.301,4.242-0.902S358.364,79.175,359.458,78.331z"/>
	<path d="M391.685,83.136c-1.469,0.703-2.863,1.25-4.184,1.641s-2.723,0.586-4.207,0.586c-1.891,0-3.625-0.277-5.203-0.832
		s-2.93-1.395-4.055-2.52c-1.141-1.125-2.023-2.547-2.648-4.266s-0.938-3.727-0.938-6.023c0-4.281,1.176-7.641,3.527-10.078
		s5.457-3.656,9.316-3.656c1.5,0,2.973,0.211,4.418,0.633s2.77,0.938,3.973,1.547v4.898h-0.234c-1.344-1.047-2.73-1.852-4.16-2.414
		s-2.824-0.844-4.184-0.844c-2.5,0-4.473,0.84-5.918,2.52s-2.168,4.145-2.168,7.395c0,3.156,0.707,5.582,2.121,7.277
		s3.402,2.543,5.965,2.543c0.891,0,1.797-0.117,2.719-0.352s1.75-0.539,2.484-0.914c0.641-0.328,1.242-0.676,1.805-1.043
		s1.008-0.684,1.336-0.949h0.234V83.136z"/>
	<path d="M410.927,84.542c-0.828,0.219-1.73,0.398-2.707,0.539s-1.848,0.211-2.613,0.211c-2.672,0-4.703-0.719-6.094-2.156
		s-2.086-3.742-2.086-6.914V62.3h-2.977v-3.703h2.977v-7.523h4.406v7.523h9.094V62.3h-9.094v11.93c0,1.375,0.031,2.449,0.094,3.223
		s0.281,1.496,0.656,2.168c0.344,0.625,0.816,1.082,1.418,1.371s1.52,0.434,2.754,0.434c0.719,0,1.469-0.105,2.25-0.316
		s1.344-0.387,1.688-0.527h0.234V84.542z"/>
	<path d="M420.981,54.214h-4.969v-4.57h4.969V54.214z M420.7,84.776h-4.406v-26.18h4.406V84.776z"/>
	<path d="M451.731,71.698c0,4.266-1.094,7.633-3.281,10.102s-5.117,3.703-8.789,3.703c-3.703,0-6.645-1.234-8.824-3.703
		s-3.27-5.836-3.27-10.102s1.09-7.637,3.27-10.113s5.121-3.715,8.824-3.715c3.672,0,6.602,1.238,8.789,3.715
		S451.731,67.433,451.731,71.698z M447.185,71.698c0-3.391-0.664-5.91-1.992-7.559s-3.172-2.473-5.531-2.473
		c-2.391,0-4.246,0.824-5.566,2.473s-1.98,4.168-1.98,7.559c0,3.281,0.664,5.77,1.992,7.465s3.18,2.543,5.555,2.543
		c2.344,0,4.184-0.84,5.52-2.52S447.185,75.011,447.185,71.698z"/>
	<path d="M480.442,84.776h-4.406V69.87c0-1.203-0.07-2.332-0.211-3.387s-0.398-1.879-0.773-2.473
		c-0.391-0.656-0.953-1.145-1.688-1.465s-1.688-0.48-2.859-0.48c-1.203,0-2.461,0.297-3.773,0.891s-2.57,1.352-3.773,2.273v19.547
		h-4.406v-26.18h4.406v2.906c1.375-1.141,2.797-2.031,4.266-2.672s2.977-0.961,4.523-0.961c2.828,0,4.984,0.852,6.469,2.555
		s2.227,4.156,2.227,7.359V84.776z"/>
</g>
<rect x="705.686" y="48.297" fill="none" width="448.816" height="53.698"/>
<g enable-background="new    ">
	<path d="M788.789,67.362c0,3.172-0.691,6.047-2.074,8.625s-3.223,4.578-5.52,6c-1.594,0.984-3.371,1.695-5.332,2.133
		s-4.543,0.656-7.746,0.656h-8.812V49.878h8.719c3.406,0,6.113,0.246,8.121,0.738s3.707,1.168,5.098,2.027
		c2.375,1.484,4.227,3.461,5.555,5.93S788.789,63.972,788.789,67.362z M783.938,67.292c0-2.734-0.477-5.039-1.43-6.914
		s-2.375-3.352-4.266-4.43c-1.375-0.781-2.836-1.324-4.383-1.629s-3.398-0.457-5.555-0.457h-4.359v26.93h4.359
		c2.234,0,4.184-0.164,5.848-0.492s3.191-0.938,4.582-1.828c1.734-1.109,3.035-2.57,3.902-4.383S783.938,70.011,783.938,67.292z"/>
	<path d="M817.852,72.144h-19.289c0,1.609,0.242,3.012,0.727,4.207s1.148,2.176,1.992,2.941c0.812,0.75,1.777,1.312,2.895,1.688
		s2.348,0.562,3.691,0.562c1.781,0,3.574-0.355,5.379-1.066s3.09-1.41,3.855-2.098h0.234v4.805c-1.484,0.625-3,1.148-4.547,1.57
		s-3.172,0.633-4.875,0.633c-4.344,0-7.734-1.176-10.172-3.527s-3.656-5.691-3.656-10.02c0-4.281,1.168-7.68,3.504-10.195
		s5.41-3.773,9.223-3.773c3.531,0,6.254,1.031,8.168,3.094s2.871,4.992,2.871,8.789V72.144z M813.562,68.769
		c-0.016-2.312-0.598-4.102-1.746-5.367s-2.895-1.898-5.238-1.898c-2.359,0-4.238,0.695-5.637,2.086s-2.191,3.117-2.379,5.18
		H813.562z"/>
	<path d="M846.445,72.144h-19.289c0,1.609,0.242,3.012,0.727,4.207s1.148,2.176,1.992,2.941c0.812,0.75,1.777,1.312,2.895,1.688
		s2.348,0.562,3.691,0.562c1.781,0,3.574-0.355,5.379-1.066s3.09-1.41,3.855-2.098h0.234v4.805c-1.484,0.625-3,1.148-4.547,1.57
		s-3.172,0.633-4.875,0.633c-4.344,0-7.734-1.176-10.172-3.527s-3.656-5.691-3.656-10.02c0-4.281,1.168-7.68,3.504-10.195
		s5.41-3.773,9.223-3.773c3.531,0,6.254,1.031,8.168,3.094s2.871,4.992,2.871,8.789V72.144z M842.156,68.769
		c-0.016-2.312-0.598-4.102-1.746-5.367s-2.895-1.898-5.238-1.898c-2.359,0-4.238,0.695-5.637,2.086s-2.191,3.117-2.379,5.18
		H842.156z"/>
	<path d="M876.164,71.37c0,2.125-0.305,4.066-0.914,5.824s-1.469,3.246-2.578,4.465c-1.031,1.156-2.246,2.051-3.645,2.684
		s-2.879,0.949-4.441,0.949c-1.359,0-2.59-0.148-3.691-0.445s-2.223-0.758-3.363-1.383v10.969h-4.406V58.597h4.406v2.742
		c1.172-0.984,2.488-1.809,3.949-2.473s3.02-0.996,4.676-0.996c3.156,0,5.613,1.191,7.371,3.574S876.164,67.136,876.164,71.37z
		 M871.617,71.487c0-3.156-0.539-5.516-1.617-7.078s-2.734-2.344-4.969-2.344c-1.266,0-2.539,0.273-3.82,0.82
		s-2.508,1.266-3.68,2.156v14.836c1.25,0.562,2.324,0.945,3.223,1.148s1.918,0.305,3.059,0.305c2.453,0,4.367-0.828,5.742-2.484
		S871.617,74.737,871.617,71.487z"/>
	<path d="M912.562,84.776h-13.781v-3.562h4.57V53.44h-4.57v-3.562h13.781v3.562h-4.57v27.773h4.57V84.776z"/>
	<path d="M942,84.776h-4.406V69.87c0-1.203-0.07-2.332-0.211-3.387s-0.398-1.879-0.773-2.473c-0.391-0.656-0.953-1.145-1.688-1.465
		s-1.688-0.48-2.859-0.48c-1.203,0-2.461,0.297-3.773,0.891s-2.57,1.352-3.773,2.273v19.547h-4.406v-26.18h4.406v2.906
		c1.375-1.141,2.797-2.031,4.266-2.672s2.977-0.961,4.523-0.961c2.828,0,4.984,0.852,6.469,2.555S942,64.581,942,67.784V84.776z"/>
	<path d="M964.078,84.542c-0.828,0.219-1.73,0.398-2.707,0.539s-1.848,0.211-2.613,0.211c-2.672,0-4.703-0.719-6.094-2.156
		s-2.086-3.742-2.086-6.914V62.3h-2.977v-3.703h2.977v-7.523h4.406v7.523h9.094V62.3h-9.094v11.93c0,1.375,0.031,2.449,0.094,3.223
		s0.281,1.496,0.656,2.168c0.344,0.625,0.816,1.082,1.418,1.371s1.52,0.434,2.754,0.434c0.719,0,1.469-0.105,2.25-0.316
		s1.344-0.387,1.688-0.527h0.234V84.542z"/>
	<path d="M991.312,72.144h-19.289c0,1.609,0.242,3.012,0.727,4.207s1.148,2.176,1.992,2.941c0.812,0.75,1.777,1.312,2.895,1.688
		s2.348,0.562,3.691,0.562c1.781,0,3.574-0.355,5.379-1.066s3.09-1.41,3.855-2.098h0.234v4.805c-1.484,0.625-3,1.148-4.547,1.57
		s-3.172,0.633-4.875,0.633c-4.344,0-7.734-1.176-10.172-3.527s-3.656-5.691-3.656-10.02c0-4.281,1.168-7.68,3.504-10.195
		s5.41-3.773,9.223-3.773c3.531,0,6.254,1.031,8.168,3.094s2.871,4.992,2.871,8.789V72.144z M987.023,68.769
		c-0.016-2.312-0.598-4.102-1.746-5.367s-2.895-1.898-5.238-1.898c-2.359,0-4.238,0.695-5.637,2.086s-2.191,3.117-2.379,5.18
		H987.023z"/>
	<path d="M1014.328,63.401h-0.234c-0.656-0.156-1.293-0.27-1.91-0.34s-1.348-0.105-2.191-0.105c-1.359,0-2.672,0.301-3.938,0.902
		s-2.484,1.379-3.656,2.332v18.586h-4.406v-26.18h4.406v3.867c1.75-1.406,3.293-2.402,4.629-2.988s2.699-0.879,4.09-0.879
		c0.766,0,1.32,0.02,1.664,0.059s0.859,0.113,1.547,0.223V63.401z"/>
	<path d="M1037.977,84.776h-4.383v-2.789c-0.391,0.266-0.918,0.637-1.582,1.113s-1.309,0.855-1.934,1.137
		c-0.734,0.359-1.578,0.66-2.531,0.902s-2.07,0.363-3.352,0.363c-2.359,0-4.359-0.781-6-2.344s-2.461-3.555-2.461-5.977
		c0-1.984,0.426-3.59,1.277-4.816s2.066-2.191,3.645-2.895c1.594-0.703,3.508-1.18,5.742-1.43s4.633-0.438,7.195-0.562V66.8
		c0-1-0.176-1.828-0.527-2.484s-0.855-1.172-1.512-1.547c-0.625-0.359-1.375-0.602-2.25-0.727s-1.789-0.188-2.742-0.188
		c-1.156,0-2.445,0.152-3.867,0.457s-2.891,0.746-4.406,1.324h-0.234v-4.477c0.859-0.234,2.102-0.492,3.727-0.773
		s3.227-0.422,4.805-0.422c1.844,0,3.449,0.152,4.816,0.457s2.551,0.824,3.551,1.559c0.984,0.719,1.734,1.648,2.25,2.789
		s0.773,2.555,0.773,4.242V84.776z M1033.594,78.331v-7.289c-1.344,0.078-2.926,0.195-4.746,0.352s-3.262,0.383-4.324,0.68
		c-1.266,0.359-2.289,0.918-3.07,1.676s-1.172,1.801-1.172,3.129c0,1.5,0.453,2.629,1.359,3.387s2.289,1.137,4.148,1.137
		c1.547,0,2.961-0.301,4.242-0.902S1032.5,79.175,1033.594,78.331z"/>
	<path d="M1065.82,83.136c-1.469,0.703-2.863,1.25-4.184,1.641s-2.723,0.586-4.207,0.586c-1.891,0-3.625-0.277-5.203-0.832
		s-2.93-1.395-4.055-2.52c-1.141-1.125-2.023-2.547-2.648-4.266s-0.938-3.727-0.938-6.023c0-4.281,1.176-7.641,3.527-10.078
		s5.457-3.656,9.316-3.656c1.5,0,2.973,0.211,4.418,0.633s2.77,0.938,3.973,1.547v4.898h-0.234c-1.344-1.047-2.73-1.852-4.16-2.414
		s-2.824-0.844-4.184-0.844c-2.5,0-4.473,0.84-5.918,2.52s-2.168,4.145-2.168,7.395c0,3.156,0.707,5.582,2.121,7.277
		s3.402,2.543,5.965,2.543c0.891,0,1.797-0.117,2.719-0.352s1.75-0.539,2.484-0.914c0.641-0.328,1.242-0.676,1.805-1.043
		s1.008-0.684,1.336-0.949h0.234V83.136z"/>
	<path d="M1085.062,84.542c-0.828,0.219-1.73,0.398-2.707,0.539s-1.848,0.211-2.613,0.211c-2.672,0-4.703-0.719-6.094-2.156
		s-2.086-3.742-2.086-6.914V62.3h-2.977v-3.703h2.977v-7.523h4.406v7.523h9.094V62.3h-9.094v11.93c0,1.375,0.031,2.449,0.094,3.223
		s0.281,1.496,0.656,2.168c0.344,0.625,0.816,1.082,1.418,1.371s1.52,0.434,2.754,0.434c0.719,0,1.469-0.105,2.25-0.316
		s1.344-0.387,1.688-0.527h0.234V84.542z"/>
	<path d="M1095.117,54.214h-4.969v-4.57h4.969V54.214z M1094.836,84.776h-4.406v-26.18h4.406V84.776z"/>
	<path d="M1125.867,71.698c0,4.266-1.094,7.633-3.281,10.102s-5.117,3.703-8.789,3.703c-3.703,0-6.645-1.234-8.824-3.703
		s-3.27-5.836-3.27-10.102s1.09-7.637,3.27-10.113s5.121-3.715,8.824-3.715c3.672,0,6.602,1.238,8.789,3.715
		S1125.867,67.433,1125.867,71.698z M1121.32,71.698c0-3.391-0.664-5.91-1.992-7.559s-3.172-2.473-5.531-2.473
		c-2.391,0-4.246,0.824-5.566,2.473s-1.98,4.168-1.98,7.559c0,3.281,0.664,5.77,1.992,7.465s3.18,2.543,5.555,2.543
		c2.344,0,4.184-0.84,5.52-2.52S1121.32,75.011,1121.32,71.698z"/>
	<path d="M1154.578,84.776h-4.406V69.87c0-1.203-0.07-2.332-0.211-3.387s-0.398-1.879-0.773-2.473
		c-0.391-0.656-0.953-1.145-1.688-1.465s-1.688-0.48-2.859-0.48c-1.203,0-2.461,0.297-3.773,0.891s-2.57,1.352-3.773,2.273v19.547
		h-4.406v-26.18h4.406v2.906c1.375-1.141,2.797-2.031,4.266-2.672s2.977-0.961,4.523-0.961c2.828,0,4.984,0.852,6.469,2.555
		s2.227,4.156,2.227,7.359V84.776z"/>
</g>
<rect x="168.625" y="738.627" fill="none" width="267" height="35.5"/>
<g enable-background="new    ">
	<path d="M196.109,762.947h-4.016l-7.781-9.25h-4.359v9.25h-3.094v-23.266h6.516c1.406,0,2.578,0.092,3.516,0.273
		c0.938,0.183,1.781,0.508,2.531,0.977c0.844,0.531,1.502,1.201,1.977,2.008c0.474,0.808,0.711,1.831,0.711,3.07
		c0,1.678-0.422,3.081-1.266,4.211c-0.844,1.131-2.005,1.982-3.484,2.555L196.109,762.947z M188.875,746.229
		c0-0.666-0.117-1.258-0.352-1.773s-0.623-0.95-1.164-1.305c-0.448-0.302-0.979-0.513-1.594-0.633
		c-0.615-0.119-1.339-0.18-2.172-0.18h-3.641v8.781h3.125c0.979,0,1.833-0.086,2.562-0.258c0.729-0.172,1.349-0.492,1.859-0.961
		c0.469-0.438,0.815-0.939,1.039-1.508C188.763,747.825,188.875,747.104,188.875,746.229z"/>
	<path d="M212.703,754.525h-12.859c0,1.073,0.161,2.008,0.484,2.805c0.323,0.797,0.766,1.451,1.328,1.961
		c0.542,0.5,1.185,0.875,1.93,1.125c0.745,0.25,1.565,0.375,2.461,0.375c1.188,0,2.383-0.236,3.586-0.711
		c1.203-0.474,2.06-0.939,2.57-1.398h0.156v3.203c-0.99,0.417-2,0.766-3.031,1.047s-2.115,0.422-3.25,0.422
		c-2.896,0-5.156-0.783-6.781-2.352c-1.625-1.567-2.438-3.794-2.438-6.68c0-2.854,0.778-5.119,2.336-6.797
		c1.557-1.677,3.606-2.516,6.148-2.516c2.354,0,4.169,0.688,5.445,2.062c1.276,1.375,1.914,3.328,1.914,5.859V754.525z
		 M209.844,752.275c-0.011-1.541-0.398-2.734-1.164-3.578s-1.93-1.266-3.492-1.266c-1.573,0-2.826,0.464-3.758,1.391
		c-0.933,0.928-1.461,2.078-1.586,3.453H209.844z"/>
	<path d="M229.625,757.916c0,1.594-0.659,2.901-1.977,3.922c-1.318,1.021-3.117,1.531-5.398,1.531c-1.292,0-2.477-0.154-3.555-0.461
		s-1.982-0.643-2.711-1.008v-3.297h0.156c0.927,0.698,1.958,1.253,3.094,1.664c1.135,0.412,2.224,0.617,3.266,0.617
		c1.292,0,2.302-0.208,3.031-0.625c0.729-0.416,1.094-1.072,1.094-1.969c0-0.688-0.198-1.208-0.594-1.562
		c-0.396-0.354-1.156-0.656-2.281-0.906c-0.417-0.094-0.961-0.203-1.633-0.328s-1.284-0.26-1.836-0.406
		c-1.531-0.406-2.617-1.002-3.258-1.789c-0.641-0.786-0.961-1.752-0.961-2.898c0-0.719,0.148-1.396,0.445-2.031
		c0.297-0.635,0.747-1.203,1.352-1.703c0.583-0.489,1.325-0.877,2.227-1.164c0.901-0.286,1.909-0.43,3.023-0.43
		c1.042,0,2.096,0.128,3.164,0.383c1.067,0.256,1.956,0.565,2.664,0.93v3.141h-0.156c-0.75-0.552-1.662-1.018-2.734-1.398
		c-1.073-0.38-2.125-0.57-3.156-0.57c-1.073,0-1.979,0.206-2.719,0.617c-0.74,0.412-1.109,1.023-1.109,1.836
		c0,0.719,0.224,1.261,0.672,1.625c0.438,0.365,1.146,0.662,2.125,0.891c0.542,0.125,1.148,0.25,1.82,0.375s1.231,0.24,1.68,0.344
		c1.364,0.312,2.417,0.85,3.156,1.609C229.255,755.625,229.625,756.646,229.625,757.916z"/>
	<path d="M236.984,742.572h-3.312v-3.047h3.312V742.572z M236.797,762.947h-2.938v-17.453h2.938V762.947z"/>
	<path d="M255.266,762.947h-14.094v-2.172l10.172-12.828h-9.953v-2.453H255v2.094l-10.219,12.875h10.484V762.947z"/>
	<path d="M273.844,754.525h-12.859c0,1.073,0.161,2.008,0.484,2.805c0.323,0.797,0.766,1.451,1.328,1.961
		c0.542,0.5,1.185,0.875,1.93,1.125c0.745,0.25,1.565,0.375,2.461,0.375c1.188,0,2.383-0.236,3.586-0.711
		c1.203-0.474,2.06-0.939,2.57-1.398h0.156v3.203c-0.99,0.417-2,0.766-3.031,1.047s-2.115,0.422-3.25,0.422
		c-2.896,0-5.156-0.783-6.781-2.352c-1.625-1.567-2.438-3.794-2.438-6.68c0-2.854,0.778-5.119,2.336-6.797
		c1.557-1.677,3.606-2.516,6.148-2.516c2.354,0,4.169,0.688,5.445,2.062c1.276,1.375,1.914,3.328,1.914,5.859V754.525z
		 M270.984,752.275c-0.011-1.541-0.398-2.734-1.164-3.578s-1.93-1.266-3.492-1.266c-1.573,0-2.826,0.464-3.758,1.391
		c-0.933,0.928-1.461,2.078-1.586,3.453H270.984z"/>
	<path d="M316.859,739.682l-6.047,23.266h-3.484l-4.891-19.312l-4.781,19.312h-3.406l-6.156-23.266h3.172l4.891,19.344l4.812-19.344
		h3.141l4.859,19.531l4.859-19.531H316.859z"/>
	<path d="M324.344,742.572h-3.312v-3.047h3.312V742.572z M324.156,762.947h-2.938v-17.453h2.938V762.947z"/>
	<path d="M344.562,762.947h-2.938v-9.938c0-0.802-0.047-1.555-0.141-2.258s-0.266-1.252-0.516-1.648
		c-0.261-0.438-0.636-0.763-1.125-0.977c-0.49-0.213-1.125-0.32-1.906-0.32c-0.802,0-1.641,0.198-2.516,0.594
		c-0.875,0.396-1.714,0.901-2.516,1.516v13.031h-2.938v-17.453h2.938v1.938c0.917-0.76,1.864-1.354,2.844-1.781
		c0.979-0.427,1.984-0.641,3.016-0.641c1.885,0,3.323,0.568,4.312,1.703c0.989,1.136,1.484,2.771,1.484,4.906V762.947z"/>
	<path d="M364.375,762.947h-2.938v-1.828c-0.844,0.729-1.724,1.297-2.641,1.703c-0.917,0.406-1.912,0.609-2.984,0.609
		c-2.083,0-3.737-0.802-4.961-2.406c-1.224-1.604-1.836-3.828-1.836-6.672c0-1.479,0.211-2.797,0.633-3.953s0.992-2.141,1.711-2.953
		c0.708-0.791,1.534-1.396,2.477-1.812c0.942-0.416,1.919-0.625,2.93-0.625c0.917,0,1.729,0.097,2.438,0.289
		c0.708,0.193,1.453,0.492,2.234,0.898v-7.562h2.938V762.947z M361.438,758.65v-10.016c-0.792-0.354-1.5-0.599-2.125-0.734
		c-0.625-0.135-1.308-0.203-2.047-0.203c-1.646,0-2.927,0.573-3.844,1.719c-0.917,1.146-1.375,2.771-1.375,4.875
		c0,2.073,0.354,3.648,1.062,4.727c0.708,1.078,1.844,1.617,3.406,1.617c0.833,0,1.677-0.185,2.531-0.555
		C359.901,759.711,360.698,759.234,361.438,758.65z"/>
	<path d="M385.031,754.229c0,2.844-0.729,5.089-2.188,6.734c-1.458,1.646-3.412,2.469-5.859,2.469c-2.469,0-4.43-0.822-5.883-2.469
		c-1.453-1.646-2.18-3.891-2.18-6.734s0.727-5.091,2.18-6.742c1.453-1.65,3.414-2.477,5.883-2.477c2.448,0,4.401,0.826,5.859,2.477
		C384.302,749.138,385.031,751.385,385.031,754.229z M382,754.229c0-2.26-0.443-3.939-1.328-5.039
		c-0.886-1.099-2.115-1.648-3.688-1.648c-1.594,0-2.831,0.55-3.711,1.648c-0.88,1.1-1.32,2.779-1.32,5.039
		c0,2.188,0.442,3.847,1.328,4.977c0.885,1.131,2.12,1.695,3.703,1.695c1.562,0,2.789-0.56,3.68-1.68
		C381.555,758.102,382,756.438,382,754.229z"/>
	<path d="M411.531,745.494l-4.547,17.453h-2.719l-4.484-13.453l-4.453,13.453h-2.703l-4.594-17.453h3.062l3.203,13.516l4.359-13.516
		h2.422l4.469,13.516l3.031-13.516H411.531z"/>
	<path d="M428.234,757.916c0,1.594-0.659,2.901-1.977,3.922c-1.318,1.021-3.117,1.531-5.398,1.531c-1.292,0-2.477-0.154-3.555-0.461
		s-1.982-0.643-2.711-1.008v-3.297h0.156c0.927,0.698,1.958,1.253,3.094,1.664c1.135,0.412,2.224,0.617,3.266,0.617
		c1.292,0,2.302-0.208,3.031-0.625c0.729-0.416,1.094-1.072,1.094-1.969c0-0.688-0.198-1.208-0.594-1.562
		c-0.396-0.354-1.156-0.656-2.281-0.906c-0.417-0.094-0.961-0.203-1.633-0.328s-1.284-0.26-1.836-0.406
		c-1.531-0.406-2.617-1.002-3.258-1.789c-0.641-0.786-0.961-1.752-0.961-2.898c0-0.719,0.148-1.396,0.445-2.031
		c0.297-0.635,0.747-1.203,1.352-1.703c0.583-0.489,1.325-0.877,2.227-1.164c0.901-0.286,1.909-0.43,3.023-0.43
		c1.042,0,2.096,0.128,3.164,0.383c1.067,0.256,1.956,0.565,2.664,0.93v3.141h-0.156c-0.75-0.552-1.662-1.018-2.734-1.398
		c-1.073-0.38-2.125-0.57-3.156-0.57c-1.073,0-1.979,0.206-2.719,0.617c-0.74,0.412-1.109,1.023-1.109,1.836
		c0,0.719,0.224,1.261,0.672,1.625c0.438,0.365,1.146,0.662,2.125,0.891c0.542,0.125,1.148,0.25,1.82,0.375s1.231,0.24,1.68,0.344
		c1.364,0.312,2.417,0.85,3.156,1.609C427.864,755.625,428.234,756.646,428.234,757.916z"/>
</g>
<rect x="523.607" y="892.121" fill="none" width="377.996" height="35.5"/>
<g enable-background="new    ">
	<path d="M544.988,916.441H529.66v-23.266h15.328v2.75h-12.234v6.375h12.234v2.75h-12.234v8.641h12.234V916.441z"/>
	<path d="M564.769,916.441h-3.703l-4.953-6.703l-4.984,6.703h-3.422l6.812-8.703l-6.75-8.75h3.703l4.922,6.594l4.938-6.594h3.438
		l-6.859,8.594L564.769,916.441z"/>
	<path d="M571.753,896.066h-3.312v-3.047h3.312V896.066z M571.566,916.441h-2.938v-17.453h2.938V916.441z"/>
	<path d="M586.441,916.285c-0.552,0.146-1.154,0.266-1.805,0.359c-0.651,0.094-1.232,0.141-1.742,0.141
		c-1.781,0-3.136-0.479-4.062-1.438c-0.927-0.958-1.391-2.494-1.391-4.609v-9.281h-1.984v-2.469h1.984v-5.016h2.938v5.016h6.062
		v2.469h-6.062v7.953c0,0.917,0.021,1.633,0.062,2.148c0.042,0.516,0.188,0.998,0.438,1.445c0.229,0.417,0.544,0.722,0.945,0.914
		c0.401,0.193,1.013,0.289,1.836,0.289c0.479,0,0.979-0.07,1.5-0.211c0.521-0.141,0.896-0.258,1.125-0.352h0.156V916.285z"/>
	<path d="M616.691,900.207c0,1.031-0.18,1.987-0.539,2.867c-0.359,0.881-0.862,1.644-1.508,2.289
		c-0.802,0.803-1.75,1.404-2.844,1.805c-1.094,0.401-2.474,0.602-4.141,0.602h-3.094v8.672h-3.094v-23.266h6.312
		c1.396,0,2.578,0.117,3.547,0.352s1.828,0.602,2.578,1.102c0.885,0.594,1.57,1.334,2.055,2.219
		C616.449,897.733,616.691,898.854,616.691,900.207z M613.472,900.285c0-0.802-0.141-1.5-0.422-2.094s-0.708-1.078-1.281-1.453
		c-0.5-0.322-1.07-0.555-1.711-0.695s-1.451-0.211-2.43-0.211h-3.062v9.297h2.609c1.25,0,2.266-0.111,3.047-0.336
		c0.781-0.224,1.417-0.58,1.906-1.07c0.489-0.5,0.836-1.025,1.039-1.578C613.371,901.593,613.472,900.973,613.472,900.285z"/>
	<path d="M634.629,907.723c0,2.844-0.73,5.089-2.188,6.734c-1.458,1.646-3.412,2.469-5.859,2.469c-2.469,0-4.43-0.822-5.883-2.469
		c-1.453-1.646-2.18-3.891-2.18-6.734s0.727-5.091,2.18-6.742c1.453-1.65,3.414-2.477,5.883-2.477c2.448,0,4.401,0.826,5.859,2.477
		C633.898,902.632,634.629,904.879,634.629,907.723z M631.597,907.723c0-2.26-0.443-3.939-1.328-5.039
		c-0.886-1.099-2.115-1.648-3.688-1.648c-1.594,0-2.831,0.55-3.711,1.648c-0.88,1.1-1.32,2.779-1.32,5.039
		c0,2.188,0.442,3.847,1.328,4.977c0.885,1.131,2.12,1.695,3.703,1.695c1.562,0,2.789-0.56,3.68-1.68
		C631.152,911.596,631.597,909.932,631.597,907.723z"/>
	<path d="M642.332,896.066h-3.312v-3.047h3.312V896.066z M642.145,916.441h-2.938v-17.453h2.938V916.441z"/>
	<path d="M662.551,916.441h-2.938v-9.938c0-0.802-0.047-1.555-0.141-2.258s-0.266-1.252-0.516-1.648
		c-0.262-0.438-0.637-0.763-1.125-0.977c-0.49-0.213-1.125-0.32-1.906-0.32c-0.803,0-1.641,0.198-2.516,0.594
		c-0.875,0.396-1.715,0.901-2.516,1.516v13.031h-2.938v-17.453h2.938v1.938c0.916-0.76,1.863-1.354,2.844-1.781
		c0.979-0.427,1.984-0.641,3.016-0.641c1.885,0,3.322,0.568,4.312,1.703c0.988,1.136,1.484,2.771,1.484,4.906V916.441z"/>
	<path d="M677.27,916.285c-0.553,0.146-1.154,0.266-1.805,0.359c-0.652,0.094-1.232,0.141-1.742,0.141
		c-1.781,0-3.137-0.479-4.062-1.438c-0.928-0.958-1.391-2.494-1.391-4.609v-9.281h-1.984v-2.469h1.984v-5.016h2.938v5.016h6.062
		v2.469h-6.062v7.953c0,0.917,0.02,1.633,0.062,2.148c0.041,0.516,0.188,0.998,0.438,1.445c0.229,0.417,0.543,0.722,0.945,0.914
		c0.4,0.193,1.012,0.289,1.836,0.289c0.479,0,0.979-0.07,1.5-0.211c0.52-0.141,0.895-0.258,1.125-0.352h0.156V916.285z"/>
	<path d="M695.426,908.02h-12.859c0,1.073,0.16,2.008,0.484,2.805c0.322,0.797,0.766,1.451,1.328,1.961
		c0.541,0.5,1.184,0.875,1.93,1.125c0.744,0.25,1.564,0.375,2.461,0.375c1.188,0,2.383-0.236,3.586-0.711
		c1.203-0.474,2.059-0.939,2.57-1.398h0.156v3.203c-0.99,0.417-2,0.766-3.031,1.047s-2.115,0.422-3.25,0.422
		c-2.896,0-5.156-0.783-6.781-2.352c-1.625-1.567-2.438-3.794-2.438-6.68c0-2.854,0.777-5.119,2.336-6.797
		c1.557-1.677,3.605-2.516,6.148-2.516c2.354,0,4.168,0.688,5.445,2.062c1.275,1.375,1.914,3.328,1.914,5.859V908.02z
		 M692.566,905.77c-0.012-1.541-0.398-2.734-1.164-3.578s-1.93-1.266-3.492-1.266c-1.574,0-2.826,0.464-3.758,1.391
		c-0.934,0.928-1.461,2.078-1.586,3.453H692.566z"/>
	<path d="M710.77,902.191h-0.156c-0.438-0.104-0.863-0.18-1.273-0.227c-0.412-0.047-0.898-0.07-1.461-0.07
		c-0.906,0-1.781,0.201-2.625,0.602c-0.844,0.401-1.656,0.92-2.438,1.555v12.391h-2.938v-17.453h2.938v2.578
		c1.166-0.938,2.195-1.602,3.086-1.992s1.799-0.586,2.727-0.586c0.51,0,0.879,0.014,1.109,0.039
		c0.229,0.026,0.572,0.076,1.031,0.148V902.191z"/>
	<path d="M733.223,916.441h-9.188v-2.375h3.047v-18.516h-3.047v-2.375h9.188v2.375h-3.047v18.516h3.047V916.441z"/>
	<path d="M752.848,916.441h-2.938v-9.938c0-0.802-0.047-1.555-0.141-2.258s-0.266-1.252-0.516-1.648
		c-0.262-0.438-0.637-0.763-1.125-0.977c-0.49-0.213-1.125-0.32-1.906-0.32c-0.803,0-1.641,0.198-2.516,0.594
		c-0.875,0.396-1.715,0.901-2.516,1.516v13.031h-2.938v-17.453h2.938v1.938c0.916-0.76,1.863-1.354,2.844-1.781
		c0.979-0.427,1.984-0.641,3.016-0.641c1.885,0,3.322,0.568,4.312,1.703c0.988,1.136,1.484,2.771,1.484,4.906V916.441z"/>
	<path d="M767.566,916.285c-0.553,0.146-1.154,0.266-1.805,0.359c-0.652,0.094-1.232,0.141-1.742,0.141
		c-1.781,0-3.137-0.479-4.062-1.438c-0.928-0.958-1.391-2.494-1.391-4.609v-9.281h-1.984v-2.469h1.984v-5.016h2.938v5.016h6.062
		v2.469h-6.062v7.953c0,0.917,0.02,1.633,0.062,2.148c0.041,0.516,0.188,0.998,0.438,1.445c0.229,0.417,0.543,0.722,0.945,0.914
		c0.4,0.193,1.012,0.289,1.836,0.289c0.479,0,0.979-0.07,1.5-0.211c0.52-0.141,0.895-0.258,1.125-0.352h0.156V916.285z"/>
	<path d="M785.723,908.02h-12.859c0,1.073,0.16,2.008,0.484,2.805c0.322,0.797,0.766,1.451,1.328,1.961
		c0.541,0.5,1.184,0.875,1.93,1.125c0.744,0.25,1.564,0.375,2.461,0.375c1.188,0,2.383-0.236,3.586-0.711
		c1.203-0.474,2.059-0.939,2.57-1.398h0.156v3.203c-0.99,0.417-2,0.766-3.031,1.047s-2.115,0.422-3.25,0.422
		c-2.896,0-5.156-0.783-6.781-2.352c-1.625-1.567-2.438-3.794-2.438-6.68c0-2.854,0.777-5.119,2.336-6.797
		c1.557-1.677,3.605-2.516,6.148-2.516c2.354,0,4.168,0.688,5.445,2.062c1.275,1.375,1.914,3.328,1.914,5.859V908.02z
		 M782.863,905.77c-0.012-1.541-0.398-2.734-1.164-3.578s-1.93-1.266-3.492-1.266c-1.574,0-2.826,0.464-3.758,1.391
		c-0.934,0.928-1.461,2.078-1.586,3.453H782.863z"/>
	<path d="M801.066,902.191h-0.156c-0.438-0.104-0.863-0.18-1.273-0.227c-0.412-0.047-0.898-0.07-1.461-0.07
		c-0.906,0-1.781,0.201-2.625,0.602c-0.844,0.401-1.656,0.92-2.438,1.555v12.391h-2.938v-17.453h2.938v2.578
		c1.166-0.938,2.195-1.602,3.086-1.992s1.799-0.586,2.727-0.586c0.51,0,0.879,0.014,1.109,0.039
		c0.229,0.026,0.572,0.076,1.031,0.148V902.191z"/>
	<path d="M816.832,916.441h-2.922v-1.859c-0.262,0.178-0.613,0.425-1.055,0.742c-0.443,0.318-0.873,0.57-1.289,0.758
		c-0.49,0.24-1.053,0.439-1.688,0.602c-0.637,0.161-1.381,0.242-2.234,0.242c-1.574,0-2.906-0.521-4-1.562
		c-1.094-1.041-1.641-2.369-1.641-3.984c0-1.322,0.283-2.393,0.852-3.211c0.566-0.817,1.377-1.461,2.43-1.93
		c1.062-0.469,2.338-0.786,3.828-0.953c1.488-0.166,3.088-0.291,4.797-0.375v-0.453c0-0.666-0.117-1.219-0.352-1.656
		s-0.57-0.781-1.008-1.031c-0.418-0.239-0.918-0.4-1.5-0.484c-0.584-0.083-1.193-0.125-1.828-0.125
		c-0.771,0-1.631,0.102-2.578,0.305c-0.949,0.203-1.928,0.498-2.938,0.883h-0.156v-2.984c0.572-0.156,1.4-0.328,2.484-0.516
		c1.082-0.188,2.15-0.281,3.203-0.281c1.229,0,2.299,0.102,3.211,0.305c0.91,0.203,1.699,0.55,2.367,1.039
		c0.656,0.479,1.156,1.1,1.5,1.859c0.344,0.761,0.516,1.703,0.516,2.828V916.441z M813.91,912.145v-4.859
		c-0.896,0.053-1.951,0.131-3.164,0.234c-1.215,0.104-2.176,0.256-2.883,0.453c-0.844,0.24-1.527,0.612-2.047,1.117
		c-0.521,0.506-0.781,1.201-0.781,2.086c0,1,0.301,1.753,0.906,2.258c0.604,0.506,1.525,0.758,2.766,0.758
		c1.031,0,1.973-0.2,2.828-0.602C812.389,913.189,813.18,912.707,813.91,912.145z"/>
	<path d="M835.395,915.348c-0.98,0.469-1.91,0.834-2.789,1.094c-0.881,0.26-1.816,0.391-2.805,0.391
		c-1.262,0-2.418-0.186-3.469-0.555c-1.053-0.369-1.953-0.93-2.703-1.68c-0.762-0.75-1.35-1.697-1.766-2.844
		c-0.418-1.146-0.625-2.484-0.625-4.016c0-2.854,0.783-5.094,2.352-6.719c1.566-1.625,3.637-2.438,6.211-2.438
		c1,0,1.98,0.141,2.945,0.422c0.963,0.281,1.846,0.625,2.648,1.031v3.266h-0.156c-0.896-0.697-1.82-1.234-2.773-1.609
		s-1.883-0.562-2.789-0.562c-1.668,0-2.982,0.561-3.945,1.68c-0.965,1.12-1.445,2.764-1.445,4.93c0,2.104,0.471,3.722,1.414,4.852
		c0.941,1.131,2.268,1.695,3.977,1.695c0.594,0,1.197-0.078,1.812-0.234c0.613-0.156,1.166-0.359,1.656-0.609
		c0.426-0.219,0.828-0.45,1.203-0.695c0.375-0.244,0.672-0.455,0.891-0.633h0.156V915.348z"/>
	<path d="M848.223,916.285c-0.553,0.146-1.154,0.266-1.805,0.359c-0.652,0.094-1.232,0.141-1.742,0.141
		c-1.781,0-3.137-0.479-4.062-1.438c-0.928-0.958-1.391-2.494-1.391-4.609v-9.281h-1.984v-2.469h1.984v-5.016h2.938v5.016h6.062
		v2.469h-6.062v7.953c0,0.917,0.02,1.633,0.062,2.148c0.041,0.516,0.188,0.998,0.438,1.445c0.229,0.417,0.543,0.722,0.945,0.914
		c0.4,0.193,1.012,0.289,1.836,0.289c0.479,0,0.979-0.07,1.5-0.211c0.52-0.141,0.895-0.258,1.125-0.352h0.156V916.285z"/>
	<path d="M854.926,896.066h-3.312v-3.047h3.312V896.066z M854.738,916.441h-2.938v-17.453h2.938V916.441z"/>
	<path d="M875.426,907.723c0,2.844-0.73,5.089-2.188,6.734c-1.459,1.646-3.412,2.469-5.859,2.469c-2.469,0-4.43-0.822-5.883-2.469
		c-1.453-1.646-2.18-3.891-2.18-6.734s0.727-5.091,2.18-6.742c1.453-1.65,3.414-2.477,5.883-2.477c2.447,0,4.4,0.826,5.859,2.477
		C874.695,902.632,875.426,904.879,875.426,907.723z M872.395,907.723c0-2.26-0.443-3.939-1.328-5.039
		c-0.887-1.099-2.115-1.648-3.688-1.648c-1.594,0-2.832,0.55-3.711,1.648c-0.881,1.1-1.32,2.779-1.32,5.039
		c0,2.188,0.441,3.847,1.328,4.977c0.885,1.131,2.119,1.695,3.703,1.695c1.562,0,2.789-0.56,3.68-1.68
		C871.949,911.596,872.395,909.932,872.395,907.723z"/>
	<path d="M894.566,916.441h-2.938v-9.938c0-0.802-0.047-1.555-0.141-2.258s-0.266-1.252-0.516-1.648
		c-0.262-0.438-0.637-0.763-1.125-0.977c-0.49-0.213-1.125-0.32-1.906-0.32c-0.803,0-1.641,0.198-2.516,0.594
		c-0.875,0.396-1.715,0.901-2.516,1.516v13.031h-2.938v-17.453h2.938v1.938c0.916-0.76,1.863-1.354,2.844-1.781
		c0.979-0.427,1.984-0.641,3.016-0.641c1.885,0,3.322,0.568,4.312,1.703c0.988,1.136,1.484,2.771,1.484,4.906V916.441z"/>
</g>
<circle fill="#787878" stroke="#C8C8C8" stroke-width="5" cx="521.625" cy="567.627" r="75"/>
<circle fill="none" stroke="#C8C8C8" stroke-width="5" cx="521.625" cy="567.627" r="17"/>
<circle fill="#C8C8C8" cx="491.625" cy="526.627" r="13"/>
<circle fill="#C8C8C8" cx="551.625" cy="526.627" r="13"/>
<circle fill="#C8C8C8" cx="551.625" cy="609.627" r="13"/>
<line fill="none" stroke="#C8C8C8" stroke-width="5" x1="545.292" y1="535.961" x2="532.792" y2="553.127"/>
<line fill="none" stroke="#C8C8C8" stroke-width="5" x1="498.125" y1="536.127" x2="510.792" y2="553.294"/>
<line fill="none" stroke="#C8C8C8" stroke-width="5" x1="544.792" y1="600.794" x2="531.792" y2="582.127"/>
</svg>
