<?xml version="1.0" encoding="utf-8"?>
<!-- Generator: Adobe Illustrator 13.0.0, SVG Export Plug-In . SVG Version: 6.00 Build 14948)  -->
<!DOCTYPE svg PUBLIC "-//W3C//DTD SVG 1.1//EN" "http://www.w3.org/Graphics/SVG/1.1/DTD/svg11.dtd">
<svg version="1.1" id="Layer_1" xmlns="http://www.w3.org/2000/svg" xmlns:xlink="http://www.w3.org/1999/xlink" x="0px" y="0px"
	 width="252px" height="252px" viewBox="0 0 252 252" enable-background="new 0 0 252 252" xml:space="preserve">
<g>
	<g>
		<polygon fill="#EB2D14" points="246,126 193.238,73.238 193.238,107.983 142.408,107.983 142.408,57.153 177.152,57.153 126,6 
			74.847,57.153 108.948,57.153 108.948,107.983 58.118,107.983 58.118,73.882 6,126 57.475,177.475 57.475,141.442 
			108.305,141.442 108.305,192.273 72.273,192.273 126,246 179.727,192.273 142.408,192.273 142.408,141.442 193.238,141.442 
			193.238,178.762 		"/>
	</g>
	<g>
		<polygon fill="none" stroke="#000000" stroke-width="12" stroke-linecap="round" stroke-linejoin="round" points="246,126 
			193.238,73.238 193.238,107.983 142.408,107.983 142.408,57.153 177.152,57.153 126,6 74.847,57.153 108.948,57.153 
			108.948,107.983 58.118,107.983 58.118,73.882 6,126 57.475,177.475 57.475,141.442 108.305,141.442 108.305,192.273 
			72.273,192.273 126,246 179.727,192.273 142.408,192.273 142.408,141.442 193.238,141.442 193.238,178.762 		"/>
	</g>
</g>
</svg>
