<?xml version="1.0" encoding="utf-8"?>
<!-- Generator: Adobe Illustrator 13.0.0, SVG Export Plug-In . SVG Version: 6.00 Build 14948)  -->
<!DOCTYPE svg PUBLIC "-//W3C//DTD SVG 1.1//EN" "http://www.w3.org/Graphics/SVG/1.1/DTD/svg11.dtd">
<svg version="1.1" id="Layer_1" xmlns="http://www.w3.org/2000/svg" xmlns:xlink="http://www.w3.org/1999/xlink" x="0px" y="0px"
	 width="1264.25px" height="982.254px" viewBox="0 0 1264.25 982.254" enable-background="new 0 0 1264.25 982.254"
	 xml:space="preserve">
<g enable-background="new    ">
	<path d="M72.891,83.13H68.25V53.06l-9.703,20.461h-2.766L46.148,53.06v30.07h-4.336V48.232h6.328l9.305,19.43l9-19.43h6.445
		L72.891,83.13L72.891,83.13z"/>
	<path d="M102.258,83.13h-4.383v-2.789c-0.391,0.266-0.918,0.637-1.582,1.113s-1.309,0.855-1.934,1.137
		c-0.734,0.359-1.578,0.66-2.531,0.902c-0.953,0.242-2.07,0.363-3.352,0.363c-2.359,0-4.359-0.781-6-2.344
		c-1.641-1.562-2.461-3.555-2.461-5.977c0-1.984,0.426-3.59,1.277-4.816c0.851-1.226,2.066-2.191,3.645-2.895
		c1.594-0.703,3.508-1.18,5.742-1.43c2.234-0.25,4.633-0.438,7.195-0.562v-0.68c0-1-0.176-1.828-0.527-2.484
		c-0.351-0.656-0.855-1.172-1.512-1.547c-0.625-0.359-1.375-0.602-2.25-0.727s-1.789-0.188-2.742-0.188
		c-1.156,0-2.445,0.152-3.867,0.457c-1.422,0.305-2.891,0.746-4.406,1.324h-0.234V57.51c0.859-0.234,2.102-0.492,3.727-0.773
		c1.625-0.281,3.227-0.422,4.805-0.422c1.844,0,3.449,0.152,4.816,0.457c1.367,0.305,2.551,0.824,3.551,1.559
		c0.984,0.719,1.734,1.648,2.25,2.789c0.516,1.141,0.773,2.555,0.773,4.242V83.13z M97.875,76.685v-7.289
		c-1.344,0.078-2.926,0.195-4.746,0.352c-1.82,0.157-3.262,0.383-4.324,0.68c-1.266,0.359-2.289,0.918-3.07,1.676
		c-0.781,0.758-1.172,1.801-1.172,3.129c0,1.5,0.453,2.629,1.359,3.387c0.906,0.758,2.289,1.137,4.148,1.137
		c1.547,0,2.961-0.301,4.242-0.902S96.781,77.529,97.875,76.685z"/>
	<path d="M132.633,83.13h-4.406V68.224c0-1.203-0.07-2.332-0.211-3.387c-0.141-1.055-0.398-1.879-0.773-2.473
		c-0.391-0.656-0.953-1.146-1.688-1.465c-0.735-0.32-1.688-0.48-2.859-0.48c-1.203,0-2.461,0.297-3.773,0.891
		c-1.312,0.594-2.57,1.352-3.773,2.273V83.13h-4.406V56.95h4.406v2.906c1.375-1.141,2.797-2.031,4.266-2.672
		c1.469-0.641,2.977-0.961,4.523-0.961c2.828,0,4.984,0.852,6.469,2.555c1.485,1.703,2.227,4.156,2.227,7.359V83.13H132.633z"/>
	<path d="M145.852,52.568h-4.969v-4.57h4.969V52.568z M145.57,83.13h-4.406V56.95h4.406V83.13z"/>
	<path d="M177.328,69.724c0,2.125-0.305,4.066-0.914,5.824c-0.609,1.758-1.469,3.246-2.578,4.465
		c-1.031,1.156-2.246,2.051-3.645,2.684c-1.399,0.633-2.879,0.949-4.441,0.949c-1.359,0-2.59-0.148-3.691-0.445
		c-1.101-0.297-2.223-0.758-3.363-1.383v10.969h-4.406V56.951h4.406v2.742c1.172-0.984,2.488-1.809,3.949-2.473
		c1.461-0.664,3.02-0.996,4.676-0.996c3.156,0,5.613,1.191,7.371,3.574C176.45,62.181,177.328,65.49,177.328,69.724z
		 M172.781,69.841c0-3.156-0.539-5.516-1.617-7.078s-2.734-2.344-4.969-2.344c-1.266,0-2.539,0.273-3.82,0.82
		c-1.281,0.547-2.508,1.266-3.68,2.156v14.836c1.25,0.562,2.324,0.945,3.223,1.148s1.918,0.305,3.059,0.305
		c2.453,0,4.367-0.828,5.742-2.484C172.094,75.544,172.781,73.091,172.781,69.841z"/>
	<path d="M205.898,83.13h-4.406v-2.906c-1.484,1.172-2.906,2.07-4.266,2.695s-2.859,0.938-4.5,0.938c-2.75,0-4.891-0.84-6.422-2.52
		c-1.531-1.68-2.297-4.145-2.297-7.395V56.951h4.406v14.906c0,1.328,0.062,2.465,0.188,3.41c0.126,0.945,0.391,1.754,0.797,2.426
		c0.422,0.688,0.969,1.188,1.641,1.5s1.648,0.469,2.93,0.469c1.141,0,2.387-0.297,3.738-0.891s2.613-1.352,3.785-2.273V56.951h4.406
		V83.13L205.898,83.13z"/>
	<path d="M219.023,83.13h-4.406V46.662h4.406V83.13z"/>
	<path d="M248.086,83.13h-4.383v-2.789c-0.391,0.266-0.918,0.637-1.582,1.113s-1.309,0.855-1.934,1.137
		c-0.734,0.359-1.578,0.66-2.531,0.902c-0.953,0.242-2.07,0.363-3.352,0.363c-2.359,0-4.359-0.781-6-2.344
		c-1.641-1.562-2.461-3.555-2.461-5.977c0-1.984,0.426-3.59,1.277-4.816c0.851-1.226,2.066-2.191,3.645-2.895
		c1.594-0.703,3.508-1.18,5.742-1.43c2.234-0.25,4.633-0.438,7.195-0.562v-0.68c0-1-0.176-1.828-0.527-2.484
		c-0.351-0.656-0.855-1.172-1.512-1.547c-0.625-0.359-1.375-0.602-2.25-0.727s-1.789-0.188-2.742-0.188
		c-1.156,0-2.445,0.152-3.867,0.457c-1.422,0.305-2.891,0.746-4.406,1.324h-0.234V57.51c0.859-0.234,2.102-0.492,3.727-0.773
		c1.625-0.281,3.227-0.422,4.805-0.422c1.844,0,3.449,0.152,4.816,0.457c1.367,0.305,2.551,0.824,3.551,1.559
		c0.984,0.719,1.734,1.648,2.25,2.789c0.516,1.141,0.773,2.555,0.773,4.242V83.13L248.086,83.13z M243.703,76.685v-7.289
		c-1.344,0.078-2.926,0.195-4.746,0.352c-1.82,0.157-3.262,0.383-4.324,0.68c-1.266,0.359-2.289,0.918-3.07,1.676
		s-1.172,1.801-1.172,3.129c0,1.5,0.453,2.629,1.359,3.387c0.906,0.758,2.289,1.137,4.148,1.137c1.547,0,2.961-0.301,4.242-0.902
		C241.421,78.254,242.609,77.529,243.703,76.685z"/>
	<path d="M270.164,82.896c-0.828,0.219-1.73,0.398-2.707,0.539s-1.848,0.211-2.613,0.211c-2.672,0-4.703-0.719-6.094-2.156
		c-1.391-1.438-2.086-3.742-2.086-6.914V60.654h-2.977v-3.703h2.977v-7.523h4.406v7.523h9.094v3.703h-9.094v11.93
		c0,1.375,0.031,2.449,0.094,3.223s0.281,1.496,0.656,2.168c0.344,0.625,0.816,1.082,1.418,1.371
		c0.602,0.289,1.52,0.434,2.754,0.434c0.719,0,1.469-0.105,2.25-0.316c0.781-0.211,1.344-0.387,1.688-0.527h0.234V82.896z"/>
	<path d="M297.398,70.498h-19.289c0,1.609,0.242,3.012,0.727,4.207c0.485,1.195,1.148,2.176,1.992,2.941
		c0.812,0.75,1.777,1.312,2.895,1.688c1.118,0.376,2.348,0.562,3.691,0.562c1.781,0,3.574-0.355,5.379-1.066s3.09-1.41,3.855-2.098
		h0.234v4.805c-1.484,0.625-3,1.148-4.547,1.57s-3.172,0.633-4.875,0.633c-4.344,0-7.734-1.176-10.172-3.527
		s-3.656-5.691-3.656-10.02c0-4.281,1.168-7.68,3.504-10.195c2.336-2.515,5.41-3.773,9.223-3.773c3.531,0,6.254,1.031,8.168,3.094
		s2.871,4.992,2.871,8.789V70.498z M293.109,67.123c-0.016-2.312-0.598-4.102-1.746-5.367c-1.148-1.265-2.895-1.898-5.238-1.898
		c-2.359,0-4.238,0.695-5.637,2.086c-1.399,1.391-2.191,3.117-2.379,5.18L293.109,67.123L293.109,67.123z"/>
	<path d="M361.922,48.232l-9.07,34.898h-5.227l-7.336-28.969l-7.172,28.969h-5.109l-9.232-34.898h4.758l7.336,29.016l7.219-29.016
		h4.711l7.289,29.297l7.289-29.297H361.922z"/>
	<path d="M373.148,52.568h-4.971v-4.57h4.971V52.568z M372.867,83.13h-4.406V56.95h4.406V83.13z"/>
	<path d="M403.477,83.13h-4.404V68.224c0-1.203-0.07-2.332-0.211-3.387c-0.143-1.055-0.398-1.879-0.773-2.473
		c-0.391-0.656-0.953-1.146-1.688-1.465c-0.735-0.32-1.688-0.48-2.859-0.48c-1.203,0-2.461,0.297-3.773,0.891
		c-1.312,0.594-2.568,1.352-3.771,2.273V83.13h-4.406V56.95h4.406v2.906c1.375-1.141,2.797-2.031,4.266-2.672
		s2.979-0.961,4.523-0.961c2.828,0,4.982,0.852,6.469,2.555c1.485,1.703,2.227,4.156,2.227,7.359V83.13H403.477z"/>
	<path d="M433.195,83.13h-4.406v-2.742c-1.266,1.094-2.586,1.945-3.961,2.555c-1.375,0.61-2.867,0.914-4.479,0.914
		c-3.125,0-5.604-1.203-7.439-3.609c-1.836-2.406-2.754-5.742-2.754-10.008c0-2.219,0.314-4.195,0.949-5.93
		c0.633-1.735,1.486-3.211,2.564-4.43c1.062-1.188,2.301-2.094,3.715-2.719s2.879-0.938,4.396-0.938
		c1.375,0,2.594,0.145,3.656,0.434c1.062,0.289,2.18,0.738,3.352,1.348V46.662h4.406V83.13z M428.789,76.685V61.662
		c-1.188-0.531-2.25-0.898-3.188-1.102c-0.938-0.204-1.961-0.305-3.068-0.305c-2.469,0-4.393,0.859-5.768,2.578
		s-2.062,4.156-2.062,7.312c0,3.109,0.531,5.473,1.594,7.09c1.063,1.617,2.766,2.426,5.109,2.426c1.25,0,2.516-0.277,3.797-0.832
		C426.484,78.274,427.68,77.56,428.789,76.685z"/>
	<path d="M464.18,70.052c0,4.266-1.094,7.633-3.279,10.102c-2.188,2.469-5.117,3.703-8.789,3.703c-3.703,0-6.646-1.234-8.824-3.703
		c-2.179-2.469-3.271-5.836-3.271-10.102c0-4.266,1.092-7.637,3.271-10.113s5.121-3.715,8.824-3.715
		c3.672,0,6.602,1.238,8.789,3.715C463.086,62.416,464.18,65.787,464.18,70.052z M459.633,70.052c0-3.391-0.664-5.91-1.992-7.559
		c-1.328-1.649-3.172-2.473-5.529-2.473c-2.393,0-4.246,0.824-5.566,2.473c-1.32,1.649-1.979,4.168-1.979,7.559
		c0,3.281,0.662,5.771,1.99,7.465s3.182,2.543,5.557,2.543c2.344,0,4.184-0.84,5.52-2.52
		C458.967,75.86,459.633,73.365,459.633,70.052z"/>
	<path d="M503.93,56.951l-6.818,26.18h-4.078l-6.729-20.18l-6.68,20.18h-4.055l-6.893-26.18h4.596l4.805,20.273l6.539-20.273h3.633
		l6.703,20.273l4.547-20.273H503.93z"/>
	<path d="M528.984,75.583c0,2.391-0.988,4.352-2.967,5.883c-1.977,1.531-4.676,2.297-8.098,2.297c-1.938,0-3.715-0.23-5.332-0.691
		c-1.617-0.461-2.973-0.965-4.064-1.512v-4.945h0.232c1.393,1.047,2.938,1.879,4.643,2.496c1.702,0.617,3.336,0.926,4.896,0.926
		c1.938,0,3.453-0.312,4.547-0.938c1.095-0.626,1.643-1.609,1.643-2.953c0-1.031-0.297-1.812-0.893-2.344
		c-0.594-0.532-1.732-0.984-3.422-1.359c-0.625-0.141-1.439-0.305-2.449-0.492c-1.008-0.187-1.926-0.391-2.754-0.609
		c-2.297-0.609-3.926-1.504-4.887-2.684c-0.961-1.18-1.441-2.629-1.441-4.348c0-1.078,0.225-2.094,0.668-3.047
		c0.445-0.953,1.121-1.805,2.027-2.555c0.875-0.734,1.988-1.316,3.34-1.746c1.354-0.43,2.863-0.645,4.535-0.645
		c1.562,0,3.146,0.191,4.746,0.574c1.601,0.383,2.934,0.848,3.996,1.395v4.711h-0.234c-1.125-0.828-2.492-1.527-4.102-2.098
		c-1.61-0.571-3.188-0.855-4.734-0.855c-1.607,0-2.969,0.309-4.078,0.926c-1.107,0.617-1.664,1.535-1.664,2.754
		c0,1.078,0.336,1.891,1.009,2.438c0.655,0.547,1.72,0.992,3.188,1.336c0.812,0.188,1.723,0.375,2.729,0.562
		c1.008,0.187,1.849,0.359,2.521,0.516c2.047,0.469,3.625,1.273,4.734,2.414C528.43,72.146,528.984,73.677,528.984,75.583z"/>
</g>
<g enable-background="new    ">
	<path d="M763.781,80.599c-0.859,0.375-1.639,0.727-2.332,1.055c-0.695,0.328-1.605,0.672-2.73,1.031
		c-0.953,0.297-1.986,0.551-3.104,0.762c-1.117,0.211-2.35,0.316-3.691,0.316c-2.529,0-4.832-0.355-6.9-1.066
		c-2.07-0.711-3.871-1.824-5.402-3.34c-1.5-1.484-2.672-3.371-3.516-5.66c-0.846-2.289-1.268-4.949-1.268-7.98
		c0-2.875,0.406-5.445,1.22-7.711c0.812-2.266,1.983-4.18,3.517-5.742c1.483-1.516,3.276-2.672,5.379-3.469
		c2.102-0.797,4.434-1.195,6.996-1.195c1.875,0,3.746,0.227,5.613,0.68c1.865,0.453,3.939,1.25,6.223,2.391v5.508h-0.353
		c-1.923-1.609-3.827-2.781-5.72-3.516c-1.891-0.735-3.914-1.102-6.068-1.102c-1.768,0-3.355,0.285-4.771,0.855
		s-2.676,1.457-3.785,2.66c-1.078,1.172-1.918,2.652-2.52,4.441c-0.604,1.789-0.902,3.855-0.902,6.199
		c0,2.453,0.332,4.562,0.996,6.328s1.521,3.203,2.566,4.312c1.094,1.156,2.369,2.012,3.83,2.566
		c1.463,0.554,3.006,0.832,4.631,0.832c2.232,0,4.326-0.383,6.279-1.148s3.781-1.914,5.484-3.445h0.328V80.599L763.781,80.599z"/>
	<path d="M792.305,70.052c0,4.266-1.094,7.633-3.279,10.102c-2.188,2.469-5.117,3.703-8.789,3.703c-3.703,0-6.646-1.234-8.824-3.703
		c-2.179-2.469-3.271-5.836-3.271-10.102c0-4.266,1.092-7.637,3.271-10.113s5.121-3.715,8.824-3.715
		c3.672,0,6.602,1.238,8.789,3.715C791.211,62.416,792.305,65.787,792.305,70.052z M787.758,70.052c0-3.391-0.664-5.91-1.992-7.559
		c-1.328-1.649-3.172-2.473-5.529-2.473c-2.393,0-4.246,0.824-5.566,2.473c-1.32,1.649-1.979,4.168-1.979,7.559
		c0,3.281,0.664,5.771,1.99,7.465c1.328,1.695,3.182,2.543,5.557,2.543c2.344,0,4.184-0.84,5.52-2.52
		C787.092,75.86,787.758,73.365,787.758,70.052z"/>
	<path d="M821.016,83.13h-4.404V68.224c0-1.203-0.07-2.332-0.211-3.387c-0.143-1.055-0.398-1.879-0.773-2.473
		c-0.391-0.656-0.953-1.146-1.688-1.465c-0.734-0.32-1.688-0.48-2.858-0.48c-1.203,0-2.461,0.297-3.773,0.891
		c-1.312,0.594-2.568,1.352-3.771,2.273V83.13h-4.406V56.95h4.406v2.906c1.375-1.141,2.797-2.031,4.266-2.672
		c1.47-0.641,2.979-0.961,4.523-0.961c2.828,0,4.982,0.852,6.469,2.555c1.485,1.703,2.228,4.156,2.228,7.359V83.13H821.016z"/>
	<path d="M843.094,82.896c-0.828,0.219-1.729,0.398-2.707,0.539c-0.977,0.141-1.848,0.211-2.611,0.211
		c-2.674,0-4.703-0.719-6.096-2.156c-1.391-1.438-2.086-3.742-2.086-6.914V60.654h-2.977v-3.703h2.977v-7.523H834v7.523h9.094v3.703
		H834v11.93c0,1.375,0.031,2.449,0.094,3.223c0.063,0.774,0.281,1.496,0.656,2.168c0.344,0.625,0.816,1.082,1.418,1.371
		c0.604,0.289,1.521,0.434,2.754,0.434c0.719,0,1.469-0.105,2.25-0.316s1.344-0.387,1.688-0.527h0.232L843.094,82.896
		L843.094,82.896z"/>
	<path d="M864.75,61.755h-0.234c-0.654-0.156-1.293-0.27-1.908-0.34c-0.617-0.07-1.35-0.105-2.191-0.105
		c-1.359,0-2.672,0.301-3.938,0.902c-1.267,0.601-2.483,1.379-3.655,2.332V83.13h-4.406V56.95h4.406v3.867
		c1.75-1.406,3.293-2.402,4.629-2.988s2.699-0.879,4.09-0.879c0.766,0,1.32,0.02,1.664,0.059c0.344,0.039,0.859,0.113,1.547,0.223
		L864.75,61.755L864.75,61.755z"/>
	<path d="M891.211,70.052c0,4.266-1.094,7.633-3.281,10.102c-2.187,2.469-5.117,3.703-8.789,3.703c-3.703,0-6.645-1.234-8.822-3.703
		c-2.181-2.469-3.271-5.836-3.271-10.102c0-4.266,1.09-7.637,3.271-10.113c2.18-2.476,5.119-3.715,8.822-3.715
		c3.672,0,6.604,1.238,8.789,3.715C890.117,62.416,891.211,65.787,891.211,70.052z M886.664,70.052c0-3.391-0.664-5.91-1.992-7.559
		c-1.328-1.649-3.172-2.473-5.531-2.473c-2.391,0-4.246,0.824-5.564,2.473c-1.32,1.649-1.98,4.168-1.98,7.559
		c0,3.281,0.664,5.771,1.992,7.465s3.18,2.543,5.555,2.543c2.346,0,4.186-0.84,5.521-2.52
		C885.998,75.86,886.664,73.365,886.664,70.052z"/>
	<path d="M902.484,83.13h-4.406V46.662h4.406V83.13z"/>
</g>
<text transform="matrix(1 0 0 1 906.8672 83.1309)" font-family="'Verdana'" font-size="48"> </text>
<g enable-background="new    ">
	<path d="M953.354,83.13h-4.943l-3.422-9.727h-15.096l-3.422,9.727h-4.711l12.703-34.898h6.188L953.354,83.13z M943.557,69.419
		l-6.115-17.133l-6.143,17.133H943.557z"/>
	<path d="M981.338,69.724c0,2.125-0.305,4.066-0.914,5.824c-0.607,1.758-1.469,3.246-2.578,4.465
		c-1.029,1.156-2.246,2.051-3.645,2.684c-1.399,0.633-2.879,0.949-4.441,0.949c-1.357,0-2.59-0.148-3.689-0.445
		c-1.103-0.297-2.225-0.758-3.363-1.383v10.969H958.3V56.951h4.406v2.742c1.172-0.984,2.488-1.809,3.949-2.473
		c1.461-0.664,3.02-0.996,4.676-0.996c3.156,0,5.613,1.191,7.371,3.574C980.46,62.181,981.338,65.49,981.338,69.724z
		 M976.791,69.841c0-3.156-0.539-5.516-1.617-7.078s-2.732-2.344-4.969-2.344c-1.266,0-2.539,0.273-3.82,0.82
		c-1.281,0.547-2.508,1.266-3.68,2.156v14.836c1.25,0.562,2.324,0.945,3.223,1.148c0.899,0.203,1.918,0.305,3.061,0.305
		c2.453,0,4.367-0.828,5.742-2.484C976.104,75.544,976.791,73.091,976.791,69.841z"/>
	<path d="M1011.244,69.724c0,2.125-0.305,4.066-0.914,5.824c-0.609,1.758-1.469,3.246-2.578,4.465
		c-1.031,1.156-2.246,2.051-3.645,2.684c-1.399,0.633-2.881,0.949-4.441,0.949c-1.359,0-2.59-0.148-3.691-0.445
		c-1.101-0.297-2.223-0.758-3.361-1.383v10.969h-4.406V56.951h4.406v2.742c1.172-0.984,2.486-1.809,3.947-2.473
		c1.463-0.664,3.021-0.996,4.678-0.996c3.154,0,5.611,1.191,7.371,3.574C1010.366,62.181,1011.244,65.49,1011.244,69.724z
		 M1006.697,69.841c0-3.156-0.539-5.516-1.617-7.078s-2.734-2.344-4.969-2.344c-1.268,0-2.539,0.273-3.82,0.82
		c-1.281,0.547-2.508,1.266-3.68,2.156v14.836c1.25,0.562,2.322,0.945,3.223,1.148s1.918,0.305,3.059,0.305
		c2.453,0,4.367-0.828,5.742-2.484C1006.01,75.544,1006.697,73.091,1006.697,69.841z"/>
	<path d="M1022.564,83.13h-4.406V46.662h4.406V83.13z"/>
	<path d="M1036.018,52.568h-4.969v-4.57h4.969V52.568z M1035.736,83.13h-4.406V56.95h4.406V83.13z"/>
	<path d="M1063.814,81.49c-1.471,0.703-2.863,1.25-4.186,1.641c-1.321,0.391-2.723,0.586-4.207,0.586
		c-1.891,0-3.625-0.277-5.203-0.832c-1.578-0.555-2.93-1.395-4.055-2.52c-1.143-1.125-2.023-2.547-2.648-4.266
		c-0.625-1.719-0.938-3.727-0.938-6.023c0-4.281,1.176-7.641,3.525-10.078c2.353-2.437,5.457-3.656,9.316-3.656
		c1.5,0,2.973,0.211,4.418,0.633s2.771,0.938,3.973,1.547v4.898h-0.232c-1.344-1.047-2.73-1.852-4.16-2.414
		s-2.824-0.844-4.184-0.844c-2.5,0-4.475,0.84-5.918,2.52c-1.445,1.68-2.168,4.145-2.168,7.395c0,3.156,0.707,5.582,2.119,7.277
		c1.414,1.695,3.402,2.543,5.967,2.543c0.891,0,1.797-0.117,2.719-0.352s1.75-0.539,2.482-0.914
		c0.643-0.328,1.242-0.676,1.807-1.043c0.562-0.367,1.008-0.684,1.336-0.949h0.234L1063.814,81.49L1063.814,81.49z"/>
	<path d="M1089.807,83.13h-4.383v-2.789c-0.391,0.266-0.918,0.637-1.582,1.113s-1.309,0.855-1.934,1.137
		c-0.734,0.359-1.578,0.66-2.531,0.902c-0.953,0.242-2.07,0.363-3.352,0.363c-2.359,0-4.359-0.781-6-2.344
		c-1.643-1.562-2.463-3.555-2.463-5.977c0-1.984,0.428-3.59,1.277-4.816c0.851-1.226,2.066-2.191,3.646-2.895
		c1.594-0.703,3.508-1.18,5.74-1.43c2.234-0.25,4.635-0.438,7.195-0.562v-0.68c0-1-0.176-1.828-0.527-2.484
		c-0.351-0.656-0.854-1.172-1.512-1.547c-0.625-0.359-1.375-0.602-2.25-0.727s-1.789-0.188-2.742-0.188
		c-1.154,0-2.443,0.152-3.865,0.457c-1.424,0.305-2.893,0.746-4.406,1.324h-0.234V57.51c0.859-0.234,2.104-0.492,3.729-0.773
		c1.625-0.281,3.227-0.422,4.805-0.422c1.844,0,3.449,0.152,4.816,0.457c1.365,0.305,2.551,0.824,3.551,1.559
		c0.982,0.719,1.732,1.648,2.25,2.789c0.516,1.141,0.771,2.555,0.771,4.242V83.13z M1085.424,76.685v-7.289
		c-1.344,0.078-2.926,0.195-4.746,0.352c-1.818,0.157-3.262,0.383-4.324,0.68c-1.266,0.359-2.287,0.918-3.068,1.676
		s-1.172,1.801-1.172,3.129c0,1.5,0.453,2.629,1.357,3.387c0.906,0.758,2.289,1.137,4.148,1.137c1.547,0,2.961-0.301,4.242-0.902
		C1083.142,78.254,1084.33,77.529,1085.424,76.685z"/>
	<path d="M1111.885,82.896c-0.828,0.219-1.729,0.398-2.707,0.539c-0.977,0.141-1.848,0.211-2.613,0.211
		c-2.672,0-4.701-0.719-6.094-2.156c-1.391-1.438-2.086-3.742-2.086-6.914V60.654h-2.977v-3.703h2.977v-7.523h4.406v7.523h9.094
		v3.703h-9.094v11.93c0,1.375,0.031,2.449,0.094,3.223c0.063,0.774,0.281,1.496,0.656,2.168c0.344,0.625,0.816,1.082,1.418,1.371
		c0.602,0.289,1.52,0.434,2.754,0.434c0.719,0,1.469-0.105,2.25-0.316s1.344-0.387,1.688-0.527h0.234V82.896L1111.885,82.896z"/>
	<path d="M1121.939,52.568h-4.971v-4.57h4.971V52.568z M1121.658,83.13h-4.406V56.95h4.406V83.13z"/>
	<path d="M1152.689,70.052c0,4.266-1.096,7.633-3.281,10.102c-2.188,2.469-5.117,3.703-8.789,3.703
		c-3.703,0-6.646-1.234-8.824-3.703c-2.179-2.469-3.27-5.836-3.27-10.102c0-4.266,1.09-7.637,3.27-10.113s5.121-3.715,8.824-3.715
		c3.672,0,6.602,1.238,8.789,3.715C1151.595,62.416,1152.689,65.787,1152.689,70.052z M1148.143,70.052
		c0-3.391-0.664-5.91-1.99-7.559c-1.328-1.649-3.174-2.473-5.531-2.473c-2.393,0-4.246,0.824-5.566,2.473
		c-1.318,1.649-1.979,4.168-1.979,7.559c0,3.281,0.664,5.771,1.992,7.465c1.326,1.695,3.18,2.543,5.555,2.543
		c2.344,0,4.184-0.84,5.52-2.52C1147.477,75.86,1148.143,73.365,1148.143,70.052z"/>
	<path d="M1181.4,83.13h-4.406V68.224c0-1.203-0.07-2.332-0.211-3.387c-0.143-1.055-0.398-1.879-0.773-2.473
		c-0.391-0.656-0.953-1.146-1.688-1.465c-0.735-0.32-1.688-0.48-2.859-0.48c-1.203,0-2.461,0.297-3.771,0.891
		c-1.312,0.594-2.57,1.352-3.773,2.273V83.13h-4.406V56.95h4.406v2.906c1.375-1.141,2.797-2.031,4.268-2.672
		c1.469-0.641,2.977-0.961,4.521-0.961c2.828,0,4.984,0.852,6.469,2.555c1.485,1.703,2.229,4.156,2.229,7.359V83.13H1181.4z"/>
</g>
<g>
	<g enable-background="new    ">
		<path d="M533.964,188.658c0,1.359-0.314,2.703-0.949,4.031c-0.633,1.328-1.52,2.453-2.658,3.375c-1.25,1-2.707,1.781-4.371,2.344
			s-3.668,0.844-6.014,0.844c-2.516,0-4.775-0.234-6.783-0.703c-2.01-0.469-4.053-1.164-6.131-2.086v-5.812h0.328
			c1.768,1.469,3.807,2.602,6.117,3.398c2.312,0.796,4.484,1.195,6.518,1.195c2.875,0,5.111-0.539,6.715-1.617
			c1.602-1.078,2.4-2.516,2.4-4.312c0-1.547-0.379-2.688-1.137-3.422s-1.91-1.305-3.457-1.711c-1.172-0.312-2.439-0.57-3.809-0.773
			c-1.368-0.203-2.816-0.461-4.35-0.773c-3.094-0.656-5.387-1.777-6.879-3.363s-2.237-3.652-2.237-6.199
			c0-2.922,1.233-5.316,3.702-7.184c2.471-1.868,5.604-2.801,9.398-2.801c2.453,0,4.703,0.234,6.75,0.703s3.859,1.047,5.438,1.734
			v5.484h-0.327c-1.327-1.125-3.073-2.059-5.237-2.801s-4.379-1.113-6.646-1.113c-2.482,0-4.479,0.516-5.986,1.547
			c-1.509,1.031-2.264,2.359-2.264,3.984c0,1.453,0.375,2.594,1.125,3.422c0.75,0.828,2.07,1.461,3.961,1.898
			c1,0.219,2.423,0.484,4.268,0.797c1.844,0.313,3.405,0.633,4.688,0.961c2.596,0.688,4.548,1.727,5.859,3.117
			C533.307,184.212,533.964,186.158,533.964,188.658z"/>
		<path d="M568.112,198.619h-4.643v-17.086h-17.414v17.086h-4.641V163.72h4.641v13.688h17.414V163.72h4.643V198.619z"/>
		<path d="M589.792,198.619h-13.781v-3.562h4.57v-27.773h-4.57v-3.562h13.781v3.562h-4.57v27.773h4.57V198.619z"/>
		<path d="M619.979,167.845h-17.646v9.844h15.164v4.125h-15.164v16.805h-4.641V163.72h22.288L619.979,167.845L619.979,167.845z"/>
		<path d="M650.87,167.845h-12.469v30.773h-4.643v-30.773H621.29v-4.125h29.578L650.87,167.845L650.87,167.845z"/>
		<path d="M685.229,185.212h-12.771v12.773h-3.891v-12.773h-12.773v-3.75h12.773v-12.773h3.891v12.773h12.771V185.212z"/>
	</g>
	<g enable-background="new    ">
		<path d="M719.026,167.845h-12.471v30.773h-4.641v-30.773h-12.469v-4.125h29.578L719.026,167.845L719.026,167.845z"/>
	</g>
	<g enable-background="new    ">
		<path d="M747.678,198.619h-4.943l-3.424-9.727h-15.094l-3.422,9.727h-4.711l12.703-34.898h6.188L747.678,198.619z
			 M737.881,184.908l-6.117-17.133l-6.141,17.133H737.881z"/>
		<path d="M779.295,187.884c0,1.734-0.328,3.266-0.984,4.594c-0.654,1.328-1.539,2.422-2.646,3.281
			c-1.312,1.031-2.754,1.766-4.324,2.203c-1.568,0.437-3.564,0.656-5.988,0.656h-12.375V163.72h10.338
			c2.547,0,4.451,0.094,5.719,0.281c1.266,0.187,2.477,0.578,3.633,1.172c1.281,0.672,2.211,1.535,2.789,2.59
			c0.578,1.055,0.867,2.316,0.867,3.785c0,1.656-0.422,3.066-1.268,4.23c-0.844,1.164-1.969,2.098-3.375,2.801v0.188
			c2.359,0.484,4.221,1.52,5.578,3.105C778.616,183.457,779.295,185.462,779.295,187.884z M771.49,172.158
			c0-0.844-0.143-1.555-0.422-2.133c-0.281-0.578-0.734-1.047-1.359-1.406c-0.734-0.422-1.625-0.684-2.672-0.785
			s-2.344-0.152-3.891-0.152h-5.531v10.078h6c1.453,0,2.607-0.074,3.469-0.223s1.656-0.457,2.391-0.926
			c0.735-0.469,1.254-1.074,1.561-1.816C771.339,174.053,771.49,173.173,771.49,172.158z M774.467,188.072
			c0-1.406-0.211-2.523-0.633-3.352c-0.422-0.829-1.188-1.531-2.297-2.109c-0.75-0.391-1.66-0.645-2.73-0.762
			c-1.068-0.117-2.371-0.176-3.9-0.176h-7.289v12.984h6.141c2.031,0,3.695-0.105,4.992-0.316s2.359-0.598,3.188-1.16
			c0.875-0.609,1.517-1.305,1.923-2.086C774.265,190.314,774.467,189.306,774.467,188.072z"/>
	</g>
	<g enable-background="new    ">
		<path d="M468.022,255.984c-0.828,0.219-1.73,0.398-2.707,0.539c-0.979,0.141-1.85,0.211-2.613,0.211
			c-2.672,0-4.703-0.719-6.094-2.156c-1.393-1.437-2.086-3.742-2.086-6.914v-13.922h-2.979v-3.703h2.979v-7.523h4.404v7.523h9.096
			v3.703h-9.096v11.93c0,1.375,0.031,2.449,0.096,3.223c0.062,0.774,0.279,1.496,0.654,2.168c0.346,0.625,0.816,1.082,1.418,1.371
			c0.604,0.289,1.521,0.434,2.754,0.434c0.721,0,1.471-0.105,2.25-0.316c0.781-0.211,1.346-0.387,1.688-0.527h0.234L468.022,255.984
			L468.022,255.984z"/>
		<path d="M495.655,243.14c0,4.266-1.096,7.633-3.281,10.102c-2.188,2.469-5.117,3.703-8.789,3.703
			c-3.703,0-6.645-1.234-8.824-3.703c-2.179-2.469-3.27-5.836-3.27-10.102s1.09-7.637,3.27-10.113
			c2.182-2.476,5.121-3.715,8.824-3.715c3.672,0,6.602,1.238,8.789,3.715C494.561,235.504,495.655,238.875,495.655,243.14z
			 M491.108,243.14c0-3.391-0.664-5.91-1.992-7.559s-3.172-2.473-5.531-2.473c-2.391,0-4.246,0.824-5.566,2.473
			c-1.318,1.649-1.979,4.168-1.979,7.559c0,3.281,0.664,5.77,1.992,7.465s3.18,2.543,5.555,2.543c2.344,0,4.184-0.84,5.521-2.52
			C490.442,248.948,491.108,246.453,491.108,243.14z"/>
		<path d="M538.054,248.671c0,2.391-0.986,4.352-2.965,5.883c-1.977,1.531-4.676,2.297-8.098,2.297c-1.938,0-3.715-0.23-5.332-0.691
			s-2.975-0.965-4.066-1.512v-4.945h0.234c1.391,1.047,2.938,1.879,4.641,2.496c1.703,0.617,3.336,0.926,4.898,0.926
			c1.938,0,3.453-0.312,4.547-0.938s1.641-1.609,1.641-2.953c0-1.031-0.297-1.812-0.891-2.344c-0.594-0.532-1.734-0.984-3.422-1.359
			c-0.625-0.141-1.441-0.305-2.449-0.492s-1.926-0.391-2.754-0.609c-2.297-0.609-3.926-1.504-4.887-2.684
			c-0.961-1.18-1.441-2.629-1.441-4.348c0-1.078,0.223-2.094,0.668-3.047s1.121-1.805,2.027-2.555
			c0.875-0.734,1.986-1.316,3.34-1.746c1.352-0.43,2.863-0.645,4.535-0.645c1.562,0,3.145,0.191,4.746,0.574
			c1.601,0.383,2.934,0.848,3.995,1.395v4.711h-0.233c-1.125-0.828-2.492-1.527-4.104-2.098c-1.608-0.571-3.188-0.855-4.732-0.855
			c-1.609,0-2.969,0.309-4.078,0.926c-1.109,0.617-1.664,1.535-1.664,2.754c0,1.078,0.336,1.891,1.008,2.438
			c0.656,0.547,1.72,0.992,3.188,1.336c0.812,0.188,1.723,0.375,2.729,0.562s1.85,0.359,2.521,0.516
			c2.047,0.469,3.625,1.273,4.732,2.414C537.499,245.234,538.054,246.765,538.054,248.671z"/>
		<path d="M577.288,230.039l-6.82,26.18h-4.078l-6.727-20.18l-6.68,20.18h-4.057l-6.891-26.18h4.594l4.805,20.273l6.539-20.273
			h3.635l6.701,20.273l4.549-20.273H577.288z"/>
		<path d="M588.374,225.656h-4.969v-4.57h4.969V225.656z M588.093,256.218h-4.405v-26.18h4.405V256.218z"/>
		<path d="M610.405,255.984c-0.828,0.219-1.73,0.398-2.707,0.539c-0.979,0.141-1.85,0.211-2.613,0.211
			c-2.672,0-4.703-0.719-6.094-2.156c-1.393-1.437-2.086-3.742-2.086-6.914v-13.922h-2.979v-3.703h2.979v-7.523h4.406v7.523h9.094
			v3.703h-9.094v11.93c0,1.375,0.029,2.449,0.094,3.223c0.062,0.774,0.281,1.496,0.656,2.168c0.344,0.625,0.814,1.082,1.418,1.371
			c0.602,0.289,1.52,0.434,2.754,0.434c0.719,0,1.469-0.105,2.25-0.316c0.78-0.211,1.344-0.387,1.688-0.527h0.234V255.984
			L610.405,255.984z"/>
		<path d="M635.085,254.578c-1.469,0.703-2.863,1.25-4.184,1.641c-1.321,0.391-2.725,0.586-4.207,0.586
			c-1.893,0-3.625-0.277-5.203-0.832c-1.578-0.555-2.932-1.395-4.057-2.52c-1.141-1.125-2.021-2.547-2.646-4.266
			s-0.938-3.727-0.938-6.023c0-4.281,1.178-7.641,3.527-10.078s5.457-3.656,9.316-3.656c1.5,0,2.973,0.211,4.418,0.633
			c1.443,0.422,2.77,0.938,3.973,1.547v4.898h-0.234c-1.344-1.047-2.729-1.852-4.158-2.414c-1.432-0.562-2.824-0.844-4.186-0.844
			c-2.5,0-4.473,0.84-5.918,2.52s-2.168,4.145-2.168,7.395c0,3.156,0.707,5.582,2.121,7.277s3.402,2.543,5.965,2.543
			c0.891,0,1.797-0.117,2.719-0.352c0.922-0.235,1.75-0.539,2.484-0.914c0.641-0.328,1.242-0.676,1.805-1.043
			c0.563-0.367,1.008-0.684,1.336-0.949h0.234L635.085,254.578L635.085,254.578z"/>
		<path d="M662.624,256.218h-4.406v-14.906c0-1.203-0.068-2.332-0.211-3.387c-0.141-1.055-0.396-1.879-0.771-2.473
			c-0.393-0.656-0.953-1.145-1.688-1.465c-0.734-0.32-1.688-0.48-2.857-0.48c-1.203,0-2.462,0.297-3.773,0.891
			c-1.312,0.594-2.57,1.352-3.773,2.273v19.547h-4.404V219.75h4.404v13.195c1.375-1.141,2.798-2.031,4.268-2.672
			c1.469-0.641,2.977-0.961,4.521-0.961c2.828,0,4.984,0.852,6.471,2.555c1.483,1.703,2.227,4.156,2.227,7.359v16.992H662.624z"/>
		<path d="M726.188,256.218h-4.405v-14.906c0-1.125-0.052-2.211-0.152-3.258c-0.101-1.047-0.314-1.883-0.645-2.508
			c-0.359-0.672-0.875-1.18-1.548-1.523c-0.673-0.343-1.642-0.516-2.905-0.516c-1.234,0-2.47,0.309-3.703,0.926
			c-1.234,0.617-2.469,1.402-3.703,2.355c0.047,0.359,0.086,0.777,0.117,1.254s0.047,0.949,0.047,1.418v16.758h-4.406v-14.906
			c0-1.156-0.051-2.254-0.15-3.293c-0.103-1.039-0.316-1.871-0.646-2.496c-0.359-0.672-0.875-1.176-1.547-1.512
			c-0.672-0.336-1.641-0.504-2.906-0.504c-1.203,0-2.41,0.297-3.621,0.891c-1.211,0.594-2.418,1.352-3.621,2.273v19.547h-4.404
			v-26.18h4.404v2.906c1.375-1.141,2.746-2.031,4.113-2.672s2.824-0.961,4.371-0.961c1.781,0,3.293,0.375,4.535,1.125
			s2.168,1.789,2.775,3.117c1.781-1.5,3.406-2.582,4.875-3.246c1.471-0.664,3.039-0.996,4.712-0.996
			c2.875,0,4.995,0.871,6.362,2.613c1.367,1.742,2.051,4.176,2.051,7.301L726.188,256.218L726.188,256.218z"/>
		<path d="M756.983,243.14c0,4.266-1.096,7.633-3.281,10.102c-2.188,2.469-5.117,3.703-8.789,3.703
			c-3.703,0-6.646-1.234-8.824-3.703c-2.179-2.469-3.27-5.836-3.27-10.102s1.09-7.637,3.27-10.113s5.121-3.715,8.824-3.715
			c3.672,0,6.602,1.238,8.789,3.715C755.889,235.504,756.983,238.875,756.983,243.14z M752.438,243.14
			c0-3.391-0.663-5.91-1.991-7.559s-3.172-2.473-5.531-2.473c-2.391,0-4.246,0.824-5.566,2.473
			c-1.318,1.649-1.979,4.168-1.979,7.559c0,3.281,0.664,5.77,1.992,7.465s3.18,2.543,5.555,2.543c2.344,0,4.184-0.84,5.521-2.52
			C751.771,248.948,752.438,246.453,752.438,243.14z"/>
		<path d="M785.038,256.218h-4.406v-2.742c-1.266,1.094-2.586,1.945-3.961,2.555c-1.375,0.61-2.867,0.914-4.477,0.914
			c-3.125,0-5.605-1.203-7.441-3.609c-1.836-2.406-2.754-5.742-2.754-10.008c0-2.219,0.316-4.195,0.949-5.93s1.486-3.211,2.564-4.43
			c1.062-1.188,2.303-2.094,3.716-2.719s2.88-0.938,4.396-0.938c1.375,0,2.594,0.145,3.656,0.434
			c1.062,0.289,2.18,0.738,3.352,1.348V219.75h4.406V256.218z M780.632,249.773V234.75c-1.188-0.531-2.25-0.898-3.188-1.102
			c-0.938-0.204-1.961-0.305-3.07-0.305c-2.469,0-4.391,0.859-5.766,2.578c-1.375,1.719-2.062,4.156-2.062,7.312
			c0,3.109,0.531,5.473,1.594,7.09c1.063,1.617,2.768,2.426,5.109,2.426c1.25,0,2.516-0.277,3.797-0.832
			S779.521,250.648,780.632,249.773z"/>
		<path d="M815.624,243.585h-19.289c0,1.609,0.242,3.012,0.729,4.207c0.483,1.195,1.146,2.176,1.99,2.941
			c0.812,0.75,1.777,1.312,2.896,1.688s2.348,0.562,3.689,0.562c1.781,0,3.574-0.355,5.381-1.066c1.805-0.711,3.09-1.41,3.854-2.098
			h0.234v4.805c-1.484,0.625-3,1.148-4.548,1.57c-1.548,0.422-3.173,0.633-4.875,0.633c-4.345,0-7.733-1.176-10.173-3.527
			c-2.438-2.351-3.654-5.691-3.654-10.02c0-4.281,1.168-7.68,3.504-10.195s5.41-3.773,9.223-3.773c3.531,0,6.254,1.031,8.168,3.094
			c1.914,2.062,2.871,4.992,2.871,8.789V243.585L815.624,243.585z M811.335,240.21c-0.016-2.312-0.598-4.102-1.746-5.367
			c-1.146-1.265-2.895-1.898-5.237-1.898c-2.358,0-4.237,0.695-5.638,2.086c-1.397,1.391-2.189,3.117-2.379,5.18L811.335,240.21
			L811.335,240.21z"/>
		<path d="M841.007,248.671c0,2.391-0.987,4.352-2.965,5.883c-1.978,1.531-4.676,2.297-8.098,2.297c-1.938,0-3.717-0.23-5.332-0.691
			c-1.617-0.461-2.975-0.965-4.066-1.512v-4.945h0.234c1.391,1.047,2.938,1.879,4.641,2.496c1.703,0.617,3.336,0.926,4.898,0.926
			c1.938,0,3.453-0.312,4.547-0.938s1.641-1.609,1.641-2.953c0-1.031-0.297-1.812-0.891-2.344c-0.594-0.532-1.734-0.984-3.422-1.359
			c-0.625-0.141-1.441-0.305-2.449-0.492s-1.926-0.391-2.754-0.609c-2.297-0.609-3.926-1.504-4.888-2.684
			c-0.962-1.18-1.44-2.629-1.44-4.348c0-1.078,0.223-2.094,0.668-3.047s1.121-1.805,2.027-2.555c0.875-0.734,1.986-1.316,3.34-1.746
			c1.352-0.43,2.862-0.645,4.535-0.645c1.562,0,3.145,0.191,4.745,0.574c1.602,0.383,2.935,0.848,3.995,1.395v4.711h-0.232
			c-1.125-0.828-2.492-1.527-4.104-2.098c-1.608-0.571-3.188-0.855-4.732-0.855c-1.609,0-2.97,0.309-4.078,0.926
			c-1.109,0.617-1.664,1.535-1.664,2.754c0,1.078,0.336,1.891,1.008,2.438c0.656,0.547,1.719,0.992,3.188,1.336
			c0.812,0.188,1.723,0.375,2.729,0.562s1.848,0.359,2.521,0.516c2.047,0.469,3.625,1.273,4.732,2.414
			C840.452,245.234,841.007,246.765,841.007,248.671z"/>
	</g>
</g>
<g enable-background="new    ">
	<path d="M219.67,421.63h-3.094v-20.047l-6.469,13.641h-1.844l-6.422-13.641v20.047h-2.891v-23.266h4.219l6.203,12.953l6-12.953
		h4.297L219.67,421.63L219.67,421.63z"/>
	<path d="M240.561,412.912c0,2.844-0.729,5.089-2.188,6.734c-1.458,1.646-3.412,2.469-5.859,2.469c-2.469,0-4.43-0.822-5.883-2.469
		c-1.453-1.646-2.18-3.893-2.18-6.734s0.727-5.091,2.18-6.742c1.453-1.65,3.414-2.477,5.883-2.477c2.448,0,4.401,0.824,5.859,2.477
		C239.832,407.821,240.561,410.068,240.561,412.912z M237.53,412.912c0-2.26-0.443-3.939-1.328-5.039
		c-0.886-1.099-2.115-1.648-3.688-1.648c-1.594,0-2.831,0.552-3.711,1.648c-0.88,1.1-1.32,2.779-1.32,5.039
		c0,2.188,0.442,3.847,1.328,4.977c0.885,1.131,2.12,1.695,3.703,1.695c1.562,0,2.789-0.56,3.68-1.68
		C237.084,416.785,237.53,415.121,237.53,412.912z"/>
	<path d="M259.967,404.177l-7.062,17.453h-2.953l-7.016-17.453h3.188l5.406,13.893l5.359-13.893H259.967z"/>
	<path d="M278.139,413.208H265.28c0,1.073,0.161,2.008,0.484,2.805c0.323,0.797,0.766,1.451,1.328,1.961
		c0.542,0.5,1.185,0.875,1.93,1.125s1.565,0.375,2.461,0.375c1.188,0,2.383-0.234,3.586-0.711c1.203-0.474,2.06-0.938,2.57-1.396
		h0.156v3.203c-0.99,0.417-2,0.766-3.031,1.047c-1.031,0.281-2.115,0.422-3.25,0.422c-2.896,0-5.156-0.783-6.781-2.354
		c-1.625-1.565-2.438-3.794-2.438-6.68c0-2.854,0.778-5.119,2.336-6.797c1.557-1.677,3.606-2.516,6.148-2.516
		c2.354,0,4.169,0.688,5.445,2.062c1.276,1.375,1.914,3.328,1.914,5.859L278.139,413.208L278.139,413.208z M275.28,410.958
		c-0.011-1.541-0.398-2.734-1.164-3.578c-0.766-0.844-1.93-1.266-3.492-1.266c-1.573,0-2.826,0.464-3.758,1.391
		c-0.933,0.928-1.461,2.078-1.586,3.453H275.28z"/>
	<path d="M304.389,397.318l-11.203,29.062h-2.703l11.156-29.062H304.389z"/>
	<path d="M339.108,421.63h-4.018l-7.781-9.25h-4.357v9.25h-3.094v-23.266h6.516c1.406,0,2.578,0.092,3.516,0.271
		c0.938,0.185,1.781,0.508,2.531,0.979c0.844,0.529,1.502,1.201,1.979,2.008c0.474,0.808,0.711,1.831,0.711,3.07
		c0,1.678-0.424,3.081-1.268,4.211c-0.844,1.131-2.005,1.98-3.482,2.555L339.108,421.63z M331.874,404.912
		c0-0.666-0.117-1.258-0.352-1.773c-0.235-0.515-0.623-0.948-1.164-1.305c-0.448-0.302-0.979-0.513-1.596-0.633
		c-0.613-0.119-1.339-0.18-2.172-0.18h-3.641v8.779h3.125c0.979,0,1.833-0.086,2.562-0.258c0.729-0.172,1.351-0.492,1.859-0.961
		c0.469-0.438,0.814-0.939,1.039-1.508C331.761,406.508,331.874,405.787,331.874,404.912z"/>
	<path d="M355.702,413.208h-12.859c0,1.073,0.161,2.008,0.484,2.805s0.766,1.451,1.328,1.961c0.542,0.5,1.185,0.875,1.93,1.125
		s1.565,0.375,2.461,0.375c1.188,0,2.383-0.234,3.586-0.711c1.203-0.474,2.062-0.938,2.57-1.396h0.156v3.203
		c-0.99,0.417-2,0.766-3.031,1.047s-2.115,0.422-3.25,0.422c-2.896,0-5.156-0.783-6.781-2.354c-1.625-1.565-2.438-3.794-2.438-6.68
		c0-2.854,0.776-5.119,2.336-6.797c1.557-1.677,3.604-2.516,6.146-2.516c2.354,0,4.169,0.688,5.445,2.062
		c1.276,1.375,1.914,3.328,1.914,5.859L355.702,413.208L355.702,413.208z M352.842,410.958c-0.011-1.541-0.396-2.734-1.164-3.578
		c-0.766-0.844-1.93-1.266-3.492-1.266c-1.571,0-2.824,0.464-3.758,1.391c-0.933,0.928-1.461,2.078-1.586,3.453H352.842z"/>
	<path d="M372.624,416.599c0,1.596-0.659,2.901-1.977,3.924c-1.318,1.021-3.117,1.529-5.398,1.529c-1.292,0-2.477-0.152-3.555-0.461
		c-1.078-0.307-1.982-0.643-2.711-1.008v-3.297h0.154c0.929,0.698,1.958,1.253,3.096,1.664c1.135,0.412,2.224,0.617,3.266,0.617
		c1.292,0,2.302-0.208,3.031-0.625c0.729-0.416,1.094-1.072,1.094-1.971c0-0.688-0.198-1.208-0.594-1.562
		c-0.396-0.354-1.156-0.656-2.281-0.906c-0.417-0.094-0.961-0.203-1.633-0.328s-1.284-0.26-1.836-0.404
		c-1.531-0.406-2.617-1.004-3.258-1.789c-0.643-0.786-0.963-1.752-0.963-2.898c0-0.719,0.148-1.396,0.445-2.031
		s0.747-1.203,1.354-1.703c0.583-0.487,1.323-0.877,2.227-1.164c0.901-0.284,1.909-0.43,3.023-0.43c1.042,0,2.096,0.128,3.164,0.383
		c1.065,0.256,1.954,0.565,2.662,0.932v3.141h-0.154c-0.75-0.552-1.662-1.018-2.734-1.398c-1.073-0.38-2.125-0.568-3.156-0.568
		c-1.071,0-1.979,0.206-2.719,0.617c-0.74,0.41-1.109,1.021-1.109,1.836c0,0.719,0.226,1.261,0.674,1.625
		c0.438,0.363,1.146,0.662,2.125,0.891c0.542,0.125,1.146,0.25,1.818,0.375s1.231,0.24,1.682,0.344
		c1.362,0.312,2.417,0.852,3.154,1.609C372.253,414.308,372.624,415.329,372.624,416.599z"/>
	<path d="M379.983,401.255h-3.312v-3.047h3.312V401.255z M379.795,421.63h-2.938v-17.453h2.938V421.63z"/>
	<path d="M398.264,421.63H384.17v-2.172l10.172-12.828h-9.953v-2.453h13.609v2.096l-10.219,12.875h10.482L398.264,421.63
		L398.264,421.63z"/>
	<path d="M416.842,413.208h-12.857c0,1.073,0.159,2.008,0.482,2.805s0.768,1.451,1.328,1.961c0.542,0.5,1.187,0.875,1.93,1.125
		c0.745,0.25,1.565,0.375,2.461,0.375c1.188,0,2.385-0.234,3.588-0.711c1.201-0.474,2.06-0.938,2.568-1.396h0.156v3.203
		c-0.99,0.417-2,0.766-3.031,1.047s-2.115,0.422-3.25,0.422c-2.896,0-5.156-0.783-6.781-2.354c-1.625-1.565-2.438-3.794-2.438-6.68
		c0-2.854,0.778-5.119,2.336-6.797c1.557-1.677,3.606-2.516,6.148-2.516c2.354,0,4.169,0.688,5.443,2.062
		c1.276,1.375,1.914,3.328,1.914,5.859L416.842,413.208L416.842,413.208z M413.983,410.958c-0.013-1.541-0.398-2.734-1.164-3.578
		c-0.768-0.844-1.932-1.266-3.492-1.266c-1.573,0-2.826,0.464-3.758,1.391c-0.935,0.928-1.461,2.078-1.586,3.453H413.983z"/>
	<path d="M459.858,398.365l-6.049,23.266h-3.482l-4.893-19.312l-4.779,19.312h-3.406l-6.156-23.266h3.172l4.893,19.344l4.812-19.344
		h3.143l4.857,19.531l4.859-19.531H459.858z"/>
	<path d="M467.342,401.255h-3.312v-3.047h3.312V401.255z M467.155,421.63h-2.938v-17.453h2.938V421.63z"/>
	<path d="M487.561,421.63h-2.938v-9.938c0-0.804-0.047-1.557-0.141-2.26c-0.096-0.701-0.268-1.252-0.518-1.646
		c-0.261-0.438-0.636-0.763-1.125-0.979c-0.49-0.213-1.125-0.318-1.906-0.318c-0.803,0-1.641,0.198-2.516,0.594
		s-1.714,0.901-2.516,1.516v13.031h-2.938v-17.453h2.938v1.938c0.916-0.76,1.862-1.354,2.844-1.781
		c0.979-0.427,1.984-0.641,3.016-0.641c1.887,0,3.322,0.566,4.312,1.703c0.989,1.136,1.482,2.771,1.482,4.904v11.328L487.561,421.63
		L487.561,421.63z"/>
	<path d="M507.374,421.63h-2.938v-1.828c-0.844,0.729-1.725,1.297-2.641,1.703c-0.917,0.406-1.912,0.609-2.984,0.609
		c-2.084,0-3.735-0.802-4.961-2.406c-1.225-1.604-1.836-3.828-1.836-6.672c0-1.479,0.211-2.797,0.635-3.953
		c0.422-1.156,0.99-2.141,1.711-2.953c0.708-0.791,1.531-1.396,2.477-1.812c0.942-0.416,1.919-0.625,2.93-0.625
		c0.916,0,1.729,0.097,2.438,0.289c0.708,0.191,1.453,0.49,2.232,0.896v-7.562h2.938L507.374,421.63L507.374,421.63z
		 M504.436,417.333v-10.016c-0.792-0.354-1.5-0.601-2.125-0.734s-1.308-0.203-2.047-0.203c-1.646,0-2.928,0.573-3.844,1.719
		c-0.917,1.146-1.375,2.771-1.375,4.875c0,2.073,0.354,3.648,1.062,4.729c0.708,1.078,1.844,1.617,3.404,1.617
		c0.833,0,1.679-0.187,2.531-0.557C502.899,418.394,503.696,417.917,504.436,417.333z"/>
	<path d="M528.03,412.912c0,2.844-0.729,5.089-2.188,6.734c-1.459,1.645-3.412,2.469-5.857,2.469c-2.471,0-4.432-0.822-5.885-2.469
		c-1.451-1.646-2.18-3.893-2.18-6.734s0.729-5.091,2.18-6.742c1.453-1.65,3.414-2.477,5.885-2.477c2.445,0,4.398,0.824,5.857,2.477
		C527.3,407.821,528.03,410.068,528.03,412.912z M524.999,412.912c0-2.26-0.443-3.939-1.328-5.039
		c-0.886-1.099-2.115-1.648-3.688-1.648c-1.596,0-2.831,0.552-3.711,1.648c-0.883,1.1-1.32,2.779-1.32,5.039
		c0,2.188,0.442,3.847,1.328,4.977c0.885,1.131,2.119,1.695,3.703,1.695c1.562,0,2.789-0.56,3.68-1.68
		C524.553,416.785,524.999,415.121,524.999,412.912z"/>
	<path d="M554.53,404.177l-4.547,17.453h-2.721l-4.482-13.453l-4.453,13.453h-2.703l-4.594-17.453h3.062l3.203,13.518l4.359-13.518
		h2.422l4.469,13.518l3.031-13.518H554.53z"/>
	<path d="M571.233,416.599c0,1.596-0.659,2.901-1.979,3.924c-1.318,1.021-3.117,1.529-5.396,1.529c-1.292,0-2.479-0.152-3.557-0.461
		c-1.078-0.307-1.98-0.643-2.711-1.008v-3.297h0.156c0.927,0.698,1.958,1.253,3.094,1.664c1.135,0.412,2.226,0.617,3.268,0.617
		c1.291,0,2.302-0.208,3.029-0.625c0.729-0.416,1.096-1.072,1.096-1.971c0-0.688-0.198-1.208-0.596-1.562
		c-0.396-0.354-1.154-0.656-2.279-0.906c-0.417-0.094-0.962-0.203-1.635-0.328c-0.672-0.125-1.282-0.26-1.836-0.404
		c-1.529-0.406-2.616-1.004-3.258-1.789c-0.641-0.786-0.961-1.752-0.961-2.898c0-0.719,0.148-1.396,0.445-2.031
		s0.747-1.203,1.352-1.703c0.583-0.487,1.325-0.877,2.229-1.164c0.898-0.284,1.906-0.43,3.021-0.43c1.041,0,2.097,0.128,3.164,0.383
		c1.067,0.256,1.955,0.565,2.664,0.932v3.141h-0.156c-0.75-0.552-1.662-1.018-2.732-1.398c-1.073-0.38-2.125-0.568-3.156-0.568
		c-1.073,0-1.979,0.206-2.719,0.617c-0.74,0.41-1.109,1.021-1.109,1.836c0,0.719,0.224,1.261,0.672,1.625
		c0.438,0.363,1.146,0.662,2.125,0.891c0.541,0.125,1.148,0.25,1.82,0.375s1.229,0.24,1.68,0.344
		c1.364,0.312,2.416,0.852,3.156,1.609C570.863,414.308,571.233,415.329,571.233,416.599z"/>
</g>
<g enable-background="new    ">
	<path d="M215.858,583.001c0,0.906-0.211,1.803-0.633,2.688c-0.422,0.885-1.013,1.636-1.773,2.25
		c-0.833,0.666-1.805,1.188-2.914,1.562s-2.445,0.562-4.008,0.562c-1.677,0-3.185-0.154-4.523-0.469
		c-1.339-0.312-2.701-0.773-4.086-1.391v-3.875h0.219c1.177,0.979,2.536,1.734,4.078,2.266c1.542,0.531,2.989,0.797,4.344,0.797
		c1.917,0,3.409-0.357,4.477-1.078c1.067-0.719,1.602-1.677,1.602-2.875c0-1.029-0.253-1.791-0.758-2.279
		c-0.505-0.489-1.273-0.869-2.305-1.143c-0.781-0.208-1.628-0.38-2.539-0.516c-0.912-0.135-1.878-0.307-2.898-0.516
		c-2.062-0.438-3.591-1.187-4.586-2.242c-0.995-1.059-1.492-2.437-1.492-4.133c0-1.947,0.823-3.545,2.469-4.789
		s3.734-1.867,6.266-1.867c1.635,0,3.135,0.156,4.5,0.469c1.364,0.312,2.573,0.698,3.625,1.156v3.656h-0.219
		c-0.886-0.75-2.05-1.372-3.492-1.867c-1.443-0.494-2.919-0.742-4.43-0.742c-1.656,0-2.987,0.344-3.992,1.031
		c-1.005,0.687-1.508,1.571-1.508,2.655c0,0.97,0.25,1.729,0.75,2.28c0.5,0.555,1.38,0.977,2.641,1.268
		c0.667,0.146,1.614,0.321,2.844,0.529c1.229,0.209,2.271,0.424,3.125,0.643c1.729,0.459,3.031,1.149,3.906,2.078
		C215.42,580.039,215.858,581.335,215.858,583.001z"/>
	<path d="M235.186,589.642h-2.938v-9.938c0-0.802-0.047-1.555-0.141-2.258c-0.094-0.703-0.266-1.252-0.516-1.648
		c-0.261-0.438-0.636-0.763-1.125-0.977c-0.49-0.213-1.125-0.32-1.906-0.32c-0.802,0-1.641,0.198-2.516,0.594
		c-0.875,0.396-1.714,0.901-2.516,1.518v13.03h-2.938V565.33h2.938v8.797c0.917-0.76,1.864-1.354,2.844-1.781
		c0.979-0.427,1.984-0.641,3.016-0.641c1.885,0,3.323,0.568,4.312,1.703c0.989,1.136,1.484,2.771,1.484,4.906v11.326
		L235.186,589.642L235.186,589.642z"/>
	<path d="M255.717,580.923c0,2.844-0.729,5.089-2.188,6.734c-1.458,1.646-3.412,2.469-5.859,2.469c-2.469,0-4.43-0.822-5.883-2.469
		c-1.453-1.647-2.18-3.893-2.18-6.734s0.727-5.091,2.18-6.742c1.453-1.648,3.414-2.477,5.883-2.477c2.448,0,4.401,0.826,5.859,2.477
		C254.988,575.833,255.717,578.08,255.717,580.923z M252.686,580.923c0-2.26-0.443-3.938-1.328-5.039
		c-0.886-1.099-2.115-1.646-3.688-1.646c-1.594,0-2.831,0.55-3.711,1.646c-0.88,1.102-1.32,2.779-1.32,5.039
		c0,2.188,0.442,3.847,1.328,4.979c0.885,1.131,2.12,1.693,3.703,1.693c1.562,0,2.789-0.56,3.68-1.68
		C252.241,584.796,252.686,583.132,252.686,580.923z"/>
	<path d="M282.217,572.189l-4.547,17.451h-2.719l-4.484-13.451l-4.453,13.451h-2.703l-4.594-17.451h3.062l3.203,13.516l4.359-13.516
		h2.422l4.469,13.516l3.031-13.516H282.217z"/>
	<path d="M308.249,565.33l-11.203,29.062h-2.703l11.156-29.062H308.249z"/>
	<path d="M341.514,589.642h-3.094v-11.391h-11.609v11.391h-3.094v-23.266h3.094v9.125h11.609v-9.125h3.094V589.642z"/>
	<path d="M350.686,569.267h-3.312v-3.047h3.312V569.267z M350.499,589.642h-2.938V572.19h2.938V589.642z"/>
	<path d="M370.467,589.642h-2.938v-1.826c-0.846,0.729-1.726,1.297-2.643,1.701c-0.917,0.406-1.912,0.609-2.982,0.609
		c-2.083,0-3.737-0.802-4.961-2.406c-1.226-1.604-1.836-3.828-1.836-6.672c0-1.479,0.211-2.797,0.633-3.953
		c0.422-1.154,0.992-2.141,1.711-2.953c0.708-0.791,1.534-1.396,2.477-1.812c0.943-0.416,1.919-0.625,2.932-0.625
		c0.917,0,1.729,0.097,2.438,0.289c0.708,0.193,1.453,0.492,2.234,0.896v-7.562h2.938L370.467,589.642L370.467,589.642z
		 M367.53,585.345V575.33c-0.792-0.354-1.5-0.599-2.125-0.734c-0.625-0.135-1.31-0.203-2.047-0.203
		c-1.646,0-2.929,0.573-3.846,1.721c-0.917,1.146-1.375,2.771-1.375,4.875c0,2.071,0.354,3.646,1.062,4.727
		c0.708,1.078,1.844,1.617,3.406,1.617c0.833,0,1.677-0.186,2.529-0.555C365.993,586.406,366.79,585.929,367.53,585.345z"/>
	<path d="M390.858,581.22h-12.859c0,1.073,0.161,2.008,0.484,2.807c0.321,0.797,0.766,1.449,1.326,1.961
		c0.542,0.5,1.187,0.875,1.932,1.125s1.563,0.375,2.461,0.375c1.188,0,2.383-0.236,3.586-0.711c1.203-0.476,2.06-0.939,2.57-1.398
		h0.154v3.203c-0.988,0.417-2,0.766-3.029,1.047c-1.031,0.281-2.115,0.422-3.25,0.422c-2.896,0-5.156-0.783-6.781-2.352
		c-1.625-1.567-2.438-3.794-2.438-6.682c0-2.854,0.778-5.117,2.336-6.797c1.559-1.677,3.606-2.516,6.148-2.516
		c2.354,0,4.169,0.688,5.445,2.062c1.274,1.375,1.914,3.328,1.914,5.859L390.858,581.22L390.858,581.22z M387.999,578.97
		c-0.011-1.541-0.398-2.732-1.164-3.578c-0.766-0.844-1.93-1.266-3.492-1.266c-1.573,0-2.826,0.464-3.758,1.391
		c-0.933,0.93-1.461,2.078-1.586,3.453H387.999z"/>
	<path d="M433.874,566.376l-6.047,23.266h-3.484l-4.891-19.312l-4.781,19.312h-3.406l-6.154-23.266h3.172l4.891,19.344l4.812-19.344
		h3.141l4.859,19.531l4.857-19.531H433.874z"/>
	<path d="M441.358,569.267h-3.312v-3.047h3.312V569.267z M441.17,589.642h-2.938V572.19h2.938V589.642z"/>
	<path d="M461.139,589.642h-2.938v-1.826c-0.844,0.729-1.727,1.297-2.643,1.701c-0.917,0.406-1.91,0.609-2.982,0.609
		c-2.083,0-3.737-0.802-4.961-2.406c-1.226-1.604-1.836-3.828-1.836-6.672c0-1.479,0.211-2.797,0.633-3.953
		c0.422-1.154,0.992-2.141,1.711-2.953c0.708-0.791,1.534-1.396,2.477-1.812c0.943-0.416,1.919-0.625,2.932-0.625
		c0.916,0,1.729,0.097,2.438,0.289c0.708,0.193,1.453,0.492,2.234,0.896v-7.562h2.938L461.139,589.642L461.139,589.642z
		 M458.202,585.345V575.33c-0.792-0.354-1.5-0.599-2.125-0.734c-0.625-0.135-1.31-0.203-2.047-0.203
		c-1.646,0-2.929,0.573-3.846,1.721c-0.917,1.146-1.375,2.771-1.375,4.875c0,2.071,0.354,3.646,1.062,4.727
		c0.708,1.078,1.844,1.617,3.406,1.617c0.833,0,1.677-0.186,2.529-0.555C456.665,586.406,457.461,585.929,458.202,585.345z"/>
	<path d="M481.077,587.658c0,2.958-0.672,5.13-2.018,6.516c-1.344,1.385-3.41,2.078-6.201,2.078c-0.93,0-1.831-0.064-2.711-0.195
		c-0.883-0.131-1.748-0.313-2.604-0.555v-3h0.156c0.479,0.188,1.239,0.419,2.281,0.695c1.041,0.273,2.083,0.414,3.125,0.414
		c1,0,1.826-0.12,2.482-0.359c0.656-0.24,1.166-0.573,1.531-1c0.364-0.406,0.625-0.896,0.781-1.469
		c0.154-0.573,0.232-1.213,0.232-1.922v-1.596c-0.886,0.709-1.73,1.237-2.539,1.588c-0.808,0.35-1.836,0.521-3.086,0.521
		c-2.084,0-3.735-0.752-4.961-2.258c-1.225-1.505-1.836-3.627-1.836-6.367c0-1.5,0.211-2.794,0.633-3.883
		c0.423-1.088,0.997-2.028,1.729-2.82c0.677-0.739,1.5-1.312,2.469-1.727c0.969-0.411,1.932-0.617,2.891-0.617
		c1.012,0,1.856,0.102,2.539,0.305c0.684,0.203,1.403,0.516,2.164,0.932l0.188-0.75h2.75L481.077,587.658L481.077,587.658z
		 M478.139,584.845v-9.516c-0.779-0.354-1.508-0.606-2.18-0.758c-0.672-0.15-1.342-0.229-2.008-0.229
		c-1.615,0-2.886,0.542-3.812,1.625c-0.928,1.084-1.391,2.656-1.391,4.719c0,1.959,0.344,3.443,1.031,4.453
		c0.688,1.013,1.828,1.518,3.422,1.518c0.854,0,1.711-0.164,2.57-0.492C476.63,585.837,477.42,585.398,478.139,584.845z"/>
	<path d="M501.467,581.22h-12.857c0,1.073,0.159,2.008,0.482,2.807c0.322,0.797,0.768,1.449,1.328,1.961
		c0.541,0.5,1.187,0.875,1.93,1.125c0.744,0.25,1.564,0.375,2.461,0.375c1.188,0,2.385-0.236,3.588-0.711
		c1.201-0.476,2.06-0.939,2.568-1.398h0.156v3.203c-0.99,0.417-2,0.766-3.031,1.047s-2.115,0.422-3.25,0.422
		c-2.896,0-5.156-0.783-6.781-2.352c-1.625-1.567-2.438-3.794-2.438-6.682c0-2.854,0.778-5.117,2.336-6.797
		c1.557-1.677,3.606-2.516,6.148-2.516c2.354,0,4.169,0.688,5.443,2.062c1.275,1.375,1.914,3.328,1.914,5.859L501.467,581.22
		L501.467,581.22z M498.608,578.97c-0.013-1.541-0.398-2.732-1.164-3.578c-0.768-0.844-1.932-1.266-3.492-1.266
		c-1.573,0-2.826,0.464-3.758,1.391c-0.935,0.93-1.461,2.078-1.586,3.453H498.608z"/>
	<path d="M514.983,589.486c-0.555,0.146-1.154,0.266-1.807,0.357c-0.649,0.096-1.23,0.143-1.742,0.143
		c-1.779,0-3.136-0.479-4.062-1.438c-0.928-0.958-1.391-2.494-1.391-4.607v-9.281h-1.984v-2.469h1.984v-5.018h2.938v5.018h6.062
		v2.469h-6.062v7.953c0,0.917,0.021,1.633,0.062,2.146c0.04,0.518,0.188,0.998,0.438,1.445c0.229,0.417,0.544,0.722,0.945,0.914
		c0.398,0.192,1.013,0.289,1.836,0.289c0.479,0,0.979-0.07,1.5-0.211c0.521-0.143,0.896-0.258,1.125-0.354h0.156L514.983,589.486
		L514.983,589.486z"/>
	<path d="M547.561,582.486c0,1.154-0.219,2.178-0.654,3.062c-0.438,0.886-1.026,1.615-1.768,2.188
		c-0.875,0.688-1.836,1.178-2.883,1.469c-1.047,0.292-2.378,0.438-3.992,0.438h-8.25v-23.266h6.893c1.695,0,2.969,0.062,3.812,0.188
		s1.65,0.386,2.422,0.779c0.854,0.448,1.476,1.023,1.859,1.729c0.385,0.703,0.578,1.545,0.578,2.521c0,1.104-0.281,2.045-0.844,2.82
		c-0.562,0.776-1.312,1.398-2.25,1.867v0.125c1.57,0.323,2.812,1.014,3.719,2.069C547.108,579.536,547.561,580.872,547.561,582.486z
		 M542.358,572.001c0-0.562-0.096-1.036-0.281-1.422c-0.188-0.385-0.49-0.697-0.906-0.938c-0.49-0.279-1.084-0.455-1.781-0.521
		c-0.696-0.067-1.562-0.104-2.594-0.104h-3.688v6.721h4c0.969,0,1.737-0.051,2.312-0.148c0.572-0.099,1.104-0.305,1.594-0.617
		c0.489-0.312,0.836-0.716,1.039-1.211S542.358,572.679,542.358,572.001z M544.342,582.611c0-0.938-0.141-1.684-0.422-2.234
		s-0.792-1.021-1.531-1.406c-0.5-0.26-1.105-0.43-1.818-0.508c-0.714-0.078-1.581-0.117-2.604-0.117h-4.857v8.656h4.094
		c1.354,0,2.463-0.07,3.328-0.211c0.862-0.141,1.57-0.398,2.125-0.773c0.583-0.404,1.01-0.867,1.279-1.391
		C544.207,584.106,544.342,583.434,544.342,582.611z"/>
	<path d="M565.28,589.642h-2.922v-1.857c-0.263,0.178-0.612,0.425-1.057,0.742c-0.441,0.316-0.873,0.568-1.289,0.758
		c-0.488,0.24-1.053,0.438-1.688,0.602c-0.636,0.161-1.381,0.242-2.234,0.242c-1.572,0-2.906-0.521-4-1.562
		s-1.641-2.369-1.641-3.984c0-1.322,0.283-2.394,0.852-3.211c0.567-0.817,1.377-1.461,2.432-1.93
		c1.062-0.471,2.338-0.786,3.827-0.953c1.488-0.166,3.089-0.291,4.798-0.375v-0.453c0-0.666-0.117-1.219-0.354-1.656
		c-0.233-0.437-0.57-0.781-1.008-1.031c-0.417-0.237-0.917-0.398-1.5-0.482c-0.584-0.083-1.193-0.125-1.828-0.125
		c-0.771,0-1.631,0.102-2.578,0.305s-1.928,0.498-2.938,0.883h-0.156v-2.982c0.572-0.156,1.4-0.328,2.484-0.518
		c1.083-0.188,2.148-0.28,3.202-0.28c1.229,0,2.3,0.103,3.211,0.306c0.91,0.203,1.699,0.55,2.366,1.039
		c0.656,0.479,1.156,1.1,1.5,1.857c0.346,0.763,0.518,1.703,0.518,2.828L565.28,589.642L565.28,589.642z M562.358,585.345v-4.857
		c-0.896,0.053-1.951,0.131-3.164,0.232c-1.214,0.104-2.177,0.256-2.885,0.453c-0.844,0.24-1.524,0.612-2.047,1.117
		c-0.521,0.506-0.779,1.201-0.779,2.086c0,1,0.302,1.753,0.904,2.258c0.604,0.506,1.525,0.758,2.768,0.758
		c1.03,0,1.974-0.198,2.828-0.602C560.836,586.39,561.628,585.908,562.358,585.345z"/>
	<path d="M581.827,575.392h-0.156c-0.438-0.104-0.862-0.18-1.271-0.227c-0.412-0.047-0.898-0.07-1.461-0.07
		c-0.906,0-1.781,0.201-2.625,0.604c-0.846,0.399-1.656,0.92-2.438,1.555v12.392h-2.938V572.19h2.938v2.576
		c1.166-0.938,2.195-1.602,3.086-1.99c0.891-0.392,1.799-0.586,2.729-0.586c0.51,0,0.88,0.014,1.107,0.038
		c0.229,0.025,0.572,0.075,1.031,0.147L581.827,575.392L581.827,575.392z"/>
</g>
<g enable-background="new    ">
	<path d="M218.202,761.814h-4.016l-7.781-9.25h-4.359v9.25h-3.094v-23.268h6.516c1.406,0,2.578,0.092,3.516,0.273
		c0.938,0.183,1.781,0.508,2.531,0.977c0.844,0.531,1.502,1.201,1.977,2.008c0.474,0.81,0.711,1.831,0.711,3.07
		c0,1.678-0.422,3.081-1.266,4.211c-0.844,1.131-2.005,1.982-3.484,2.555L218.202,761.814z M210.967,745.095
		c0-0.666-0.117-1.258-0.352-1.771c-0.235-0.517-0.623-0.95-1.164-1.307c-0.448-0.302-0.979-0.513-1.594-0.633
		c-0.615-0.119-1.339-0.18-2.172-0.18h-3.641v8.781h3.125c0.979,0,1.833-0.086,2.562-0.26c0.729-0.172,1.349-0.49,1.859-0.961
		c0.469-0.438,0.815-0.938,1.039-1.508C210.855,746.692,210.967,745.97,210.967,745.095z"/>
	<path d="M234.795,753.392h-12.859c0,1.073,0.161,2.01,0.484,2.807c0.323,0.797,0.766,1.451,1.328,1.961
		c0.542,0.5,1.185,0.875,1.93,1.125c0.745,0.25,1.565,0.375,2.461,0.375c1.188,0,2.383-0.236,3.586-0.711
		c1.203-0.476,2.06-0.939,2.57-1.398h0.156v3.203c-0.99,0.417-2,0.767-3.031,1.047c-1.031,0.281-2.115,0.422-3.25,0.422
		c-2.896,0-5.156-0.782-6.781-2.352c-1.625-1.567-2.438-3.794-2.438-6.68c0-2.854,0.778-5.119,2.336-6.798
		c1.557-1.678,3.606-2.517,6.148-2.517c2.354,0,4.169,0.688,5.445,2.062c1.276,1.375,1.914,3.327,1.914,5.857L234.795,753.392
		L234.795,753.392z M231.936,751.142c-0.011-1.541-0.398-2.732-1.164-3.576c-0.766-0.846-1.93-1.268-3.492-1.268
		c-1.573,0-2.826,0.464-3.758,1.393c-0.933,0.928-1.461,2.076-1.586,3.451H231.936z"/>
	<path d="M251.717,756.783c0,1.594-0.659,2.899-1.977,3.922c-1.318,1.021-3.117,1.531-5.398,1.531c-1.292,0-2.477-0.154-3.555-0.461
		c-1.078-0.309-1.982-0.645-2.711-1.01v-3.297h0.156c0.927,0.698,1.958,1.253,3.094,1.664c1.135,0.412,2.224,0.617,3.266,0.617
		c1.292,0,2.302-0.208,3.031-0.625c0.729-0.416,1.094-1.072,1.094-1.969c0-0.688-0.198-1.208-0.594-1.562
		c-0.396-0.354-1.156-0.654-2.281-0.904c-0.417-0.096-0.961-0.203-1.633-0.328s-1.284-0.262-1.836-0.406
		c-1.531-0.406-2.617-1.002-3.258-1.789c-0.641-0.786-0.961-1.752-0.961-2.898c0-0.719,0.148-1.396,0.445-2.029
		c0.297-0.637,0.747-1.203,1.352-1.703c0.583-0.489,1.325-0.877,2.227-1.164c0.901-0.286,1.909-0.43,3.023-0.43
		c1.042,0,2.096,0.128,3.164,0.383c1.067,0.256,1.956,0.563,2.664,0.93v3.141h-0.156c-0.75-0.552-1.662-1.018-2.734-1.396
		c-1.073-0.38-2.125-0.57-3.156-0.57c-1.073,0-1.979,0.206-2.719,0.617c-0.74,0.412-1.109,1.023-1.109,1.836
		c0,0.719,0.224,1.261,0.672,1.625c0.438,0.365,1.146,0.662,2.125,0.891c0.542,0.125,1.148,0.25,1.82,0.375s1.231,0.24,1.68,0.346
		c1.364,0.312,2.417,0.85,3.156,1.607C251.347,754.492,251.717,755.512,251.717,756.783z"/>
	<path d="M259.077,741.439h-3.312v-3.049h3.312V741.439z M258.889,761.814h-2.938v-17.453h2.938V761.814z"/>
	<path d="M277.358,761.814h-14.094v-2.174l10.172-12.826h-9.953v-2.453h13.609v2.094l-10.219,12.875h10.484L277.358,761.814
		L277.358,761.814z"/>
	<path d="M295.936,753.392h-12.859c0,1.073,0.161,2.01,0.484,2.807c0.323,0.797,0.766,1.451,1.328,1.961
		c0.542,0.5,1.185,0.875,1.93,1.125c0.745,0.25,1.565,0.375,2.461,0.375c1.188,0,2.383-0.236,3.586-0.711
		c1.203-0.476,2.06-0.939,2.57-1.398h0.156v3.203c-0.99,0.417-2,0.767-3.031,1.047c-1.031,0.281-2.115,0.422-3.25,0.422
		c-2.896,0-5.156-0.782-6.781-2.352c-1.625-1.567-2.438-3.794-2.438-6.68c0-2.854,0.778-5.119,2.336-6.798
		c1.557-1.678,3.606-2.517,6.148-2.517c2.354,0,4.169,0.688,5.445,2.062c1.276,1.375,1.914,3.327,1.914,5.857L295.936,753.392
		L295.936,753.392z M293.077,751.142c-0.011-1.541-0.398-2.732-1.164-3.576c-0.766-0.846-1.93-1.268-3.492-1.268
		c-1.573,0-2.826,0.464-3.758,1.393c-0.933,0.928-1.461,2.076-1.586,3.451H293.077z"/>
	<path d="M338.952,738.548l-6.047,23.268h-3.484l-4.891-19.312l-4.781,19.312h-3.406l-6.156-23.268h3.174l4.891,19.344l4.812-19.344
		h3.143l4.857,19.531l4.859-19.531H338.952z"/>
	<path d="M346.436,741.439h-3.312v-3.049h3.312V741.439z M346.249,761.814h-2.938v-17.453h2.938V761.814z"/>
	<path d="M366.655,761.814h-2.938v-9.938c0-0.802-0.047-1.555-0.141-2.258s-0.268-1.252-0.518-1.648
		c-0.261-0.438-0.636-0.763-1.125-0.977c-0.488-0.213-1.125-0.32-1.904-0.32c-0.804,0-1.643,0.198-2.518,0.594
		c-0.875,0.396-1.714,0.901-2.516,1.518v13.031h-2.938v-17.453h2.938v1.938c0.917-0.76,1.864-1.354,2.844-1.78
		c0.979-0.428,1.984-0.642,3.018-0.642c1.885,0,3.321,0.568,4.312,1.703c0.989,1.136,1.484,2.771,1.484,4.906v11.328
		L366.655,761.814L366.655,761.814z"/>
	<path d="M386.467,761.814h-2.938v-1.828c-0.846,0.729-1.726,1.297-2.643,1.703c-0.917,0.404-1.912,0.607-2.982,0.607
		c-2.083,0-3.737-0.802-4.961-2.406c-1.226-1.604-1.836-3.826-1.836-6.672c0-1.479,0.211-2.797,0.633-3.953
		c0.422-1.154,0.992-2.141,1.711-2.951c0.708-0.791,1.534-1.396,2.477-1.812c0.943-0.416,1.919-0.625,2.932-0.625
		c0.917,0,1.729,0.097,2.438,0.289c0.708,0.193,1.453,0.492,2.234,0.898v-7.562h2.938L386.467,761.814L386.467,761.814z
		 M383.53,757.517v-10.016c-0.792-0.354-1.5-0.599-2.125-0.734c-0.625-0.135-1.31-0.201-2.047-0.201
		c-1.646,0-2.929,0.571-3.846,1.719c-0.917,1.146-1.375,2.771-1.375,4.875c0,2.073,0.354,3.646,1.062,4.727
		c0.708,1.078,1.844,1.617,3.406,1.617c0.833,0,1.677-0.185,2.529-0.555C381.993,758.578,382.79,758.101,383.53,757.517z"/>
	<path d="M407.124,753.095c0,2.845-0.729,5.089-2.188,6.734c-1.458,1.646-3.41,2.469-5.857,2.469c-2.469,0-4.43-0.822-5.883-2.469
		c-1.453-1.647-2.182-3.893-2.182-6.734s0.729-5.091,2.182-6.742c1.453-1.648,3.414-2.477,5.883-2.477
		c2.448,0,4.399,0.826,5.857,2.477C406.394,748.004,407.124,750.251,407.124,753.095z M404.092,753.095
		c0-2.26-0.441-3.938-1.328-5.039c-0.886-1.099-2.113-1.646-3.688-1.646c-1.594,0-2.831,0.55-3.711,1.646
		c-0.88,1.102-1.32,2.779-1.32,5.039c0,2.188,0.442,3.849,1.328,4.979c0.885,1.131,2.12,1.693,3.703,1.693
		c1.562,0,2.789-0.56,3.68-1.68C403.647,756.968,404.092,755.304,404.092,753.095z"/>
	<path d="M433.624,744.361l-4.547,17.453h-2.719l-4.484-13.453l-4.453,13.453h-2.703l-4.594-17.453h3.062l3.203,13.516l4.359-13.516
		h2.422l4.469,13.516l3.031-13.516H433.624z"/>
	<path d="M450.327,756.783c0,1.594-0.659,2.899-1.979,3.922c-1.316,1.021-3.115,1.531-5.396,1.531c-1.292,0-2.479-0.154-3.555-0.461
		c-1.078-0.309-1.982-0.645-2.713-1.01v-3.297h0.156c0.927,0.698,1.958,1.253,3.094,1.664c1.137,0.412,2.226,0.617,3.268,0.617
		c1.292,0,2.302-0.208,3.031-0.625c0.729-0.416,1.094-1.072,1.094-1.969c0-0.688-0.198-1.208-0.594-1.562
		c-0.396-0.354-1.156-0.654-2.281-0.904c-0.417-0.096-0.961-0.203-1.633-0.328s-1.284-0.262-1.836-0.406
		c-1.531-0.406-2.617-1.002-3.26-1.789c-0.641-0.786-0.961-1.752-0.961-2.898c0-0.719,0.148-1.396,0.445-2.029
		c0.297-0.637,0.747-1.203,1.352-1.703c0.583-0.489,1.325-0.877,2.229-1.164c0.901-0.286,1.909-0.43,3.021-0.43
		c1.042,0,2.098,0.128,3.164,0.383c1.067,0.256,1.956,0.563,2.664,0.93v3.141h-0.154c-0.75-0.552-1.662-1.018-2.734-1.396
		c-1.073-0.38-2.125-0.57-3.156-0.57c-1.073,0-1.979,0.206-2.719,0.617c-0.74,0.412-1.109,1.023-1.109,1.836
		c0,0.719,0.226,1.261,0.672,1.625c0.438,0.365,1.146,0.662,2.125,0.891c0.542,0.125,1.148,0.25,1.82,0.375s1.231,0.24,1.68,0.346
		c1.364,0.312,2.417,0.85,3.156,1.607C449.957,754.492,450.327,755.512,450.327,756.783z"/>
</g>
<g enable-background="new    ">
	<path d="M738.959,568.15h-3.094v-20.047l-6.469,13.641h-1.846l-6.422-13.641v20.047h-2.891v-23.268h4.219l6.203,12.953l6-12.953
		h4.297L738.959,568.15L738.959,568.15z"/>
	<path d="M759.85,559.431c0,2.846-0.729,5.089-2.188,6.734s-3.412,2.469-5.859,2.469c-2.469,0-4.43-0.82-5.883-2.469
		c-1.453-1.646-2.18-3.891-2.18-6.734c0-2.843,0.727-5.091,2.18-6.74c1.453-1.65,3.414-2.479,5.883-2.479
		c2.447,0,4.4,0.826,5.859,2.479C759.12,554.34,759.85,556.587,759.85,559.431z M756.818,559.431c0-2.26-0.443-3.938-1.328-5.039
		c-0.888-1.099-2.115-1.646-3.688-1.646c-1.594,0-2.831,0.55-3.711,1.646c-0.881,1.102-1.318,2.779-1.318,5.039
		c0,2.188,0.44,3.849,1.326,4.979c0.887,1.131,2.119,1.695,3.703,1.695c1.562,0,2.789-0.562,3.682-1.682
		C756.373,563.304,756.818,561.64,756.818,559.431z"/>
	<path d="M778.865,568.15h-2.938v-1.938c-0.989,0.781-1.938,1.381-2.844,1.797s-1.906,0.625-3,0.625c-1.834,0-3.261-0.56-4.281-1.68
		c-1.021-1.119-1.53-2.763-1.53-4.93v-11.328h2.938v9.938c0,0.886,0.041,1.646,0.125,2.273c0.083,0.631,0.26,1.17,0.531,1.617
		c0.28,0.459,0.646,0.792,1.094,1c0.447,0.209,1.099,0.312,1.953,0.312c0.76,0,1.591-0.197,2.492-0.594
		c0.898-0.396,1.741-0.9,2.521-1.516v-13.031h2.938V568.15L778.865,568.15z"/>
	<path d="M797.115,563.119c0,1.594-0.659,2.9-1.979,3.922c-1.316,1.021-3.116,1.531-5.396,1.531c-1.292,0-2.479-0.154-3.557-0.461
		c-1.076-0.309-1.98-0.645-2.711-1.008v-3.299h0.156c0.927,0.698,1.958,1.253,3.094,1.664c1.137,0.412,2.226,0.617,3.268,0.617
		c1.291,0,2.302-0.208,3.031-0.625c0.729-0.416,1.094-1.072,1.094-1.969c0-0.688-0.198-1.208-0.594-1.562
		c-0.396-0.354-1.156-0.654-2.281-0.904c-0.417-0.096-0.961-0.203-1.633-0.328c-0.674-0.125-1.284-0.26-1.836-0.406
		c-1.531-0.406-2.617-1.002-3.26-1.789c-0.641-0.786-0.961-1.752-0.961-2.898c0-0.719,0.148-1.396,0.445-2.029
		c0.297-0.637,0.747-1.203,1.352-1.703c0.583-0.489,1.325-0.877,2.229-1.164c0.898-0.286,1.908-0.43,3.021-0.43
		c1.041,0,2.098,0.128,3.164,0.383c1.067,0.256,1.955,0.563,2.664,0.93v3.143h-0.154c-0.75-0.554-1.662-1.02-2.734-1.398
		c-1.073-0.38-2.125-0.57-3.156-0.57c-1.073,0-1.979,0.206-2.719,0.617c-0.74,0.412-1.109,1.023-1.109,1.836
		c0,0.719,0.226,1.261,0.672,1.625c0.438,0.365,1.146,0.662,2.125,0.892c0.541,0.125,1.148,0.25,1.82,0.375s1.231,0.239,1.68,0.345
		c1.364,0.312,2.416,0.85,3.156,1.607C796.745,560.828,797.115,561.848,797.115,563.119z"/>
	<path d="M815.928,559.729H803.07c0,1.072,0.161,2.009,0.482,2.806c0.322,0.797,0.768,1.451,1.328,1.961
		c0.541,0.5,1.187,0.875,1.93,1.125c0.744,0.25,1.564,0.375,2.461,0.375c1.188,0,2.385-0.236,3.588-0.711
		c1.201-0.476,2.06-0.939,2.568-1.398h0.156v3.203c-0.99,0.417-2,0.767-3.031,1.047c-1.031,0.281-2.115,0.422-3.25,0.422
		c-2.896,0-5.156-0.781-6.781-2.352c-1.625-1.567-2.438-3.794-2.438-6.68c0-2.854,0.778-5.119,2.336-6.798
		c1.557-1.678,3.606-2.517,6.148-2.517c2.354,0,4.169,0.688,5.443,2.062c1.275,1.375,1.914,3.326,1.914,5.857L815.928,559.729
		L815.928,559.729z M813.068,557.479c-0.013-1.541-0.398-2.733-1.164-3.577c-0.768-0.846-1.932-1.268-3.492-1.268
		c-1.573,0-2.826,0.464-3.758,1.393c-0.935,0.928-1.461,2.077-1.586,3.452H813.068z"/>
	<path d="M848.85,553.947v1.5c0,1-0.131,2.125-0.391,3.375c-0.261,1.25-0.703,2.441-1.328,3.578l5.906,5.75h-3.844l-3.578-3.5
		c-1.198,1.479-2.422,2.514-3.672,3.102s-2.537,0.883-3.859,0.883c-2.167,0-3.967-0.633-5.398-1.896
		c-1.433-1.268-2.146-2.925-2.146-4.979c0-0.958,0.135-1.786,0.406-2.482c0.271-0.697,0.588-1.304,0.952-1.812
		c0.363-0.489,0.816-0.95,1.358-1.383c0.541-0.432,1.088-0.81,1.642-1.133c-1.146-0.75-1.973-1.505-2.478-2.268
		c-0.506-0.76-0.758-1.719-0.758-2.875c0-0.695,0.138-1.359,0.414-1.99c0.273-0.632,0.688-1.205,1.242-1.729
		c0.521-0.5,1.198-0.906,2.039-1.219c0.838-0.312,1.763-0.469,2.771-0.469c1.802,0,3.26,0.455,4.375,1.365
		c1.114,0.912,1.672,2.065,1.672,3.462c0,0.459-0.062,0.978-0.188,1.556s-0.339,1.097-0.643,1.555c-0.334,0.511-0.808,1-1.422,1.469
		c-0.615,0.471-1.412,0.87-2.391,1.203l5.797,5.656c0.146-0.416,0.255-0.875,0.328-1.375c0.072-0.5,0.114-1.021,0.125-1.562
		c0.021-0.582,0.027-1.232,0.021-1.951c-0.006-0.721-0.008-1.328-0.008-1.828L848.85,553.947L848.85,553.947z M844.146,563.229
		l-7.471-7.28c-0.322,0.155-0.646,0.36-0.969,0.617c-0.323,0.256-0.646,0.602-0.969,1.038c-0.292,0.405-0.531,0.896-0.721,1.47
		c-0.188,0.571-0.279,1.219-0.279,1.938c0,1.521,0.443,2.748,1.336,3.682c0.891,0.933,2.152,1.396,3.789,1.396
		c0.969,0,1.93-0.236,2.883-0.711C842.701,564.903,843.5,564.188,844.146,563.229z M841.115,549.541
		c0-0.989-0.295-1.768-0.883-2.336c-0.591-0.567-1.344-0.852-2.26-0.852c-0.959,0-1.738,0.318-2.344,0.961
		c-0.604,0.641-0.906,1.425-0.906,2.352c0,0.781,0.205,1.475,0.617,2.078c0.411,0.604,1.299,1.318,2.664,2.141
		c1.021-0.362,1.794-0.896,2.32-1.602C840.852,551.58,841.115,550.666,841.115,549.541z"/>
	<path d="M885.068,568.15h-4.018l-9.203-10.359l-2.312,2.469v7.893h-3.094v-23.268h3.094v12.143l11.297-12.143h3.75l-10.391,10.938
		L885.068,568.15z"/>
	<path d="M901.818,559.729h-12.859c0,1.072,0.161,2.009,0.484,2.806c0.32,0.797,0.766,1.451,1.328,1.961
		c0.541,0.5,1.185,0.875,1.93,1.125c0.744,0.25,1.562,0.375,2.461,0.375c1.188,0,2.383-0.236,3.586-0.711
		c1.203-0.476,2.06-0.939,2.57-1.398h0.154v3.203c-0.988,0.417-2,0.767-3.029,1.047c-1.031,0.281-2.115,0.422-3.25,0.422
		c-2.896,0-5.156-0.781-6.781-2.352c-1.625-1.567-2.438-3.794-2.438-6.68c0-2.854,0.778-5.119,2.336-6.798
		c1.559-1.678,3.606-2.517,6.148-2.517c2.354,0,4.169,0.688,5.445,2.062c1.273,1.375,1.914,3.326,1.914,5.857L901.818,559.729
		L901.818,559.729z M898.959,557.479c-0.011-1.541-0.398-2.733-1.164-3.577c-0.766-0.846-1.93-1.268-3.492-1.268
		c-1.572,0-2.826,0.464-3.758,1.393c-0.933,0.928-1.461,2.077-1.586,3.452H898.959z"/>
	<path d="M921.365,550.697l-10.188,23.891h-3.141l3.25-7.281l-6.953-16.607h3.188l5.357,12.938l5.406-12.938L921.365,550.697
		L921.365,550.697z"/>
	<path d="M940.568,559.291c0,1.459-0.206,2.771-0.617,3.938c-0.412,1.169-0.967,2.146-1.664,2.938
		c-0.74,0.823-1.553,1.44-2.438,1.852c-0.885,0.412-1.857,0.617-2.922,0.617c-0.989,0-1.854-0.117-2.594-0.352
		c-0.74-0.235-1.469-0.549-2.188-0.945l-0.188,0.812h-2.75v-24.312h2.938v8.688c0.822-0.679,1.697-1.231,2.625-1.664
		c0.929-0.434,1.971-0.648,3.125-0.648c2.062,0,3.689,0.792,4.885,2.375C939.972,554.171,940.568,556.406,940.568,559.291z
		 M937.537,559.369c0-2.083-0.344-3.664-1.031-4.742c-0.687-1.078-1.797-1.617-3.328-1.617c-0.854,0-1.719,0.188-2.594,0.557
		s-1.688,0.847-2.438,1.43v10c0.831,0.375,1.549,0.636,2.146,0.781c0.598,0.145,1.278,0.219,2.039,0.219
		c1.625,0,2.898-0.533,3.82-1.604C937.076,563.325,937.537,561.65,937.537,559.369z"/>
	<path d="M960.021,559.431c0,2.846-0.729,5.089-2.188,6.734s-3.412,2.469-5.859,2.469c-2.469,0-4.43-0.82-5.883-2.469
		c-1.453-1.646-2.18-3.891-2.18-6.734c0-2.843,0.727-5.091,2.18-6.74c1.453-1.65,3.414-2.479,5.883-2.479
		c2.447,0,4.4,0.826,5.859,2.479C959.292,554.34,960.021,556.587,960.021,559.431z M956.99,559.431c0-2.26-0.443-3.938-1.328-5.039
		c-0.886-1.099-2.115-1.646-3.688-1.646c-1.594,0-2.831,0.55-3.711,1.646c-0.881,1.102-1.318,2.779-1.318,5.039
		c0,2.188,0.44,3.849,1.328,4.979c0.885,1.131,2.117,1.695,3.701,1.695c1.562,0,2.789-0.562,3.682-1.682
		C956.545,563.304,956.99,561.64,956.99,559.431z"/>
	<path d="M978.131,568.15h-2.922v-1.859c-0.261,0.178-0.612,0.425-1.055,0.742c-0.443,0.316-0.873,0.57-1.289,0.758
		c-0.49,0.24-1.053,0.439-1.688,0.602c-0.636,0.161-1.381,0.242-2.232,0.242c-1.573,0-2.906-0.521-4-1.562
		c-1.096-1.041-1.643-2.369-1.643-3.984c0-1.322,0.283-2.393,0.854-3.211c0.565-0.817,1.377-1.461,2.43-1.93
		c1.062-0.47,2.338-0.786,3.828-0.953c1.489-0.166,3.088-0.291,4.797-0.375v-0.453c0-0.666-0.117-1.219-0.352-1.656
		c-0.235-0.437-0.57-0.78-1.01-1.03c-0.417-0.238-0.917-0.399-1.5-0.483c-0.584-0.083-1.191-0.125-1.826-0.125
		c-0.771,0-1.633,0.102-2.578,0.305c-0.948,0.203-1.93,0.498-2.938,0.883h-0.156v-2.982c0.572-0.156,1.4-0.328,2.484-0.518
		c1.083-0.188,2.15-0.279,3.203-0.279c1.229,0,2.299,0.102,3.211,0.305c0.911,0.203,1.7,0.55,2.367,1.039
		c0.655,0.479,1.155,1.1,1.5,1.857c0.344,0.763,0.516,1.703,0.516,2.828V568.15L978.131,568.15z M975.209,563.854v-4.858
		c-0.896,0.053-1.951,0.131-3.164,0.233c-1.214,0.104-2.175,0.257-2.883,0.452c-0.844,0.24-1.526,0.612-2.047,1.117
		c-0.521,0.506-0.781,1.201-0.781,2.086c0,1,0.302,1.753,0.906,2.258c0.604,0.508,1.523,0.76,2.766,0.76
		c1.031,0,1.975-0.2,2.828-0.604C973.688,564.898,974.479,564.416,975.209,563.854z"/>
	<path d="M994.678,553.9h-0.156c-0.438-0.104-0.86-0.182-1.271-0.229c-0.412-0.047-0.898-0.068-1.461-0.068
		c-0.906,0-1.781,0.199-2.625,0.602s-1.656,0.92-2.438,1.555v12.393h-2.938v-17.453h2.938v2.578
		c1.166-0.938,2.195-1.604,3.087-1.992c0.892-0.391,1.8-0.586,2.728-0.586c0.51,0,0.88,0.014,1.108,0.039
		c0.229,0.024,0.571,0.075,1.03,0.146L994.678,553.9L994.678,553.9z"/>
	<path d="M1011.6,568.15h-2.938v-1.828c-0.844,0.729-1.725,1.297-2.641,1.703c-0.919,0.404-1.912,0.607-2.984,0.607
		c-2.084,0-3.737-0.802-4.961-2.405c-1.227-1.604-1.836-3.827-1.836-6.673c0-1.479,0.211-2.797,0.633-3.952s0.992-2.142,1.711-2.952
		c0.708-0.791,1.533-1.396,2.477-1.812c0.942-0.416,1.92-0.625,2.932-0.625c0.916,0,1.729,0.097,2.438,0.289
		c0.708,0.193,1.453,0.492,2.234,0.898v-7.562h2.938L1011.6,568.15L1011.6,568.15z M1008.662,563.854v-10.017
		c-0.792-0.354-1.5-0.599-2.125-0.733c-0.625-0.136-1.31-0.202-2.047-0.202c-1.646,0-2.928,0.571-3.844,1.719
		c-0.919,1.146-1.375,2.771-1.375,4.875c0,2.073,0.354,3.646,1.062,4.727c0.708,1.078,1.844,1.617,3.406,1.617
		c0.833,0,1.677-0.185,2.53-0.555C1007.125,564.914,1007.922,564.438,1008.662,563.854z"/>
</g>
<g enable-background="new    ">
	<path d="M732.162,611.35h-2.938v-1.828c-0.844,0.729-1.725,1.299-2.641,1.703c-0.917,0.406-1.912,0.609-2.984,0.609
		c-2.084,0-3.735-0.802-4.961-2.406c-1.225-1.604-1.836-3.828-1.836-6.672c0-1.479,0.211-2.797,0.633-3.953
		c0.424-1.156,0.992-2.141,1.712-2.953c0.707-0.791,1.532-1.396,2.478-1.812c0.942-0.416,1.919-0.625,2.93-0.625
		c0.916,0,1.729,0.097,2.438,0.289c0.708,0.191,1.453,0.492,2.232,0.896v-7.562h2.938L732.162,611.35L732.162,611.35z
		 M729.225,607.053v-10.016c-0.792-0.354-1.5-0.6-2.125-0.734c-0.625-0.134-1.308-0.203-2.047-0.203
		c-1.646,0-2.928,0.573-3.844,1.721c-0.917,1.146-1.375,2.771-1.375,4.875c0,2.071,0.354,3.646,1.062,4.727
		c0.706,1.078,1.844,1.617,3.404,1.617c0.833,0,1.678-0.187,2.531-0.555C727.686,608.115,728.484,607.637,729.225,607.053z"/>
	<path d="M741.1,590.975h-3.312v-3.047h3.312V590.975z M740.912,611.35h-2.938v-17.453h2.938V611.35z"/>
	<path d="M757.615,597.1h-0.156c-0.438-0.104-0.862-0.18-1.273-0.227c-0.41-0.047-0.896-0.07-1.461-0.07
		c-0.904,0-1.779,0.201-2.625,0.604c-0.844,0.399-1.654,0.92-2.438,1.555v12.391h-2.938V593.9h2.938v2.576
		c1.166-0.938,2.195-1.602,3.086-1.99c0.891-0.392,1.799-0.586,2.727-0.586c0.512,0,0.881,0.014,1.109,0.037
		c0.229,0.026,0.572,0.076,1.031,0.148V597.1z"/>
	<path d="M774.99,602.928h-12.859c0,1.073,0.161,2.008,0.484,2.807c0.322,0.797,0.766,1.449,1.328,1.961
		c0.541,0.5,1.185,0.875,1.93,1.125c0.744,0.25,1.564,0.375,2.461,0.375c1.188,0,2.383-0.236,3.586-0.711
		c1.203-0.476,2.061-0.939,2.57-1.398h0.156v3.203c-0.99,0.417-2,0.766-3.031,1.047s-2.115,0.422-3.25,0.422
		c-2.896,0-5.156-0.783-6.781-2.352c-1.625-1.567-2.438-3.794-2.438-6.682c0-2.854,0.776-5.119,2.336-6.797
		c1.557-1.677,3.604-2.516,6.146-2.516c2.354,0,4.169,0.688,5.445,2.062c1.273,1.375,1.914,3.328,1.914,5.859L774.99,602.928
		L774.99,602.928z M772.131,600.678c-0.011-1.541-0.396-2.732-1.164-3.578c-0.766-0.844-1.93-1.266-3.492-1.266
		c-1.571,0-2.824,0.464-3.758,1.391c-0.933,0.93-1.461,2.078-1.586,3.453H772.131z"/>
	<path d="M792.35,610.256c-0.979,0.469-1.907,0.834-2.789,1.094c-0.881,0.262-1.813,0.393-2.805,0.393
		c-1.261,0-2.417-0.188-3.469-0.557c-1.053-0.367-1.953-0.93-2.703-1.68c-0.761-0.75-1.35-1.697-1.766-2.844
		c-0.417-1.146-0.625-2.484-0.625-4.016c0-2.854,0.781-5.096,2.352-6.721c1.567-1.625,3.638-2.438,6.211-2.438
		c1,0,1.981,0.141,2.945,0.422c0.963,0.281,1.846,0.625,2.646,1.031v3.266h-0.154c-0.896-0.697-1.82-1.234-2.773-1.609
		s-1.883-0.562-2.789-0.562c-1.667,0-2.98,0.561-3.945,1.68c-0.964,1.12-1.443,2.765-1.443,4.931c0,2.104,0.471,3.723,1.414,4.853
		c0.94,1.131,2.268,1.695,3.977,1.695c0.594,0,1.197-0.078,1.812-0.234c0.612-0.156,1.166-0.359,1.654-0.609
		c0.429-0.219,0.828-0.448,1.203-0.693c0.375-0.244,0.672-0.455,0.893-0.633h0.154V610.256L792.35,610.256z"/>
	<path d="M805.178,611.194c-0.553,0.146-1.152,0.266-1.805,0.357c-0.651,0.094-1.232,0.143-1.742,0.143
		c-1.781,0-3.136-0.479-4.062-1.438c-0.93-0.958-1.393-2.494-1.393-4.609v-9.279h-1.982v-2.471h1.982v-5.016h2.938v5.016h6.062
		v2.471h-6.062v7.953c0,0.917,0.021,1.633,0.062,2.146c0.041,0.518,0.188,0.998,0.438,1.445c0.229,0.417,0.544,0.722,0.943,0.914
		c0.4,0.191,1.015,0.289,1.836,0.289c0.479,0,0.979-0.07,1.5-0.211c0.521-0.143,0.896-0.259,1.125-0.354h0.156v2.644H805.178z"/>
	<path d="M811.693,611.35h-2.938v-24.312h2.938V611.35z"/>
	<path d="M832.6,593.896l-10.188,23.892h-3.141l3.25-7.281l-6.953-16.607h3.188l5.359,12.938l5.406-12.938h3.077L832.6,593.896
		L832.6,593.896z"/>
	<path d="M860.6,610.256c-0.979,0.469-1.907,0.834-2.789,1.094c-0.881,0.262-1.813,0.393-2.805,0.393
		c-1.261,0-2.417-0.188-3.469-0.557c-1.053-0.367-1.953-0.93-2.703-1.68c-0.761-0.75-1.35-1.697-1.766-2.844
		c-0.417-1.146-0.625-2.484-0.625-4.016c0-2.854,0.781-5.096,2.352-6.721c1.567-1.625,3.638-2.438,6.211-2.438
		c1,0,1.981,0.141,2.945,0.422c0.963,0.281,1.846,0.625,2.646,1.031v3.266h-0.154c-0.896-0.697-1.82-1.234-2.773-1.609
		s-1.883-0.562-2.789-0.562c-1.667,0-2.98,0.561-3.945,1.68c-0.964,1.12-1.443,2.765-1.443,4.931c0,2.104,0.471,3.723,1.414,4.853
		c0.94,1.131,2.268,1.695,3.977,1.695c0.594,0,1.197-0.078,1.812-0.234c0.612-0.156,1.166-0.359,1.654-0.609
		c0.429-0.219,0.828-0.448,1.203-0.693c0.375-0.244,0.672-0.455,0.893-0.633h0.154V610.256L860.6,610.256z"/>
	<path d="M879.24,602.631c0,2.844-0.729,5.089-2.188,6.734c-1.459,1.645-3.412,2.469-5.857,2.469c-2.471,0-4.432-0.822-5.884-2.469
		s-2.181-3.893-2.181-6.734s0.729-5.091,2.181-6.742c1.452-1.648,3.413-2.477,5.884-2.477c2.445,0,4.398,0.826,5.857,2.477
		C878.511,597.541,879.24,599.788,879.24,602.631z M876.209,602.631c0-2.26-0.443-3.938-1.328-5.039
		c-0.886-1.099-2.115-1.646-3.688-1.646c-1.596,0-2.831,0.55-3.711,1.646c-0.883,1.102-1.32,2.779-1.32,5.039
		c0,2.188,0.44,3.847,1.328,4.979c0.885,1.131,2.119,1.693,3.703,1.693c1.562,0,2.789-0.56,3.68-1.68
		C875.764,606.504,876.209,604.84,876.209,602.631z"/>
	<path d="M898.381,611.35h-2.938v-9.938c0-0.802-0.047-1.555-0.143-2.258c-0.094-0.703-0.266-1.252-0.516-1.648
		c-0.261-0.438-0.636-0.763-1.125-0.977c-0.49-0.213-1.125-0.32-1.906-0.32c-0.803,0-1.641,0.198-2.516,0.594
		c-0.875,0.396-1.714,0.901-2.518,1.518v13.029h-2.938v-17.452h2.938v1.938c0.916-0.76,1.864-1.354,2.846-1.781
		c0.979-0.427,1.982-0.641,3.016-0.641c1.885,0,3.322,0.567,4.312,1.703c0.99,1.136,1.484,2.771,1.484,4.905v11.327L898.381,611.35
		L898.381,611.35z"/>
	<path d="M913.1,611.194c-0.553,0.146-1.152,0.266-1.805,0.357c-0.651,0.094-1.232,0.143-1.742,0.143
		c-1.781,0-3.136-0.479-4.062-1.438c-0.93-0.958-1.393-2.494-1.393-4.609v-9.279h-1.982v-2.471h1.982v-5.016h2.938v5.016h6.062
		v2.471h-6.062v7.953c0,0.917,0.021,1.633,0.062,2.146c0.041,0.518,0.188,0.998,0.438,1.445c0.229,0.417,0.544,0.722,0.945,0.914
		c0.398,0.191,1.013,0.289,1.836,0.289c0.479,0,0.979-0.07,1.5-0.211c0.521-0.143,0.896-0.259,1.125-0.354h0.154v2.644H913.1z"/>
	<path d="M927.537,597.1h-0.156c-0.438-0.104-0.862-0.18-1.271-0.227c-0.412-0.047-0.898-0.07-1.462-0.07
		c-0.905,0-1.78,0.201-2.625,0.604c-0.845,0.399-1.655,0.92-2.438,1.555v12.391h-2.938V593.9h2.938v2.576
		c1.166-0.938,2.195-1.602,3.086-1.99c0.891-0.392,1.799-0.586,2.728-0.586c0.511,0,0.881,0.014,1.108,0.037
		c0.229,0.026,0.572,0.076,1.031,0.148V597.1L927.537,597.1z"/>
	<path d="M945.178,602.631c0,2.844-0.729,5.089-2.188,6.734c-1.459,1.645-3.412,2.469-5.859,2.469c-2.469,0-4.43-0.822-5.883-2.469
		c-1.453-1.647-2.18-3.893-2.18-6.734s0.727-5.091,2.18-6.742c1.453-1.648,3.414-2.477,5.883-2.477c2.447,0,4.4,0.826,5.859,2.477
		C944.448,597.541,945.178,599.788,945.178,602.631z M942.146,602.631c0-2.26-0.443-3.938-1.328-5.039
		c-0.888-1.099-2.115-1.646-3.688-1.646c-1.594,0-2.831,0.55-3.711,1.646c-0.881,1.102-1.32,2.779-1.32,5.039
		c0,2.188,0.442,3.847,1.328,4.979c0.886,1.131,2.119,1.693,3.703,1.693c1.562,0,2.789-0.56,3.68-1.68
		C941.701,606.504,942.146,604.84,942.146,602.631z"/>
	<path d="M952.693,611.35h-2.938v-24.312h2.938V611.35z"/>
	<path d="M970.975,606.319c0,1.594-0.657,2.899-1.977,3.922c-1.318,1.021-3.117,1.53-5.398,1.53c-1.292,0-2.477-0.153-3.555-0.462
		c-1.078-0.307-1.982-0.643-2.711-1.008v-3.297h0.156c0.927,0.698,1.958,1.253,3.094,1.664c1.135,0.412,2.224,0.617,3.266,0.617
		c1.291,0,2.304-0.208,3.031-0.625c0.729-0.416,1.094-1.072,1.094-1.969c0-0.688-0.196-1.208-0.594-1.562
		c-0.396-0.354-1.156-0.656-2.281-0.906c-0.417-0.094-0.961-0.202-1.633-0.327s-1.284-0.261-1.836-0.405
		c-1.531-0.406-2.617-1.002-3.258-1.789c-0.641-0.786-0.961-1.752-0.961-2.898c0-0.719,0.146-1.396,0.445-2.03
		c0.297-0.636,0.745-1.202,1.352-1.702c0.583-0.489,1.325-0.877,2.227-1.164c0.9-0.286,1.908-0.432,3.023-0.432
		c1.041,0,2.096,0.128,3.164,0.384c1.067,0.257,1.955,0.564,2.664,0.931v3.141h-0.156c-0.75-0.552-1.662-1.018-2.734-1.396
		c-1.071-0.379-2.125-0.57-3.154-0.57c-1.073,0-1.979,0.206-2.721,0.617c-0.738,0.412-1.107,1.021-1.107,1.836
		c0,0.719,0.224,1.261,0.672,1.625c0.438,0.365,1.146,0.662,2.125,0.891c0.541,0.125,1.148,0.25,1.82,0.375s1.229,0.24,1.68,0.345
		c1.364,0.312,2.416,0.851,3.156,1.608C970.604,604.028,970.975,605.048,970.975,606.319z"/>
	<path d="M999.99,611.35h-2.922v-1.857c-0.263,0.178-0.612,0.425-1.057,0.742c-0.441,0.316-0.873,0.568-1.289,0.758
		c-0.488,0.239-1.053,0.438-1.688,0.602c-0.636,0.161-1.381,0.242-2.234,0.242c-1.573,0-2.905-0.521-4-1.562
		c-1.094-1.041-1.641-2.369-1.641-3.984c0-1.322,0.283-2.394,0.852-3.211c0.567-0.817,1.377-1.461,2.432-1.93
		c1.062-0.471,2.338-0.786,3.828-0.953c1.487-0.166,3.088-0.291,4.797-0.375v-0.453c0-0.666-0.117-1.219-0.354-1.656
		c-0.234-0.438-0.568-0.781-1.008-1.031c-0.417-0.237-0.917-0.398-1.5-0.482c-0.584-0.083-1.193-0.125-1.828-0.125
		c-0.771,0-1.631,0.102-2.578,0.305c-0.948,0.203-1.928,0.498-2.938,0.883h-0.156v-2.982c0.572-0.156,1.4-0.328,2.484-0.518
		c1.083-0.188,2.148-0.28,3.201-0.28c1.229,0,2.301,0.103,3.213,0.306c0.909,0.203,1.698,0.55,2.365,1.039
		c0.656,0.479,1.156,1.1,1.5,1.857c0.346,0.762,0.518,1.703,0.518,2.828L999.99,611.35L999.99,611.35z M997.068,607.053v-4.857
		c-0.896,0.053-1.951,0.131-3.164,0.232c-1.214,0.104-2.177,0.256-2.883,0.453c-0.846,0.24-1.526,0.612-2.049,1.117
		c-0.521,0.506-0.779,1.201-0.779,2.086c0,1,0.302,1.753,0.904,2.258c0.604,0.506,1.525,0.758,2.768,0.758
		c1.031,0,1.974-0.198,2.828-0.602C995.547,608.098,996.339,607.616,997.068,607.053z"/>
	<path d="M1021.006,602.413c0,1.417-0.203,2.711-0.609,3.883c-0.404,1.172-0.979,2.164-1.719,2.979
		c-0.688,0.771-1.498,1.365-2.43,1.789c-0.933,0.422-1.92,0.633-2.961,0.633c-0.906,0-1.729-0.102-2.461-0.297
		c-0.734-0.197-1.482-0.507-2.242-0.923v7.312h-2.938v-23.891h2.938v1.827c0.781-0.655,1.658-1.205,2.633-1.647
		c0.976-0.442,2.014-0.664,3.117-0.664c2.104,0,3.742,0.795,4.914,2.383S1021.006,599.59,1021.006,602.413z M1017.975,602.491
		c0-2.104-0.357-3.677-1.078-4.719c-0.719-1.041-1.821-1.562-3.312-1.562c-0.844,0-1.693,0.183-2.547,0.547
		c-0.854,0.365-1.672,0.844-2.453,1.438v9.891c0.833,0.375,1.549,0.631,2.148,0.766c0.599,0.138,1.276,0.203,2.038,0.203
		c1.636,0,2.91-0.552,3.827-1.654C1017.516,606.293,1017.975,604.658,1017.975,602.491z"/>
	<path d="M1040.943,602.413c0,1.417-0.203,2.711-0.609,3.883s-0.979,2.164-1.719,2.979c-0.688,0.771-1.498,1.365-2.432,1.789
		c-0.933,0.422-1.92,0.633-2.961,0.633c-0.904,0-1.727-0.102-2.461-0.297c-0.732-0.197-1.48-0.507-2.242-0.923v7.312h-2.938v-23.891
		h2.938v1.827c0.781-0.655,1.658-1.205,2.635-1.647c0.974-0.442,2.013-0.664,3.115-0.664c2.104,0,3.742,0.795,4.914,2.383
		C1040.357,597.384,1040.943,599.59,1040.943,602.413z M1037.912,602.491c0-2.104-0.359-3.677-1.078-4.719
		c-0.719-1.041-1.823-1.562-3.312-1.562c-0.844,0-1.691,0.183-2.547,0.547c-0.854,0.365-1.672,0.844-2.453,1.438v9.891
		c0.834,0.375,1.551,0.631,2.148,0.766c0.599,0.138,1.278,0.203,2.039,0.203c1.635,0,2.911-0.552,3.828-1.654
		C1037.453,606.293,1037.912,604.658,1037.912,602.491z"/>
	<path d="M1048.49,611.35h-2.938v-24.312h2.938V611.35z"/>
	<path d="M1057.459,590.975h-3.312v-3.047h3.312V590.975z M1057.271,611.35h-2.938v-17.453h2.938V611.35z"/>
	<path d="M1075.99,610.256c-0.979,0.469-1.909,0.834-2.789,1.094c-0.881,0.262-1.815,0.393-2.805,0.393
		c-1.263,0-2.418-0.188-3.471-0.557c-1.053-0.367-1.953-0.93-2.703-1.68c-0.761-0.75-1.35-1.697-1.766-2.844
		c-0.417-1.146-0.625-2.484-0.625-4.016c0-2.854,0.783-5.096,2.354-6.721c1.565-1.625,3.638-2.438,6.211-2.438
		c1,0,1.979,0.141,2.943,0.422c0.963,0.281,1.848,0.625,2.648,1.031v3.266h-0.156c-0.896-0.697-1.82-1.234-2.771-1.609
		c-0.953-0.375-1.885-0.562-2.789-0.562c-1.667,0-2.982,0.561-3.945,1.68c-0.964,1.12-1.445,2.765-1.445,4.931
		c0,2.104,0.473,3.723,1.414,4.853c0.942,1.131,2.27,1.695,3.979,1.695c0.594,0,1.195-0.078,1.812-0.234
		c0.614-0.156,1.166-0.359,1.656-0.609c0.427-0.219,0.828-0.448,1.203-0.693c0.375-0.244,0.672-0.455,0.891-0.633h0.156
		L1075.99,610.256L1075.99,610.256z"/>
	<path d="M1093.318,611.35h-2.922v-1.857c-0.263,0.178-0.612,0.425-1.057,0.742c-0.441,0.316-0.873,0.568-1.289,0.758
		c-0.488,0.239-1.053,0.438-1.688,0.602c-0.637,0.161-1.381,0.242-2.234,0.242c-1.573,0-2.906-0.521-4-1.562
		s-1.641-2.369-1.641-3.984c0-1.322,0.281-2.394,0.852-3.211c0.567-0.817,1.377-1.461,2.432-1.93
		c1.062-0.471,2.338-0.786,3.828-0.953c1.487-0.166,3.088-0.291,4.797-0.375v-0.453c0-0.666-0.117-1.219-0.354-1.656
		c-0.236-0.437-0.568-0.781-1.008-1.031c-0.417-0.237-0.917-0.398-1.5-0.482c-0.584-0.083-1.193-0.125-1.828-0.125
		c-0.771,0-1.631,0.102-2.578,0.305c-0.948,0.203-1.928,0.498-2.938,0.883h-0.156v-2.982c0.572-0.156,1.398-0.328,2.482-0.518
		c1.084-0.188,2.15-0.28,3.203-0.28c1.229,0,2.299,0.103,3.211,0.306c0.911,0.203,1.7,0.55,2.367,1.039
		c0.656,0.479,1.156,1.1,1.5,1.857c0.344,0.762,0.518,1.703,0.518,2.828L1093.318,611.35L1093.318,611.35z M1090.396,607.053v-4.857
		c-0.896,0.053-1.951,0.131-3.164,0.232c-1.215,0.104-2.177,0.256-2.885,0.453c-0.844,0.24-1.524,0.612-2.047,1.117
		c-0.521,0.506-0.779,1.201-0.779,2.086c0,1,0.302,1.753,0.904,2.258c0.604,0.506,1.525,0.758,2.768,0.758
		c1.029,0,1.974-0.198,2.828-0.602C1088.875,608.098,1089.667,607.616,1090.396,607.053z"/>
	<path d="M1108.037,611.194c-0.553,0.146-1.154,0.266-1.805,0.357c-0.651,0.094-1.232,0.143-1.742,0.143
		c-1.781,0-3.137-0.479-4.062-1.438c-0.928-0.958-1.391-2.494-1.391-4.609v-9.279h-1.984v-2.471h1.984v-5.016h2.938v5.016h6.062
		v2.471h-6.062v7.953c0,0.917,0.021,1.633,0.062,2.146c0.041,0.518,0.188,0.998,0.438,1.445c0.229,0.417,0.544,0.722,0.945,0.914
		c0.4,0.191,1.013,0.289,1.836,0.289c0.479,0,0.979-0.07,1.5-0.211c0.521-0.143,0.896-0.259,1.125-0.354h0.156V611.194z"/>
	<path d="M1114.74,590.975h-3.312v-3.047h3.312V590.975z M1114.553,611.35h-2.938v-17.453h2.938V611.35z"/>
	<path d="M1135.24,602.631c0,2.844-0.729,5.089-2.188,6.734c-1.459,1.645-3.412,2.469-5.857,2.469c-2.471,0-4.432-0.822-5.885-2.469
		c-1.452-1.646-2.18-3.893-2.18-6.734s0.728-5.091,2.18-6.742c1.453-1.648,3.414-2.477,5.885-2.477c2.445,0,4.398,0.826,5.857,2.477
		C1134.511,597.541,1135.24,599.788,1135.24,602.631z M1132.209,602.631c0-2.26-0.443-3.938-1.328-5.039
		c-0.886-1.099-2.115-1.646-3.688-1.646c-1.596,0-2.831,0.55-3.711,1.646c-0.883,1.102-1.32,2.779-1.32,5.039
		c0,2.188,0.441,3.847,1.328,4.979c0.885,1.131,2.119,1.693,3.703,1.693c1.562,0,2.789-0.56,3.68-1.68
		C1131.764,606.504,1132.209,604.84,1132.209,602.631z"/>
	<path d="M1154.381,611.35h-2.938v-9.938c0-0.802-0.047-1.555-0.143-2.258c-0.094-0.703-0.266-1.252-0.516-1.648
		c-0.261-0.438-0.636-0.763-1.125-0.977c-0.49-0.213-1.125-0.32-1.906-0.32c-0.803,0-1.641,0.198-2.516,0.594
		c-0.875,0.396-1.714,0.901-2.518,1.518v13.029h-2.938v-17.452h2.938v1.938c0.916-0.76,1.864-1.354,2.846-1.781
		c0.979-0.427,1.982-0.641,3.016-0.641c1.885,0,3.322,0.567,4.312,1.703c0.989,1.136,1.483,2.771,1.483,4.905v11.327
		L1154.381,611.35L1154.381,611.35z"/>
</g>
<path fill="#FFFFFF" stroke="#000000" stroke-width="10" stroke-miterlimit="10" d="M492.125,934.129c0,6.627-5.373,12-12,12h-83.05
	c-6.628,0-12-5.373-12-12v-54c0-6.627,5.372-12,12-12h83.05c6.627,0,12,5.373,12,12V934.129z"/>
<g enable-background="new    ">
	<path d="M427.502,907.498h-19.289c0,1.609,0.242,3.012,0.729,4.207c0.483,1.195,1.146,2.176,1.99,2.939
		c0.812,0.75,1.777,1.312,2.896,1.688s2.348,0.562,3.689,0.562c1.781,0,3.574-0.354,5.381-1.064c1.805-0.711,3.09-1.41,3.854-2.098
		h0.234v4.805c-1.484,0.625-3,1.146-4.547,1.57c-1.549,0.422-3.174,0.633-4.875,0.633c-4.346,0-7.734-1.178-10.174-3.527
		c-2.438-2.351-3.654-5.691-3.654-10.02c0-4.281,1.168-7.682,3.504-10.195c2.336-2.516,5.41-3.773,9.223-3.773
		c3.531,0,6.254,1.031,8.168,3.096c1.914,2.062,2.871,4.99,2.871,8.787V907.498z M423.213,904.123
		c-0.016-2.312-0.598-4.102-1.746-5.367c-1.146-1.265-2.895-1.896-5.238-1.896c-2.357,0-4.236,0.693-5.637,2.086
		c-1.397,1.391-2.189,3.115-2.379,5.18L423.213,904.123L423.213,904.123z"/>
	<path d="M452.885,912.583c0,2.391-0.986,4.352-2.965,5.883c-1.977,1.531-4.676,2.297-8.098,2.297c-1.938,0-3.715-0.229-5.332-0.689
		s-2.975-0.965-4.066-1.514v-4.943h0.234c1.391,1.047,2.938,1.879,4.641,2.496c1.703,0.616,3.336,0.926,4.898,0.926
		c1.938,0,3.453-0.312,4.547-0.938s1.641-1.607,1.641-2.951c0-1.031-0.297-1.812-0.891-2.346c-0.594-0.532-1.734-0.982-3.422-1.357
		c-0.625-0.143-1.441-0.307-2.449-0.492c-1.008-0.188-1.926-0.393-2.754-0.609c-2.297-0.607-3.926-1.504-4.887-2.684
		c-0.961-1.182-1.441-2.629-1.441-4.35c0-1.076,0.223-2.094,0.668-3.047s1.121-1.805,2.027-2.555
		c0.875-0.734,1.986-1.316,3.34-1.746c1.352-0.43,2.863-0.645,4.535-0.645c1.562,0,3.145,0.189,4.746,0.572
		c1.601,0.384,2.934,0.85,3.996,1.396v4.711h-0.234c-1.125-0.828-2.492-1.527-4.104-2.099c-1.608-0.57-3.188-0.854-4.732-0.854
		c-1.609,0-2.969,0.31-4.078,0.926c-1.109,0.617-1.664,1.535-1.664,2.754c0,1.078,0.336,1.893,1.008,2.438
		c0.656,0.547,1.719,0.992,3.188,1.336c0.812,0.188,1.723,0.375,2.729,0.562c1.007,0.188,1.85,0.358,2.521,0.517
		c2.047,0.469,3.625,1.271,4.732,2.414C452.331,909.146,452.885,910.677,452.885,912.583z"/>
	<path d="M478.549,918.49c-1.469,0.703-2.863,1.25-4.184,1.641c-1.321,0.391-2.725,0.586-4.207,0.586
		c-1.893,0-3.625-0.275-5.203-0.832c-1.578-0.555-2.93-1.395-4.055-2.52c-1.143-1.125-2.023-2.547-2.648-4.268
		c-0.625-1.719-0.938-3.727-0.938-6.021c0-4.281,1.176-7.643,3.525-10.078c2.353-2.438,5.457-3.656,9.316-3.656
		c1.5,0,2.973,0.211,4.418,0.633s2.77,0.938,3.973,1.547v4.898h-0.232c-1.346-1.047-2.73-1.852-4.16-2.414
		c-1.432-0.562-2.824-0.844-4.186-0.844c-2.5,0-4.473,0.84-5.918,2.52c-1.443,1.682-2.168,4.146-2.168,7.396
		c0,3.156,0.707,5.582,2.121,7.275c1.414,1.695,3.402,2.545,5.965,2.545c0.893,0,1.797-0.117,2.721-0.354
		c0.922-0.234,1.75-0.539,2.482-0.914c0.643-0.328,1.242-0.676,1.807-1.043c0.562-0.367,1.008-0.684,1.336-0.949h0.232
		L478.549,918.49L478.549,918.49z"/>
</g>
<g enable-background="new    ">
	<path d="M547.528,920.13H532.2v-23.266h15.328v2.75h-12.234v6.375h12.234v2.75h-12.234v8.641h12.234V920.13z"/>
	<path d="M567.309,920.13h-3.701l-4.953-6.703l-4.984,6.703h-3.422l6.812-8.703l-6.75-8.75h3.703l4.922,6.595l4.938-6.595h3.438
		l-6.857,8.595L567.309,920.13z"/>
	<path d="M574.293,899.755h-3.312v-3.047h3.312V899.755z M574.106,920.13h-2.938v-17.453h2.938V920.13z"/>
	<path d="M588.981,919.974c-0.554,0.146-1.154,0.268-1.807,0.359c-0.649,0.094-1.23,0.141-1.742,0.141
		c-1.779,0-3.136-0.479-4.062-1.438c-0.927-0.958-1.391-2.494-1.391-4.609v-9.28h-1.984v-2.47h1.984v-5.016h2.938v5.016h6.062v2.47
		h-6.062v7.952c0,0.917,0.021,1.635,0.062,2.148c0.041,0.516,0.188,0.998,0.438,1.445c0.229,0.417,0.544,0.722,0.945,0.914
		c0.399,0.191,1.013,0.288,1.836,0.288c0.479,0,0.979-0.069,1.5-0.212c0.521-0.141,0.896-0.258,1.125-0.352h0.156L588.981,919.974
		L588.981,919.974z"/>
	<path d="M619.231,903.896c0,1.029-0.182,1.985-0.539,2.865c-0.359,0.881-0.862,1.646-1.51,2.289
		c-0.802,0.805-1.75,1.404-2.844,1.807c-1.094,0.399-2.474,0.602-4.141,0.602h-3.094v8.672h-3.096v-23.266h6.312
		c1.396,0,2.578,0.117,3.547,0.352c0.969,0.235,1.828,0.604,2.578,1.104c0.885,0.594,1.568,1.334,2.055,2.219
		C618.989,901.422,619.231,902.542,619.231,903.896z M616.012,903.974c0-0.802-0.141-1.5-0.422-2.094s-0.708-1.078-1.281-1.453
		c-0.5-0.32-1.068-0.555-1.711-0.693c-0.641-0.142-1.449-0.211-2.43-0.211h-3.062v9.297h2.607c1.25,0,2.268-0.111,3.047-0.336
		c0.781-0.226,1.417-0.58,1.906-1.07c0.489-0.5,0.836-1.025,1.039-1.578C615.911,905.282,616.012,904.662,616.012,903.974z"/>
	<path d="M637.168,911.412c0,2.844-0.729,5.089-2.188,6.734c-1.458,1.646-3.411,2.469-5.859,2.469c-2.469,0-4.43-0.822-5.883-2.469
		c-1.453-1.647-2.182-3.893-2.182-6.734s0.729-5.091,2.182-6.742c1.453-1.65,3.414-2.477,5.883-2.477
		c2.448,0,4.401,0.824,5.859,2.477C636.439,906.321,637.168,908.568,637.168,911.412z M634.137,911.412
		c0-2.26-0.44-3.939-1.328-5.039c-0.885-1.099-2.112-1.648-3.687-1.648c-1.594,0-2.831,0.552-3.711,1.648
		c-0.88,1.1-1.32,2.779-1.32,5.039c0,2.188,0.442,3.847,1.328,4.977c0.885,1.131,2.12,1.695,3.703,1.695
		c1.562,0,2.789-0.56,3.679-1.68C633.691,915.285,634.137,913.621,634.137,911.412z"/>
	<path d="M644.871,899.755h-3.312v-3.047h3.312V899.755z M644.684,920.13h-2.938v-17.453h2.938V920.13z"/>
	<path d="M665.09,920.13h-2.938v-9.938c0-0.804-0.047-1.557-0.143-2.26c-0.094-0.701-0.266-1.252-0.516-1.646
		c-0.26-0.438-0.635-0.763-1.125-0.979c-0.489-0.213-1.125-0.318-1.906-0.318c-0.802,0-1.641,0.198-2.516,0.594
		c-0.875,0.396-1.713,0.901-2.518,1.516v13.031h-2.938v-17.453h2.938v1.938c0.917-0.76,1.865-1.354,2.846-1.781
		c0.979-0.427,1.982-0.641,3.016-0.641c1.886,0,3.323,0.566,4.312,1.703c0.989,1.136,1.483,2.771,1.483,4.904v11.328L665.09,920.13
		L665.09,920.13z"/>
	<path d="M679.809,919.974c-0.552,0.146-1.151,0.268-1.805,0.359c-0.65,0.094-1.229,0.141-1.742,0.141
		c-1.779,0-3.135-0.479-4.062-1.438c-0.927-0.958-1.393-2.494-1.393-4.609v-9.28h-1.982v-2.47h1.982v-5.016h2.938v5.016h6.062v2.47
		h-6.062v7.952c0,0.917,0.021,1.635,0.062,2.148c0.042,0.516,0.188,0.998,0.438,1.445c0.229,0.417,0.545,0.722,0.945,0.914
		c0.399,0.191,1.014,0.288,1.836,0.288c0.479,0,0.979-0.069,1.5-0.212c0.521-0.141,0.896-0.258,1.125-0.352h0.154v2.643H679.809z"/>
	<path d="M697.965,911.708h-12.857c0,1.073,0.16,2.008,0.482,2.805c0.323,0.797,0.768,1.451,1.328,1.961
		c0.542,0.5,1.186,0.875,1.93,1.125c0.745,0.25,1.565,0.375,2.461,0.375c1.188,0,2.385-0.234,3.586-0.711
		c1.203-0.474,2.062-0.938,2.57-1.396h0.156v3.203c-0.989,0.417-2,0.766-3.031,1.047s-2.114,0.422-3.25,0.422
		c-2.896,0-5.156-0.783-6.781-2.354c-1.625-1.565-2.438-3.794-2.438-6.68c0-2.854,0.779-5.119,2.336-6.797
		c1.558-1.677,3.607-2.516,6.148-2.516c2.354,0,4.17,0.688,5.443,2.062c1.276,1.375,1.914,3.328,1.914,5.859L697.965,911.708
		L697.965,911.708z M695.105,909.458c-0.012-1.541-0.398-2.734-1.164-3.578c-0.768-0.844-1.932-1.266-3.492-1.266
		c-1.572,0-2.825,0.464-3.758,1.391c-0.934,0.928-1.461,2.078-1.586,3.453H695.105z"/>
	<path d="M713.309,905.88h-0.154c-0.438-0.104-0.861-0.18-1.273-0.227c-0.411-0.047-0.896-0.07-1.461-0.07
		c-0.906,0-1.781,0.201-2.625,0.602c-0.844,0.401-1.656,0.922-2.438,1.557v12.391h-2.938v-17.453h2.938v2.578
		c1.167-0.938,2.193-1.602,3.086-1.992c0.891-0.39,1.8-0.586,2.727-0.586c0.511,0,0.881,0.016,1.109,0.039
		c0.229,0.026,0.571,0.076,1.029,0.148V905.88z"/>
	<path d="M735.762,920.13h-9.188v-2.375h3.047V899.24h-3.047v-2.375h9.188v2.375h-3.047v18.516h3.047V920.13z"/>
	<path d="M755.387,920.13h-2.938v-9.938c0-0.804-0.047-1.557-0.143-2.26c-0.094-0.701-0.266-1.252-0.516-1.646
		c-0.26-0.438-0.635-0.763-1.125-0.979c-0.489-0.213-1.125-0.318-1.906-0.318c-0.802,0-1.641,0.198-2.516,0.594
		c-0.875,0.396-1.713,0.901-2.516,1.516v13.031h-2.938v-17.453h2.938v1.938c0.916-0.76,1.863-1.354,2.844-1.781
		c0.979-0.427,1.982-0.641,3.016-0.641c1.886,0,3.323,0.566,4.312,1.703c0.988,1.136,1.482,2.771,1.482,4.904v11.328L755.387,920.13
		L755.387,920.13z"/>
	<path d="M770.105,919.974c-0.554,0.146-1.153,0.268-1.807,0.359c-0.648,0.094-1.229,0.141-1.742,0.141
		c-1.779,0-3.135-0.479-4.062-1.438c-0.927-0.958-1.392-2.494-1.392-4.609v-9.28h-1.983v-2.47h1.983v-5.016h2.938v5.016h6.062v2.47
		h-6.062v7.952c0,0.917,0.021,1.635,0.062,2.148c0.041,0.516,0.188,0.998,0.438,1.445c0.229,0.417,0.545,0.722,0.945,0.914
		c0.399,0.191,1.014,0.288,1.836,0.288c0.479,0,0.979-0.069,1.5-0.212c0.521-0.141,0.896-0.258,1.125-0.352h0.155v2.643H770.105z"/>
	<path d="M788.262,911.708h-12.857c0,1.073,0.162,2.008,0.482,2.805c0.323,0.797,0.768,1.451,1.328,1.961
		c0.542,0.5,1.188,0.875,1.93,1.125c0.745,0.25,1.565,0.375,2.463,0.375c1.188,0,2.383-0.234,3.586-0.711
		c1.201-0.474,2.061-0.938,2.568-1.396h0.156v3.203c-0.99,0.417-2,0.766-3.031,1.047c-1.029,0.281-2.112,0.422-3.25,0.422
		c-2.896,0-5.154-0.783-6.779-2.354c-1.625-1.565-2.438-3.794-2.438-6.68c0-2.854,0.779-5.119,2.336-6.797
		c1.56-1.677,3.607-2.516,6.148-2.516c2.354,0,4.17,0.688,5.443,2.062c1.275,1.374,1.914,3.328,1.914,5.859L788.262,911.708
		L788.262,911.708z M785.402,909.458c-0.012-1.541-0.398-2.734-1.164-3.578c-0.768-0.844-1.932-1.266-3.492-1.266
		c-1.572,0-2.825,0.464-3.758,1.391c-0.934,0.928-1.461,2.078-1.586,3.453H785.402z"/>
	<path d="M803.605,905.88h-0.156c-0.438-0.104-0.861-0.18-1.273-0.227s-0.896-0.07-1.461-0.07c-0.906,0-1.781,0.201-2.625,0.602
		c-0.844,0.401-1.656,0.922-2.438,1.557v12.391h-2.938v-17.453h2.938v2.578c1.166-0.938,2.193-1.602,3.086-1.992
		c0.891-0.39,1.799-0.586,2.727-0.586c0.51,0,0.881,0.016,1.109,0.039c0.229,0.026,0.572,0.076,1.031,0.148V905.88z"/>
	<path d="M819.371,920.13h-2.922v-1.857c-0.26,0.178-0.611,0.425-1.057,0.74c-0.441,0.318-0.872,0.57-1.288,0.76
		c-0.489,0.238-1.054,0.438-1.688,0.602c-0.635,0.161-1.381,0.242-2.234,0.242c-1.57,0-2.904-0.521-4-1.562
		c-1.094-1.041-1.641-2.369-1.641-3.982c0-1.322,0.283-2.395,0.852-3.211c0.569-0.817,1.378-1.462,2.432-1.932
		c1.062-0.469,2.338-0.786,3.828-0.953c1.488-0.166,3.088-0.291,4.797-0.375v-0.452c0-0.666-0.117-1.22-0.354-1.655
		c-0.233-0.438-0.568-0.781-1.008-1.031c-0.416-0.239-0.916-0.4-1.5-0.484c-0.584-0.083-1.192-0.125-1.828-0.125
		c-0.771,0-1.631,0.104-2.578,0.307c-0.945,0.203-1.928,0.498-2.938,0.883h-0.156v-2.984c0.572-0.155,1.4-0.327,2.484-0.516
		s2.148-0.281,3.203-0.281c1.229,0,2.299,0.104,3.211,0.306c0.911,0.202,1.699,0.551,2.365,1.039c0.656,0.479,1.156,1.101,1.5,1.858
		c0.346,0.761,0.518,1.703,0.518,2.828L819.371,920.13L819.371,920.13z M816.449,915.833v-4.859
		c-0.896,0.055-1.951,0.133-3.164,0.234c-1.213,0.104-2.174,0.256-2.883,0.453c-0.846,0.24-1.525,0.612-2.047,1.117
		c-0.521,0.506-0.781,1.2-0.781,2.086c0,1,0.303,1.753,0.906,2.258c0.604,0.506,1.523,0.758,2.766,0.758
		c1.031,0,1.975-0.2,2.828-0.602C814.928,916.878,815.721,916.396,816.449,915.833z"/>
	<path d="M837.934,919.037c-0.979,0.469-1.906,0.834-2.789,1.094c-0.881,0.26-1.812,0.391-2.805,0.391
		c-1.26,0-2.416-0.186-3.469-0.555s-1.953-0.93-2.703-1.68c-0.76-0.75-1.35-1.697-1.766-2.844c-0.416-1.147-0.625-2.484-0.625-4.018
		c0-2.854,0.783-5.094,2.352-6.719c1.569-1.625,3.639-2.438,6.211-2.438c1,0,1.982,0.143,2.945,0.424
		c0.963,0.279,1.846,0.625,2.646,1.029v3.268h-0.154c-0.896-0.697-1.82-1.234-2.773-1.609s-1.883-0.562-2.789-0.562
		c-1.666,0-2.98,0.561-3.945,1.68c-0.963,1.12-1.443,2.764-1.443,4.93c0,2.104,0.471,3.724,1.414,4.854
		c0.941,1.131,2.268,1.693,3.977,1.693c0.594,0,1.197-0.078,1.812-0.232c0.613-0.156,1.166-0.359,1.654-0.609
		c0.43-0.219,0.828-0.45,1.203-0.695c0.375-0.242,0.672-0.453,0.893-0.633h0.154V919.037L837.934,919.037z"/>
	<path d="M850.762,919.974c-0.553,0.146-1.152,0.268-1.805,0.359s-1.232,0.141-1.742,0.141c-1.781,0-3.135-0.479-4.062-1.438
		c-0.93-0.958-1.393-2.494-1.393-4.609v-9.28h-1.982v-2.47h1.982v-5.016h2.938v5.016h6.062v2.47H844.7v7.952
		c0,0.917,0.021,1.635,0.062,2.148s0.188,0.998,0.438,1.445c0.229,0.417,0.545,0.722,0.943,0.914c0.4,0.191,1.016,0.288,1.837,0.288
		c0.479,0,0.979-0.069,1.5-0.212c0.521-0.141,0.896-0.258,1.125-0.352h0.155L850.762,919.974L850.762,919.974z"/>
	<path d="M857.465,899.755h-3.312v-3.047h3.312V899.755z M857.277,920.13h-2.938v-17.453h2.938V920.13z"/>
	<path d="M877.965,911.412c0,2.844-0.729,5.089-2.188,6.734c-1.459,1.645-3.412,2.469-5.859,2.469c-2.469,0-4.43-0.822-5.883-2.469
		c-1.453-1.647-2.18-3.893-2.18-6.734s0.727-5.091,2.18-6.742c1.453-1.65,3.414-2.477,5.883-2.477c2.447,0,4.4,0.824,5.859,2.477
		S877.965,908.568,877.965,911.412z M874.934,911.412c0-2.26-0.441-3.939-1.326-5.039c-0.887-1.099-2.115-1.648-3.688-1.648
		c-1.594,0-2.83,0.552-3.711,1.648c-0.881,1.1-1.32,2.779-1.32,5.039c0,2.188,0.443,3.847,1.328,4.977
		c0.885,1.131,2.119,1.695,3.703,1.695c1.562,0,2.789-0.56,3.68-1.68C874.488,915.285,874.934,913.621,874.934,911.412z"/>
	<path d="M897.105,920.13h-2.938v-9.938c0-0.804-0.047-1.557-0.141-2.26c-0.096-0.701-0.268-1.252-0.518-1.646
		c-0.26-0.438-0.635-0.763-1.125-0.979c-0.49-0.213-1.125-0.318-1.906-0.318c-0.803,0-1.641,0.198-2.516,0.594
		c-0.875,0.396-1.713,0.901-2.516,1.516v13.031h-2.938v-17.453h2.938v1.938c0.916-0.76,1.864-1.354,2.844-1.781
		c0.979-0.427,1.984-0.641,3.016-0.641c1.887,0,3.322,0.566,4.312,1.703c0.99,1.136,1.483,2.771,1.483,4.904v11.328L897.105,920.13
		L897.105,920.13z"/>
</g>
<polygon fill="#28B45F" stroke="#000000" stroke-width="10" stroke-linecap="round" stroke-linejoin="round" points="
	251.638,144.641 251.638,267.975 290.283,229.33 342.905,229.33 "/>
<g>
	<circle fill="none" stroke="#000000" stroke-width="10" cx="931.104" cy="144.641" r="28.597"/>
	<polygon fill="#28B45F" stroke="#000000" stroke-width="10" stroke-linecap="round" stroke-linejoin="round" points="
		931.104,144.641 931.104,267.975 969.748,229.33 1022.371,229.33 	"/>
</g>
<polygon points="643.203,322.011 643.203,831.129 651.178,821.413 651.178,313.13 "/>
<g>
	<polygon fill="#28B45F" points="77.125,383.38 79.125,358.755 87.25,350.38 110.25,350.255 110.375,370.38 103,383.38 	"/>
	<polygon fill="#FFFFFF" points="112.375,349.13 140.125,349.797 148.458,359.463 149.458,447.797 139.792,466.13 123.792,475.13 
		97.458,473.797 82.125,462.13 76.792,446.463 75.792,385.797 102.208,386.047 104.125,375.463 112.042,371.047 	"/>
	<path fill="none" stroke="#000000" stroke-width="6" stroke-miterlimit="10" d="M76.625,369.63c0-15.5,8-21,20-21
		s20.25-0.083,31.25-0.083c14.167,0,21.75,5.083,21.75,20.083s0.082,28.667,0.082,73.667s-73.082,45.5-73.082,1.333
		C76.625,409.13,76.625,369.63,76.625,369.63z"/>
	
		<line fill="none" stroke="#000000" stroke-width="6" stroke-miterlimit="10" x1="112.125" y1="372.463" x2="112.125" y2="348.797"/>
	<line fill="none" stroke="#000000" stroke-width="6" stroke-miterlimit="10" x1="149.125" y1="385.13" x2="121.125" y2="385.13"/>
	<line fill="none" stroke="#000000" stroke-width="6" stroke-miterlimit="10" x1="104.458" y1="385.13" x2="76.458" y2="385.13"/>
	<path fill="none" stroke="#000000" stroke-width="6" stroke-miterlimit="10" d="M120.125,405.114c0,4.242-3.582,7.683-8,7.683l0,0
		c-4.418,0-8-3.438-8-7.683v-24.969c0-4.243,3.582-7.683,8-7.683l0,0c4.418,0,8,3.439,8,7.683V405.114z"/>
</g>
<g>
	<polygon fill="#28B45F" points="147.75,552.879 146.75,528.254 137.625,519.879 114.625,519.754 114.5,539.879 121.875,552.879 	
		"/>
	<polygon fill="#FFFFFF" points="112.875,519.879 85.125,520.545 76.792,530.213 75.792,618.545 85.458,636.879 101.458,645.879 
		127.792,644.545 143.125,632.879 148.458,617.213 149.458,556.545 123.042,556.795 121.125,546.213 113.208,541.795 	"/>
	<path fill="none" stroke="#000000" stroke-width="6" stroke-miterlimit="10" d="M76.625,539.629c0-15.5,8-21,20-21
		s20.25-0.082,31.25-0.082c14.167,0,21.75,5.082,21.75,20.082s0.082,28.666,0.082,73.668c0,45-73.082,45.5-73.082,1.332
		C76.625,579.129,76.625,539.629,76.625,539.629z"/>
	
		<line fill="none" stroke="#000000" stroke-width="6" stroke-miterlimit="10" x1="112.125" y1="542.463" x2="112.125" y2="518.797"/>
	
		<line fill="none" stroke="#000000" stroke-width="6" stroke-miterlimit="10" x1="149.125" y1="555.129" x2="121.125" y2="555.129"/>
	<line fill="none" stroke="#000000" stroke-width="6" stroke-miterlimit="10" x1="104.458" y1="555.129" x2="76.458" y2="555.129"/>
	<path fill="none" stroke="#000000" stroke-width="6" stroke-miterlimit="10" d="M120.125,575.114c0,4.242-3.582,7.684-8,7.684l0,0
		c-4.418,0-8-3.438-8-7.684v-24.97c0-4.241,3.582-7.685,8-7.685l0,0c4.418,0,8,3.439,8,7.685V575.114z"/>
</g>
<g>
	<path fill="#FFFFFF" stroke="#000000" stroke-width="6" stroke-miterlimit="10" d="M76.625,714.629c0-15.5,8-21,20-21
		s20.25-0.082,31.25-0.082c14.167,0,21.75,5.082,21.75,20.082s0.082,28.666,0.082,73.668c0,45-73.082,45.5-73.082,1.332
		C76.625,754.129,76.625,714.629,76.625,714.629z"/>
	
		<line fill="none" stroke="#000000" stroke-width="6" stroke-miterlimit="10" x1="112.125" y1="717.463" x2="112.125" y2="693.797"/>
	
		<line fill="none" stroke="#000000" stroke-width="6" stroke-miterlimit="10" x1="149.125" y1="730.129" x2="121.125" y2="730.129"/>
	<line fill="none" stroke="#000000" stroke-width="6" stroke-miterlimit="10" x1="104.458" y1="730.129" x2="76.458" y2="730.129"/>
	<path fill="#28B45F" stroke="#000000" stroke-width="6" stroke-miterlimit="10" d="M120.125,750.114c0,4.242-3.582,7.684-8,7.684
		l0,0c-4.418,0-8-3.438-8-7.684v-24.97c0-4.241,3.582-7.685,8-7.685l0,0c4.418,0,8,3.439,8,7.685V750.114z"/>
</g>
<polygon fill="#28B45F" stroke="#000000" stroke-width="2" points="111.899,666.658 132.498,686.52 119.917,686.52 119.917,710.627 
	103.792,710.627 103.792,686.627 91.304,686.627 "/>
<polygon fill="#28B45F" stroke="#000000" stroke-width="2" points="111.901,809.627 91.303,789.766 103.884,789.766 
	103.884,765.658 120.009,765.658 120.009,789.658 132.497,789.658 "/>
</svg>
