<?xml version="1.0" encoding="utf-8"?>
<!-- Generator: Adobe Illustrator 13.0.0, SVG Export Plug-In . SVG Version: 6.00 Build 14948)  -->
<!DOCTYPE svg PUBLIC "-//W3C//DTD SVG 1.1//EN" "http://www.w3.org/Graphics/SVG/1.1/DTD/svg11.dtd">
<svg version="1.1" id="Layer_1" xmlns="http://www.w3.org/2000/svg" xmlns:xlink="http://www.w3.org/1999/xlink" x="0px" y="0px"
	 width="245.001px" height="245px" viewBox="0 0 245.001 245" enable-background="new 0 0 245.001 245" xml:space="preserve">
<g>
	<g>
		<path fill="#EB2D14" d="M122.5,6C58.159,6,6,58.159,6,122.5C6,186.839,58.159,239,122.5,239c64.341,0,116.501-52.16,116.501-116.5
			C239.001,58.159,186.841,6,122.5,6z M122.5,190.78c-37.711,0-68.282-30.57-68.282-68.28c0-37.712,30.571-68.282,68.282-68.282
			c37.712,0,68.282,30.57,68.282,68.282C190.781,160.209,160.212,190.78,122.5,190.78z"/>
	</g>
	<g>
		<path fill="none" stroke="#000000" stroke-width="12" stroke-linecap="round" stroke-linejoin="round" d="M122.5,6
			C58.159,6,6,58.159,6,122.5C6,186.839,58.159,239,122.5,239c64.341,0,116.501-52.16,116.501-116.5
			C239.001,58.159,186.841,6,122.5,6z M122.5,190.78c-37.711,0-68.282-30.57-68.282-68.28c0-37.712,30.571-68.282,68.282-68.282
			c37.712,0,68.282,30.57,68.282,68.282C190.781,160.209,160.212,190.78,122.5,190.78z"/>
	</g>
</g>
</svg>
