<?xml version="1.0" encoding="UTF-8" standalone="no"?>
<!-- Generator: Adobe Illustrator 15.1.0, SVG Export Plug-In . SVG Version: 6.00 Build 0)  -->

<svg
   xmlns:dc="http://purl.org/dc/elements/1.1/"
   xmlns:cc="http://creativecommons.org/ns#"
   xmlns:rdf="http://www.w3.org/1999/02/22-rdf-syntax-ns#"
   xmlns:svg="http://www.w3.org/2000/svg"
   xmlns="http://www.w3.org/2000/svg"
   xmlns:sodipodi="http://sodipodi.sourceforge.net/DTD/sodipodi-0.dtd"
   xmlns:inkscape="http://www.inkscape.org/namespaces/inkscape"
   version="1.1"
   id="Layer_1"
   x="0px"
   y="0px"
   width="512px"
   height="512px"
   viewBox="0 0 512 512"
   enable-background="new 0 0 512 512"
   xml:space="preserve"
   inkscape:version="0.48.2 r9819"
   sodipodi:docname="rain.svg"><metadata
   id="metadata3163"><rdf:RDF><cc:Work
       rdf:about=""><dc:format>image/svg+xml</dc:format><dc:type
         rdf:resource="http://purl.org/dc/dcmitype/StillImage" /></cc:Work></rdf:RDF></metadata><defs
   id="defs3161" /><sodipodi:namedview
   pagecolor="#ffffff"
   bordercolor="#666666"
   borderopacity="1"
   objecttolerance="10"
   gridtolerance="10"
   guidetolerance="10"
   inkscape:pageopacity="0"
   inkscape:pageshadow="2"
   inkscape:window-width="1181"
   inkscape:window-height="871"
   id="namedview3159"
   showgrid="false"
   inkscape:zoom="1.3037281"
   inkscape:cx="237.61156"
   inkscape:cy="290.66992"
   inkscape:window-x="0"
   inkscape:window-y="0"
   inkscape:window-maximized="0"
   inkscape:current-layer="Layer_1" />

<g
   id="g3153">
	<g
   id="g3155">
		<path
   fill-rule="evenodd"
   clip-rule="evenodd"
   fill="#1D1D1B"
   d="M400,64c-5.312,0-10.562,0.375-15.792,1.125    C354.334,24.417,307.188,0,256,0s-98.312,24.417-128.208,65.125C122.562,64.375,117.312,64,112,64C50.25,64,0,114.25,0,176    s50.25,112,112,112c13.688,0,27.084-2.5,39.709-7.333C180.666,305.917,217.5,320,256,320c38.542,0,75.333-14.083,104.291-39.333    C372.916,285.5,386.312,288,400,288c61.75,0,112-50.25,112-112S461.75,64,400,64z M400,256c-17.125,0-32.916-5.5-45.938-14.667    C330.584,269.625,295.624,288,256,288c-39.625,0-74.584-18.375-98.062-46.667C144.938,250.5,129.125,256,112,256    c-44.188,0-80-35.812-80-80s35.812-80,80-80c10.812,0,21.062,2.208,30.438,6.083C163.667,60.667,206.291,32,256,32    s92.334,28.667,113.541,70.083C378.938,98.208,389.209,96,400,96c44.188,0,80,35.812,80,80S444.188,256,400,256z M225,480    c0,17.688,14.312,32,32,32s32-14.312,32-32s-32-64-32-64S225,462.312,225,480z M352,448c0,17.688,14.312,32,32,32s32-14.312,32-32    s-32-64-32-64S352,430.312,352,448z M96,384c0,17.688,14.312,32,32,32s32-14.312,32-32s-32-64-32-64S96,366.312,96,384z"
   id="path3157" />
	</g>
</g>
<path
   style="fill:#cccccc;fill-opacity:1;fill-rule:nonzero;stroke:#000000;stroke-width:0.76703107;stroke-opacity:1"
   d="m 242.59727,286.91727 c -29.45602,-3.58559 -55.79218,-16.64235 -76.90621,-38.12803 l -7.87341,-8.012 -2.92702,1.937 c -13.38863,8.86018 -30.46845,13.45991 -46.82084,12.60922 -39.330609,-2.04607 -71.727262,-33.05007 -75.113658,-71.88471 -2.087711,-23.94153 6.145839,-46.69837 22.990055,-63.54259 9.625849,-9.62585 21.082656,-16.39643 34.778924,-20.553147 6.4369,-1.953552 7.861951,-2.096348 21.093359,-2.113654 13.4798,-0.01763 14.53561,0.09038 21.09335,2.157885 10.71372,3.377786 9.63419,3.589296 12.99761,-2.546542 7.40908,-13.516224 23.46881,-31.272813 37.05322,-40.968215 16.44069,-11.733963 36.71731,-19.642281 57.42973,-22.398821 38.38652,-5.108723 78.51182,9.056186 105.85021,37.36691 7.98606,8.270111 14.79165,17.153223 19.55331,25.522309 1.80576,3.173813 3.65794,5.770565 4.11596,5.770565 0.45802,0 2.7192,-0.66267 5.02485,-1.4726 8.94352,-3.141687 16.44987,-4.12064 28.30986,-3.692079 9.00832,0.325516 12.49945,0.796258 18.06894,2.436405 13.97016,4.114044 25.33859,10.946574 35.37203,21.258904 9.80687,10.07946 15.80819,20.30889 19.9533,34.011 1.92693,6.36968 2.09255,7.97048 2.14267,20.70984 0.0652,16.57028 -1.09831,21.97871 -7.61122,35.38028 -10.35167,21.30058 -28.66067,36.25835 -51.68317,42.22323 -20.95154,5.42831 -44.46766,1.55259 -62.33913,-10.27419 l -2.92702,-1.937 -7.87341,8.01296 c -19.44539,19.79006 -43.16153,32.39134 -69.61941,36.99142 -9.01697,1.56773 -25.95396,2.13124 -34.13288,1.13565 l 0,0 z"
   id="path3165"
   inkscape:connector-curvature="0" /></svg>