<?xml version="1.0" encoding="UTF-8" standalone="no"?>
<!-- Generator: Adobe Illustrator 13.0.0, SVG Export Plug-In . SVG Version: 6.00 Build 14948)  -->

<svg
   xmlns:dc="http://purl.org/dc/elements/1.1/"
   xmlns:cc="http://creativecommons.org/ns#"
   xmlns:rdf="http://www.w3.org/1999/02/22-rdf-syntax-ns#"
   xmlns:svg="http://www.w3.org/2000/svg"
   xmlns="http://www.w3.org/2000/svg"
   xmlns:sodipodi="http://sodipodi.sourceforge.net/DTD/sodipodi-0.dtd"
   xmlns:inkscape="http://www.inkscape.org/namespaces/inkscape"
   version="1.1"
   id="Layer_1"
   x="0px"
   y="0px"
   width="320"
   height="255"
   viewBox="0 0 320 255"
   enable-background="new 0 0 512 512"
   xml:space="preserve"
   sodipodi:docname="clearcontent-partition.svg"
   inkscape:version="0.92.2 (unknown)"><metadata
     id="metadata13"><rdf:RDF><cc:Work
         rdf:about=""><dc:format>image/svg+xml</dc:format><dc:type
           rdf:resource="http://purl.org/dc/dcmitype/StillImage" /><dc:title></dc:title></cc:Work></rdf:RDF></metadata><defs
     id="defs11" /><sodipodi:namedview
     pagecolor="#ffffff"
     bordercolor="#666666"
     borderopacity="1"
     objecttolerance="10"
     gridtolerance="10"
     guidetolerance="10"
     inkscape:pageopacity="0"
     inkscape:pageshadow="2"
     inkscape:window-width="2194"
     inkscape:window-height="1407"
     id="namedview9"
     showgrid="false"
     inkscape:pagecheckerboard="true"
     inkscape:zoom="1.84375"
     inkscape:cx="244.26461"
     inkscape:cy="156.98464"
     inkscape:window-x="134"
     inkscape:window-y="55"
     inkscape:window-maximized="0"
     inkscape:current-layer="Layer_1" /><g
     id="g6"
     transform="matrix(0.76487003,0,0,0.76487003,-35.056773,-68.659715)"><g
       id="g4"><path
         d="m 210.952,309.914 -30.718,30.722 c -4.57,4.572 -4.57,11.979 0.007,16.54 2.284,2.284 5.276,3.43 8.27,3.43 2.994,0 5.982,-1.146 8.263,-3.43 l 30.729,-30.718 30.726,30.718 c 2.282,2.284 5.27,3.43 8.271,3.43 2.985,0 5.983,-1.146 8.269,-3.43 4.568,-4.562 4.568,-11.968 0,-16.54 l -30.718,-30.722 30.718,-30.727 c 4.568,-4.567 4.568,-11.976 0,-16.539 -4.568,-4.569 -11.972,-4.569 -16.541,0 L 227.5,293.37 196.771,262.648 c -4.568,-4.569 -11.968,-4.569 -16.537,0 -4.57,4.563 -4.57,11.972 0,16.539 z M 326.75,175.837 H 128.249 c -10.175,0 -18.449,8.27 -18.449,18.443 v 198.289 c 0,10.167 8.273,18.441 18.449,18.441 H 326.75 c 10.173,0 18.452,-8.274 18.452,-18.441 V 194.281 c 0,-10.174 -8.279,-18.444 -18.452,-18.444 z M 300,193.5 h 23 v 23 h -23 z m -29,0 h 23 v 23 h -23 z m 53.118,196.434 H 130.877 V 232.267 H 324.118 Z M 381.787,101.913 H 183.284 c -10.173,0 -18.449,8.27 -18.449,18.445 V 166.6 h 21.083 v -8.255 h 193.237 v 157.663 h -24.572 v 21.08 h 27.208 c 10.177,0 18.448,-8.271 18.448,-18.443 V 120.358 c -0.004,-10.175 -8.279,-18.445 -18.452,-18.445 z M 349.5,143 h -23 v -23 h 23 z m 29,0 h -23 v -23 h 23 z"
         id="path2"
         inkscape:connector-curvature="0"
         style="fill:#ffffff" /></g></g></svg>