<?xml version="1.0"?>
<svg width="324" height="111" xmlns="http://www.w3.org/2000/svg" xmlns:svg="http://www.w3.org/2000/svg" xmlns:xlink="http://www.w3.org/1999/xlink" preserveAspectRatio="xMidYMid meet">
 <!-- Created with SVG-edit - http://svg-edit.googlecode.com/ -->
 <defs>
  <symbol viewBox="0 0 80 80" height="80px" width="80px" y="0px" x="0px" id="svg_5" xmlns:xlink="http://www.w3.org/1999/xlink" xmlns="http://www.w3.org/2000/svg">
   <path d="m31.334999,59.736l16.526001,0l6.577999,-7.884998l1.455002,-7.379002c0,0 0.697998,-7.733002 -0.612,-8.605999c-0.765003,-0.509003 -3.673,0 -3.673,0l-0.577,9.125999l0,-15.654001l0,-3.771999c0,0 -0.951,-1.612 -2.888,-1.624001c-1.535,-0.008999 -2.146,1.112001 -2.146,1.112001l-0.084,-2.573c0,0 -0.426003,-2.216002 -3.025002,-2.216002c-1.237999,0 -2.041,0.627001 -2.532001,1.259001c-0.5,0.642 -0.682999,1.285999 -0.682999,1.285999l0,0c0,0 -0.917999,-0.876999 -2.650002,-1.019999c-1.632999,-0.135 -3.162998,1.632 -3.162998,1.632l0,4.386c0,0 -1.529999,-1.324001 -2.958,-1.324001c-1.530001,0 -2.855999,2.191 -2.855999,2.191l0,5.508999l0,20.044003" fill="#FFFFFF"/>
   <path d="m31.334999,59.736c2.754002,-0.116001 5.510002,-0.209 8.264999,-0.279999l8.265003,-0.233002l-0.396,0.187l6.424,-8.014999l-0.152,0.320999c0.431999,-2.471001 0.841,-4.945999 1.300999,-7.409l-0.014,0.09c0.146,-2.021999 0.234001,-4.118 0.071999,-6.084c-0.046997,-0.481998 -0.112999,-0.972 -0.229,-1.359001c-0.049999,-0.188 -0.146,-0.362999 -0.146999,-0.354c0.019001,0.012001 -0.018997,0.002003 0.094002,0.069c-0.021,-0.010998 -0.077999,-0.045998 -0.063,-0.034c0.008999,0.010002 0.042999,0.021 0.031998,0.02c-0.028,-0.011997 -0.107998,-0.028 -0.196999,-0.039997c-0.778999,-0.091003 -1.869999,0.044998 -2.806,0.199997l0.790001,-0.883999l-0.553001,9.127998l-1.966999,-0.063l0.021,-19.428999l0.133999,0.488001c-0.146,-0.222 -0.459,-0.559999 -0.75,-0.743c-0.301998,-0.210001 -0.634998,-0.329 -0.980999,-0.385c-0.086002,-0.021 -0.179001,-0.014999 -0.268002,-0.021999c-0.002998,-0.002001 -0.087997,-0.004 -0.021,-0.007l-0.097,0.001999l-0.183998,0.008001c-0.104,0.014999 -0.280003,0.046 -0.420002,0.099998c-0.146,0.053001 -0.274998,0.130001 -0.396,0.225c-0.105,0.076 -0.250999,0.253 -0.266998,0.271999l-1.693001,2.482l-0.067001,-2.900999l-0.063,-2.574001l0.02,0.144001c-0.029999,-0.137001 -0.153,-0.438 -0.285,-0.617001c-0.139,-0.202999 -0.306999,-0.371 -0.498001,-0.504999c-0.386997,-0.267 -0.899998,-0.383001 -1.480999,-0.360001c-0.499001,0.019001 -0.978001,0.198999 -1.357998,0.541c-0.383003,0.322001 -0.724003,0.884001 -0.873001,1.337l-0.429001,1.299999l-1.021,-0.9c-0.221001,-0.195 -0.687,-0.462 -1.096001,-0.588999c-0.216,-0.069 -0.438,-0.132 -0.663998,-0.166c-0.217003,-0.037001 -0.498001,-0.066 -0.603001,-0.047001c-0.353001,0.024 -0.758999,0.189001 -1.146999,0.433001c-0.383003,0.230999 -0.787003,0.572001 -1.079002,0.884001l0.200001,-0.537001l-0.027,4.386999l-0.009998,1.702l-1.304001,-1.103998c-0.366001,-0.312 -0.841,-0.627001 -1.286999,-0.842001c-0.448002,-0.223 -0.931002,-0.35 -1.285002,-0.315001c-0.302,0.021 -0.75,0.269001 -1.118,0.603001c-0.375,0.327999 -0.741999,0.768 -1.018999,1.179001l0.1,-0.354c-0.09,4.259998 -0.146002,8.519001 -0.284,12.777c-0.127001,4.259998 -0.222,8.517998 -0.401001,12.774998c-0.181999,-4.259998 -0.274,-8.52 -0.400999,-12.774998c-0.138,-4.261002 -0.193001,-8.52 -0.284,-12.777l-0.004,-0.188002l0.102999,-0.167999c0.354,-0.576 0.730001,-1.059999 1.215,-1.527c0.487001,-0.448999 1.055,-0.903 1.929001,-1.045c0.813999,-0.087999 1.502998,0.146 2.105999,0.413c0.614002,0.286001 1.132999,0.611 1.670002,1.048l-1.313,0.601l-0.027,-4.386999l-0.002003,-0.312l0.203003,-0.228001c0.444,-0.496 0.881001,-0.871 1.417999,-1.227999c0.528999,-0.343 1.151001,-0.636002 1.892998,-0.712002c0.441002,-0.039999 0.708,0.007 1.029003,0.050001c0.313,0.044001 0.624001,0.122 0.93,0.216999c0.626999,0.212 1.159,0.446001 1.771,0.963001l-1.451,0.396999c0.286999,-0.886 0.711998,-1.566999 1.379997,-2.188999c0.663002,-0.606001 1.572002,-0.979 2.484001,-1.012001c0.817001,-0.038 1.762001,0.118999 2.553001,0.651001c0.393997,0.264 0.729,0.602999 0.989998,0.980999c0.264,0.399 0.446003,0.749001 0.577,1.301001l0.013,0.052l0.004002,0.094l0.105999,2.572001l-1.764,-0.42c0.242001,-0.405001 0.445,-0.599001 0.723,-0.839001c0.269001,-0.219 0.568001,-0.396999 0.892002,-0.525c0.326,-0.125 0.637997,-0.201 1.029999,-0.239l0.188,-0.011l0.096001,-0.004l0.161999,0.004c0.158001,0.011999 0.316002,0.011 0.479,0.041c0.636002,0.091999 1.260002,0.327 1.778999,0.684c0.535,0.369999 0.938,0.75 1.342003,1.362l0.130997,0.200001l0.001003,0.285999l0.021,19.429001l-1.967003,-0.063l0.604,-9.125l0.052002,-0.780003l0.738998,-0.104c1.116001,-0.152 2.118,-0.309998 3.413002,-0.157997c0.168999,0.026997 0.344997,0.062 0.560997,0.141998c0.053001,0.019001 0.146004,0.061001 0.215,0.095001l0.105003,0.062c0.216999,0.139999 0.280998,0.217999 0.382,0.327c0.329998,0.411999 0.415997,0.737999 0.516998,1.049c0.167999,0.612 0.229,1.165001 0.275002,1.717999c0.149998,2.188999 0.028999,4.271999 -0.146,6.399002l-0.004002,0.046997l-0.009998,0.045002c-0.510002,2.454998 -1.07,4.896999 -1.607002,7.349998l-0.042999,0.193001l-0.109001,0.128002l-6.731998,7.752998l-0.170002,0.192001l-0.229,-0.007l-8.264,-0.233002c-2.761997,-0.083 -5.517998,-0.174 -8.271999,-0.292z" fill="#6D829F"/>
   <line y2="48.759" x2="45.143" y1="44.475" x1="51.262" stroke-miterlimit="10" stroke="#6D829F" fill="none"/>
   <path d="m43.959999,45.657001" stroke-miterlimit="10" stroke="#6D829F" fill="#FFFFFF"/>
   <line y2="40.895" x2="45.488" y1="21.655" x1="45.488" stroke-miterlimit="10" stroke="#6D829F" fill="none"/>
   <line y2="41.41" x2="39.675" y1="22.771" x1="39.675" stroke-miterlimit="10" stroke="#6D829F" fill="none"/>
   <line y2="41.41" x2="34.269" y1="28.113" x1="34.269" stroke-miterlimit="10" stroke="#6D829F" fill="none"/>
  </symbol>
 </defs>
 <g>
  <title>Layer 1</title>
  <rect stroke="#b1b3b0" fill-opacity="0" id="svg_1" height="92.000003" width="137.999998" y="9.5" x="7.999999" stroke-width="16" fill="#000000"/>
  <rect id="svg_3" stroke="#b1b3b0" fill-opacity="0" height="92.000003" width="137.999998" y="9.5" x="177.999999" stroke-width="16" fill="#000000"/>
  <use x="474.769753" y="81.562197" transform="matrix(1.7419353174587717,0,0,1.6773861338473461,-653.0275279526612,-149.92067867391262) " xlink:href="#svg_5" id="svg_6"/>
  <rect stroke="#000000" id="svg_7" height="53" width="100.000009" y="29" x="26.999996" stroke-linecap="null" stroke-linejoin="null" stroke-dasharray="null" stroke-width="0" fill="#ffffff"/>
 </g>
</svg>