<?xml version="1.0" encoding="utf-8"?>
<!-- Generator: Adobe Illustrator 19.1.0, SVG Export Plug-In . SVG Version: 6.00 Build 0)  -->
<svg version="1.1" id="Layer_1" xmlns:svg="http://www.w3.org/2000/svg"
	 xmlns="http://www.w3.org/2000/svg" xmlns:xlink="http://www.w3.org/1999/xlink" x="0px" y="0px" viewBox="-233 251 324 111"
	 style="enable-background:new -233 251 324 111;" xml:space="preserve">
<style type="text/css">
	.st0{fill:#FFFFFF;}
	.st1{fill:#6D829F;}
	.st2{fill:none;stroke:#6D829F;stroke-miterlimit:10;}
	.st3{fill:#FFFFFF;stroke:#6D829F;stroke-miterlimit:10;}
	.st4{fill-opacity:0;stroke:#B1B3B0;stroke-width:16;}
</style>
<symbol  id="svg_5" viewBox="-20.6 -28.4 41.1 56.7">
	<path class="st0" d="M-15,27.6H7.9L17,16.7l2-10.2c0,0,1-10.7-0.8-11.9c-1.1-0.7-5.1,0-5.1,0L12.3,7.2v-21.7v-5.2
		c0,0-1.3-2.2-4-2.3c-2.1,0-3,1.5-3,1.5l-0.1-3.6c0,0-0.6-3.1-4.2-3.1c-1.7,0-2.8,0.9-3.5,1.7c-0.7,0.9-0.9,1.8-0.9,1.8l0,0
		c0,0-1.3-1.2-3.7-1.4c-2.3-0.2-4.4,2.3-4.4,2.3v6.1c0,0-2.1-1.8-4.1-1.8c-2.1,0-4,3-4,3v7.6V20"/>
	<path class="st1" d="M-15,27.6c3.8-0.2,7.6-0.3,11.5-0.4l11.5-0.3l-0.5,0.3l8.9-11.1L16,16.5c0.6-3.4,1.2-6.9,1.8-10.3l0,0.1
		c0.2-2.8,0.3-5.7,0.1-8.4c-0.1-0.7-0.2-1.3-0.3-1.9c-0.1-0.3-0.2-0.5-0.2-0.5c0,0,0,0,0.1,0.1c0,0-0.1-0.1-0.1,0c0,0,0.1,0,0,0
		c0,0-0.1,0-0.3-0.1c-1.1-0.1-2.6,0.1-3.9,0.3l1.1-1.2L13.7,7.3l-2.7-0.1l0-27l0.2,0.7c-0.2-0.3-0.6-0.8-1-1
		c-0.4-0.3-0.9-0.5-1.4-0.5c-0.1,0-0.2,0-0.4,0c0,0-0.1,0,0,0l-0.1,0l-0.3,0c-0.1,0-0.4,0.1-0.6,0.1c-0.2,0.1-0.4,0.2-0.5,0.3
		c-0.1,0.1-0.3,0.4-0.4,0.4l-2.3,3.4l-0.1-4L3.9-24l0,0.2c0-0.2-0.2-0.6-0.4-0.9c-0.2-0.3-0.4-0.5-0.7-0.7c-0.5-0.4-1.2-0.5-2.1-0.5
		c-0.7,0-1.4,0.3-1.9,0.8c-0.5,0.4-1,1.2-1.2,1.9l-0.6,1.8l-1.4-1.2c-0.3-0.3-1-0.6-1.5-0.8c-0.3-0.1-0.6-0.2-0.9-0.2
		c-0.3-0.1-0.7-0.1-0.8-0.1c-0.5,0-1.1,0.3-1.6,0.6c-0.5,0.3-1.1,0.8-1.5,1.2l0.3-0.7l0,6.1l0,2.4l-1.8-1.5
		c-0.5-0.4-1.2-0.9-1.8-1.2c-0.6-0.3-1.3-0.5-1.8-0.4c-0.4,0-1,0.4-1.6,0.8c-0.5,0.5-1,1.1-1.4,1.6l0.1-0.5
		C-18.8-9.5-18.8-3.6-19,2.3c-0.2,5.9-0.3,11.8-0.6,17.7c-0.3-5.9-0.4-11.8-0.6-17.7c-0.2-5.9-0.3-11.8-0.4-17.7l0-0.3l0.1-0.2
		c0.5-0.8,1-1.5,1.7-2.1c0.7-0.6,1.5-1.3,2.7-1.4c1.1-0.1,2.1,0.2,2.9,0.6c0.9,0.4,1.6,0.8,2.3,1.5l-1.8,0.8l0-6.1l0-0.4l0.3-0.3
		c0.6-0.7,1.2-1.2,2-1.7c0.7-0.5,1.6-0.9,2.6-1c0.6-0.1,1,0,1.4,0.1c0.4,0.1,0.9,0.2,1.3,0.3c0.9,0.3,1.6,0.6,2.5,1.3l-2,0.6
		c0.4-1.2,1-2.2,1.9-3c0.9-0.8,2.2-1.4,3.4-1.4c1.1-0.1,2.4,0.2,3.5,0.9c0.5,0.4,1,0.8,1.4,1.4c0.4,0.6,0.6,1,0.8,1.8l0,0.1l0,0.1
		l0.1,3.6l-2.4-0.6c0.3-0.6,0.6-0.8,1-1.2C5.5-22.6,6-22.8,6.4-23c0.5-0.2,0.9-0.3,1.4-0.3l0.3,0l0.1,0l0.2,0c0.2,0,0.4,0,0.7,0.1
		c0.9,0.1,1.7,0.5,2.5,0.9c0.7,0.5,1.3,1,1.9,1.9l0.2,0.3l0,0.4l0,27l-2.7-0.1l0.8-12.7l0.1-1.1l1-0.1C14.4-7,15.8-7.2,17.6-7
		c0.2,0,0.5,0.1,0.8,0.2c0.1,0,0.2,0.1,0.3,0.1l0.1,0.1c0.3,0.2,0.4,0.3,0.5,0.5c0.5,0.6,0.6,1,0.7,1.5c0.2,0.8,0.3,1.6,0.4,2.4
		c0.2,3,0,5.9-0.2,8.9l0,0.1l0,0.1c-0.7,3.4-1.5,6.8-2.2,10.2l-0.1,0.3l-0.2,0.2L8.5,28.1l-0.2,0.3l-0.3,0L-3.6,28
		C-7.4,27.9-11.2,27.8-15,27.6z"/>
	<line class="st2" x1="12.6" y1="6.5" x2="4.1" y2="12.4"/>
	<path class="st3" d="M2.5,8.1"/>
	<line class="st2" x1="4.6" y1="-25.2" x2="4.6" y2="1.5"/>
	<line class="st2" x1="-3.5" y1="-23.7" x2="-3.5" y2="2.2"/>
	<line class="st2" x1="-11" y1="-16.2" x2="-11" y2="2.2"/>
</symbol>
<title>Layer 1</title>
<rect id="svg_1" x="-225" y="260.5" class="st4" width="138" height="92"/>
<rect id="svg_3" x="-55.3" y="260.5" class="st4" width="138" height="92"/>
<use xlink:href="#svg_5"  width="41.1" height="56.7" id="svg_6" x="-20.6" y="-28.4" transform="matrix(1.3029 0 0 1.2546 13.7282 306.4999)" style="overflow:visible;"/>
<rect id="svg_7" x="-206" y="280" class="st0" width="100" height="53"/>
</svg>
