<?xml version="1.0" encoding="utf-8"?>
<!-- Generator: Adobe Illustrator 19.1.0, SVG Export Plug-In . SVG Version: 6.00 Build 0)  -->
<svg version="1.1" id="Layer_1" xmlns="http://www.w3.org/2000/svg" xmlns:xlink="http://www.w3.org/1999/xlink" x="0px" y="0px"
	 viewBox="356.6 234.5 79.1 133.9" style="enable-background:new 356.6 234.5 79.1 133.9;" xml:space="preserve">
<style type="text/css">
	.st0{fill:#28B45F;}
	.st1{fill:#FFFFFF;}
	.st2{fill:none;stroke:#000000;stroke-width:6;stroke-miterlimit:10;}
</style>
<g>
	<polygon class="st0" points="360.1,272.4 362.1,247.8 370.2,239.4 393.2,239.3 393.4,259.4 386,272.4 	"/>
	<polygon class="st1" points="395.4,238.1 423.1,238.8 431.5,248.5 432.5,336.8 422.8,355.1 406.8,364.1 380.5,362.8 365.1,351.1 
		359.8,335.5 358.8,274.8 385.2,275 387.1,264.5 395,260 	"/>
	<path class="st2" d="M359.6,258.6c0-15.5,8-21,20-21s20.2-0.1,31.2-0.1c14.2,0,21.8,5.1,21.8,20.1s0.1,28.7,0.1,73.7
		s-73.1,45.5-73.1,1.3C359.6,298.1,359.6,258.6,359.6,258.6z"/>
	<line class="st2" x1="395.1" y1="261.5" x2="395.1" y2="237.8"/>
	<line class="st2" x1="432.1" y1="274.1" x2="404.1" y2="274.1"/>
	<line class="st2" x1="387.5" y1="274.1" x2="359.5" y2="274.1"/>
	<path class="st2" d="M403.1,294.1c0,4.2-3.6,7.7-8,7.7l0,0c-4.4,0-8-3.4-8-7.7v-25c0-4.2,3.6-7.7,8-7.7l0,0c4.4,0,8,3.4,8,7.7
		V294.1z"/>
</g>
</svg>
