<?xml version="1.0" encoding="utf-8"?>
<!-- Generator: Adobe Illustrator 18.1.1, SVG Export Plug-In . SVG Version: 6.00 Build 0)  -->
<svg version="1.1" id="Layer_1" xmlns="http://www.w3.org/2000/svg" xmlns:xlink="http://www.w3.org/1999/xlink" x="0px" y="0px"
	 viewBox="0 0 612 792" enable-background="new 0 0 612 792" xml:space="preserve">
<g opacity="0.2">
	<g>
		<path fill="#414042" d="M362.1,312.4h81.2v18.3h-62.9v45.6h62.9v18.3h-62.9v59.3h62.9v18.3h-81.2L362.1,312.4L362.1,312.4z"/>
	</g>
	<g>
		<path fill="#414042" d="M306.7,393.1h60.2c-0.4,45.4-27.2,82.4-72.3,82.4c-45.6,0-82.6-37.4-82.6-83.3s37-83.3,82.6-83.3
			c24.4,0,46.5,11,61.6,28l-13,12.8c-11.6-13.7-29.2-22.6-48.6-22.6c-35.6,0-64.3,29.2-64.3,65s28.8,65,64.3,65
			c28.8,0,46.3-19.4,52-45.9h-39.9L306.7,393.1L306.7,393.1z"/>
	</g>
	<g>
		<path fill="#414042" d="M95.9,474.4l72.3-159.7h7.1l72.6,159.7h-20.1l-18.9-41.5h-74.2L116,474.4H95.9L95.9,474.4z M141.9,416.9
			h59.5l-29.7-65.7L141.9,416.9z"/>
	</g>
	<g>
		<path fill="#414042" d="M112.5,333.6L97,343.4c-3.4-9.4-13.2-16.2-24.9-16.2c-14.6,0-26.2,10.5-26.2,23.7
			c0,14.6,13.7,20.3,29.2,26.2c20.3,7.7,43.8,16.4,43.8,49.5c0,27.2-22.4,48.8-50,48.8c-25.5,0-46.3-18.3-49.5-42.5l18-3.7
			c1.4,15.7,14.8,27.8,31.5,27.8c17.6,0,31.7-13.5,31.7-30.6c0-20.3-17.1-26.7-31.9-32.4c-21.6-8-41.1-16-41.1-43.1
			c0-23.3,19.9-42,44.5-42C90.2,308.9,105.7,319,112.5,333.6z"/>
	</g>
	<g>
		<path fill="#414042" d="M448.2,472.5v-13.2l15.1-16.4c36.4-38.7,52.9-59.3,53.1-83.3c0-16.2-7-31.1-28.3-31.1
			c-12.9,0-23.7,7.3-30.3,13.5l-6.1-15.2c9.9-9.3,23.9-16.1,40.4-16.1c30.7,0,43.7,23.5,43.7,46.3c0,29.4-19.1,53.1-49.1,85.5
			L475.2,454v0.5h64.1v17.9L448.2,472.5L448.2,472.5z"/>
	</g>
</g>
<g opacity="0.2">
	<path fill="#414042" d="M556.6,314.7v-2.3h14.8v2.3h-6.1v20.7h-2.4v-20.7H556.6z"/>
	<path fill="#414042" d="M576.3,316.7v18.7h-2.5v-22.9h3.4l5.4,19.6l5.4-19.6h3.4v22.9H589v-18.7l-5.1,18.7h-2.5L576.3,316.7z"/>
</g>
</svg>
