<?xml version="1.0" encoding="utf-8"?>
<!-- Generator: Adobe Illustrator 18.1.1, SVG Export Plug-In . SVG Version: 6.00 Build 0)  -->
<svg version="1.1" id="Layer_1" xmlns="http://www.w3.org/2000/svg" xmlns:xlink="http://www.w3.org/1999/xlink" x="0px" y="0px"
	 viewBox="19.4 615.8 612 178.3" enable-background="new 19.4 615.8 612 178.3" xml:space="preserve">
<g>
	<g>
		<path fill="#DCDCDC" d="M386.1,619.5h86.9v19.6h-67.3v48.8h67.3v19.6h-67.3v63.4h67.3v19.6h-86.9L386.1,619.5L386.1,619.5z"/>
	</g>
	<g>
		<path fill="#DCDCDC" d="M326.8,705.9h64.4c-0.4,48.6-29.1,88.2-77.4,88.2c-48.8,0-88.4-40-88.4-89.1c0-49.1,39.6-89.1,88.4-89.1
			c26.1,0,49.8,11.8,65.9,30l-13.9,13.7c-12.4-14.7-31.2-24.2-52-24.2c-38.1,0-68.8,31.2-68.8,69.5c0,38.3,30.8,69.5,68.8,69.5
			c30.8,0,49.5-20.8,55.6-49.1h-42.7L326.8,705.9L326.8,705.9z"/>
	</g>
	<g>
		<path fill="#DCDCDC" d="M101.2,792.8L178.6,622h7.6l77.7,170.9h-21.5l-20.2-44.4h-79.4l-20,44.4H101.2L101.2,792.8z M150.5,731.3
			h63.7L182.4,661L150.5,731.3z"/>
	</g>
	<g>
		<path fill="#DCDCDC" d="M119,642.2l-16.6,10.5c-3.6-10.1-14.1-17.3-26.6-17.3c-15.6,0-28,11.2-28,25.4c0,15.6,14.7,21.7,31.2,28
			c21.7,8.2,46.9,17.5,46.9,53c0,29.1-24,52.2-53.5,52.2c-27.3,0-49.5-19.6-53-45.5l19.3-4c1.5,16.8,15.8,29.7,33.7,29.7
			c18.8,0,33.9-14.4,33.9-32.7c0-21.7-18.3-28.6-34.1-34.7c-23.1-8.6-44-17.1-44-46.1c0-24.9,21.3-44.9,47.6-44.9
			C95.2,615.8,111.7,626.6,119,642.2z"/>
	</g>
	<g>
		<path fill="#DCDCDC" d="M478.2,790.8v-14.1l16.2-17.5c38.9-41.4,56.6-63.4,56.8-89.1c0-17.3-7.5-33.3-30.3-33.3
			c-13.8,0-25.4,7.8-32.4,14.4l-6.5-16.3c10.6-10,25.6-17.2,43.2-17.2c32.8,0,46.8,25.1,46.8,49.5c0,31.5-20.4,56.8-52.5,91.5
			L507.1,771v0.5h68.6v19.2L478.2,790.8L478.2,790.8z"/>
	</g>
</g>
<g>
	<path fill="#DCDCDC" d="M594.2,622v-2.5H610v2.5h-6.5v22.1h-2.6V622H594.2z"/>
	<path fill="#DCDCDC" d="M615.2,624.1v20h-2.7v-24.5h3.6l5.8,21l5.8-21h3.6v24.5h-2.6v-20l-5.5,20h-2.7L615.2,624.1z"/>
</g>
</svg>
