<?xml version="1.0" encoding="utf-8"?>
<!-- Generator: Adobe Illustrator 19.1.0, SVG Export Plug-In . SVG Version: 6.00 Build 0)  -->
<svg version="1.1" id="Layer_1" xmlns="http://www.w3.org/2000/svg" xmlns:xlink="http://www.w3.org/1999/xlink" x="0px" y="0px"
	 viewBox="236 -185.3 1264.2 982.3" style="enable-background:new 236 -185.3 1264.2 982.3;" xml:space="preserve">
<style type="text/css">
	.st0{font-family:'Verdana';}
	.st1{font-size:48px;}
	.st2{fill:#FFFFFF;stroke:#000000;stroke-width:10;stroke-miterlimit:10;}
	.st3{enable-background:new    ;}
	.st4{fill:none;}
	.st5{fill:#28B45F;stroke:#000000;stroke-width:10;stroke-linecap:round;stroke-linejoin:round;}
	.st6{fill:#28B45F;}
	.st7{fill:#FFFFFF;}
	.st8{fill:none;stroke:#000000;stroke-width:6;stroke-miterlimit:10;}
	.st9{fill:#FFFFFF;stroke:#000000;stroke-width:6;stroke-miterlimit:10;}
	.st10{fill:#28B45F;stroke:#000000;stroke-width:6;stroke-miterlimit:10;}
	.st11{fill:#28B45F;stroke:#000000;stroke-width:2;}
	.st12{fill:#787878;stroke:#C8C8C8;stroke-width:5;}
	.st13{fill:none;stroke:#C8C8C8;stroke-width:5;}
	.st14{fill:#C8C8C8;}
	.st15{fill:none;stroke:#000000;stroke-width:5;stroke-linecap:round;stroke-linejoin:round;}
	.st16{font-family:'Arimo';}
	.st17{font-size:44px;}
	.st18{font-size:36px;}
</style>
<text transform="matrix(1 0 0 1 1152.3671 -98.5231)" class="st0 st1"> </text>
<path class="st2" d="M736.9,752.5c0,6.6-5.4,12-12,12h-83c-6.6,0-12-5.4-12-12v-54c0-6.6,5.4-12,12-12h83c6.6,0,12,5.4,12,12V752.5z
	"/>
<g class="st3">
	<path d="M669.8,725.8h-19.3c0,1.6,0.2,3,0.7,4.2s1.1,2.2,2,2.9c0.8,0.8,1.8,1.3,2.9,1.7c1.1,0.4,2.3,0.6,3.7,0.6
		c1.8,0,3.6-0.4,5.4-1.1c1.8-0.7,3.1-1.4,3.9-2.1h0.2v4.8c-1.5,0.6-3,1.1-4.5,1.6c-1.6,0.4-3.2,0.6-4.9,0.6c-4.3,0-7.7-1.2-10.2-3.5
		c-2.4-2.4-3.7-5.7-3.7-10s1.2-7.7,3.5-10.2s5.4-3.8,9.2-3.8c3.5,0,6.3,1,8.2,3.1s2.9,5,2.9,8.8L669.8,725.8L669.8,725.8z
		 M665.5,722.5c0-2.3-0.6-4.1-1.7-5.4c-1.1-1.3-2.9-1.9-5.2-1.9c-2.4,0-4.2,0.7-5.6,2.1c-1.4,1.4-2.2,3.1-2.4,5.2L665.5,722.5
		L665.5,722.5z"/>
	<path d="M695.2,730.9c0,2.4-1,4.4-3,5.9s-4.7,2.3-8.1,2.3c-1.9,0-3.7-0.2-5.3-0.7s-3-1-4.1-1.5V732h0.2c1.4,1,2.9,1.9,4.6,2.5
		s3.3,0.9,4.9,0.9c1.9,0,3.5-0.3,4.5-0.9c1.1-0.6,1.6-1.6,1.6-2.9c0-1-0.3-1.8-0.9-2.3s-1.7-1-3.4-1.4c-0.6-0.1-1.4-0.3-2.4-0.5
		s-1.9-0.4-2.8-0.6c-2.3-0.6-3.9-1.5-4.9-2.7s-1.4-2.6-1.4-4.3c0-1.1,0.2-2.1,0.7-3c0.4-1,1.1-1.8,2-2.6c0.9-0.7,2-1.3,3.3-1.7
		c1.4-0.4,2.9-0.6,4.5-0.6s3.1,0.2,4.7,0.6c1.6,0.4,2.9,0.9,4,1.4v4.7h-0.2c-1.1-0.8-2.5-1.5-4.1-2.1s-3.2-0.9-4.7-0.9
		c-1.6,0-3,0.3-4.1,0.9c-1.1,0.6-1.7,1.5-1.7,2.8c0,1.1,0.3,1.9,1,2.4s1.7,1,3.2,1.3c0.8,0.2,1.7,0.4,2.7,0.6c1,0.2,1.9,0.4,2.5,0.5
		c2,0.5,3.6,1.3,4.7,2.4C694.6,727.5,695.2,729,695.2,730.9z"/>
	<path d="M720.8,736.8c-1.5,0.7-2.9,1.2-4.2,1.6c-1.3,0.4-2.7,0.6-4.2,0.6c-1.9,0-3.6-0.3-5.2-0.8c-1.6-0.6-2.9-1.4-4.1-2.5
		c-1.1-1.1-2-2.5-2.6-4.3c-0.6-1.7-0.9-3.7-0.9-6c0-4.3,1.2-7.6,3.5-10.1c2.4-2.4,5.5-3.7,9.3-3.7c1.5,0,3,0.2,4.4,0.6
		c1.4,0.4,2.8,0.9,4,1.5v4.9h-0.2c-1.3-1-2.7-1.9-4.2-2.4c-1.4-0.6-2.8-0.8-4.2-0.8c-2.5,0-4.5,0.8-5.9,2.5s-2.2,4.1-2.2,7.4
		c0,3.2,0.7,5.6,2.1,7.3s3.4,2.5,6,2.5c0.9,0,1.8-0.1,2.7-0.4c0.9-0.2,1.8-0.5,2.5-0.9c0.6-0.3,1.2-0.7,1.8-1c0.6-0.4,1-0.7,1.3-0.9
		h0.2L720.8,736.8L720.8,736.8z"/>
</g>
<polygon points="871.8,140.4 871.8,649.5 879.8,639.8 879.8,131.5 "/>
<rect x="1001.1" y="350" class="st4" width="398" height="120"/>
<rect x="666.7" y="-27.9" class="st4" width="448.8" height="131.7"/>
<g class="st3">
	<path d="M790.7-1.3c0,1.4-0.3,2.7-0.9,4c-0.6,1.3-1.5,2.5-2.7,3.4c-1.2,1-2.7,1.8-4.4,2.3s-3.7,0.8-6,0.8c-2.5,0-4.8-0.2-6.8-0.7
		s-4.1-1.2-6.1-2.1V0.6h0.3c1.8,1.5,3.8,2.6,6.1,3.4s4.5,1.2,6.5,1.2c2.9,0,5.1-0.5,6.7-1.6c1.6-1.1,2.4-2.5,2.4-4.3
		c0-1.5-0.4-2.7-1.1-3.4s-1.9-1.3-3.5-1.7c-1.2-0.3-2.4-0.6-3.8-0.8c-1.4-0.2-2.8-0.5-4.3-0.8c-3.1-0.7-5.4-1.8-6.9-3.4
		S764-14.5,764-17c0-2.9,1.2-5.3,3.7-7.2s5.6-2.8,9.4-2.8c2.5,0,4.7,0.2,6.8,0.7s3.9,1,5.4,1.7v5.5H789c-1.3-1.1-3.1-2.1-5.2-2.8
		c-2.1-0.7-4.4-1.1-6.6-1.1c-2.5,0-4.5,0.5-6,1.5s-2.3,2.4-2.3,4c0,1.5,0.4,2.6,1.1,3.4s2.1,1.5,4,1.9c1,0.2,2.4,0.5,4.3,0.8
		c1.9,0.3,3.4,0.6,4.7,1c2.6,0.7,4.5,1.7,5.9,3.1S790.7-3.8,790.7-1.3z"/>
	<path d="M824.9,8.6h-4.6V-8.5h-17.4V8.6h-4.6v-34.9h4.6v13.7h17.4v-13.7h4.6V8.6z"/>
	<path d="M846.6,8.6h-13.8V5.1h4.6v-27.8h-4.6v-3.6h13.8v3.6H842V5.1h4.6V8.6z"/>
	<path d="M876.8-22.2h-17.6v9.8h15.2v4.1h-15.2V8.6h-4.7v-34.9h22.3V-22.2z"/>
	<path d="M907.6-22.2h-12.5V8.6h-4.6v-30.8H878v-4.1h29.6V-22.2L907.6-22.2z"/>
	<path d="M942-4.8h-12.8V8h-3.9V-4.8h-12.8v-3.8h12.8v-12.8h3.9v12.8H942V-4.8z"/>
	<path d="M976.5-22.2H964V8.6h-4.6v-30.8h-12.5v-4.1h29.6V-22.2L976.5-22.2z"/>
	<path d="M1005.9,8.6h-4.9l-3.5-9.7h-15.1L979,8.6h-4.7L987-26.3h6.2L1005.9,8.6z M996.1-5.1L990-22.2l-6.1,17.1
		C983.9-5.1,996.1-5.1,996.1-5.1z"/>
	<path d="M1037.5-2.1c0,1.7-0.3,3.3-1,4.6c-0.7,1.3-1.5,2.4-2.6,3.3c-1.3,1-2.8,1.8-4.3,2.2c-1.5,0.4-3.6,0.7-6,0.7h-12.4v-34.9
		h10.3c2.5,0,4.5,0.1,5.7,0.3s2.5,0.6,3.6,1.2c1.3,0.7,2.2,1.5,2.8,2.6c0.6,1.1,0.9,2.3,0.9,3.8c0,1.7-0.4,3.1-1.3,4.2
		s-2,2.1-3.4,2.8v0.2c2.4,0.5,4.2,1.5,5.6,3.1C1036.8-6.4,1037.5-4.5,1037.5-2.1z M1029.7-17.8c0-0.8-0.1-1.6-0.4-2.1
		s-0.7-1-1.4-1.4s-1.6-0.7-2.7-0.8c-1.1-0.1-2.3-0.2-3.9-0.2h-5.5v10.1h6c1.5,0,2.6-0.1,3.5-0.2c0.9-0.1,1.7-0.5,2.4-0.9
		c0.7-0.4,1.3-1.1,1.6-1.8S1029.7-16.8,1029.7-17.8z M1032.7-1.9c0-1.4-0.2-2.5-0.6-3.4c-0.4-0.9-1.2-1.5-2.3-2.1
		c-0.8-0.4-1.7-0.6-2.7-0.8c-1-0.2-2.4-0.2-3.9-0.2h-7.3v13h6.1c2,0,3.7-0.1,5-0.3c1.3-0.2,2.4-0.6,3.2-1.2c0.9-0.6,1.5-1.3,1.9-2.1
		C1032.5,0.2,1032.7-0.7,1032.7-1.9z"/>
</g>
<g class="st3">
	<path d="M722.6,66c-0.8,0.2-1.7,0.4-2.7,0.5s-1.8,0.2-2.6,0.2c-2.7,0-4.7-0.7-6.1-2.2c-1.4-1.5-2.1-3.7-2.1-6.9V43.7h-3V40h3v-7.5
		h4.4V40h9.1v3.7h-9.1v11.9c0,1.4,0,2.4,0.1,3.2s0.3,1.5,0.7,2.2c0.3,0.6,0.8,1.1,1.4,1.4c0.6,0.3,1.5,0.4,2.8,0.4
		c0.7,0,1.5-0.1,2.2-0.3s1.3-0.4,1.7-0.5h0.2L722.6,66L722.6,66z"/>
	<path d="M750.2,53.1c0,4.3-1.1,7.6-3.3,10.1s-5.1,3.7-8.8,3.7s-6.6-1.2-8.8-3.7s-3.3-5.8-3.3-10.1s1.1-7.6,3.3-10.1
		s5.1-3.7,8.8-3.7s6.6,1.2,8.8,3.7S750.2,48.9,750.2,53.1z M745.7,53.1c0-3.4-0.7-5.9-2-7.6c-1.3-1.7-3.2-2.5-5.5-2.5
		c-2.4,0-4.2,0.8-5.6,2.5c-1.4,1.7-2,4.2-2,7.6c0,3.3,0.7,5.8,2,7.5s3.2,2.5,5.6,2.5c2.3,0,4.2-0.8,5.5-2.5S745.7,56.5,745.7,53.1z"
		/>
	<path d="M792.6,58.7c0,2.4-1,4.4-3,5.9s-4.7,2.3-8.1,2.3c-1.9,0-3.7-0.2-5.3-0.7s-3-1-4.1-1.5v-4.9h0.2c1.4,1,2.9,1.9,4.6,2.5
		s3.3,0.9,4.9,0.9c1.9,0,3.5-0.3,4.5-0.9c1-0.6,1.6-1.6,1.6-3c0-1-0.3-1.8-0.9-2.3c-0.6-0.5-1.7-1-3.4-1.4c-0.6-0.1-1.4-0.3-2.4-0.5
		s-1.9-0.4-2.8-0.6c-2.3-0.6-3.9-1.5-4.9-2.7s-1.4-2.6-1.4-4.3c0-1.1,0.2-2.1,0.7-3s1.1-1.8,2-2.6c0.9-0.7,2-1.3,3.3-1.7
		s2.9-0.6,4.5-0.6s3.1,0.2,4.7,0.6c1.6,0.4,2.9,0.8,4,1.4v4.7h-0.2c-1.1-0.8-2.5-1.5-4.1-2.1s-3.2-0.9-4.7-0.9c-1.6,0-3,0.3-4.1,0.9
		c-1.1,0.6-1.7,1.5-1.7,2.8c0,1.1,0.3,1.9,1,2.4s1.7,1,3.2,1.3c0.8,0.2,1.7,0.4,2.7,0.6s1.8,0.4,2.5,0.5c2,0.5,3.6,1.3,4.7,2.4
		C792.1,55.2,792.6,56.8,792.6,58.7z"/>
	<path d="M831.9,40l-6.8,26.2H821L814.3,46l-6.7,20.2h-4.1L796.6,40h4.6l4.8,20.3l6.5-20.3h3.6l6.7,20.3l4.5-20.3
		C827.3,40,831.9,40,831.9,40z"/>
	<path d="M842.9,35.7h-5v-4.6h5V35.7z M842.7,66.2h-4.4V40h4.4V66.2z"/>
	<path d="M865,66c-0.8,0.2-1.7,0.4-2.7,0.5s-1.8,0.2-2.6,0.2c-2.7,0-4.7-0.7-6.1-2.2c-1.4-1.5-2.1-3.7-2.1-6.9V43.7h-3V40h3v-7.5
		h4.4V40h9.1v3.7h-9.1v11.9c0,1.4,0,2.4,0.1,3.2s0.3,1.5,0.7,2.2c0.3,0.6,0.8,1.1,1.4,1.4c0.6,0.3,1.5,0.4,2.8,0.4
		c0.7,0,1.5-0.1,2.2-0.3s1.3-0.4,1.7-0.5h0.2L865,66L865,66z"/>
	<path d="M889.7,64.6c-1.5,0.7-2.9,1.2-4.2,1.6s-2.7,0.6-4.2,0.6c-1.9,0-3.6-0.3-5.2-0.8c-1.6-0.5-2.9-1.4-4.1-2.5
		c-1.1-1.1-2-2.5-2.6-4.3s-0.9-3.7-0.9-6c0-4.3,1.2-7.6,3.5-10.1s5.5-3.7,9.3-3.7c1.5,0,3,0.2,4.4,0.6s2.8,0.9,4,1.5v4.9h-0.2
		c-1.3-1-2.7-1.9-4.2-2.4s-2.8-0.8-4.2-0.8c-2.5,0-4.5,0.8-5.9,2.5s-2.2,4.1-2.2,7.4c0,3.2,0.7,5.6,2.1,7.3c1.4,1.7,3.4,2.5,6,2.5
		c0.9,0,1.8-0.1,2.7-0.4s1.8-0.5,2.5-0.9c0.6-0.3,1.2-0.7,1.8-1s1-0.7,1.3-0.9h0.2L889.7,64.6L889.7,64.6z"/>
	<path d="M917.2,66.2h-4.4V51.3c0-1.2-0.1-2.3-0.2-3.4c-0.1-1.1-0.4-1.9-0.8-2.5c-0.4-0.7-1-1.1-1.7-1.5s-1.7-0.5-2.9-0.5
		s-2.5,0.3-3.8,0.9c-1.3,0.6-2.6,1.4-3.8,2.3v19.5h-4.4V29.7h4.4v13.2c1.4-1.1,2.8-2,4.3-2.7s3-1,4.5-1c2.8,0,5,0.9,6.5,2.6
		c1.5,1.7,2.2,4.2,2.2,7.4L917.2,66.2L917.2,66.2z"/>
	<path d="M980.8,66.2h-4.4V51.3c0-1.1-0.1-2.2-0.2-3.3c-0.1-1.1-0.3-1.9-0.6-2.5c-0.4-0.7-0.9-1.2-1.5-1.5s-1.6-0.5-2.9-0.5
		c-1.2,0-2.5,0.3-3.7,0.9c-1.2,0.6-2.5,1.4-3.7,2.4c0,0.4,0.1,0.8,0.1,1.3s0,0.9,0,1.4v16.8h-4.4v-15c0-1.2-0.1-2.3-0.2-3.3
		c-0.1-1-0.3-1.9-0.6-2.5c-0.4-0.7-0.9-1.2-1.5-1.5s-1.6-0.5-2.9-0.5c-1.2,0-2.4,0.3-3.6,0.9c-1.2,0.6-2.4,1.4-3.6,2.3v19.5h-4.4V40
		h4.4v2.9c1.4-1.1,2.7-2,4.1-2.7c1.4-0.7,2.8-1,4.4-1c1.8,0,3.3,0.4,4.5,1.1c1.2,0.7,2.2,1.8,2.8,3.1c1.8-1.5,3.4-2.6,4.9-3.2
		s3-1,4.7-1c2.9,0,5,0.9,6.4,2.6c1.4,1.7,2.1,4.2,2.1,7.3L980.8,66.2L980.8,66.2z"/>
	<path d="M1011.6,53.1c0,4.3-1.1,7.6-3.3,10.1s-5.1,3.7-8.8,3.7s-6.6-1.2-8.8-3.7s-3.3-5.8-3.3-10.1s1.1-7.6,3.3-10.1
		s5.1-3.7,8.8-3.7s6.6,1.2,8.8,3.7C1010.5,45.5,1011.6,48.9,1011.6,53.1z M1007,53.1c0-3.4-0.7-5.9-2-7.6c-1.3-1.7-3.2-2.5-5.5-2.5
		c-2.4,0-4.2,0.8-5.6,2.5c-1.4,1.7-2,4.2-2,7.6c0,3.3,0.7,5.8,2,7.5s3.2,2.5,5.6,2.5c2.3,0,4.2-0.8,5.5-2.5S1007,56.5,1007,53.1z"/>
	<path d="M1039.6,66.2h-4.4v-2.7c-1.3,1.1-2.6,1.9-4,2.6s-2.9,0.9-4.5,0.9c-3.1,0-5.6-1.2-7.4-3.6c-1.8-2.4-2.8-5.7-2.8-10
		c0-2.2,0.3-4.2,0.9-5.9c0.6-1.7,1.5-3.2,2.6-4.4c1.1-1.2,2.3-2.1,3.7-2.7c1.4-0.6,2.9-0.9,4.4-0.9c1.4,0,2.6,0.1,3.7,0.4
		c1.1,0.3,2.2,0.7,3.4,1.3V29.8h4.4V66.2L1039.6,66.2z M1035.2,59.8v-15c-1.2-0.5-2.2-0.9-3.2-1.1s-2-0.3-3.1-0.3
		c-2.5,0-4.4,0.9-5.8,2.6c-1.4,1.7-2.1,4.2-2.1,7.3s0.5,5.5,1.6,7.1s2.8,2.4,5.1,2.4c1.2,0,2.5-0.3,3.8-0.8
		C1032.8,61.5,1034.1,60.6,1035.2,59.8z"/>
	<path d="M1070.2,53.6h-19.3c0,1.6,0.2,3,0.7,4.2s1.1,2.2,2,2.9c0.8,0.8,1.8,1.3,2.9,1.7s2.3,0.6,3.7,0.6c1.8,0,3.6-0.4,5.4-1.1
		s3.1-1.4,3.9-2.1h0.2v4.8c-1.5,0.6-3,1.1-4.5,1.6s-3.2,0.6-4.9,0.6c-4.3,0-7.7-1.2-10.2-3.5s-3.7-5.7-3.7-10s1.2-7.7,3.5-10.2
		s5.4-3.8,9.2-3.8c3.5,0,6.3,1,8.2,3.1c1.9,2.1,2.9,5,2.9,8.8L1070.2,53.6L1070.2,53.6z M1065.9,50.2c0-2.3-0.6-4.1-1.7-5.4
		s-2.9-1.9-5.2-1.9c-2.4,0-4.2,0.7-5.6,2.1s-2.2,3.1-2.4,5.2H1065.9L1065.9,50.2z"/>
	<path d="M1095.6,58.7c0,2.4-1,4.4-3,5.9s-4.7,2.3-8.1,2.3c-1.9,0-3.7-0.2-5.3-0.7s-3-1-4.1-1.5v-4.9h0.2c1.4,1,2.9,1.9,4.6,2.5
		s3.3,0.9,4.9,0.9c1.9,0,3.5-0.3,4.5-0.9c1-0.6,1.6-1.6,1.6-3c0-1-0.3-1.8-0.9-2.3s-1.7-1-3.4-1.4c-0.6-0.1-1.4-0.3-2.4-0.5
		s-1.9-0.4-2.8-0.6c-2.3-0.6-3.9-1.5-4.9-2.7s-1.4-2.6-1.4-4.3c0-1.1,0.2-2.1,0.7-3s1.1-1.8,2-2.6c0.9-0.7,2-1.3,3.3-1.7
		s2.9-0.6,4.5-0.6s3.1,0.2,4.7,0.6c1.6,0.4,2.9,0.8,4,1.4v4.7h-0.2c-1.1-0.8-2.5-1.5-4.1-2.1s-3.2-0.9-4.7-0.9c-1.6,0-3,0.3-4.1,0.9
		s-1.7,1.5-1.7,2.8c0,1.1,0.3,1.9,1,2.4s1.7,1,3.2,1.3c0.8,0.2,1.7,0.4,2.7,0.6c1,0.2,1.8,0.4,2.5,0.5c2,0.5,3.6,1.3,4.7,2.4
		C1095,55.2,1095.6,56.8,1095.6,58.7z"/>
</g>
<rect x="271.7" y="-133.4" class="st4" width="448.8" height="53.7"/>
<rect x="951.2" y="-133.4" class="st4" width="448.8" height="53.7"/>
<rect x="769.1" y="710.5" class="st4" width="378" height="35.5"/>
<g class="st3">
	<path d="M790.5,734.8h-15.3v-23.3h15.3v2.8h-12.2v6.4h12.2v2.8h-12.2v8.6h12.2V734.8z"/>
	<path d="M810.3,734.8h-3.7l-5-6.7l-5,6.7h-3.4l6.8-8.7l-6.8-8.8h3.7l4.9,6.6l4.9-6.6h3.4l-6.9,8.6L810.3,734.8z"/>
	<path d="M817.3,714.4H814v-3h3.3V714.4z M817.1,734.8h-2.9v-17.5h2.9V734.8z"/>
	<path d="M831.9,734.6c-0.6,0.1-1.2,0.3-1.8,0.4c-0.7,0.1-1.2,0.1-1.7,0.1c-1.8,0-3.1-0.5-4.1-1.4c-0.9-1-1.4-2.5-1.4-4.6v-9.3h-2
		v-2.5h2v-5h2.9v5h6.1v2.5h-6.1v8c0,0.9,0,1.6,0.1,2.1c0,0.5,0.2,1,0.4,1.4s0.5,0.7,0.9,0.9s1,0.3,1.8,0.3c0.5,0,1-0.1,1.5-0.2
		s0.9-0.3,1.1-0.4h0.2L831.9,734.6L831.9,734.6z"/>
	<path d="M862.2,718.6c0,1-0.2,2-0.5,2.9c-0.4,0.9-0.9,1.6-1.5,2.3c-0.8,0.8-1.8,1.4-2.8,1.8s-2.5,0.6-4.1,0.6h-3.1v8.7h-3.1v-23.3
		h6.3c1.4,0,2.6,0.1,3.5,0.4s1.8,0.6,2.6,1.1c0.9,0.6,1.6,1.3,2.1,2.2C861.9,716.1,862.2,717.2,862.2,718.6z M859,718.6
		c0-0.8-0.1-1.5-0.4-2.1s-0.7-1.1-1.3-1.5c-0.5-0.3-1.1-0.6-1.7-0.7c-0.6-0.1-1.5-0.2-2.4-0.2h-3.1v9.3h2.6c1.2,0,2.3-0.1,3-0.3
		c0.8-0.2,1.4-0.6,1.9-1.1s0.8-1,1-1.6C858.9,719.9,859,719.3,859,718.6z"/>
	<path d="M880.1,726.1c0,2.8-0.7,5.1-2.2,6.7c-1.5,1.6-3.4,2.5-5.9,2.5s-4.4-0.8-5.9-2.5c-1.5-1.6-2.2-3.9-2.2-6.7s0.7-5.1,2.2-6.7
		c1.5-1.7,3.4-2.5,5.9-2.5c2.4,0,4.4,0.8,5.9,2.5C879.4,721,880.1,723.2,880.1,726.1z M877.1,726.1c0-2.3-0.4-3.9-1.3-5
		s-2.1-1.6-3.7-1.6s-2.8,0.5-3.7,1.6s-1.3,2.8-1.3,5s0.4,3.8,1.3,5c0.9,1.1,2.1,1.7,3.7,1.7c1.6,0,2.8-0.6,3.7-1.7
		C876.7,729.9,877.1,728.3,877.1,726.1z"/>
	<path d="M887.8,714.4h-3.3v-3h3.3V714.4z M887.6,734.8h-2.9v-17.5h2.9V734.8z"/>
	<path d="M908.1,734.8h-2.9v-9.9c0-0.8,0-1.6-0.1-2.3s-0.3-1.3-0.5-1.6c-0.3-0.4-0.6-0.8-1.1-1s-1.1-0.3-1.9-0.3s-1.6,0.2-2.5,0.6
		s-1.7,0.9-2.5,1.5v13h-3.1v-17.5h2.9v1.9c0.9-0.8,1.9-1.4,2.8-1.8c1-0.4,2-0.6,3-0.6c1.9,0,3.3,0.6,4.3,1.7c1,1.1,1.5,2.8,1.5,4.9
		L908.1,734.8L908.1,734.8z"/>
	<path d="M922.8,734.6c-0.6,0.1-1.2,0.3-1.8,0.4c-0.7,0.1-1.2,0.1-1.7,0.1c-1.8,0-3.1-0.5-4.1-1.4c-0.9-1-1.4-2.5-1.4-4.6v-9.3h-2
		v-2.5h2v-5h2.9v5h6.1v2.5h-6.1v8c0,0.9,0,1.6,0.1,2.1c0,0.5,0.2,1,0.4,1.4s0.5,0.7,0.9,0.9s1,0.3,1.8,0.3c0.5,0,1-0.1,1.5-0.2
		c0.5-0.1,0.9-0.3,1.1-0.4h0.2L922.8,734.6L922.8,734.6z"/>
	<path d="M940.9,726.4H928c0,1.1,0.2,2,0.5,2.8s0.8,1.5,1.3,2s1.2,0.9,1.9,1.1c0.7,0.2,1.6,0.4,2.5,0.4c1.2,0,2.4-0.2,3.6-0.7
		c1.2-0.5,2.1-0.9,2.6-1.4h0.2v3.2c-1,0.4-2,0.8-3,1s-2.1,0.4-3.2,0.4c-2.9,0-5.2-0.8-6.8-2.4c-1.6-1.6-2.4-3.8-2.4-6.7
		s0.8-5.1,2.3-6.8c1.6-1.7,3.6-2.5,6.1-2.5c2.4,0,4.2,0.7,5.4,2.1c1.3,1.4,1.9,3.3,1.9,5.9L940.9,726.4L940.9,726.4z M938.1,724.1
		c0-1.5-0.4-2.7-1.2-3.6c-0.8-0.9-1.9-1.3-3.5-1.3s-2.8,0.5-3.8,1.4c-0.9,0.9-1.5,2.1-1.6,3.5L938.1,724.1L938.1,724.1z"/>
	<path d="M956.3,720.5h-0.2c-0.4-0.1-0.9-0.2-1.3-0.2s-0.9-0.1-1.5-0.1c-0.9,0-1.8,0.2-2.6,0.6c-0.8,0.4-1.7,0.9-2.4,1.6v12.4h-2.9
		v-17.5h2.9v2.6c1.2-0.9,2.2-1.6,3.1-2c0.9-0.4,1.8-0.6,2.7-0.6c0.5,0,0.9,0,1.1,0s0.6,0.1,1,0.1L956.3,720.5L956.3,720.5z"/>
	<path d="M978.7,734.8h-9.2v-2.4h3v-18.5h-3v-2.4h9.2v2.4h-3v18.5h3V734.8z"/>
	<path d="M998.3,734.8h-2.9v-9.9c0-0.8,0-1.6-0.1-2.3s-0.3-1.3-0.5-1.6c-0.3-0.4-0.6-0.8-1.1-1s-1.1-0.3-1.9-0.3
		c-0.8,0-1.6,0.2-2.5,0.6s-1.7,0.9-2.5,1.5v13h-2.9v-17.5h2.9v1.9c0.9-0.8,1.9-1.4,2.8-1.8c1-0.4,2-0.6,3-0.6c1.9,0,3.3,0.6,4.3,1.7
		c1,1.1,1.5,2.8,1.5,4.9L998.3,734.8L998.3,734.8z"/>
	<path d="M1013.1,734.6c-0.6,0.1-1.2,0.3-1.8,0.4c-0.7,0.1-1.2,0.1-1.7,0.1c-1.8,0-3.1-0.5-4.1-1.4c-0.9-1-1.4-2.5-1.4-4.6v-9.3h-2
		v-2.5h2v-5h2.9v5h6.1v2.5h-6.1v8c0,0.9,0,1.6,0.1,2.1c0,0.5,0.2,1,0.4,1.4s0.5,0.7,0.9,0.9s1,0.3,1.8,0.3c0.5,0,1-0.1,1.5-0.2
		c0.5-0.1,0.9-0.3,1.1-0.4h0.2L1013.1,734.6L1013.1,734.6z"/>
	<path d="M1031.2,726.4h-12.9c0,1.1,0.2,2,0.5,2.8s0.8,1.5,1.3,2s1.2,0.9,1.9,1.1c0.7,0.2,1.6,0.4,2.5,0.4c1.2,0,2.4-0.2,3.6-0.7
		s2.1-0.9,2.6-1.4h0.2v3.2c-1,0.4-2,0.8-3,1s-2.1,0.4-3.2,0.4c-2.9,0-5.2-0.8-6.8-2.4c-1.6-1.6-2.4-3.8-2.4-6.7s0.8-5.1,2.3-6.8
		c1.6-1.7,3.6-2.5,6.1-2.5c2.4,0,4.2,0.7,5.4,2.1c1.3,1.4,1.9,3.3,1.9,5.9L1031.2,726.4L1031.2,726.4z M1028.4,724.1
		c0-1.5-0.4-2.7-1.2-3.6c-0.8-0.9-1.9-1.3-3.5-1.3s-2.8,0.5-3.8,1.4c-0.9,0.9-1.5,2.1-1.6,3.5L1028.4,724.1L1028.4,724.1z"/>
	<path d="M1046.6,720.5h-0.2c-0.4-0.1-0.9-0.2-1.3-0.2s-0.9-0.1-1.5-0.1c-0.9,0-1.8,0.2-2.6,0.6s-1.7,0.9-2.4,1.6v12.4h-2.9v-17.5
		h2.9v2.6c1.2-0.9,2.2-1.6,3.1-2s1.8-0.6,2.7-0.6c0.5,0,0.9,0,1.1,0s0.6,0.1,1,0.1v3.1L1046.6,720.5L1046.6,720.5z"/>
	<path d="M1062.3,734.8h-2.9v-1.9c-0.3,0.2-0.6,0.4-1.1,0.7c-0.4,0.3-0.9,0.6-1.3,0.8c-0.5,0.2-1.1,0.4-1.7,0.6
		c-0.6,0.2-1.4,0.2-2.2,0.2c-1.6,0-2.9-0.5-4-1.6s-1.6-2.4-1.6-4c0-1.3,0.3-2.4,0.9-3.2s1.4-1.5,2.4-1.9c1.1-0.5,2.3-0.8,3.8-1
		s3.1-0.3,4.8-0.4v-0.5c0-0.7-0.1-1.2-0.4-1.7s-0.6-0.8-1-1s-0.9-0.4-1.5-0.5s-1.2-0.1-1.8-0.1c-0.8,0-1.6,0.1-2.6,0.3
		c-0.9,0.2-1.9,0.5-2.9,0.9h-0.2v-3c0.6-0.2,1.4-0.3,2.5-0.5s2.2-0.3,3.2-0.3c1.2,0,2.3,0.1,3.2,0.3c0.9,0.2,1.7,0.5,2.4,1
		c0.7,0.5,1.2,1.1,1.5,1.9c0.3,0.8,0.5,1.7,0.5,2.8L1062.3,734.8L1062.3,734.8z M1059.4,730.5v-4.9c-0.9,0.1-2,0.1-3.2,0.2
		c-1.2,0.1-2.2,0.3-2.9,0.5c-0.8,0.2-1.5,0.6-2,1.1s-0.8,1.2-0.8,2.1c0,1,0.3,1.8,0.9,2.3s1.5,0.8,2.8,0.8c1,0,2-0.2,2.8-0.6
		C1057.9,731.5,1058.7,731.1,1059.4,730.5z"/>
	<path d="M1080.9,733.7c-1,0.5-1.9,0.8-2.8,1.1s-1.8,0.4-2.8,0.4c-1.3,0-2.4-0.2-3.5-0.6c-1.1-0.4-2-0.9-2.7-1.7
		c-0.8-0.8-1.3-1.7-1.8-2.8c-0.4-1.1-0.6-2.5-0.6-4c0-2.9,0.8-5.1,2.4-6.7c1.6-1.6,3.6-2.4,6.2-2.4c1,0,2,0.1,2.9,0.4
		c1,0.3,1.8,0.6,2.6,1v3.3h-0.2c-0.9-0.7-1.8-1.2-2.8-1.6c-1-0.4-1.9-0.6-2.8-0.6c-1.7,0-3,0.6-3.9,1.7c-1,1.1-1.4,2.8-1.4,4.9
		c0,2.1,0.5,3.7,1.4,4.9c0.9,1.1,2.3,1.7,4,1.7c0.6,0,1.2-0.1,1.8-0.2c0.6-0.2,1.2-0.4,1.7-0.6c0.4-0.2,0.8-0.5,1.2-0.7
		c0.4-0.2,0.7-0.5,0.9-0.6h0.2L1080.9,733.7L1080.9,733.7z"/>
	<path d="M1093.7,734.6c-0.6,0.1-1.2,0.3-1.8,0.4c-0.7,0.1-1.2,0.1-1.7,0.1c-1.8,0-3.1-0.5-4.1-1.4c-0.9-1-1.4-2.5-1.4-4.6v-9.3h-2
		v-2.5h2v-5h2.9v5h6.1v2.5h-6.1v8c0,0.9,0,1.6,0.1,2.1c0,0.5,0.2,1,0.4,1.4c0.2,0.4,0.5,0.7,0.9,0.9s1,0.3,1.8,0.3
		c0.5,0,1-0.1,1.5-0.2c0.5-0.1,0.9-0.3,1.1-0.4h0.2L1093.7,734.6L1093.7,734.6z"/>
	<path d="M1100.4,714.4h-3.3v-3h3.3V714.4z M1100.2,734.8h-2.9v-17.5h2.9V734.8z"/>
	<path d="M1120.9,726.1c0,2.8-0.7,5.1-2.2,6.7c-1.5,1.6-3.4,2.5-5.9,2.5s-4.4-0.8-5.9-2.5c-1.5-1.6-2.2-3.9-2.2-6.7s0.7-5.1,2.2-6.7
		c1.5-1.7,3.4-2.5,5.9-2.5c2.4,0,4.4,0.8,5.9,2.5C1120.2,721,1120.9,723.2,1120.9,726.1z M1117.9,726.1c0-2.3-0.4-3.9-1.3-5
		s-2.1-1.6-3.7-1.6s-2.8,0.5-3.7,1.6c-0.9,1.1-1.3,2.8-1.3,5s0.4,3.8,1.3,5c0.9,1.1,2.1,1.7,3.7,1.7s2.8-0.6,3.7-1.7
		C1117.4,729.9,1117.9,728.3,1117.9,726.1z"/>
	<path d="M1140.1,734.8h-2.9v-9.9c0-0.8,0-1.6-0.1-2.3s-0.3-1.3-0.5-1.6c-0.3-0.4-0.6-0.8-1.1-1s-1.1-0.3-1.9-0.3s-1.6,0.2-2.5,0.6
		s-1.7,0.9-2.5,1.5v13h-2.9v-17.5h2.9v1.9c0.9-0.8,1.9-1.4,2.8-1.8c1-0.4,2-0.6,3-0.6c1.9,0,3.3,0.6,4.3,1.7c1,1.1,1.5,2.8,1.5,4.9
		L1140.1,734.8L1140.1,734.8z"/>
</g>
<polygon class="st5" points="1137.1,-37 1137.1,86.3 1175.8,47.7 1228.4,47.7 "/>
<g>
	<polygon class="st6" points="952.6,201.7 954.6,177.1 962.7,168.7 985.7,168.6 985.9,188.7 978.5,201.7 	"/>
	<polygon class="st7" points="987.9,167.5 1015.6,168.1 1024,177.8 1025,266.1 1015.3,284.5 999.3,293.5 973,292.1 957.6,280.5 
		952.3,264.8 951.3,204.1 977.7,204.4 979.6,193.8 987.5,189.4 	"/>
	<path class="st8" d="M952.1,188c0-15.5,8-21,20-21s20.2-0.1,31.2-0.1c14.2,0,21.8,5.1,21.8,20.1s0.1,28.7,0.1,73.7
		s-73.1,45.5-73.1,1.3C952.1,227.5,952.1,188,952.1,188z"/>
	<line class="st8" x1="987.6" y1="190.8" x2="987.6" y2="167.1"/>
	<line class="st8" x1="1024.6" y1="203.5" x2="996.6" y2="203.5"/>
	<line class="st8" x1="980" y1="203.5" x2="952" y2="203.5"/>
	<path class="st8" d="M995.6,223.5c0,4.2-3.6,7.7-8,7.7l0,0c-4.4,0-8-3.4-8-7.7v-25c0-4.2,3.6-7.7,8-7.7l0,0c4.4,0,8,3.4,8,7.7
		V223.5z"/>
</g>
<g>
	<polygon class="st6" points="1023.3,371.2 1022.3,346.6 1013.1,338.2 990.1,338.1 990,358.2 997.4,371.2 	"/>
	<polygon class="st7" points="988.4,338.2 960.6,338.9 952.3,348.6 951.3,436.9 961,455.2 977,464.2 1003.3,462.9 1018.6,451.2 
		1024,435.6 1025,374.9 998.5,375.1 996.6,364.6 988.7,360.1 	"/>
	<path class="st8" d="M952.1,358c0-15.5,8-21,20-21s20.2-0.1,31.2-0.1c14.2,0,21.8,5.1,21.8,20.1s0.1,28.7,0.1,73.7
		s-73.1,45.5-73.1,1.3C952.1,397.5,952.1,358,952.1,358z"/>
	<line class="st8" x1="987.6" y1="360.8" x2="987.6" y2="337.1"/>
	<line class="st8" x1="1024.6" y1="373.5" x2="996.6" y2="373.5"/>
	<line class="st8" x1="980" y1="373.5" x2="952" y2="373.5"/>
	<path class="st8" d="M995.6,393.5c0,4.2-3.6,7.7-8,7.7l0,0c-4.4,0-8-3.4-8-7.7v-25c0-4.2,3.6-7.7,8-7.7l0,0c4.4,0,8,3.4,8,7.7
		V393.5z"/>
</g>
<g>
	<path class="st9" d="M952.1,533c0-15.5,8-21,20-21s20.2-0.1,31.2-0.1c14.2,0,21.8,5.1,21.8,20.1s0.1,28.7,0.1,73.7
		s-73.1,45.5-73.1,1.3C952.1,572.5,952.1,533,952.1,533z"/>
	<line class="st8" x1="987.6" y1="535.8" x2="987.6" y2="512.1"/>
	<line class="st8" x1="1024.6" y1="548.5" x2="996.6" y2="548.5"/>
	<line class="st8" x1="980" y1="548.5" x2="952" y2="548.5"/>
	<path class="st10" d="M995.6,568.5c0,4.2-3.6,7.7-8,7.7l0,0c-4.4,0-8-3.4-8-7.7v-25c0-4.2,3.6-7.7,8-7.7l0,0c4.4,0,8,3.4,8,7.7
		V568.5z"/>
</g>
<polygon class="st11" points="987.4,485 1008,504.9 995.4,504.9 995.4,529 979.3,529 979.3,505 966.8,505 "/>
<polygon class="st11" points="987.4,628 966.8,608.1 979.4,608.1 979.4,584 995.5,584 995.5,608 1008,608 "/>
<rect x="1044.1" y="365" class="st4" width="267" height="69"/>
<g class="st3">
	<path d="M1099.4,382.7c0,0.9-0.2,1.8-0.6,2.7c-0.4,0.9-1,1.6-1.8,2.2c-0.8,0.7-1.8,1.2-2.9,1.6s-2.4,0.6-4,0.6
		c-1.7,0-3.2-0.2-4.5-0.5s-2.7-0.8-4.1-1.4V384h0.2c1.2,1,2.5,1.7,4.1,2.3c1.5,0.5,3,0.8,4.3,0.8c1.9,0,3.4-0.4,4.5-1.1
		s1.6-1.7,1.6-2.9c0-1-0.3-1.8-0.8-2.3s-1.3-0.9-2.3-1.1c-0.8-0.2-1.6-0.4-2.5-0.5s-1.9-0.3-2.9-0.5c-2.1-0.4-3.6-1.2-4.6-2.2
		s-1.5-2.4-1.5-4.1c0-1.9,0.8-3.5,2.5-4.8c1.6-1.2,3.7-1.9,6.3-1.9c1.6,0,3.1,0.2,4.5,0.5s2.6,0.7,3.6,1.2v3.7h-0.2
		c-0.9-0.8-2.1-1.4-3.5-1.9s-2.9-0.7-4.4-0.7c-1.7,0-3,0.3-4,1s-1.5,1.6-1.5,2.7c0,1,0.2,1.7,0.8,2.3c0.5,0.6,1.4,1,2.6,1.3
		c0.7,0.1,1.6,0.3,2.8,0.5c1.2,0.2,2.3,0.4,3.1,0.6c1.7,0.5,3,1.2,3.9,2.1C1098.9,379.7,1099.4,381,1099.4,382.7z"/>
	<path d="M1118.7,389.3h-2.9v-9.9c0-0.8,0-1.6-0.1-2.3s-0.3-1.3-0.5-1.6c-0.3-0.4-0.6-0.8-1.1-1s-1.1-0.3-1.9-0.3s-1.6,0.2-2.5,0.6
		s-1.7,0.9-2.5,1.5v13h-2.9V365h2.9v8.8c0.9-0.8,1.9-1.4,2.8-1.8c1-0.4,2-0.6,3-0.6c1.9,0,3.3,0.6,4.3,1.7s1.5,2.8,1.5,4.9
		L1118.7,389.3L1118.7,389.3z"/>
	<path d="M1139.2,380.6c0,2.8-0.7,5.1-2.2,6.7s-3.4,2.5-5.9,2.5s-4.4-0.8-5.9-2.5c-1.5-1.6-2.2-3.9-2.2-6.7s0.7-5.1,2.2-6.7
		c1.5-1.7,3.4-2.5,5.9-2.5c2.4,0,4.4,0.8,5.9,2.5S1139.2,377.7,1139.2,380.6z M1136.2,380.6c0-2.3-0.4-3.9-1.3-5s-2.1-1.6-3.7-1.6
		s-2.8,0.5-3.7,1.6c-0.9,1.1-1.3,2.8-1.3,5s0.4,3.8,1.3,5c0.9,1.1,2.1,1.7,3.7,1.7s2.8-0.6,3.7-1.7
		C1135.7,384.4,1136.2,382.8,1136.2,380.6z"/>
	<path d="M1165.7,371.8l-4.5,17.5h-2.7l-4.5-13.5l-4.5,13.5h-2.7l-4.6-17.5h3.1l3.2,13.5l4.4-13.5h2.4l4.5,13.5l3-13.5H1165.7z"/>
	<path d="M1191.7,365l-11.2,29.1h-2.7L1189,365H1191.7z"/>
	<path d="M1225,389.3h-3.1v-11.4h-11.6v11.4h-3.1V366h3.1v9.1h11.6V366h3.1V389.3z"/>
	<path d="M1234.2,368.9h-3.3v-3h3.3V368.9z M1234,389.3h-2.9v-17.5h2.9V389.3z"/>
	<path d="M1254,389.3h-2.9v-1.8c-0.8,0.7-1.7,1.3-2.6,1.7s-1.9,0.6-3,0.6c-2.1,0-3.7-0.8-5-2.4c-1.2-1.6-1.8-3.8-1.8-6.7
		c0-1.5,0.2-2.8,0.6-4s1-2.1,1.7-3c0.7-0.8,1.5-1.4,2.5-1.8c0.9-0.4,1.9-0.6,2.9-0.6c0.9,0,1.7,0.1,2.4,0.3c0.7,0.2,1.5,0.5,2.2,0.9
		v-7.6h2.9L1254,389.3L1254,389.3z M1251,385v-10c-0.8-0.4-1.5-0.6-2.1-0.7s-1.3-0.2-2-0.2c-1.6,0-2.9,0.6-3.8,1.7s-1.4,2.8-1.4,4.9
		s0.4,3.6,1.1,4.7s1.8,1.6,3.4,1.6c0.8,0,1.7-0.2,2.5-0.6C1249.5,386.1,1250.3,385.6,1251,385z"/>
	<path d="M1274.4,380.9h-12.9c0,1.1,0.2,2,0.5,2.8s0.8,1.5,1.3,2s1.2,0.9,1.9,1.1c0.7,0.2,1.6,0.4,2.5,0.4c1.2,0,2.4-0.2,3.6-0.7
		s2.1-0.9,2.6-1.4h0.2v3.2c-1,0.4-2,0.8-3,1s-2.1,0.4-3.2,0.4c-2.9,0-5.2-0.8-6.8-2.4c-1.6-1.6-2.4-3.8-2.4-6.7
		c0-2.9,0.8-5.1,2.3-6.8c1.6-1.7,3.6-2.5,6.1-2.5c2.4,0,4.2,0.7,5.4,2.1c1.3,1.4,1.9,3.3,1.9,5.9V380.9L1274.4,380.9z M1271.5,378.6
		c0-1.5-0.4-2.7-1.2-3.6c-0.8-0.8-1.9-1.3-3.5-1.3s-2.8,0.5-3.8,1.4c-0.9,0.9-1.5,2.1-1.6,3.5H1271.5z"/>
</g>
<g class="st3">
	<path d="M1143.5,404.4l-6,23.3h-3.5l-4.9-19.3l-4.8,19.3h-3.4l-6.2-23.3h3.2l4.9,19.3l4.8-19.3h3.1l4.9,19.5l4.9-19.5H1143.5z"/>
	<path d="M1151,407.3h-3.3v-3h3.3V407.3z M1150.8,427.7h-2.9v-17.5h2.9V427.7z"/>
	<path d="M1170.8,427.7h-2.9v-1.8c-0.8,0.7-1.7,1.3-2.6,1.7s-1.9,0.6-3,0.6c-2.1,0-3.7-0.8-5-2.4s-1.8-3.8-1.8-6.7
		c0-1.5,0.2-2.8,0.6-4s1-2.1,1.7-3c0.7-0.8,1.5-1.4,2.5-1.8c0.9-0.4,1.9-0.6,2.9-0.6c0.9,0,1.7,0.1,2.4,0.3c0.7,0.2,1.5,0.5,2.2,0.9
		v-7.6h2.9L1170.8,427.7L1170.8,427.7z M1167.8,423.4v-10c-0.8-0.4-1.5-0.6-2.1-0.7s-1.3-0.2-2-0.2c-1.6,0-2.9,0.6-3.8,1.7
		s-1.4,2.8-1.4,4.9s0.4,3.6,1.1,4.7s1.8,1.6,3.4,1.6c0.8,0,1.7-0.2,2.5-0.6C1166.3,424.5,1167.1,424,1167.8,423.4z"/>
	<path d="M1190.7,425.7c0,3-0.7,5.1-2,6.5s-3.4,2.1-6.2,2.1c-0.9,0-1.8-0.1-2.7-0.2c-0.9-0.1-1.7-0.3-2.6-0.6v-3h0.2
		c0.5,0.2,1.2,0.4,2.3,0.7c1,0.3,2.1,0.4,3.1,0.4s1.8-0.1,2.5-0.4c0.7-0.2,1.2-0.6,1.5-1c0.4-0.4,0.6-0.9,0.8-1.5s0.2-1.2,0.2-1.9
		v-1.6c-0.9,0.7-1.7,1.2-2.5,1.6c-0.8,0.3-1.8,0.5-3.1,0.5c-2.1,0-3.7-0.8-5-2.3c-1.2-1.5-1.8-3.6-1.8-6.4c0-1.5,0.2-2.8,0.6-3.9
		s1-2,1.7-2.8c0.7-0.7,1.5-1.3,2.5-1.7c1-0.4,1.9-0.6,2.9-0.6s1.9,0.1,2.5,0.3c0.7,0.2,1.4,0.5,2.2,0.9l0.2-0.8h2.8L1190.7,425.7
		L1190.7,425.7z M1187.8,422.9v-9.5c-0.8-0.4-1.5-0.6-2.2-0.8c-0.7-0.2-1.3-0.2-2-0.2c-1.6,0-2.9,0.5-3.8,1.6s-1.4,2.7-1.4,4.7
		s0.3,3.4,1,4.5c0.7,1,1.8,1.5,3.4,1.5c0.9,0,1.7-0.2,2.6-0.5S1187.1,423.4,1187.8,422.9z"/>
	<path d="M1211.1,419.3h-12.9c0,1.1,0.2,2,0.5,2.8s0.8,1.5,1.3,2s1.2,0.9,1.9,1.1s1.6,0.4,2.5,0.4c1.2,0,2.4-0.2,3.6-0.7
		s2.1-0.9,2.6-1.4h0.2v3.2c-1,0.4-2,0.8-3,1s-2.1,0.4-3.2,0.4c-2.9,0-5.2-0.8-6.8-2.4c-1.6-1.6-2.4-3.8-2.4-6.7
		c0-2.9,0.8-5.1,2.3-6.8c1.6-1.7,3.6-2.5,6.1-2.5c2.4,0,4.2,0.7,5.4,2.1c1.3,1.4,1.9,3.3,1.9,5.9V419.3L1211.1,419.3z M1208.2,417
		c0-1.5-0.4-2.7-1.2-3.6s-1.9-1.3-3.5-1.3s-2.8,0.5-3.8,1.4c-0.9,0.9-1.5,2.1-1.6,3.5H1208.2z"/>
	<path d="M1224.6,427.5c-0.6,0.1-1.2,0.3-1.8,0.4c-0.7,0.1-1.2,0.1-1.7,0.1c-1.8,0-3.1-0.5-4.1-1.4c-0.9-1-1.4-2.5-1.4-4.6v-9.3h-2
		v-2.5h2v-5h2.9v5h6.1v2.5h-6.1v8c0,0.9,0,1.6,0.1,2.1c0,0.5,0.2,1,0.4,1.4c0.2,0.4,0.5,0.7,0.9,0.9c0.4,0.2,1,0.3,1.8,0.3
		c0.5,0,1-0.1,1.5-0.2s0.9-0.3,1.1-0.4h0.2L1224.6,427.5L1224.6,427.5z"/>
	<path d="M1240.6,422.7c0,1.6-0.7,2.9-2,3.9s-3.1,1.5-5.4,1.5c-1.3,0-2.5-0.2-3.6-0.5s-2-0.6-2.7-1v-3.3h0.2c0.9,0.7,2,1.3,3.1,1.7
		c1.1,0.4,2.2,0.6,3.3,0.6c1.3,0,2.3-0.2,3-0.6s1.1-1.1,1.1-2c0-0.7-0.2-1.2-0.6-1.6s-1.2-0.7-2.3-0.9c-0.4-0.1-1-0.2-1.6-0.3
		s-1.3-0.3-1.8-0.4c-1.5-0.4-2.6-1-3.3-1.8c-0.6-0.8-1-1.8-1-2.9c0-0.7,0.1-1.4,0.4-2s0.7-1.2,1.4-1.7c0.6-0.5,1.3-0.9,2.2-1.2
		c0.9-0.3,1.9-0.4,3-0.4c1,0,2.1,0.1,3.2,0.4s2,0.6,2.7,0.9v3.1h-0.2c-0.8-0.6-1.7-1-2.7-1.4c-1.1-0.4-2.1-0.6-3.2-0.6
		s-2,0.2-2.7,0.6s-1.1,1-1.1,1.8c0,0.7,0.2,1.3,0.7,1.6c0.4,0.4,1.1,0.7,2.1,0.9c0.5,0.1,1.1,0.2,1.8,0.4s1.2,0.2,1.7,0.3
		c1.4,0.3,2.4,0.8,3.2,1.6C1240.3,420.4,1240.6,421.4,1240.6,422.7z"/>
</g>
<rect x="1044.1" y="196" class="st4" width="267" height="69"/>
<g class="st3">
	<path d="M1089.4,220.3h-3.1v-20l-6.5,13.6h-1.8l-6.4-13.6v20h-2.9V197h4.2l6.2,13l6-13h4.3L1089.4,220.3L1089.4,220.3z"/>
	<path d="M1110.3,211.6c0,2.8-0.7,5.1-2.2,6.7c-1.5,1.6-3.4,2.5-5.9,2.5s-4.4-0.8-5.9-2.5c-1.5-1.6-2.2-3.9-2.2-6.7s0.7-5.1,2.2-6.7
		c1.5-1.6,3.4-2.5,5.9-2.5c2.4,0,4.4,0.8,5.9,2.5C1109.6,206.5,1110.3,208.7,1110.3,211.6z M1107.3,211.6c0-2.3-0.4-3.9-1.3-5
		s-2.1-1.6-3.7-1.6s-2.8,0.5-3.7,1.6c-0.9,1.1-1.3,2.8-1.3,5s0.4,3.8,1.3,5c0.9,1.1,2.1,1.7,3.7,1.7s2.8-0.6,3.7-1.7
		C1106.9,215.4,1107.3,213.8,1107.3,211.6z"/>
	<path d="M1129.7,202.8l-7.1,17.5h-3l-7-17.5h3.2l5.4,13.9l5.4-13.9H1129.7z"/>
	<path d="M1147.9,211.9H1135c0,1.1,0.2,2,0.5,2.8s0.8,1.5,1.3,2s1.2,0.9,1.9,1.1c0.7,0.2,1.6,0.4,2.5,0.4c1.2,0,2.4-0.2,3.6-0.7
		s2.1-0.9,2.6-1.4h0.2v3.2c-1,0.4-2,0.8-3,1s-2.1,0.4-3.2,0.4c-2.9,0-5.2-0.8-6.8-2.4c-1.6-1.6-2.4-3.8-2.4-6.7s0.8-5.1,2.3-6.8
		c1.6-1.7,3.6-2.5,6.1-2.5c2.4,0,4.2,0.7,5.4,2.1c1.3,1.4,1.9,3.3,1.9,5.9V211.9L1147.9,211.9z M1145,209.6c0-1.5-0.4-2.7-1.2-3.6
		c-0.8-0.8-1.9-1.3-3.5-1.3s-2.8,0.5-3.8,1.4c-0.9,0.9-1.5,2.1-1.6,3.5L1145,209.6L1145,209.6z"/>
	<path d="M1174.2,196l-11.2,29.1h-2.7l11.2-29.1H1174.2z"/>
	<path d="M1208.9,220.3h-4l-7.8-9.2h-4.4v9.2h-3.1V197h6.5c1.4,0,2.6,0.1,3.5,0.3s1.8,0.5,2.5,1c0.8,0.5,1.5,1.2,2,2
		s0.7,1.8,0.7,3.1c0,1.7-0.4,3.1-1.3,4.2c-0.8,1.1-2,2-3.5,2.6L1208.9,220.3z M1201.6,203.6c0-0.7-0.1-1.3-0.4-1.8
		c-0.2-0.5-0.6-1-1.2-1.3c-0.4-0.3-1-0.5-1.6-0.6s-1.3-0.2-2.2-0.2h-3.6v8.8h3.1c1,0,1.8-0.1,2.6-0.3s1.3-0.5,1.9-1
		c0.5-0.4,0.8-0.9,1-1.5C1201.5,205.2,1201.6,204.4,1201.6,203.6z"/>
	<path d="M1225.5,211.9h-12.9c0,1.1,0.2,2,0.5,2.8s0.8,1.5,1.3,2s1.2,0.9,1.9,1.1c0.7,0.2,1.6,0.4,2.5,0.4c1.2,0,2.4-0.2,3.6-0.7
		s2.1-0.9,2.6-1.4h0.2v3.2c-1,0.4-2,0.8-3,1s-2.1,0.4-3.2,0.4c-2.9,0-5.2-0.8-6.8-2.4c-1.6-1.6-2.4-3.8-2.4-6.7s0.8-5.1,2.3-6.8
		c1.6-1.7,3.6-2.5,6.1-2.5c2.4,0,4.2,0.7,5.4,2.1c1.3,1.4,1.9,3.3,1.9,5.9V211.9L1225.5,211.9z M1222.6,209.6c0-1.5-0.4-2.7-1.2-3.6
		c-0.8-0.8-1.9-1.3-3.5-1.3s-2.8,0.5-3.8,1.4c-0.9,0.9-1.5,2.1-1.6,3.5L1222.6,209.6L1222.6,209.6z"/>
	<path d="M1242.4,215.3c0,1.6-0.7,2.9-2,3.9s-3.1,1.5-5.4,1.5c-1.3,0-2.5-0.2-3.6-0.5s-2-0.6-2.7-1v-3.3h0.2c0.9,0.7,2,1.3,3.1,1.7
		s2.2,0.6,3.3,0.6c1.3,0,2.3-0.2,3-0.6c0.7-0.4,1.1-1.1,1.1-2c0-0.7-0.2-1.2-0.6-1.6s-1.2-0.7-2.3-0.9c-0.4-0.1-1-0.2-1.6-0.3
		c-0.7-0.1-1.3-0.3-1.8-0.4c-1.5-0.4-2.6-1-3.3-1.8c-0.6-0.8-1-1.8-1-2.9c0-0.7,0.1-1.4,0.4-2s0.7-1.2,1.4-1.7
		c0.6-0.5,1.3-0.9,2.2-1.2c0.9-0.3,1.9-0.4,3-0.4c1,0,2.1,0.1,3.2,0.4c1.1,0.3,2,0.6,2.7,0.9v3.1h-0.2c-0.8-0.6-1.7-1-2.7-1.4
		c-1.1-0.4-2.1-0.6-3.2-0.6s-2,0.2-2.7,0.6c-0.7,0.4-1.1,1-1.1,1.8c0,0.7,0.2,1.3,0.7,1.6c0.4,0.4,1.1,0.7,2.1,0.9
		c0.5,0.1,1.1,0.2,1.8,0.4c0.7,0.1,1.2,0.2,1.7,0.3c1.4,0.3,2.4,0.9,3.2,1.6C1242,213,1242.4,214,1242.4,215.3z"/>
	<path d="M1249.7,199.9h-3.3v-3h3.3V199.9z M1249.6,220.3h-2.9v-17.5h2.9V220.3z"/>
	<path d="M1268,220.3h-14.1v-2.2l10.2-12.8h-10v-2.5h13.6v2.1l-10.2,12.9h10.5V220.3L1268,220.3z"/>
	<path d="M1286.6,211.9h-12.9c0,1.1,0.2,2,0.5,2.8s0.8,1.5,1.3,2s1.2,0.9,1.9,1.1c0.7,0.2,1.6,0.4,2.5,0.4c1.2,0,2.4-0.2,3.6-0.7
		s2.1-0.9,2.6-1.4h0.2v3.2c-1,0.4-2,0.8-3,1s-2.1,0.4-3.2,0.4c-2.9,0-5.2-0.8-6.8-2.4c-1.6-1.6-2.4-3.8-2.4-6.7s0.8-5.1,2.3-6.8
		c1.6-1.7,3.6-2.5,6.1-2.5c2.4,0,4.2,0.7,5.4,2.1c1.3,1.4,1.9,3.3,1.9,5.9V211.9L1286.6,211.9z M1283.7,209.6c0-1.5-0.4-2.7-1.2-3.6
		c-0.8-0.8-1.9-1.3-3.5-1.3s-2.8,0.5-3.8,1.4c-0.9,0.9-1.5,2.1-1.6,3.5L1283.7,209.6L1283.7,209.6z"/>
</g>
<g class="st3">
	<path d="M1136.4,235.4l-6,23.3h-3.5l-4.9-19.3l-4.8,19.3h-3.4l-6.2-23.3h3.2l4.9,19.3l4.8-19.3h3.1l4.9,19.5l4.9-19.5H1136.4z"/>
	<path d="M1143.9,238.3h-3.3v-3h3.3V238.3z M1143.7,258.7h-2.9v-17.5h2.9V258.7z"/>
	<path d="M1164.1,258.7h-2.9v-9.9c0-0.8,0-1.6-0.1-2.3s-0.3-1.3-0.5-1.6c-0.3-0.4-0.6-0.8-1.1-1s-1.1-0.3-1.9-0.3s-1.6,0.2-2.5,0.6
		s-1.7,0.9-2.5,1.5v13h-2.9v-17.5h2.9v1.9c0.9-0.8,1.9-1.4,2.8-1.8c1-0.4,2-0.6,3-0.6c1.9,0,3.3,0.6,4.3,1.7c1,1.1,1.5,2.8,1.5,4.9
		L1164.1,258.7L1164.1,258.7z"/>
	<path d="M1183.9,258.7h-2.9v-1.8c-0.8,0.7-1.7,1.3-2.6,1.7s-1.9,0.6-3,0.6c-2.1,0-3.7-0.8-5-2.4c-1.3-1.6-1.8-3.8-1.8-6.7
		c0-1.5,0.2-2.8,0.6-4s1-2.1,1.7-3c0.7-0.8,1.5-1.4,2.5-1.8c0.9-0.4,1.9-0.6,2.9-0.6c0.9,0,1.7,0.1,2.4,0.3c0.7,0.2,1.5,0.5,2.2,0.9
		v-7.6h2.9L1183.9,258.7L1183.9,258.7z M1181,254.4v-10c-0.8-0.4-1.5-0.6-2.1-0.7s-1.3-0.2-2-0.2c-1.6,0-2.9,0.6-3.8,1.7
		s-1.4,2.8-1.4,4.9c0,2.1,0.4,3.6,1.1,4.7c0.7,1.1,1.8,1.6,3.4,1.6c0.8,0,1.7-0.2,2.5-0.6C1179.4,255.5,1180.2,255,1181,254.4z"/>
	<path d="M1204.6,250c0,2.8-0.7,5.1-2.2,6.7c-1.5,1.6-3.4,2.5-5.9,2.5s-4.4-0.8-5.9-2.5c-1.5-1.6-2.2-3.9-2.2-6.7s0.7-5.1,2.2-6.7
		c1.5-1.6,3.4-2.5,5.9-2.5c2.4,0,4.4,0.8,5.9,2.5S1204.6,247.1,1204.6,250z M1201.5,250c0-2.3-0.4-3.9-1.3-5s-2.1-1.6-3.7-1.6
		s-2.8,0.5-3.7,1.6c-0.9,1.1-1.3,2.8-1.3,5s0.4,3.8,1.3,5c0.9,1.1,2.1,1.7,3.7,1.7s2.8-0.6,3.7-1.7
		C1201.1,253.8,1201.5,252.2,1201.5,250z"/>
	<path d="M1231.1,241.2l-4.5,17.5h-2.7l-4.5-13.5l-4.5,13.5h-2.7l-4.6-17.5h3.1l3.2,13.5l4.4-13.5h2.4l4.5,13.5l3-13.5H1231.1z"/>
	<path d="M1247.8,253.7c0,1.6-0.7,2.9-2,3.9s-3.1,1.5-5.4,1.5c-1.3,0-2.5-0.2-3.6-0.5s-2-0.6-2.7-1v-3.3h0.2c0.9,0.7,2,1.3,3.1,1.7
		s2.2,0.6,3.3,0.6c1.3,0,2.3-0.2,3-0.6s1.1-1.1,1.1-2c0-0.7-0.2-1.2-0.6-1.6s-1.2-0.7-2.3-0.9c-0.4-0.1-1-0.2-1.6-0.3
		s-1.3-0.3-1.8-0.4c-1.5-0.4-2.6-1-3.3-1.8c-0.6-0.8-1-1.8-1-2.9c0-0.7,0.1-1.4,0.4-2s0.7-1.2,1.4-1.7c0.6-0.5,1.3-0.9,2.2-1.2
		c0.9-0.3,1.9-0.4,3-0.4c1,0,2.1,0.1,3.2,0.4c1.1,0.3,2,0.6,2.7,0.9v3.1h-0.2c-0.8-0.6-1.7-1-2.7-1.4c-1.1-0.4-2.1-0.6-3.2-0.6
		s-2,0.2-2.7,0.6c-0.7,0.4-1.1,1-1.1,1.8c0,0.7,0.2,1.3,0.7,1.6c0.4,0.4,1.1,0.7,2.1,0.9c0.5,0.1,1.1,0.2,1.8,0.4s1.2,0.2,1.7,0.3
		c1.4,0.3,2.4,0.9,3.2,1.6C1247.4,251.4,1247.8,252.4,1247.8,253.7z"/>
</g>
<rect x="1044.1" y="557" class="st4" width="267" height="35.5"/>
<g class="st3">
	<path d="M1071.6,581.3h-4l-7.8-9.2h-4.4v9.2h-3.1V558h6.5c1.4,0,2.6,0.1,3.5,0.3s1.8,0.5,2.5,1c0.8,0.5,1.5,1.2,2,2
		s0.7,1.8,0.7,3.1c0,1.7-0.4,3.1-1.3,4.2c-0.8,1.1-2,2-3.5,2.6L1071.6,581.3z M1064.4,564.6c0-0.7-0.1-1.3-0.4-1.8
		c-0.2-0.5-0.6-1-1.2-1.3c-0.4-0.3-1-0.5-1.6-0.6s-1.3-0.2-2.2-0.2h-3.6v8.8h3.1c1,0,1.8-0.1,2.6-0.3s1.3-0.5,1.9-1
		c0.5-0.4,0.8-0.9,1-1.5C1064.3,566.2,1064.4,565.4,1064.4,564.6z"/>
	<path d="M1088.2,572.9h-12.9c0,1.1,0.2,2,0.5,2.8s0.8,1.5,1.3,2s1.2,0.9,1.9,1.1c0.7,0.2,1.6,0.4,2.5,0.4c1.2,0,2.4-0.2,3.6-0.7
		s2.1-0.9,2.6-1.4h0.2v3.2c-1,0.4-2,0.8-3,1s-2.1,0.4-3.2,0.4c-2.9,0-5.2-0.8-6.8-2.4c-1.6-1.6-2.4-3.8-2.4-6.7s0.8-5.1,2.3-6.8
		c1.6-1.7,3.6-2.5,6.1-2.5c2.4,0,4.2,0.7,5.4,2.1c1.3,1.4,1.9,3.3,1.9,5.9V572.9L1088.2,572.9z M1085.3,570.6c0-1.5-0.4-2.7-1.2-3.6
		c-0.8-0.8-1.9-1.3-3.5-1.3s-2.8,0.5-3.8,1.4c-0.9,0.9-1.5,2.1-1.6,3.5L1085.3,570.6L1085.3,570.6z"/>
	<path d="M1105.1,576.3c0,1.6-0.7,2.9-2,3.9s-3.1,1.5-5.4,1.5c-1.3,0-2.5-0.2-3.6-0.5s-2-0.6-2.7-1v-3.3h0.2c0.9,0.7,2,1.3,3.1,1.7
		s2.2,0.6,3.3,0.6c1.3,0,2.3-0.2,3-0.6c0.7-0.4,1.1-1.1,1.1-2c0-0.7-0.2-1.2-0.6-1.6s-1.2-0.7-2.3-0.9c-0.4-0.1-1-0.2-1.6-0.3
		s-1.3-0.3-1.8-0.4c-1.5-0.4-2.6-1-3.3-1.8c-0.6-0.8-1-1.8-1-2.9c0-0.7,0.1-1.4,0.4-2s0.7-1.2,1.4-1.7c0.6-0.5,1.3-0.9,2.2-1.2
		c0.9-0.3,1.9-0.4,3-0.4c1,0,2.1,0.1,3.2,0.4c1.1,0.3,2,0.6,2.7,0.9v3.1h-0.2c-0.8-0.6-1.7-1-2.7-1.4c-1.1-0.4-2.1-0.6-3.2-0.6
		s-2,0.2-2.7,0.6c-0.7,0.4-1.1,1-1.1,1.8c0,0.7,0.2,1.3,0.7,1.6c0.4,0.4,1.1,0.7,2.1,0.9c0.5,0.1,1.1,0.2,1.8,0.4s1.2,0.2,1.7,0.3
		c1.4,0.3,2.4,0.8,3.2,1.6C1104.8,574,1105.1,575,1105.1,576.3z"/>
	<path d="M1112.5,560.9h-3.3v-3h3.3V560.9z M1112.3,581.3h-2.9v-17.5h2.9V581.3z"/>
	<path d="M1130.8,581.3h-14.1v-2.2l10.2-12.8h-10v-2.5h13.6v2.1l-10.2,12.9h10.5V581.3L1130.8,581.3z"/>
	<path d="M1149.3,572.9h-12.8c0,1.1,0.2,2,0.5,2.8s0.8,1.5,1.3,2s1.2,0.9,1.9,1.1c0.7,0.2,1.6,0.4,2.5,0.4c1.2,0,2.4-0.2,3.6-0.7
		s2.1-0.9,2.6-1.4h0.2v3.2c-1,0.4-2,0.8-3,1s-2.1,0.4-3.2,0.4c-2.9,0-5.2-0.8-6.8-2.4c-1.6-1.6-2.4-3.8-2.4-6.7s0.8-5.1,2.3-6.8
		c1.6-1.7,3.6-2.5,6.1-2.5c2.4,0,4.2,0.7,5.4,2.1c1.3,1.4,1.9,3.3,1.9,5.9L1149.3,572.9L1149.3,572.9z M1146.5,570.6
		c0-1.5-0.4-2.7-1.2-3.6c-0.8-0.8-1.9-1.3-3.5-1.3s-2.8,0.5-3.8,1.4c-0.9,0.9-1.5,2.1-1.6,3.5L1146.5,570.6L1146.5,570.6z"/>
	<path d="M1192.4,558l-6,23.3h-3.5L1178,562l-4.8,19.3h-3.4l-6.2-23.3h3.2l4.9,19.3l4.8-19.3h3.1l4.9,19.5l4.9-19.5H1192.4z"/>
	<path d="M1199.8,560.9h-3.3v-3h3.3V560.9z M1199.7,581.3h-2.9v-17.5h2.9V581.3z"/>
	<path d="M1220.1,581.3h-2.9v-9.9c0-0.8,0-1.6-0.1-2.3s-0.3-1.3-0.5-1.6c-0.3-0.4-0.6-0.8-1.1-1s-1.1-0.3-1.9-0.3s-1.6,0.2-2.5,0.6
		s-1.7,0.9-2.5,1.5v13h-2.9v-17.5h2.9v1.9c0.9-0.8,1.9-1.4,2.8-1.8c1-0.4,2-0.6,3-0.6c1.9,0,3.3,0.6,4.3,1.7c1,1.1,1.5,2.8,1.5,4.9
		L1220.1,581.3L1220.1,581.3z"/>
	<path d="M1239.9,581.3h-2.9v-1.8c-0.8,0.7-1.7,1.3-2.6,1.7s-1.9,0.6-3,0.6c-2.1,0-3.7-0.8-5-2.4c-1.2-1.6-1.8-3.8-1.8-6.7
		c0-1.5,0.2-2.8,0.6-4s1-2.1,1.7-3c0.7-0.8,1.5-1.4,2.5-1.8c0.9-0.4,1.9-0.6,2.9-0.6c0.9,0,1.7,0.1,2.4,0.3c0.7,0.2,1.5,0.5,2.2,0.9
		v-7.6h2.9L1239.9,581.3L1239.9,581.3z M1236.9,577v-10c-0.8-0.4-1.5-0.6-2.1-0.7s-1.3-0.2-2-0.2c-1.6,0-2.9,0.6-3.8,1.7
		s-1.4,2.8-1.4,4.9c0,2.1,0.4,3.6,1.1,4.7c0.7,1.1,1.8,1.6,3.4,1.6c0.8,0,1.7-0.2,2.5-0.6C1235.4,578.1,1236.2,577.6,1236.9,577z"/>
	<path d="M1260.5,572.6c0,2.8-0.7,5.1-2.2,6.7c-1.5,1.6-3.4,2.5-5.9,2.5s-4.4-0.8-5.9-2.5c-1.5-1.6-2.2-3.9-2.2-6.7s0.7-5.1,2.2-6.7
		c1.5-1.7,3.4-2.5,5.9-2.5c2.4,0,4.4,0.8,5.9,2.5C1259.8,567.5,1260.5,569.7,1260.5,572.6z M1257.5,572.6c0-2.3-0.4-3.9-1.3-5
		s-2.1-1.6-3.7-1.6s-2.8,0.5-3.7,1.6c-0.9,1.1-1.3,2.8-1.3,5s0.4,3.8,1.3,5c0.9,1.1,2.1,1.7,3.7,1.7s2.8-0.6,3.7-1.7
		C1257.1,576.4,1257.5,574.8,1257.5,572.6z"/>
	<path d="M1287,563.8l-4.5,17.5h-2.7l-4.5-13.5l-4.5,13.5h-2.7l-4.6-17.5h3.1l3.2,13.5l4.4-13.5h2.4l4.5,13.5l3-13.5H1287z"/>
	<path d="M1303.7,576.3c0,1.6-0.7,2.9-2,3.9s-3.1,1.5-5.4,1.5c-1.3,0-2.5-0.2-3.6-0.5s-2-0.6-2.7-1v-3.3h0.2c0.9,0.7,2,1.3,3.1,1.7
		s2.2,0.6,3.3,0.6c1.3,0,2.3-0.2,3-0.6c0.7-0.4,1.1-1.1,1.1-2c0-0.7-0.2-1.2-0.6-1.6s-1.2-0.7-2.3-0.9c-0.4-0.1-1-0.2-1.6-0.3
		c-0.7-0.1-1.3-0.3-1.8-0.4c-1.5-0.4-2.6-1-3.3-1.8c-0.6-0.8-1-1.8-1-2.9c0-0.7,0.1-1.4,0.4-2s0.7-1.2,1.4-1.7
		c0.6-0.5,1.3-0.9,2.2-1.2c0.9-0.3,1.9-0.4,3-0.4c1,0,2.1,0.1,3.2,0.4c1.1,0.3,2,0.6,2.7,0.9v3.1h-0.2c-0.8-0.6-1.7-1-2.7-1.4
		c-1.1-0.4-2.1-0.6-3.2-0.6s-2,0.2-2.7,0.6c-0.7,0.4-1.1,1-1.1,1.8c0,0.7,0.2,1.3,0.7,1.6c0.4,0.4,1.1,0.7,2.1,0.9
		c0.5,0.1,1.1,0.2,1.8,0.4c0.7,0.1,1.2,0.2,1.7,0.3c1.4,0.3,2.4,0.8,3.2,1.6C1303.4,574,1303.7,575,1303.7,576.3z"/>
</g>
<circle class="st12" cx="1397.1" cy="386" r="75"/>
<circle class="st13" cx="1397.1" cy="386" r="17"/>
<circle class="st14" cx="1367.1" cy="345" r="13"/>
<circle class="st14" cx="1427.1" cy="345" r="13"/>
<circle class="st14" cx="1427.1" cy="428" r="13"/>
<line class="st13" x1="1420.8" y1="354.3" x2="1408.3" y2="371.5"/>
<line class="st13" x1="1373.6" y1="354.5" x2="1386.3" y2="371.6"/>
<line class="st13" x1="1420.3" y1="419.1" x2="1407.3" y2="400.5"/>
<polygon class="st5" points="527.6,-37 527.6,86.3 566.2,47.7 618.9,47.7 "/>
<g>
	<g>
		<polygon class="st7" points="1144.7,-42.1 1133.5,-53.3 1133.5,-47.4 1121.6,-47.4 1121.6,-59.3 1127.5,-59.3 1116.1,-70.7 
			1104.8,-59.3 1110.9,-59.3 1110.9,-47.4 1099.1,-47.4 1099.1,-53.6 1087.5,-42.1 1098.8,-30.8 1098.8,-37 1110.7,-37 
			1110.7,-25.1 1104.5,-25.1 1116.1,-13.5 1127.8,-25.1 1121.6,-25.1 1121.6,-37 1133.5,-37 1133.5,-30.8 		"/>
	</g>
	<g>
		<polygon class="st15" points="1144.7,-42.1 1133.5,-53.3 1133.5,-47.4 1121.6,-47.4 1121.6,-59.3 1127.5,-59.3 1116.1,-70.7 
			1104.8,-59.3 1110.9,-59.3 1110.9,-47.4 1099.1,-47.4 1099.1,-53.6 1087.5,-42.1 1098.8,-30.8 1098.8,-37 1110.7,-37 
			1110.7,-25.1 1104.5,-25.1 1116.1,-13.5 1127.8,-25.1 1121.6,-25.1 1121.6,-37 1133.5,-37 1133.5,-30.8 		"/>
	</g>
</g>
<text transform="matrix(0.9451 0 0 1 358.6656 -110.5999)" class="st16 st17">Application Interaction</text>
<text transform="matrix(0.9451 0 0 1 1011.5832 -110.5999)" class="st16 st17">Window Interaction</text>
<text transform="matrix(1 0 0 1 395.1418 281.5005)"><tspan x="0" y="0" class="st16 st18">Mouse and keyboard</tspan><tspan x="-48" y="43.2" class="st16 st18">directly control applications</tspan></text>
<text transform="matrix(1 0 0 1 354.8754 397.0004)"><tspan x="0" y="0" class="st16 st18">• PDF: arrow keys, spacebar</tspan><tspan x="0" y="43.2" class="st16 st18">• Video: spacebar</tspan></text>
</svg>
