<?xml version="1.0" encoding="utf-8"?>
<!-- Generator: Adobe Illustrator 19.1.0, SVG Export Plug-In . SVG Version: 6.00 Build 0)  -->
<svg version="1.1" id="Layer_1" xmlns="http://www.w3.org/2000/svg" xmlns:xlink="http://www.w3.org/1999/xlink" x="0px" y="0px"
	 viewBox="236 -185.3 1264.2 982.3" style="enable-background:new 236 -185.3 1264.2 982.3;" xml:space="preserve">
<style type="text/css">
	.st0{font-family:'Verdana';}
	.st1{font-size:48px;}
	.st2{fill:#FFFFFF;stroke:#000000;stroke-width:10;stroke-miterlimit:10;}
	.st3{enable-background:new    ;}
	.st4{fill:none;}
	.st5{fill:#28B45F;stroke:#000000;stroke-width:10;stroke-linecap:round;stroke-linejoin:round;}
	.st6{fill:#28B45F;}
	.st7{fill:#FFFFFF;}
	.st8{fill:none;stroke:#000000;stroke-width:6;stroke-miterlimit:10;}
	.st9{fill:#FFFFFF;stroke:#000000;stroke-width:6;stroke-miterlimit:10;}
	.st10{fill:#28B45F;stroke:#000000;stroke-width:6;stroke-miterlimit:10;}
	.st11{fill:#28B45F;stroke:#000000;stroke-width:2;}
	.st12{fill:#787878;stroke:#C8C8C8;stroke-width:5;}
	.st13{fill:none;stroke:#C8C8C8;stroke-width:5;}
	.st14{fill:#C8C8C8;}
	.st15{fill:none;stroke:#000000;stroke-width:5;stroke-linecap:round;stroke-linejoin:round;}
</style>
<text transform="matrix(1 0 0 1 1133.167 -109.6231)" class="st0 st1"> </text>
<path class="st2" d="M718.4,741.4c0,6.6-5.4,12-12,12h-83c-6.6,0-12-5.4-12-12v-54c0-6.6,5.4-12,12-12h83c6.6,0,12,5.4,12,12V741.4z
	"/>
<g class="st3">
	<path d="M653.8,714.7h-19.3c0,1.6,0.2,3,0.7,4.2s1.1,2.2,2,2.9c0.8,0.8,1.8,1.3,2.9,1.7c1.1,0.4,2.3,0.6,3.7,0.6
		c1.8,0,3.6-0.4,5.4-1.1c1.8-0.7,3.1-1.4,3.9-2.1h0.2v4.8c-1.5,0.6-3,1.1-4.5,1.6c-1.6,0.4-3.2,0.6-4.9,0.6c-4.3,0-7.7-1.2-10.2-3.5
		c-2.4-2.4-3.7-5.7-3.7-10s1.2-7.7,3.5-10.2c2.3-2.5,5.4-3.8,9.2-3.8c3.5,0,6.3,1,8.2,3.1s2.9,5,2.9,8.8L653.8,714.7L653.8,714.7z
		 M649.5,711.4c0-2.3-0.6-4.1-1.7-5.4c-1.1-1.3-2.9-1.9-5.2-1.9c-2.4,0-4.2,0.7-5.6,2.1c-1.4,1.4-2.2,3.1-2.4,5.2L649.5,711.4
		L649.5,711.4z"/>
	<path d="M679.2,719.8c0,2.4-1,4.4-3,5.9s-4.7,2.3-8.1,2.3c-1.9,0-3.7-0.2-5.3-0.7s-3-1-4.1-1.5v-4.9h0.2c1.4,1,2.9,1.9,4.6,2.5
		s3.3,0.9,4.9,0.9c1.9,0,3.5-0.3,4.5-0.9c1.1-0.6,1.6-1.6,1.6-2.9c0-1-0.3-1.8-0.9-2.3s-1.7-1-3.4-1.4c-0.6-0.1-1.4-0.3-2.4-0.5
		s-1.9-0.4-2.8-0.6c-2.3-0.6-3.9-1.5-4.9-2.7s-1.4-2.6-1.4-4.3c0-1.1,0.2-2.1,0.7-3c0.4-1,1.1-1.8,2-2.6c0.9-0.7,2-1.3,3.3-1.7
		c1.4-0.4,2.9-0.6,4.5-0.6s3.1,0.2,4.7,0.6c1.6,0.4,2.9,0.9,4,1.4v4.7h-0.2c-1.1-0.8-2.5-1.5-4.1-2.1s-3.2-0.9-4.7-0.9
		c-1.6,0-3,0.3-4.1,0.9c-1.1,0.6-1.7,1.5-1.7,2.8c0,1.1,0.3,1.9,1,2.4c0.7,0.5,1.7,1,3.2,1.3c0.8,0.2,1.7,0.4,2.7,0.6
		c1,0.2,1.9,0.4,2.5,0.5c2,0.5,3.6,1.3,4.7,2.4C678.6,716.4,679.2,717.9,679.2,719.8z"/>
	<path d="M704.8,725.7c-1.5,0.7-2.9,1.2-4.2,1.6c-1.3,0.4-2.7,0.6-4.2,0.6c-1.9,0-3.6-0.3-5.2-0.8c-1.6-0.6-2.9-1.4-4.1-2.5
		c-1.1-1.1-2-2.5-2.6-4.3c-0.6-1.7-0.9-3.7-0.9-6c0-4.3,1.2-7.6,3.5-10.1c2.4-2.4,5.5-3.7,9.3-3.7c1.5,0,3,0.2,4.4,0.6
		c1.4,0.4,2.8,0.9,4,1.5v4.9h-0.2c-1.3-1-2.7-1.9-4.2-2.4c-1.4-0.6-2.8-0.8-4.2-0.8c-2.5,0-4.5,0.8-5.9,2.5s-2.2,4.1-2.2,7.4
		c0,3.2,0.7,5.6,2.1,7.3s3.4,2.5,6,2.5c0.9,0,1.8-0.1,2.7-0.4c0.9-0.2,1.8-0.5,2.5-0.9c0.6-0.3,1.2-0.7,1.8-1c0.6-0.4,1-0.7,1.3-0.9
		h0.2L704.8,725.7L704.8,725.7z"/>
</g>
<polygon points="869.5,129.3 869.5,638.4 877.5,628.7 877.5,120.4 "/>
<rect x="981.9" y="338.9" class="st4" width="398" height="120"/>
<rect x="647.5" y="-39" class="st4" width="448.8" height="131.7"/>
<g class="st3">
	<path d="M761.5-12.4c0,1.4-0.3,2.7-0.9,4c-0.6,1.3-1.5,2.5-2.7,3.4c-1.2,1-2.7,1.8-4.4,2.3c-1.7,0.5-3.7,0.8-6,0.8
		c-2.5,0-4.8-0.2-6.8-0.7s-4.1-1.2-6.1-2.1v-5.8h0.3c1.8,1.5,3.8,2.6,6.1,3.4c2.3,0.8,4.5,1.2,6.5,1.2c2.9,0,5.1-0.5,6.7-1.6
		c1.6-1.1,2.4-2.5,2.4-4.3c0-1.5-0.4-2.7-1.1-3.4s-1.9-1.3-3.5-1.7c-1.2-0.3-2.4-0.6-3.8-0.8c-1.4-0.2-2.8-0.5-4.3-0.8
		c-3.1-0.7-5.4-1.8-6.9-3.4c-1.5-1.6-2.2-3.7-2.2-6.2c0-2.9,1.2-5.3,3.7-7.2s5.6-2.8,9.4-2.8c2.5,0,4.7,0.2,6.8,0.7s3.9,1,5.4,1.7
		v5.5h-0.3c-1.3-1.1-3.1-2.1-5.2-2.8c-2.1-0.7-4.4-1.1-6.6-1.1c-2.5,0-4.5,0.5-6,1.5s-2.3,2.4-2.3,4c0,1.5,0.4,2.6,1.1,3.4
		s2.1,1.5,4,1.9c1,0.2,2.4,0.5,4.3,0.8c1.9,0.3,3.4,0.6,4.7,1c2.6,0.7,4.5,1.7,5.9,3.1S761.5-14.9,761.5-12.4z"/>
	<path d="M795.7-2.5h-4.6v-17.1h-17.4v17.1h-4.6v-34.9h4.6v13.7h17.4v-13.7h4.6V-2.5z"/>
	<path d="M817.4-2.5h-13.8V-6h4.6v-27.8h-4.6v-3.6h13.8v3.6h-4.6V-6h4.6V-2.5z"/>
	<path d="M847.6-33.3H830v9.8h15.2v4.1H830v16.9h-4.7v-34.9h22.3V-33.3z"/>
	<path d="M878.4-33.3h-12.5v30.8h-4.6v-30.8h-12.5v-4.1h29.6V-33.3L878.4-33.3z"/>
	<path d="M912.8-15.9H900v12.8h-3.9v-12.8h-12.8v-3.8h12.8v-12.8h3.9v12.8h12.8V-15.9z"/>
	<path d="M947.3-33.3h-12.5v30.8h-4.6v-30.8h-12.5v-4.1h29.6V-33.3L947.3-33.3z"/>
	<path d="M976.7-2.5h-4.9l-3.5-9.7h-15.1l-3.4,9.7h-4.7l12.7-34.9h6.2L976.7-2.5z M966.9-16.2l-6.1-17.1l-6.1,17.1
		C954.7-16.2,966.9-16.2,966.9-16.2z"/>
	<path d="M1008.3-13.2c0,1.7-0.3,3.3-1,4.6c-0.7,1.3-1.5,2.4-2.6,3.3c-1.3,1-2.8,1.8-4.3,2.2s-3.6,0.7-6,0.7H982v-34.9h10.3
		c2.5,0,4.5,0.1,5.7,0.3c1.2,0.2,2.5,0.6,3.6,1.2c1.3,0.7,2.2,1.5,2.8,2.6c0.6,1.1,0.9,2.3,0.9,3.8c0,1.7-0.4,3.1-1.3,4.2
		c-0.9,1.1-2,2.1-3.4,2.8v0.2c2.4,0.5,4.2,1.5,5.6,3.1C1007.6-17.5,1008.3-15.6,1008.3-13.2z M1000.5-28.9c0-0.8-0.1-1.6-0.4-2.1
		s-0.7-1-1.4-1.4c-0.7-0.4-1.6-0.7-2.7-0.8c-1.1-0.1-2.3-0.2-3.9-0.2h-5.5v10.1h6c1.5,0,2.6-0.1,3.5-0.2c0.9-0.1,1.7-0.5,2.4-0.9
		c0.7-0.4,1.3-1.1,1.6-1.8C1000.4-26.9,1000.5-27.9,1000.5-28.9z M1003.5-13c0-1.4-0.2-2.5-0.6-3.4c-0.4-0.9-1.2-1.5-2.3-2.1
		c-0.8-0.4-1.7-0.6-2.7-0.8c-1-0.2-2.4-0.2-3.9-0.2h-7.3v13h6.1c2,0,3.7-0.1,5-0.3c1.3-0.2,2.4-0.6,3.2-1.2c0.9-0.6,1.5-1.3,1.9-2.1
		C1003.3-10.9,1003.5-11.8,1003.5-13z"/>
</g>
<g class="st3">
	<path d="M693.4,54.9c-0.8,0.2-1.7,0.4-2.7,0.5s-1.8,0.2-2.6,0.2c-2.7,0-4.7-0.7-6.1-2.2c-1.4-1.5-2.1-3.7-2.1-6.9V32.6h-3v-3.7h3
		v-7.5h4.4v7.5h9.1v3.7h-9.1v11.9c0,1.4,0,2.4,0.1,3.2c0.1,0.8,0.3,1.5,0.7,2.2c0.3,0.6,0.8,1.1,1.4,1.4c0.6,0.3,1.5,0.4,2.8,0.4
		c0.7,0,1.5-0.1,2.2-0.3c0.7-0.2,1.3-0.4,1.7-0.5h0.2V54.9L693.4,54.9z"/>
	<path d="M721,42c0,4.3-1.1,7.6-3.3,10.1c-2.2,2.5-5.1,3.7-8.8,3.7c-3.7,0-6.6-1.2-8.8-3.7c-2.2-2.5-3.3-5.8-3.3-10.1
		c0-4.3,1.1-7.6,3.3-10.1c2.2-2.5,5.1-3.7,8.8-3.7c3.7,0,6.6,1.2,8.8,3.7C719.9,34.4,721,37.8,721,42z M716.5,42
		c0-3.4-0.7-5.9-2-7.6c-1.3-1.7-3.2-2.5-5.5-2.5c-2.4,0-4.2,0.8-5.6,2.5c-1.4,1.7-2,4.2-2,7.6c0,3.3,0.7,5.8,2,7.5
		c1.3,1.7,3.2,2.5,5.6,2.5c2.3,0,4.2-0.8,5.5-2.5C715.8,47.8,716.5,45.4,716.5,42z"/>
	<path d="M763.4,47.6c0,2.4-1,4.4-3,5.9s-4.7,2.3-8.1,2.3c-1.9,0-3.7-0.2-5.3-0.7s-3-1-4.1-1.5v-4.9h0.2c1.4,1,2.9,1.9,4.6,2.5
		s3.3,0.9,4.9,0.9c1.9,0,3.5-0.3,4.5-0.9c1-0.6,1.6-1.6,1.6-3c0-1-0.3-1.8-0.9-2.3c-0.6-0.5-1.7-1-3.4-1.4c-0.6-0.1-1.4-0.3-2.4-0.5
		c-1-0.2-1.9-0.4-2.8-0.6c-2.3-0.6-3.9-1.5-4.9-2.7c-1-1.2-1.4-2.6-1.4-4.3c0-1.1,0.2-2.1,0.7-3s1.1-1.8,2-2.6
		c0.9-0.7,2-1.3,3.3-1.7c1.3-0.4,2.9-0.6,4.5-0.6s3.1,0.2,4.7,0.6c1.6,0.4,2.9,0.8,4,1.4v4.7h-0.2c-1.1-0.8-2.5-1.5-4.1-2.1
		s-3.2-0.9-4.7-0.9c-1.6,0-3,0.3-4.1,0.9c-1.1,0.6-1.7,1.5-1.7,2.8c0,1.1,0.3,1.9,1,2.4c0.7,0.5,1.7,1,3.2,1.3
		c0.8,0.2,1.7,0.4,2.7,0.6s1.8,0.4,2.5,0.5c2,0.5,3.6,1.3,4.7,2.4C762.9,44.1,763.4,45.7,763.4,47.6z"/>
	<path d="M802.7,28.9l-6.8,26.2h-4.1l-6.7-20.2l-6.7,20.2h-4.1l-6.9-26.2h4.6l4.8,20.3l6.5-20.3h3.6l6.7,20.3l4.5-20.3H802.7z"/>
	<path d="M813.7,24.6h-5V20h5V24.6z M813.5,55.1h-4.4V28.9h4.4V55.1z"/>
	<path d="M835.8,54.9c-0.8,0.2-1.7,0.4-2.7,0.5s-1.8,0.2-2.6,0.2c-2.7,0-4.7-0.7-6.1-2.2c-1.4-1.5-2.1-3.7-2.1-6.9V32.6h-3v-3.7h3
		v-7.5h4.4v7.5h9.1v3.7h-9.1v11.9c0,1.4,0,2.4,0.1,3.2c0.1,0.8,0.3,1.5,0.7,2.2c0.3,0.6,0.8,1.1,1.4,1.4c0.6,0.3,1.5,0.4,2.8,0.4
		c0.7,0,1.5-0.1,2.2-0.3c0.7-0.2,1.3-0.4,1.7-0.5h0.2L835.8,54.9L835.8,54.9z"/>
	<path d="M860.5,53.5c-1.5,0.7-2.9,1.2-4.2,1.6c-1.3,0.4-2.7,0.6-4.2,0.6c-1.9,0-3.6-0.3-5.2-0.8c-1.6-0.5-2.9-1.4-4.1-2.5
		c-1.1-1.1-2-2.5-2.6-4.3c-0.6-1.8-0.9-3.7-0.9-6c0-4.3,1.2-7.6,3.5-10.1c2.3-2.5,5.5-3.7,9.3-3.7c1.5,0,3,0.2,4.4,0.6
		s2.8,0.9,4,1.5v4.9h-0.2c-1.3-1-2.7-1.9-4.2-2.4s-2.8-0.8-4.2-0.8c-2.5,0-4.5,0.8-5.9,2.5c-1.4,1.7-2.2,4.1-2.2,7.4
		c0,3.2,0.7,5.6,2.1,7.3c1.4,1.7,3.4,2.5,6,2.5c0.9,0,1.8-0.1,2.7-0.4s1.8-0.5,2.5-0.9c0.6-0.3,1.2-0.7,1.8-1c0.6-0.3,1-0.7,1.3-0.9
		h0.2L860.5,53.5L860.5,53.5z"/>
	<path d="M888,55.1h-4.4V40.2c0-1.2-0.1-2.3-0.2-3.4c-0.1-1.1-0.4-1.9-0.8-2.5c-0.4-0.7-1-1.1-1.7-1.5c-0.7-0.4-1.7-0.5-2.9-0.5
		c-1.2,0-2.5,0.3-3.8,0.9c-1.3,0.6-2.6,1.4-3.8,2.3V55H866V18.6h4.4v13.2c1.4-1.1,2.8-2,4.3-2.7s3-1,4.5-1c2.8,0,5,0.9,6.5,2.6
		c1.5,1.7,2.2,4.2,2.2,7.4L888,55.1L888,55.1z"/>
	<path d="M951.6,55.1h-4.4V40.2c0-1.1-0.1-2.2-0.2-3.3c-0.1-1.1-0.3-1.9-0.6-2.5c-0.4-0.7-0.9-1.2-1.5-1.5c-0.6-0.3-1.6-0.5-2.9-0.5
		c-1.2,0-2.5,0.3-3.7,0.9c-1.2,0.6-2.5,1.4-3.7,2.4c0,0.4,0.1,0.8,0.1,1.3s0,0.9,0,1.4v16.8h-4.4v-15c0-1.2-0.1-2.3-0.2-3.3
		c-0.1-1-0.3-1.9-0.6-2.5c-0.4-0.7-0.9-1.2-1.5-1.5c-0.6-0.3-1.6-0.5-2.9-0.5c-1.2,0-2.4,0.3-3.6,0.9c-1.2,0.6-2.4,1.4-3.6,2.3v19.5
		h-4.4V28.9h4.4v2.9c1.4-1.1,2.7-2,4.1-2.7c1.4-0.7,2.8-1,4.4-1c1.8,0,3.3,0.4,4.5,1.1c1.2,0.7,2.2,1.8,2.8,3.1
		c1.8-1.5,3.4-2.6,4.9-3.2s3-1,4.7-1c2.9,0,5,0.9,6.4,2.6c1.4,1.7,2.1,4.2,2.1,7.3L951.6,55.1L951.6,55.1z"/>
	<path d="M982.4,42c0,4.3-1.1,7.6-3.3,10.1c-2.2,2.5-5.1,3.7-8.8,3.7c-3.7,0-6.6-1.2-8.8-3.7c-2.2-2.5-3.3-5.8-3.3-10.1
		c0-4.3,1.1-7.6,3.3-10.1c2.2-2.5,5.1-3.7,8.8-3.7c3.7,0,6.6,1.2,8.8,3.7C981.3,34.4,982.4,37.8,982.4,42z M977.8,42
		c0-3.4-0.7-5.9-2-7.6c-1.3-1.7-3.2-2.5-5.5-2.5c-2.4,0-4.2,0.8-5.6,2.5c-1.4,1.7-2,4.2-2,7.6c0,3.3,0.7,5.8,2,7.5
		c1.3,1.7,3.2,2.5,5.6,2.5c2.3,0,4.2-0.8,5.5-2.5C977.1,47.8,977.8,45.4,977.8,42z"/>
	<path d="M1010.4,55.1h-4.4v-2.7c-1.3,1.1-2.6,1.9-4,2.6s-2.9,0.9-4.5,0.9c-3.1,0-5.6-1.2-7.4-3.6c-1.8-2.4-2.8-5.7-2.8-10
		c0-2.2,0.3-4.2,0.9-5.9c0.6-1.7,1.5-3.2,2.6-4.4c1.1-1.2,2.3-2.1,3.7-2.7s2.9-0.9,4.4-0.9c1.4,0,2.6,0.1,3.7,0.4
		c1.1,0.3,2.2,0.7,3.4,1.3V18.7h4.4V55.1L1010.4,55.1z M1006,48.7v-15c-1.2-0.5-2.2-0.9-3.2-1.1s-2-0.3-3.1-0.3
		c-2.5,0-4.4,0.9-5.8,2.6c-1.4,1.7-2.1,4.2-2.1,7.3s0.5,5.5,1.6,7.1s2.8,2.4,5.1,2.4c1.2,0,2.5-0.3,3.8-0.8
		C1003.6,50.4,1004.9,49.5,1006,48.7z"/>
	<path d="M1041,42.5h-19.3c0,1.6,0.2,3,0.7,4.2c0.5,1.2,1.1,2.2,2,2.9c0.8,0.8,1.8,1.3,2.9,1.7s2.3,0.6,3.7,0.6
		c1.8,0,3.6-0.4,5.4-1.1s3.1-1.4,3.9-2.1h0.2v4.8c-1.5,0.6-3,1.1-4.5,1.6s-3.2,0.6-4.9,0.6c-4.3,0-7.7-1.2-10.2-3.5
		c-2.5-2.3-3.7-5.7-3.7-10c0-4.3,1.2-7.7,3.5-10.2s5.4-3.8,9.2-3.8c3.5,0,6.3,1,8.2,3.1c1.9,2.1,2.9,5,2.9,8.8L1041,42.5L1041,42.5z
		 M1036.7,39.1c0-2.3-0.6-4.1-1.7-5.4s-2.9-1.9-5.2-1.9c-2.4,0-4.2,0.7-5.6,2.1s-2.2,3.1-2.4,5.2L1036.7,39.1L1036.7,39.1z"/>
	<path d="M1066.4,47.6c0,2.4-1,4.4-3,5.9s-4.7,2.3-8.1,2.3c-1.9,0-3.7-0.2-5.3-0.7s-3-1-4.1-1.5v-4.9h0.2c1.4,1,2.9,1.9,4.6,2.5
		s3.3,0.9,4.9,0.9c1.9,0,3.5-0.3,4.5-0.9c1-0.6,1.6-1.6,1.6-3c0-1-0.3-1.8-0.9-2.3s-1.7-1-3.4-1.4c-0.6-0.1-1.4-0.3-2.4-0.5
		c-1-0.2-1.9-0.4-2.8-0.6c-2.3-0.6-3.9-1.5-4.9-2.7c-1-1.2-1.4-2.6-1.4-4.3c0-1.1,0.2-2.1,0.7-3s1.1-1.8,2-2.6
		c0.9-0.7,2-1.3,3.3-1.7s2.9-0.6,4.5-0.6s3.1,0.2,4.7,0.6s2.9,0.8,4,1.4v4.7h-0.2c-1.1-0.8-2.5-1.5-4.1-2.1s-3.2-0.9-4.7-0.9
		c-1.6,0-3,0.3-4.1,0.9s-1.7,1.5-1.7,2.8c0,1.1,0.3,1.9,1,2.4s1.7,1,3.2,1.3c0.8,0.2,1.7,0.4,2.7,0.6c1,0.2,1.8,0.4,2.5,0.5
		c2,0.5,3.6,1.3,4.7,2.4C1065.8,44.1,1066.4,45.7,1066.4,47.6z"/>
</g>
<rect x="252.5" y="-144.5" class="st4" width="448.8" height="53.7"/>
<rect x="932" y="-144.5" class="st4" width="448.8" height="53.7"/>
<g class="st3">
	<path d="M395.5,363.2h-3.1v-20l-6.5,13.6h-1.8l-6.4-13.6v20h-2.9v-23.3h4.2l6.2,13l6-13h4.3L395.5,363.2L395.5,363.2z"/>
	<path d="M416.4,354.5c0,2.8-0.7,5.1-2.2,6.7s-3.4,2.5-5.9,2.5s-4.4-0.8-5.9-2.5c-1.5-1.6-2.2-3.9-2.2-6.7s0.7-5.1,2.2-6.7
		c1.5-1.7,3.4-2.5,5.9-2.5c2.4,0,4.4,0.8,5.9,2.5S416.4,351.6,416.4,354.5z M413.4,354.5c0-2.3-0.4-3.9-1.3-5s-2.1-1.6-3.7-1.6
		s-2.8,0.5-3.7,1.6c-0.9,1.1-1.3,2.8-1.3,5s0.4,3.8,1.3,5c0.9,1.1,2.1,1.7,3.7,1.7s2.8-0.6,3.7-1.7
		C412.9,358.3,413.4,356.7,413.4,354.5z"/>
	<path d="M435.4,363.2h-2.9v-1.9c-1,0.8-1.9,1.4-2.8,1.8s-1.9,0.6-3,0.6c-1.8,0-3.3-0.6-4.3-1.7s-1.5-2.8-1.5-4.9v-11.3h2.9v9.9
		c0,0.9,0,1.6,0.1,2.3c0.1,0.6,0.3,1.2,0.5,1.6c0.3,0.5,0.6,0.8,1.1,1c0.4,0.2,1.1,0.3,2,0.3c0.8,0,1.6-0.2,2.5-0.6s1.7-0.9,2.5-1.5
		v-13h2.9L435.4,363.2L435.4,363.2z"/>
	<path d="M453.7,358.2c0,1.6-0.7,2.9-2,3.9s-3.1,1.5-5.4,1.5c-1.3,0-2.5-0.2-3.6-0.5s-2-0.6-2.7-1v-3.3h0.2c0.9,0.7,2,1.3,3.1,1.7
		c1.1,0.4,2.2,0.6,3.3,0.6c1.3,0,2.3-0.2,3-0.6s1.1-1.1,1.1-2c0-0.7-0.2-1.2-0.6-1.6s-1.2-0.7-2.3-0.9c-0.4-0.1-1-0.2-1.6-0.3
		s-1.3-0.3-1.8-0.4c-1.5-0.4-2.6-1-3.3-1.8c-0.6-0.8-1-1.8-1-2.9c0-0.7,0.1-1.4,0.4-2s0.7-1.2,1.4-1.7c0.6-0.5,1.3-0.9,2.2-1.2
		c0.9-0.3,1.9-0.4,3-0.4c1,0,2.1,0.1,3.2,0.4s2,0.6,2.7,0.9v3.1h-0.2c-0.8-0.6-1.7-1-2.7-1.4c-1.1-0.4-2.1-0.6-3.2-0.6
		s-2,0.2-2.7,0.6s-1.1,1-1.1,1.8c0,0.7,0.2,1.3,0.7,1.6c0.4,0.4,1.1,0.7,2.1,0.9c0.5,0.1,1.1,0.2,1.8,0.4s1.2,0.2,1.7,0.3
		c1.4,0.3,2.4,0.8,3.2,1.6C453.3,355.9,453.7,356.9,453.7,358.2z"/>
	<path d="M472.5,354.8h-12.9c0,1.1,0.2,2,0.5,2.8s0.8,1.5,1.3,2s1.2,0.9,1.9,1.1c0.7,0.2,1.6,0.4,2.5,0.4c1.2,0,2.4-0.2,3.6-0.7
		s2.1-0.9,2.6-1.4h0.2v3.2c-1,0.4-2,0.8-3,1s-2.1,0.4-3.2,0.4c-2.9,0-5.2-0.8-6.8-2.4c-1.6-1.6-2.4-3.8-2.4-6.7
		c0-2.9,0.8-5.1,2.3-6.8c1.6-1.7,3.6-2.5,6.1-2.5c2.4,0,4.2,0.7,5.4,2.1c1.3,1.4,1.9,3.3,1.9,5.9V354.8L472.5,354.8z M469.6,352.5
		c0-1.5-0.4-2.7-1.2-3.6s-1.9-1.3-3.5-1.3s-2.8,0.5-3.8,1.4c-0.9,0.9-1.5,2.1-1.6,3.5H469.6z"/>
	<path d="M505.4,349v1.5c0,1-0.1,2.1-0.4,3.4c-0.3,1.2-0.7,2.4-1.3,3.6l5.9,5.8h-3.8l-3.6-3.5c-1.2,1.5-2.4,2.5-3.7,3.1
		s-2.5,0.9-3.9,0.9c-2.2,0-4-0.6-5.4-1.9s-2.1-2.9-2.1-5c0-1,0.1-1.8,0.4-2.5s0.6-1.3,1-1.8s0.8-1,1.4-1.4c0.5-0.4,1.1-0.8,1.6-1.1
		c-1.1-0.8-2-1.5-2.5-2.3s-0.8-1.7-0.8-2.9c0-0.7,0.1-1.4,0.4-2s0.7-1.2,1.2-1.7s1.2-0.9,2-1.2c0.8-0.3,1.8-0.5,2.8-0.5
		c1.8,0,3.3,0.5,4.4,1.4s1.7,2.1,1.7,3.5c0,0.5-0.1,1-0.2,1.6s-0.3,1.1-0.6,1.6c-0.3,0.5-0.8,1-1.4,1.5s-1.4,0.9-2.4,1.2l5.8,5.7
		c0.1-0.4,0.3-0.9,0.3-1.4c0.1-0.5,0.1-1,0.1-1.6s0-1.2,0-2c0-0.7,0-1.3,0-1.8L505.4,349L505.4,349z M500.7,358.3l-7.5-7.3
		c-0.3,0.2-0.6,0.4-1,0.6c-0.3,0.3-0.6,0.6-1,1c-0.3,0.4-0.5,0.9-0.7,1.5s-0.3,1.2-0.3,1.9c0,1.5,0.4,2.7,1.3,3.7
		c0.9,0.9,2.2,1.4,3.8,1.4c1,0,1.9-0.2,2.9-0.7C499.3,359.9,500.1,359.2,500.7,358.3z M497.7,344.6c0-1-0.3-1.8-0.9-2.3
		c-0.6-0.6-1.3-0.9-2.3-0.9s-1.7,0.3-2.3,1s-0.9,1.4-0.9,2.4c0,0.8,0.2,1.5,0.6,2.1s1.3,1.3,2.7,2.1c1-0.4,1.8-0.9,2.3-1.6
		C497.4,346.6,497.7,345.7,497.7,344.6z"/>
	<path d="M541.6,363.2h-4l-9.2-10.4l-2.3,2.5v7.9H523v-23.3h3.1V352l11.3-12.1h3.8l-10.4,10.9L541.6,363.2z"/>
	<path d="M558.4,354.8h-12.9c0,1.1,0.2,2,0.5,2.8c0.3,0.8,0.8,1.5,1.3,2s1.2,0.9,1.9,1.1c0.7,0.2,1.6,0.4,2.5,0.4
		c1.2,0,2.4-0.2,3.6-0.7c1.2-0.5,2.1-0.9,2.6-1.4h0.2v3.2c-1,0.4-2,0.8-3,1s-2.1,0.4-3.2,0.4c-2.9,0-5.2-0.8-6.8-2.4
		s-2.4-3.8-2.4-6.7c0-2.9,0.8-5.1,2.3-6.8c1.6-1.7,3.6-2.5,6.1-2.5c2.4,0,4.2,0.7,5.4,2.1c1.3,1.4,1.9,3.3,1.9,5.9L558.4,354.8
		L558.4,354.8z M555.5,352.5c0-1.5-0.4-2.7-1.2-3.6c-0.8-0.9-1.9-1.3-3.5-1.3s-2.8,0.5-3.8,1.4c-0.9,0.9-1.5,2.1-1.6,3.5H555.5z"/>
	<path d="M577.9,345.7l-10.2,23.9h-3.1l3.2-7.3l-7-16.6h3.2l5.4,12.9l5.4-12.9H577.9L577.9,345.7z"/>
	<path d="M597.1,354.3c0,1.5-0.2,2.8-0.6,3.9c-0.4,1.2-1,2.1-1.7,2.9c-0.7,0.8-1.6,1.4-2.4,1.9c-0.9,0.4-1.9,0.6-2.9,0.6
		s-1.9-0.1-2.6-0.4c-0.7-0.2-1.5-0.5-2.2-0.9l-0.2,0.8h-2.8v-24.3h2.9v8.7c0.8-0.7,1.7-1.2,2.6-1.7c0.9-0.4,2-0.6,3.1-0.6
		c2.1,0,3.7,0.8,4.9,2.4C596.5,349.2,597.1,351.4,597.1,354.3z M594.1,354.4c0-2.1-0.3-3.7-1-4.7c-0.7-1-1.8-1.6-3.3-1.6
		c-0.9,0-1.7,0.2-2.6,0.6c-0.9,0.4-1.7,0.8-2.4,1.4v10c0.8,0.4,1.5,0.6,2.1,0.8c0.6,0.1,1.3,0.2,2,0.2c1.6,0,2.9-0.5,3.8-1.6
		C593.7,358.4,594.1,356.7,594.1,354.4z"/>
	<path d="M616.6,354.5c0,2.8-0.7,5.1-2.2,6.7s-3.4,2.5-5.9,2.5s-4.4-0.8-5.9-2.5c-1.5-1.6-2.2-3.9-2.2-6.7s0.7-5.1,2.2-6.7
		c1.5-1.7,3.4-2.5,5.9-2.5c2.4,0,4.4,0.8,5.9,2.5C615.9,349.4,616.6,351.6,616.6,354.5z M613.6,354.5c0-2.3-0.4-3.9-1.3-5
		c-0.9-1.1-2.1-1.6-3.7-1.6c-1.6,0-2.8,0.5-3.7,1.6s-1.3,2.8-1.3,5s0.4,3.8,1.3,5c0.9,1.1,2.1,1.7,3.7,1.7s2.8-0.6,3.7-1.7
		C613.1,358.3,613.6,356.7,613.6,354.5z"/>
	<path d="M634.7,363.2h-2.9v-1.9c-0.3,0.2-0.6,0.4-1.1,0.7c-0.4,0.3-0.9,0.6-1.3,0.8c-0.5,0.2-1.1,0.4-1.7,0.6s-1.4,0.2-2.2,0.2
		c-1.6,0-2.9-0.5-4-1.6s-1.6-2.4-1.6-4c0-1.3,0.3-2.4,0.9-3.2c0.6-0.8,1.4-1.5,2.4-1.9c1.1-0.5,2.3-0.8,3.8-1s3.1-0.3,4.8-0.4V351
		c0-0.7-0.1-1.2-0.4-1.7s-0.6-0.8-1-1s-0.9-0.4-1.5-0.5s-1.2-0.1-1.8-0.1c-0.8,0-1.6,0.1-2.6,0.3c-0.9,0.2-1.9,0.5-2.9,0.9h-0.2v-3
		c0.6-0.2,1.4-0.3,2.5-0.5s2.2-0.3,3.2-0.3c1.2,0,2.3,0.1,3.2,0.3c0.9,0.2,1.7,0.5,2.4,1c0.7,0.5,1.2,1.1,1.5,1.9
		c0.3,0.8,0.5,1.7,0.5,2.8V363.2L634.7,363.2z M631.8,358.9V354c-0.9,0.1-2,0.1-3.2,0.2c-1.2,0.1-2.2,0.3-2.9,0.5
		c-0.8,0.2-1.5,0.6-2,1.1s-0.8,1.2-0.8,2.1c0,1,0.3,1.8,0.9,2.3c0.6,0.5,1.5,0.8,2.8,0.8c1,0,2-0.2,2.8-0.6
		C630.3,359.9,631.1,359.5,631.8,358.9z"/>
	<path d="M651.3,348.9h-0.2c-0.4-0.1-0.9-0.2-1.3-0.2c-0.4,0-0.9-0.1-1.5-0.1c-0.9,0-1.8,0.2-2.6,0.6c-0.8,0.4-1.7,0.9-2.4,1.6v12.4
		h-2.9v-17.5h2.9v2.6c1.2-0.9,2.2-1.6,3.1-2c0.9-0.4,1.8-0.6,2.7-0.6c0.5,0,0.9,0,1.1,0c0.2,0,0.6,0.1,1,0.1L651.3,348.9
		L651.3,348.9z"/>
	<path d="M668.2,363.2h-2.9v-1.8c-0.8,0.7-1.7,1.3-2.6,1.7c-0.9,0.4-1.9,0.6-3,0.6c-2.1,0-3.7-0.8-5-2.4c-1.2-1.6-1.8-3.8-1.8-6.7
		c0-1.5,0.2-2.8,0.6-4c0.4-1.2,1-2.1,1.7-3c0.7-0.8,1.5-1.4,2.5-1.8c0.9-0.4,1.9-0.6,2.9-0.6c0.9,0,1.7,0.1,2.4,0.3
		c0.7,0.2,1.5,0.5,2.2,0.9v-7.6h2.9L668.2,363.2L668.2,363.2z M665.2,358.9v-10c-0.8-0.4-1.5-0.6-2.1-0.7s-1.3-0.2-2-0.2
		c-1.6,0-2.9,0.6-3.8,1.7s-1.4,2.8-1.4,4.9s0.4,3.6,1.1,4.7c0.7,1.1,1.8,1.6,3.4,1.6c0.8,0,1.7-0.2,2.5-0.6
		C663.7,360,664.5,359.5,665.2,358.9z"/>
</g>
<g class="st3">
	<path d="M414.4,401.6h-2.9v-1.8c-0.8,0.7-1.7,1.3-2.6,1.7c-0.9,0.4-1.9,0.6-3,0.6c-2.1,0-3.7-0.8-5-2.4c-1.2-1.6-1.8-3.8-1.8-6.7
		c0-1.5,0.2-2.8,0.6-4s1-2.1,1.7-3c0.7-0.8,1.5-1.4,2.5-1.8c0.9-0.4,1.9-0.6,2.9-0.6c0.9,0,1.7,0.1,2.4,0.3c0.7,0.2,1.5,0.5,2.2,0.9
		v-7.6h2.9L414.4,401.6L414.4,401.6z M411.4,397.3v-10c-0.8-0.4-1.5-0.6-2.1-0.7s-1.3-0.2-2-0.2c-1.6,0-2.9,0.6-3.8,1.7
		s-1.4,2.8-1.4,4.9s0.4,3.6,1.1,4.7s1.8,1.6,3.4,1.6c0.8,0,1.7-0.2,2.5-0.6C409.9,398.4,410.7,397.9,411.4,397.3z"/>
	<path d="M423.3,381.2H420v-3h3.3V381.2z M423.1,401.6h-2.9v-17.5h2.9V401.6z"/>
	<path d="M439.8,387.3h-0.2c-0.4-0.1-0.9-0.2-1.3-0.2s-0.9-0.1-1.5-0.1c-0.9,0-1.8,0.2-2.6,0.6s-1.7,0.9-2.4,1.6v12.4h-2.9v-17.5
		h2.9v2.6c1.2-0.9,2.2-1.6,3.1-2s1.8-0.6,2.7-0.6c0.5,0,0.9,0,1.1,0s0.6,0.1,1,0.1L439.8,387.3L439.8,387.3z"/>
	<path d="M457.2,393.2h-12.9c0,1.1,0.2,2,0.5,2.8s0.8,1.5,1.3,2s1.2,0.9,1.9,1.1c0.7,0.2,1.6,0.4,2.5,0.4c1.2,0,2.4-0.2,3.6-0.7
		s2.1-0.9,2.6-1.4h0.2v3.2c-1,0.4-2,0.8-3,1s-2.1,0.4-3.2,0.4c-2.9,0-5.2-0.8-6.8-2.4c-1.6-1.6-2.4-3.8-2.4-6.7
		c0-2.9,0.8-5.1,2.3-6.8c1.6-1.7,3.6-2.5,6.1-2.5c2.4,0,4.2,0.7,5.4,2.1c1.3,1.4,1.9,3.3,1.9,5.9V393.2L457.2,393.2z M454.4,390.9
		c0-1.5-0.4-2.7-1.2-3.6s-1.9-1.3-3.5-1.3s-2.8,0.5-3.8,1.4c-0.9,0.9-1.5,2.1-1.6,3.5H454.4z"/>
	<path d="M474.6,400.5c-1,0.5-1.9,0.8-2.8,1.1c-0.9,0.3-1.8,0.4-2.8,0.4c-1.3,0-2.4-0.2-3.5-0.6s-2-0.9-2.7-1.7
		c-0.8-0.8-1.3-1.7-1.8-2.8c-0.4-1.1-0.6-2.5-0.6-4c0-2.9,0.8-5.1,2.4-6.7s3.6-2.4,6.2-2.4c1,0,2,0.1,2.9,0.4c1,0.3,1.8,0.6,2.6,1
		v3.3h-0.2c-0.9-0.7-1.8-1.2-2.8-1.6s-1.9-0.6-2.8-0.6c-1.7,0-3,0.6-3.9,1.7c-1,1.1-1.4,2.8-1.4,4.9s0.5,3.7,1.4,4.9
		c0.9,1.1,2.3,1.7,4,1.7c0.6,0,1.2-0.1,1.8-0.2c0.6-0.2,1.2-0.4,1.7-0.6c0.4-0.2,0.8-0.5,1.2-0.7c0.4-0.2,0.7-0.5,0.9-0.6h0.2
		L474.6,400.5L474.6,400.5z"/>
	<path d="M487.4,401.4c-0.6,0.1-1.2,0.3-1.8,0.4c-0.7,0.1-1.2,0.1-1.7,0.1c-1.8,0-3.1-0.5-4.1-1.4c-0.9-1-1.4-2.5-1.4-4.6v-9.3h-2
		v-2.5h2v-5h2.9v5h6.1v2.5h-6.1v8c0,0.9,0,1.6,0.1,2.1c0,0.5,0.2,1,0.4,1.4c0.2,0.4,0.5,0.7,0.9,0.9c0.4,0.2,1,0.3,1.8,0.3
		c0.5,0,1-0.1,1.5-0.2s0.9-0.3,1.1-0.4h0.2v2.7H487.4z"/>
	<path d="M493.9,401.6H491v-24.3h2.9V401.6z"/>
	<path d="M514.8,384.1L504.6,408h-3.1l3.2-7.3l-7-16.6h3.2l5.4,12.9l5.4-12.9H514.8L514.8,384.1z"/>
	<path d="M542.8,400.5c-1,0.5-1.9,0.8-2.8,1.1c-0.9,0.3-1.8,0.4-2.8,0.4c-1.3,0-2.4-0.2-3.5-0.6s-2-0.9-2.7-1.7
		c-0.8-0.8-1.3-1.7-1.8-2.8c-0.4-1.1-0.6-2.5-0.6-4c0-2.9,0.8-5.1,2.4-6.7c1.6-1.6,3.6-2.4,6.2-2.4c1,0,2,0.1,2.9,0.4
		c1,0.3,1.8,0.6,2.6,1v3.3h-0.2c-0.9-0.7-1.8-1.2-2.8-1.6s-1.9-0.6-2.8-0.6c-1.7,0-3,0.6-3.9,1.7c-1,1.1-1.4,2.8-1.4,4.9
		s0.5,3.7,1.4,4.9c0.9,1.1,2.3,1.7,4,1.7c0.6,0,1.2-0.1,1.8-0.2c0.6-0.2,1.2-0.4,1.7-0.6c0.4-0.2,0.8-0.5,1.2-0.7s0.7-0.5,0.9-0.6
		h0.2L542.8,400.5L542.8,400.5z"/>
	<path d="M561.5,392.9c0,2.8-0.7,5.1-2.2,6.7s-3.4,2.5-5.9,2.5s-4.4-0.8-5.9-2.5c-1.5-1.6-2.2-3.9-2.2-6.7s0.7-5.1,2.2-6.7
		c1.5-1.7,3.4-2.5,5.9-2.5c2.4,0,4.4,0.8,5.9,2.5S561.5,390,561.5,392.9z M558.4,392.9c0-2.3-0.4-3.9-1.3-5s-2.1-1.6-3.7-1.6
		s-2.8,0.5-3.7,1.6s-1.3,2.8-1.3,5s0.4,3.8,1.3,5c0.9,1.1,2.1,1.7,3.7,1.7c1.6,0,2.8-0.6,3.7-1.7C558,396.7,558.4,395.1,558.4,392.9
		z"/>
	<path d="M580.6,401.6h-2.9v-9.9c0-0.8,0-1.6-0.1-2.3s-0.3-1.3-0.5-1.6c-0.3-0.4-0.6-0.8-1.1-1s-1.1-0.3-1.9-0.3
		c-0.8,0-1.6,0.2-2.5,0.6s-1.7,0.9-2.5,1.5v13h-2.9v-17.5h2.9v1.9c0.9-0.8,1.9-1.4,2.8-1.8c1-0.4,2-0.6,3-0.6c1.9,0,3.3,0.6,4.3,1.7
		s1.5,2.8,1.5,4.9L580.6,401.6L580.6,401.6z"/>
	<path d="M595.3,401.4c-0.6,0.1-1.2,0.3-1.8,0.4c-0.7,0.1-1.2,0.1-1.7,0.1c-1.8,0-3.1-0.5-4.1-1.4c-0.9-1-1.4-2.5-1.4-4.6v-9.3h-2
		v-2.5h2v-5h2.9v5h6.1v2.5h-6v8c0,0.9,0,1.6,0.1,2.1c0,0.5,0.2,1,0.4,1.4c0.2,0.4,0.5,0.7,0.9,0.9c0.4,0.2,1,0.3,1.8,0.3
		c0.5,0,1-0.1,1.5-0.2s0.9-0.3,1.1-0.4h0.2V401.4z"/>
	<path d="M609.8,387.3h-0.2c-0.4-0.1-0.9-0.2-1.3-0.2c-0.4,0-0.9-0.1-1.5-0.1c-0.9,0-1.8,0.2-2.6,0.6c-0.8,0.4-1.7,0.9-2.4,1.6v12.4
		h-2.9v-17.5h2.9v2.6c1.2-0.9,2.2-1.6,3.1-2c0.9-0.4,1.8-0.6,2.7-0.6c0.5,0,0.9,0,1.1,0c0.2,0,0.6,0.1,1,0.1L609.8,387.3
		L609.8,387.3z"/>
	<path d="M627.4,392.9c0,2.8-0.7,5.1-2.2,6.7s-3.4,2.5-5.9,2.5s-4.4-0.8-5.9-2.5c-1.5-1.6-2.2-3.9-2.2-6.7s0.7-5.1,2.2-6.7
		c1.5-1.7,3.4-2.5,5.9-2.5c2.4,0,4.4,0.8,5.9,2.5C626.7,387.8,627.4,390,627.4,392.9z M624.4,392.9c0-2.3-0.4-3.9-1.3-5
		s-2.1-1.6-3.7-1.6s-2.8,0.5-3.7,1.6s-1.3,2.8-1.3,5s0.4,3.8,1.3,5c0.9,1.1,2.1,1.7,3.7,1.7c1.6,0,2.8-0.6,3.7-1.7
		C623.9,396.7,624.4,395.1,624.4,392.9z"/>
	<path d="M634.9,401.6H632v-24.3h2.9V401.6z"/>
</g>
<g class="st3">
	<path d="M443.2,440h-2.9v-1.9c-0.3,0.2-0.6,0.4-1.1,0.7c-0.4,0.3-0.9,0.6-1.3,0.8c-0.5,0.2-1.1,0.4-1.7,0.6s-1.4,0.2-2.2,0.2
		c-1.6,0-2.9-0.5-4-1.6s-1.6-2.4-1.6-4c0-1.3,0.3-2.4,0.9-3.2c0.6-0.8,1.4-1.5,2.4-1.9c1.1-0.5,2.3-0.8,3.8-1s3.1-0.3,4.8-0.4v-0.5
		c0-0.7-0.1-1.2-0.4-1.7s-0.6-0.8-1-1s-0.9-0.4-1.5-0.5s-1.2-0.1-1.8-0.1c-0.8,0-1.6,0.1-2.6,0.3c-0.9,0.2-1.9,0.5-2.9,0.9h-0.2v-3
		c0.6-0.2,1.4-0.3,2.5-0.5s2.2-0.3,3.2-0.3c1.2,0,2.3,0.1,3.2,0.3c0.9,0.2,1.7,0.5,2.4,1c0.7,0.5,1.2,1.1,1.5,1.9s0.5,1.7,0.5,2.8
		L443.2,440L443.2,440z M440.3,435.7v-4.9c-0.9,0.1-2,0.1-3.2,0.2s-2.2,0.3-2.9,0.5c-0.8,0.2-1.5,0.6-2,1.1s-0.8,1.2-0.8,2.1
		c0,1,0.3,1.8,0.9,2.3s1.5,0.8,2.8,0.8c1,0,2-0.2,2.8-0.6C438.8,436.7,439.6,436.3,440.3,435.7z"/>
	<path d="M464.3,431.1c0,1.4-0.2,2.7-0.6,3.9s-1,2.2-1.7,3s-1.5,1.4-2.4,1.8s-1.9,0.6-3,0.6c-0.9,0-1.7-0.1-2.5-0.3
		s-1.5-0.5-2.2-0.9v7.3H449v-24h2.9v1.8c0.8-0.7,1.7-1.2,2.6-1.6c1-0.4,2-0.7,3.1-0.7c2.1,0,3.7,0.8,4.9,2.4
		S464.3,428.2,464.3,431.1z M461.2,431.1c0-2.1-0.4-3.7-1.1-4.7s-1.8-1.6-3.3-1.6c-0.8,0-1.7,0.2-2.5,0.5c-0.9,0.4-1.7,0.8-2.5,1.4
		v9.9c0.8,0.4,1.5,0.6,2.1,0.8c0.6,0.1,1.3,0.2,2,0.2c1.6,0,2.9-0.6,3.8-1.7C460.8,434.9,461.2,433.3,461.2,431.1z"/>
	<path d="M484.2,431.1c0,1.4-0.2,2.7-0.6,3.9s-1,2.2-1.7,3s-1.5,1.4-2.4,1.8s-1.9,0.6-3,0.6c-0.9,0-1.7-0.1-2.5-0.3
		s-1.5-0.5-2.2-0.9v7.3h-2.9v-24h2.9v1.8c0.8-0.7,1.7-1.2,2.6-1.6c1-0.4,2-0.7,3.1-0.7c2.1,0,3.7,0.8,4.9,2.4
		S484.2,428.2,484.2,431.1z M481.2,431.1c0-2.1-0.4-3.7-1.1-4.7s-1.8-1.6-3.3-1.6c-0.8,0-1.7,0.2-2.5,0.5c-0.9,0.4-1.7,0.8-2.5,1.4
		v9.9c0.8,0.4,1.5,0.6,2.1,0.8c0.6,0.1,1.3,0.2,2,0.2c1.6,0,2.9-0.6,3.8-1.7C480.7,434.9,481.2,433.3,481.2,431.1z"/>
	<path d="M491.7,440h-2.9v-24.3h2.9V440z"/>
	<path d="M500.7,419.6h-3.3v-3h3.3V419.6z M500.5,440h-2.9v-17.5h2.9V440z"/>
	<path d="M519.2,438.9c-1,0.5-1.9,0.8-2.8,1.1c-0.9,0.3-1.8,0.4-2.8,0.4c-1.3,0-2.4-0.2-3.5-0.6s-2-0.9-2.7-1.7
		c-0.8-0.8-1.3-1.7-1.8-2.8c-0.4-1.1-0.6-2.5-0.6-4c0-2.9,0.8-5.1,2.4-6.7c1.6-1.6,3.6-2.4,6.2-2.4c1,0,2,0.1,2.9,0.4
		c1,0.3,1.8,0.6,2.6,1v3.3h-0.2c-0.9-0.7-1.8-1.2-2.8-1.6s-1.9-0.6-2.8-0.6c-1.7,0-3,0.6-3.9,1.7c-1,1.1-1.4,2.8-1.4,4.9
		s0.5,3.7,1.4,4.9c0.9,1.1,2.3,1.7,4,1.7c0.6,0,1.2-0.1,1.8-0.2c0.6-0.2,1.2-0.4,1.7-0.6c0.4-0.2,0.8-0.5,1.2-0.7s0.7-0.5,0.9-0.6
		h0.2L519.2,438.9L519.2,438.9z"/>
	<path d="M536.6,440h-2.9v-1.9c-0.3,0.2-0.6,0.4-1.1,0.7c-0.4,0.3-0.9,0.6-1.3,0.8c-0.5,0.2-1.1,0.4-1.7,0.6
		c-0.6,0.2-1.4,0.2-2.2,0.2c-1.6,0-2.9-0.5-4-1.6s-1.6-2.4-1.6-4c0-1.3,0.3-2.4,0.9-3.2c0.6-0.8,1.4-1.5,2.4-1.9
		c1.1-0.5,2.3-0.8,3.8-1s3.1-0.3,4.8-0.4v-0.5c0-0.7-0.1-1.2-0.4-1.7s-0.6-0.8-1-1s-0.9-0.4-1.5-0.5s-1.2-0.1-1.8-0.1
		c-0.8,0-1.6,0.1-2.6,0.3c-0.9,0.2-1.9,0.5-2.9,0.9h-0.2v-3c0.6-0.2,1.4-0.3,2.5-0.5s2.2-0.3,3.2-0.3c1.2,0,2.3,0.1,3.2,0.3
		c0.9,0.2,1.7,0.5,2.4,1c0.7,0.5,1.2,1.1,1.5,1.9c0.3,0.8,0.5,1.7,0.5,2.8L536.6,440L536.6,440z M533.6,435.7v-4.9
		c-0.9,0.1-2,0.1-3.2,0.2c-1.2,0.1-2.2,0.3-2.9,0.5c-0.8,0.2-1.5,0.6-2,1.1s-0.8,1.2-0.8,2.1c0,1,0.3,1.8,0.9,2.3s1.5,0.8,2.8,0.8
		c1,0,2-0.2,2.8-0.6C532.1,436.7,532.9,436.3,533.6,435.7z"/>
	<path d="M551.3,439.8c-0.6,0.1-1.2,0.3-1.8,0.4c-0.7,0.1-1.2,0.1-1.7,0.1c-1.8,0-3.1-0.5-4.1-1.4c-0.9-1-1.4-2.5-1.4-4.6V425h-2
		v-2.5h2v-5h2.9v5h6.1v2.5h-6.1v8c0,0.9,0,1.6,0.1,2.1c0,0.5,0.2,1,0.4,1.4c0.2,0.4,0.5,0.7,0.9,0.9c0.4,0.2,1,0.3,1.8,0.3
		c0.5,0,1-0.1,1.5-0.2s0.9-0.3,1.1-0.4h0.2L551.3,439.8L551.3,439.8z"/>
	<path d="M558,419.6h-3.3v-3h3.3V419.6z M557.8,440h-2.9v-17.5h2.9V440z"/>
	<path d="M578.5,431.3c0,2.8-0.7,5.1-2.2,6.7s-3.4,2.5-5.9,2.5s-4.4-0.8-5.9-2.5c-1.5-1.6-2.2-3.9-2.2-6.7s0.7-5.1,2.2-6.7
		c1.5-1.7,3.4-2.5,5.9-2.5c2.4,0,4.4,0.8,5.9,2.5C577.8,426.2,578.5,428.4,578.5,431.3z M575.5,431.3c0-2.3-0.4-3.9-1.3-5
		c-0.9-1.1-2.1-1.6-3.7-1.6c-1.6,0-2.8,0.5-3.7,1.6s-1.3,2.8-1.3,5s0.4,3.8,1.3,5c0.9,1.1,2.1,1.7,3.7,1.7s2.8-0.6,3.7-1.7
		C575,435.1,575.5,433.5,575.5,431.3z"/>
	<path d="M597.6,440h-2.9v-9.9c0-0.8,0-1.6-0.1-2.3s-0.3-1.3-0.5-1.6c-0.3-0.4-0.6-0.8-1.1-1s-1.1-0.3-1.9-0.3
		c-0.8,0-1.6,0.2-2.5,0.6s-1.7,0.9-2.5,1.5v13h-2.9v-17.5h2.9v1.9c0.9-0.8,1.9-1.4,2.8-1.8c1-0.4,2-0.6,3-0.6c1.9,0,3.3,0.6,4.3,1.7
		s1.5,2.8,1.5,4.9L597.6,440L597.6,440z"/>
	<path d="M615.8,435c0,1.6-0.7,2.9-2,3.9c-1.3,1-3.1,1.5-5.4,1.5c-1.3,0-2.5-0.2-3.6-0.5s-2-0.6-2.7-1v-3.3h0.2
		c0.9,0.7,2,1.3,3.1,1.7c1.1,0.4,2.2,0.6,3.3,0.6c1.3,0,2.3-0.2,3-0.6c0.7-0.4,1.1-1.1,1.1-2c0-0.7-0.2-1.2-0.6-1.6
		c-0.4-0.4-1.2-0.7-2.3-0.9c-0.4-0.1-1-0.2-1.6-0.3s-1.3-0.3-1.8-0.4c-1.5-0.4-2.6-1-3.3-1.8c-0.6-0.8-1-1.8-1-2.9
		c0-0.7,0.1-1.4,0.4-2s0.7-1.2,1.4-1.7c0.6-0.5,1.3-0.9,2.2-1.2c0.9-0.3,1.9-0.4,3-0.4c1,0,2.1,0.1,3.2,0.4c1.1,0.3,2,0.6,2.7,0.9
		v3.1h-0.2c-0.8-0.6-1.7-1-2.7-1.4c-1.1-0.4-2.1-0.6-3.2-0.6s-2,0.2-2.7,0.6c-0.7,0.4-1.1,1-1.1,1.8c0,0.7,0.2,1.3,0.7,1.6
		c0.4,0.4,1.1,0.7,2.1,0.9c0.5,0.1,1.1,0.2,1.8,0.4c0.7,0.2,1.2,0.2,1.7,0.3c1.4,0.3,2.4,0.8,3.2,1.6
		C615.4,432.7,615.8,433.7,615.8,435z"/>
</g>
<g class="st3">
	<path d="M356.1-125.4c0,3.2-0.7,6-2.1,8.6s-3.2,4.6-5.5,6c-1.6,1-3.4,1.7-5.3,2.1s-4.5,0.7-7.7,0.7h-8.8v-34.9h8.7
		c3.4,0,6.1,0.2,8.1,0.7s3.7,1.2,5.1,2c2.4,1.5,4.2,3.5,5.6,5.9C355.4-131.7,356.1-128.8,356.1-125.4z M351.2-125.5
		c0-2.7-0.5-5-1.4-6.9c-0.9-1.9-2.4-3.4-4.3-4.4c-1.4-0.8-2.8-1.3-4.4-1.6c-1.5-0.3-3.4-0.5-5.6-0.5h-4.4v26.9h4.4
		c2.2,0,4.2-0.2,5.8-0.5s3.2-0.9,4.6-1.8c1.7-1.1,3-2.6,3.9-4.4S351.2-122.7,351.2-125.5z"/>
	<path d="M385.2-120.6h-19.3c0,1.6,0.2,3,0.7,4.2s1.1,2.2,2,2.9c0.8,0.8,1.8,1.3,2.9,1.7s2.3,0.6,3.7,0.6c1.8,0,3.6-0.4,5.4-1.1
		s3.1-1.4,3.9-2.1h0.2v4.8c-1.5,0.6-3,1.1-4.5,1.6s-3.2,0.6-4.9,0.6c-4.3,0-7.7-1.2-10.2-3.5s-3.7-5.7-3.7-10s1.2-7.7,3.5-10.2
		s5.4-3.8,9.2-3.8c3.5,0,6.3,1,8.2,3.1c1.9,2.1,2.9,5,2.9,8.8L385.2-120.6L385.2-120.6z M380.9-124c0-2.3-0.6-4.1-1.7-5.4
		s-2.9-1.9-5.2-1.9c-2.4,0-4.2,0.7-5.6,2.1c-1.4,1.4-2.2,3.1-2.4,5.2L380.9-124L380.9-124z"/>
	<path d="M413.7-120.6h-19.3c0,1.6,0.2,3,0.7,4.2s1.1,2.2,2,2.9c0.8,0.8,1.8,1.3,2.9,1.7s2.3,0.6,3.7,0.6c1.8,0,3.6-0.4,5.4-1.1
		s3.1-1.4,3.9-2.1h0.2v4.8c-1.5,0.6-3,1.1-4.5,1.6s-3.2,0.6-4.9,0.6c-4.3,0-7.7-1.2-10.2-3.5s-3.7-5.7-3.7-10s1.2-7.7,3.5-10.2
		s5.4-3.8,9.2-3.8c3.5,0,6.3,1,8.2,3.1c1.9,2.1,2.9,5,2.9,8.8L413.7-120.6L413.7-120.6z M409.5-124c0-2.3-0.6-4.1-1.7-5.4
		s-2.9-1.9-5.2-1.9c-2.4,0-4.2,0.7-5.6,2.1c-1.4,1.4-2.2,3.1-2.4,5.2L409.5-124L409.5-124z"/>
	<path d="M443.5-121.4c0,2.1-0.3,4.1-0.9,5.8s-1.5,3.2-2.6,4.5c-1,1.2-2.2,2.1-3.6,2.7s-2.9,0.9-4.4,0.9c-1.4,0-2.6-0.1-3.7-0.4
		s-2.2-0.8-3.4-1.4v11h-4.4v-35.8h4.4v2.7c1.2-1,2.5-1.8,3.9-2.5c1.5-0.7,3-1,4.7-1c3.2,0,5.6,1.2,7.4,3.6
		C442.6-128.9,443.5-125.6,443.5-121.4z M438.9-121.3c0-3.2-0.5-5.5-1.6-7.1c-1.1-1.6-2.7-2.3-5-2.3c-1.3,0-2.5,0.3-3.8,0.8
		s-2.5,1.3-3.7,2.2v14.8c1.2,0.6,2.3,0.9,3.2,1.1s1.9,0.3,3.1,0.3c2.5,0,4.4-0.8,5.7-2.5S438.9-118,438.9-121.3z"/>
	<path d="M479.9-108h-13.8v-3.6h4.6v-27.8h-4.6v-3.6h13.8v3.6h-4.6v27.8h4.6V-108z"/>
	<path d="M509.3-108h-4.4v-14.9c0-1.2-0.1-2.3-0.2-3.4s-0.4-1.9-0.8-2.5c-0.4-0.7-1-1.1-1.7-1.5c-0.7-0.3-1.7-0.5-2.9-0.5
		c-1.2,0-2.5,0.3-3.8,0.9c-1.3,0.6-2.6,1.4-3.8,2.3v19.5h-4.4v-26.2h4.4v2.9c1.4-1.1,2.8-2,4.3-2.7c1.5-0.6,3-1,4.5-1
		c2.8,0,5,0.9,6.5,2.6s2.2,4.2,2.2,7.4v17.1H509.3z"/>
	<path d="M531.4-108.2c-0.8,0.2-1.7,0.4-2.7,0.5s-1.8,0.2-2.6,0.2c-2.7,0-4.7-0.7-6.1-2.2c-1.4-1.5-2.1-3.7-2.1-6.9v-13.9h-3v-3.7h3
		v-7.5h4.4v7.5h9.1v3.7h-9.1v11.9c0,1.4,0,2.4,0.1,3.2s0.3,1.5,0.7,2.2c0.3,0.6,0.8,1.1,1.4,1.4c0.6,0.3,1.5,0.4,2.8,0.4
		c0.7,0,1.5-0.1,2.2-0.3c0.7-0.2,1.3-0.4,1.7-0.5h0.2V-108.2L531.4-108.2z"/>
	<path d="M558.6-120.6h-19.3c0,1.6,0.2,3,0.7,4.2s1.1,2.2,2,2.9c0.8,0.8,1.8,1.3,2.9,1.7c1.1,0.4,2.3,0.6,3.7,0.6
		c1.8,0,3.6-0.4,5.4-1.1s3.1-1.4,3.9-2.1h0.2v4.8c-1.5,0.6-3,1.1-4.5,1.6s-3.2,0.6-4.9,0.6c-4.3,0-7.7-1.2-10.2-3.5s-3.7-5.7-3.7-10
		s1.2-7.7,3.5-10.2c2.3-2.5,5.4-3.8,9.2-3.8c3.5,0,6.3,1,8.2,3.1c1.9,2.1,2.9,5,2.9,8.8L558.6-120.6L558.6-120.6z M554.3-124
		c0-2.3-0.6-4.1-1.7-5.4c-1.1-1.3-2.9-1.9-5.2-1.9c-2.4,0-4.2,0.7-5.6,2.1c-1.4,1.4-2.2,3.1-2.4,5.2L554.3-124L554.3-124z"/>
	<path d="M581.6-129.4h-0.2c-0.7-0.2-1.3-0.3-1.9-0.3c-0.6-0.1-1.3-0.1-2.2-0.1c-1.4,0-2.7,0.3-3.9,0.9c-1.2,0.6-2.5,1.4-3.7,2.3
		v18.6h-4.4v-26.2h4.4v3.9c1.8-1.4,3.3-2.4,4.6-3c1.3-0.6,2.7-0.9,4.1-0.9c0.8,0,1.3,0,1.7,0.1c0.4,0.1,0.9,0.1,1.5,0.2V-129.4
		L581.6-129.4z"/>
	<path d="M605.3-108h-4.4v-2.8c-0.4,0.3-0.9,0.6-1.6,1.1s-1.3,0.9-1.9,1.1c-0.7,0.4-1.6,0.7-2.5,0.9s-2.1,0.4-3.4,0.4
		c-2.4,0-4.4-0.8-6-2.3s-2.5-3.6-2.5-6c0-2,0.4-3.6,1.3-4.8c0.9-1.2,2.1-2.2,3.6-2.9c1.6-0.7,3.5-1.2,5.7-1.4
		c2.2-0.2,4.6-0.4,7.2-0.6v-0.7c0-1-0.2-1.8-0.5-2.5c-0.3-0.7-0.9-1.2-1.5-1.5c-0.6-0.4-1.4-0.6-2.2-0.7c-0.8-0.1-1.8-0.2-2.7-0.2
		c-1.2,0-2.4,0.2-3.9,0.5c-1.4,0.3-2.9,0.7-4.4,1.3h-0.2v-4.5c0.9-0.2,2.1-0.5,3.7-0.8c1.6-0.3,3.2-0.4,4.8-0.4
		c1.8,0,3.4,0.2,4.8,0.5c1.4,0.3,2.6,0.8,3.6,1.6c1,0.7,1.7,1.6,2.2,2.8c0.5,1.2,0.8,2.6,0.8,4.2L605.3-108L605.3-108z M600.9-114.4
		v-7.3c-1.3,0.1-2.9,0.2-4.7,0.4c-1.8,0.2-3.3,0.4-4.3,0.7c-1.3,0.4-2.3,0.9-3.1,1.7c-0.8,0.8-1.2,1.8-1.2,3.1
		c0,1.5,0.5,2.6,1.4,3.4s2.3,1.1,4.1,1.1c1.5,0,3-0.3,4.2-0.9C598.5-112.8,599.8-113.6,600.9-114.4z"/>
	<path d="M633.1-109.6c-1.5,0.7-2.9,1.2-4.2,1.6c-1.3,0.4-2.7,0.6-4.2,0.6c-1.9,0-3.6-0.3-5.2-0.8c-1.6-0.5-2.9-1.4-4.1-2.5
		c-1.1-1.1-2-2.5-2.6-4.3s-0.9-3.7-0.9-6c0-4.3,1.2-7.6,3.5-10.1c2.4-2.4,5.5-3.7,9.3-3.7c1.5,0,3,0.2,4.4,0.6
		c1.4,0.4,2.8,0.9,4,1.5v4.9h-0.2c-1.3-1-2.7-1.9-4.2-2.4s-2.8-0.8-4.2-0.8c-2.5,0-4.5,0.8-5.9,2.5s-2.2,4.1-2.2,7.4
		c0,3.2,0.7,5.6,2.1,7.3c1.4,1.7,3.4,2.5,6,2.5c0.9,0,1.8-0.1,2.7-0.4s1.8-0.5,2.5-0.9c0.6-0.3,1.2-0.7,1.8-1s1-0.7,1.3-0.9h0.2
		L633.1-109.6L633.1-109.6z"/>
	<path d="M652.4-108.2c-0.8,0.2-1.7,0.4-2.7,0.5s-1.8,0.2-2.6,0.2c-2.7,0-4.7-0.7-6.1-2.2c-1.4-1.5-2.1-3.7-2.1-6.9v-13.9h-3v-3.7h3
		v-7.5h4.4v7.5h9.1v3.7h-9.1v11.9c0,1.4,0,2.4,0.1,3.2s0.3,1.5,0.7,2.2c0.3,0.6,0.8,1.1,1.4,1.4c0.6,0.3,1.5,0.4,2.8,0.4
		c0.7,0,1.5-0.1,2.2-0.3c0.7-0.2,1.3-0.4,1.7-0.5h0.2V-108.2L652.4-108.2z"/>
	<path d="M662.4-138.5h-5v-4.6h5V-138.5z M662.1-108h-4.4v-26.2h4.4V-108z"/>
	<path d="M693.2-121.1c0,4.3-1.1,7.6-3.3,10.1c-2.2,2.5-5.1,3.7-8.8,3.7c-3.7,0-6.6-1.2-8.8-3.7c-2.2-2.5-3.3-5.8-3.3-10.1
		s1.1-7.6,3.3-10.1c2.2-2.5,5.1-3.7,8.8-3.7c3.7,0,6.6,1.2,8.8,3.7C692.1-128.7,693.2-125.3,693.2-121.1z M688.6-121.1
		c0-3.4-0.7-5.9-2-7.6c-1.3-1.7-3.2-2.5-5.5-2.5c-2.4,0-4.2,0.8-5.6,2.5c-1.4,1.7-2,4.2-2,7.6c0,3.3,0.7,5.8,2,7.5
		c1.3,1.7,3.2,2.5,5.6,2.5c2.3,0,4.2-0.8,5.5-2.5C687.9-115.3,688.6-117.7,688.6-121.1z"/>
	<path d="M721.9-108h-4.4v-14.9c0-1.2-0.1-2.3-0.2-3.4c-0.1-1.1-0.4-1.9-0.8-2.5c-0.4-0.7-1-1.1-1.7-1.5c-0.7-0.3-1.7-0.5-2.9-0.5
		c-1.2,0-2.5,0.3-3.8,0.9c-1.3,0.6-2.6,1.4-3.8,2.3v19.5h-4.4v-26.2h4.4v2.9c1.4-1.1,2.8-2,4.3-2.7c1.5-0.6,3-1,4.5-1
		c2.8,0,5,0.9,6.5,2.6s2.2,4.2,2.2,7.4L721.9-108L721.9-108z"/>
</g>
<rect x="749.9" y="699.4" class="st4" width="378" height="35.5"/>
<g class="st3">
	<path d="M771.3,723.7H756v-23.3h15.3v2.8h-12.2v6.4h12.2v2.8h-12.2v8.6h12.2V723.7z"/>
	<path d="M791.1,723.7h-3.7l-5-6.7l-5,6.7H774l6.8-8.7l-6.8-8.8h3.7l4.9,6.6l4.9-6.6h3.4l-6.9,8.6L791.1,723.7z"/>
	<path d="M798.1,703.3h-3.3v-3h3.3V703.3z M797.9,723.7H795v-17.5h2.9V723.7z"/>
	<path d="M812.7,723.5c-0.6,0.1-1.2,0.3-1.8,0.4c-0.7,0.1-1.2,0.1-1.7,0.1c-1.8,0-3.1-0.5-4.1-1.4c-0.9-1-1.4-2.5-1.4-4.6v-9.3h-2
		v-2.5h2v-5h2.9v5h6.1v2.5h-6.1v8c0,0.9,0,1.6,0.1,2.1c0,0.5,0.2,1,0.4,1.4c0.2,0.4,0.5,0.7,0.9,0.9s1,0.3,1.8,0.3
		c0.5,0,1-0.1,1.5-0.2s0.9-0.3,1.1-0.4h0.2L812.7,723.5L812.7,723.5z"/>
	<path d="M843,707.5c0,1-0.2,2-0.5,2.9c-0.4,0.9-0.9,1.6-1.5,2.3c-0.8,0.8-1.8,1.4-2.8,1.8s-2.5,0.6-4.1,0.6H831v8.7h-3.1v-23.3h6.3
		c1.4,0,2.6,0.1,3.5,0.4s1.8,0.6,2.6,1.1c0.9,0.6,1.6,1.3,2.1,2.2C842.7,705,843,706.1,843,707.5z M839.8,707.5
		c0-0.8-0.1-1.5-0.4-2.1s-0.7-1.1-1.3-1.5c-0.5-0.3-1.1-0.6-1.7-0.7c-0.6-0.1-1.5-0.2-2.4-0.2h-3.1v9.3h2.6c1.2,0,2.3-0.1,3-0.3
		c0.8-0.2,1.4-0.6,1.9-1.1s0.8-1,1-1.6C839.7,708.8,839.8,708.2,839.8,707.5z"/>
	<path d="M860.9,715c0,2.8-0.7,5.1-2.2,6.7c-1.5,1.6-3.4,2.5-5.9,2.5s-4.4-0.8-5.9-2.5c-1.5-1.6-2.2-3.9-2.2-6.7s0.7-5.1,2.2-6.7
		c1.5-1.7,3.4-2.5,5.9-2.5c2.4,0,4.4,0.8,5.9,2.5C860.2,709.9,860.9,712.1,860.9,715z M857.9,715c0-2.3-0.4-3.9-1.3-5
		s-2.1-1.6-3.7-1.6s-2.8,0.5-3.7,1.6s-1.3,2.8-1.3,5s0.4,3.8,1.3,5c0.9,1.1,2.1,1.7,3.7,1.7c1.6,0,2.8-0.6,3.7-1.7
		C857.5,718.8,857.9,717.2,857.9,715z"/>
	<path d="M868.6,703.3h-3.3v-3h3.3V703.3z M868.4,723.7h-2.9v-17.5h2.9V723.7z"/>
	<path d="M888.9,723.7H886v-9.9c0-0.8,0-1.6-0.1-2.3s-0.3-1.3-0.5-1.6c-0.3-0.4-0.6-0.8-1.1-1s-1.1-0.3-1.9-0.3s-1.6,0.2-2.5,0.6
		s-1.7,0.9-2.5,1.5v13h-3.1v-17.5h2.9v1.9c0.9-0.8,1.9-1.4,2.8-1.8c1-0.4,2-0.6,3-0.6c1.9,0,3.3,0.6,4.3,1.7c1,1.1,1.5,2.8,1.5,4.9
		L888.9,723.7L888.9,723.7z"/>
	<path d="M903.6,723.5c-0.6,0.1-1.2,0.3-1.8,0.4c-0.7,0.1-1.2,0.1-1.7,0.1c-1.8,0-3.1-0.5-4.1-1.4c-0.9-1-1.4-2.5-1.4-4.6v-9.3h-2
		v-2.5h2v-5h2.9v5h6.1v2.5h-6.1v8c0,0.9,0,1.6,0.1,2.1c0,0.5,0.2,1,0.4,1.4c0.2,0.4,0.5,0.7,0.9,0.9s1,0.3,1.8,0.3
		c0.5,0,1-0.1,1.5-0.2c0.5-0.1,0.9-0.3,1.1-0.4h0.2L903.6,723.5L903.6,723.5z"/>
	<path d="M921.7,715.3h-12.9c0,1.1,0.2,2,0.5,2.8c0.3,0.8,0.8,1.5,1.3,2s1.2,0.9,1.9,1.1c0.7,0.2,1.6,0.4,2.5,0.4
		c1.2,0,2.4-0.2,3.6-0.7c1.2-0.5,2.1-0.9,2.6-1.4h0.2v3.2c-1,0.4-2,0.8-3,1s-2.1,0.4-3.2,0.4c-2.9,0-5.2-0.8-6.8-2.4
		c-1.6-1.6-2.4-3.8-2.4-6.7s0.8-5.1,2.3-6.8c1.6-1.7,3.6-2.5,6.1-2.5c2.4,0,4.2,0.7,5.4,2.1c1.3,1.4,1.9,3.3,1.9,5.9L921.7,715.3
		L921.7,715.3z M918.9,713c0-1.5-0.4-2.7-1.2-3.6c-0.8-0.9-1.9-1.3-3.5-1.3s-2.8,0.5-3.8,1.4c-0.9,0.9-1.5,2.1-1.6,3.5L918.9,713
		L918.9,713z"/>
	<path d="M937.1,709.4h-0.2c-0.4-0.1-0.9-0.2-1.3-0.2s-0.9-0.1-1.5-0.1c-0.9,0-1.8,0.2-2.6,0.6c-0.8,0.4-1.7,0.9-2.4,1.6v12.4h-2.9
		v-17.5h2.9v2.6c1.2-0.9,2.2-1.6,3.1-2c0.9-0.4,1.8-0.6,2.7-0.6c0.5,0,0.9,0,1.1,0s0.6,0.1,1,0.1L937.1,709.4L937.1,709.4z"/>
	<path d="M959.5,723.7h-9.2v-2.4h3v-18.5h-3v-2.4h9.2v2.4h-3v18.5h3V723.7z"/>
	<path d="M979.1,723.7h-2.9v-9.9c0-0.8,0-1.6-0.1-2.3s-0.3-1.3-0.5-1.6c-0.3-0.4-0.6-0.8-1.1-1s-1.1-0.3-1.9-0.3
		c-0.8,0-1.6,0.2-2.5,0.6s-1.7,0.9-2.5,1.5v13h-2.9v-17.5h2.9v1.9c0.9-0.8,1.9-1.4,2.8-1.8c1-0.4,2-0.6,3-0.6c1.9,0,3.3,0.6,4.3,1.7
		c1,1.1,1.5,2.8,1.5,4.9L979.1,723.7L979.1,723.7z"/>
	<path d="M993.9,723.5c-0.6,0.1-1.2,0.3-1.8,0.4c-0.7,0.1-1.2,0.1-1.7,0.1c-1.8,0-3.1-0.5-4.1-1.4c-0.9-1-1.4-2.5-1.4-4.6v-9.3h-2
		v-2.5h2v-5h2.9v5h6.1v2.5h-6.1v8c0,0.9,0,1.6,0.1,2.1c0,0.5,0.2,1,0.4,1.4c0.2,0.4,0.5,0.7,0.9,0.9s1,0.3,1.8,0.3
		c0.5,0,1-0.1,1.5-0.2c0.5-0.1,0.9-0.3,1.1-0.4h0.2L993.9,723.5L993.9,723.5z"/>
	<path d="M1012,715.3h-12.9c0,1.1,0.2,2,0.5,2.8c0.3,0.8,0.8,1.5,1.3,2s1.2,0.9,1.9,1.1c0.7,0.2,1.6,0.4,2.5,0.4
		c1.2,0,2.4-0.2,3.6-0.7s2.1-0.9,2.6-1.4h0.2v3.2c-1,0.4-2,0.8-3,1s-2.1,0.4-3.2,0.4c-2.9,0-5.2-0.8-6.8-2.4
		c-1.6-1.6-2.4-3.8-2.4-6.7s0.8-5.1,2.3-6.8c1.6-1.7,3.6-2.5,6.1-2.5c2.4,0,4.2,0.7,5.4,2.1c1.3,1.4,1.9,3.3,1.9,5.9V715.3
		L1012,715.3z M1009.2,713c0-1.5-0.4-2.7-1.2-3.6c-0.8-0.9-1.9-1.3-3.5-1.3s-2.8,0.5-3.8,1.4c-0.9,0.9-1.5,2.1-1.6,3.5L1009.2,713
		L1009.2,713z"/>
	<path d="M1027.4,709.4h-0.2c-0.4-0.1-0.9-0.2-1.3-0.2s-0.9-0.1-1.5-0.1c-0.9,0-1.8,0.2-2.6,0.6s-1.7,0.9-2.4,1.6v12.4h-2.9v-17.5
		h2.9v2.6c1.2-0.9,2.2-1.6,3.1-2s1.8-0.6,2.7-0.6c0.5,0,0.9,0,1.1,0s0.6,0.1,1,0.1v3.1H1027.4z"/>
	<path d="M1043.1,723.7h-2.9v-1.9c-0.3,0.2-0.6,0.4-1.1,0.7c-0.4,0.3-0.9,0.6-1.3,0.8c-0.5,0.2-1.1,0.4-1.7,0.6
		c-0.6,0.2-1.4,0.2-2.2,0.2c-1.6,0-2.9-0.5-4-1.6s-1.6-2.4-1.6-4c0-1.3,0.3-2.4,0.9-3.2s1.4-1.5,2.4-1.9c1.1-0.5,2.3-0.8,3.8-1
		s3.1-0.3,4.8-0.4v-0.5c0-0.7-0.1-1.2-0.4-1.7s-0.6-0.8-1-1s-0.9-0.4-1.5-0.5s-1.2-0.1-1.8-0.1c-0.8,0-1.6,0.1-2.6,0.3
		c-0.9,0.2-1.9,0.5-2.9,0.9h-0.2v-3c0.6-0.2,1.4-0.3,2.5-0.5s2.2-0.3,3.2-0.3c1.2,0,2.3,0.1,3.2,0.3c0.9,0.2,1.7,0.5,2.4,1
		c0.7,0.5,1.2,1.1,1.5,1.9c0.3,0.8,0.5,1.7,0.5,2.8L1043.1,723.7L1043.1,723.7z M1040.2,719.4v-4.9c-0.9,0.1-2,0.1-3.2,0.2
		c-1.2,0.1-2.2,0.3-2.9,0.5c-0.8,0.2-1.5,0.6-2,1.1s-0.8,1.2-0.8,2.1c0,1,0.3,1.8,0.9,2.3s1.5,0.8,2.8,0.8c1,0,2-0.2,2.8-0.6
		C1038.7,720.4,1039.5,720,1040.2,719.4z"/>
	<path d="M1061.7,722.6c-1,0.5-1.9,0.8-2.8,1.1s-1.8,0.4-2.8,0.4c-1.3,0-2.4-0.2-3.5-0.6c-1.1-0.4-2-0.9-2.7-1.7
		c-0.8-0.8-1.3-1.7-1.8-2.8c-0.4-1.1-0.6-2.5-0.6-4c0-2.9,0.8-5.1,2.4-6.7c1.6-1.6,3.6-2.4,6.2-2.4c1,0,2,0.1,2.9,0.4
		c1,0.3,1.8,0.6,2.6,1v3.3h-0.2c-0.9-0.7-1.8-1.2-2.8-1.6c-1-0.4-1.9-0.6-2.8-0.6c-1.7,0-3,0.6-3.9,1.7c-1,1.1-1.4,2.8-1.4,4.9
		c0,2.1,0.5,3.7,1.4,4.9c0.9,1.1,2.3,1.7,4,1.7c0.6,0,1.2-0.1,1.8-0.2c0.6-0.2,1.2-0.4,1.7-0.6c0.4-0.2,0.8-0.5,1.2-0.7
		c0.4-0.2,0.7-0.5,0.9-0.6h0.2L1061.7,722.6L1061.7,722.6z"/>
	<path d="M1074.5,723.5c-0.6,0.1-1.2,0.3-1.8,0.4c-0.7,0.1-1.2,0.1-1.7,0.1c-1.8,0-3.1-0.5-4.1-1.4c-0.9-1-1.4-2.5-1.4-4.6v-9.3h-2
		v-2.5h2v-5h2.9v5h6.1v2.5h-6.1v8c0,0.9,0,1.6,0.1,2.1c0,0.5,0.2,1,0.4,1.4c0.2,0.4,0.5,0.7,0.9,0.9s1,0.3,1.8,0.3
		c0.5,0,1-0.1,1.5-0.2c0.5-0.1,0.9-0.3,1.1-0.4h0.2L1074.5,723.5L1074.5,723.5z"/>
	<path d="M1081.2,703.3h-3.3v-3h3.3V703.3z M1081,723.7h-2.9v-17.5h2.9V723.7z"/>
	<path d="M1101.7,715c0,2.8-0.7,5.1-2.2,6.7c-1.5,1.6-3.4,2.5-5.9,2.5s-4.4-0.8-5.9-2.5c-1.5-1.6-2.2-3.9-2.2-6.7s0.7-5.1,2.2-6.7
		c1.5-1.7,3.4-2.5,5.9-2.5c2.4,0,4.4,0.8,5.9,2.5C1101,709.9,1101.7,712.1,1101.7,715z M1098.7,715c0-2.3-0.4-3.9-1.3-5
		s-2.1-1.6-3.7-1.6s-2.8,0.5-3.7,1.6c-0.9,1.1-1.3,2.8-1.3,5s0.4,3.8,1.3,5c0.9,1.1,2.1,1.7,3.7,1.7s2.8-0.6,3.7-1.7
		C1098.2,718.8,1098.7,717.2,1098.7,715z"/>
	<path d="M1120.9,723.7h-2.9v-9.9c0-0.8,0-1.6-0.1-2.3s-0.3-1.3-0.5-1.6c-0.3-0.4-0.6-0.8-1.1-1s-1.1-0.3-1.9-0.3s-1.6,0.2-2.5,0.6
		s-1.7,0.9-2.5,1.5v13h-2.9v-17.5h2.9v1.9c0.9-0.8,1.9-1.4,2.8-1.8c1-0.4,2-0.6,3-0.6c1.9,0,3.3,0.6,4.3,1.7c1,1.1,1.5,2.8,1.5,4.9
		L1120.9,723.7L1120.9,723.7z"/>
</g>
<polygon class="st5" points="1107.9,-48.1 1107.9,75.2 1146.6,36.6 1199.2,36.6 "/>
<g>
	<polygon class="st6" points="933.4,190.6 935.4,166 943.5,157.6 966.5,157.5 966.7,177.6 959.3,190.6 	"/>
	<polygon class="st7" points="968.7,156.4 996.4,157 1004.8,166.7 1005.8,255 996.1,273.4 980.1,282.4 953.8,281 938.4,269.4 
		933.1,253.7 932.1,193 958.5,193.3 960.4,182.7 968.3,178.3 	"/>
	<path class="st8" d="M932.9,176.9c0-15.5,8-21,20-21s20.2-0.1,31.2-0.1c14.2,0,21.8,5.1,21.8,20.1s0.1,28.7,0.1,73.7
		s-73.1,45.5-73.1,1.3C932.9,216.4,932.9,176.9,932.9,176.9z"/>
	<line class="st8" x1="968.4" y1="179.7" x2="968.4" y2="156"/>
	<line class="st8" x1="1005.4" y1="192.4" x2="977.4" y2="192.4"/>
	<line class="st8" x1="960.8" y1="192.4" x2="932.8" y2="192.4"/>
	<path class="st8" d="M976.4,212.4c0,4.2-3.6,7.7-8,7.7l0,0c-4.4,0-8-3.4-8-7.7v-25c0-4.2,3.6-7.7,8-7.7l0,0c4.4,0,8,3.4,8,7.7
		V212.4z"/>
</g>
<g>
	<polygon class="st6" points="1004.1,360.1 1003.1,335.5 993.9,327.1 970.9,327 970.8,347.1 978.2,360.1 	"/>
	<polygon class="st7" points="969.2,327.1 941.4,327.8 933.1,337.5 932.1,425.8 941.8,444.1 957.8,453.1 984.1,451.8 999.4,440.1 
		1004.8,424.5 1005.8,363.8 979.3,364 977.4,353.5 969.5,349 	"/>
	<path class="st8" d="M932.9,346.9c0-15.5,8-21,20-21s20.2-0.1,31.2-0.1c14.2,0,21.8,5.1,21.8,20.1s0.1,28.7,0.1,73.7
		s-73.1,45.5-73.1,1.3C932.9,386.4,932.9,346.9,932.9,346.9z"/>
	<line class="st8" x1="968.4" y1="349.7" x2="968.4" y2="326"/>
	<line class="st8" x1="1005.4" y1="362.4" x2="977.4" y2="362.4"/>
	<line class="st8" x1="960.8" y1="362.4" x2="932.8" y2="362.4"/>
	<path class="st8" d="M976.4,382.4c0,4.2-3.6,7.7-8,7.7l0,0c-4.4,0-8-3.4-8-7.7v-25c0-4.2,3.6-7.7,8-7.7l0,0c4.4,0,8,3.4,8,7.7
		V382.4z"/>
</g>
<g>
	<path class="st9" d="M932.9,521.9c0-15.5,8-21,20-21s20.2-0.1,31.2-0.1c14.2,0,21.8,5.1,21.8,20.1c0,15,0.1,28.7,0.1,73.7
		s-73.1,45.5-73.1,1.3C932.9,561.4,932.9,521.9,932.9,521.9z"/>
	<line class="st8" x1="968.4" y1="524.7" x2="968.4" y2="501"/>
	<line class="st8" x1="1005.4" y1="537.4" x2="977.4" y2="537.4"/>
	<line class="st8" x1="960.8" y1="537.4" x2="932.8" y2="537.4"/>
	<path class="st10" d="M976.4,557.4c0,4.2-3.6,7.7-8,7.7l0,0c-4.4,0-8-3.4-8-7.7v-25c0-4.2,3.6-7.7,8-7.7l0,0c4.4,0,8,3.4,8,7.7
		V557.4z"/>
</g>
<polygon class="st11" points="968.2,473.9 988.8,493.8 976.2,493.8 976.2,517.9 960.1,517.9 960.1,493.9 947.6,493.9 "/>
<polygon class="st11" points="968.2,616.9 947.6,597 960.2,597 960.2,572.9 976.3,572.9 976.3,596.9 988.8,596.9 "/>
<rect x="1024.9" y="353.9" class="st4" width="267" height="69"/>
<g class="st3">
	<path d="M1080.2,371.6c0,0.9-0.2,1.8-0.6,2.7c-0.4,0.9-1,1.6-1.8,2.2c-0.8,0.7-1.8,1.2-2.9,1.6s-2.4,0.6-4,0.6
		c-1.7,0-3.2-0.2-4.5-0.5s-2.7-0.8-4.1-1.4v-3.9h0.2c1.2,1,2.5,1.7,4.1,2.3c1.5,0.5,3,0.8,4.3,0.8c1.9,0,3.4-0.4,4.5-1.1
		s1.6-1.7,1.6-2.9c0-1-0.3-1.8-0.8-2.3s-1.3-0.9-2.3-1.1c-0.8-0.2-1.6-0.4-2.5-0.5s-1.9-0.3-2.9-0.5c-2.1-0.4-3.6-1.2-4.6-2.2
		s-1.5-2.4-1.5-4.1c0-1.9,0.8-3.5,2.5-4.8c1.6-1.2,3.7-1.9,6.3-1.9c1.6,0,3.1,0.2,4.5,0.5s2.6,0.7,3.6,1.2v3.7h-0.2
		c-0.9-0.8-2.1-1.4-3.5-1.9s-2.9-0.7-4.4-0.7c-1.7,0-3,0.3-4,1s-1.5,1.6-1.5,2.7c0,1,0.2,1.7,0.8,2.3c0.5,0.6,1.4,1,2.6,1.3
		c0.7,0.1,1.6,0.3,2.8,0.5c1.2,0.2,2.3,0.4,3.1,0.6c1.7,0.5,3,1.2,3.9,2.1C1079.7,368.6,1080.2,369.9,1080.2,371.6z"/>
	<path d="M1099.5,378.2h-2.9v-9.9c0-0.8,0-1.6-0.1-2.3s-0.3-1.3-0.5-1.6c-0.3-0.4-0.6-0.8-1.1-1s-1.1-0.3-1.9-0.3s-1.6,0.2-2.5,0.6
		s-1.7,0.9-2.5,1.5v13h-2.9v-24.3h2.9v8.8c0.9-0.8,1.9-1.4,2.8-1.8c1-0.4,2-0.6,3-0.6c1.9,0,3.3,0.6,4.3,1.7s1.5,2.8,1.5,4.9
		L1099.5,378.2L1099.5,378.2z"/>
	<path d="M1120,369.5c0,2.8-0.7,5.1-2.2,6.7s-3.4,2.5-5.9,2.5s-4.4-0.8-5.9-2.5c-1.5-1.6-2.2-3.9-2.2-6.7s0.7-5.1,2.2-6.7
		c1.5-1.7,3.4-2.5,5.9-2.5c2.4,0,4.4,0.8,5.9,2.5S1120,366.6,1120,369.5z M1117,369.5c0-2.3-0.4-3.9-1.3-5s-2.1-1.6-3.7-1.6
		s-2.8,0.5-3.7,1.6c-0.9,1.1-1.3,2.8-1.3,5s0.4,3.8,1.3,5c0.9,1.1,2.1,1.7,3.7,1.7s2.8-0.6,3.7-1.7
		C1116.5,373.3,1117,371.7,1117,369.5z"/>
	<path d="M1146.5,360.7l-4.5,17.5h-2.7l-4.5-13.5l-4.5,13.5h-2.7l-4.6-17.5h3.1l3.2,13.5l4.4-13.5h2.4l4.5,13.5l3-13.5H1146.5z"/>
	<path d="M1172.5,353.9l-11.2,29.1h-2.7l11.2-29.1H1172.5z"/>
	<path d="M1205.8,378.2h-3.1v-11.4h-11.6v11.4h-3.1v-23.3h3.1v9.1h11.6v-9.1h3.1V378.2z"/>
	<path d="M1215,357.8h-3.3v-3h3.3V357.8z M1214.8,378.2h-2.9v-17.5h2.9V378.2z"/>
	<path d="M1234.8,378.2h-2.9v-1.8c-0.8,0.7-1.7,1.3-2.6,1.7s-1.9,0.6-3,0.6c-2.1,0-3.7-0.8-5-2.4c-1.2-1.6-1.8-3.8-1.8-6.7
		c0-1.5,0.2-2.8,0.6-4s1-2.1,1.7-3c0.7-0.8,1.5-1.4,2.5-1.8c0.9-0.4,1.9-0.6,2.9-0.6c0.9,0,1.7,0.1,2.4,0.3c0.7,0.2,1.5,0.5,2.2,0.9
		v-7.6h2.9L1234.8,378.2L1234.8,378.2z M1231.8,373.9v-10c-0.8-0.4-1.5-0.6-2.1-0.7s-1.3-0.2-2-0.2c-1.6,0-2.9,0.6-3.8,1.7
		s-1.4,2.8-1.4,4.9s0.4,3.6,1.1,4.7s1.8,1.6,3.4,1.6c0.8,0,1.7-0.2,2.5-0.6C1230.3,375,1231.1,374.5,1231.8,373.9z"/>
	<path d="M1255.2,369.8h-12.9c0,1.1,0.2,2,0.5,2.8s0.8,1.5,1.3,2s1.2,0.9,1.9,1.1c0.7,0.2,1.6,0.4,2.5,0.4c1.2,0,2.4-0.2,3.6-0.7
		s2.1-0.9,2.6-1.4h0.2v3.2c-1,0.4-2,0.8-3,1s-2.1,0.4-3.2,0.4c-2.9,0-5.2-0.8-6.8-2.4c-1.6-1.6-2.4-3.8-2.4-6.7
		c0-2.9,0.8-5.1,2.3-6.8c1.6-1.7,3.6-2.5,6.1-2.5c2.4,0,4.2,0.7,5.4,2.1c1.3,1.4,1.9,3.3,1.9,5.9V369.8L1255.2,369.8z M1252.3,367.5
		c0-1.5-0.4-2.7-1.2-3.6c-0.8-0.8-1.9-1.3-3.5-1.3s-2.8,0.5-3.8,1.4c-0.9,0.9-1.5,2.1-1.6,3.5H1252.3z"/>
</g>
<g class="st3">
	<path d="M1124.3,393.3l-6,23.3h-3.5l-4.9-19.3l-4.8,19.3h-3.4l-6.2-23.3h3.2l4.9,19.3l4.8-19.3h3.1l4.9,19.5l4.9-19.5H1124.3z"/>
	<path d="M1131.8,396.2h-3.3v-3h3.3V396.2z M1131.6,416.6h-2.9v-17.5h2.9V416.6z"/>
	<path d="M1151.6,416.6h-2.9v-1.8c-0.8,0.7-1.7,1.3-2.6,1.7s-1.9,0.6-3,0.6c-2.1,0-3.7-0.8-5-2.4s-1.8-3.8-1.8-6.7
		c0-1.5,0.2-2.8,0.6-4s1-2.1,1.7-3c0.7-0.8,1.5-1.4,2.5-1.8c0.9-0.4,1.9-0.6,2.9-0.6c0.9,0,1.7,0.1,2.4,0.3c0.7,0.2,1.5,0.5,2.2,0.9
		v-7.6h2.9L1151.6,416.6L1151.6,416.6z M1148.6,412.3v-10c-0.8-0.4-1.5-0.6-2.1-0.7s-1.3-0.2-2-0.2c-1.6,0-2.9,0.6-3.8,1.7
		s-1.4,2.8-1.4,4.9s0.4,3.6,1.1,4.7s1.8,1.6,3.4,1.6c0.8,0,1.7-0.2,2.5-0.6C1147.1,413.4,1147.9,412.9,1148.6,412.3z"/>
	<path d="M1171.5,414.6c0,3-0.7,5.1-2,6.5s-3.4,2.1-6.2,2.1c-0.9,0-1.8-0.1-2.7-0.2c-0.9-0.1-1.7-0.3-2.6-0.6v-3h0.2
		c0.5,0.2,1.2,0.4,2.3,0.7c1,0.3,2.1,0.4,3.1,0.4s1.8-0.1,2.5-0.4c0.7-0.2,1.2-0.6,1.5-1c0.4-0.4,0.6-0.9,0.8-1.5s0.2-1.2,0.2-1.9
		v-1.6c-0.9,0.7-1.7,1.2-2.5,1.6c-0.8,0.3-1.8,0.5-3.1,0.5c-2.1,0-3.7-0.8-5-2.3c-1.2-1.5-1.8-3.6-1.8-6.4c0-1.5,0.2-2.8,0.6-3.9
		s1-2,1.7-2.8c0.7-0.7,1.5-1.3,2.5-1.7c1-0.4,1.9-0.6,2.9-0.6s1.9,0.1,2.5,0.3c0.7,0.2,1.4,0.5,2.2,0.9l0.2-0.8h2.8L1171.5,414.6
		L1171.5,414.6z M1168.6,411.8v-9.5c-0.8-0.4-1.5-0.6-2.2-0.8c-0.7-0.2-1.3-0.2-2-0.2c-1.6,0-2.9,0.5-3.8,1.6s-1.4,2.7-1.4,4.7
		s0.3,3.4,1,4.5c0.7,1,1.8,1.5,3.4,1.5c0.9,0,1.7-0.2,2.6-0.5S1167.9,412.3,1168.6,411.8z"/>
	<path d="M1191.9,408.2H1179c0,1.1,0.2,2,0.5,2.8s0.8,1.5,1.3,2s1.2,0.9,1.9,1.1s1.6,0.4,2.5,0.4c1.2,0,2.4-0.2,3.6-0.7
		s2.1-0.9,2.6-1.4h0.2v3.2c-1,0.4-2,0.8-3,1s-2.1,0.4-3.2,0.4c-2.9,0-5.2-0.8-6.8-2.4c-1.6-1.6-2.4-3.8-2.4-6.7
		c0-2.9,0.8-5.1,2.3-6.8c1.6-1.7,3.6-2.5,6.1-2.5c2.4,0,4.2,0.7,5.4,2.1c1.3,1.4,1.9,3.3,1.9,5.9V408.2L1191.9,408.2z M1189,405.9
		c0-1.5-0.4-2.7-1.2-3.6s-1.9-1.3-3.5-1.3s-2.8,0.5-3.8,1.4c-0.9,0.9-1.5,2.1-1.6,3.5H1189z"/>
	<path d="M1205.4,416.4c-0.6,0.1-1.2,0.3-1.8,0.4c-0.7,0.1-1.2,0.1-1.7,0.1c-1.8,0-3.1-0.5-4.1-1.4c-0.9-1-1.4-2.5-1.4-4.6v-9.3h-2
		v-2.5h2v-5h2.9v5h6.1v2.5h-6.1v8c0,0.9,0,1.6,0.1,2.1c0,0.5,0.2,1,0.4,1.4c0.2,0.4,0.5,0.7,0.9,0.9c0.4,0.2,1,0.3,1.8,0.3
		c0.5,0,1-0.1,1.5-0.2s0.9-0.3,1.1-0.4h0.2L1205.4,416.4L1205.4,416.4z"/>
	<path d="M1221.4,411.6c0,1.6-0.7,2.9-2,3.9s-3.1,1.5-5.4,1.5c-1.3,0-2.5-0.2-3.6-0.5s-2-0.6-2.7-1v-3.3h0.2c0.9,0.7,2,1.3,3.1,1.7
		c1.1,0.4,2.2,0.6,3.3,0.6c1.3,0,2.3-0.2,3-0.6s1.1-1.1,1.1-2c0-0.7-0.2-1.2-0.6-1.6s-1.2-0.7-2.3-0.9c-0.4-0.1-1-0.2-1.6-0.3
		s-1.3-0.3-1.8-0.4c-1.5-0.4-2.6-1-3.3-1.8c-0.6-0.8-1-1.8-1-2.9c0-0.7,0.1-1.4,0.4-2s0.7-1.2,1.4-1.7c0.6-0.5,1.3-0.9,2.2-1.2
		c0.9-0.3,1.9-0.4,3-0.4c1,0,2.1,0.1,3.2,0.4s2,0.6,2.7,0.9v3.1h-0.2c-0.8-0.6-1.7-1-2.7-1.4c-1.1-0.4-2.1-0.6-3.2-0.6
		s-2,0.2-2.7,0.6s-1.1,1-1.1,1.8c0,0.7,0.2,1.3,0.7,1.6c0.4,0.4,1.1,0.7,2.1,0.9c0.5,0.1,1.1,0.2,1.8,0.4s1.2,0.2,1.7,0.3
		c1.4,0.3,2.4,0.8,3.2,1.6C1221.1,409.3,1221.4,410.3,1221.4,411.6z"/>
</g>
<rect x="1024.9" y="184.9" class="st4" width="267" height="69"/>
<g class="st3">
	<path d="M1070.2,209.2h-3.1v-20l-6.5,13.6h-1.8l-6.4-13.6v20h-2.9v-23.3h4.2l6.2,13l6-13h4.3L1070.2,209.2L1070.2,209.2z"/>
	<path d="M1091.1,200.5c0,2.8-0.7,5.1-2.2,6.7c-1.5,1.6-3.4,2.5-5.9,2.5s-4.4-0.8-5.9-2.5c-1.5-1.6-2.2-3.9-2.2-6.7s0.7-5.1,2.2-6.7
		c1.5-1.6,3.4-2.5,5.9-2.5c2.4,0,4.4,0.8,5.9,2.5C1090.4,195.4,1091.1,197.6,1091.1,200.5z M1088.1,200.5c0-2.3-0.4-3.9-1.3-5
		s-2.1-1.6-3.7-1.6s-2.8,0.5-3.7,1.6c-0.9,1.1-1.3,2.8-1.3,5s0.4,3.8,1.3,5c0.9,1.1,2.1,1.7,3.7,1.7s2.8-0.6,3.7-1.7
		C1087.7,204.3,1088.1,202.7,1088.1,200.5z"/>
	<path d="M1110.5,191.7l-7.1,17.5h-3l-7-17.5h3.2l5.4,13.9l5.4-13.9H1110.5z"/>
	<path d="M1128.7,200.8h-12.9c0,1.1,0.2,2,0.5,2.8s0.8,1.5,1.3,2s1.2,0.9,1.9,1.1c0.7,0.2,1.6,0.4,2.5,0.4c1.2,0,2.4-0.2,3.6-0.7
		s2.1-0.9,2.6-1.4h0.2v3.2c-1,0.4-2,0.8-3,1s-2.1,0.4-3.2,0.4c-2.9,0-5.2-0.8-6.8-2.4c-1.6-1.6-2.4-3.8-2.4-6.7s0.8-5.1,2.3-6.8
		c1.6-1.7,3.6-2.5,6.1-2.5c2.4,0,4.2,0.7,5.4,2.1c1.3,1.4,1.9,3.3,1.9,5.9V200.8L1128.7,200.8z M1125.8,198.5c0-1.5-0.4-2.7-1.2-3.6
		c-0.8-0.8-1.9-1.3-3.5-1.3s-2.8,0.5-3.8,1.4c-0.9,0.9-1.5,2.1-1.6,3.5L1125.8,198.5L1125.8,198.5z"/>
	<path d="M1155,184.9l-11.2,29.1h-2.7l11.2-29.1H1155z"/>
	<path d="M1189.7,209.2h-4l-7.8-9.2h-4.4v9.2h-3.1v-23.3h6.5c1.4,0,2.6,0.1,3.5,0.3s1.8,0.5,2.5,1c0.8,0.5,1.5,1.2,2,2
		s0.7,1.8,0.7,3.1c0,1.7-0.4,3.1-1.3,4.2c-0.8,1.1-2,2-3.5,2.6L1189.7,209.2z M1182.4,192.5c0-0.7-0.1-1.3-0.4-1.8
		c-0.2-0.5-0.6-1-1.2-1.3c-0.4-0.3-1-0.5-1.6-0.6s-1.3-0.2-2.2-0.2h-3.6v8.8h3.1c1,0,1.8-0.1,2.6-0.3s1.3-0.5,1.9-1
		c0.5-0.4,0.8-0.9,1-1.5C1182.3,194.1,1182.4,193.3,1182.4,192.5z"/>
	<path d="M1206.3,200.8h-12.9c0,1.1,0.2,2,0.5,2.8s0.8,1.5,1.3,2s1.2,0.9,1.9,1.1c0.7,0.2,1.6,0.4,2.5,0.4c1.2,0,2.4-0.2,3.6-0.7
		s2.1-0.9,2.6-1.4h0.2v3.2c-1,0.4-2,0.8-3,1s-2.1,0.4-3.2,0.4c-2.9,0-5.2-0.8-6.8-2.4c-1.6-1.6-2.4-3.8-2.4-6.7s0.8-5.1,2.3-6.8
		c1.6-1.7,3.6-2.5,6.1-2.5c2.4,0,4.2,0.7,5.4,2.1c1.3,1.4,1.9,3.3,1.9,5.9V200.8L1206.3,200.8z M1203.4,198.5c0-1.5-0.4-2.7-1.2-3.6
		c-0.8-0.8-1.9-1.3-3.5-1.3s-2.8,0.5-3.8,1.4c-0.9,0.9-1.5,2.1-1.6,3.5L1203.4,198.5L1203.4,198.5z"/>
	<path d="M1223.2,204.2c0,1.6-0.7,2.9-2,3.9s-3.1,1.5-5.4,1.5c-1.3,0-2.5-0.2-3.6-0.5s-2-0.6-2.7-1v-3.3h0.2c0.9,0.7,2,1.3,3.1,1.7
		s2.2,0.6,3.3,0.6c1.3,0,2.3-0.2,3-0.6c0.7-0.4,1.1-1.1,1.1-2c0-0.7-0.2-1.2-0.6-1.6s-1.2-0.7-2.3-0.9c-0.4-0.1-1-0.2-1.6-0.3
		c-0.7-0.1-1.3-0.3-1.8-0.4c-1.5-0.4-2.6-1-3.3-1.8c-0.6-0.8-1-1.8-1-2.9c0-0.7,0.1-1.4,0.4-2s0.7-1.2,1.4-1.7
		c0.6-0.5,1.3-0.9,2.2-1.2c0.9-0.3,1.9-0.4,3-0.4c1,0,2.1,0.1,3.2,0.4c1.1,0.3,2,0.6,2.7,0.9v3.1h-0.2c-0.8-0.6-1.7-1-2.7-1.4
		c-1.1-0.4-2.1-0.6-3.2-0.6s-2,0.2-2.7,0.6c-0.7,0.4-1.1,1-1.1,1.8c0,0.7,0.2,1.3,0.7,1.6c0.4,0.4,1.1,0.7,2.1,0.9
		c0.5,0.1,1.1,0.2,1.8,0.4c0.7,0.1,1.2,0.2,1.7,0.3c1.4,0.3,2.4,0.9,3.2,1.6C1222.8,201.9,1223.2,202.9,1223.2,204.2z"/>
	<path d="M1230.5,188.8h-3.3v-3h3.3V188.8z M1230.4,209.2h-2.9v-17.5h2.9V209.2z"/>
	<path d="M1248.8,209.2h-14.1V207l10.2-12.8h-10v-2.5h13.6v2.1l-10.2,12.9h10.5V209.2L1248.8,209.2z"/>
	<path d="M1267.4,200.8h-12.9c0,1.1,0.2,2,0.5,2.8s0.8,1.5,1.3,2s1.2,0.9,1.9,1.1c0.7,0.2,1.6,0.4,2.5,0.4c1.2,0,2.4-0.2,3.6-0.7
		s2.1-0.9,2.6-1.4h0.2v3.2c-1,0.4-2,0.8-3,1s-2.1,0.4-3.2,0.4c-2.9,0-5.2-0.8-6.8-2.4c-1.6-1.6-2.4-3.8-2.4-6.7s0.8-5.1,2.3-6.8
		c1.6-1.7,3.6-2.5,6.1-2.5c2.4,0,4.2,0.7,5.4,2.1c1.3,1.4,1.9,3.3,1.9,5.9V200.8L1267.4,200.8z M1264.5,198.5c0-1.5-0.4-2.7-1.2-3.6
		c-0.8-0.8-1.9-1.3-3.5-1.3s-2.8,0.5-3.8,1.4c-0.9,0.9-1.5,2.1-1.6,3.5L1264.5,198.5L1264.5,198.5z"/>
</g>
<g class="st3">
	<path d="M1117.2,224.3l-6,23.3h-3.5l-4.9-19.3l-4.8,19.3h-3.4l-6.2-23.3h3.2l4.9,19.3l4.8-19.3h3.1l4.9,19.5l4.9-19.5H1117.2z"/>
	<path d="M1124.7,227.2h-3.3v-3h3.3V227.2z M1124.5,247.6h-2.9v-17.5h2.9V247.6z"/>
	<path d="M1144.9,247.6h-2.9v-9.9c0-0.8,0-1.6-0.1-2.3s-0.3-1.3-0.5-1.6c-0.3-0.4-0.6-0.8-1.1-1s-1.1-0.3-1.9-0.3s-1.6,0.2-2.5,0.6
		s-1.7,0.9-2.5,1.5v13h-2.9v-17.5h2.9v1.9c0.9-0.8,1.9-1.4,2.8-1.8c1-0.4,2-0.6,3-0.6c1.9,0,3.3,0.6,4.3,1.7c1,1.1,1.5,2.8,1.5,4.9
		L1144.9,247.6L1144.9,247.6z"/>
	<path d="M1164.7,247.6h-2.9v-1.8c-0.8,0.7-1.7,1.3-2.6,1.7s-1.9,0.6-3,0.6c-2.1,0-3.7-0.8-5-2.4s-1.8-3.8-1.8-6.7
		c0-1.5,0.2-2.8,0.6-4s1-2.1,1.7-3c0.7-0.8,1.5-1.4,2.5-1.8c0.9-0.4,1.9-0.6,2.9-0.6c0.9,0,1.7,0.1,2.4,0.3c0.7,0.2,1.5,0.5,2.2,0.9
		v-7.6h2.9L1164.7,247.6L1164.7,247.6z M1161.8,243.3v-10c-0.8-0.4-1.5-0.6-2.1-0.7s-1.3-0.2-2-0.2c-1.6,0-2.9,0.6-3.8,1.7
		s-1.4,2.8-1.4,4.9c0,2.1,0.4,3.6,1.1,4.7c0.7,1.1,1.8,1.6,3.4,1.6c0.8,0,1.7-0.2,2.5-0.6C1160.2,244.4,1161,243.9,1161.8,243.3z"/>
	<path d="M1185.4,238.9c0,2.8-0.7,5.1-2.2,6.7c-1.5,1.6-3.4,2.5-5.9,2.5s-4.4-0.8-5.9-2.5c-1.5-1.6-2.2-3.9-2.2-6.7s0.7-5.1,2.2-6.7
		c1.5-1.6,3.4-2.5,5.9-2.5c2.4,0,4.4,0.8,5.9,2.5S1185.4,236,1185.4,238.9z M1182.3,238.9c0-2.3-0.4-3.9-1.3-5s-2.1-1.6-3.7-1.6
		s-2.8,0.5-3.7,1.6c-0.9,1.1-1.3,2.8-1.3,5s0.4,3.8,1.3,5c0.9,1.1,2.1,1.7,3.7,1.7s2.8-0.6,3.7-1.7
		C1181.9,242.7,1182.3,241.1,1182.3,238.9z"/>
	<path d="M1211.9,230.1l-4.5,17.5h-2.7l-4.5-13.5l-4.5,13.5h-2.7l-4.6-17.5h3.1l3.2,13.5l4.4-13.5h2.4l4.5,13.5l3-13.5H1211.9z"/>
	<path d="M1228.6,242.6c0,1.6-0.7,2.9-2,3.9s-3.1,1.5-5.4,1.5c-1.3,0-2.5-0.2-3.6-0.5s-2-0.6-2.7-1v-3.3h0.2c0.9,0.7,2,1.3,3.1,1.7
		s2.2,0.6,3.3,0.6c1.3,0,2.3-0.2,3-0.6c0.7-0.4,1.1-1.1,1.1-2c0-0.7-0.2-1.2-0.6-1.6s-1.2-0.7-2.3-0.9c-0.4-0.1-1-0.2-1.6-0.3
		s-1.3-0.3-1.8-0.4c-1.5-0.4-2.6-1-3.3-1.8c-0.6-0.8-1-1.8-1-2.9c0-0.7,0.1-1.4,0.4-2s0.7-1.2,1.4-1.7c0.6-0.5,1.3-0.9,2.2-1.2
		c0.9-0.3,1.9-0.4,3-0.4c1,0,2.1,0.1,3.2,0.4c1.1,0.3,2,0.6,2.7,0.9v3.1h-0.2c-0.8-0.6-1.7-1-2.7-1.4c-1.1-0.4-2.1-0.6-3.2-0.6
		s-2,0.2-2.7,0.6c-0.7,0.4-1.1,1-1.1,1.8c0,0.7,0.2,1.3,0.7,1.6c0.4,0.4,1.1,0.7,2.1,0.9c0.5,0.1,1.1,0.2,1.8,0.4s1.2,0.2,1.7,0.3
		c1.4,0.3,2.4,0.9,3.2,1.6C1228.2,240.3,1228.6,241.3,1228.6,242.6z"/>
</g>
<g class="st3">
	<path d="M961.9-99.4c-0.9,0.2-1.9,0.4-2.8,0.5s-1.8,0.2-2.8,0.2c-2.7,0-4.9-0.7-6.6-2.2c-1.6-1.5-2.5-3.6-2.7-6.4
		c-0.4,0.1-0.7,0.1-1.1,0.1c-0.4,0-0.7,0-1,0c-2.5,0-4.7-0.4-6.7-1.2s-3.7-2-5.1-3.5c-1.4-1.5-2.5-3.4-3.2-5.7
		c-0.7-2.3-1.1-4.8-1.1-7.7c0-2.8,0.4-5.4,1.1-7.7c0.7-2.3,1.8-4.2,3.3-5.8c1.4-1.5,3.1-2.7,5.1-3.5s4.3-1.2,6.7-1.2
		c2.5,0,4.7,0.4,6.7,1.2s3.7,2,5.1,3.5c1.4,1.6,2.5,3.5,3.3,5.7c0.8,2.2,1.1,4.8,1.1,7.7c0,4.3-0.9,7.9-2.6,10.8s-4.1,5-7,6.1
		c0.1,1.8,0.5,3.2,1.3,4.1c0.8,1,2.2,1.5,4.3,1.5c0.6,0,1.4-0.1,2.3-0.3c0.9-0.2,1.5-0.4,1.9-0.5h0.6L961.9-99.4L961.9-99.4z
		 M956.4-125.4c0-4.5-1-8-3-10.5s-4.8-3.7-8.3-3.7s-6.3,1.2-8.4,3.7c-2.1,2.5-3,6-3,10.5c0,4.6,1,8.1,3.1,10.5s4.8,3.6,8.3,3.6
		s6.2-1.2,8.3-3.6S956.4-120.8,956.4-125.4z"/>
	<path d="M989.9-108h-4.4v-2.9c-1.5,1.2-2.9,2.1-4.3,2.7c-1.4,0.6-2.9,0.9-4.5,0.9c-2.8,0-4.9-0.8-6.4-2.5s-2.3-4.1-2.3-7.4v-17h4.4
		v14.9c0,1.3,0.1,2.5,0.2,3.4c0.1,0.9,0.4,1.8,0.8,2.4c0.4,0.7,1,1.2,1.6,1.5s1.6,0.5,2.9,0.5c1.1,0,2.4-0.3,3.7-0.9
		c1.4-0.6,2.6-1.4,3.8-2.3v-19.5h4.4L989.9-108L989.9-108z"/>
	<path d="M1003.3-138.5h-5v-4.6h5V-138.5z M1003.1-108h-4.4v-26.2h4.4V-108z"/>
	<path d="M1031.1-109.6c-1.5,0.7-2.9,1.2-4.2,1.6s-2.7,0.6-4.2,0.6c-1.9,0-3.6-0.3-5.2-0.8s-2.9-1.4-4.1-2.5c-1.1-1.1-2-2.5-2.6-4.3
		s-0.9-3.7-0.9-6c0-4.3,1.2-7.6,3.5-10.1c2.4-2.4,5.5-3.7,9.3-3.7c1.5,0,3,0.2,4.4,0.6c1.4,0.4,2.8,0.9,4,1.5v4.9h-0.2
		c-1.3-1-2.7-1.9-4.2-2.4c-1.4-0.6-2.8-0.8-4.2-0.8c-2.5,0-4.5,0.8-5.9,2.5s-2.2,4.1-2.2,7.4c0,3.2,0.7,5.6,2.1,7.3s3.4,2.5,6,2.5
		c0.9,0,1.8-0.1,2.7-0.4s1.8-0.5,2.5-0.9c0.6-0.3,1.2-0.7,1.8-1s1-0.7,1.3-0.9h0.2L1031.1-109.6L1031.1-109.6z"/>
	<path d="M1060.6-108h-5.8l-10.5-11.5l-2.9,2.7v8.7h-4.4v-36.5h4.4v23.4l12.7-13.1h5.6l-12.2,12.1L1060.6-108z"/>
	<path d="M1094.7-108h-13.8v-3.6h4.6v-27.8h-4.6v-3.6h13.8v3.6h-4.6v27.8h4.6V-108z"/>
	<path d="M1124.2-108h-4.4v-14.9c0-1.2-0.1-2.3-0.2-3.4s-0.4-1.9-0.8-2.5c-0.4-0.7-1-1.1-1.7-1.5c-0.7-0.3-1.7-0.5-2.9-0.5
		c-1.2,0-2.5,0.3-3.8,0.9c-1.3,0.6-2.6,1.4-3.8,2.3v19.5h-4.4v-26.2h4.4v2.9c1.4-1.1,2.8-2,4.3-2.7c1.5-0.6,3-1,4.5-1
		c2.8,0,5,0.9,6.5,2.6s2.2,4.2,2.2,7.4L1124.2-108L1124.2-108z"/>
	<path d="M1146.2-108.2c-0.8,0.2-1.7,0.4-2.7,0.5s-1.8,0.2-2.6,0.2c-2.7,0-4.7-0.7-6.1-2.2s-2.1-3.7-2.1-6.9v-13.9h-3v-3.7h3v-7.5
		h4.4v7.5h9.1v3.7h-9.1v11.9c0,1.4,0,2.4,0.1,3.2s0.3,1.5,0.7,2.2c0.3,0.6,0.8,1.1,1.4,1.4s1.5,0.4,2.8,0.4c0.7,0,1.5-0.1,2.2-0.3
		s1.3-0.4,1.7-0.5h0.2V-108.2z"/>
	<path d="M1173.5-120.6h-19.3c0,1.6,0.2,3,0.7,4.2s1.1,2.2,2,2.9c0.8,0.8,1.8,1.3,2.9,1.7c1.1,0.4,2.3,0.6,3.7,0.6
		c1.8,0,3.6-0.4,5.4-1.1s3.1-1.4,3.9-2.1h0.2v4.8c-1.5,0.6-3,1.1-4.5,1.6s-3.2,0.6-4.9,0.6c-4.3,0-7.7-1.2-10.2-3.5s-3.7-5.7-3.7-10
		s1.2-7.7,3.5-10.2s5.4-3.8,9.2-3.8c3.5,0,6.3,1,8.2,3.1c1.9,2.1,2.9,5,2.9,8.8L1173.5-120.6L1173.5-120.6z M1169.2-124
		c0-2.3-0.6-4.1-1.7-5.4s-2.9-1.9-5.2-1.9c-2.4,0-4.2,0.7-5.6,2.1c-1.4,1.4-2.2,3.1-2.4,5.2L1169.2-124L1169.2-124z"/>
	<path d="M1196.5-129.4h-0.2c-0.7-0.2-1.3-0.3-1.9-0.3c-0.6-0.1-1.3-0.1-2.2-0.1c-1.4,0-2.7,0.3-3.9,0.9c-1.2,0.6-2.5,1.4-3.7,2.3
		v18.6h-4.4v-26.2h4.4v3.9c1.8-1.4,3.3-2.4,4.6-3c1.3-0.6,2.7-0.9,4.1-0.9c0.8,0,1.3,0,1.7,0.1c0.4,0.1,0.9,0.1,1.5,0.2V-129.4
		L1196.5-129.4z"/>
	<path d="M1220.1-108h-4.4v-2.8c-0.4,0.3-0.9,0.6-1.6,1.1s-1.3,0.9-1.9,1.1c-0.7,0.4-1.6,0.7-2.5,0.9s-2.1,0.4-3.4,0.4
		c-2.4,0-4.4-0.8-6-2.3c-1.6-1.6-2.5-3.6-2.5-6c0-2,0.4-3.6,1.3-4.8c0.9-1.2,2.1-2.2,3.6-2.9c1.6-0.7,3.5-1.2,5.7-1.4
		c2.2-0.2,4.6-0.4,7.2-0.6v-0.7c0-1-0.2-1.8-0.5-2.5c-0.4-0.7-0.9-1.2-1.5-1.5c-0.6-0.4-1.4-0.6-2.2-0.7c-0.8-0.1-1.8-0.2-2.7-0.2
		c-1.2,0-2.4,0.2-3.9,0.5c-1.4,0.3-2.9,0.7-4.4,1.3h-0.2v-4.5c0.9-0.2,2.1-0.5,3.7-0.8s3.2-0.4,4.8-0.4c1.8,0,3.4,0.2,4.8,0.5
		s2.6,0.8,3.6,1.6c1,0.7,1.7,1.6,2.2,2.8c0.5,1.2,0.8,2.6,0.8,4.2V-108z M1215.8-114.4v-7.3c-1.3,0.1-2.9,0.2-4.7,0.4
		c-1.8,0.2-3.3,0.4-4.3,0.7c-1.3,0.4-2.3,0.9-3.1,1.7s-1.2,1.8-1.2,3.1c0,1.5,0.5,2.6,1.4,3.4s2.3,1.1,4.1,1.1c1.5,0,3-0.3,4.2-0.9
		S1214.7-113.6,1215.8-114.4z"/>
	<path d="M1248-109.6c-1.5,0.7-2.9,1.2-4.2,1.6c-1.3,0.4-2.7,0.6-4.2,0.6c-1.9,0-3.6-0.3-5.2-0.8c-1.6-0.6-2.9-1.4-4.1-2.5
		c-1.1-1.1-2-2.5-2.6-4.3s-0.9-3.7-0.9-6c0-4.3,1.2-7.6,3.5-10.1c2.4-2.4,5.5-3.7,9.3-3.7c1.5,0,3,0.2,4.4,0.6
		c1.4,0.4,2.8,0.9,4,1.5v4.9h-0.2c-1.3-1-2.7-1.9-4.2-2.4c-1.4-0.6-2.8-0.8-4.2-0.8c-2.5,0-4.5,0.8-5.9,2.5s-2.2,4.1-2.2,7.4
		c0,3.2,0.7,5.6,2.1,7.3c1.4,1.7,3.4,2.5,6,2.5c0.9,0,1.8-0.1,2.7-0.4c0.9-0.2,1.8-0.5,2.5-0.9c0.6-0.3,1.2-0.7,1.8-1s1-0.7,1.3-0.9
		h0.2L1248-109.6L1248-109.6z"/>
	<path d="M1267.2-108.2c-0.8,0.2-1.7,0.4-2.7,0.5s-1.8,0.2-2.6,0.2c-2.7,0-4.7-0.7-6.1-2.2c-1.4-1.4-2.1-3.7-2.1-6.9v-13.9h-3v-3.7
		h3v-7.5h4.4v7.5h9.1v3.7h-9.1v11.9c0,1.4,0,2.4,0.1,3.2s0.3,1.5,0.7,2.2c0.3,0.6,0.8,1.1,1.4,1.4s1.5,0.4,2.8,0.4
		c0.7,0,1.5-0.1,2.2-0.3s1.3-0.4,1.7-0.5h0.2V-108.2z"/>
	<path d="M1277.3-138.5h-5v-4.6h5V-138.5z M1277-108h-4.4v-26.2h4.4V-108z"/>
	<path d="M1308-121.1c0,4.3-1.1,7.6-3.3,10.1s-5.1,3.7-8.8,3.7c-3.7,0-6.6-1.2-8.8-3.7c-2.2-2.5-3.3-5.8-3.3-10.1s1.1-7.6,3.3-10.1
		c2.2-2.5,5.1-3.7,8.8-3.7c3.7,0,6.6,1.2,8.8,3.7S1308-125.3,1308-121.1z M1303.5-121.1c0-3.4-0.7-5.9-2-7.6
		c-1.3-1.7-3.2-2.5-5.5-2.5c-2.4,0-4.2,0.8-5.6,2.5c-1.3,1.6-2,4.2-2,7.6c0,3.3,0.7,5.8,2,7.5s3.2,2.5,5.6,2.5
		c2.3,0,4.2-0.8,5.5-2.5C1302.8-115.2,1303.5-117.7,1303.5-121.1z"/>
	<path d="M1336.7-108h-4.4v-14.9c0-1.2-0.1-2.3-0.2-3.4s-0.4-1.9-0.8-2.5c-0.4-0.7-1-1.1-1.7-1.5c-0.7-0.3-1.7-0.5-2.9-0.5
		c-1.2,0-2.5,0.3-3.8,0.9c-1.3,0.6-2.6,1.4-3.8,2.3v19.5h-4.4v-26.2h4.4v2.9c1.4-1.1,2.8-2,4.3-2.7c1.5-0.6,3-1,4.5-1
		c2.8,0,5,0.9,6.5,2.6s2.2,4.2,2.2,7.4L1336.7-108L1336.7-108z"/>
</g>
<rect x="1024.9" y="545.9" class="st4" width="267" height="35.5"/>
<g class="st3">
	<path d="M1052.4,570.2h-4l-7.8-9.2h-4.4v9.2h-3.1v-23.3h6.5c1.4,0,2.6,0.1,3.5,0.3s1.8,0.5,2.5,1c0.8,0.5,1.5,1.2,2,2
		s0.7,1.8,0.7,3.1c0,1.7-0.4,3.1-1.3,4.2c-0.8,1.1-2,2-3.5,2.6L1052.4,570.2z M1045.2,553.5c0-0.7-0.1-1.3-0.4-1.8
		c-0.2-0.5-0.6-1-1.2-1.3c-0.4-0.3-1-0.5-1.6-0.6s-1.3-0.2-2.2-0.2h-3.6v8.8h3.1c1,0,1.8-0.1,2.6-0.3s1.3-0.5,1.9-1
		c0.5-0.4,0.8-0.9,1-1.5C1045.1,555.1,1045.2,554.3,1045.2,553.5z"/>
	<path d="M1069,561.8h-12.9c0,1.1,0.2,2,0.5,2.8s0.8,1.5,1.3,2s1.2,0.9,1.9,1.1c0.7,0.2,1.6,0.4,2.5,0.4c1.2,0,2.4-0.2,3.6-0.7
		s2.1-0.9,2.6-1.4h0.2v3.2c-1,0.4-2,0.8-3,1s-2.1,0.4-3.2,0.4c-2.9,0-5.2-0.8-6.8-2.4c-1.6-1.6-2.4-3.8-2.4-6.7s0.8-5.1,2.3-6.8
		c1.6-1.7,3.6-2.5,6.1-2.5c2.4,0,4.2,0.7,5.4,2.1c1.3,1.4,1.9,3.3,1.9,5.9V561.8L1069,561.8z M1066.1,559.5c0-1.5-0.4-2.7-1.2-3.6
		c-0.8-0.8-1.9-1.3-3.5-1.3s-2.8,0.5-3.8,1.4c-0.9,0.9-1.5,2.1-1.6,3.5L1066.1,559.5L1066.1,559.5z"/>
	<path d="M1085.9,565.2c0,1.6-0.7,2.9-2,3.9s-3.1,1.5-5.4,1.5c-1.3,0-2.5-0.2-3.6-0.5s-2-0.6-2.7-1v-3.3h0.2c0.9,0.7,2,1.3,3.1,1.7
		s2.2,0.6,3.3,0.6c1.3,0,2.3-0.2,3-0.6c0.7-0.4,1.1-1.1,1.1-2c0-0.7-0.2-1.2-0.6-1.6s-1.2-0.7-2.3-0.9c-0.4-0.1-1-0.2-1.6-0.3
		s-1.3-0.3-1.8-0.4c-1.5-0.4-2.6-1-3.3-1.8c-0.6-0.8-1-1.8-1-2.9c0-0.7,0.1-1.4,0.4-2s0.7-1.2,1.4-1.7c0.6-0.5,1.3-0.9,2.2-1.2
		c0.9-0.3,1.9-0.4,3-0.4c1,0,2.1,0.1,3.2,0.4c1.1,0.3,2,0.6,2.7,0.9v3.1h-0.2c-0.8-0.6-1.7-1-2.7-1.4c-1.1-0.4-2.1-0.6-3.2-0.6
		s-2,0.2-2.7,0.6c-0.7,0.4-1.1,1-1.1,1.8c0,0.7,0.2,1.3,0.7,1.6c0.4,0.4,1.1,0.7,2.1,0.9c0.5,0.1,1.1,0.2,1.8,0.4s1.2,0.2,1.7,0.3
		c1.4,0.3,2.4,0.8,3.2,1.6C1085.6,562.9,1085.9,563.9,1085.9,565.2z"/>
	<path d="M1093.3,549.8h-3.3v-3h3.3V549.8z M1093.1,570.2h-2.9v-17.5h2.9V570.2z"/>
	<path d="M1111.6,570.2h-14.1V568l10.2-12.8h-10v-2.5h13.6v2.1l-10.2,12.9h10.5V570.2L1111.6,570.2z"/>
	<path d="M1130.1,561.8h-12.8c0,1.1,0.2,2,0.5,2.8s0.8,1.5,1.3,2s1.2,0.9,1.9,1.1c0.7,0.2,1.6,0.4,2.5,0.4c1.2,0,2.4-0.2,3.6-0.7
		s2.1-0.9,2.6-1.4h0.2v3.2c-1,0.4-2,0.8-3,1s-2.1,0.4-3.2,0.4c-2.9,0-5.2-0.8-6.8-2.4c-1.6-1.6-2.4-3.8-2.4-6.7s0.8-5.1,2.3-6.8
		c1.6-1.7,3.6-2.5,6.1-2.5c2.4,0,4.2,0.7,5.4,2.1c1.3,1.4,1.9,3.3,1.9,5.9L1130.1,561.8L1130.1,561.8z M1127.3,559.5
		c0-1.5-0.4-2.7-1.2-3.6c-0.8-0.8-1.9-1.3-3.5-1.3s-2.8,0.5-3.8,1.4c-0.9,0.9-1.5,2.1-1.6,3.5L1127.3,559.5L1127.3,559.5z"/>
	<path d="M1173.2,546.9l-6,23.3h-3.5l-4.9-19.3l-4.8,19.3h-3.4l-6.2-23.3h3.2l4.9,19.3l4.8-19.3h3.1l4.9,19.5l4.9-19.5H1173.2z"/>
	<path d="M1180.6,549.8h-3.3v-3h3.3V549.8z M1180.5,570.2h-2.9v-17.5h2.9V570.2z"/>
	<path d="M1200.9,570.2h-2.9v-9.9c0-0.8,0-1.6-0.1-2.3s-0.3-1.3-0.5-1.6c-0.3-0.4-0.6-0.8-1.1-1s-1.1-0.3-1.9-0.3s-1.6,0.2-2.5,0.6
		s-1.7,0.9-2.5,1.5v13h-2.9v-17.5h2.9v1.9c0.9-0.8,1.9-1.4,2.8-1.8c1-0.4,2-0.6,3-0.6c1.9,0,3.3,0.6,4.3,1.7c1,1.1,1.5,2.8,1.5,4.9
		L1200.9,570.2L1200.9,570.2z"/>
	<path d="M1220.7,570.2h-2.9v-1.8c-0.8,0.7-1.7,1.3-2.6,1.7s-1.9,0.6-3,0.6c-2.1,0-3.7-0.8-5-2.4c-1.2-1.6-1.8-3.8-1.8-6.7
		c0-1.5,0.2-2.8,0.6-4s1-2.1,1.7-3c0.7-0.8,1.5-1.4,2.5-1.8c0.9-0.4,1.9-0.6,2.9-0.6c0.9,0,1.7,0.1,2.4,0.3c0.7,0.2,1.5,0.5,2.2,0.9
		v-7.6h2.9L1220.7,570.2L1220.7,570.2z M1217.7,565.9v-10c-0.8-0.4-1.5-0.6-2.1-0.7s-1.3-0.2-2-0.2c-1.6,0-2.9,0.6-3.8,1.7
		s-1.4,2.8-1.4,4.9c0,2.1,0.4,3.6,1.1,4.7c0.7,1.1,1.8,1.6,3.4,1.6c0.8,0,1.7-0.2,2.5-0.6C1216.2,567,1217,566.5,1217.7,565.9z"/>
	<path d="M1241.3,561.5c0,2.8-0.7,5.1-2.2,6.7c-1.5,1.6-3.4,2.5-5.9,2.5s-4.4-0.8-5.9-2.5c-1.5-1.6-2.2-3.9-2.2-6.7s0.7-5.1,2.2-6.7
		c1.5-1.7,3.4-2.5,5.9-2.5c2.4,0,4.4,0.8,5.9,2.5C1240.6,556.4,1241.3,558.6,1241.3,561.5z M1238.3,561.5c0-2.3-0.4-3.9-1.3-5
		s-2.1-1.6-3.7-1.6s-2.8,0.5-3.7,1.6c-0.9,1.1-1.3,2.8-1.3,5s0.4,3.8,1.3,5c0.9,1.1,2.1,1.7,3.7,1.7s2.8-0.6,3.7-1.7
		C1237.9,565.3,1238.3,563.7,1238.3,561.5z"/>
	<path d="M1267.8,552.7l-4.5,17.5h-2.7l-4.5-13.5l-4.5,13.5h-2.7l-4.6-17.5h3.1l3.2,13.5l4.4-13.5h2.4l4.5,13.5l3-13.5H1267.8z"/>
	<path d="M1284.5,565.2c0,1.6-0.7,2.9-2,3.9s-3.1,1.5-5.4,1.5c-1.3,0-2.5-0.2-3.6-0.5s-2-0.6-2.7-1v-3.3h0.2c0.9,0.7,2,1.3,3.1,1.7
		s2.2,0.6,3.3,0.6c1.3,0,2.3-0.2,3-0.6c0.7-0.4,1.1-1.1,1.1-2c0-0.7-0.2-1.2-0.6-1.6s-1.2-0.7-2.3-0.9c-0.4-0.1-1-0.2-1.6-0.3
		c-0.7-0.1-1.3-0.3-1.8-0.4c-1.5-0.4-2.6-1-3.3-1.8c-0.6-0.8-1-1.8-1-2.9c0-0.7,0.1-1.4,0.4-2s0.7-1.2,1.4-1.7
		c0.6-0.5,1.3-0.9,2.2-1.2c0.9-0.3,1.9-0.4,3-0.4c1,0,2.1,0.1,3.2,0.4c1.1,0.3,2,0.6,2.7,0.9v3.1h-0.2c-0.8-0.6-1.7-1-2.7-1.4
		c-1.1-0.4-2.1-0.6-3.2-0.6s-2,0.2-2.7,0.6c-0.7,0.4-1.1,1-1.1,1.8c0,0.7,0.2,1.3,0.7,1.6c0.4,0.4,1.1,0.7,2.1,0.9
		c0.5,0.1,1.1,0.2,1.8,0.4c0.7,0.1,1.2,0.2,1.7,0.3c1.4,0.3,2.4,0.8,3.2,1.6C1284.2,562.9,1284.5,563.9,1284.5,565.2z"/>
</g>
<circle class="st12" cx="1377.9" cy="374.9" r="75"/>
<circle class="st13" cx="1377.9" cy="374.9" r="17"/>
<circle class="st14" cx="1347.9" cy="333.9" r="13"/>
<circle class="st14" cx="1407.9" cy="333.9" r="13"/>
<circle class="st14" cx="1407.9" cy="416.9" r="13"/>
<line class="st13" x1="1401.6" y1="343.2" x2="1389.1" y2="360.4"/>
<line class="st13" x1="1354.4" y1="343.4" x2="1367.1" y2="360.5"/>
<line class="st13" x1="1401.1" y1="408" x2="1388.1" y2="389.4"/>
<polygon class="st5" points="498.4,-48.1 498.4,75.2 537,36.6 589.7,36.6 "/>
<g>
	<g>
		<polygon class="st7" points="1125.5,-53.2 1114.3,-64.4 1114.3,-58.5 1102.4,-58.5 1102.4,-70.4 1108.3,-70.4 1096.9,-81.8 
			1085.6,-70.4 1091.7,-70.4 1091.7,-58.5 1079.9,-58.5 1079.9,-64.7 1068.3,-53.2 1079.6,-41.9 1079.6,-48.1 1091.5,-48.1 
			1091.5,-36.2 1085.3,-36.2 1096.9,-24.6 1108.6,-36.2 1102.4,-36.2 1102.4,-48.1 1114.3,-48.1 1114.3,-41.9 		"/>
	</g>
	<g>
		<polygon class="st15" points="1125.5,-53.2 1114.3,-64.4 1114.3,-58.5 1102.4,-58.5 1102.4,-70.4 1108.3,-70.4 1096.9,-81.8 
			1085.6,-70.4 1091.7,-70.4 1091.7,-58.5 1079.9,-58.5 1079.9,-64.7 1068.3,-53.2 1079.6,-41.9 1079.6,-48.1 1091.5,-48.1 
			1091.5,-36.2 1085.3,-36.2 1096.9,-24.6 1108.6,-36.2 1102.4,-36.2 1102.4,-48.1 1114.3,-48.1 1114.3,-41.9 		"/>
	</g>
</g>
</svg>
