<svg id="Layer_1" data-name="Layer 1" xmlns="http://www.w3.org/2000/svg" viewBox="0 0 924.48 1001.76"><defs><style>.cls-1{fill:#fdfdfd;}.cls-2{fill:#035b7f;}.cls-3{fill:#147295;}</style></defs><title>ears</title><path class="cls-1" d="M925,488v514.08H.48Q.48,501.24.48.36H925q0,218.88,0,437.76a2.33,2.33,0,0,1-1.81-2.68,5.54,5.54,0,0,0-.13-1.17,58,58,0,0,1-.24-11.7,21.52,21.52,0,0,0-.92-7.31,18.17,18.17,0,0,1-.88-7.79,10.68,10.68,0,0,0-.23-3.81c-.5-2.18-1-4.35-1.48-6.54a8,8,0,0,1-.4-3.07,13.47,13.47,0,0,0-.39-5c-.61-3.12-1.83-6.13-1.49-9.41a5.83,5.83,0,0,0-.58-2.3c-.79-2.42-1.72-4.82-1.47-7.46a4.9,4.9,0,0,0-.87-3.43,6.54,6.54,0,0,1-1.09-4.56,7.52,7.52,0,0,0-1.26-5,3.44,3.44,0,0,1-.67-2,23.5,23.5,0,0,0-.78-4.72,306.58,306.58,0,0,0-9.9-34,462.87,462.87,0,0,0-98.45-166C789,136,775,123.18,760.84,110.47a5.92,5.92,0,0,0-1.14-.88c-3.07-1.61-5.26-4.37-8.12-6.26a12.2,12.2,0,0,1-1.7-1.68c-.34-.34-.63-.82-1-1-2.74-.93-4.32-3.47-6.77-4.81-1-.53-1.44-1.7-2.49-2.21a32.38,32.38,0,0,1-5.45-3.78A25.63,25.63,0,0,0,730,86.74c-4.18-2-7.62-5.17-11.42-7.75s-7.56-4.75-11.19-7.34A61.08,61.08,0,0,0,701,67.86c-3-1.65-5.84-3.6-8.81-5.32a33.87,33.87,0,0,0-3.92-2.06,24,24,0,0,1-5.19-2.94,3.84,3.84,0,0,0-1.4-.89c-2.43-.39-4-2.54-6.43-3a2.2,2.2,0,0,1-.81-.5c-2.87-2.19-6.21-3.54-9.43-5.05-3.46-1.62-7.16-2.72-10.33-5a1.63,1.63,0,0,0-.84-.41c-2.79.14-4.82-1.85-7.2-2.76-2.16-.83-4.78-1.28-6.43-3.35-.35-.44-1.06-.31-1.61-.29a3.24,3.24,0,0,1-2.8-1,1.61,1.61,0,0,0-1.28-.52,6,6,0,0,1-3.34-1.21c-1.94-1.39-4.72-.89-6.41-2.86-.15-.18-.61-.12-.93-.13-2.45-.1-4.3-2.26-6.86-2-.17,0-.39-.26-.56-.43a4.15,4.15,0,0,0-3.69-1.28,2.45,2.45,0,0,1-2.36-.88,3.44,3.44,0,0,0-3.25-1.1,2.42,2.42,0,0,1-2.26-.5,4.19,4.19,0,0,0-4.09-1.41,2.6,2.6,0,0,1-1.59-.45A18.25,18.25,0,0,0,593,20.61a1.79,1.79,0,0,1-.71-.1c-1.75-1.14-3.85-1.18-5.72-1.81-3.1-1-6.28-1.66-9.4-2.49-6.31-1.68-12.69-3.11-19.1-4.37-5.8-1.14-11.63-2.14-17.41-3.38a47.27,47.27,0,0,0-10.68-1.3,8.5,8.5,0,0,1-2.57-.34c-3.58-1-7.18-2-11-1.6a15.73,15.73,0,0,1-9.23-1.64,3.13,3.13,0,0,0-1.84-.37c-6.47.66-12.95-.17-19.42,0-1.27-.88-3.12-.65-4.11-2.12-.08-.13-.45-.09-.69-.08-3.73.1-7.46-.24-11.19.18a84.14,84.14,0,0,0-11-.07c-3.73,0-7.47,0-11.2-.16-2.05-.1-3.78,1-5.75,1.13-.29,0-.54.53-.81.81a103.8,103.8,0,0,1-13.18.4,34.16,34.16,0,0,0-11.34,1.15,19.35,19.35,0,0,1-7.59.83,19.24,19.24,0,0,0-8.94,1.14,13.3,13.3,0,0,1-6.84.72,7.74,7.74,0,0,0-3.55.31c-1.53.46-3.1.78-4.65,1.14-7,1.62-14.17,2.47-21.18,4.06-12.19,2.78-24.3,5.83-36.19,9.75-2.2.72-4.47,1.17-6.66,1.93s-4.37,1.13-6.35,2.28a1.26,1.26,0,0,1-.68.22c-1.42-.13-2.47.56-3.7,1.18-2.07,1-4.46,1.37-6.64,2.38-1.29.6-3,.38-4,1.7-2.53,0-4.46,1.78-6.77,2.24s-4.11,2.8-6.8,2.37c-.23,0-.56.51-.83.81a2.09,2.09,0,0,1-1.65.83,3.16,3.16,0,0,0-1.79.63c-2.95,1.86-6.57,2.33-9.38,4.5a4,4,0,0,1-1.57.56c-1.46.32-3,.43-4,1.85a2.51,2.51,0,0,1-1.51.65c-2,.37-3.37,2-5.38,2.23a.93.93,0,0,0-.61.35,2.84,2.84,0,0,1-2.43,1.24,2.58,2.58,0,0,0-1.83,1,1.85,1.85,0,0,1-1.62.84,2.55,2.55,0,0,0-1.73.75,13,13,0,0,1-3.12,1.66c-2.67,1.37-5,3.46-8,4.13-2.05,2.5-5.3,3.08-7.84,4.84-2.7,1.87-5.78,3.18-8.48,5.13-1.48,1.07-3.34,1.62-4.77,2.73-3.29,2.55-7.12,4.25-10.38,6.85-1.49,1.19-3.48,1.78-4.85,3.06-2.88,2.7-6.55,4.18-9.55,6.75-2.06,1.77-4.61,3.06-6.64,5a16.16,16.16,0,0,1-2.61,1.69,9.65,9.65,0,0,0-1.41.89c-2.34,2.14-4.59,4.4-7.51,5.78a1.87,1.87,0,0,0-.73.6c-1.37,2-3.65,3-5.37,4.65-1.94,1.85-4.28,3.28-6.18,5.15-2.5,2.47-5.48,4.41-7.71,7.16a2.69,2.69,0,0,1-.56.45,90.7,90.7,0,0,0-10.1,8.67c-4.58,4.36-8.91,9-13.45,13.36-3.51,3.39-6.74,7-10,10.65a32.79,32.79,0,0,0-2.17,2.48,117,117,0,0,1-8.38,9.47,13.46,13.46,0,0,0-2,2.38c-1.73,3.09-4.36,5.5-6.65,8.12-2,2.28-3.34,5-5.51,7.14-2.45,2.41-3.95,5.57-6.22,8.14A13,13,0,0,0,88.72,194a5.8,5.8,0,0,1-1.7,2.3,12.91,12.91,0,0,0-2.92,4.06,8.73,8.73,0,0,1-1,1.65,91.94,91.94,0,0,0-6.24,8.89c-5,7.9-9.82,15.92-14.7,23.9-.71,1.15-1.25,2.39-1.83,3.61-.81,1.67-2.13,3.09-2.59,5,0,.13-.22.22-.34.33A4.34,4.34,0,0,0,56,246.35a1.71,1.71,0,0,1-.62,1.25,5.67,5.67,0,0,0-1.72,2.82c-1,2.27-1.95,4.55-3.1,6.75-2.31,4.41-4.94,8.68-6.39,13.5a1.26,1.26,0,0,1-.23.41,18.4,18.4,0,0,0-2.71,5.74c-.92,2.62-3.06,4.71-3.16,7.65a.68.68,0,0,1-.26.39c-.71.61-.74,1.5-1.07,2.28-1.06,2.47-2.38,4.83-2.9,7.51a.38.38,0,0,1-.15.19c-1.06.83-1.15,2-1.32,3.23a2.89,2.89,0,0,1-.54,1.8,5.2,5.2,0,0,0-1.4,3.47,7.63,7.63,0,0,1-.78,2,46.07,46.07,0,0,1-2.71,6.93c-.13.24,0,.63,0,.95a3.37,3.37,0,0,1-1,2.61,3.65,3.65,0,0,0-1,3.07,3.51,3.51,0,0,1-1,3.05,3.27,3.27,0,0,0-.91,2.64,8.73,8.73,0,0,1-.41,2.32c-.31,1.76-1.89,3-1.84,4.87a5.89,5.89,0,0,1-1.36,4.46c-.41.44-.28,1-.3,1.6a9.19,9.19,0,0,1-1.35,5,2.19,2.19,0,0,0-.61,1.52c.34,1.86-.38,3.5-1.08,5.08-1.17,2.66-.82,5.64-2,8.3a8.08,8.08,0,0,0-.91,5.11,2.53,2.53,0,0,1-.24,1.4,18.39,18.39,0,0,0-.95,3.95c-1,5.74-2.12,11.47-3.11,17.21-1.06,6.14-2.41,12.22-2.8,18.47a70.92,70.92,0,0,1-1.87,14.24,19.73,19.73,0,0,0-.7,7.11c.56,5.86-.15,11.65-.89,17.44A167.09,167.09,0,0,0,1,462.5c-.05,5.85.7,11.64,1.13,17.46,1,13.55,2.07,27.1,3.63,40.6,1,8.42,2.12,16.81,3.61,25.15.73,4.09,1.38,8.21,2.5,12.2s.81,8.24,2.78,12a4,4,0,0,1,.2,1.65c.13,3.77,2.48,7,2.41,10.87,0,.42.45.83.64,1.27a10,10,0,0,1,1.2,4.82,2.53,2.53,0,0,0,.49,1.8,7.62,7.62,0,0,1,1.19,3.09c.39,1.75.36,3.65,1.63,5.14a1.93,1.93,0,0,1,.22,1.16c0,3.32,2.58,6,2.45,9.31a.3.3,0,0,0,.12.2c1.39,1,1.32,2.65,1.58,4.11a3.58,3.58,0,0,0,1.11,2.55,2.16,2.16,0,0,1,.7,1.73,8,8,0,0,0,1.71,4.88,1.82,1.82,0,0,1,.46,1.07c-.07,1.87,1,3.35,1.66,4.94.89,2,2.15,3.94,2.28,6.26a1.45,1.45,0,0,0,.42.83c1.92,2,1.33,5.08,3.27,7a1,1,0,0,1,.1.7,3.88,3.88,0,0,0,.78,2.46,39.18,39.18,0,0,1,2.85,6,33.78,33.78,0,0,0,2.73,5.5,8.43,8.43,0,0,1,1,2.15c.45,1.68.58,3.47,2.18,4.63a1.51,1.51,0,0,1,.35,1.11,3.74,3.74,0,0,0,.91,2.16c2.88,4.42,4.63,9.43,7.29,13.95,1,1.71,1.5,3.64,2.68,5.24a66.57,66.57,0,0,1,5.8,9.93A38.91,38.91,0,0,0,67,700c1.84,2.88,3.91,5.63,5.54,8.63,1.48,2.73,3.24,5.29,4.89,7.89,4,6.33,8.44,12.4,12.7,18.56a5.06,5.06,0,0,0,.65.7c3.45,3.37,5.81,7.61,8.77,11.37,2.1,2.66,4.36,5.22,6.41,7.93,1.86,2.47,4.07,4.71,5.85,7.27a12.33,12.33,0,0,0,2.54,2.85c3.2,2.46,5.21,6,8,8.88,1.54,1.62,2.92,3.6,4.54,5.12,5.48,5.15,10.17,11.07,15.95,15.92a55,55,0,0,1,5.2,5.31,9.88,9.88,0,0,0,2.64,2.36c2.81,1.39,4.47,4.05,6.91,5.85,2.73,2,4.8,4.83,7.69,6.71.47.3.88.69,1.32,1,4.34,3.46,8.18,7.55,13,10.39a1.8,1.8,0,0,1,.54.47c1.21,1.67,3,2.63,4.64,3.73a44.81,44.81,0,0,1,5.56,4.17,48.24,48.24,0,0,0,6.64,5c5.71,3.69,11.49,7.28,16.9,11.39a53.7,53.7,0,0,0,7.5,4.57c4,2.1,7.36,5.1,11.54,6.77a3.16,3.16,0,0,1,1,.68,13,13,0,0,0,3.43,2.17l9.86,4.94,10.06,5.07c3.28,1.65,6.65,3.17,9.83,5s7,2.72,10,5a.7.7,0,0,0,.45.14c1.75-.17,3,.91,4.39,1.68s3.17.63,4.16,2.14a.51.51,0,0,0,.44.14c1.54-.38,2.56.62,3.66,1.37a2.64,2.64,0,0,0,1.79.56,3.21,3.21,0,0,1,2.07.51,25.08,25.08,0,0,0,7.11,2.77c2.66.74,4.87,2.78,7.82,2.68a1,1,0,0,1,.62.34c1.27,1.3,3,1.35,4.61,1.79.52.14,1.19,0,1.54.48.63.92,1.6,1,2.54,1.12,1.09.2,2.49.06,3.21.69,1.47,1.29,3.19,1.29,4.87,1.6.54.1,1.14,0,1.54.5a3.68,3.68,0,0,0,2.37,1c6,1.37,12.05,2.54,17.72,5a13.57,13.57,0,0,0,5.81,1.18c1.55,0,3.05-.05,4.17,1.29.35.42.87.35,1.34.35,4.53,0,8.86,1.14,13.17,2.35a37.46,37.46,0,0,0,8.23,1.41c2.28.12,4.69.23,6.68,1.72.22.16.63,0,.93.12,3.89,1,8.14-.42,11.84,1.84a2.23,2.23,0,0,0,1.18.06,20.12,20.12,0,0,1,2.86.21,40.7,40.7,0,0,0,7.63.39c1.73-.18,3.68.13,4.55,2.18-.26.59.1.85.54,1.13a3.09,3.09,0,0,1,1.61,2.78,4.8,4.8,0,0,0,1.09,3.06,10.66,10.66,0,0,1,1.34,3.06c.56,1.87,2,3.49,1.62,5.62,1.53,1.77,1.77,4,2.27,6.17a4.65,4.65,0,0,0,.53,1.33,35.33,35.33,0,0,1,3.91,11c.39,1.78.51,3.65,1.42,5.3s2,3.46,1.8,5.59c-.05.5.35.87.56,1.3a14.76,14.76,0,0,1,1.09,2.39,31.77,31.77,0,0,0,3.21,8,4.69,4.69,0,0,1,.71,2c.13,1.94,1.24,3.39,2.34,4.81a15.9,15.9,0,0,1,3.13,5.62c.86,3.38,3.43,4.89,6.24,6.1s5.3.48,7.34-1.84a16,16,0,0,0,2.81-5c3.79-9.92,7.67-19.8,11.05-29.87,3.71-11,7.6-22,11.44-33,1.38-3.94,3.36-5.35,7.48-5.44a74.82,74.82,0,0,0,8.83-.62c4,.29,8.08.61,11.87-1.38a3.51,3.51,0,0,1,1.18-.19c3-.36,6,0,9-.22,2-.13,4,0,5.67-1.39a2.49,2.49,0,0,1,1.38-.36c2.05-.08,4.11-.13,6.17-.16,1.6,0,3.42.06,4.66-.76,1.56-1,3.12-1,4.76-1.19,1.83-.2,3.67-.34,5.46-.72,11.49-2.41,23-4.78,34.34-7.77a440.7,440.7,0,0,0,85.39-32.52C726.72,847,776.77,807.65,818.28,757.55a456.15,456.15,0,0,0,82.34-148.11c1.24-3.71,2.37-7.46,3.47-11.21s2-7.43,3.38-11,1.2-7.7,3-11.21c.66-1.27.32-2.69.73-4a94.25,94.25,0,0,0,2.49-10.18c.31-1.56,1.15-3.08,1.16-4.62,0-3.27,1-6.27,1.92-9.33A5,5,0,0,0,917,546a17.72,17.72,0,0,1,.6-5.2c.39-2.2,1.51-4.28,1.31-6.55a18.22,18.22,0,0,1,.57-5.44c.89-4.22,1.93-8.42,1.47-12.8a7.17,7.17,0,0,1,.37-2.84,26.93,26.93,0,0,0,1.41-10.82c-.29-3.09-.08-6.23-.1-9.35.77-.74.63-1.68.6-2.6A2.12,2.12,0,0,1,925,488Z" transform="translate(-0.48 -0.36)"/><path class="cls-2" d="M922.65,493c0,3.12-.19,6.26.1,9.35a26.93,26.93,0,0,1-1.41,10.82A7.17,7.17,0,0,0,921,516c.46,4.39-.57,8.59-1.47,12.8a18.22,18.22,0,0,0-.57,5.44c.2,2.27-.92,4.35-1.31,6.55a17.72,17.72,0,0,0-.6,5.2,5,5,0,0,1-.25,1.89c-.89,3.06-1.89,6.06-1.92,9.33,0,1.54-.85,3.06-1.16,4.62a94.25,94.25,0,0,1-2.49,10.18c-.41,1.29-.07,2.7-.73,4-1.81,3.51-1.55,7.58-3,11.21s-2.29,7.31-3.38,11-2.24,7.5-3.47,11.21a456.15,456.15,0,0,1-82.34,148.11c-41.51,50.1-91.55,89.48-149.66,118.61a440.7,440.7,0,0,1-85.39,32.52c-11.35,3-22.85,5.36-34.34,7.77-1.79.38-3.64.52-5.46.72-1.64.18-3.2.17-4.76,1.19-1.24.82-3.06.73-4.66.76-2.06,0-4.11.08-6.17.16a2.49,2.49,0,0,0-1.38.36c-1.69,1.35-3.72,1.26-5.67,1.39-3,.2-6-.14-9,.22a3.51,3.51,0,0,0-1.18.19c-3.79,2-7.83,1.66-11.87,1.38-1-1.08-2.39-.7-3.59-1a12.43,12.43,0,0,0-8.16.77,40.23,40.23,0,0,1-16.5,3.24c-6.7-.12-13.4.17-20.09-.46-3.64-.34-7.31-.16-11-.37-4.36-.26-8.73-.78-13.12-.64a28.46,28.46,0,0,1-4.51-.32c-1.8-.23-3.58-.83-5.44-.65-.88-2.05-2.82-2.37-4.55-2.18a40.7,40.7,0,0,1-7.63-.39,20.12,20.12,0,0,0-2.86-.21,2.23,2.23,0,0,1-1.18-.06c-3.7-2.26-8-.87-11.84-1.84-.3-.08-.71,0-.93-.12-2-1.49-4.4-1.6-6.68-1.72a37.46,37.46,0,0,1-8.23-1.41c-4.31-1.2-8.64-2.36-13.17-2.35-.48,0-1,.07-1.34-.35-1.12-1.34-2.62-1.32-4.17-1.29a13.57,13.57,0,0,1-5.81-1.18c-5.67-2.48-11.73-3.65-17.72-5a3.68,3.68,0,0,1-2.37-1c-.4-.5-1-.4-1.54-.5-1.68-.32-3.4-.31-4.87-1.6-.72-.63-2.12-.49-3.21-.69-.94-.17-1.91-.21-2.54-1.12-.36-.52-1-.33-1.54-.48-1.59-.43-3.34-.49-4.61-1.79a1,1,0,0,0-.62-.34c-2.95.1-5.15-1.94-7.82-2.68a25.08,25.08,0,0,1-7.11-2.77,3.21,3.21,0,0,0-2.07-.51,2.64,2.64,0,0,1-1.79-.56c-1.11-.76-2.12-1.75-3.66-1.37a.51.51,0,0,1-.44-.14c-1-1.51-2.8-1.39-4.16-2.14s-2.64-1.85-4.39-1.68a.7.7,0,0,1-.45-.14c-3-2.29-6.73-3.14-10-5s-6.54-3.34-9.83-5l-10.06-5.07-9.86-4.94a13,13,0,0,1-3.43-2.17,3.16,3.16,0,0,0-1-.68c-4.18-1.67-7.58-4.68-11.54-6.77a53.7,53.7,0,0,1-7.5-4.57c-5.41-4.12-11.19-7.71-16.9-11.39a48.24,48.24,0,0,1-6.64-5,44.81,44.81,0,0,0-5.56-4.17c-1.65-1.11-3.43-2.07-4.64-3.73a1.8,1.8,0,0,0-.54-.47c-4.83-2.85-8.67-6.93-13-10.39-.44-.35-.85-.73-1.32-1-2.88-1.88-5-4.71-7.69-6.71-2.45-1.8-4.1-4.46-6.91-5.85a9.88,9.88,0,0,1-2.64-2.36,55,55,0,0,0-5.2-5.31c-5.78-4.85-10.47-10.77-15.95-15.92-1.62-1.52-3-3.5-4.54-5.12-2.75-2.89-4.76-6.43-8-8.88a12.33,12.33,0,0,1-2.54-2.85c-1.78-2.56-4-4.8-5.85-7.27-2-2.71-4.31-5.27-6.41-7.93-3-3.76-5.32-8-8.77-11.37a5.06,5.06,0,0,1-.65-.7c-4.26-6.17-8.69-12.24-12.7-18.56-1.65-2.6-3.41-5.16-4.89-7.89-1.62-3-3.7-5.75-5.54-8.63a38.91,38.91,0,0,1-2-3.54,66.57,66.57,0,0,0-5.8-9.93c-1.18-1.6-1.67-3.54-2.68-5.24-2.67-4.52-4.41-9.53-7.29-13.95a3.74,3.74,0,0,1-.91-2.16,1.51,1.51,0,0,0-.35-1.11c-1.6-1.16-1.73-2.95-2.18-4.63a8.43,8.43,0,0,0-1-2.15,33.78,33.78,0,0,1-2.73-5.5,39.18,39.18,0,0,0-2.85-6,3.88,3.88,0,0,1-.78-2.46,1,1,0,0,0-.1-.7c-1.95-1.94-1.36-5.07-3.27-7a1.45,1.45,0,0,1-.42-.83c-.13-2.32-1.39-4.22-2.28-6.26-.7-1.59-1.73-3.07-1.66-4.94a1.82,1.82,0,0,0-.46-1.07,8,8,0,0,1-1.71-4.88,2.16,2.16,0,0,0-.7-1.73,3.58,3.58,0,0,1-1.11-2.55c-.26-1.47-.19-3.07-1.58-4.11A.3.3,0,0,1,25,609c.14-3.35-2.46-6-2.45-9.31a1.93,1.93,0,0,0-.22-1.16c-1.27-1.5-1.24-3.39-1.63-5.14a7.62,7.62,0,0,0-1.19-3.09,2.53,2.53,0,0,1-.49-1.8,10,10,0,0,0-1.2-4.82c-.2-.44-.65-.85-.64-1.27.07-3.82-2.28-7.1-2.41-10.87a4,4,0,0,0-.2-1.65c-2-3.76-1.66-8-2.78-12s-1.77-8.11-2.5-12.2C7.84,537.37,6.7,529,5.72,520.56c-1.57-13.5-2.61-27.05-3.63-40.6C1.65,474.15.9,468.35,1,462.5a167.09,167.09,0,0,1,1.64-19.82c.75-5.79,1.45-11.58.89-17.44a19.73,19.73,0,0,1,.7-7.11A70.92,70.92,0,0,0,6,403.88c.39-6.25,1.74-12.34,2.8-18.47,1-5.75,2.08-11.48,3.11-17.21a18.39,18.39,0,0,1,.95-3.95,2.53,2.53,0,0,0,.24-1.4,8.08,8.08,0,0,1,.91-5.11c1.2-2.66.85-5.65,2-8.3.7-1.59,1.42-3.23,1.08-5.08a2.19,2.19,0,0,1,.61-1.52,9.19,9.19,0,0,0,1.35-5c0-.56-.12-1.16.3-1.6a5.89,5.89,0,0,0,1.36-4.46c0-1.88,1.53-3.12,1.84-4.87a8.73,8.73,0,0,0,.41-2.32,3.27,3.27,0,0,1,.91-2.64,3.51,3.51,0,0,0,1-3.05,3.65,3.65,0,0,1,1-3.07,3.37,3.37,0,0,0,1-2.61c0-.32-.14-.71,0-.95a46.07,46.07,0,0,0,2.71-6.93,7.63,7.63,0,0,0,.78-2,5.2,5.2,0,0,1,1.4-3.47,2.89,2.89,0,0,0,.54-1.8c.16-1.18.26-2.41,1.32-3.23a.38.38,0,0,0,.15-.19c.52-2.68,1.84-5,2.9-7.51.33-.77.36-1.67,1.07-2.28a.68.68,0,0,0,.26-.39c.11-2.94,2.25-5,3.16-7.65A18.4,18.4,0,0,1,44,271.09a1.26,1.26,0,0,0,.23-.41c1.45-4.82,4.07-9.09,6.39-13.5,1.15-2.2,2.12-4.48,3.1-6.75a5.67,5.67,0,0,1,1.72-2.82,1.71,1.71,0,0,0,.62-1.25,4.34,4.34,0,0,1,1.43-2.69c.12-.11.31-.2.34-.33.46-1.88,1.78-3.3,2.59-5,.59-1.21,1.13-2.45,1.83-3.61,4.88-8,9.7-16,14.7-23.9A91.94,91.94,0,0,1,83.14,202a8.73,8.73,0,0,0,1-1.65A12.91,12.91,0,0,1,87,196.25a5.8,5.8,0,0,0,1.7-2.3,13,13,0,0,1,2.85-4.08c2.27-2.58,3.78-5.74,6.22-8.14,2.17-2.13,3.51-4.86,5.51-7.14,2.29-2.62,4.92-5,6.65-8.12a13.46,13.46,0,0,1,2-2.38,117,117,0,0,0,8.38-9.47,32.79,32.79,0,0,1,2.17-2.48c3.25-3.62,6.48-7.26,10-10.65,4.54-4.39,8.87-9,13.45-13.36a90.7,90.7,0,0,1,10.1-8.67,2.69,2.69,0,0,0,.56-.45c2.23-2.75,5.21-4.69,7.71-7.16,1.9-1.88,4.24-3.31,6.18-5.15,1.72-1.64,4-2.61,5.37-4.65a1.87,1.87,0,0,1,.73-.6c2.93-1.38,5.17-3.64,7.51-5.78a9.65,9.65,0,0,1,1.41-.89,16.16,16.16,0,0,0,2.61-1.69c2-1.93,4.58-3.23,6.64-5,3-2.57,6.68-4,9.55-6.75,1.37-1.28,3.36-1.87,4.85-3.06,3.26-2.6,7.09-4.3,10.38-6.85,1.43-1.11,3.3-1.66,4.77-2.73,2.7-1.95,5.78-3.26,8.48-5.13,2.54-1.76,5.79-2.34,7.84-4.84,3-.67,5.34-2.76,8-4.13a13,13,0,0,0,3.12-1.66,2.55,2.55,0,0,1,1.73-.75,1.85,1.85,0,0,0,1.62-.84,2.58,2.58,0,0,1,1.83-1,2.84,2.84,0,0,0,2.43-1.24.93.93,0,0,1,.61-.35c2-.22,3.43-1.87,5.38-2.23a2.51,2.51,0,0,0,1.51-.65c1-1.43,2.51-1.53,4-1.85a4,4,0,0,0,1.57-.56c2.81-2.17,6.43-2.63,9.38-4.5a3.16,3.16,0,0,1,1.79-.63,2.09,2.09,0,0,0,1.65-.83c.27-.29.6-.84.83-.81,2.69.43,4.4-1.89,6.8-2.37s4.24-2.27,6.77-2.24c1-1.32,2.73-1.1,4-1.7,2.18-1,4.56-1.33,6.64-2.38,1.23-.62,2.28-1.31,3.7-1.18a1.26,1.26,0,0,0,.68-.22c2-1.15,4.22-1.54,6.35-2.28s4.47-1.21,6.66-1.93c11.88-3.92,24-7,36.19-9.75,7-1.6,14.17-2.44,21.18-4.06,1.56-.36,3.13-.68,4.65-1.14a7.74,7.74,0,0,1,3.55-.31,13.3,13.3,0,0,0,6.84-.72A19.24,19.24,0,0,1,409,5.25a19.35,19.35,0,0,0,7.59-.83A34.16,34.16,0,0,1,428,3.27a103.8,103.8,0,0,0,13.18-.4,11.18,11.18,0,0,0,4.38.88c3.71.22,7.26-.81,10.88-1.25.91-.11,2.22,0,2.49-1.4a84.14,84.14,0,0,1,11,.07,1.34,1.34,0,0,0,.83.79,15.68,15.68,0,0,0,6.85,1.77,36.54,36.54,0,0,0,8.3-.54c6.47-.16,12.95.67,19.42,0a3.13,3.13,0,0,1,1.84.37,15.73,15.73,0,0,0,9.23,1.64c3.83-.43,7.43.55,11,1.6a8.5,8.5,0,0,0,2.57.34,47.27,47.27,0,0,1,10.68,1.3c5.78,1.24,11.61,2.24,17.41,3.38,6.41,1.26,12.79,2.69,19.1,4.37,3.13.83,6.31,1.45,9.4,2.49,1.87.63,4,.67,5.72,1.81a1.79,1.79,0,0,0,.71.1,18.25,18.25,0,0,1,6.28,1.87,2.6,2.6,0,0,0,1.59.45,4.19,4.19,0,0,1,4.09,1.41,2.42,2.42,0,0,0,2.26.5,3.44,3.44,0,0,1,3.25,1.1,2.45,2.45,0,0,0,2.36.88,4.15,4.15,0,0,1,3.69,1.28c.17.16.38.44.56.43,2.56-.23,4.41,1.93,6.86,2,.32,0,.78,0,.93.13,1.69,2,4.46,1.47,6.41,2.86a6,6,0,0,0,3.34,1.21,1.61,1.61,0,0,1,1.28.52,3.24,3.24,0,0,0,2.8,1c.54,0,1.26-.15,1.61.29,1.64,2.07,4.26,2.52,6.43,3.35,2.38.91,4.41,2.9,7.2,2.76a1.63,1.63,0,0,1,.84.41c3.16,2.25,6.87,3.35,10.33,5,3.22,1.51,6.56,2.86,9.43,5.05a2.2,2.2,0,0,0,.81.5c2.39.45,4,2.59,6.43,3a3.84,3.84,0,0,1,1.4.89,24,24,0,0,0,5.19,2.94,33.87,33.87,0,0,1,3.92,2.06c3,1.72,5.78,3.67,8.81,5.32a61.08,61.08,0,0,1,6.33,3.79c3.63,2.6,7.5,4.83,11.19,7.34s7.24,5.7,11.42,7.75a25.63,25.63,0,0,1,4.16,3.14,32.38,32.38,0,0,0,5.45,3.78c1,.52,1.51,1.68,2.49,2.21,2.45,1.34,4,3.88,6.77,4.81.41.14.7.63,1,1a12.2,12.2,0,0,0,1.7,1.68c2.86,1.89,5,4.64,8.12,6.26a5.92,5.92,0,0,1,1.14.88C775,123.18,789,136,801.93,150.09a462.87,462.87,0,0,1,98.45,166,306.58,306.58,0,0,1,9.9,34,23.5,23.5,0,0,1,.78,4.72,3.44,3.44,0,0,0,.67,2,7.52,7.52,0,0,1,1.26,5,6.54,6.54,0,0,0,1.09,4.56,4.9,4.9,0,0,1,.87,3.43c-.25,2.64.68,5,1.47,7.46a5.83,5.83,0,0,1,.58,2.3c-.34,3.28.88,6.3,1.49,9.41a13.47,13.47,0,0,1,.39,5,8,8,0,0,0,.4,3.07c.45,2.19,1,4.36,1.48,6.54a10.68,10.68,0,0,1,.23,3.81,18.17,18.17,0,0,0,.88,7.79,21.52,21.52,0,0,1,.92,7.31,58,58,0,0,0,.24,11.7c-.31.07-.7.1-.78.45-.4,1.77-1,3.59-.58,5.38,1,3.82.76,7.7,1,11.57.14,2.8.33,5.72,2.33,8v7.68c-1.92,4.48-2.52,9.23-2.87,14C921.8,485.32,922.4,489.18,922.65,493ZM53.2,462.51c0,.32,0,.64,0,1A428.19,428.19,0,0,0,56.59,518a406.3,406.3,0,0,0,8.69,47.11,383.51,383.51,0,0,0,54.55,123.21c26.53,39.44,59,73.36,96.48,102.45,40.45,31.37,85.22,54.28,134.6,68a409,409,0,0,0,97.7,14.51,454.13,454.13,0,0,0,54.64-1.64,390.84,390.84,0,0,0,40.55-5.83,399.11,399.11,0,0,0,104.91-36.53,412.5,412.5,0,0,0,107.17-78.83A407.69,407.69,0,0,0,830.38,646c24.9-50,38.71-103,42.14-158.78a391.73,391.73,0,0,0,.25-42.93,420.23,420.23,0,0,0-4.84-46.48,397.8,397.8,0,0,0-17.16-68.24c-24.57-70.36-65-130-121.72-178.34-69.27-59-149.6-91.26-240.36-97.49a394.9,394.9,0,0,0-46.76-.24,410.08,410.08,0,0,0-45.28,4.81,397.45,397.45,0,0,0-62.3,15.3A412.25,412.25,0,0,0,78.93,319.13a396.69,396.69,0,0,0-19.51,71.32q-3.22,18.31-4.81,36.83Q53.11,444.88,53.2,462.51Z" transform="translate(-0.48 -0.36)"/><path class="cls-3" d="M925,459.72c-2-2.32-2.19-5.24-2.33-8-.2-3.87,0-7.75-1-11.57-.45-1.79.18-3.61.58-5.38.08-.35.47-.38.78-.45a5.54,5.54,0,0,1,.13,1.17,2.33,2.33,0,0,0,1.81,2.68Z" transform="translate(-0.48 -0.36)"/><path class="cls-3" d="M922.65,493c-.25-3.87-.85-7.72-.56-11.61.35-4.8.95-9.55,2.87-14V488a2.12,2.12,0,0,0-1.71,2.4C923.29,491.36,923.43,492.31,922.65,493Z" transform="translate(-0.48 -0.36)"/><path class="cls-3" d="M416.32,923.38c1.85-.18,3.63.42,5.44.65a28.46,28.46,0,0,0,4.51.32c4.39-.14,8.76.38,13.12.64,3.67.22,7.34,0,11,.37,6.69.62,13.39.34,20.09.46a40.23,40.23,0,0,0,16.5-3.24,12.43,12.43,0,0,1,8.16-.77c1.2.32,2.6-.07,3.59,1a74.82,74.82,0,0,1-8.83.62c-4.12.1-6.1,1.5-7.48,5.44-3.85,11-7.73,22-11.44,33-3.38,10.07-7.26,20-11.05,29.87a16,16,0,0,1-2.81,5c-2,2.32-4.54,3-7.34,1.84s-5.38-2.73-6.24-6.1a15.9,15.9,0,0,0-3.13-5.62c-1.1-1.42-2.21-2.86-2.34-4.81a4.69,4.69,0,0,0-.71-2,31.77,31.77,0,0,1-3.21-8,14.76,14.76,0,0,0-1.09-2.39c-.21-.43-.62-.79-.56-1.3.23-2.14-.84-3.85-1.8-5.59s-1-3.52-1.42-5.3a35.33,35.33,0,0,0-3.91-11,4.65,4.65,0,0,1-.53-1.33c-.5-2.15-.74-4.4-2.27-6.17.37-2.14-1.06-3.75-1.62-5.62a10.66,10.66,0,0,0-1.34-3.06,4.8,4.8,0,0,1-1.09-3.06,3.09,3.09,0,0,0-1.61-2.78C416.43,924.23,416.06,924,416.32,923.38Z" transform="translate(-0.48 -0.36)"/><path class="cls-3" d="M458.91,1.09c-.27,1.43-1.58,1.29-2.49,1.4-3.62.45-7.17,1.47-10.88,1.25a11.18,11.18,0,0,1-4.38-.88c.27-.28.52-.79.81-.81,2-.14,3.69-1.23,5.75-1.13C451.44,1.12,455.18,1.05,458.91,1.09Z" transform="translate(-0.48 -0.36)"/><path class="cls-3" d="M485.87,3.19a36.54,36.54,0,0,1-8.3.54A15.68,15.68,0,0,1,470.72,2a1.34,1.34,0,0,1-.83-.79c3.72-.42,7.46-.07,11.19-.18.23,0,.6,0,.69.08C482.75,2.54,484.6,2.31,485.87,3.19Z" transform="translate(-0.48 -0.36)"/><path class="cls-1" d="M53.2,462.51q-.12-17.64,1.41-35.22,1.58-18.53,4.81-36.83a396.69,396.69,0,0,1,19.51-71.32A412.25,412.25,0,0,1,334.35,73.65a397.45,397.45,0,0,1,62.3-15.3,410.08,410.08,0,0,1,45.28-4.81,394.9,394.9,0,0,1,46.76.24c90.76,6.22,171.09,38.5,240.36,97.49,56.72,48.31,97.14,108,121.72,178.34a397.8,397.8,0,0,1,17.16,68.24,420.23,420.23,0,0,1,4.84,46.48,391.73,391.73,0,0,1-.25,42.93C869.08,543,855.28,596,830.38,646a407.69,407.69,0,0,1-74.48,104.45,412.5,412.5,0,0,1-107.17,78.83,399.11,399.11,0,0,1-104.91,36.53,390.84,390.84,0,0,1-40.55,5.83,454.13,454.13,0,0,1-54.64,1.64,409,409,0,0,1-97.7-14.51c-49.39-13.73-94.16-36.64-134.6-68-37.51-29.09-69.95-63-96.48-102.45A383.51,383.51,0,0,1,65.28,565.13,406.3,406.3,0,0,1,56.59,518a428.19,428.19,0,0,1-3.39-54.55C53.2,463.15,53.2,462.83,53.2,462.51ZM478.64,636.83a31,31,0,0,0-2.06,5.6c-6.92,27.18-21,50.09-42.27,68.22-23.41,20-51,29.27-81.71,29.62-14.89.17-29.72-1-44.55-2.29a84.15,84.15,0,0,1-9.29-1c-5-1-10.05-1.87-15.08-2.77a65,65,0,0,0-7.35-1c-2.2-.14-4.09-1.31-6.16-1.9-2.59-.73-4.25.25-4.71,2.88a21.28,21.28,0,0,0-.22,3.58c0,11.19.69,22.4-.24,33.58-.65,7.84,2.59,13.43,9.29,17.23l.83.49a384.53,384.53,0,0,0,89.33,37.39,362.17,362.17,0,0,0,52.91,10.19,366.51,366.51,0,0,0,36.82,2.68,382,382,0,0,0,45.52-1.72c10.35-1,20.66-2.29,30.89-4.12a360.79,360.79,0,0,0,55.54-14.74q110-38.48,179.42-132.06c37-50,59.87-106.09,69.32-167.61a372.36,372.36,0,0,0,2.87-88.74c-1-11.39-2.51-22.72-4.57-34a384.9,384.9,0,0,0-23.4-78.4c-18.85-45.29-45.24-85.56-80.07-120.19a389.08,389.08,0,0,0-100-71.68c-49-24.68-101-37.35-155.75-38.72a406.74,406.74,0,0,0-51.74,2.13,362.29,362.29,0,0,0-40.69,6.54c-39,8.55-75.43,23.54-109.92,43.45a161.39,161.39,0,0,0-16.75,11.19c-2.2,1.66-3.5,3.61-3.26,6.51a21.83,21.83,0,0,1-.4,5.73c-.6,3.3-1.18,6.61-1.62,9.93-.6,4.5-.12,9.1-1.4,13.54a22.49,22.49,0,0,0-.49,3.56c-.56,4.68-.67,9.41-1.41,14.08-.25,1.58-.61,3.14-.88,4.71a1.3,1.3,0,0,0,.81,1.56,1.31,1.31,0,0,0,1.51-.42,4.4,4.4,0,0,0,.47-.55,29.1,29.1,0,0,1,7.25-6.59c4.72-3.15,9.34-6.45,13.9-9.84a89.28,89.28,0,0,1,14.15-8.54A191.6,191.6,0,0,1,303.33,176c13.87-4.94,28.14-8.5,42.41-12,11-2.72,22.05-4.7,33.38-4.84C391,159,403,158.95,414.87,159a138.69,138.69,0,0,1,19.6,1.44,164.7,164.7,0,0,1,24.41,6q66.85,20.71,105.32,79.2c16.32,24.9,26.49,52,28.87,81.88a44.48,44.48,0,0,1-.15,11.24,49.93,49.93,0,0,0-.68,10.51,56.53,56.53,0,0,1-1.14,13.11c-2.13,10.82-7,20.35-13.74,29q-8.71,11.16-17.58,22.19a160.13,160.13,0,0,1-17.14,18.76,53.38,53.38,0,0,0-8.9,10.64c-5.27,8.13-9.91,16.61-14.37,25.2-5.82,11.21-11.27,22.61-17.73,33.48C490.19,520.9,484,541.81,480.9,563.8c-.67,4.82-.64,9.72-1.72,14.49,0,.71-.1,1.43-.1,2.14q-.2,18-.38,36.09C478.64,623.29,478.66,630.06,478.64,636.83ZM234.28,742.12c0-6,0-10.59,0-15.23a39.52,39.52,0,0,1,.6-6.44c.42-2.76,1-5.51,1.46-8.26.84-4.69,3.07-6.51,7.8-6.14,3.35.26,6.68.66,10,1.11,5.78.78,11.56,1.65,17.38,2,4,.26,8,.71,11.88-.75a6.36,6.36,0,0,1,1.91-.15c6.87-.29,13.75-.34,20.63-.26a117.27,117.27,0,0,0,33.85-4.63c6.37-1.83,12.71-3.78,19.07-5.67a159,159,0,0,0,56.1-30c11.47-9.42,19.72-21.05,24-35.41a163.19,163.19,0,0,0,4.39-17.91c1.65-9.38,3-18.78,2.79-28.35a208.43,208.43,0,0,0-2.39-24.57A104.71,104.71,0,0,0,437.3,537c-1.21-3-2.17-6.18-3.11-9.32a57.41,57.41,0,0,1-2.59-20.35,53.28,53.28,0,0,0,.18-8.13,9.92,9.92,0,0,1,.8-4.45,55.08,55.08,0,0,1,5.42-10.4,88.62,88.62,0,0,1,14.14-15.94,359.52,359.52,0,0,1,31.25-25.06,91.48,91.48,0,0,0,16.29-15.51c7.52-9.06,13.08-19.08,15.69-30.66a133.5,133.5,0,0,0,3-21.6,151.25,151.25,0,0,0-3.86-45c-1.09-4.92-2.12-9.86-4.39-14.41-3.1-6.22-6.2-12.45-9.47-18.58-17.22-32.29-43.05-55.24-76.39-69.87-17-7.45-34.86-11.48-53.27-13.34a146.69,146.69,0,0,0-39.19,1.45c-3.78.63-7.54,1.4-11.34,1.92a34.94,34.94,0,0,0-6.33,1.27c-2.2.73-4.4,1.45-6.61,2.15a172.23,172.23,0,0,0-46.36,22.11,26.79,26.79,0,0,0-5,3.75,35.92,35.92,0,0,1-6.86,5.86c-2.69,1.79-4.61,4.42-6.57,6.94a5.08,5.08,0,0,1-4.5,2.1c-4.79-.09-9.59,0-14.38,0-3.35-.06-6.7-.3-10.05-.52-2-.13-2.65-.76-3.07-2.71a8.57,8.57,0,0,1-.21-2.14c.07-1.68.14-3.36.37-5,1.27-9,2.63-18,3.9-27.05,1.12-7.91,2.09-15.84,2.77-23.81a147,147,0,0,1,2.68-20.19,7.51,7.51,0,0,0,.15-1.19,1.53,1.53,0,0,0-.72-1.65,1.45,1.45,0,0,0-1.75.34l-1.4,1.31c-1.51,1.44-3,2.92-4.52,4.3a351.17,351.17,0,0,0-45,48.1c-31,40.07-53.5,84.4-66.68,133.39a411.43,411.43,0,0,0-8.95,42.92c-1.22,7.74-2.26,15.5-2.92,23.31-.69,8.13-.95,16.28-.94,24.44,0,13.92-.12,27.82,1.28,41.7C90,509.9,91.61,522.32,94,534.66a379.12,379.12,0,0,0,33.15,97.76,365.6,365.6,0,0,0,51.3,76.52,374.91,374.91,0,0,0,52.64,50.34c.44.34.87.7,1.33,1a1.66,1.66,0,0,0,2,.18,1.6,1.6,0,0,0,.56-1.71A127.85,127.85,0,0,1,234.28,742.12Z" transform="translate(-0.48 -0.36)"/><path class="cls-3" d="M479.19,578.29c1.07-4.77,1-9.67,1.72-14.49,3.07-22,9.28-42.91,20.71-62.11,6.46-10.86,11.91-22.27,17.73-33.48,4.46-8.59,9.1-17.07,14.37-25.2a53.38,53.38,0,0,1,8.9-10.64,160.13,160.13,0,0,0,17.14-18.76q8.85-11.05,17.58-22.19c6.73-8.63,11.61-18.16,13.74-29a56.53,56.53,0,0,0,1.14-13.11,49.93,49.93,0,0,1,.68-10.51,44.48,44.48,0,0,0,.15-11.24c-2.38-29.85-12.54-57-28.87-81.88q-38.37-58.53-105.32-79.2a164.7,164.7,0,0,0-24.41-6,138.69,138.69,0,0,0-19.6-1.44c-11.92-.07-23.83,0-35.75.15-11.33.13-22.42,2.12-33.38,4.84-14.27,3.53-28.53,7.09-42.41,12a191.6,191.6,0,0,0-19.89,8.33,89.28,89.28,0,0,0-14.15,8.54c-4.56,3.39-9.17,6.69-13.9,9.84a29.1,29.1,0,0,0-7.25,6.59,4.4,4.4,0,0,1-.47.55,1.31,1.31,0,0,1-1.51.42,1.3,1.3,0,0,1-.81-1.56c.27-1.57.63-3.13.88-4.71.74-4.66.86-9.39,1.41-14.08a22.49,22.49,0,0,1,.49-3.56c1.28-4.44.81-9,1.4-13.54.44-3.32,1-6.63,1.62-9.93a21.83,21.83,0,0,0,.4-5.73c-.24-2.89,1.06-4.84,3.26-6.51a161.39,161.39,0,0,1,16.75-11.19c34.5-19.91,70.94-34.9,109.92-43.45a362.29,362.29,0,0,1,40.69-6.54,406.74,406.74,0,0,1,51.74-2.13c54.78,1.37,106.77,14,155.75,38.72a389.08,389.08,0,0,1,100,71.68c34.84,34.63,61.22,74.9,80.07,120.19a384.9,384.9,0,0,1,23.4,78.4c2.07,11.24,3.54,22.57,4.57,34a372.36,372.36,0,0,1-2.87,88.74c-9.45,61.52-32.32,117.62-69.32,167.61Q696.3,780.21,586.12,818.72a360.79,360.79,0,0,1-55.54,14.74c-10.23,1.83-20.53,3.14-30.89,4.12a382,382,0,0,1-45.52,1.72,366.51,366.51,0,0,1-36.82-2.68,362.17,362.17,0,0,1-52.91-10.19A384.53,384.53,0,0,1,275.11,789l-.83-.49c-6.71-3.8-9.95-9.39-9.29-17.23.93-11.18.2-22.38.24-33.58a21.28,21.28,0,0,1,.22-3.58c.46-2.63,2.11-3.61,4.71-2.88,2.07.58,4,1.76,6.16,1.9a65,65,0,0,1,7.35,1c5,.9,10.07,1.77,15.08,2.77a84.15,84.15,0,0,0,9.29,1c14.82,1.25,29.66,2.46,44.55,2.29,30.66-.35,58.3-9.65,81.71-29.62,21.26-18.13,35.35-41,42.27-68.22a31,31,0,0,1,2.06-5.6c2.21-.5,2.33-.64,2.33-3.34q0-25.9,0-51.81c0-.32,0-.64,0-1A2.09,2.09,0,0,0,479.19,578.29Zm271.5-117.18c1.54,0,2.5,0,3.45,0,3.62.21,5.46.16,4.12-5.13-2.47-9.75-4.73-19.56-7.07-29.34-1.13-4.74-2.23-9.48-3.4-14.21-.75-3-1.91-3.62-4.85-2.69-2.28.72-4.58,1.41-6.89,2-7.87,2.15-15.94,3.33-23.91,5-17.35,3.66-34.62,7.65-51.87,11.74-32.2,7.64-64,16.61-94.82,28.79-5.87,2.32-11.89,4.26-17.52,7.13a9.34,9.34,0,0,0-1.84,1.1,1.72,1.72,0,0,0-.52,2.16,1.68,1.68,0,0,0,1.71,1.06,10.27,10.27,0,0,0,1.2-.07,212,212,0,0,1,28-1.7c9.36-.1,18.7-.31,28-1.25,7.79-.78,15.59-1.62,23.43-1.7,14.47-.15,28.94.11,43.39-.94,10.84-.79,21.69-1.42,32.54-2.13a290.3,290.3,0,0,1,35.71-.47C743.44,460.76,747.33,461.38,750.68,461.12Zm24.93,94.53a2.14,2.14,0,0,0-1.45-2.45,9.42,9.42,0,0,0-2.12-.38c-3.1-.36-6.2-.67-9.28-1.14-10.9-1.64-21.79-3.39-32.7-5-17.63-2.61-35.27-5.12-52.9-7.7C661,536.61,645,533.9,629,530.54c-20.78-4.38-41.82-6.62-63-7.89-10.21-.61-20.46-.55-30.63-1.7a1.38,1.38,0,0,0-1.67,1.29c-.31,1.61.38,2.63,2.46,3.21,6.62,1.84,13.21,3.77,19.9,5.35,6,1.41,12.07,2.49,17.76,4.92,13.31,5.69,26.9,10.61,40.51,15.51,16.17,5.82,32.48,11.16,49.28,14.92,12,2.69,24,5.46,35.6,9.65,11,4,22.2,7.15,33.46,10.19a220.13,220.13,0,0,1,27.57,8.93c4,1.68,5,1.21,6.08-3q4.49-17.4,8.92-34.82C775.41,556.5,775.54,556,775.62,555.65ZM705.23,685.85A3.42,3.42,0,0,0,703.4,683c-1.58-1.08-3.23-2.08-4.87-3.07-13.87-8.41-27.76-16.77-41-26.25-22.08-15.85-44.44-31.31-66.49-47.21q-26.46-19.07-53.49-37.34a44.55,44.55,0,0,0-6.86-3.92,2,2,0,0,0-2.44.29c-.74.76-.46,1.61,0,2.41,1.2,1.89,2.26,3.88,3.61,5.66,8.45,11.16,17.29,22,27.36,31.78,5.51,5.34,11,10.69,16.33,16.23,9.46,9.87,18.65,20,28.49,29.5,22.38,21.6,44.68,43.29,65.93,66a11.27,11.27,0,0,0,.85.85c1.38,1.19,2.39,1.28,3.87.2a17.73,17.73,0,0,0,2.11-2q9.16-9.32,18.31-18.66c2.69-2.74,5.43-5.43,8.13-8.15C704.28,688.42,705.26,687.44,705.23,685.85Z" transform="translate(-0.48 -0.36)"/><path class="cls-3" d="M234.28,742.12a127.85,127.85,0,0,0,.68,16.65,1.6,1.6,0,0,1-.56,1.71,1.66,1.66,0,0,1-2-.18c-.46-.32-.89-.68-1.33-1a374.91,374.91,0,0,1-52.64-50.34,365.6,365.6,0,0,1-51.3-76.52A379.12,379.12,0,0,1,94,534.66c-2.37-12.33-4-24.76-5.28-37.25-1.4-13.88-1.28-27.79-1.28-41.7,0-8.16.25-16.31.94-24.44.66-7.81,1.7-15.57,2.92-23.31A411.43,411.43,0,0,1,100.23,365c13.18-49,35.68-93.31,66.68-133.39a351.17,351.17,0,0,1,45-48.1c1.56-1.38,3-2.87,4.52-4.3l1.4-1.31a1.45,1.45,0,0,1,1.75-.34,1.53,1.53,0,0,1,.72,1.65,7.51,7.51,0,0,1-.15,1.19,147,147,0,0,0-2.68,20.19c-.68,8-1.66,15.9-2.77,23.81-1.27,9-2.62,18-3.9,27.05-.23,1.66-.3,3.35-.37,5a8.57,8.57,0,0,0,.21,2.14c.42,2,1.1,2.58,3.07,2.71,3.35.22,6.7.46,10.05.52,4.79.08,9.59-.05,14.38,0a5.08,5.08,0,0,0,4.5-2.1c2-2.52,3.89-5.16,6.57-6.94a35.92,35.92,0,0,0,6.86-5.86,26.79,26.79,0,0,1,5-3.75,172.23,172.23,0,0,1,46.36-22.11c2.21-.69,4.41-1.42,6.61-2.15a34.94,34.94,0,0,1,6.33-1.27c3.8-.52,7.56-1.28,11.34-1.92a146.69,146.69,0,0,1,39.19-1.45c18.41,1.86,36.3,5.89,53.27,13.34,33.34,14.63,59.17,37.59,76.39,69.87,3.27,6.13,6.37,12.36,9.47,18.58,2.26,4.55,3.3,9.49,4.39,14.41a151.25,151.25,0,0,1,3.86,45,133.5,133.5,0,0,1-3,21.6c-2.61,11.57-8.17,21.6-15.69,30.66a91.48,91.48,0,0,1-16.29,15.51,359.52,359.52,0,0,0-31.25,25.06A88.62,88.62,0,0,0,438,484.33a55.08,55.08,0,0,0-5.42,10.4,9.92,9.92,0,0,0-.8,4.45,53.28,53.28,0,0,1-.18,8.13,57.41,57.41,0,0,0,2.59,20.35c.93,3.14,1.89,6.28,3.11,9.32a104.71,104.71,0,0,1,6.39,24.52,208.43,208.43,0,0,1,2.39,24.57c.19,9.57-1.14,19-2.79,28.35a163.19,163.19,0,0,1-4.39,17.91c-4.25,14.36-12.5,26-24,35.41a159,159,0,0,1-56.1,30c-6.36,1.89-12.69,3.85-19.07,5.67A117.27,117.27,0,0,1,305.92,708c-6.88-.08-13.76,0-20.63.26a6.36,6.36,0,0,0-1.91.15c-3.89,1.46-7.91,1-11.88.75-5.82-.38-11.6-1.24-17.38-2-3.33-.45-6.66-.85-10-1.11-4.73-.37-7,1.44-7.8,6.14-.49,2.75-1,5.5-1.46,8.26a39.52,39.52,0,0,0-.6,6.44C234.32,731.53,234.28,736.17,234.28,742.12Zm133-232.93a39.38,39.38,0,0,0-2.38-16.7,18,18,0,0,1-.62-2.31c-2.37-9.83-7-18.69-12.11-27.28a32,32,0,0,0-14.69-13,46.5,46.5,0,0,0-28.07-3.72,57.45,57.45,0,0,0-22.19,8.56c-1.6,1.08-3.06.34-3.11-1.6,0-1.52.11-3,.12-4.55a262.58,262.58,0,0,1,2.22-33.24A220.39,220.39,0,0,1,302,360.16a89.94,89.94,0,0,1,36.86-42.7c9.24-5.67,19.23-8.27,30-6.52,11.19,1.82,21.38,6,29.73,13.9,3.94,3.74,7.7,7.68,11.56,11.51a56.13,56.13,0,0,1,7.91,9.92,76.56,76.56,0,0,1,6,11.46c3.32,8,6.92,15.83,9.12,24.2,1.48,5.63,2.57,11.37,4.16,17a78.14,78.14,0,0,1,2.6,13.15,52.75,52.75,0,0,1,.16,5.75,1.74,1.74,0,0,0,1.11,1.92,2.26,2.26,0,0,0,2.63-.61,5.64,5.64,0,0,0,.9-1.67,24.55,24.55,0,0,0,.7-2.54c1.35-5.59,2.55-11.22,4.44-16.66a21.23,21.23,0,0,0,.9-4.7c.4-3.65.36-7.35,1-11a88.14,88.14,0,0,0-1.85-39.43,123.34,123.34,0,0,0-25.72-47.74,68.7,68.7,0,0,0-22-17.2,89.73,89.73,0,0,0-36.52-9c-18.4-.75-36.11,2.78-53.2,9.47a89,89,0,0,0-34.77,24.09,152.73,152.73,0,0,0-32.93,60c-3.22,11.33-5.57,22.82-5.92,34.65a55.07,55.07,0,0,1-.69,7.4,203.86,203.86,0,0,0-2.68,24.77c-.18,4.07-.53,8.14-1,12.18-.78,6.11-1.45,12.22-1.78,18.37-.26,5-.51,10.07-1,15.07-1.3,12.17-2.16,24.37-2.28,36.61-.1,10.32,0,20.63.91,30.92a12.43,12.43,0,0,0,4.3,8.57c6.63,5.8,13.46,11.32,21.64,14.88,3.29,1.43,6.35,3.31,9.89,4.23a25.68,25.68,0,0,1,12.46,7.69,15.79,15.79,0,0,1,4.53,11.43c-.08,14.64-.05,29.28,0,43.91a10.6,10.6,0,0,1-.54,3.53,10.53,10.53,0,0,0,.29,8.16,54,54,0,0,0,4.22,7,3.51,3.51,0,0,0,1.23,1.12c2.33,1.22,4.52,2.67,7.1,3.43a53.25,53.25,0,0,0,8.4,1.77,37.12,37.12,0,0,0,15.18-.9c4.45-1.3,9-2.71,12.92-5.52a72.78,72.78,0,0,1,9.33-5.78,58,58,0,0,0,10.28-7c12.08-9.83,22.78-21,32.91-32.83a39.93,39.93,0,0,0,5.54-8.38,25.15,25.15,0,0,0,2.73-12.51c-.06-1.28-.13-2.56-.12-3.83,0-1.09-.07-2.1-1.21-2.64a2.91,2.91,0,0,0-3.35.46,15.31,15.31,0,0,0-1.93,2.12A137.43,137.43,0,0,1,369.6,599a29.14,29.14,0,0,1-10.89,6.37c-2,.61-3.75.71-5.24-1.06s-2.17-3.51-1-5.7a7.11,7.11,0,0,0,.65-4c-.59-7.33-1.15-14.66-1.76-22a50.91,50.91,0,0,0-3.52-15.12,42.11,42.11,0,0,0-16.76-19.83,201.91,201.91,0,0,0-18.13-9.81c-3.92-2-7.83-4-11.56-6.34a16.58,16.58,0,0,1-6.93-7.43,39.9,39.9,0,0,1-3.15-12.49,55.41,55.41,0,0,1,2.58-21.06,19.28,19.28,0,0,1,14.38-13.76,34.28,34.28,0,0,1,21,.9c9.89,3.7,17,10.58,22.09,19.67a73.79,73.79,0,0,1,6.24,15.8c1.19,4.14,2.26,8.32,3.41,12.48a8.62,8.62,0,0,0,1.5,3.5c.9,1.05,1.81,1.11,3.49.57,1.18-.38,1.33-1.14,1.32-2.19C367.25,514.79,367.27,512,367.27,509.19Z" transform="translate(-0.48 -0.36)"/><path class="cls-2" d="M479.19,578.29a2.09,2.09,0,0,1,1.78,2.43c0,.32,0,.64,0,1q0,25.9,0,51.81c0,2.69-.12,2.84-2.33,3.34,0-6.77,0-13.54.06-20.31q.15-18,.38-36.09C479.09,579.72,479.15,579,479.19,578.29Z" transform="translate(-0.48 -0.36)"/><path class="cls-1" d="M750.68,461.12c-3.36.27-7.25-.36-11.15-.58a290.3,290.3,0,0,0-35.71.47c-10.85.71-21.7,1.34-32.54,2.13-14.45,1-28.92.78-43.39.94-7.83.08-15.63.92-23.43,1.7-9.32.93-18.66,1.14-28,1.25a212,212,0,0,0-28,1.7,10.27,10.27,0,0,1-1.2.07,1.68,1.68,0,0,1-1.71-1.06,1.72,1.72,0,0,1,.52-2.16,9.34,9.34,0,0,1,1.84-1.1c5.64-2.88,11.66-4.82,17.52-7.13,30.82-12.18,62.62-21.15,94.82-28.79,17.25-4.09,34.53-8.07,51.87-11.74,8-1.68,16-2.86,23.91-5,2.31-.63,4.6-1.32,6.89-2,2.94-.93,4.1-.34,4.85,2.69,1.17,4.73,2.26,9.47,3.4,14.21,2.34,9.79,4.6,19.59,7.07,29.34,1.34,5.29-.5,5.34-4.12,5.13C753.18,461.07,752.22,461.12,750.68,461.12Z" transform="translate(-0.48 -0.36)"/><path class="cls-1" d="M775.62,555.65c-.08.31-.2.86-.34,1.4q-4.46,17.41-8.92,34.82c-1.1,4.25-2.06,4.72-6.08,3A220.13,220.13,0,0,0,732.7,586c-11.26-3-22.48-6.22-33.46-10.19-11.59-4.19-23.6-7-35.6-9.65-16.8-3.76-33.11-9.1-49.28-14.92-13.61-4.9-27.21-9.82-40.51-15.51-5.69-2.43-11.78-3.51-17.76-4.92-6.69-1.58-13.29-3.5-19.9-5.35-2.08-.58-2.77-1.59-2.46-3.21a1.38,1.38,0,0,1,1.67-1.29c10.18,1.15,20.42,1.09,30.63,1.7,21.17,1.27,42.21,3.5,63,7.89,16,3.36,32,6.08,48.16,8.44,17.63,2.58,35.27,5.1,52.9,7.7,10.91,1.61,21.8,3.36,32.7,5,3.08.46,6.19.77,9.28,1.14a9.42,9.42,0,0,1,2.12.38A2.14,2.14,0,0,1,775.62,555.65Z" transform="translate(-0.48 -0.36)"/><path class="cls-1" d="M705.23,685.85c0,1.59-.95,2.57-1.9,3.54-2.7,2.73-5.44,5.42-8.13,8.15q-9.17,9.32-18.31,18.66a17.73,17.73,0,0,1-2.11,2c-1.48,1.08-2.49,1-3.87-.2a11.27,11.27,0,0,1-.85-.85c-21.25-22.73-43.54-44.42-65.93-66-9.84-9.5-19-19.63-28.49-29.5-5.32-5.54-10.82-10.89-16.33-16.23-10.07-9.77-18.9-20.62-27.36-31.78-1.35-1.78-2.41-3.77-3.61-5.66-.51-.8-.79-1.65,0-2.41a2,2,0,0,1,2.44-.29,44.55,44.55,0,0,1,6.86,3.92q27,18.23,53.49,37.34c22.05,15.89,44.41,31.35,66.49,47.21,13.21,9.48,27.1,17.84,41,26.25,1.64,1,3.28,2,4.87,3.07A3.42,3.42,0,0,1,705.23,685.85Z" transform="translate(-0.48 -0.36)"/><path class="cls-1" d="M367.27,509.19c0,2.8,0,5.6,0,8.4,0,1.05-.14,1.81-1.32,2.19-1.68.54-2.59.49-3.49-.57a8.62,8.62,0,0,1-1.5-3.5c-1.14-4.16-2.21-8.34-3.41-12.48a73.79,73.79,0,0,0-6.24-15.8c-5.09-9.09-12.2-16-22.09-19.67a34.28,34.28,0,0,0-21-.9,19.28,19.28,0,0,0-14.38,13.76,55.41,55.41,0,0,0-2.58,21.06,39.9,39.9,0,0,0,3.15,12.49,16.58,16.58,0,0,0,6.93,7.43c3.74,2.33,7.64,4.35,11.56,6.34a201.91,201.91,0,0,1,18.13,9.81,42.11,42.11,0,0,1,16.76,19.83,50.91,50.91,0,0,1,3.52,15.12c.62,7.33,1.18,14.66,1.76,22a7.11,7.11,0,0,1-.65,4c-1.15,2.19-.44,4,1,5.7s3.29,1.67,5.24,1.06A29.14,29.14,0,0,0,369.6,599a137.43,137.43,0,0,0,16.49-17.39,15.31,15.31,0,0,1,1.93-2.12,2.91,2.91,0,0,1,3.35-.46c1.14.54,1.21,1.55,1.21,2.64,0,1.28.06,2.56.12,3.83A25.15,25.15,0,0,1,390,598.07a39.93,39.93,0,0,1-5.54,8.38c-10.12,11.79-20.82,23-32.91,32.83a58,58,0,0,1-10.28,7,72.78,72.78,0,0,0-9.33,5.78c-4,2.81-8.47,4.23-12.92,5.52a37.12,37.12,0,0,1-15.18.9,53.25,53.25,0,0,1-8.4-1.77c-2.58-.77-4.77-2.21-7.1-3.43a3.51,3.51,0,0,1-1.23-1.12,54,54,0,0,1-4.22-7,10.53,10.53,0,0,1-.29-8.16,10.6,10.6,0,0,0,.54-3.53c0-14.64,0-29.28,0-43.91a15.79,15.79,0,0,0-4.53-11.43,25.68,25.68,0,0,0-12.46-7.69c-3.53-.93-6.6-2.8-9.89-4.23-8.18-3.55-15-9.07-21.64-14.88a12.43,12.43,0,0,1-4.3-8.57c-.89-10.29-1-20.6-.91-30.92.12-12.24,1-24.44,2.28-36.61.53-5,.77-10,1-15.07.32-6.15,1-12.26,1.78-18.37.52-4,.87-8.11,1-12.18a203.86,203.86,0,0,1,2.68-24.77,55.07,55.07,0,0,0,.69-7.4c.35-11.83,2.7-23.32,5.92-34.65a152.73,152.73,0,0,1,32.93-60,89,89,0,0,1,34.77-24.09c17.09-6.69,34.8-10.22,53.2-9.47a89.73,89.73,0,0,1,36.52,9,68.7,68.7,0,0,1,22,17.2,123.34,123.34,0,0,1,25.72,47.74,88.14,88.14,0,0,1,1.85,39.43c-.66,3.63-.62,7.33-1,11a21.23,21.23,0,0,1-.9,4.7c-1.89,5.45-3.09,11.07-4.44,16.66a24.55,24.55,0,0,1-.7,2.54,5.64,5.64,0,0,1-.9,1.67,2.26,2.26,0,0,1-2.63.61,1.74,1.74,0,0,1-1.11-1.92,52.75,52.75,0,0,0-.16-5.75,78.14,78.14,0,0,0-2.6-13.15c-1.58-5.62-2.68-11.35-4.16-17-2.2-8.37-5.79-16.24-9.12-24.2a76.56,76.56,0,0,0-6-11.46,56.13,56.13,0,0,0-7.91-9.92c-3.86-3.83-7.62-7.77-11.56-11.51-8.35-7.92-18.54-12.08-29.73-13.9-10.81-1.76-20.8.85-30,6.52A89.94,89.94,0,0,0,302,360.16a220.39,220.39,0,0,0-15.51,55.22,262.58,262.58,0,0,0-2.22,33.24c0,1.52-.16,3-.12,4.55,0,1.94,1.51,2.68,3.11,1.6a57.45,57.45,0,0,1,22.19-8.56,46.5,46.5,0,0,1,28.07,3.72,32,32,0,0,1,14.69,13c5.16,8.59,9.73,17.45,12.11,27.28a18,18,0,0,0,.62,2.31A39.38,39.38,0,0,1,367.27,509.19Z" transform="translate(-0.48 -0.36)"/></svg>