<?xml version="1.0" encoding="utf-8"?>
<!-- Generator: Adobe Illustrator 19.1.0, SVG Export Plug-In . SVG Version: 6.00 Build 0)  -->
<svg version="1.1" id="Layer_1" xmlns="http://www.w3.org/2000/svg" xmlns:xlink="http://www.w3.org/1999/xlink" x="0px" y="0px"
	 viewBox="-338 240.1 114.7 133.9" style="enable-background:new -338 240.1 114.7 133.9;" xml:space="preserve">
<style type="text/css">
	.st0{fill:#FFFFFF;}
	.st1{fill:none;stroke:#000000;stroke-width:4;stroke-linecap:round;stroke-linejoin:round;}
	.st2{fill:#28B45F;stroke:#000000;stroke-width:4;stroke-linecap:round;stroke-linejoin:round;}
</style>
<g>
	<g>
		<polygon class="st0" points="-281.6,308.1 -291.5,298.2 -291.5,303.5 -301.8,303.5 -301.8,293.1 -296.6,293.1 -306.6,283.1 
			-316.6,293.1 -311.2,293.1 -311.2,303.5 -321.5,303.5 -321.5,298.1 -331.6,308.1 -321.7,318.1 -321.7,312.6 -311.4,312.6 
			-311.4,323 -316.8,323 -306.6,333.1 -296.4,323 -301.8,323 -301.8,312.6 -291.5,312.6 -291.5,318.1 		"/>
	</g>
	<g>
		<polygon class="st1" points="-281.6,308.1 -291.5,298.2 -291.5,303.5 -301.8,303.5 -301.8,293.1 -296.6,293.1 -306.6,283.1 
			-316.6,293.1 -311.2,293.1 -311.2,303.5 -321.5,303.5 -321.5,298.1 -331.6,308.1 -321.7,318.1 -321.7,312.6 -311.4,312.6 
			-311.4,323 -316.8,323 -306.6,333.1 -296.4,323 -301.8,323 -301.8,312.6 -291.5,312.6 -291.5,318.1 		"/>
	</g>
</g>
<polygon class="st2" points="-272.5,304.1 -272.5,364.1 -253.7,345.3 -228.1,345.3 "/>
</svg>
