<?xml version="1.0" encoding="utf-8"?>
<!-- Generator: Adobe Illustrator 19.1.0, SVG Export Plug-In . SVG Version: 6.00 Build 0)  -->
<svg version="1.1" id="Layer_1" xmlns="http://www.w3.org/2000/svg" xmlns:xlink="http://www.w3.org/1999/xlink" x="0px" y="0px"
	 viewBox="-338 240.1 114.7 133.9" style="enable-background:new -338 240.1 114.7 133.9;" xml:space="preserve">
<style type="text/css">
	.st0{fill:#FFFFFF;}
	.st1{fill:none;stroke:#000000;stroke-width:4;stroke-linecap:round;stroke-linejoin:round;}
</style>
<g>
	<g>
		<path class="st0" d="M-255.1,312.5c-13.8,0-25,11.2-25,25s11.2,25,25,25s25-11.2,25-25S-241.4,312.5-255.1,312.5z M-255.1,350.6
			c-7.2,0-13.1-5.8-13.1-13.1s5.8-13.1,13.1-13.1c7.2,0,13.1,5.8,13.1,13.1S-247.9,350.6-255.1,350.6z"/>
	</g>
	<g>
		<path class="st1" d="M-255.1,312.5c-13.8,0-25,11.2-25,25s11.2,25,25,25s25-11.2,25-25S-241.4,312.5-255.1,312.5z M-255.1,350.6
			c-7.2,0-13.1-5.8-13.1-13.1s5.8-13.1,13.1-13.1c7.2,0,13.1,5.8,13.1,13.1S-247.9,350.6-255.1,350.6z"/>
	</g>
</g>
<g>
	<g>
		<polygon class="st0" points="-284,311 -293.9,301.1 -293.9,306.4 -304.2,306.4 -304.2,296 -299,296 -309,286 -319,296 -313.6,296 
			-313.6,306.4 -323.9,306.4 -323.9,301 -334,311 -324.1,321 -324.1,315.5 -313.8,315.5 -313.8,325.9 -319.2,325.9 -309,336 
			-298.8,325.9 -304.2,325.9 -304.2,315.5 -293.9,315.5 -293.9,321 		"/>
	</g>
	<g>
		<polygon class="st1" points="-284,311 -293.9,301.1 -293.9,306.4 -304.2,306.4 -304.2,296 -299,296 -309,286 -319,296 -313.6,296 
			-313.6,306.4 -323.9,306.4 -323.9,301 -334,311 -324.1,321 -324.1,315.5 -313.8,315.5 -313.8,325.9 -319.2,325.9 -309,336 
			-298.8,325.9 -304.2,325.9 -304.2,315.5 -293.9,315.5 -293.9,321 		"/>
	</g>
</g>
</svg>
