<?xml version="1.0" encoding="UTF-8" standalone="no"?>
<!-- Generator: Adobe Illustrator 13.0.0, SVG Export Plug-In . SVG Version: 6.00 Build 14948)  -->

<svg
   xmlns:dc="http://purl.org/dc/elements/1.1/"
   xmlns:cc="http://creativecommons.org/ns#"
   xmlns:rdf="http://www.w3.org/1999/02/22-rdf-syntax-ns#"
   xmlns:svg="http://www.w3.org/2000/svg"
   xmlns="http://www.w3.org/2000/svg"
   xmlns:sodipodi="http://sodipodi.sourceforge.net/DTD/sodipodi-0.dtd"
   xmlns:inkscape="http://www.inkscape.org/namespaces/inkscape"
   version="1.1"
   id="Layer_1"
   x="0px"
   y="0px"
   width="320"
   height="255"
   viewBox="0 0 320 255"
   enable-background="new 0 0 512 512"
   xml:space="preserve"
   sodipodi:docname="tilecontent-partition.svg"
   inkscape:version="0.92.2 (unknown)"><metadata
     id="metadata13"><rdf:RDF><cc:Work
         rdf:about=""><dc:format>image/svg+xml</dc:format><dc:type
           rdf:resource="http://purl.org/dc/dcmitype/StillImage" /><dc:title /></cc:Work></rdf:RDF></metadata><defs
     id="defs11" /><sodipodi:namedview
     pagecolor="#ffffff"
     bordercolor="#666666"
     borderopacity="1"
     objecttolerance="10"
     gridtolerance="10"
     guidetolerance="10"
     inkscape:pageopacity="0"
     inkscape:pageshadow="2"
     inkscape:window-width="3066"
     inkscape:window-height="1689"
     id="namedview9"
     showgrid="false"
     inkscape:pagecheckerboard="true"
     inkscape:zoom="1.84375"
     inkscape:cx="-30.81279"
     inkscape:cy="122.36343"
     inkscape:window-x="134"
     inkscape:window-y="55"
     inkscape:window-maximized="1"
     inkscape:current-layer="Layer_1" /><g
     id="g6"
     transform="matrix(0.85811246,0,0,0.85811246,-57.960565,-91.318677)"><g
       id="g4"><path
         d="m 77.5,129.5 v 251 h 353 v -251 z m 85.937,227 H 97.5 v -52 h 65.937 z m -57.937,-70 v -60 h 49.937 v 60 z m 57.937,-74 H 97.5 v -60 h 65.937 z m 81.321,130 h -65.936 v -24 h 65.936 z m 0,-56 h -65.936 v -60 h 65.936 z m 0,-84 h -65.936 v -40 h 65.936 z m 82.421,151 h -65.937 v -46 h 65.937 z m -48.937,-67 v -60 h 31.937 v 60 z m 48.937,-74 h -65.937 v -60 h 65.937 z m 76.321,148 h -55.938 v -60 H 403.5 Z m 5,-74 h -65.938 v -60 H 408.5 Z m 0,-80 h -65.938 v -48 H 408.5 Z"
         id="path2"
         inkscape:connector-curvature="0"
         style="fill:#ffffff" /></g></g></svg>