<?xml version="1.0" encoding="utf-8"?>
<!-- Generator: Adobe Illustrator 19.1.0, SVG Export Plug-In . SVG Version: 6.00 Build 0)  -->
<svg version="1.1" id="Layer_1" xmlns="http://www.w3.org/2000/svg" xmlns:xlink="http://www.w3.org/1999/xlink" x="0px" y="0px"
	 viewBox="-320 240.1 149.5 133.9" style="enable-background:new -320 240.1 149.5 133.9;" xml:space="preserve">
<style type="text/css">
	.st0{fill:none;stroke:#000000;stroke-width:6;stroke-miterlimit:10;}
	.st1{fill:#FFFFFF;}
	.st2{clip-path:url(#SVGID_3_);fill:#FFFFFF;}
	.st3{stroke:#000000;stroke-miterlimit:10;}
	.st4{fill:#28B45F;stroke:#000000;stroke-miterlimit:10;}
	.st5{fill:none;stroke:#000000;stroke-width:2;stroke-miterlimit:10;}
</style>
<path class="st0" d="M-315.5,266.4v-21.1h45.1c0,0,7.8,0.1,23.9,0.1c9.4,0,18.7-0.1,29.2-0.1c13.6,0,42,0,42,0s-0.2,12.6-0.2,20.1
	s0,14.7,0.1,25.6c0,10.9,0.1,25.6,0.1,48.1s-35.1,30.8-70.1,31s-70.1-7.6-70.1-29.7c0-17.2,0-35.8,0-49.9
	C-315.4,276.4-315.5,266.4-315.5,266.4z"/>
<g>
	<g>
		<g>
			<g>
				<path id="SVGID_1_" class="st1" d="M-315.5,265.4v-21.1h45.1c0,0,7.8,0.1,23.9,0.1c9.4,0,18.7-0.1,29.2-0.1c13.6,0,42,0,42,0
					s-0.2,12.6-0.2,20.1s0,14.7,0.1,25.6c0,10.9,0.1,25.6,0.1,48.1s-35.1,30.8-70.1,31s-70.1-7.6-70.1-29.7c0-17.2,0-35.8,0-49.9
					C-315.4,275.4-315.5,265.4-315.5,265.4z"/>
			</g>
			<g>
				<defs>
					<path id="SVGID_2_" d="M-315.5,265.4v-21.1h45.1c0,0,7.8,0.1,23.9,0.1c9.4,0,18.7-0.1,29.2-0.1c13.6,0,42,0,42,0
						s-0.2,12.6-0.2,20.1s0,14.7,0.1,25.6c0,10.9,0.1,25.6,0.1,48.1s-35.1,30.8-70.1,31s-70.1-7.6-70.1-29.7c0-17.2,0-35.8,0-49.9
						C-315.4,275.4-315.5,265.4-315.5,265.4z"/>
				</defs>
				<clipPath id="SVGID_3_">
					<use xlink:href="#SVGID_2_"  style="overflow:visible;"/>
				</clipPath>
				<polyline class="st2" points="-176.4,244.2 -315.1,244.2 -315.5,320.1 -315.5,369.1 -176.4,369.1 				"/>
			</g>
		</g>
	</g>
</g>
<rect x="-316.6" y="243.9" class="st3" width="142.8" height="12.7"/>
<g>
	<circle class="st4" cx="-236.5" cy="323.2" r="8.5"/>
	<circle class="st5" cx="-236.5" cy="323.2" r="12"/>
</g>
<g>
	<circle class="st4" cx="-270.5" cy="293.2" r="8.5"/>
	<circle class="st5" cx="-270.5" cy="293.2" r="12"/>
</g>
</svg>
