<?xml version="1.0" encoding="utf-8"?>
<!-- Generator: Adobe Illustrator 19.1.0, SVG Export Plug-In . SVG Version: 6.00 Build 0)  -->
<svg version="1.1" id="Layer_1" xmlns="http://www.w3.org/2000/svg" xmlns:xlink="http://www.w3.org/1999/xlink" x="0px" y="0px"
	 viewBox="-95 129 320 255" style="enable-background:new -95 129 320 255;" xml:space="preserve">
<path fill="rgba(255, 255, 255, 0.5)" stroke="#010101" stroke-miterlimit="10" d="M-85,139v235h300V139H-85z M175,334H-45V179h220V334z"/>
<path fill="rgba(255, 255, 255, 1.0)" stroke="#010101" stroke-miterlimit="10" d="M65,185.5c-49.7,0-90,31.8-90,71s40.3,71,90,71s90-31.8,90-71S114.7,185.5,65,185.5z M-0.6,256.5
	c0-36.3,29.4-65.7,65.7-65.7c11.1,0,21.5,2.7,30.7,7.6l-23.2,23.2c-2.4-0.5-4.9-0.8-7.5-0.8c-19.7,0-35.7,16-35.7,35.7
	c0,2.4,0.2,4.8,0.7,7.1l9.1-9.1l2.2,44l-44-2.2l9.4-9.4C2.1,277.8-0.6,267.5-0.6,256.5z M130.7,256.4c0,36.3-29.4,65.7-65.7,65.7
	c-11.1,0-21.5-2.7-30.7-7.6l23.1-23c2.4,0.5,4.9,0.8,7.5,0.8c19.7,0,35.7-16,35.7-35.7c0-2.5-0.3-5-0.8-7.4l-9.5,9.2l-1.5-44.1
	l44,2.9l-9.4,9.1C128,235.3,130.7,245.5,130.7,256.4z"/>
</svg>
