<?xml version="1.0" encoding="utf-8"?>
<!-- Generator: Adobe Illustrator 19.1.0, SVG Export Plug-In . SVG Version: 6.00 Build 0)  -->
<svg version="1.1" id="Layer_1" xmlns="http://www.w3.org/2000/svg" xmlns:xlink="http://www.w3.org/1999/xlink" x="0px" y="0px"
	 viewBox="0 0 320 255" enable-background="new 0 0 320 255" xml:space="preserve">
	 <path fill="rgba(255, 255, 255, 0.5)" stroke="#010101" stroke-miterlimit="10" d="M10,10.5v235h300v-235H10z M270,205.5H50v-155h220V205.5z"/>
<path fill="rgba(99, 130, 193, 1.0)" stroke="#010101" stroke-miterlimit="10" d="M112.9,175.4l2.5-82.3c5.3-8.8,12.6-5,17.5,0v41.1h2.3v-57.7c4.3-5.2,12.3-5.4,16,0V134h2.3v-55.8
	C156.7,67.7,167,63,170.7,73v59.2h2.7v-45.5c2.5-5.4,9.1-10.2,14.4-3.2v61.9l-17.3,12.1l1.3,2l19.6-13.3h3.1l1.8-27.2l7.6-0.2
	c2.3,2.1,1.4,18.4,1.1,24.7c-0.4,6.2-4.3,24.1-4.3,24.1l-20.7,25L125,194l56,2.2l23.9-26.5c0,0,4.3-19.7,5.8-24.5
	c1.4-4.8,0-24.5,0-26.5c0-2-2.1-5.7-5.8-6.3c-3.7-0.6-10.4,0.4-10.4,0.4v-31.3c-5.4-9.9-15.5-7.8-17.5-6.7
	c0.9-11.1-16.4-19.9-25.6-5.6c0,0-10.6-7.3-21.4,4.9v11.2c-7-4.5-12.2-3.2-19.4,6.5L112.9,175.4z"/>
<path fill="rgba(255, 255, 255, 1.0)" stroke="#010101" stroke-miterlimit="10" d="M125,194l54.9-1.4l20.7-25c0,0,4-17.9,4.3-24.1c0.4-6.2,1.3-22.6-1.1-24.7l-7.6,0.2l-1.8,27.2h-3.1l-19.6,13.3
	l-1.3-2l17.3-12.1v-61.9c-5.3-6.9-11.9-2.2-14.4,3.2v45.5h-2.7V73c-3.7-10-14-5.3-17.1,5.2V134h-2.3v-57.4c-3.7-5.4-11.7-5.2-16,0
	v57.7h-2.3v-41.1c-4.9-5-12.2-8.8-17.5,0l-2.5,82.3L125,194z"/>
</svg>
