<?xml version="1.0" encoding="utf-8"?>
<!-- Generator: Adobe Illustrator 18.1.1, SVG Export Plug-In . SVG Version: 6.00 Build 0)  -->
<svg version="1.1" id="Layer_1" xmlns="http://www.w3.org/2000/svg" xmlns:xlink="http://www.w3.org/1999/xlink" x="0px" y="0px"
	 viewBox="0 0 320 255" enable-background="new 0 0 320 255" xml:space="preserve">
<path fill="rgba(255, 255, 255, 0.5)" stroke="#010101" stroke-miterlimit="10" d="M10,10.5v235h300v-235H10z M270,205.5H50v-155h220V205.5z"/>
<g>
	<path fill="rgba(255, 255, 255, 1.0)" stroke="#010101" stroke-miterlimit="10" d="M227.8,88.7l-44-2.9l1.5,44.1l9.5-9.2c0.5,2.4,0.8,4.9,0.8,7.4
		c0,19.7-16,35.7-35.7,35.7c-2.6,0-5.1-0.3-7.5-0.8l-23.1,23c9.2,4.9,19.6,7.6,30.7,7.6c36.3,0,65.7-29.4,65.7-65.7
		c0-10.9-2.7-21.1-7.3-30.1L227.8,88.7z"/>
	<path fill="rgba(255, 255, 255, 1.0)" stroke="#010101" stroke-miterlimit="10" d="M136.4,170l-2.2-44l-9.1,9.1c-0.5-2.3-0.7-4.7-0.7-7.1
		c0-19.7,16-35.7,35.7-35.7c2.6,0,5.1,0.3,7.5,0.8l23.2-23.2c-9.2-4.9-19.6-7.6-30.7-7.6c-36.3,0-65.7,29.4-65.7,65.7
		c0,11,2.7,21.3,7.4,30.4l-9.4,9.4L136.4,170z"/>
</g>
</svg>
