<?xml version="1.0" encoding="utf-8"?>
<!-- Generator: Adobe Illustrator 19.1.0, SVG Export Plug-In . SVG Version: 6.00 Build 0)  -->
<svg version="1.1" id="Layer_1" xmlns="http://www.w3.org/2000/svg" xmlns:xlink="http://www.w3.org/1999/xlink" x="0px" y="0px"
	viewBox="0 0 320 255" enable-background="new 0 0 320 255" xml:space="preserve">
<path fill="rgba(255, 255, 255, 0.5)" stroke="#010101" stroke-miterlimit="10" d="M10,10.5v235h300v-235H10z M270,205.5H50v-155h220V205.5z"/>
<path fill="rgba(255, 255, 255, 1.0)" stroke="#010101" stroke-miterlimit="10" d="M211.0,121.5c-0.1-1.7-0.3-3.4-0.9-5.3c-0.3-1-0.6-2-1.6-3.2c-0.3-0.3-0.5-0.6-1.2-1l-0.3-0.2
	c-0.2-0.1-0.5-0.2-0.7-0.3c-0.7-0.2-1.3-0.4-1.8-0.4c-3.4-0.4-6.2-0.1-9.2,0.3v-28.6v-0.9l-0.4-0.6c-1.3-1.9-2.6-3-4.3-4.2
	c-1.7-1.1-3.6-1.8-5.7-2.1c-0.5-0.1-1-0.1-1.5-0.1h-0.5h-0.3h-0.6c-1.2,0.1-2,0.3-3,0.6l-0.1-2.3v-0.3v-0.2c-0.4-1.7-1-2.8-1.8-4
	s-1.9-2.2-3.2-3c-2.5-1.6-5.5-2.1-8.1-2c-2.9,0.1-5.8,1.2-7.9,3.1c-1.2,1.1-2.2,2.2-2.9,3.5c-0.8-0.4-1.6-0.7-2.5-1
	c-1-0.3-2-0.5-3-0.7c-1-0.1-1.9-0.3-3.3-0.2c-2.4,0.2-4.4,1.1-6,2.2c-1.7,1.1-3.1,2.2-4.5,3.8l-0.6,0.7v1l0.1,9
	c-0.4-0.2-0.7-0.4-1.1-0.5c-1.9-0.8-4.1-1.5-6.7-1.3c-2.8,0.4-4.6,1.8-6.2,3.2c-1.5,1.4-2.7,2.9-3.9,4.7l-0.3,0.5v0.6
	c0.3,13.1,0.5,26.2,0.9,39.3c0.3,11.5,0.6,22.9,1.1,34.3c0.1,1.6,0.1,3.3,0.2,4.9c0.6-13.1,0.9-26.2,1.3-39.2
	c0.4-12.9,0.6-25.7,0.9-38.6c0.9-1.2,1.9-2.3,3-3.2c1.2-1,2.6-1.8,3.6-1.9c1.1-0.1,2.7,0.3,4.1,1c1.4,0.7,2.9,1.6,4.1,2.6l1.5,1.2
	v38.7h2.3v-36.8l0.4,0.3v-5.2l0.1-12.5c0.8-0.8,1.8-1.5,2.8-2.1c1.2-0.7,2.5-1.3,3.7-1.3c0.3-0.1,1.2,0,1.9,0.1s1.4,0.3,2.1,0.5
	c1.3,0.4,2.8,1.2,3.5,1.8l0.5,0.4v54.9h2.3v-52.9l0.5,0.4l1.4-4c0.5-1.4,1.6-3.1,2.8-4.1c1.2-1.1,2.7-1.6,4.3-1.7
	c1.9-0.1,3.5,0.3,4.7,1.1c0.6,0.4,1.1,0.9,1.6,1.6c0.3,0.4,0.6,1.1,0.8,1.6l0.1,3.9v52.5h2.3v-42.5l3.4-4.8c0.1-0.1,0.5-0.6,0.9-0.8
	c0.4-0.3,0.8-0.5,1.3-0.7c0.4-0.2,1-0.3,1.3-0.3h0.6h0.2h0.1h0.1c0.3,0,0.6,0,0.9,0.1c1.1,0.2,2.2,0.5,3.1,1.2
	c0.7,0.5,1.5,1.2,2,1.8l-0.1,50.8l-0.5,7.5l-16.2,11l1.3,1.8l18.2-12.3l3.5,0.1l1.6-25.7c2.4-0.3,4.8-0.5,6.7-0.2
	c0.2,0,0.4,0,0.5,0.1c0.1,0.2,0.3,0.5,0.4,0.9c0.4,1.2,0.6,2.7,0.7,4.2c0.5,6,0.2,12.5-0.2,18.7v-0.3c-1.5,7.4-2.7,14.9-4.1,22.3
	l-19.6,23.5L156.3,187c-8,0.2-15.9,0.5-23.9,0.8c-0.8,0-1.7,0.1-2.5,0.1c8.4,0.2,17.2,0.5,26,0.8l26.4,0.7h0.7l0.5-0.6l21.5-23.8
	l0.3-0.4l0.1-0.6c1.7-7.5,3.5-15,5.1-22.6v-0.1v-0.1C211.1,134.7,211.4,128.3,211.0,121.5z"/>
</svg>
