<?xml version="1.0" encoding="UTF-8" standalone="no"?>
<!-- Generator: Adobe Illustrator 15.1.0, SVG Export Plug-In . SVG Version: 6.00 Build 0)  -->

<svg
   xmlns:dc="http://purl.org/dc/elements/1.1/"
   xmlns:cc="http://creativecommons.org/ns#"
   xmlns:rdf="http://www.w3.org/1999/02/22-rdf-syntax-ns#"
   xmlns:svg="http://www.w3.org/2000/svg"
   xmlns="http://www.w3.org/2000/svg"
   xmlns:sodipodi="http://sodipodi.sourceforge.net/DTD/sodipodi-0.dtd"
   xmlns:inkscape="http://www.inkscape.org/namespaces/inkscape"
   version="1.1"
   id="Layer_1"
   x="0px"
   y="0px"
   width="512px"
   height="512px"
   viewBox="0 0 512 512"
   enable-background="new 0 0 512 512"
   xml:space="preserve"
   inkscape:version="0.48.2 r9819"
   sodipodi:docname="sunny.svg"><metadata
   id="metadata3060"><rdf:RDF><cc:Work
       rdf:about=""><dc:format>image/svg+xml</dc:format><dc:type
         rdf:resource="http://purl.org/dc/dcmitype/StillImage" /><dc:title></dc:title></cc:Work></rdf:RDF></metadata><defs
   id="defs3058" /><sodipodi:namedview
   pagecolor="#ffffff"
   bordercolor="#666666"
   borderopacity="1"
   objecttolerance="10"
   gridtolerance="10"
   guidetolerance="10"
   inkscape:pageopacity="0"
   inkscape:pageshadow="2"
   inkscape:window-width="1150"
   inkscape:window-height="907"
   id="namedview3056"
   showgrid="false"
   inkscape:zoom="1.3320312"
   inkscape:cx="256"
   inkscape:cy="256"
   inkscape:window-x="0"
   inkscape:window-y="0"
   inkscape:window-maximized="0"
   inkscape:current-layer="Layer_1" />

<g
   id="g3050">
	<g
   id="g3052">
		<path
   fill-rule="evenodd"
   clip-rule="evenodd"
   fill="#1D1D1B"
   d="M256,144c-61.75,0-112,50.25-112,112c0,61.75,50.25,112,112,112    s112-50.25,112-112C368,194.25,317.75,144,256,144z M256,336c-44.188,0-80-35.812-80-80s35.812-80,80-80s80,35.812,80,80    S300.188,336,256,336z M256,112c8.833,0,16-7.167,16-16V64c0-8.833-7.167-16-16-16s-16,7.167-16,16v32    C240,104.833,247.167,112,256,112z M256,400c-8.833,0-16,7.167-16,16v32c0,8.833,7.167,16,16,16s16-7.167,16-16v-32    C272,407.167,264.833,400,256,400z M380.438,154.167l22.625-22.625c6.25-6.25,6.25-16.375,0-22.625    c-6.25-6.25-16.375-6.25-22.625,0l-22.625,22.625c-6.25,6.25-6.25,16.375,0,22.625    C364.062,160.417,374.188,160.417,380.438,154.167z M131.562,357.834l-22.625,22.625c-6.25,6.249-6.25,16.374,0,22.624    s16.375,6.25,22.625,0l22.625-22.624c6.25-6.271,6.25-16.376,0-22.625C147.938,351.583,137.812,351.562,131.562,357.834z M112,256    c0-8.833-7.167-16-16-16H64c-8.833,0-16,7.167-16,16s7.167,16,16,16h32C104.833,272,112,264.833,112,256z M448,240h-32    c-8.833,0-16,7.167-16,16s7.167,16,16,16h32c8.833,0,16-7.167,16-16S456.833,240,448,240z M131.541,154.167    c6.251,6.25,16.376,6.25,22.625,0c6.251-6.25,6.251-16.375,0-22.625l-22.625-22.625c-6.25-6.25-16.374-6.25-22.625,0    c-6.25,6.25-6.25,16.375,0,22.625L131.541,154.167z M380.459,357.812c-6.271-6.25-16.376-6.25-22.625,0    c-6.251,6.25-6.271,16.375,0,22.625l22.625,22.625c6.249,6.25,16.374,6.25,22.624,0s6.25-16.374,0-22.625L380.459,357.812z"
   id="path3054" />
	</g>
</g>
<path
   style="fill:#ffff00;fill-opacity:1;fill-rule:nonzero;stroke:#000000;stroke-width:0.75073314000000002;stroke-opacity:1"
   d="m 240.25041,333.85817 c -16.51462,-3.46791 -30.32336,-11.17177 -41.93157,-23.39352 -27.86114,-29.33374 -29.13638,-74.60837 -2.97713,-105.69698 29.21988,-34.72598 81.76831,-37.81483 114.8434,-6.75062 25.52234,23.97065 32.52632,61.80703 17.16764,92.74189 -9.61895,19.37412 -26.0723,33.80401 -46.52466,40.80297 -11.70652,4.00606 -28.03506,4.93008 -40.57768,2.29626 l 0,0 z"
   id="path3062"
   inkscape:connector-curvature="0" /></svg>