<?xml version="1.0" encoding="UTF-8" standalone="no"?>
<!-- Generator: Adobe Illustrator 15.1.0, SVG Export Plug-In . SVG Version: 6.00 Build 0)  -->

<svg
   xmlns:dc="http://purl.org/dc/elements/1.1/"
   xmlns:cc="http://creativecommons.org/ns#"
   xmlns:rdf="http://www.w3.org/1999/02/22-rdf-syntax-ns#"
   xmlns:svg="http://www.w3.org/2000/svg"
   xmlns="http://www.w3.org/2000/svg"
   xmlns:sodipodi="http://sodipodi.sourceforge.net/DTD/sodipodi-0.dtd"
   xmlns:inkscape="http://www.inkscape.org/namespaces/inkscape"
   version="1.1"
   id="Layer_1"
   x="0px"
   y="0px"
   width="512px"
   height="512px"
   viewBox="0 0 512 512"
   enable-background="new 0 0 512 512"
   xml:space="preserve"
   inkscape:version="0.48.2 r9819"
   sodipodi:docname="cloidy.svg"><metadata
   id="metadata3126"><rdf:RDF><cc:Work
       rdf:about=""><dc:format>image/svg+xml</dc:format><dc:type
         rdf:resource="http://purl.org/dc/dcmitype/StillImage" /></cc:Work></rdf:RDF></metadata><defs
   id="defs3124" /><sodipodi:namedview
   pagecolor="#ffffff"
   bordercolor="#666666"
   borderopacity="1"
   objecttolerance="10"
   gridtolerance="10"
   guidetolerance="10"
   inkscape:pageopacity="0"
   inkscape:pageshadow="2"
   inkscape:window-width="1155"
   inkscape:window-height="825"
   id="namedview3122"
   showgrid="false"
   inkscape:zoom="1.3037281"
   inkscape:cx="213.78296"
   inkscape:cy="244.28357"
   inkscape:window-x="0"
   inkscape:window-y="0"
   inkscape:window-maximized="0"
   inkscape:current-layer="Layer_1"
   inkscape:snap-center="true" />

<path
   fill-rule="evenodd"
   clip-rule="evenodd"
   fill="#1D1D1B"
   d="M400,160c-5.312,0-10.562,0.375-15.792,1.125  C354.334,120.417,307.188,96,256,96s-98.312,24.417-128.208,65.125C122.562,160.375,117.312,160,112,160C50.25,160,0,210.25,0,272  c0,61.75,50.25,112,112,112c13.688,0,27.084-2.5,39.709-7.333C180.666,401.917,217.5,416,256,416  c38.542,0,75.333-14.083,104.291-39.333C372.916,381.5,386.312,384,400,384c61.75,0,112-50.25,112-112  C512,210.25,461.75,160,400,160z M400,352c-17.125,0-32.916-5.5-45.938-14.667C330.584,365.624,295.624,384,256,384  c-39.625,0-74.584-18.376-98.062-46.667C144.938,346.5,129.125,352,112,352c-44.188,0-80-35.812-80-80s35.812-80,80-80  c10.812,0,21.062,2.208,30.438,6.083C163.667,156.667,206.291,128,256,128s92.334,28.667,113.541,70.083  C378.938,194.208,389.209,192,400,192c44.188,0,80,35.812,80,80S444.188,352,400,352z"
   id="path3120" />
<path
   style="fill:#cccccc;fill-opacity:1;fill-rule:nonzero;stroke:#000000;stroke-width:0.76703107;stroke-opacity:1"
   d="m 247.76244,383.33319 c -31.80293,-2.63141 -58.76998,-15.24877 -81.7853,-38.26576 l -8.15033,-8.15091 -3.0125,1.90171 c -5.53858,3.49635 -13.61028,7.24227 -19.83707,9.206 -31.28474,9.8662 -66.096985,-1.54884 -86.493252,-28.36137 -17.073389,-22.44435 -20.668335,-53.40191 -9.225488,-79.44447 7.583857,-17.25996 22.490484,-32.53802 39.411216,-40.39325 16.628217,-7.71943 37.552554,-9.31905 54.914184,-4.19809 3.7368,1.1022 7.37392,2.17118 8.08247,2.37551 0.92272,0.2661 1.76828,-0.57488 2.97986,-2.9637 5.77689,-11.3901 19.79044,-28.32211 30.93485,-37.37733 16.19477,-13.15882 35.60933,-22.63587 54.17847,-26.44677 53.37905,-10.95485 106.40297,12.37128 134.94557,59.36485 2.07267,3.41252 3.90385,6.61066 4.06929,7.10697 0.21542,0.64627 1.80746,0.42354 5.60908,-0.78472 12.3013,-3.90967 21.46772,-5.01018 32.91482,-3.95171 10.42799,0.96423 17.61949,3.02852 27.61972,7.92812 24.84939,12.17494 40.86114,35.09303 44.12356,63.15543 1.75098,15.06133 -1.55651,31.80466 -8.97014,45.40922 -10.72113,19.67405 -28.87937,33.86293 -50.78638,39.68455 -10.14342,2.69553 -27.05269,2.88319 -36.90867,0.40961 -8.2147,-2.06167 -16.17407,-5.29805 -22.99378,-9.34956 l -5.31269,-3.15621 -8.66594,8.64146 c -21.97747,21.91539 -48.5371,34.5675 -78.46577,37.37844 -8.11158,0.76185 -12.58176,0.82758 -19.17578,0.28198 z"
   id="path3130"
   inkscape:connector-curvature="0" /></svg>