<?xml version="1.0" encoding="UTF-8" standalone="no"?>
<!-- Generator: Adobe Illustrator 15.1.0, SVG Export Plug-In . SVG Version: 6.00 Build 0)  -->

<svg
   xmlns:dc="http://purl.org/dc/elements/1.1/"
   xmlns:cc="http://creativecommons.org/ns#"
   xmlns:rdf="http://www.w3.org/1999/02/22-rdf-syntax-ns#"
   xmlns:svg="http://www.w3.org/2000/svg"
   xmlns="http://www.w3.org/2000/svg"
   xmlns:sodipodi="http://sodipodi.sourceforge.net/DTD/sodipodi-0.dtd"
   xmlns:inkscape="http://www.inkscape.org/namespaces/inkscape"
   version="1.1"
   id="Layer_1"
   x="0px"
   y="0px"
   width="512px"
   height="512px"
   viewBox="0 0 512 512"
   enable-background="new 0 0 512 512"
   xml:space="preserve"
   inkscape:version="0.48.2 r9819"
   sodipodi:docname="clear-night.svg"><metadata
   id="metadata3071"><rdf:RDF><cc:Work
       rdf:about=""><dc:format>image/svg+xml</dc:format><dc:type
         rdf:resource="http://purl.org/dc/dcmitype/StillImage" /></cc:Work></rdf:RDF></metadata><defs
   id="defs3069" /><sodipodi:namedview
   pagecolor="#ffffff"
   bordercolor="#666666"
   borderopacity="1"
   objecttolerance="10"
   gridtolerance="10"
   guidetolerance="10"
   inkscape:pageopacity="0"
   inkscape:pageshadow="2"
   inkscape:window-width="1117"
   inkscape:window-height="845"
   id="namedview3067"
   showgrid="false"
   inkscape:zoom="3.6875"
   inkscape:cx="256"
   inkscape:cy="256"
   inkscape:window-x="0"
   inkscape:window-y="0"
   inkscape:window-maximized="0"
   inkscape:current-layer="Layer_1" />
<g
   id="Grid_1_">
	<g
   id="Layer_1_1_">

	</g>
</g>
<path
   fill="#1D1D1B"
   d="M349.852,343.15c-49.876,49.916-131.083,49.916-181,0c-49.916-49.917-49.916-131.125,0-181.021  c13.209-13.187,29.312-23.25,47.832-29.812c5.834-2.042,12.293-0.562,16.625,3.792c4.376,4.375,5.855,10.833,3.793,16.625  c-12.542,35.375-4,73.666,22.249,99.917c26.209,26.228,64.501,34.75,99.917,22.25c5.792-2.062,12.271-0.583,16.625,3.792  c4.376,4.333,5.834,10.812,3.771,16.625C373.143,313.838,363.06,329.941,349.852,343.15z M191.477,184.754  c-37.438,37.438-37.438,98.354,0,135.771c40,40.021,108.125,36.417,143-8.167c-35.959,2.25-71.375-10.729-97.75-37.084  c-26.375-26.354-39.333-61.771-37.084-97.729C196.769,179.796,194.039,182.192,191.477,184.754z"
   id="path3065" />
<path
   style="fill:#ffffff;fill-opacity:1;fill-rule:nonzero;stroke:#000000;stroke-width:0.27118644;stroke-opacity:1"
   d="m 254.96949,348.02362 c -23.7882,-1.07616 -46.03594,-10.64447 -62.59983,-26.92294 -7.73233,-7.59909 -13.64538,-15.67825 -18.49001,-25.26339 -5.20154,-10.29127 -8.03313,-19.73208 -9.80114,-32.67797 -0.54765,-4.01002 -0.46533,-17.39128 0.13514,-21.9661 3.2515,-24.7725 14.82085,-46.10924 33.568,-61.9077 l 1.52402,-1.28431 0.14412,9.01974 c 0.14897,9.32355 0.52708,13.61529 1.85785,21.08752 3.10388,17.42813 10.34619,34.91216 20.54104,49.58915 17.72181,25.51317 44.35161,43.92922 74.16549,51.28973 10.90438,2.69211 24.15126,4.12572 33.87058,3.66559 2.2,-0.10415 4,-0.0994 4,0.0106 0,0.11 -0.57698,0.88434 -1.28217,1.72076 -8.86279,10.51205 -18.93465,18.32129 -31.34262,24.30155 -11.06774,5.33432 -24.18767,8.71988 -35.7142,9.21595 -2.01356,0.0867 -4.21017,0.19506 -4.88135,0.24089 -0.67119,0.0458 -3.2339,-0.008 -5.69492,-0.11909 l 0,-10e-6 z"
   id="path3075"
   inkscape:connector-curvature="0" /></svg>