<?xml version="1.0" encoding="UTF-8" standalone="no"?>
<!-- Generator: Adobe Illustrator 15.1.0, SVG Export Plug-In . SVG Version: 6.00 Build 0)  -->

<svg
   xmlns:dc="http://purl.org/dc/elements/1.1/"
   xmlns:cc="http://creativecommons.org/ns#"
   xmlns:rdf="http://www.w3.org/1999/02/22-rdf-syntax-ns#"
   xmlns:svg="http://www.w3.org/2000/svg"
   xmlns="http://www.w3.org/2000/svg"
   xmlns:sodipodi="http://sodipodi.sourceforge.net/DTD/sodipodi-0.dtd"
   xmlns:inkscape="http://www.inkscape.org/namespaces/inkscape"
   version="1.1"
   id="Layer_1"
   x="0px"
   y="0px"
   width="512px"
   height="512px"
   viewBox="0 0 512 512"
   enable-background="new 0 0 512 512"
   xml:space="preserve"
   inkscape:version="0.48.2 r9819"
   sodipodi:docname="storms.svg"><metadata
   id="metadata3517"><rdf:RDF><cc:Work
       rdf:about=""><dc:format>image/svg+xml</dc:format><dc:type
         rdf:resource="http://purl.org/dc/dcmitype/StillImage" /></cc:Work></rdf:RDF></metadata><defs
   id="defs3515" /><sodipodi:namedview
   pagecolor="#ffffff"
   bordercolor="#666666"
   borderopacity="1"
   objecttolerance="10"
   gridtolerance="10"
   guidetolerance="10"
   inkscape:pageopacity="0"
   inkscape:pageshadow="2"
   inkscape:window-width="1048"
   inkscape:window-height="812"
   id="namedview3513"
   showgrid="false"
   inkscape:zoom="0.921875"
   inkscape:cx="256"
   inkscape:cy="256"
   inkscape:window-x="0"
   inkscape:window-y="0"
   inkscape:window-maximized="0"
   inkscape:current-layer="Layer_1" />

<path
   fill="#1D1D1B"
   d="M400,64c-5.312,0-10.562,0.375-15.792,1.125C354.334,24.417,307.188,0,256,0  c-51.188,0-98.312,24.417-128.208,65.125C122.562,64.375,117.312,64,112,64C50.25,64,0,114.25,0,176s50.25,112,112,112  c13.688,0,27.084-2.5,39.709-7.333c21.541,18.771,47.416,31.291,75.104,36.521L192,352l32,32l-32,96l96-96l-32-32l11-32.999  c34.458-2.438,67.125-15.543,93.291-38.334C372.916,285.5,386.312,288,400,288c61.75,0,112-50.25,112-112S461.75,64,400,64z   M400,256c-17.125,0-32.916-5.5-45.938-14.667c-18.938,22.833-45.562,38.625-75.875,44.104L256,288  c-39.625,0-74.584-18.375-98.062-46.667C144.938,250.5,129.125,256,112,256c-44.188,0-80-35.812-80-80s35.812-80,80-80  c10.812,0,21.062,2.208,30.438,6.083C163.667,60.667,206.291,32,256,32s92.334,28.667,113.541,70.083  C378.938,98.208,389.209,96,400,96c44.188,0,80,35.812,80,80S444.188,256,400,256z"
   id="path3511" />
<path
   style="fill:#cccccc;fill-opacity:1;fill-rule:nonzero;stroke:#000000;stroke-width:1.08474576;stroke-opacity:1"
   d="m 235.28136,285.55359 c -25.67598,-4.33834 -50.59092,-17.6043 -69.63595,-37.07766 l -7.80544,-7.98098 -4.39832,2.77653 c -21.05746,13.293 -48.92507,15.49447 -72.194192,5.70319 -16.746527,-7.04669 -32.193367,-21.71093 -40.194402,-38.15801 -5.804955,-11.93278 -8.039115,-21.59364 -8.039115,-34.76242 0,-13.16295 2.238196,-22.84939 8.000476,-34.62439 11.96957,-24.45936 33.947185,-40.32718 61.132463,-44.137596 10.21035,-1.43113 20.52562,-0.537067 31.93681,2.768076 l 8.58915,2.48778 1.70575,-2.840159 c 21.42791,-35.678415 49.10522,-56.234276 87.28229,-64.824309 11.42121,-2.569828 36.53625,-2.543105 48.63743,0.05175 36.12925,7.747206 66.67382,29.714112 85.14887,61.236989 l 3.72602,6.357479 8.98628,-2.716285 c 11.36222,-3.434461 29.90722,-3.840039 40.98628,-0.896368 35.38868,9.402663 59.83534,40.711783 59.80633,76.594653 -0.0444,54.84601 -52.24544,92.70999 -103.90604,75.3681 -4.6693,-1.56743 -11.29665,-4.55505 -14.72743,-6.63914 l -6.2378,-3.78926 -6.13929,6.63116 c -7.7309,8.35032 -22.3148,19.36166 -33.06893,24.96819 -23.60657,12.30699 -55.07336,17.64534 -79.59124,13.50268 l 0,0 z"
   id="path3519"
   inkscape:connector-curvature="0" /></svg>