<?xml version="1.0" encoding="utf-8"?>
<!-- Generator: Adobe Illustrator 13.0.0, SVG Export Plug-In . SVG Version: 6.00 Build 14948)  -->
<!DOCTYPE svg PUBLIC "-//W3C//DTD SVG 1.1//EN" "http://www.w3.org/Graphics/SVG/1.1/DTD/svg11.dtd">
<svg version="1.1" id="Layer_1" xmlns="http://www.w3.org/2000/svg" xmlns:xlink="http://www.w3.org/1999/xlink" x="0px" y="0px"
	 width="512px" height="512px" viewBox="0 0 512 512" enable-background="new 0 0 512 512" xml:space="preserve">
<circle fill="#787878" cx="256" cy="256" r="256"/>
<path fill="#FAFAFA" d="M294.743,301.126c0,0,123.993-89.47,110.248-191.881c-0.321-2.251-1.062-3.72-1.962-4.718
	c-0.965-0.933-2.401-1.705-4.631-2.021C298.335,88.478,210.907,215.344,210.907,215.344c-75.849-9.103-70.327,6.042-104.936,89.148
	c-6.616,15.847,4.105,21.314,15.878,16.844c11.766-4.428,37.745-14.249,37.745-14.249l45.475,46.531c0,0-9.596,26.567-13.932,38.607
	c-4.337,12.062,0.986,23.041,16.479,16.286c81.221-35.435,96.026-29.805,87.128-107.406V301.126z M312.455,197.198
	c-10.507-10.748-10.507-28.17,0-38.93c10.507-10.738,27.521-10.738,38.028,0c10.518,10.738,10.518,28.171,0,38.93
	C339.998,207.967,322.962,207.967,312.455,197.198z"/>
<g>
	<g>
		<path fill="#FFFFFF" d="M138.25,374.25c2.54-17.582,13.322-32.873,17.915-38.719c-2.442-0.668-5.01-1.031-7.665-1.031
			c-16.016,0-23.069,15.562-30,30c-18,37.5-13.5,44.75,29,29c15.018-5.565,30-13.983,30-30c0-3.367-0.58-6.598-1.635-9.604
			C169.448,359.205,154.758,370.948,138.25,374.25z"/>
	</g>
</g>
</svg>
