<?xml version="1.0" encoding="utf-8"?>
<!-- Generator: Adobe Illustrator 13.0.0, SVG Export Plug-In . SVG Version: 6.00 Build 14948)  -->
<!DOCTYPE svg PUBLIC "-//W3C//DTD SVG 1.1//EN" "http://www.w3.org/Graphics/SVG/1.1/DTD/svg11.dtd">
<svg version="1.1" id="Layer_1" xmlns="http://www.w3.org/2000/svg" xmlns:xlink="http://www.w3.org/1999/xlink" x="0px" y="0px"
	 width="512px" height="512px" viewBox="0 0 512 512" enable-background="new 0 0 512 512" xml:space="preserve">
<g>
	<path fill="#FFFFFF" d="M421.5,369.1l0.2-0.1L297.4,244.2l56.399-56.4l50.4-32.5l20-36L401,95.9L365,116l-32.5,50.4l-56.4,56.4
		L220.2,166.6L220,92.4l-75.8-20.3l-8.1,8.1l40.3,40.3L137,159.8l-40.3-40.3l-8.1,8l20.4,75.8l72.1,0.2l-0.4,0.5l57,57.2l-21.1,21.1
		l-13.8-13.8l-21.3,21.3l6.6,6.601c-19.1,7.3-72,60.199-79.3,79.3l-6.6-6.601L80.9,390.4l48.9,48.899l21.3-21.3l-6.7-6.6
		c19.2-7.301,72-60.2,79.3-79.301l6.6,6.601l21.3-21.3L237.8,303.6l21-21L383,407.3l0.2-0.1c10.6,10.2,27.5,10.3,37.899-0.2
		C431.7,396.6,431.7,379.7,421.5,369.1z M411.2,396.9c-4.7,4.699-12.2,4.699-16.9,0c-4.6-4.601-4.7-12.101,0-16.9
		c4.7-4.7,12.2-4.7,16.9,0S415.9,392.3,411.2,396.9z"/>
</g>
</svg>
