<?xml version="1.0" encoding="utf-8"?>
<!-- Generator: Adobe Illustrator 13.0.0, SVG Export Plug-In . SVG Version: 6.00 Build 14948)  -->
<!DOCTYPE svg PUBLIC "-//W3C//DTD SVG 1.1//EN" "http://www.w3.org/Graphics/SVG/1.1/DTD/svg11.dtd">
<svg version="1.1" id="Layer_1" xmlns="http://www.w3.org/2000/svg" xmlns:xlink="http://www.w3.org/1999/xlink" x="0px" y="0px"
	 width="512px" height="512px" viewBox="0 0 512 512" enable-background="new 0 0 512 512" xml:space="preserve">
<g>
	<g>
		<path fill="#FFFFFF" d="M210.952,309.914l-30.718,30.722c-4.57,4.572-4.57,11.979,0.007,16.54c2.284,2.284,5.276,3.43,8.27,3.43
			c2.994,0,5.982-1.146,8.263-3.43l30.729-30.718l30.726,30.718c2.282,2.284,5.27,3.43,8.271,3.43c2.985,0,5.983-1.146,8.269-3.43
			c4.568-4.562,4.568-11.968,0-16.54l-30.718-30.722l30.718-30.727c4.568-4.567,4.568-11.976,0-16.539
			c-4.568-4.569-11.972-4.569-16.541,0L227.5,293.37l-30.729-30.722c-4.568-4.569-11.968-4.569-16.537,0
			c-4.57,4.563-4.57,11.972,0,16.539L210.952,309.914z M326.75,175.837H128.249c-10.175,0-18.449,8.27-18.449,18.443v198.289
			c0,10.167,8.273,18.441,18.449,18.441H326.75c10.173,0,18.452-8.274,18.452-18.441V194.281
			C345.202,184.107,336.923,175.837,326.75,175.837z M300,193.5h23v23h-23V193.5z M271,193.5h23v23h-23V193.5z M324.118,389.934
			H130.877V232.267h193.241V389.934L324.118,389.934z M381.787,101.913H183.284c-10.173,0-18.449,8.27-18.449,18.445V166.6h21.083
			v-8.255h193.237v157.663h-24.572v21.08h27.208c10.177,0,18.448-8.271,18.448-18.443V120.358
			C400.235,110.183,391.96,101.913,381.787,101.913z M349.5,143h-23v-23h23V143z M378.5,143h-23v-23h23V143z"/>
	</g>
</g>
</svg>
