<?xml version="1.0" encoding="utf-8"?>
<!-- Generator: Adobe Illustrator 13.0.0, SVG Export Plug-In . SVG Version: 6.00 Build 14948)  -->
<!DOCTYPE svg PUBLIC "-//W3C//DTD SVG 1.1//EN" "http://www.w3.org/Graphics/SVG/1.1/DTD/svg11.dtd">
<svg version="1.1" id="Layer_1" xmlns="http://www.w3.org/2000/svg" xmlns:xlink="http://www.w3.org/1999/xlink" x="0px" y="0px"
	 width="512px" height="512px" viewBox="0 0 512 512" enable-background="new 0 0 512 512" xml:space="preserve">
<g>
	<path fill="#FFFFFF" d="M454.5,277.7v-47.4l-44.499-15.8c-3.742-14.475-9.513-28.132-16.945-40.695l0.061-0.062l20.295-42.638
		l-33.519-33.518l-42.636,20.294l-0.061,0.061c-12.564-7.433-26.226-13.204-40.696-16.943L280.7,56.5h-47.4L217.5,101
		c-14.473,3.739-28.132,9.51-40.695,16.945l-0.062-0.063l-42.638-20.294l-33.518,33.518l20.294,42.638l0.063,0.061
		c-7.435,12.563-13.206,26.224-16.945,40.696L59.5,230.3v47.4l44.5,15.8c3.739,14.473,9.511,28.132,16.945,40.695l-0.063,0.062
		l-20.294,42.636l33.518,33.519l42.638-20.295l0.061-0.06c12.563,7.433,26.224,13.201,40.696,16.944L233.3,451.5h47.4l15.8-44.499
		c14.473-3.742,28.132-9.513,40.696-16.944l0.061,0.06l42.636,20.295l33.519-33.519l-20.295-42.636l-0.061-0.062
		c7.434-12.563,13.202-26.225,16.945-40.695L454.5,277.7z M257,333c-43.631,0-79-35.37-79-79c0-43.631,35.369-79,79-79
		s79,35.369,79,79S300.631,333,257,333z"/>
</g>
</svg>
