<?xml version="1.0" encoding="utf-8"?>
<!-- Generator: Adobe Illustrator 13.0.0, SVG Export Plug-In . SVG Version: 6.00 Build 14948)  -->
<!DOCTYPE svg PUBLIC "-//W3C//DTD SVG 1.1//EN" "http://www.w3.org/Graphics/SVG/1.1/DTD/svg11.dtd">
<svg version="1.1" id="Layer_1" xmlns="http://www.w3.org/2000/svg" xmlns:xlink="http://www.w3.org/1999/xlink" x="0px" y="0px"
	 width="512px" height="512px" viewBox="0 0 512 512" enable-background="new 0 0 512 512" xml:space="preserve">
<g>
	<g>
		<path fill="#FFFFFF" d="M77.5,129.5v251h353v-251H77.5z M163.437,356.5H97.5v-52h65.937V356.5z M105.5,286.5v-60h49.937v60H105.5z
			 M163.437,212.5H97.5v-60h65.937V212.5z M244.758,342.5h-65.936v-24h65.936V342.5z M244.758,286.5h-65.936v-60h65.936V286.5z
			 M244.758,202.5h-65.936v-40h65.936V202.5z M327.179,353.5h-65.937v-46h65.937V353.5L327.179,353.5z M278.242,286.5v-60h31.937v60
			H278.242z M327.179,212.5h-65.937v-60h65.937V212.5L327.179,212.5z M403.5,360.5h-55.938v-60H403.5V360.5z M408.5,286.5h-65.938
			v-60H408.5V286.5z M408.5,206.5h-65.938v-48H408.5V206.5z"/>
	</g>
</g>
</svg>
