<?xml version="1.0" encoding="utf-8"?>
<!-- Generator: Adobe Illustrator 13.0.0, SVG Export Plug-In . SVG Version: 6.00 Build 14948)  -->
<!DOCTYPE svg PUBLIC "-//W3C//DTD SVG 1.1//EN" "http://www.w3.org/Graphics/SVG/1.1/DTD/svg11.dtd">
<svg version="1.1" id="Layer_1" xmlns="http://www.w3.org/2000/svg" xmlns:xlink="http://www.w3.org/1999/xlink" x="0px" y="0px"
	 width="1264.25px" height="982.254px" viewBox="0 0 1264.25 982.254" enable-background="new 0 0 1264.25 982.254"
	 xml:space="preserve">
<text transform="matrix(1 0 0 1 906.8672 83.1309)" font-family="'Verdana'" font-size="48"> </text>
<path fill="#FFFFFF" stroke="#000000" stroke-width="10" stroke-miterlimit="10" d="M492.125,934.129c0,6.627-5.373,12-12,12h-83.05
	c-6.628,0-12-5.373-12-12v-54c0-6.627,5.372-12,12-12h83.05c6.627,0,12,5.373,12,12V934.129z"/>
<g enable-background="new    ">
	<path d="M427.502,907.498h-19.289c0,1.609,0.242,3.012,0.729,4.207c0.48,1.195,1.146,2.176,1.987,2.938
		c0.812,0.75,1.777,1.312,2.896,1.688s2.348,0.562,3.688,0.562c1.781,0,3.574-0.354,5.384-1.062c1.805-0.711,3.09-1.41,3.854-2.099
		h0.234v4.806c-1.484,0.625-3,1.146-4.547,1.569c-1.552,0.423-3.177,0.634-4.875,0.634c-4.349,0-7.734-1.181-10.177-3.527
		c-2.438-2.351-3.651-5.69-3.651-10.02c0-4.281,1.168-7.685,3.504-10.195c2.336-2.517,5.41-3.773,9.223-3.773
		c3.531,0,6.254,1.031,8.168,3.099c1.914,2.062,2.871,4.987,2.871,8.785L427.502,907.498L427.502,907.498z M423.213,904.123
		c-0.016-2.312-0.598-4.102-1.746-5.367c-1.146-1.265-2.895-1.896-5.238-1.896c-2.354,0-4.233,0.69-5.637,2.086
		c-1.396,1.391-2.188,3.112-2.379,5.18L423.213,904.123L423.213,904.123z"/>
	<path d="M452.885,912.583c0,2.391-0.983,4.352-2.965,5.883c-1.977,1.531-4.676,2.297-8.098,2.297c-1.938,0-3.715-0.229-5.332-0.688
		s-2.978-0.965-4.066-1.517v-4.94h0.234c1.391,1.047,2.938,1.879,4.641,2.496c1.703,0.614,3.336,0.926,4.898,0.926
		c1.938,0,3.453-0.312,4.547-0.938c1.094-0.625,1.641-1.604,1.641-2.948c0-1.031-0.297-1.812-0.891-2.349
		c-0.594-0.529-1.734-0.979-3.422-1.354c-0.625-0.146-1.441-0.31-2.449-0.492c-1.008-0.188-1.926-0.393-2.754-0.609
		c-2.297-0.604-3.926-1.504-4.887-2.684c-0.961-1.182-1.441-2.629-1.441-4.35c0-1.076,0.223-2.097,0.668-3.05
		c0.445-0.95,1.121-1.805,2.027-2.555c0.875-0.734,1.983-1.313,3.34-1.746c1.352-0.43,2.863-0.645,4.535-0.645
		c1.562,0,3.145,0.188,4.746,0.569c1.601,0.387,2.934,0.853,3.996,1.396v4.711h-0.234c-1.125-0.828-2.492-1.527-4.104-2.099
		c-1.605-0.57-3.188-0.854-4.729-0.854c-1.609,0-2.969,0.312-4.078,0.926c-1.109,0.617-1.664,1.535-1.664,2.755
		c0,1.077,0.336,1.895,1.008,2.438c0.656,0.547,1.719,0.992,3.188,1.336c0.812,0.188,1.723,0.375,2.729,0.562
		c1.007,0.188,1.853,0.356,2.521,0.518c2.047,0.469,3.625,1.271,4.729,2.414C452.331,909.146,452.885,910.677,452.885,912.583z"/>
	<path d="M478.549,918.49c-1.469,0.703-2.863,1.25-4.184,1.641c-1.321,0.391-2.728,0.586-4.207,0.586
		c-1.896,0-3.625-0.272-5.203-0.832c-1.578-0.555-2.93-1.395-4.055-2.52c-1.146-1.125-2.023-2.547-2.648-4.271
		c-0.625-1.719-0.938-3.727-0.938-6.021c0-4.281,1.176-7.646,3.522-10.078c2.354-2.438,5.457-3.656,9.316-3.656
		c1.5,0,2.973,0.211,4.418,0.633c1.442,0.423,2.77,0.938,3.973,1.548v4.897h-0.229c-1.349-1.047-2.73-1.852-4.16-2.414
		c-1.435-0.562-2.824-0.844-4.188-0.844c-2.5,0-4.473,0.84-5.918,2.52c-1.44,1.685-2.168,4.146-2.168,7.396
		c0,3.156,0.707,5.582,2.121,7.273c1.414,1.694,3.402,2.546,5.965,2.546c0.896,0,1.797-0.116,2.724-0.354
		c0.922-0.234,1.75-0.539,2.479-0.914c0.646-0.328,1.242-0.676,1.808-1.043c0.562-0.367,1.01-0.685,1.338-0.949h0.229
		L478.549,918.49L478.549,918.49z"/>
</g>
<polygon fill="#28B45F" stroke="#000000" stroke-width="10" stroke-linecap="round" stroke-linejoin="round" points="
	251.638,144.641 251.638,267.975 290.283,229.33 342.905,229.33 "/>
<g>
	<g>
		<path fill="#FFFFFF" d="M931.104,116.044c-15.793,0-28.597,12.803-28.597,28.597c0,15.793,12.804,28.597,28.597,28.597
			c15.796,0,28.6-12.803,28.6-28.597C959.701,128.847,946.896,116.044,931.104,116.044z M931.104,161.572
			c-9.35,0-16.931-7.58-16.931-16.931s7.581-16.931,16.931-16.931c9.354,0,16.934,7.58,16.934,16.931
			C948.035,153.992,940.455,161.572,931.104,161.572z"/>
	</g>
	<g>
		<path fill="none" stroke="#000000" stroke-width="5" d="M931.104,116.044c-15.793,0-28.597,12.803-28.597,28.597
			c0,15.793,12.804,28.597,28.597,28.597c15.796,0,28.6-12.803,28.6-28.597C959.701,128.847,946.896,116.044,931.104,116.044z
			 M931.104,161.572c-9.35,0-16.931-7.58-16.931-16.931s7.581-16.931,16.931-16.931c9.354,0,16.934,7.58,16.934,16.931
			C948.035,153.992,940.455,161.572,931.104,161.572z"/>
	</g>
</g>
<polygon fill="#28B45F" stroke="#000000" stroke-width="10" stroke-linecap="round" stroke-linejoin="round" points="
	931.104,144.641 931.104,267.975 969.748,229.33 1022.371,229.33 "/>
<polygon points="643.203,322.011 643.203,831.129 651.178,821.413 651.178,313.13 "/>
<g>
	<polygon fill="#28B45F" points="77.125,383.38 79.125,358.755 87.25,350.38 110.25,350.255 110.375,370.38 103,383.38 	"/>
	<polygon fill="#FFFFFF" points="112.375,349.13 140.125,349.797 148.458,359.463 149.458,447.797 139.792,466.13 123.792,475.13 
		97.458,473.797 82.125,462.13 76.792,446.463 75.792,385.797 102.208,386.047 104.125,375.463 112.042,371.047 	"/>
	<path fill="none" stroke="#000000" stroke-width="6" stroke-miterlimit="10" d="M76.625,369.63c0-15.5,8-21,20-21
		s20.25-0.083,31.25-0.083c14.167,0,21.75,5.083,21.75,20.083s0.082,28.667,0.082,73.667s-73.082,45.5-73.082,1.333
		C76.625,409.13,76.625,369.63,76.625,369.63z"/>
	
		<line fill="none" stroke="#000000" stroke-width="6" stroke-miterlimit="10" x1="112.125" y1="372.463" x2="112.125" y2="348.797"/>
	<line fill="none" stroke="#000000" stroke-width="6" stroke-miterlimit="10" x1="149.125" y1="385.13" x2="121.125" y2="385.13"/>
	<line fill="none" stroke="#000000" stroke-width="6" stroke-miterlimit="10" x1="104.458" y1="385.13" x2="76.458" y2="385.13"/>
	<path fill="none" stroke="#000000" stroke-width="6" stroke-miterlimit="10" d="M120.125,405.114c0,4.242-3.582,7.683-8,7.683l0,0
		c-4.418,0-8-3.438-8-7.683v-24.969c0-4.243,3.582-7.683,8-7.683l0,0c4.418,0,8,3.439,8,7.683V405.114z"/>
</g>
<g>
	<polygon fill="#28B45F" points="147.75,552.879 146.75,528.254 137.625,519.879 114.625,519.754 114.5,539.879 121.875,552.879 	
		"/>
	<polygon fill="#FFFFFF" points="112.875,519.879 85.125,520.545 76.792,530.213 75.792,618.545 85.458,636.879 101.458,645.879 
		127.792,644.545 143.125,632.879 148.458,617.213 149.458,556.545 123.042,556.795 121.125,546.213 113.208,541.795 	"/>
	<path fill="none" stroke="#000000" stroke-width="6" stroke-miterlimit="10" d="M76.625,539.629c0-15.5,8-21,20-21
		s20.25-0.082,31.25-0.082c14.167,0,21.75,5.082,21.75,20.082s0.082,28.666,0.082,73.668c0,45-73.082,45.5-73.082,1.332
		C76.625,579.129,76.625,539.629,76.625,539.629z"/>
	
		<line fill="none" stroke="#000000" stroke-width="6" stroke-miterlimit="10" x1="112.125" y1="542.463" x2="112.125" y2="518.797"/>
	
		<line fill="none" stroke="#000000" stroke-width="6" stroke-miterlimit="10" x1="149.125" y1="555.129" x2="121.125" y2="555.129"/>
	<line fill="none" stroke="#000000" stroke-width="6" stroke-miterlimit="10" x1="104.458" y1="555.129" x2="76.458" y2="555.129"/>
	<path fill="none" stroke="#000000" stroke-width="6" stroke-miterlimit="10" d="M120.125,575.114c0,4.242-3.582,7.684-8,7.684l0,0
		c-4.418,0-8-3.438-8-7.684v-24.97c0-4.241,3.582-7.688,8-7.688l0,0c4.418,0,8,3.439,8,7.688V575.114z"/>
</g>
<g>
	<path fill="#FFFFFF" stroke="#000000" stroke-width="6" stroke-miterlimit="10" d="M76.625,714.629c0-15.5,8-21,20-21
		s20.25-0.082,31.25-0.082c14.167,0,21.75,5.082,21.75,20.082s0.082,28.666,0.082,73.668c0,45-73.082,45.5-73.082,1.332
		C76.625,754.129,76.625,714.629,76.625,714.629z"/>
	
		<line fill="none" stroke="#000000" stroke-width="6" stroke-miterlimit="10" x1="112.125" y1="717.463" x2="112.125" y2="693.797"/>
	
		<line fill="none" stroke="#000000" stroke-width="6" stroke-miterlimit="10" x1="149.125" y1="730.129" x2="121.125" y2="730.129"/>
	<line fill="none" stroke="#000000" stroke-width="6" stroke-miterlimit="10" x1="104.458" y1="730.129" x2="76.458" y2="730.129"/>
	<path fill="#28B45F" stroke="#000000" stroke-width="6" stroke-miterlimit="10" d="M120.125,750.114c0,4.242-3.582,7.684-8,7.684
		l0,0c-4.418,0-8-3.438-8-7.684v-24.97c0-4.241,3.582-7.688,8-7.688l0,0c4.418,0,8,3.439,8,7.688V750.114z"/>
</g>
<polygon fill="#28B45F" stroke="#000000" stroke-width="2" points="111.899,666.658 132.498,686.52 119.917,686.52 119.917,710.627 
	103.792,710.627 103.792,686.627 91.304,686.627 "/>
<polygon fill="#28B45F" stroke="#000000" stroke-width="2" points="111.901,809.627 91.303,789.766 103.884,789.766 
	103.884,765.658 120.009,765.658 120.009,789.658 132.497,789.658 "/>
<rect x="168.625" y="546.627" fill="none" width="267" height="69"/>
<text transform="matrix(1 0 0 1 203.8281 570.9473)" font-family="'Verdana'" font-size="32">Show / Hide </text>
<text transform="matrix(1 0 0 1 237.8052 609.3467)" font-family="'Verdana'" font-size="32">Widgets</text>
<rect x="755.625" y="531.627" fill="none" width="398" height="120"/>
<text transform="matrix(1 0 0 1 804.3906 555.9473)" font-family="'Verdana'" font-size="32">Mouse &amp; Keyboard </text>
<text transform="matrix(1 0 0 1 830.0391 594.3467)" font-family="'Verdana'" font-size="32">directly control </text>
<text transform="matrix(1 0 0 1 859.4844 632.7471)" font-family="'Verdana'" font-size="32">applications</text>
<rect x="168.625" y="377.627" fill="none" width="267" height="69"/>
<text transform="matrix(1 0 0 1 190.0938 401.9473)" font-family="'Verdana'" font-size="32">Move / Resize </text>
<text transform="matrix(1 0 0 1 230.6797 440.3467)" font-family="'Verdana'" font-size="32">Windows</text>
<rect x="421.2" y="153.793" fill="none" width="448.814" height="131.694"/>
<text transform="matrix(1 0 0 1 505.1943 190.2725)" font-family="'Verdana'" font-size="48">SHIFT+TAB </text>
<text transform="matrix(1 0 0 1 449.1675 247.873)" font-family="'Verdana'" font-size="48">to switch modes</text>
<rect x="26.218" y="48.297" fill="none" width="448.816" height="53.698"/>
<text transform="matrix(1 0 0 1 69.8174 84.7764)" font-family="'Verdana'" font-size="48">Quick Interaction</text>
<rect x="705.686" y="48.297" fill="none" width="448.816" height="53.698"/>
<text transform="matrix(1 0 0 1 754.6172 84.7764)" font-family="'Verdana'" font-size="48">Deep Interaction</text>
<rect x="168.625" y="738.627" fill="none" width="267" height="35.5"/>
<text transform="matrix(1 0 0 1 173.7344 762.9473)" font-family="'Verdana'" font-size="32">Resize Windows</text>
<rect x="523.607" y="892.121" fill="none" width="377.996" height="35.5"/>
<text transform="matrix(1 0 0 1 526.5347 916.4414)" font-family="'Verdana'" font-size="32">Exit Pointer Interaction</text>
<circle fill="#787878" stroke="#C8C8C8" stroke-width="5" cx="521.625" cy="567.627" r="75"/>
<circle fill="none" stroke="#C8C8C8" stroke-width="5" cx="521.625" cy="567.627" r="17"/>
<circle fill="#C8C8C8" cx="491.625" cy="526.627" r="13"/>
<circle fill="#C8C8C8" cx="551.625" cy="526.627" r="13"/>
<circle fill="#C8C8C8" cx="551.625" cy="609.627" r="13"/>
<line fill="none" stroke="#C8C8C8" stroke-width="5" x1="545.292" y1="535.961" x2="532.792" y2="553.127"/>
<line fill="none" stroke="#C8C8C8" stroke-width="5" x1="498.125" y1="536.127" x2="510.792" y2="553.294"/>
<line fill="none" stroke="#C8C8C8" stroke-width="5" x1="544.792" y1="600.794" x2="531.792" y2="582.127"/>
</svg>
