<?xml version="1.0" encoding="utf-8"?>
<!-- Generator: Adobe Illustrator 13.0.0, SVG Export Plug-In . SVG Version: 6.00 Build 14948)  -->
<!DOCTYPE svg PUBLIC "-//W3C//DTD SVG 1.1//EN" "http://www.w3.org/Graphics/SVG/1.1/DTD/svg11.dtd">
<svg version="1.1" id="Layer_1" xmlns="http://www.w3.org/2000/svg" xmlns:xlink="http://www.w3.org/1999/xlink" x="0px" y="0px"
	 width="252px" height="252px" viewBox="0 0 252 252" enable-background="new 0 0 252 252" xml:space="preserve">
<g>
	<g>
		<polygon fill="#FFFFFF" points="238.998,125.25 194.357,80.61 194.357,104.104 147.366,104.104 147.366,57.112 170.859,57.112 
			125.749,12.001 80.638,57.112 105.073,57.112 105.073,104.104 58.083,104.104 58.083,79.668 12.5,125.25 57.143,169.893 
			57.143,145.456 104.134,145.456 104.134,192.448 79.697,192.448 125.749,238.499 171.8,192.448 147.366,192.448 147.366,145.456 
			194.357,145.456 194.357,169.891 		"/>
	</g>
	<g>
		<polygon fill="none" stroke="#000000" stroke-width="16" stroke-linecap="round" stroke-linejoin="round" points="238.998,125.25 
			194.357,80.61 194.357,104.104 147.366,104.104 147.366,57.112 170.859,57.112 125.749,12.001 80.638,57.112 105.073,57.112 
			105.073,104.104 58.083,104.104 58.083,79.668 12.5,125.25 57.143,169.893 57.143,145.456 104.134,145.456 104.134,192.448 
			79.697,192.448 125.749,238.499 171.8,192.448 147.366,192.448 147.366,145.456 194.357,145.456 194.357,169.891 		"/>
	</g>
</g>
</svg>
