<?xml version="1.0" encoding="utf-8"?>
<!-- Generator: Adobe Illustrator 13.0.0, SVG Export Plug-In . SVG Version: 6.00 Build 14948)  -->
<!DOCTYPE svg PUBLIC "-//W3C//DTD SVG 1.1//EN" "http://www.w3.org/Graphics/SVG/1.1/DTD/svg11.dtd">
<svg version="1.1" id="Layer_1" xmlns="http://www.w3.org/2000/svg" xmlns:xlink="http://www.w3.org/1999/xlink" x="0px" y="0px"
	 width="245px" height="245px" viewBox="0 0 245 245" enable-background="new 0 0 245 245" xml:space="preserve">
<g>
	<g>
		<path fill="#FFFFFF" d="M121.75,16C63.346,16,16,63.346,16,121.75S63.346,227.5,121.75,227.5S227.5,180.154,227.5,121.75
			S180.155,16,121.75,16z M121.75,176.992c-30.51,0-55.243-24.732-55.243-55.242s24.733-55.243,55.243-55.243
			s55.242,24.733,55.242,55.243S152.26,176.992,121.75,176.992z"/>
	</g>
	<g>
		<path fill="none" stroke="#000000" stroke-width="16" stroke-linecap="round" stroke-linejoin="round" d="M121.75,16
			C63.346,16,16,63.346,16,121.75S63.346,227.5,121.75,227.5S227.5,180.154,227.5,121.75S180.155,16,121.75,16z M121.75,176.992
			c-30.51,0-55.243-24.732-55.243-55.242s24.733-55.243,55.243-55.243s55.242,24.733,55.242,55.243S152.26,176.992,121.75,176.992z"
			/>
	</g>
</g>
</svg>
