<?xml version="1.0" encoding="UTF-8" standalone="no"?>
<!-- Generator: Adobe Illustrator 15.1.0, SVG Export Plug-In . SVG Version: 6.00 Build 0)  -->

<svg
   xmlns:dc="http://purl.org/dc/elements/1.1/"
   xmlns:cc="http://creativecommons.org/ns#"
   xmlns:rdf="http://www.w3.org/1999/02/22-rdf-syntax-ns#"
   xmlns:svg="http://www.w3.org/2000/svg"
   xmlns="http://www.w3.org/2000/svg"
   xmlns:sodipodi="http://sodipodi.sourceforge.net/DTD/sodipodi-0.dtd"
   xmlns:inkscape="http://www.inkscape.org/namespaces/inkscape"
   version="1.1"
   id="Layer_1"
   x="0px"
   y="0px"
   width="512px"
   height="512px"
   viewBox="0 0 512 512"
   enable-background="new 0 0 512 512"
   xml:space="preserve"
   inkscape:version="0.48.2 r9819"
   sodipodi:docname="mostlycloudy-night.svg"><metadata
   id="metadata3032"><rdf:RDF><cc:Work
       rdf:about=""><dc:format>image/svg+xml</dc:format><dc:type
         rdf:resource="http://purl.org/dc/dcmitype/StillImage" /></cc:Work></rdf:RDF></metadata><defs
   id="defs3030" /><sodipodi:namedview
   pagecolor="#ffffff"
   bordercolor="#666666"
   borderopacity="1"
   objecttolerance="10"
   gridtolerance="10"
   guidetolerance="10"
   inkscape:pageopacity="0"
   inkscape:pageshadow="2"
   inkscape:window-width="1190"
   inkscape:window-height="869"
   id="namedview3028"
   showgrid="false"
   inkscape:zoom="1.84375"
   inkscape:cx="256"
   inkscape:cy="256"
   inkscape:window-x="0"
   inkscape:window-y="0"
   inkscape:window-maximized="0"
   inkscape:current-layer="Layer_1" />
<g
   id="Grid_1_">
	<g
   id="Layer_1_1_">
	</g>
</g>
<path
   fill="#1D1D1B"
   d="M435.062,262.166c4.875-3.625,9.812-7.188,14.229-11.604c13.208-13.229,23.271-29.333,29.792-47.854  c2.083-5.792,0.604-12.292-3.772-16.625c-4.354-4.375-10.812-5.854-16.623-3.792c-35.396,12.5-73.688,4-99.896-22.25  C332.542,133.79,324,95.52,336.542,60.145c2.042-5.813,0.583-12.271-3.792-16.646c-4.333-4.333-10.812-5.834-16.625-3.791  C297.583,46.29,281.5,56.331,268.291,69.54c-33.541,33.5-43.979,81-32.479,123.792c-43.25,5.521-82.125,28.5-108.021,63.793  c-5.229-0.75-10.479-1.125-15.792-1.125c-61.75,0-112,50.25-112,112.001c0,61.749,50.25,111.999,112,111.999  c13.688,0,27.084-2.5,39.709-7.334C180.665,497.916,217.499,512,255.999,512c38.542,0,75.333-14.084,104.291-39.334  C372.915,477.5,386.311,480,399.999,480c61.75,0,112-50.25,112-111.999C512,318.562,479.583,276.979,435.062,262.166z   M290.916,92.166c2.542-2.583,5.271-4.979,8.146-7.229c-2.25,35.979,10.729,71.375,37.104,97.729  c26.376,26.375,61.771,39.333,97.751,37.104c-13.792,17.584-32.792,28.521-53.126,33.188  c-27.375-34.75-67.604-56.625-111.958-60.187C256.562,158.812,263.75,119.333,290.916,92.166z M400,448  c-17.125,0-32.916-5.5-45.938-14.667C330.583,461.625,295.624,480,256,480c-39.625,0-74.584-18.375-98.062-46.667  C144.938,442.5,129.126,448,112,448c-44.188,0-80-35.812-80-79.999c0-44.188,35.812-80,80-80c10.812,0,21.062,2.188,30.438,6.062  c20.188-39.355,59.75-66.896,106.312-69.543c2.438-0.145,4.812-0.521,7.25-0.521c12.916,0,25.312,2.021,37,5.583  c15.791,4.834,30.188,12.708,42.688,22.854c11.938,9.688,21.938,21.562,29.812,34.896c1.333,2.25,2.834,4.375,4.041,6.729  c9.396-3.875,19.668-6.062,30.459-6.062c44.188,0,80,35.812,80,80S444.188,448,400,448z"
   id="path3026" />
<path
   style="fill:#ffffff;fill-opacity:1;fill-rule:nonzero;stroke:#000000;stroke-width:0.54237287999999995;stroke-opacity:1"
   d="M 376.98774,247.87986 C 369.12312,238.62645 356.57236,227.2442 346.4678,220.20143 325.439,205.54457 297.84787,195.31305 272.91146,192.92479 l -3.86141,-0.36982 -1.43371,-4.69782 c -3.29455,-10.79522 -4.40065,-19.75821 -3.95986,-32.08766 0.3311,-9.26119 1.29789,-15.2315 3.8205,-23.59322 4.73275,-15.68764 12.02185,-27.69245 24.20495,-39.864406 l 6.78587,-6.779661 0.34135,10.576271 c 0.33804,10.473756 0.79784,14.811316 2.38412,22.490996 9.87188,47.79283 46.80858,86.1892 94.13526,97.85531 9.20454,2.26894 17.39112,3.35845 28.37072,3.77571 l 9.27702,0.35256 -4.88135,5.086 c -11.06976,11.53382 -23.30319,19.35542 -37.80687,24.1723 -9.57953,3.18149 -8.83602,3.29114 -13.30031,-1.96149 l 0,0 z"
   id="path3034"
   inkscape:connector-curvature="0" /><path
   style="fill:#cccccc;fill-opacity:1;fill-rule:nonzero;stroke:#000000;stroke-width:0.54237287999999995;stroke-opacity:1"
   d="m 242.06102,478.97036 c -13.35847,-1.61853 -29.15692,-6.25088 -40.67797,-11.92738 -13.98533,-6.89069 -25.15583,-15.08267 -36.50205,-26.76911 l -7.00278,-7.21276 -2.92555,1.8693 C 136.60997,446.6506 113.67079,450.49932 92.990725,445.32632 78.760226,441.76666 66.325171,434.69495 55.81511,424.18489 40.478406,408.84818 32.412526,389.35636 32.443367,367.70526 c 0.03509,-24.63535 11.554785,-47.86768 31.12535,-62.77202 8.74408,-6.65921 16.413951,-10.50523 26.937067,-13.50744 7.719772,-2.20242 13.027666,-2.91346 21.656926,-2.90114 8.81734,0.0126 15.89827,1.10026 23.80613,3.65669 3.22097,1.04128 6.08187,1.89323 6.35753,1.89323 0.27566,0 1.3371,-1.52543 2.35875,-3.38983 18.94977,-34.58156 53.82306,-58.87871 92.76573,-64.63235 26.27773,-3.88245 50.01019,-0.307 73.49152,11.07197 12.55534,6.08428 22.76613,13.35926 33.11568,23.59427 7.91875,7.83111 13.19056,14.40026 19.38514,24.15563 2.55019,4.0161 4.98038,7.77356 5.40042,8.34991 0.74758,1.02577 0.87161,1.01232 5.87192,-0.6367 16.76172,-5.52775 34.40224,-5.54298 50.66752,-0.0438 6.42598,2.1726 15.39898,6.78233 21.11126,10.84557 5.76128,4.09809 14.01053,12.35756 18.17756,18.2001 6.0644,8.5028 11.30975,20.37547 13.2772,30.05245 1.9422,9.5528 2.08872,22.19564 0.36053,31.11069 -5.94017,30.64316 -29.17396,55.09796 -59.43502,62.55855 -7.80367,1.92392 -13.1996,2.4349 -22.04984,2.08804 -14.43614,-0.56578 -27.78782,-4.72077 -39.38153,-12.25535 l -3.39747,-2.20797 -2.02626,2.29181 c -12.52088,14.16181 -26.65572,24.90023 -42.70423,32.44298 -10.72612,5.04124 -21.94073,8.53604 -33.8983,10.5637 -6.19894,1.05116 -26.97192,1.50955 -33.35593,0.73605 l 0,3e-5 z"
   id="path3036"
   inkscape:connector-curvature="0" /></svg>