<?xml version="1.0" encoding="UTF-8" standalone="no"?>
<!-- Generator: Adobe Illustrator 15.1.0, SVG Export Plug-In . SVG Version: 6.00 Build 0)  -->

<svg
   xmlns:dc="http://purl.org/dc/elements/1.1/"
   xmlns:cc="http://creativecommons.org/ns#"
   xmlns:rdf="http://www.w3.org/1999/02/22-rdf-syntax-ns#"
   xmlns:svg="http://www.w3.org/2000/svg"
   xmlns="http://www.w3.org/2000/svg"
   xmlns:sodipodi="http://sodipodi.sourceforge.net/DTD/sodipodi-0.dtd"
   xmlns:inkscape="http://www.inkscape.org/namespaces/inkscape"
   version="1.1"
   id="Layer_1"
   x="0px"
   y="0px"
   width="512px"
   height="512px"
   viewBox="0 0 512 512"
   enable-background="new 0 0 512 512"
   xml:space="preserve"
   inkscape:version="0.48.2 r9819"
   sodipodi:docname="hazy.svg"><metadata
   id="metadata3104"><rdf:RDF><cc:Work
       rdf:about=""><dc:format>image/svg+xml</dc:format><dc:type
         rdf:resource="http://purl.org/dc/dcmitype/StillImage" /></cc:Work></rdf:RDF></metadata><defs
   id="defs3102" /><sodipodi:namedview
   pagecolor="#ffffff"
   bordercolor="#666666"
   borderopacity="1"
   objecttolerance="10"
   gridtolerance="10"
   guidetolerance="10"
   inkscape:pageopacity="0"
   inkscape:pageshadow="2"
   inkscape:window-width="1237"
   inkscape:window-height="920"
   id="namedview3100"
   showgrid="false"
   inkscape:snap-center="true"
   inkscape:zoom="1.3037281"
   inkscape:cx="279.86762"
   inkscape:cy="202.66295"
   inkscape:window-x="0"
   inkscape:window-y="0"
   inkscape:window-maximized="0"
   inkscape:current-layer="Layer_1" />

<path
   fill="#1D1D1B"
   d="M512,240.001c0-49.167-40-89.146-89.167-89.146c-2.396,0-4.771,0.104-7.146,0.291  c-23.125-28.854-57.979-45.978-95.688-45.978c-37.688,0-72.562,17.124-95.688,45.979c-2.375-0.188-4.771-0.291-7.188-0.291  C168,150.855,128,190.834,128,240.001c0,5.146,0.688,10.104,1.5,15.042c-0.542,0.708-1.188,1.354-1.708,2.083  c-5.229-0.75-10.479-1.125-15.792-1.125C50.25,256.001,0,306.25,0,368c0,61.751,50.25,112,112,112c13.688,0,27.084-2.5,39.709-7.333  C180.666,497.917,217.5,512,256,512c38.542,0,75.333-14.083,104.291-39.333C372.916,477.5,386.312,480,400,480  c61.75,0,112-50.249,112-112c0-25.688-9.042-49.083-23.666-67.999C502.916,284.105,512,263.168,512,240.001z M400,448  c-17.125,0-32.916-5.499-45.938-14.666C330.583,461.625,295.624,480,256,480c-39.625,0-74.584-18.375-98.062-46.666  C144.938,442.501,129.126,448,112,448c-44.188,0-80-35.812-80-80s35.812-79.999,80-79.999c10.812,0,21.062,2.188,30.438,6.062  c0.562-1.062,1.25-2,1.812-3.021c5.625-10.271,12.562-19.688,20.666-28.042C188,239.084,220.083,224,256,224  c49.709,0,92.334,28.666,113.541,70.062c5.646-2.312,11.668-3.813,17.875-4.812L400,288c12.334,0,23.875,3.042,34.312,8  c11.312,5.416,21.021,13.374,28.646,23.188c10.5,13.521,17.042,30.354,17.042,48.812C480,412.188,444.188,448,400,448z   M465.562,277.625c-18.479-13.458-41-21.624-65.562-21.624c-5.312,0-10.562,0.375-15.792,1.125  c-29.874-40.708-77.021-65.125-128.208-65.125c-34.125,0-66.312,11.042-92.938,30.334c7.479-22.854,28.729-39.479,54.062-39.479  c7.75,0,15.062,1.562,21.75,4.332c15.188-29.562,45.625-50.02,81.125-50.02s65.958,20.457,81.084,50.02  c6.729-2.77,14.083-4.332,21.749-4.332c31.584,0,57.167,25.583,57.167,57.146C480,254.48,474.438,267.542,465.562,277.625z"
   id="path3098" />
<path
   style="fill:#cccccc;fill-opacity:1;fill-rule:nonzero;stroke:#000000;stroke-width:0.76703107;stroke-opacity:1"
   d="m 460.65684,273.91876 c -9.22334,-6.39293 -23.78525,-12.58898 -37.201,-15.82892 -5.33427,-1.28824 -9.51249,-1.6119 -22.97848,-1.78 l -16.45871,-0.20548 -3.77868,-4.78446 c -20.70249,-26.21293 -51.84375,-46.27606 -84.98334,-54.75153 -39.55176,-10.11539 -82.90215,-4.11259 -118.33807,16.38647 -3.76204,2.17627 -7.83758,4.66715 -9.05678,5.5353 -1.21919,0.86814 -2.39826,1.39689 -2.62016,1.17499 -0.70215,-0.70214 2.65841,-7.43478 6.14815,-12.31737 14.54716,-20.3533 40.62949,-29.05057 63.34983,-21.1243 2.30565,0.80435 4.26064,1.46246 4.34442,1.46246 0.0838,0 1.40444,-2.23899 2.93481,-4.97554 8.71783,-15.58894 25.21535,-30.21402 42.52333,-37.69697 19.86464,-8.58832 44.23558,-9.53392 64.29207,-2.49457 19.4579,6.82927 35.97428,19.79326 47.06368,36.9411 2.48409,3.8412 4.60967,7.23927 4.72351,7.55126 0.11385,0.31199 3.14089,-0.32125 6.72676,-1.40721 8.21516,-2.4879 21.23795,-2.79249 29.14718,-0.68172 16.58635,4.42646 29.69257,15.26052 37.21148,30.76029 7.22513,14.89414 7.63198,32.25177 1.08774,46.40538 -2.72394,5.8912 -8.42945,14.59146 -9.52946,14.53132 -0.42522,-0.0232 -2.49894,-1.23847 -4.60828,-2.7005 l 0,0 z"
   id="path3108"
   inkscape:connector-curvature="0" /><path
   style="fill:#cccccc;fill-opacity:1;fill-rule:nonzero;stroke:#000000;stroke-width:0.76703107;stroke-opacity:1"
   d="m 249.33978,479.4009 c -30.93503,-1.69223 -59.81276,-14.84639 -82.62332,-37.63593 -4.75038,-4.74601 -8.77804,-8.6291 -8.95034,-8.6291 -0.17231,0 -2.54837,1.35786 -5.28014,3.01747 -8.62466,5.23966 -17.61769,8.52075 -28.4645,10.38521 -8.51253,1.46321 -14.14872,1.4709 -23.69268,0.0323 -48.229724,-7.26977 -78.484022,-55.40053 -64.125222,-102.01509 4.060416,-13.18177 9.764443,-22.5751 19.820662,-32.64042 13.253369,-13.26538 29.08627,-20.83766 47.97295,-22.94365 11.7111,-1.30586 22.61594,0.1705 37.31783,5.05233 0.85085,0.28252 1.72586,-0.30418 2.62138,-1.75768 7.86645,-12.76783 13.80521,-20.70127 21.24659,-28.38278 19.77624,-20.41439 41.98316,-32.37884 69.78587,-37.5986 11.13221,-2.09 33.67514,-1.89366 44.66865,0.38904 17.80787,3.69764 35.2626,11.22184 49.54628,21.35787 13.80034,9.79305 29.01591,26.78609 37.48228,41.86095 1.36235,2.42574 2.74581,4.41043 3.07437,4.41043 0.32856,0 2.10772,-0.53307 3.95369,-1.18459 9.68412,-3.41796 23.754,-5.17141 33.40652,-4.16327 33.59782,3.50908 61.49126,27.53941 70.15578,60.43954 2.46738,9.36889 2.7597,23.84271 0.68422,33.87796 -9.27453,44.84382 -53.32348,72.86462 -97.09067,61.76216 -6.65101,-1.68717 -17.32557,-6.27982 -24.12585,-10.37998 l -2.68461,-1.61866 -9.25401,9.11753 c -14.81539,14.5969 -31.48118,24.99009 -49.80738,31.06108 -13.60196,4.50598 -31.644,6.95142 -45.63835,6.18589 z"
   id="path3110"
   inkscape:connector-curvature="0" /></svg>