<svg id="Layer_1" data-name="Layer 1" xmlns="http://www.w3.org/2000/svg" viewBox="0 0 512 512"><defs><style>.cls-1{fill:#787878;}.cls-2{fill:#fff;}</style></defs><title>graycircle-webview</title><circle class="cls-1" cx="256" cy="256" r="256"/><path class="cls-2" d="M64.21,114.61V402.35a8.87,8.87,0,0,0,8.87,8.87H440.92a8.87,8.87,0,0,0,8.87-8.87V108.65a8.87,8.87,0,0,0-8.87-8.87H79A14.87,14.87,0,0,0,64.21,114.61Zm101.32,13c8.43,15.64-6,30-21.59,21.59a7.67,7.67,0,0,1-3.08-3.08c-8.43-15.64,6-30,21.59-21.59A7.67,7.67,0,0,1,165.52,127.6Zm44.49,0c8.43,15.64-6,30-21.59,21.59a7.67,7.67,0,0,1-3.08-3.08c-8.43-15.64,6-30,21.59-21.59A7.67,7.67,0,0,1,210,127.6ZM93.87,173.93H420.13V381.56H93.87V173.93Zm2.49-27.82c-8.43-15.64,6-30,21.59-21.59A7.67,7.67,0,0,1,121,127.6c8.43,15.64-6,30-21.59,21.59A7.67,7.67,0,0,1,96.36,146.11Z"/><path class="cls-2" d="M160.1,245.5v24.38h25.72V245.5h14V309h-14V281.62H160.1V309h-14V245.5h14Z"/><path class="cls-2" d="M207.08,257.24V245.5h52.05v11.75h-19V309h-14V257.24h-19Z"/><path class="cls-2" d="M261.45,257.24V245.5H313.5v11.75h-19V309h-14V257.24h-19Z"/><path class="cls-2" d="M349.45,245.5a26.48,26.48,0,0,1,10.14,1.74,18.94,18.94,0,0,1,6.81,4.58,17.6,17.6,0,0,1,3.83,6.5,24.25,24.25,0,0,1,0,15.08,17.52,17.52,0,0,1-3.83,6.54,18.91,18.91,0,0,1-6.81,4.58,26.43,26.43,0,0,1-10.14,1.74H334.77V309h-14V245.5h28.65Zm-3.83,29.9a29.36,29.36,0,0,0,4.63-.36,10.8,10.8,0,0,0,3.92-1.38,7.52,7.52,0,0,0,2.71-2.9,12.21,12.21,0,0,0,0-9.79,7.53,7.53,0,0,0-2.71-2.89,10.8,10.8,0,0,0-3.92-1.38,29.36,29.36,0,0,0-4.63-.35H334.77v19h10.85Z"/></svg>