<?xml version="1.0" encoding="utf-8"?>
<!-- Generator: Adobe Illustrator 13.0.0, SVG Export Plug-In . SVG Version: 6.00 Build 14948)  -->
<!DOCTYPE svg PUBLIC "-//W3C//DTD SVG 1.1//EN" "http://www.w3.org/Graphics/SVG/1.1/DTD/svg11.dtd">
<svg version="1.1" id="Layer_1" xmlns="http://www.w3.org/2000/svg" xmlns:xlink="http://www.w3.org/1999/xlink" x="0px" y="0px"
	 width="512px" height="512px" viewBox="0 0 512 512" enable-background="new 0 0 512 512" xml:space="preserve">
<circle fill="#787878" cx="256" cy="256" r="256"/>
<g>
	<circle fill="#FFFFFF" cx="257.5" cy="254.5" r="82"/>
	<g>
		<g>
			<path fill="#FFFFFF" d="M254.5,140.54v-0.04h164.593c-35.77-51.372-95.249-85-162.593-85c-66.339,0-125.052,32.63-160.982,82.711
				l51.308,88.868C158.872,178.296,202.321,141.887,254.5,140.54z M257.5,368.5c-40.911,0-76.781-21.555-96.893-53.921l-0.016,0.009
				l-0.263-0.455c-1.119-1.818-2.19-3.672-3.208-5.557l-80.107-138.75C65.143,195.245,58.5,223.594,58.5,253.5
				c0,103.451,79.343,188.356,180.493,197.221l50.019-86.636C279.004,366.958,268.432,368.5,257.5,368.5z M437.148,172.333H336.516
				c21.562,20.741,34.984,49.885,34.984,82.167c0,22.411-6.472,43.311-17.643,60.936l-78.014,135.122
				C376.117,440.834,454.5,356.325,454.5,253.5C454.5,224.576,448.295,197.103,437.148,172.333z"/>
		</g>
	</g>
</g>
</svg>
