<?xml version="1.0" encoding="utf-8"?>
<!-- Generator: Adobe Illustrator 13.0.0, SVG Export Plug-In . SVG Version: 6.00 Build 14948)  -->
<!DOCTYPE svg PUBLIC "-//W3C//DTD SVG 1.1//EN" "http://www.w3.org/Graphics/SVG/1.1/DTD/svg11.dtd">
<svg version="1.1" id="Layer_1" xmlns="http://www.w3.org/2000/svg" xmlns:xlink="http://www.w3.org/1999/xlink" x="0px" y="0px"
	 width="512px" height="512px" viewBox="0 0 512 512" enable-background="new 0 0 512 512" xml:space="preserve">
<g>
	<path fill="#FFFFFF" d="M319.698,373.848c0,5.394-12.718,18.021-38.146,37.894c-25.431,19.869-48.418,29.808-68.962,29.808
		c-14.146,0-24.42-3.623-30.819-10.861c-6.402-7.237-9.599-15.408-9.599-24.504c0-5.724,0.841-11.026,2.526-15.914
		c1.682-4.881,3.537-9.853,5.558-14.902l47.996-99.529c2.692-5.725,4.63-10.357,5.81-13.895c1.176-3.535,1.769-6.65,1.769-9.347
		c0-2.692-0.505-4.63-1.516-5.81c-1.011-1.176-2.36-1.768-4.042-1.768c-4.381,0-12.883,6.655-25.514,19.957
		c-12.63,13.307-20.126,19.957-22.482,19.957c-2.696,0-5.392-1.853-8.083-5.559c-2.696-3.703-4.042-6.062-4.042-7.073
		c0-3.366,3.197-8.842,9.599-16.42c6.398-7.579,14.482-15.575,24.251-23.998c8.754-7.744,19.281-14.987,31.576-21.725
		c12.292-6.734,23.152-10.104,32.587-10.104c15.155,0,26.522,4.294,34.104,12.883c7.576,8.589,11.365,18.946,11.365,31.071
		c0,5.052-0.505,10.444-1.516,16.167c-1.011,5.729-3.201,11.62-6.568,17.684l-38.396,84.373c-3.03,7.072-5.223,12.801-6.567,17.178
		c-1.351,4.382-2.021,7.412-2.021,9.095c0,2.021,0.506,3.284,1.517,3.789s2.021,0.758,3.031,0.758
		c7.409,0,16.079-5.305,26.02-15.915c9.935-10.609,16.25-15.914,18.945-15.914c2.354,0,4.883,1.771,7.578,5.305
		C318.349,370.059,319.698,372.501,319.698,373.848z M358.601,113.152c0,12.465-4.464,23.24-13.389,32.334
		c-8.928,9.094-19.79,13.641-32.587,13.641c-12.465,0-23.24-4.547-32.334-13.641c-9.094-9.094-13.641-19.869-13.641-32.334
		c0-12.461,4.547-23.24,13.641-32.334c9.094-9.094,19.869-13.641,32.334-13.641c12.797,0,23.659,4.547,32.587,13.641
		C354.137,89.912,358.601,100.691,358.601,113.152z"/>
</g>
</svg>
