<?xml version="1.0" encoding="utf-8"?>
<!-- Generator: Adobe Illustrator 13.0.0, SVG Export Plug-In . SVG Version: 6.00 Build 14948)  -->
<!DOCTYPE svg PUBLIC "-//W3C//DTD SVG 1.1//EN" "http://www.w3.org/Graphics/SVG/1.1/DTD/svg11.dtd">
<svg version="1.1" id="Layer_1" xmlns="http://www.w3.org/2000/svg" xmlns:xlink="http://www.w3.org/1999/xlink" x="0px" y="0px"
	 width="512px" height="512px" viewBox="0 0 512 512" enable-background="new 0 0 512 512" xml:space="preserve">
<path fill="#FAFAFA" d="M358.812,280.133c-4.245-4.186-13.668-6.415-28.027-6.6c-9.706-0.107-21.407,0.749-33.693,2.473
	c-5.51-3.184-11.186-6.63-15.635-10.797c-11.974-11.186-21.977-26.713-28.217-43.803c0.409-1.592,0.745-2.998,1.076-4.425
	c0,0,6.747-38.337,4.964-51.299c-0.248-1.772-0.398-2.293-0.876-3.68l-0.589-1.504c-1.835-4.235-5.432-8.723-11.078-8.474
	l-3.397-0.107c-6.289,0-11.425,3.218-12.768,8.026c-4.099,15.09,0.126,37.661,7.783,66.9l-1.962,4.76
	c-5.486,13.362-12.344,26.811-18.404,38.688l-0.789,1.538c-6.372,12.471-12.159,23.053-17.396,32.028l-5.413,2.862
	c-0.399,0.214-9.667,5.121-11.843,6.425c-18.463,11.03-30.695,23.54-32.715,33.47c-0.647,3.174-0.17,7.224,3.12,9.103l5.232,2.639
	c2.273,1.129,4.663,1.713,7.116,1.713c13.152,0,28.412-16.385,49.435-53.076c24.274-7.904,51.922-14.476,76.143-18.098
	c18.458,10.397,41.16,17.611,55.49,17.611c2.551,0,4.741-0.234,6.522-0.711c2.755-0.73,5.062-2.287,6.483-4.43
	c2.784-4.186,3.339-9.949,2.59-15.849c-0.233-1.752-1.626-3.913-3.135-5.394L358.812,280.133z M162.439,350.1
	c2.396-6.562,11.887-19.529,25.92-31.016c0.876-0.721,3.052-2.756,5.048-4.654C178.731,337.843,168.904,347.16,162.439,350.1z
	 M245.553,158.707c4.225,0,6.629,10.655,6.83,20.634c0.194,9.979-2.137,16.998-5.038,22.182c-2.4-7.676-3.559-19.782-3.559-27.696
	C243.786,173.826,243.606,158.707,245.553,158.707z M220.758,295.096c2.94-5.275,6.012-10.825,9.142-16.715
	c7.627-14.428,12.451-25.72,16.043-35.002c7.136,12.992,16.024,24.032,26.479,32.871c1.305,1.11,2.678,2.21,4.128,3.319
	c-21.247,4.206-39.612,9.316-55.782,15.527H220.758z M354.723,293.898c-1.285,0.809-5.004,1.275-7.379,1.275
	c-7.691,0-17.212-3.514-30.568-9.238c5.141-0.38,9.832-0.574,14.048-0.574c7.72,0,10.008-0.02,17.552,1.898
	c7.555,1.928,7.652,5.831,6.348,6.648V293.898z M377.951,158.625l-44.51-44.499c-9.695-9.691-28.845-17.625-42.552-17.625H141.358
	c-13.707,0-24.922,11.215-24.922,24.922v269.156c0,13.707,11.215,24.922,24.922,24.922H370.64c13.707,0,24.922-11.215,24.922-24.922
	V201.172c0-13.707-7.935-32.856-17.63-42.547H377.951z M363.854,172.721c0.974,0.979,1.946,2.176,2.882,3.529h-50.915v-50.919
	c1.362,0.944,2.551,1.913,3.524,2.891L363.854,172.721L363.854,172.721z M375.634,390.578c0,2.706-2.278,4.984-4.984,4.984H141.368
	c-2.701,0-4.984-2.278-4.984-4.984V121.422c0-2.701,2.283-4.984,4.984-4.984h149.531c1.499,0,3.193,0.19,4.984,0.525v79.225h79.225
	c0.331,1.796,0.525,3.48,0.525,4.984V390.578z"/>
</svg>
