
<?xml version="1.0" encoding="utf-8"?>
<!-- Generator: Adobe Illustrator 13.0.0, SVG Export Plug-In . SVG Version: 6.00 Build 14948)  -->
<!DOCTYPE svg PUBLIC "-//W3C//DTD SVG 1.1//EN" "http://www.w3.org/Graphics/SVG/1.1/DTD/svg11.dtd">
<svg version="1.1" id="Layer_1" xmlns="http://www.w3.org/2000/svg" xmlns:xlink="http://www.w3.org/1999/xlink" x="0px" y="0px"
	 width="512px" height="512px" viewBox="0 0 512 512" enable-background="new 0 0 512 512" xml:space="preserve">
<g>
	<g>
		<path fill="#FFFFFF" d="M244.583,64.542c-6.565-0.813-13.25-1.238-20.036-1.238c-89.048,0-161.235,72.188-161.235,161.236
			c0,4.499,0.193,8.952,0.555,13.357h26.285c-0.432-4.395-0.657-8.849-0.657-13.357c0-74.589,60.466-135.054,135.054-135.054
			c6.809,0,13.498,0.509,20.035,1.481V64.542z"/>
	</g>
</g>
<g>
	<g>
		<path fill="#FFFFFF" d="M146.123,400.024c71.639,70.188,186.604,69.752,257.688-1.332c71.085-71.086,71.521-186.05,1.332-257.688
			L146.123,400.024z"/>
	</g>
</g>
<g>
	<g>
		<polygon fill="#FFFFFF" points="210.335,186.548 187.042,209.84 234.348,285.385 285.879,233.853 		"/>
	</g>
</g>
<g>
	<g>
		<path fill="#FFFFFF" d="M244.583,122.483c-6.484-1.266-13.181-1.936-20.036-1.936c-57.433,0-103.992,46.559-103.992,103.993
			c0,4.526,0.291,8.984,0.851,13.357h25.099c-0.738-4.344-1.144-8.802-1.144-13.357c0-43.734,35.453-79.187,79.187-79.187
			c6.923,0,13.636,0.894,20.036,2.562V122.483z"/>
	</g>
</g>
</svg>
