<?xml version="1.0"?>
<!DOCTYPE svg PUBLIC "-//W3C//DTD SVG 1.1//EN" "http://www.w3.org/Graphics/SVG/1.1/DTD/svg11.dtd">
<svg xmlns="http://www.w3.org/2000/svg" xmlns:xl="http://www.w3.org/1999/xlink" version="1.1" viewBox="0 -4 216 220" width="18pc" height="220pt"><metadata xmlns:dc="http://purl.org/dc/elements/1.1/"><dc:date>2017-04-20 05:59Z</dc:date><!-- Produced by OmniGraffle Professional 5.4.4 --></metadata><defs></defs><g stroke="none" stroke-opacity="1" stroke-dasharray="none" fill="none" fill-opacity="1"><title>Canvas 11</title><g><title>Layer 1</title><circle cx="108" cy="108" r="108.000175" fill="#7b7b7b"/><circle cx="84.6" cy="76.2" r="7.2000117" fill="#7b7b7b"/><path d="M 68 28 L 158 28 C 162.97056 28 167 32.029437 167 37 L 167 167.5 C 167 172.47056 162.97056 176.5 158 176.5 L 68 176.5 C 63.029437 176.5 59 172.47056 59 167.5 L 59 37 C 59 32.029437 63.029437 28 68 28 Z" fill="white"/><path d="M 114.779685 25.986058 L 165.61183 21.405949 L 170.86588 72.172858 Z" fill="#7b7b7b"/><path d="M 114.779685 25.986058 L 165.61183 21.405949 L 170.86588 72.172858 Z" stroke="#7b7b7b" stroke-linecap="round" stroke-linejoin="round" stroke-width="1"/><path d="M 116.779686 27 L 164.77969 27 C 166.43654 27 167.77969 28.343146 167.77969 30 L 167.77969 72.17286 C 167.77969 73.829713 166.43654 75.17286 164.77969 75.17286 L 116.779686 75.17286 C 115.12283 75.17286 113.779686 73.829713 113.779686 72.17286 L 113.779686 30 C 113.779686 28.343146 115.12283 27 116.779686 27 Z" fill="#d1d1d1"/><path d="M 117 26.67351 L 167.83214 22.0934 L 173.0862 72.86031 Z" fill="#7b7b7b"/><path d="M 117 26.67351 L 167.83214 22.0934 L 173.0862 72.86031 Z" stroke="#7b7b7b" stroke-linecap="round" stroke-linejoin="round" stroke-width="1"/><path d="M 101 95 L 137 95 C 141.97056 95 146 99.02944 146 104 L 146 140 C 146 144.97056 141.97056 149 137 149 L 101 149 C 96.02944 149 92 144.97056 92 140 L 92 104 C 92 99.02944 96.02944 95 101 95 Z" fill="white"/><path d="M 101 95 L 137 95 C 141.97056 95 146 99.02944 146 104 L 146 140 C 146 144.97056 141.97056 149 137 149 L 101 149 C 96.02944 149 92 144.97056 92 140 L 92 104 C 92 99.02944 96.02944 95 101 95 Z" stroke="#7b7b7b" stroke-linecap="round" stroke-linejoin="round" stroke-width="6"/><path d="M 85 85 L 121 85 C 125.97056 85 130 89.029437 130 94 L 130 130 C 130 134.97056 125.97056 139 121 139 L 85 139 C 80.029437 139 76 134.97056 76 130 L 76 94 C 76 89.029437 80.029437 85 85 85 Z" fill="white"/><path d="M 85 85 L 121 85 C 125.97056 85 130 89.029437 130 94 L 130 130 C 130 134.97056 125.97056 139 121 139 L 85 139 C 80.029437 139 76 134.97056 76 130 L 76 94 C 76 89.029437 80.029437 85 85 85 Z" stroke="#7b7b7b" stroke-linecap="round" stroke-linejoin="round" stroke-width="6"/><path d="M 80 88 L 125 88 C 126.10457 88 127 88.89543 127 90 L 127 90 C 127 91.10457 126.10457 92 125 92 L 80 92 C 78.89543 92 78 91.10457 78 90 L 78 90 C 78 88.89543 78.89543 88 80 88 Z" fill="white"/><path d="M 80 88 L 125 88 C 126.10457 88 127 88.89543 127 90 L 127 90 C 127 91.10457 126.10457 92 125 92 L 80 92 C 78.89543 92 78 91.10457 78 90 L 78 90 C 78 88.89543 78.89543 88 80 88 Z" stroke="#7b7b7b" stroke-linecap="round" stroke-linejoin="round" stroke-width="8"/><path d="M 135 100 L 141.5 100 C 142.60457 100 143.5 100.89543 143.5 102 L 143.5 102 C 143.5 103.10457 142.60457 104 141.5 104 L 135 104 C 133.89543 104 133 103.10457 133 102 L 133 102 C 133 100.89543 133.89543 100 135 100 Z" fill="white"/><path d="M 135 100 L 141.5 100 C 142.60457 100 143.5 100.89543 143.5 102 L 143.5 102 C 143.5 103.10457 142.60457 104 141.5 104 L 135 104 C 133.89543 104 133 103.10457 133 102 L 133 102 C 133 100.89543 133.89543 100 135 100 Z" stroke="#7b7b7b" stroke-linecap="round" stroke-linejoin="round" stroke-width="8"/></g></g></svg>
