<?xml version="1.0"?>
<!DOCTYPE svg PUBLIC "-//W3C//DTD SVG 1.1//EN" "http://www.w3.org/Graphics/SVG/1.1/DTD/svg11.dtd">
<svg xmlns="http://www.w3.org/2000/svg" xmlns:xl="http://www.w3.org/1999/xlink" version="1.1" viewBox="0 0 216 216" width="18pc" height="18pc"><metadata xmlns:dc="http://purl.org/dc/elements/1.1/"><dc:date>2017-04-19 04:33Z</dc:date><!-- Produced by OmniGraffle Professional 5.4.4 --></metadata><defs><linearGradient x1="0" x2="1" id="Gradient" gradientUnits="userSpaceOnUse"><stop offset="0" stop-color="white"/><stop offset="1" stop-color="white"/></linearGradient><linearGradient id="Obj_Gradient" xl:href="#Gradient" gradientTransform="translate(72 48) scale(72)"/></defs><g stroke="none" stroke-opacity="1" stroke-dasharray="none" fill="none" fill-opacity="1"><title>Canvas 4</title><g><title>Layer 1</title><circle cx="108" cy="108" r="108.000175" fill="#7b7b7b"/><path d="M 52 93 L 91.625 93 C 96.59556 93 100.625 97.02944 100.625 102 L 100.625 122.41667 C 100.625 127.38723 96.59556 131.41667 91.625 131.41667 L 52 131.41667 C 47.029437 131.41667 43 127.38723 43 122.41667 L 43 102 C 43 97.02944 47.029437 93 52 93 Z" fill="#7b7b7b"/><path d="M 52 93 L 91.625 93 C 96.59556 93 100.625 97.02944 100.625 102 L 100.625 122.41667 C 100.625 127.38723 96.59556 131.41667 91.625 131.41667 L 52 131.41667 C 47.029437 131.41667 43 127.38723 43 122.41667 L 43 102 C 43 97.02944 47.029437 93 52 93 Z" stroke="white" stroke-linecap="round" stroke-linejoin="round" stroke-width="7"/><circle cx="55.13773" cy="105.13773" r="4.802091" fill="white"/><path d="M 43 131.41667 L 56.605903 112.20833 L 70.211806 131.41667 Z" fill="white"/><path d="M 58.206597 131.41667 L 79.4158 104.20486 L 100.625 131.41667 Z" fill="white"/><path d="M 54 142.29167 L 93.625 142.29167 C 98.59556 142.29167 102.625 146.32111 102.625 151.29167 L 102.625 171.70834 C 102.625 176.6789 98.59556 180.70834 93.625 180.70834 L 54 180.70834 C 49.029437 180.70834 45 176.6789 45 171.70834 L 45 151.29167 C 45 146.32111 49.029437 142.29167 54 142.29167 Z" fill="#7b7b7b"/><path d="M 54 142.29167 L 93.625 142.29167 C 98.59556 142.29167 102.625 146.32111 102.625 151.29167 L 102.625 171.70834 C 102.625 176.6789 98.59556 180.70834 93.625 180.70834 L 54 180.70834 C 49.029437 180.70834 45 176.6789 45 171.70834 L 45 151.29167 C 45 146.32111 49.029437 142.29167 54 142.29167 Z" stroke="white" stroke-linecap="round" stroke-linejoin="round" stroke-width="7"/><circle cx="57.13773" cy="154.4294" r="4.802091" fill="white"/><path d="M 45 180.70834 L 58.605903 161.500005 L 72.211806 180.70834 Z" fill="white"/><path d="M 60.206597 180.70834 L 81.4158 153.49653 L 102.625 180.70834 Z" fill="white"/><path d="M 123 91.583344 L 162.625 91.583344 C 167.59556 91.583344 171.625 95.61278 171.625 100.583344 L 171.625 121.00001 C 171.625 125.97057 167.59556 130.00001 162.625 130.00001 L 123 130.00001 C 118.02944 130.00001 114 125.97057 114 121.00001 L 114 100.583344 C 114 95.61278 118.02944 91.583344 123 91.583344 Z" fill="#7b7b7b"/><path d="M 123 91.583344 L 162.625 91.583344 C 167.59556 91.583344 171.625 95.61278 171.625 100.583344 L 171.625 121.00001 C 171.625 125.97057 167.59556 130.00001 162.625 130.00001 L 123 130.00001 C 118.02944 130.00001 114 125.97057 114 121.00001 L 114 100.583344 C 114 95.61278 118.02944 91.583344 123 91.583344 Z" stroke="white" stroke-linecap="round" stroke-linejoin="round" stroke-width="7"/><circle cx="126.13773" cy="103.721075" r="4.802091" fill="white"/><path d="M 114 130.00001 L 127.6059 110.79168 L 141.211806 130.00001 Z" fill="white"/><path d="M 129.2066 130.00001 L 150.4158 102.788205 L 171.625 130.00001 Z" fill="white"/><path d="M 124.375 142.29166 L 164 142.29166 C 168.97056 142.29166 173 146.32109 173 151.29166 L 173 171.70832 C 173 176.67889 168.97056 180.70832 164 180.70832 L 124.375 180.70832 C 119.40444 180.70832 115.375 176.67889 115.375 171.70832 L 115.375 151.29166 C 115.375 146.32109 119.40444 142.29166 124.375 142.29166 Z" fill="#7b7b7b"/><path d="M 124.375 142.29166 L 164 142.29166 C 168.97056 142.29166 173 146.32109 173 151.29166 L 173 171.70832 C 173 176.67889 168.97056 180.70832 164 180.70832 L 124.375 180.70832 C 119.40444 180.70832 115.375 176.67889 115.375 171.70832 L 115.375 151.29166 C 115.375 146.32109 119.40444 142.29166 124.375 142.29166 Z" stroke="white" stroke-linecap="round" stroke-linejoin="round" stroke-width="7"/><circle cx="127.51273" cy="154.42939" r="4.802091" fill="white"/><path d="M 115.375 180.70832 L 128.9809 161.49999 L 142.586806 180.70832 Z" fill="white"/><path d="M 130.5816 180.70832 L 151.7908 153.49652 L 173 180.70832 Z" fill="white"/><path d="M 120 84 L 96 84 L 96 49 L 72 49 L 108 12 L 144 49 L 120 49 Z" fill="url(#Obj_Gradient)"/></g></g></svg>
