<?xml version="1.0"?>
<!DOCTYPE svg PUBLIC "-//W3C//DTD SVG 1.1//EN" "http://www.w3.org/Graphics/SVG/1.1/DTD/svg11.dtd">
<svg xmlns="http://www.w3.org/2000/svg" xmlns:xl="http://www.w3.org/1999/xlink" version="1.1" viewBox="0 0 216 216" width="18pc" height="18pc"><metadata xmlns:dc="http://purl.org/dc/elements/1.1/"><dc:date>2017-04-19 04:50Z</dc:date><!-- Produced by OmniGraffle Professional 5.4.4 --></metadata><defs></defs><g stroke="none" stroke-opacity="1" stroke-dasharray="none" fill="none" fill-opacity="1"><title>Canvas 5</title><g><title>Layer 1</title><circle cx="108" cy="108" r="108.000175" fill="#7b7b7b"/><circle cx="64.846652" cy="55" r="18.000029" fill="white"/><circle cx="64.846652" cy="55" r="18.000029" stroke="white" stroke-linecap="round" stroke-linejoin="round" stroke-width="1"/><path d="M 60.44665 77.6 L 69.246654 77.6 C 74.217216 77.6 78.246654 81.629436 78.246654 86.6 L 78.246654 127.6 C 78.246654 132.57056 74.217216 136.6 69.246654 136.6 L 60.44665 136.6 C 55.476088 136.6 51.44665 132.57056 51.44665 127.6 L 51.44665 86.6 C 51.44665 81.629436 55.476088 77.6 60.44665 77.6 Z" fill="white"/><path d="M 60.44665 77.6 L 69.246654 77.6 C 74.217216 77.6 78.246654 81.629436 78.246654 86.6 L 78.246654 127.6 C 78.246654 132.57056 74.217216 136.6 69.246654 136.6 L 60.44665 136.6 C 55.476088 136.6 51.44665 132.57056 51.44665 127.6 L 51.44665 86.6 C 51.44665 81.629436 55.476088 77.6 60.44665 77.6 Z" stroke="white" stroke-linecap="round" stroke-linejoin="round" stroke-width="1"/><path d="M 61.6376 114.01885 L 61.6376 114.01885 C 64.900966 114.59427 67.07998 117.70622 66.50456 120.969585 C 66.50456 120.969585 66.50456 120.969585 66.50456 120.969585 L 55.04378 185.96689 C 54.46836 189.23026 51.35641 191.40927 48.093042 190.83385 L 48.093042 190.83385 C 44.829675 190.25843 42.650664 187.14648 43.226083 183.88312 C 43.226083 183.88312 43.226083 183.88312 43.226083 183.88312 L 54.686863 118.88581 C 55.262282 115.62244 58.374233 113.44343 61.6376 114.01885 Z" fill="white"/><path d="M 61.6376 114.01885 L 61.6376 114.01885 C 64.900966 114.59427 67.07998 117.70622 66.50456 120.969585 C 66.50456 120.969585 66.50456 120.969585 66.50456 120.969585 L 55.04378 185.96689 C 54.46836 189.23026 51.35641 191.40927 48.093042 190.83385 L 48.093042 190.83385 C 44.829675 190.25843 42.650664 187.14648 43.226083 183.88312 C 43.226083 183.88312 43.226083 183.88312 43.226083 183.88312 L 54.686863 118.88581 C 55.262282 115.62244 58.374233 113.44343 61.6376 114.01885 Z" stroke="white" stroke-linecap="round" stroke-linejoin="round" stroke-width="1"/><path d="M 72.253602 113.95884 L 72.253602 113.95884 C 75.56731 113.95884 78.253604 116.64513 78.253604 119.95884 L 78.253604 185.95884 C 78.253604 189.27255 75.56731 191.95884 72.253602 191.95884 L 72.253602 191.95884 C 68.939893 191.95884 66.2536 189.27255 66.2536 185.95884 L 66.2536 119.95884 C 66.2536 116.64513 68.939893 113.95884 72.253602 113.95884 Z" fill="white"/><path d="M 72.253602 113.95884 L 72.253602 113.95884 C 75.56731 113.95884 78.253604 116.64513 78.253604 119.95884 L 78.253604 185.95884 C 78.253604 189.27255 75.56731 191.95884 72.253602 191.95884 L 72.253602 191.95884 C 68.939893 191.95884 66.2536 189.27255 66.2536 185.95884 L 66.2536 119.95884 C 66.2536 116.64513 68.939893 113.95884 72.253602 113.95884 Z" stroke="white" stroke-linecap="round" stroke-linejoin="round" stroke-width="1"/><path d="M 57.080998 80.941567 L 57.080998 80.941567 C 59.716643 82.787065 60.357183 86.41975 58.511685 89.055394 L 43.337537 110.726324 C 41.492038 113.36197 37.859354 114.00251 35.223709 112.15701 L 35.223709 112.15701 C 32.588064 110.31151 31.947523 106.67883 33.793022 104.04318 L 48.96717 82.372253 C 50.81267 79.73661 54.445353 79.09607 57.080998 80.941566 C 57.080998 80.941566 57.080998 80.941566 57.080998 80.941566 Z" fill="white"/><path d="M 57.080998 80.941567 L 57.080998 80.941567 C 59.716643 82.787065 60.357183 86.41975 58.511685 89.055394 L 43.337537 110.726324 C 41.492038 113.36197 37.859354 114.00251 35.223709 112.15701 L 35.223709 112.15701 C 32.588064 110.31151 31.947523 106.67883 33.793022 104.04318 L 48.96717 82.372253 C 50.81267 79.73661 54.445353 79.09607 57.080998 80.941566 C 57.080998 80.941566 57.080998 80.941566 57.080998 80.941566 Z" stroke="white" stroke-linecap="round" stroke-linejoin="round" stroke-width="1"/><path d="M 31.556517 105.64241 L 31.556517 105.64241 C 33.624705 103.17764 37.299393 102.85615 39.764162 104.92434 L 60.030114 121.92949 C 62.494883 123.99768 62.816377 127.672364 60.74819 130.137134 C 60.74819 130.137134 60.74819 130.137134 60.74819 130.137134 L 60.74819 130.137134 C 58.680002 132.6019 55.005314 132.9234 52.540544 130.85521 L 32.274593 113.85006 C 29.809824 111.78187 29.48833 108.10718 31.556517 105.64241 C 31.556517 105.64241 31.556517 105.64241 31.556517 105.64241 Z" fill="white"/><path d="M 31.556517 105.64241 L 31.556517 105.64241 C 33.624705 103.17764 37.299393 102.85615 39.764162 104.92434 L 60.030114 121.92949 C 62.494883 123.99768 62.816377 127.672364 60.74819 130.137134 C 60.74819 130.137134 60.74819 130.137134 60.74819 130.137134 L 60.74819 130.137134 C 58.680002 132.6019 55.005314 132.9234 52.540544 130.85521 L 32.274593 113.85006 C 29.809824 111.78187 29.48833 108.10718 31.556517 105.64241 C 31.556517 105.64241 31.556517 105.64241 31.556517 105.64241 Z" stroke="white" stroke-linecap="round" stroke-linejoin="round" stroke-width="1"/><path d="M 83.025884 102.59947 L 83.025884 102.59947 C 83.5846 99.43082 86.60623 97.315055 89.774875 97.873773 L 113.49176 102.0557 C 116.66041 102.61442 118.776174 105.636044 118.217456 108.80469 C 118.217456 108.80469 118.217456 108.80469 118.217456 108.80469 L 118.217456 108.80469 C 117.65874 111.97334 114.63711 114.089103 111.468465 113.530386 L 87.75158 109.34846 C 84.58293 108.78974 82.467166 105.768114 83.025884 102.59947 Z" fill="white"/><path d="M 83.025884 102.59947 L 83.025884 102.59947 C 83.5846 99.43082 86.60623 97.315055 89.774875 97.873773 L 113.49176 102.0557 C 116.66041 102.61442 118.776174 105.636044 118.217456 108.80469 C 118.217456 108.80469 118.217456 108.80469 118.217456 108.80469 L 118.217456 108.80469 C 117.65874 111.97334 114.63711 114.089103 111.468465 113.530386 L 87.75158 109.34846 C 84.58293 108.78974 82.467166 105.768114 83.025884 102.59947 Z" stroke="white" stroke-linecap="round" stroke-linejoin="round" stroke-width="1"/><path d="M 70.3731 83.36695 L 70.3731 83.36695 C 72.648236 81.091814 76.33696 81.091814 78.612096 83.36695 C 78.612096 83.36695 78.612096 83.36695 78.612096 83.36695 L 90.737776 95.49263 C 93.01291 97.767766 93.01291 101.45649 90.737776 103.731627 L 90.737776 103.731627 C 88.46264 106.00676 84.773915 106.00676 82.49878 103.731627 C 82.49878 103.731627 82.49878 103.731627 82.49878 103.731627 L 70.3731 91.60595 C 68.097963 89.33081 68.097963 85.642087 70.3731 83.36695 Z" fill="white"/><path d="M 70.3731 83.36695 L 70.3731 83.36695 C 72.648236 81.091814 76.33696 81.091814 78.612096 83.36695 C 78.612096 83.36695 78.612096 83.36695 78.612096 83.36695 L 90.737776 95.49263 C 93.01291 97.767766 93.01291 101.45649 90.737776 103.731627 L 90.737776 103.731627 C 88.46264 106.00676 84.773915 106.00676 82.49878 103.731627 C 82.49878 103.731627 82.49878 103.731627 82.49878 103.731627 L 70.3731 91.60595 C 68.097963 89.33081 68.097963 85.642087 70.3731 83.36695 Z" stroke="white" stroke-linecap="round" stroke-linejoin="round" stroke-width="1"/><circle cx="171.2" cy="77.2" r="7.2000117" fill="white"/><circle cx="171.2" cy="77.2" r="7.2000117" stroke="white" stroke-linecap="round" stroke-linejoin="round" stroke-width="1"/><circle cx="153.2" cy="102.2" r="7.2000117" fill="white"/><circle cx="153.2" cy="102.2" r="7.2000117" stroke="white" stroke-linecap="round" stroke-linejoin="round" stroke-width="1"/><circle cx="131.2" cy="84.2" r="7.2000117" fill="white"/><circle cx="131.2" cy="84.2" r="7.2000117" stroke="white" stroke-linecap="round" stroke-linejoin="round" stroke-width="1"/><path d="M 172.20775 78.843066 L 172.20775 78.843066 C 173.22565 79.860966 173.22565 81.511307 172.20775 82.529206 L 155.52921 99.20774 C 154.51131 100.22564 152.86097 100.22564 151.84307 99.20774 L 151.84307 99.20774 C 150.82517 98.18984 150.82517 96.5395 151.84307 95.5216 L 168.52161 78.843066 C 169.53951 77.825167 171.18985 77.825167 172.20775 78.843066 Z" fill="white"/><path d="M 172.20775 78.843066 L 172.20775 78.843066 C 173.22565 79.860966 173.22565 81.511307 172.20775 82.529206 L 155.52921 99.20774 C 154.51131 100.22564 152.86097 100.22564 151.84307 99.20774 L 151.84307 99.20774 C 150.82517 98.18984 150.82517 96.5395 151.84307 95.5216 L 168.52161 78.843066 C 169.53951 77.825167 171.18985 77.825167 172.20775 78.843066 Z" stroke="white" stroke-linecap="round" stroke-linejoin="round" stroke-width="1"/><path d="M 152.16109 101.20774 L 152.16109 101.20774 C 151.14319 102.22564 149.49285 102.22564 148.47495 101.20774 L 131.79642 84.529206 C 130.77852 83.511307 130.77852 81.860966 131.79642 80.843066 L 131.79642 80.843066 C 132.814316 79.825167 134.46466 79.825167 135.482556 80.843066 L 152.16109 97.5216 C 153.17899 98.5395 153.17899 100.18984 152.16109 101.20774 Z" fill="white"/><path d="M 152.16109 101.20774 L 152.16109 101.20774 C 151.14319 102.22564 149.49285 102.22564 148.47495 101.20774 L 131.79642 84.529206 C 130.77852 83.511307 130.77852 81.860966 131.79642 80.843066 L 131.79642 80.843066 C 132.814316 79.825167 134.46466 79.825167 135.482556 80.843066 L 152.16109 97.5216 C 153.17899 98.5395 153.17899 100.18984 152.16109 101.20774 Z" stroke="white" stroke-linecap="round" stroke-linejoin="round" stroke-width="1"/><path d="M 128.18234 87.192256 L 128.18234 87.192256 C 129.20024 88.210155 129.20024 89.860496 128.18234 90.878396 L 111.503804 107.55693 C 110.485904 108.57483 108.835563 108.57483 107.817664 107.55693 L 107.817664 107.55693 C 106.799765 106.53903 106.799765 104.88869 107.817664 103.87079 L 124.4962 87.192256 C 125.5141 86.174357 127.16444 86.174357 128.18234 87.192256 Z" fill="white"/><path d="M 128.18234 87.192256 L 128.18234 87.192256 C 129.20024 88.210155 129.20024 89.860496 128.18234 90.878396 L 111.503804 107.55693 C 110.485904 108.57483 108.835563 108.57483 107.817664 107.55693 L 107.817664 107.55693 C 106.799765 106.53903 106.799765 104.88869 107.817664 103.87079 L 124.4962 87.192256 C 125.5141 86.174357 127.16444 86.174357 128.18234 87.192256 Z" stroke="white" stroke-linecap="round" stroke-linejoin="round" stroke-width="1"/><path d="M 114.974594 53.525406 L 176.7746 53.525406 C 181.74516 53.525406 185.7746 57.554843 185.7746 62.525406 L 185.7746 115.525406 C 185.7746 120.49597 181.74516 124.525406 176.7746 124.525406 L 114.974594 124.525406 C 110.00403 124.525406 105.974594 120.49597 105.974594 115.525406 L 105.974594 62.525406 C 105.974594 57.554843 110.00403 53.525406 114.974594 53.525406 Z" stroke="white" stroke-linecap="round" stroke-linejoin="round" stroke-width="6"/><path d="M 126.50404 127.493826 L 126.50404 127.493826 C 127.856754 127.98617 128.55422 129.48189 128.06187 130.8346 L 110.7472 178.40627 C 110.25485 179.75899 108.759135 180.45645 107.40642 179.9641 C 107.40642 179.9641 107.40642 179.9641 107.40642 179.9641 L 107.40642 179.9641 C 106.05371 179.47176 105.356245 177.97604 105.84859 176.62333 L 123.163264 129.051656 C 123.65561 127.69894 125.15133 127.00148 126.50404 127.493826 Z" fill="white"/><path d="M 126.50404 127.493826 L 126.50404 127.493826 C 127.856754 127.98617 128.55422 129.48189 128.06187 130.8346 L 110.7472 178.40627 C 110.25485 179.75899 108.759135 180.45645 107.40642 179.9641 C 107.40642 179.9641 107.40642 179.9641 107.40642 179.9641 L 107.40642 179.9641 C 106.05371 179.47176 105.356245 177.97604 105.84859 176.62333 L 123.163264 129.051656 C 123.65561 127.69894 125.15133 127.00148 126.50404 127.493826 Z" stroke="white" stroke-linecap="round" stroke-linejoin="round" stroke-width="1"/><path d="M 161.65119 127.49383 L 161.65119 127.49383 C 163.0039 127.00148 164.49962 127.69895 164.99197 129.05166 C 164.99197 129.05166 164.99197 129.05166 164.99197 129.05166 L 182.30664 176.62333 C 182.79898 177.97604 182.10152 179.47176 180.74881 179.96411 L 180.74881 179.96411 C 179.39609 180.45646 177.90038 179.75899 177.40803 178.40628 C 177.40803 178.40628 177.40803 178.40628 177.40803 178.40628 L 160.09336 130.83461 C 159.60101 129.481895 160.298475 127.98618 161.65119 127.49383 Z" fill="white"/><path d="M 161.65119 127.49383 L 161.65119 127.49383 C 163.0039 127.00148 164.49962 127.69895 164.99197 129.05166 C 164.99197 129.05166 164.99197 129.05166 164.99197 129.05166 L 182.30664 176.62333 C 182.79898 177.97604 182.10152 179.47176 180.74881 179.96411 L 180.74881 179.96411 C 179.39609 180.45646 177.90038 179.75899 177.40803 178.40628 C 177.40803 178.40628 177.40803 178.40628 177.40803 178.40628 L 160.09336 130.83461 C 159.60101 129.481895 160.298475 127.98618 161.65119 127.49383 Z" stroke="white" stroke-linecap="round" stroke-linejoin="round" stroke-width="1"/><path d="M 145.40189 183.64782 L 145.40189 183.64782 C 143.96236 183.64782 142.79539 182.48085 142.79539 181.04133 L 142.79539 130.41661 C 142.79539 128.977085 143.96236 127.81012 145.40189 127.81012 L 145.40189 127.81012 C 146.84141 127.81012 148.00838 128.977085 148.00838 130.41661 L 148.00838 181.04133 C 148.00838 182.48085 146.84141 183.64782 145.40189 183.64782 Z" fill="white"/><path d="M 145.40189 183.64782 L 145.40189 183.64782 C 143.96236 183.64782 142.79539 182.48085 142.79539 181.04133 L 142.79539 130.41661 C 142.79539 128.977085 143.96236 127.81012 145.40189 127.81012 L 145.40189 127.81012 C 146.84141 127.81012 148.00838 128.977085 148.00838 130.41661 L 148.00838 181.04133 C 148.00838 182.48085 146.84141 183.64782 145.40189 183.64782 Z" stroke="white" stroke-linecap="round" stroke-linejoin="round" stroke-width="1"/></g></g></svg>
