<?xml version="1.0"?>
<!DOCTYPE svg PUBLIC "-//W3C//DTD SVG 1.1//EN" "http://www.w3.org/Graphics/SVG/1.1/DTD/svg11.dtd">
<svg xmlns="http://www.w3.org/2000/svg" xmlns:xl="http://www.w3.org/1999/xlink" version="1.1" viewBox="0 0 216 216" width="18pc" height="18pc"><metadata xmlns:dc="http://purl.org/dc/elements/1.1/"><dc:date>2017-04-19 04:28Z</dc:date><!-- Produced by OmniGraffle Professional 5.4.4 --></metadata><defs><linearGradient x1="0" x2="1" id="Gradient" gradientUnits="userSpaceOnUse"><stop offset="0" stop-color="white"/><stop offset="1" stop-color="white"/></linearGradient><linearGradient id="Obj_Gradient" xl:href="#Gradient" gradientTransform="translate(72 61) scale(72)"/></defs><g stroke="none" stroke-opacity="1" stroke-dasharray="none" fill="none" fill-opacity="1"><title>Canvas 3</title><g><title>Layer 1</title><circle cx="108" cy="108" r="108.000175" fill="#7b7b7b"/><path d="M 63 108 L 153 108 C 157.97056 108 162 112.02944 162 117 L 162 171 C 162 175.97056 157.97056 180 153 180 L 63 180 C 58.029437 180 54 175.97056 54 171 L 54 117 C 54 112.02944 58.029437 108 63 108 Z" fill="#7b7b7b"/><path d="M 63 108 L 153 108 C 157.97056 108 162 112.02944 162 117 L 162 171 C 162 175.97056 157.97056 180 153 180 L 63 180 C 58.029437 180 54 175.97056 54 171 L 54 117 C 54 112.02944 58.029437 108 63 108 Z" stroke="white" stroke-linecap="round" stroke-linejoin="round" stroke-width="7"/><circle cx="73" cy="127" r="9.0000143" fill="white"/><path d="M 54 180 L 79.5 144 L 105 180 Z" fill="white"/><path d="M 82.5 180 L 122.25 129 L 162 180 Z" fill="white"/><path d="M 126 97 L 90 97 L 90 55 L 72 55 L 108 25 L 144 55 L 126 55 Z" fill="url(#Obj_Gradient)"/></g></g></svg>
