<?xml version="1.0" encoding="utf-8"?>
<!-- Generator: Adobe Illustrator 13.0.0, SVG Export Plug-In . SVG Version: 6.00 Build 14948)  -->
<!DOCTYPE svg PUBLIC "-//W3C//DTD SVG 1.1//EN" "http://www.w3.org/Graphics/SVG/1.1/DTD/svg11.dtd">
<svg version="1.1" id="Layer_1" xmlns="http://www.w3.org/2000/svg" xmlns:xlink="http://www.w3.org/1999/xlink" x="0px" y="0px"
	 width="512px" height="512px" viewBox="0 0 512 512" enable-background="new 0 0 512 512" xml:space="preserve">
<g>
	<g>
		<path fill="#FAFAFA" d="M139.408,209.709l246.396-69.671L374.632,100.5l-265.111,74.962l9.685,34.248h-0.229V411.5h275.503
			V209.709H139.408z M369.858,110.299l6.993,24.737l-24.717,6.993L369.858,110.299z M288.042,132.514l33.844-9.552l-18.36,32.812
			l-33.817,9.565L288.042,132.514z M201.826,156.888l37.619-10.63l-18.35,32.819l-37.619,10.636L201.826,156.888z M118.475,180.469
			l34.744-9.836l-18.35,32.824l-9.172,2.594L118.475,180.469z M135.912,243.539h-9.682v-26.583h36.265L135.912,243.539z
			 M213.011,216.957h39.087L225.5,243.539h-39.077L213.011,216.957z M212.228,380.044v-99.935l96.546,49.967L212.228,380.044z
			 M311.176,243.539H276l26.602-26.583h35.16L311.176,243.539z M387.227,243.539h-25.55L387.227,218V243.539z"/>
	</g>
</g>
</svg>
