<?xml version="1.0" encoding="UTF-8" standalone="no"?>
<!-- Generator: Adobe Illustrator 15.1.0, SVG Export Plug-In . SVG Version: 6.00 Build 0)  -->

<svg
   xmlns:dc="http://purl.org/dc/elements/1.1/"
   xmlns:cc="http://creativecommons.org/ns#"
   xmlns:rdf="http://www.w3.org/1999/02/22-rdf-syntax-ns#"
   xmlns:svg="http://www.w3.org/2000/svg"
   xmlns="http://www.w3.org/2000/svg"
   xmlns:sodipodi="http://sodipodi.sourceforge.net/DTD/sodipodi-0.dtd"
   xmlns:inkscape="http://www.inkscape.org/namespaces/inkscape"
   version="1.1"
   id="Layer_1"
   x="0px"
   y="0px"
   width="512px"
   height="512px"
   viewBox="0 0 512 512"
   enable-background="new 0 0 512 512"
   xml:space="preserve"
   inkscape:version="0.48.2 r9819"
   sodipodi:docname="mostlycloidy.svg"><metadata
   id="metadata3218"><rdf:RDF><cc:Work
       rdf:about=""><dc:format>image/svg+xml</dc:format><dc:type
         rdf:resource="http://purl.org/dc/dcmitype/StillImage" /></cc:Work></rdf:RDF></metadata><defs
   id="defs3216" /><sodipodi:namedview
   pagecolor="#ffffff"
   bordercolor="#666666"
   borderopacity="1"
   objecttolerance="10"
   gridtolerance="10"
   guidetolerance="10"
   inkscape:pageopacity="0"
   inkscape:pageshadow="2"
   inkscape:window-width="1268"
   inkscape:window-height="918"
   id="namedview3214"
   showgrid="false"
   inkscape:zoom="1.84375"
   inkscape:cx="181.62851"
   inkscape:cy="402.84617"
   inkscape:window-x="0"
   inkscape:window-y="0"
   inkscape:window-maximized="0"
   inkscape:current-layer="Layer_1" />

<g
   id="g3208">
	<g
   id="g3210">
		<path
   fill="#1D1D1B"
   d="M208,64c8.833,0,16-7.167,16-16V16c0-8.833-7.167-16-16-16s-16,7.167-16,16v32    C192,56.833,199.167,64,208,64z M332.438,106.167l22.625-22.625c6.249-6.25,6.249-16.375,0-22.625    c-6.25-6.25-16.375-6.25-22.625,0l-22.625,22.625c-6.25,6.25-6.25,16.375,0,22.625    C316.062,112.417,326.188,112.417,332.438,106.167z M16,224h32c8.833,0,16-7.167,16-16s-7.167-16-16-16H16    c-8.833,0-16,7.167-16,16S7.167,224,16,224z M352,208c0,8.833,7.167,16,16,16h32c8.833,0,16-7.167,16-16s-7.167-16-16-16h-32    C359.167,192,352,199.167,352,208z M83.541,106.167c6.251,6.25,16.376,6.25,22.625,0c6.251-6.25,6.251-16.375,0-22.625    L83.541,60.917c-6.25-6.25-16.374-6.25-22.625,0c-6.25,6.25-6.25,16.375,0,22.625L83.541,106.167z M400,256    c-5.312,0-10.562,0.375-15.792,1.125c-16.771-22.875-39.124-40.333-64.458-51.5C318.459,145,268.938,96,208,96    c-61.75,0-112,50.25-112,112c0,17.438,4.334,33.75,11.5,48.438C47.875,258.875,0,307.812,0,368c0,61.75,50.25,112,112,112    c13.688,0,27.084-2.5,39.709-7.333C180.666,497.917,217.5,512,256,512c38.542,0,75.333-14.083,104.291-39.333    C372.916,477.5,386.312,480,400,480c61.75,0,112-50.25,112-112S461.75,256,400,256z M208,128c39.812,0,72.562,29.167,78.708,67.25    c-10.021-2-20.249-3.25-30.708-3.25c-45.938,0-88.5,19.812-118.375,53.25C131.688,234.083,128,221.542,128,208    C128,163.812,163.812,128,208,128z M400,448c-17.125,0-32.916-5.5-45.938-14.667C330.584,461.625,295.624,480,256,480    c-39.625,0-74.584-18.375-98.062-46.667C144.938,442.5,129.125,448,112,448c-44.188,0-80-35.812-80-80s35.812-80,80-80    c7.75,0,15.062,1.458,22.125,3.541c2.812,0.792,5.667,1.417,8.312,2.521c4.375-8.562,9.875-16.396,15.979-23.75    C181.792,242.188,216.562,224,256,224c10.125,0,19.834,1.458,29.25,3.709c10.562,2.499,20.542,6.291,29.834,11.291    c23.291,12.375,42.416,31.542,54.457,55.063C378.938,290.188,389.209,288,400,288c44.188,0,80,35.812,80,80S444.188,448,400,448z"
   id="path3212" />
	</g>
</g>
<path
   style="fill:#cccccc;fill-opacity:1;fill-rule:nonzero;stroke:#000000;stroke-width:0.54237287999999995;stroke-opacity:1"
   d="m 245.30308,479.25093 c -0.74576,-0.10773 -3.55254,-0.46024 -6.23729,-0.78336 -6.71335,-0.80798 -19.16526,-3.84156 -25.58234,-6.23246 -20.85835,-7.77149 -38.3117,-19.84105 -53.43885,-36.95471 l -2.00425,-2.26744 -4.92771,2.97068 c -12.4212,7.48818 -23.89162,10.90842 -38.45449,11.46636 -26.364081,1.01007 -50.55429,-10.71241 -66.679579,-32.31264 -24.565597,-32.90625 -19.523709,-79.54315 11.5618,-106.94536 15.87411,-13.9932 38.38969,-21.50299 58.499039,-19.51165 5.25979,0.52086 17.62356,3.27965 21.67186,4.83575 0.83976,0.32278 1.84671,0.58689 2.23766,0.58689 0.39095,0 2.20774,-2.53435 4.03732,-5.6319 20.33939,-34.43541 54.4271,-57.4688 93.31907,-63.05658 7.62612,-1.09568 23.10968,-1.22043 30.40454,-0.24496 41.68444,5.57406 76.98895,29.10988 97.09717,64.73005 1.30509,2.31186 2.63864,4.20339 2.96344,4.20339 0.3248,0 2.65591,-0.71482 5.18023,-1.58848 19.9994,-6.92177 42.352,-5.12092 61.92323,4.98886 20.84456,10.76754 36.07999,30.93224 41.12049,54.42462 3.48972,16.26465 1.01338,36.17667 -6.32014,50.81951 -9.76022,19.48824 -26.32718,33.99252 -46.55788,40.76115 -16.69415,5.5854 -35.4309,5.38851 -51.81332,-0.54447 -4.69074,-1.69877 -11.97147,-5.29484 -16.23454,-8.0185 l -2.9464,-1.88245 -6.77229,7.02954 c -3.72477,3.86625 -8.74465,8.61869 -11.1553,10.56098 -19.80674,15.9585 -43.61078,25.96608 -67.4913,28.37433 -5.21567,0.52598 -20.30671,0.6697 -23.40017,0.22285 l 0,0 z"
   id="path3220"
   inkscape:connector-curvature="0" /><path
   style="fill:#cccccc;fill-opacity:1;fill-rule:nonzero;stroke:#000000;stroke-width:0.54237288;stroke-opacity:1"
   d="m 241.25315,478.24578 c -30.92788,-4.444 -56.2486,-17.4744 -77.39024,-39.82611 l -5.77769,-6.10839 -5.19874,3.05962 c -9.54367,5.61675 -17.36206,8.62622 -26.98596,10.38751 -7.15623,1.30967 -21.23903,1.29591 -28.122861,-0.0275 C 81.582736,442.61752 68.286651,435.53147 56.548112,423.75794 45.045585,412.22112 38.166319,399.71249 34.576825,383.80736 c -1.189139,-5.26911 -1.665249,-20.31728 -0.828139,-26.17457 4.899105,-34.27921 30.150459,-60.66037 64.458429,-67.34245 11.143755,-2.17045 22.677345,-1.38232 36.928175,2.52339 5.50645,1.50915 6.87255,1.71871 7.55544,1.15897 0.45849,-0.3758 2.89722,-3.85615 5.4194,-7.73412 6.20581,-9.5417 10.61043,-15.11956 17.71524,-22.43396 18.67961,-19.23065 40.7925,-31.26739 67.54551,-36.76715 5.61969,-1.15527 8.79354,-1.44187 18.55012,-1.67505 12.4316,-0.29711 18.22728,0.14782 27.55157,2.11512 25.3589,5.35037 47.62936,17.2332 65.39789,34.89429 8.42774,8.37677 13.58434,14.94948 20.21394,25.76506 4.56188,7.44228 3.2931,6.90674 11.02452,4.65338 9.61205,-2.80147 14.81747,-3.60423 23.35697,-3.60199 14.77611,0.004 27.68991,3.43321 40.27787,10.69606 26.01698,15.01096 41.93642,45.88804 38.82452,75.30339 -2.20575,20.84997 -10.60822,37.46029 -26.0135,51.42451 -23.32173,21.14014 -57.16139,26.31149 -85.2178,13.02292 -3.1322,-1.48353 -7.38019,-3.72434 -9.43997,-4.97958 l -3.74505,-2.28226 -8.72952,8.59042 c -4.80124,4.72474 -10.22873,9.73004 -12.06109,11.12289 -17.83843,13.55973 -38.52235,22.48694 -59.34875,25.61502 -7.96935,1.19698 -26.11807,1.49843 -32.75945,0.54413 z"
   id="path3222"
   inkscape:connector-curvature="0" /><path
   style="fill:#ffff00;fill-opacity:1;fill-rule:nonzero;stroke:#000000;stroke-width:0.54237287999999995;stroke-opacity:1"
   d="m 135.60323,240.27849 c -3.98204,-8.75101 -6.42622,-18.03522 -7.1766,-27.26025 -0.47154,-5.79704 0.53195,-16.7436 2.14598,-23.40934 10.96054,-45.26581 57.91412,-71.6479 101.98471,-57.30276 26.50015,8.62589 46.75582,31.13333 53.04456,58.94138 l 0.84146,3.72081 -1.72267,-0.35465 c -19.42948,-3.99996 -42.7418,-3.59358 -63.76874,1.11159 -30.2359,6.76586 -59.487,23.45524 -80.32681,45.83091 l -2.98305,3.20289 -2.03884,-4.48058 z"
   id="path3224"
   inkscape:connector-curvature="0" /></svg>