<?xml version="1.0" encoding="UTF-8" standalone="no"?>
<!-- Generator: Adobe Illustrator 15.1.0, SVG Export Plug-In . SVG Version: 6.00 Build 0)  -->

<svg
   xmlns:dc="http://purl.org/dc/elements/1.1/"
   xmlns:cc="http://creativecommons.org/ns#"
   xmlns:rdf="http://www.w3.org/1999/02/22-rdf-syntax-ns#"
   xmlns:svg="http://www.w3.org/2000/svg"
   xmlns="http://www.w3.org/2000/svg"
   xmlns:sodipodi="http://sodipodi.sourceforge.net/DTD/sodipodi-0.dtd"
   xmlns:inkscape="http://www.inkscape.org/namespaces/inkscape"
   version="1.1"
   id="Layer_1"
   x="0px"
   y="0px"
   width="512px"
   height="512px"
   viewBox="0 0 512 512"
   enable-background="new 0 0 512 512"
   xml:space="preserve"
   inkscape:version="0.48.2 r9819"
   sodipodi:docname="snow.svg"><metadata
   id="metadata3036"><rdf:RDF><cc:Work
       rdf:about=""><dc:format>image/svg+xml</dc:format><dc:type
         rdf:resource="http://purl.org/dc/dcmitype/StillImage" /></cc:Work></rdf:RDF></metadata><defs
   id="defs3034" /><sodipodi:namedview
   pagecolor="#ffffff"
   bordercolor="#666666"
   borderopacity="1"
   objecttolerance="10"
   gridtolerance="10"
   guidetolerance="10"
   inkscape:pageopacity="0"
   inkscape:pageshadow="2"
   inkscape:window-width="1046"
   inkscape:window-height="858"
   id="namedview3032"
   showgrid="false"
   inkscape:snap-object-midpoints="true"
   inkscape:zoom="1.3037281"
   inkscape:cx="311.9568"
   inkscape:cy="263.02874"
   inkscape:window-x="0"
   inkscape:window-y="0"
   inkscape:window-maximized="0"
   inkscape:current-layer="Layer_1" />

<g
   id="g3026">
	<g
   id="g3028">
		<path
   fill="#1D1D1B"
   d="M400,64c-5.312,0-10.562,0.375-15.792,1.125C354.334,24.417,307.188,0,256,0    s-98.312,24.417-128.208,65.125C122.562,64.375,117.312,64,112,64C50.25,64,0,114.25,0,176s50.25,112,112,112    c13.688,0,27.084-2.5,39.709-7.333C180.666,305.917,217.5,320,256,320c38.542,0,75.333-14.083,104.291-39.333    C372.916,285.5,386.312,288,400,288c61.75,0,112-50.25,112-112S461.75,64,400,64z M400,256c-9.709,0-19.209-1.75-28.25-5.208    l-18-6.917l-14.5,12.667C316,276.833,286.438,288,256,288s-60-11.167-83.25-31.458l-14.5-12.667l-18,6.917    c-9,3.458-18.541,5.208-28.25,5.208c-44.125,0-80-35.896-80-80s35.875-80,80-80c3.792,0,7.5,0.271,11.25,0.792l18.958,2.75    l11.354-15.458C177.875,50.979,215.209,32,256,32c40.812,0,78.125,18.958,102.417,52.063l11.375,15.479l18.999-2.75    C392.5,96.271,396.208,96,400,96c44.125,0,80,35.896,80,80S444.125,256,400,256z M96,320c-17.688,0-32,14.312-32,32    s14.312,32,32,32s32-14.312,32-32S113.688,320,96,320z M256,352c-17.688,0-32,14.312-32,32s14.312,32,32,32s32-14.312,32-32    S273.688,352,256,352z M416,320c-17.688,0-32,14.312-32,32s14.312,32,32,32s32-14.312,32-32S433.688,320,416,320z M352,448    c-17.688,0-32,14.312-32,32s14.312,32,32,32s32-14.312,32-32S369.688,448,352,448z M160,448c-17.688,0-32,14.312-32,32    s14.312,32,32,32s32-14.312,32-32S177.688,448,160,448z"
   id="path3030" />
	</g>
</g>
<path
   style="fill:#cccccc;fill-opacity:1;fill-rule:nonzero;stroke:#000000;stroke-width:0.76703107;stroke-opacity:1"
   d="m 239.85588,286.48967 c -14.22856,-2.20517 -26.92686,-6.10595 -38.9509,-11.96527 -12.00474,-5.84994 -21.54665,-12.63835 -36.80631,-26.18522 l -5.57387,-4.94824 -12.45136,4.6101 c -14.52048,5.37618 -17.23094,6.09256 -26.79469,7.08202 -28.254216,2.92315 -57.027929,-10.81404 -73.128481,-34.91309 -5.085231,-7.6115 -8.089788,-13.99539 -10.812306,-22.97331 -1.93767,-6.38976 -2.096159,-7.93032 -2.130574,-20.70984 -0.02951,-10.9564 0.245078,-14.83578 1.330121,-18.79226 7.921728,-28.88562 27.135919,-49.1333 54.858469,-57.80918 14.107791,-4.415087 26.021341,-4.445967 50.895301,-0.131923 1.89041,0.327863 2.69379,-0.491335 9.40328,-9.588526 9.5754,-12.982967 16.33821,-20.589771 24.26584,-27.294182 15.1262,-12.792239 31.59568,-21.415719 50.42312,-26.401725 19.77024,-5.235681 46.01454,-5.033595 65.18439,0.501933 29.72699,8.584031 51.48577,24.311547 71.76894,51.875494 6.97655,9.480836 8.58482,11.247239 9.95951,10.938781 7.68006,-1.723262 26.30133,-3.57724 32.32065,-3.217922 29.63929,1.76929 54.67223,18.32247 67.50197,44.63608 4.90456,10.0592 7.005,17.32793 7.92515,27.42564 1.44455,15.85258 -1.62342,30.95269 -9.12743,44.92382 -15.0265,27.97671 -46.24498,44.73986 -77.33083,41.52375 -9.41649,-0.97421 -14.3109,-2.28556 -27.65973,-7.41079 -6.99696,-2.68646 -11.41864,-4.00645 -12.00311,-3.58324 -0.50894,0.36851 -5.01596,4.22294 -10.0156,8.56539 -22.671,19.691 -42.85193,29.41477 -69.6857,33.57665 -7.49907,1.1631 -26.59266,1.31477 -33.36585,0.26506 l 0,0 z"
   id="path3040"
   inkscape:connector-curvature="0" /></svg>