<?xml version="1.0" encoding="utf-8"?><svg xmlns="http://www.w3.org/2000/svg" xmlns:xlink="http://www.w3.org/1999/xlink" version="1.1" class="page" pageAlignment="none" x="0px" y="0px" width="80px" height="80px" viewBox="0 0 80 80" enable-background="new 0 0 80 80" xml:space="preserve"><defs/><style type="text/css"/><style type="text/css"/><g type="LAYER" name="workspace" id="workspace" locked="true"/><g transform="matrix(-0.9999979267239028 0.0020363074168995043 -0.0020363074168995043 -0.9999979267239028 11.366181274330753 43.44346174142566)"><g transform="matrix(1 0 0 1 8.526512829121202e-14 2.187276758565787)"><path transform="matrix(1 0 0 1 -4.153021864978349 -3.001328683192014)" width="36.21158892600117" height="41.92722760372425" stroke-width="0.004554117547981846" stroke-miterlimit="3" stroke="#000000" stroke-opacity="0" fill="#495587" d="M-2.502141509685707,21.321882030222092 C-2.4672549510689024,21.250399599951955 -2.4556260981966034,11.817287035319538 -2.467254951068874,0.36854115247066943 L-2.502141509685771,-20.45167975034652 L-16.574022556218836,-20.482498522678604 L-38.56880400209963,-20.246024542279933 L-37.61977952577491,-19.503889945434686 L-37.621285314346544,-18.856006377650893 L-16.57353802068257,-18.74295003993665 L-4.470809393855795,-18.71213126760461 L-4.470809393855745,0.4708423550728753 L-4.4708093938557525,19.654244016254978 L-15.322951801376007,19.68506278858696 L-26.186238526232167,19.705608636808336 L-26.209496231976708,15.33704765874149 L-26.24438279059354,10.958213756563858 L-31.20118132740358,10.927394984231839 L-36.146351011341146,10.906421097505863 L-36.146351011341174,3.9495112820520504 L-36.772951622284175,-20.242820545359415 L-37.61805862455028,-20.244328308616154 L-38.67465749003603,-20.15365821728937 L-38.115503431047436,4.839403333139735 L-38.11550343104741,12.686633238185834 L-33.169849211573485,17.065895178868033 L-28.21305067476363,21.444729081045644 L-15.380611530201023,21.444729081045644 C-5.223777617335976,21.444729081045644 -2.5365435327662027,21.413910308713653 -2.502141509685707,21.321882030222092 Z M-31.768572440463593,15.848125633247761 C-33.6679517429363,14.170214695169967 -35.219919065849375,12.76838859256673 -35.219919065849346,12.717452010517938 C-35.2199190658494,12.676360314075112 -33.64469403719165,12.656242504358467 -31.72205702897451,12.666087389964531 L-28.213050674763586,12.696906162296507 L-28.178164116146725,15.796761012694425 C-28.16653526327442,17.495217798993544 -28.189792969018974,18.886770977486194 -28.236308380508042,18.8867709774862 C-28.282339256460908,18.8867709774862 -29.880821990863275,17.515763647214918 -31.768572440463593,15.848125633247761 Z "/><path transform="matrix(1 0 0 1 14.092133385347854 9.52758122765637)" width="9.844793027458863" height="1.843133800857963" stroke-width="0.004554117547981845" stroke-miterlimit="3" stroke="#000000" stroke-opacity="0" fill="#495587" d="M-36.14635101134124,-11.704284870102022 L-34.15442542142668,-11.724830718323396 L-32.15087097863987,-11.755649490655422 L-32.150870978639844,-12.625423732026405 L-32.150870978639844,-13.495197973397332 L-34.15442542142665,-13.526016745729372 L-36.14635101134124,-13.546562593950753 L-38.11550343104747,-13.545706516941515 L-40.061398145009264,-13.525160668720162 L-41.99566400609871,-13.494341896388079 L-41.99566400609868,-12.624567655017145 L-41.99566400609865,-11.75479341364619 L-40.06139814500925,-11.723974641314172 L-38.115503431047415,-11.70342879309279 L-36.14635101134124,-11.704284870102022 Z "/></g><path transform="matrix(1 0 0 1 -11.448265411102497 6.148787709534751)" width="36.014147560830125" height="41.31298835123181" stroke-width="0.004554117547981846" stroke-miterlimit="3" stroke="#000000" stroke-opacity="0" fill="#495587" d="M-2.5021415096857567,21.32188203022211 L-2.786984354291789,12.998426933896823 L-3.8269794041992853,12.996571469063127 L-4.569833011276081,12.99524613703906 L-4.470809393855745,19.65424401625501 L-15.322951801376064,19.685062788586993 L-26.18623852623223,19.70560863680836 L-26.209496231976757,15.337047658741518 L-26.244382790593548,10.958213756563879 L-31.201181327403603,10.927394984231853 L-36.14635101134115,10.90642109750587 L-36.29196375733426,-18.041905207418218 L-30.64627634355071,-18.031832684035315 L-30.64415858952634,-18.943021717383154 L-30.642040835502016,-19.854210750731006 L-38.51628907051588,-19.868259270186137 L-38.115503431047415,12.686633238185856 L-33.169849211573506,17.065895178868058 L-28.213050674763622,21.444729081045654 L-15.380611530201051,21.444729081045672 C-5.223777617336005,21.444729081045665 -2.536543532766231,21.41391030871368 -2.5021415096857567,21.32188203022211 Z M-31.768572440463643,15.848125633247786 C-33.66795174293631,14.170214695170003 -35.21991906584938,12.768388592566751 -35.219919065849396,12.71745201051796 C-35.21991906584941,12.676360314075161 -33.64469403719171,12.656242504358502 -31.722057028974504,12.666087389964545 L-28.213050674763636,12.696906162296536 L-28.178164116146746,15.796761012694443 C-28.16653526327444,17.49521779899357 -28.189792969018995,18.88677097748623 -28.236308380508092,18.886770977486222 C-28.282339256460958,18.88677097748623 -29.880821990863325,17.51576364721494 -31.768572440463643,15.848125633247786 Z "/><path transform="matrix(1 0 0 1 13.85017661734583 11.703513660350453)" width="9.808916032742943" height="8.788871413479207" stroke-width="0.004537521155274664" stroke-miterlimit="3" stroke="#000000" stroke-opacity="0" fill="#495587" d="M-36.014624276140594,-9.918613279468438 L-36.01462427614055,-11.661631401891277 L-34.029957782853515,-11.682102375680437 L-32.03370481526853,-11.712808836364154 L-32.0337048152685,-12.579413393438607 L-32.0337048152685,-13.44601795051301 L-34.029957782853465,-13.476724411196763 L-36.0146242761406,-13.497195384985943 L-36.01462427614064,-15.240213507408768 L-36.01462427614057,-16.972996142936978 L-36.972439484771435,-16.94228968225326 L-37.9186682191044,-16.9115832215695 L-37.953427641998275,-15.209080568104405 L-37.97660059059405,-13.496342427744715 L-39.91540395645176,-13.475871453955548 L-41.84262084801144,-13.445164993271803 L-41.842620848011414,-12.578560436197378 L-41.8426208480114,-11.711955879122954 L-39.91540395645175,-11.681249418439236 L-37.976600590594025,-11.660778444650049 L-37.95342764199827,-9.948040304290373 L-37.918668219104404,-8.245537650825277 L-36.97243948477137,-8.21483119014151 L-36.01462427614057,-8.184124729457771 L-36.014624276140594,-9.918613279468438 Z "/></g></svg>