<?xml version="1.0" encoding="utf-8"?>
<!-- Generator: Adobe Illustrator 15.0.0, SVG Export Plug-In . SVG Version: 6.00 Build 0)  -->
<!DOCTYPE svg PUBLIC "-//W3C//DTD SVG 1.1//EN" "http://www.w3.org/Graphics/SVG/1.1/DTD/svg11.dtd">
<svg version="1.1" id="Layer_1" xmlns="http://www.w3.org/2000/svg" xmlns:xlink="http://www.w3.org/1999/xlink" x="0px" y="0px"
	 width="80px" height="80px" viewBox="0 0 80 80" enable-background="new 0 0 80 80" xml:space="preserve">
<path fill="#495587" d="M53.018,27.278l-15.868,0.48c-5.29,0.143-10.579,0.318-15.869,0.422l0.95-1.662l10.065,16.277l10.138,16.236
	l-3.49-0.016c1.597-2.777,3.227-5.537,4.938-8.248c1.704-2.713,3.443-5.406,5.218-8.08c1.771-2.674,3.577-5.328,5.435-7.953
	c1.851-2.627,3.749-5.226,5.743-7.764l0.346,0.204c-1.298,2.958-2.691,5.856-4.139,8.729c-1.438,2.873-2.926,5.718-4.447,8.54
	c-1.521,2.822-3.076,5.629-4.665,8.41c-1.582,2.787-3.246,5.525-4.94,8.244l-1.849,2.959l-1.645-2.973l-9.27-16.746L20.33,27.633
	l-0.949-1.697l1.899,0.037c5.29,0.102,10.58,0.276,15.869,0.42l15.869,0.48V27.278L53.018,27.278z"/>
</svg>
