<?xml version="1.0" encoding="utf-8"?>
<!-- Generator: Adobe Illustrator 15.0.0, SVG Export Plug-In . SVG Version: 6.00 Build 0)  -->
<!DOCTYPE svg PUBLIC "-//W3C//DTD SVG 1.1//EN" "http://www.w3.org/Graphics/SVG/1.1/DTD/svg11.dtd">
<svg version="1.1" id="Layer_1" xmlns="http://www.w3.org/2000/svg" xmlns:xlink="http://www.w3.org/1999/xlink" x="0px" y="0px"
	 width="80px" height="80px" viewBox="0 0 80 80" enable-background="new 0 0 80 80" xml:space="preserve">
<g>
	<path fill="#495587" d="M48.844,38.448v0.276L38.07,39.053c-3.59,0.101-7.182,0.219-10.772,0.291l0.646-1.143l6.831,11.186
		l6.882,11.157l-2.37-0.009c1.083-1.911,2.19-3.808,3.352-5.669c1.156-1.864,2.338-3.715,3.539-5.553
		c1.203-1.838,2.43-3.661,3.688-5.465c1.258-1.806,2.547-3.591,3.9-5.336L54,38.652c-0.881,2.032-1.828,4.024-2.809,5.999
		c-0.977,1.974-1.986,3.93-3.02,5.87s-2.09,3.868-3.168,5.781c-1.074,1.914-2.203,3.794-3.355,5.666L40.394,64l-1.117-2.044
		l-6.293-11.51l-6.34-11.479L26,37.799l1.29,0.025c3.59,0.071,7.182,0.19,10.773,0.29l10.774,0.33h0.004v0.003L48.844,38.448
		L48.844,38.448z"/>
	<g>
		<line x1="40" y1="38.242" x2="40" y2="16"/>
		<polygon fill="#495587" points="38.5,38.242 40,16 41.5,38.242 		"/>
	</g>
</g>
</svg>
