<?xml version="1.0" encoding="utf-8"?>
<!-- Generator: Adobe Illustrator 15.0.0, SVG Export Plug-In . SVG Version: 6.00 Build 0)  -->
<!DOCTYPE svg PUBLIC "-//W3C//DTD SVG 1.1//EN" "http://www.w3.org/Graphics/SVG/1.1/DTD/svg11.dtd">
<svg version="1.1" id="Layer_1" xmlns="http://www.w3.org/2000/svg" xmlns:xlink="http://www.w3.org/1999/xlink" x="0px" y="0px"
	 width="80px" height="80px" viewBox="0 0 80 80" enable-background="new 0 0 80 80" xml:space="preserve">
<g>
	<path fill="#495587" d="M38.448,31.156h0.276l0.329,10.774c0.1,3.59,0.219,7.182,0.29,10.772l-1.143-0.646l11.186-6.831
		l11.157-6.883l-0.009,2.37c-1.911-1.083-3.808-2.19-5.669-3.352c-1.864-1.157-3.715-2.337-5.553-3.54s-3.661-2.429-5.465-3.688
		c-1.806-1.257-3.591-2.546-5.336-3.9L38.653,26c2.032,0.882,4.024,1.829,5.999,2.809c1.974,0.978,3.93,1.987,5.87,3.02
		c1.94,1.034,3.868,2.089,5.781,3.168c1.914,1.074,3.794,2.204,5.666,3.355L64,39.606l-2.044,1.117l-11.51,6.293l-11.479,6.34
		L37.799,54l0.025-1.29c0.071-3.59,0.19-7.182,0.29-10.773l0.33-10.773V31.16h0.003L38.448,31.156L38.448,31.156z"/>
	<g>
		<line x1="38.242" y1="40" x2="16" y2="40"/>
		<polygon fill="#495587" points="38.242,41.5 16,40 38.242,38.5 		"/>
	</g>
</g>
</svg>
