<?xml version="1.0" encoding="utf-8"?>
<!-- Generator: Adobe Illustrator 15.0.0, SVG Export Plug-In . SVG Version: 6.00 Build 0)  -->
<!DOCTYPE svg PUBLIC "-//W3C//DTD SVG 1.1//EN" "http://www.w3.org/Graphics/SVG/1.1/DTD/svg11.dtd">
<svg version="1.1" id="Layer_1" xmlns="http://www.w3.org/2000/svg" xmlns:xlink="http://www.w3.org/1999/xlink" x="0px" y="0px"
	 width="80px" height="80px" viewBox="0 0 80 80" enable-background="new 0 0 80 80" xml:space="preserve">
<g>
	<path fill="#495587" d="M31.156,41.552v-0.276l10.774-0.328c3.59-0.101,7.182-0.219,10.772-0.291l-0.646,1.143l-6.831-11.186
		l-6.883-11.157l2.37,0.009c-1.083,1.911-2.19,3.808-3.352,5.669c-1.157,1.864-2.337,3.715-3.54,5.553s-2.429,3.661-3.688,5.465
		c-1.257,1.806-2.546,3.591-3.9,5.336L26,41.348c0.882-2.032,1.829-4.024,2.809-5.999c0.978-1.974,1.987-3.93,3.02-5.87
		c1.034-1.94,2.089-3.868,3.168-5.781c1.074-1.914,2.204-3.794,3.355-5.666L39.606,16l1.117,2.044l6.293,11.51l6.34,11.479
		L54,42.201l-1.29-0.025c-3.59-0.071-7.182-0.19-10.773-0.29l-10.773-0.33H31.16v-0.003L31.156,41.552L31.156,41.552z"/>
	<g>
		<line x1="40" y1="41.758" x2="40" y2="64"/>
		<polygon fill="#495587" points="41.5,41.758 40,64 38.5,41.758 		"/>
	</g>
</g>
</svg>
