<?xml version="1.0" encoding="utf-8"?>
<!-- Generator: Adobe Illustrator 15.0.0, SVG Export Plug-In . SVG Version: 6.00 Build 0)  -->
<!DOCTYPE svg PUBLIC "-//W3C//DTD SVG 1.1//EN" "http://www.w3.org/Graphics/SVG/1.1/DTD/svg11.dtd">
<svg version="1.1" id="Layer_1" xmlns="http://www.w3.org/2000/svg" xmlns:xlink="http://www.w3.org/1999/xlink" x="0px" y="0px"
	 width="80px" height="80px" viewBox="0 0 80 80" enable-background="new 0 0 80 80" xml:space="preserve">
<path fill="#6D829F" d="M53.018,57.723v0.402l-15.869,0.48c-5.289,0.144-10.579,0.317-15.869,0.42l-1.899,0.037l0.949-1.697
	l9.337-16.707l9.269-16.748l1.645-2.973l1.846,2.959c1.697,2.719,3.361,5.457,4.943,8.244c1.588,2.783,3.146,5.588,4.664,8.412
	c1.522,2.82,3.01,5.666,4.448,8.539c1.443,2.872,2.841,5.771,4.138,8.729l-0.345,0.205c-1.996-2.539-3.895-5.139-5.743-7.766
	c-1.854-2.625-3.662-5.275-5.435-7.949c-1.772-2.676-3.514-5.369-5.217-8.082c-1.713-2.711-3.342-5.469-4.938-8.248l3.491-0.014
	L32.295,42.204L22.23,58.48l-0.95-1.662c5.29,0.104,10.579,0.277,15.869,0.422L53.018,57.723L53.018,57.723z"/>
</svg>
