<?xml version="1.0" encoding="utf-8"?>
<!-- Generator: Adobe Illustrator 15.0.0, SVG Export Plug-In . SVG Version: 6.00 Build 0)  -->
<!DOCTYPE svg PUBLIC "-//W3C//DTD SVG 1.1//EN" "http://www.w3.org/Graphics/SVG/1.1/DTD/svg11.dtd">
<svg version="1.1" id="Layer_1" xmlns="http://www.w3.org/2000/svg" xmlns:xlink="http://www.w3.org/1999/xlink" x="0px" y="0px"
	 width="80px" height="80px" viewBox="0 0 80 80" enable-background="new 0 0 80 80" xml:space="preserve">
<path fill="#495587" d="M53.124,26.983l0.481,15.869c0.144,5.289,0.316,10.58,0.42,15.869l0.035,1.9l-1.697-0.949l-16.705-9.338
	l-16.749-9.271l-2.972-1.643l2.957-1.847c2.72-1.696,5.459-3.36,8.245-4.942c2.783-1.589,5.587-3.144,8.411-4.666
	c2.823-1.522,5.668-3.009,8.541-4.45c2.871-1.443,5.771-2.838,8.729-4.136l0.205,0.343c-2.539,1.996-5.139,3.896-7.767,5.746
	c-2.625,1.854-5.276,3.661-7.952,5.432c-2.673,1.772-5.366,3.512-8.08,5.216c-2.71,1.713-5.469,3.343-8.247,4.938l-0.015-3.493
	L37.202,47.7l16.276,10.065l-1.662,0.95c0.104-5.291,0.276-10.58,0.422-15.868l0.479-15.872h0.401v0.006L53.124,26.983
	L53.124,26.983z"/>
</svg>
