<?xml version="1.0" encoding="utf-8"?>
<!-- Generator: Adobe Illustrator 15.0.0, SVG Export Plug-In . SVG Version: 6.00 Build 0)  -->
<!DOCTYPE svg PUBLIC "-//W3C//DTD SVG 1.1//EN" "http://www.w3.org/Graphics/SVG/1.1/DTD/svg11.dtd">
<svg version="1.1" id="Layer_1" xmlns="http://www.w3.org/2000/svg" xmlns:xlink="http://www.w3.org/1999/xlink" x="0px" y="0px"
	 width="80px" height="80px" viewBox="0 0 80 80" enable-background="new 0 0 80 80" xml:space="preserve">
<g>
	<path fill="#495587" d="M41.553,48.843h-0.276l-0.328-10.774c-0.101-3.59-0.219-7.182-0.291-10.772l1.143,0.646l-11.186,6.831
		l-11.157,6.883l0.009-2.37c1.911,1.083,3.808,2.19,5.669,3.352c1.864,1.157,3.715,2.338,5.553,3.54
		c1.838,1.203,3.661,2.43,5.465,3.688c1.806,1.257,3.591,2.546,5.336,3.9l-0.14,0.234c-2.032-0.882-4.024-1.828-5.999-2.809
		c-1.974-0.978-3.93-1.987-5.87-3.02c-1.94-1.034-3.868-2.09-5.781-3.168c-1.914-1.074-3.794-2.204-5.666-3.355l-2.031-1.255
		l2.044-1.117l11.51-6.293l11.479-6.34l1.168-0.644l-0.025,1.29c-0.071,3.59-0.19,7.182-0.29,10.773l-0.33,10.773v0.004h-0.003
		L41.553,48.843L41.553,48.843z"/>
	<g>
		<line x1="41.759" y1="39.999" x2="64.001" y2="39.999"/>
		<polygon fill="#495587" points="41.759,38.499 64.001,39.999 41.759,41.499 		"/>
	</g>
</g>
</svg>
