<svg width="80" height="80" xmlns="http://www.w3.org/2000/svg">

 <g>
  <title>background</title>
  <rect fill="none" id="canvas_background" height="402" width="582" y="-1" x="-1"/>
 </g>
 <g>
  <title>Layer 1</title>
  <g stroke="null" id="svg_1">
   <path stroke="null" id="svg_2" d="m37.286333,28.776418l0.30475,0l0.363271,11.896291c0.110417,3.963958 0.241812,7.930125 0.320208,11.894083l-1.262062,-0.713292l12.351208,-7.542562l12.319187,-7.599979l-0.009937,2.616875c-2.110062,-1.195812 -4.204667,-2.418125 -6.259521,-3.701167c-2.058167,-1.277521 -4.101979,-2.580437 -6.131437,-3.90875s-4.042354,-2.682021 -6.034271,-4.072167c-1.994125,-1.387937 -3.965062,-2.811208 -5.891833,-4.30625l0.156792,-0.256167c2.243667,0.973875 4.443167,2.019521 6.623896,3.101604c2.179625,1.079875 4.339375,2.193979 6.481458,3.334583c2.142083,1.141708 4.270917,2.306604 6.383187,3.498c2.113375,1.185875 4.189208,2.433583 6.256208,3.704479l2.242562,1.384625l-2.256917,1.233354l-12.708958,6.948521l-12.674729,7.000416l-1.289667,0.711083l0.027604,-1.424375c0.078396,-3.963958 0.209792,-7.930125 0.320208,-11.895187l0.364375,-11.895187l0,-0.004417l0.003312,0l0.001104,-0.004417l0,0z" fill="#495587"/>
   <g stroke="null" id="svg_3">
    <line stroke="null" id="svg_4" y2="38.541667" x2="12.500001" y1="38.541667" x1="37.058875"/>
    <polygon stroke="null" id="svg_5" points="37.058876156806946,40.19791793823242 12.50000011920929,38.54166793823242 37.058876156806946,36.88541793823242 " fill="#495587"/>
   </g>
  </g>
 </g>
</svg>