<?xml version="1.0" encoding="utf-8"?>
<!-- Generator: Adobe Illustrator 15.0.0, SVG Export Plug-In . SVG Version: 6.00 Build 0)  -->
<!DOCTYPE svg PUBLIC "-//W3C//DTD SVG 1.1//EN" "http://www.w3.org/Graphics/SVG/1.1/DTD/svg11.dtd">
<svg version="1.1" id="Layer_1" xmlns="http://www.w3.org/2000/svg" xmlns:xlink="http://www.w3.org/1999/xlink" x="0px" y="0px"
	 width="80px" height="80px" viewBox="0 0 80 80" enable-background="new 0 0 80 80" xml:space="preserve">
<path fill="#6D829F" d="M26.876,26.979h0.401l0.48,15.871c0.144,5.289,0.318,10.578,0.421,15.869l-1.662-0.951l16.277-10.063
	l16.236-10.138l-0.014,3.491c-2.779-1.596-5.539-3.226-8.248-4.938c-2.713-1.705-5.406-3.443-8.08-5.215
	c-2.675-1.771-5.327-3.578-7.952-5.432c-2.627-1.852-5.226-3.75-7.765-5.746l0.205-0.344c2.957,1.299,5.857,2.693,8.729,4.137
	c2.873,1.44,5.718,2.926,8.541,4.449c2.824,1.522,5.629,3.077,8.412,4.666c2.785,1.582,5.523,3.246,8.244,4.942l2.957,1.847
	l-2.973,1.645l-16.748,9.27l-16.706,9.338l-1.698,0.949l0.036-1.9c0.103-5.289,0.277-10.58,0.421-15.869l0.481-15.869v-0.006H26.876
	z"/>
</svg>
