<?xml version="1.0" encoding="utf-8"?>
<!-- Generator: Adobe Illustrator 15.0.0, SVG Export Plug-In . SVG Version: 6.00 Build 0)  -->
<!DOCTYPE svg PUBLIC "-//W3C//DTD SVG 1.1//EN" "http://www.w3.org/Graphics/SVG/1.1/DTD/svg11.dtd">
<svg version="1.1" id="Layer_1" xmlns="http://www.w3.org/2000/svg" xmlns:xlink="http://www.w3.org/1999/xlink" x="0px" y="0px"
	 width="80px" height="80px" viewBox="0 0 80 80" enable-background="new 0 0 80 80" xml:space="preserve">
<path fill="#FFFFFF" d="M31.335,59.736h16.526l6.578-7.885l1.455-7.379c0,0,0.697-7.733-0.612-8.606c-0.765-0.509-3.673,0-3.673,0
	l-0.577,9.126V29.338v-3.772c0,0-0.951-1.612-2.888-1.624c-1.535-0.009-2.146,1.112-2.146,1.112l-0.084-2.573
	c0,0-0.426-2.216-3.025-2.216c-1.238,0-2.041,0.627-2.532,1.259c-0.5,0.642-0.683,1.286-0.683,1.286l0,0c0,0-0.918-0.877-2.65-1.02
	c-1.633-0.135-3.163,1.632-3.163,1.632v4.386c0,0-1.53-1.324-2.958-1.324c-1.53,0-2.856,2.191-2.856,2.191v5.509v20.044"/>
<path fill="#495587" d="M31.335,59.736c2.754-0.116,5.51-0.209,8.265-0.28l8.265-0.233l-0.396,0.188l6.424-8.016l-0.151,0.321
	c0.432-2.471,0.841-4.946,1.301-7.409l-0.015,0.09c0.146-2.021,0.234-4.118,0.072-6.083c-0.047-0.482-0.113-0.972-0.229-1.359
	c-0.051-0.188-0.146-0.363-0.146-0.354c0.019,0.012-0.02,0.002,0.094,0.069c-0.021-0.011-0.078-0.046-0.063-0.034
	c0.009,0.01,0.043,0.021,0.032,0.021c-0.028-0.012-0.107-0.028-0.197-0.04c-0.779-0.091-1.869,0.045-2.806,0.2l0.79-0.884
	l-0.553,9.127l-1.967-0.063l0.021-19.429l0.134,0.488c-0.146-0.222-0.459-0.56-0.75-0.743c-0.302-0.21-0.635-0.329-0.98-0.385
	c-0.086-0.021-0.18-0.015-0.269-0.021c-0.003-0.002-0.088-0.004-0.021-0.007L48.092,24.9l-0.184,0.008
	c-0.104,0.015-0.28,0.046-0.42,0.1c-0.146,0.053-0.275,0.13-0.396,0.225c-0.105,0.076-0.251,0.253-0.267,0.272l-1.693,2.482
	l-0.067-2.901l-0.063-2.574l0.02,0.144c-0.029-0.137-0.152-0.438-0.285-0.617c-0.139-0.203-0.307-0.371-0.498-0.505
	c-0.387-0.267-0.899-0.383-1.48-0.36c-0.499,0.019-0.979,0.199-1.357,0.541c-0.383,0.322-0.725,0.884-0.873,1.337l-0.429,1.3
	l-1.021-0.9c-0.221-0.195-0.687-0.462-1.096-0.589c-0.216-0.069-0.438-0.132-0.664-0.166c-0.217-0.037-0.498-0.066-0.603-0.047
	c-0.353,0.024-0.759,0.189-1.147,0.433c-0.383,0.231-0.787,0.572-1.079,0.884l0.2-0.537l-0.027,4.387l-0.01,1.702l-1.304-1.104
	c-0.366-0.312-0.841-0.627-1.287-0.842c-0.448-0.223-0.931-0.35-1.285-0.315c-0.302,0.021-0.75,0.269-1.118,0.603
	c-0.375,0.328-0.742,0.768-1.019,1.179l0.1-0.354c-0.09,4.26-0.146,8.519-0.284,12.777c-0.127,4.26-0.222,8.518-0.401,12.775
	c-0.182-4.26-0.274-8.521-0.401-12.775c-0.138-4.261-0.193-8.52-0.284-12.777l-0.004-0.188l0.103-0.168
	c0.354-0.576,0.73-1.06,1.215-1.527c0.487-0.449,1.055-0.903,1.929-1.045c0.814-0.088,1.503,0.146,2.106,0.413
	c0.614,0.286,1.133,0.611,1.67,1.048l-1.313,0.601l-0.027-4.387l-0.002-0.312l0.203-0.228c0.444-0.496,0.881-0.871,1.418-1.228
	c0.529-0.343,1.151-0.636,1.893-0.712c0.441-0.04,0.708,0.007,1.029,0.05c0.313,0.044,0.624,0.122,0.93,0.217
	c0.627,0.212,1.159,0.446,1.771,0.963l-1.451,0.397c0.287-0.886,0.712-1.567,1.38-2.189c0.663-0.606,1.572-0.979,2.484-1.012
	c0.817-0.038,1.762,0.119,2.553,0.651c0.394,0.264,0.729,0.603,0.99,0.981c0.264,0.399,0.446,0.749,0.577,1.301l0.013,0.052
	l0.004,0.094l0.106,2.572l-1.764-0.42c0.241-0.405,0.444-0.599,0.723-0.839c0.269-0.219,0.568-0.397,0.892-0.525
	c0.326-0.125,0.638-0.201,1.03-0.239l0.188-0.011l0.096-0.004l0.162,0.004c0.158,0.012,0.316,0.011,0.479,0.041
	c0.636,0.092,1.261,0.327,1.778,0.684c0.535,0.37,0.938,0.75,1.343,1.362l0.131,0.2l0.001,0.286l0.021,19.429l-1.967-0.063
	l0.604-9.125l0.052-0.78l0.739-0.104c1.115-0.152,2.117-0.31,3.413-0.158c0.169,0.027,0.345,0.062,0.561,0.142
	c0.054,0.019,0.146,0.061,0.216,0.095l0.104,0.062c0.217,0.14,0.28,0.218,0.382,0.327c0.33,0.412,0.416,0.738,0.518,1.049
	c0.168,0.612,0.229,1.165,0.274,1.718c0.149,2.189,0.029,4.272-0.146,6.399l-0.004,0.047l-0.01,0.045
	c-0.511,2.455-1.07,4.896-1.607,7.35l-0.043,0.193l-0.109,0.128l-6.732,7.753l-0.17,0.191l-0.229-0.007l-8.264-0.233
	C36.845,59.945,34.089,59.854,31.335,59.736z"/>
<line fill="none" stroke="#495587" stroke-miterlimit="10" x1="51.262" y1="44.475" x2="45.143" y2="48.759"/>
<path fill="#FFFFFF" stroke="#6D829F" stroke-miterlimit="10" d="M43.96,45.657"/>
<line fill="none" stroke="#495587" stroke-miterlimit="10" x1="45.488" y1="21.655" x2="45.488" y2="40.895"/>
<line fill="none" stroke="#495587" stroke-miterlimit="10" x1="39.675" y1="22.771" x2="39.675" y2="41.41"/>
<line fill="none" stroke="#495587" stroke-miterlimit="10" x1="34.269" y1="28.113" x2="34.269" y2="41.41"/>
</svg>
