<?xml version="1.0" encoding="utf-8"?>
<!-- Generator: Adobe Illustrator 15.0.0, SVG Export Plug-In . SVG Version: 6.00 Build 0)  -->
<!DOCTYPE svg PUBLIC "-//W3C//DTD SVG 1.1//EN" "http://www.w3.org/Graphics/SVG/1.1/DTD/svg11.dtd">
<svg version="1.1" id="Layer_1" xmlns="http://www.w3.org/2000/svg" xmlns:xlink="http://www.w3.org/1999/xlink" x="0px" y="0px"
	 width="80px" height="80px" viewBox="0 0 80 80" enable-background="new 0 0 80 80" xml:space="preserve">
<path fill="#FFFFFF" d="M17.696,62.5c14.179-13.736,28.362-27.475,42.543-41.213c0.666-0.646-0.636-3.169,0-3.784
	C46.059,31.239,31.877,44.978,17.696,58.716C17.029,59.359,18.332,61.883,17.696,62.5L17.696,62.5z"/>
<path fill="#FFFFFF" d="M19.759,21.285C33.941,35.023,48.124,48.762,62.305,62.5c-0.636-0.616,0.666-3.139,0-3.784
	C48.124,44.979,33.941,31.238,19.759,17.5C20.395,18.118,19.094,20.641,19.759,21.285L19.759,21.285z"/>
</svg>
