<?xml version="1.0" encoding="utf-8"?><svg xmlns="http://www.w3.org/2000/svg" xmlns:xlink="http://www.w3.org/1999/xlink" version="1.1" class="page" pageAlignment="none" x="0px" y="0px" width="80px" height="80px" viewBox="0 0 80 80" enable-background="new 0 0 80 80" xml:space="preserve"><defs/><style type="text/css"/><style type="text/css"/><g type="LAYER" name="workspace" id="workspace" locked="true"/><g transform="matrix(-0.9999979267239028 0.0020363074168995043 -0.0020363074168995043 -0.9999979267239028 11.365683330550777 43.37246532578499)"><g transform="matrix(1 0 0 1 8.526512829121202e-14 2.1815649286650185)"><path transform="matrix(1 0 0 1 -4.153021864978328 -2.99349104726069)" width="36.211588926001134" height="41.81773931361832" stroke-width="0.0045481673752439805" stroke-miterlimit="3" stroke="#000000" stroke-opacity="0" fill="#495587" d="M-2.502141509685721,21.26620230755133 C-2.4672549510688953,21.194906545694778 -2.4556260981965963,11.786427505006266 -2.467254951068874,0.367578748254509 L-2.5021415096857638,-20.39827246411184 L-16.574022556218814,-20.42901075664882 L-38.568804002099604,-20.193154301740137 L-37.61977952577492,-19.452957706825387 L-37.621285314346544,-18.80676601489597 L-16.573538020682534,-18.69400491122917 L-4.470809393855788,-18.663266618692205 L-4.470809393855738,0.4696128026480153 L-4.470809393855767,19.602919144717944 L-15.322951801376007,19.633657437254875 L-26.186238526232152,19.654149632279527 L-26.209496231976694,15.296996665165189 L-26.244382790593527,10.929597600538436 L-31.20118132740354,10.898859308001477 L-36.146351011341146,10.87794019224716 L-36.1463510113412,3.939197572757614 L-36.772951622284175,-20.189958671701106 L-37.61805862455025,-20.191462497601847 L-38.67465749003599,-20.101029181130684 L-38.115503431047394,4.826765769762403 L-38.115503431047365,12.653503506986361 L-33.16984921157346,17.021329492342765 L-28.213050674763586,21.38872855696949 L-15.380611530201016,21.388728556969493 C-5.223777617335976,21.38872855696949 -2.5365435327662027,21.357990264432598 -2.502141509685721,21.26620230755133 Z M-31.768572440463593,15.806740016403062 C-33.66795174293629,14.133210756057366 -35.21991906584939,12.735045366355315 -35.21991906584932,12.684241799523392 C-35.219919065849375,12.643257409474003 -33.64469403719166,12.62319213517916 -31.722057028974497,12.63301131196178 L-28.213050674763572,12.663749604498669 L-28.17816411614671,15.755509528841522 C-28.16653526327439,17.449530984211826 -28.18979296901893,18.83745027640164 -28.236308380508014,18.837450276401647 C-28.28233925646088,18.837450276401654 -29.880821990863275,17.470023179236463 -31.768572440463593,15.806740016403062 Z "/><path transform="matrix(1 0 0 1 14.092133385347847 9.50270100930944)" width="9.844793027458905" height="1.838320662002232" stroke-width="0.0045481673752439805" stroke-miterlimit="3" stroke="#000000" stroke-opacity="0" fill="#495587" d="M-36.14635101134121,-11.673720432370743 L-34.15442542142668,-11.694212627395387 L-32.15087097863987,-11.724950919932326 L-32.150870978639816,-12.592453842642179 L-32.15087097863986,-13.459956765351968 L-34.15442542142665,-13.490695057888942 L-36.146351011341224,-13.511187252913594 L-38.11550343104746,-13.51033341145422 L-40.06139814500928,-13.489841216429589 L-41.99566400609872,-13.459102923892594 L-41.99566400609871,-12.591600001182783 L-41.995664006098664,-11.724097078472973 L-40.061398145009264,-11.693358785936006 L-38.115503431047415,-11.672866590911362 L-36.14635101134121,-11.673720432370743 Z "/></g><path transform="matrix(1 0 0 1 -11.448265411102525 6.132730834539245)" width="36.014147560830125" height="41.20510407859414" stroke-width="0.0045481673752439805" stroke-miterlimit="3" stroke="#000000" stroke-opacity="0" fill="#495587" d="M-2.5021415096857424,21.26620230755131 L-2.786984354291768,12.964482988150834 L-3.826979404199257,12.962632368657111 L-4.569833011276067,12.961310497590183 L-4.470809393855731,19.60291914471796 L-15.322951801376064,19.633657437254865 L-26.186238526232202,19.654149632279506 L-26.20949623197673,15.2969966651652 L-26.244382790593534,10.929597600538422 L-31.20118132740359,10.898859308001477 L-36.14635101134111,10.877940192247145 L-36.291963757334244,-17.994790779293318 L-30.646276343550667,-17.984744559184584 L-30.64415858952634,-18.89355412374981 L-30.64204083550196,-19.80236368831507 L-38.51628907051587,-19.81637552162465 L-38.115503431047415,12.653503506986368 L-33.16984921157348,17.02132949234275 L-28.213050674763608,21.38872855696948 L-15.380611530201037,21.38872855696949 C-5.223777617336005,21.388728556969493 -2.5365435327662382,21.357990264432583 -2.5021415096857424,21.26620230755131 Z M-31.76857244046363,15.806740016403065 C-33.66795174293631,14.133210756057366 -35.21991906584937,12.735045366355308 -35.21991906584937,12.684241799523384 C-35.219919065849396,12.643257409474018 -33.6446940371917,12.623192135179153 -31.722057028974476,12.633011311961774 L-28.213050674763622,12.663749604498676 L-28.178164116146718,15.755509528841522 C-28.16653526327444,17.449530984211815 -28.189792969018995,18.837450276401636 -28.23630838050805,18.837450276401647 C-28.2823392564609,18.837450276401654 -29.88082199086334,17.470023179236453 -31.76857244046363,15.806740016403065 Z "/></g></svg>