<?xml version="1.0" encoding="utf-8"?>
<!-- Generator: Adobe Illustrator 15.0.0, SVG Export Plug-In . SVG Version: 6.00 Build 0)  -->
<!DOCTYPE svg PUBLIC "-//W3C//DTD SVG 1.1//EN" "http://www.w3.org/Graphics/SVG/1.1/DTD/svg11.dtd">
<svg version="1.1" id="Layer_1" xmlns="http://www.w3.org/2000/svg" xmlns:xlink="http://www.w3.org/1999/xlink" x="0px" y="0px"
	 width="80px" height="80px" viewBox="0 0 80 80" enable-background="new 0 0 80 80" xml:space="preserve">
<path fill="#D1D3D4" d="M40.002,10.986c4.398,0.168,9.154,4.788,9.156,9.772c0.006,5.063-7.311,23.952-9.156,25.898
	c-1.849-1.946-9.161-20.837-9.157-25.898C30.845,15.774,35.603,11.154,40.002,10.986z"/>
<path fill="#495587" d="M40.002,10.986c1.762,0.077,3.479,0.678,5.082,1.562c1.598,0.896,3.055,2.194,4.027,3.876
	c0.861,1.713,1.248,3.775,0.938,5.703c-0.271,1.849-0.74,3.563-1.23,5.279c-1.002,3.418-2.182,6.754-3.451,10.062
	c-0.639,1.652-1.301,3.296-2.014,4.925c-0.355,0.814-0.727,1.627-1.121,2.438c-0.199,0.405-0.404,0.812-0.631,1.217
	c-0.246,0.418-0.43,0.793-0.873,1.302L40,48.177l-0.726-0.825c-0.445-0.511-0.629-0.884-0.874-1.304
	c-0.226-0.405-0.432-0.812-0.631-1.217c-0.396-0.81-0.765-1.621-1.122-2.437c-0.712-1.634-1.375-3.273-2.014-4.929
	c-1.271-3.308-2.448-6.644-3.451-10.063c-0.49-1.717-0.961-3.431-1.231-5.277c-0.307-1.969,0.066-3.971,0.944-5.701
	c0.985-1.674,2.438-2.969,4.03-3.867C36.525,11.668,38.24,11.063,40.002,10.986z M40.002,10.986
	c-1.772,0.075-3.419,0.967-4.632,2.166c-1.222,1.211-2.104,2.674-2.679,4.156c-0.303,0.73-0.623,1.455-0.74,2.229
	c-0.061,0.414-0.101,0.689-0.104,1.17c-0.009,0.326,0.034,0.75,0.089,1.147c0.237,1.638,0.693,3.33,1.171,4.992
	c0.978,3.335,2.144,6.64,3.396,9.899c0.631,1.631,1.284,3.251,1.98,4.845c0.349,0.795,0.707,1.586,1.084,2.357
	c0.188,0.384,0.383,0.765,0.584,1.125c0.188,0.345,0.439,0.746,0.576,0.896h-1.45c0.14-0.149,0.388-0.553,0.577-0.896
	c0.2-0.36,0.395-0.741,0.583-1.125c0.375-0.771,0.735-1.563,1.083-2.357c0.697-1.594,1.354-3.214,1.98-4.845
	c1.254-3.26,2.42-6.564,3.396-9.899c0.479-1.663,0.934-3.354,1.17-4.992c0.262-1.56-0.063-3.112-0.766-4.543
	c-0.586-1.476-1.463-2.937-2.682-4.149C43.418,11.957,41.775,11.062,40.002,10.986z"/>
<circle fill="#6D829F" stroke="#D1D3D4" stroke-width="2" stroke-miterlimit="10" cx="40" cy="20.442" r="4.101"/>
<line fill="none" stroke="#131415" stroke-width="2" stroke-miterlimit="10" x1="37.691" y1="46.66" x2="22.374" y2="68.68"/>
<line fill="none" stroke="#131415" stroke-width="2" stroke-miterlimit="10" x1="42.191" y1="46.66" x2="57.619" y2="68.68"/>
<line fill="none" stroke="#131415" stroke-width="2" stroke-miterlimit="10" x1="39.999" y1="53.438" x2="40" y2="56.469"/>
<line fill="none" stroke="#131415" stroke-width="2" stroke-miterlimit="10" x1="40" y1="60.818" x2="40" y2="65.539"/>
<line fill="none" stroke="#131415" stroke-width="2" stroke-miterlimit="10" x1="40" y1="69.086" x2="40" y2="73.809"/>
</svg>
