<?xml version="1.0" encoding="utf-8"?>
<!-- Generator: Adobe Illustrator 15.0.0, SVG Export Plug-In . SVG Version: 6.00 Build 0)  -->
<!DOCTYPE svg PUBLIC "-//W3C//DTD SVG 1.1//EN" "http://www.w3.org/Graphics/SVG/1.1/DTD/svg11.dtd">
<svg version="1.1" id="Layer_1" xmlns="http://www.w3.org/2000/svg" xmlns:xlink="http://www.w3.org/1999/xlink" x="0px" y="0px"
	 width="80px" height="80px" viewBox="0 0 80 80" enable-background="new 0 0 80 80" xml:space="preserve">
<g>
	<g>
		<path fill="#495587" d="M50.668,50.241c1.62-1.552,3.248-3.091,4.914-4.586c1.641-1.525,3.354-2.96,5.029-4.443l5.144-4.309
			l0.031,2.344c-1.726-1.347-3.445-2.7-5.138-4.09c-1.683-1.404-3.392-2.771-5.037-4.221c-1.668-1.419-3.299-2.889-4.924-4.365
			c-1.604-1.502-3.213-2.998-4.742-4.6c1.934,1.08,3.783,2.266,5.639,3.445c1.835,1.205,3.664,2.418,5.455,3.681
			c1.813,1.231,3.563,2.547,5.343,3.824c1.769,1.292,3.507,2.621,5.242,3.956l1.509,1.162l-1.479,1.184l-5.237,4.19
			c-1.784,1.353-3.528,2.749-5.349,4.057c-1.793,1.341-3.625,2.634-5.465,3.914c-1.86,1.257-3.715,2.521-5.658,3.679
			C47.464,53.387,49.068,51.818,50.668,50.241z"/>
	</g>
	<g>
		<path fill="#495587" d="M19.303,34.299c0.148,2.645,0.346,5.29,0.455,7.936c0.117,2.646,0.275,5.289,0.35,7.936l0.262,7.938
			l-2.565-1.471l8.146-5.021L34.16,46.7c2.729-1.652,5.495-3.237,8.255-4.836c2.762-1.593,5.51-3.213,8.302-4.755l-0.013,3.177
			c-2.708-1.715-5.442-3.386-8.13-5.136c-2.685-1.753-5.4-3.458-8.06-5.252c-2.673-1.772-5.341-3.556-7.979-5.384
			c-2.647-1.816-5.272-3.67-7.865-5.577c2.903,1.387,5.776,2.827,8.627,4.305c2.857,1.466,5.688,2.977,8.512,4.498
			c2.837,1.5,5.619,3.089,8.432,4.63c2.812,1.544,5.573,3.167,8.362,4.746l2.66,1.506l-2.673,1.671
			c-2.704,1.691-5.454,3.307-8.188,4.947c-2.737,1.636-5.468,3.283-8.237,4.865l-8.283,4.787l-8.348,4.681l-2.664,1.493l0.098-2.961
			l0.262-7.938c0.074-2.646,0.232-5.29,0.35-7.938c0.109-2.645,0.307-5.289,0.455-7.935c0.186-2.645,0.387-5.289,0.637-7.935
			C18.918,29.009,19.119,31.652,19.303,34.299z"/>
	</g>
</g>
</svg>
