<?xml version="1.0" encoding="utf-8"?>
<!-- Generator: Adobe Illustrator 15.0.0, SVG Export Plug-In . SVG Version: 6.00 Build 0)  -->
<!DOCTYPE svg PUBLIC "-//W3C//DTD SVG 1.1//EN" "http://www.w3.org/Graphics/SVG/1.1/DTD/svg11.dtd">
<svg version="1.1" id="Layer_1" xmlns="http://www.w3.org/2000/svg" xmlns:xlink="http://www.w3.org/1999/xlink" x="0px" y="0px"
	 width="80px" height="80px" viewBox="0 0 80 80" enable-background="new 0 0 80 80" xml:space="preserve">
<g>
	<path fill="#495587" d="M38.149,23.455c1.942,1.153,3.797,2.422,5.658,3.678c1.84,1.281,3.671,2.574,5.465,3.914
		c1.818,1.308,3.563,2.705,5.349,4.057l5.236,4.189l1.479,1.185l-1.509,1.162c-1.735,1.335-3.476,2.664-5.242,3.956
		c-1.779,1.276-3.529,2.593-5.343,3.823c-1.791,1.264-3.62,2.477-5.455,3.682c-1.855,1.18-3.705,2.365-5.638,3.444
		c1.528-1.602,3.138-3.098,4.742-4.6c1.625-1.477,3.255-2.946,4.924-4.365c1.646-1.45,3.355-2.815,5.036-4.221
		c1.692-1.39,3.412-2.743,5.139-4.09l-0.031,2.344l-5.144-4.309c-1.676-1.482-3.39-2.918-5.029-4.443
		c-1.666-1.494-3.294-3.033-4.914-4.586C41.271,26.699,39.667,25.131,38.149,23.455z"/>
</g>
<g>
	<g>
		<g>
			<path fill="#495587" d="M44.789,38.406l2.672,1.671l-2.66,1.506c-2.789,1.579-5.552,3.202-8.363,4.746
				c-2.813,1.541-5.592,3.13-8.43,4.63c-2.824,1.521-5.654,3.032-8.514,4.498c-2.854,1.478-5.727,2.918-8.627,4.305
				c2.593-1.907,5.218-3.761,7.863-5.577c2.641-1.828,5.309-3.61,7.979-5.384c2.659-1.794,5.375-3.499,8.06-5.252
				c2.688-1.75,5.422-3.421,8.129-5.136"/>
		</g>
	</g>
	<g>
		<path fill="#495587" d="M42.9,41.587c-2.709-1.715-5.442-3.386-8.131-5.136c-2.685-1.754-5.4-3.459-8.06-5.252
			c-2.671-1.773-5.339-3.557-7.979-5.385c-2.646-1.815-5.271-3.67-7.863-5.576c2.9,1.387,5.773,2.826,8.627,4.305
			c2.859,1.466,5.689,2.977,8.514,4.498c2.838,1.5,5.617,3.089,8.43,4.63c2.812,1.544,5.574,3.167,8.363,4.746l2.66,1.506
			l-2.672,1.671"/>
	</g>
</g>
</svg>
