<?xml version="1.0" encoding="utf-8"?>
<!-- Generator: Adobe Illustrator 15.0.0, SVG Export Plug-In . SVG Version: 6.00 Build 0)  -->
<!DOCTYPE svg PUBLIC "-//W3C//DTD SVG 1.1//EN" "http://www.w3.org/Graphics/SVG/1.1/DTD/svg11.dtd">
<svg version="1.1" id="Layer_1" xmlns="http://www.w3.org/2000/svg" xmlns:xlink="http://www.w3.org/1999/xlink" x="0px" y="0px"
	 width="80px" height="80px" viewBox="0 0 80 80" enable-background="new 0 0 80 80" xml:space="preserve">
<g>
	<g>
		<path fill="#6D829F" d="M34.054,55.063c-1.942-1.155-3.797-2.422-5.658-3.678c-1.84-1.281-3.671-2.574-5.465-3.914
			c-1.818-1.308-3.563-2.705-5.348-4.057l-5.237-4.19l-1.479-1.184l1.509-1.162c1.735-1.335,3.475-2.664,5.242-3.956
			c1.779-1.277,3.529-2.593,5.343-3.824c1.791-1.263,3.62-2.476,5.455-3.681c1.855-1.18,3.705-2.365,5.638-3.445
			c-1.528,1.602-3.138,3.098-4.742,4.6c-1.625,1.477-3.255,2.946-4.924,4.365c-1.646,1.45-3.355,2.816-5.036,4.221
			c-1.692,1.39-3.412,2.743-5.138,4.09l0.031-2.344l5.143,4.309c1.676,1.482,3.39,2.918,5.03,4.443
			c1.666,1.494,3.294,3.033,4.914,4.586C30.931,51.818,32.536,53.387,34.054,55.063z"/>
	</g>
	<g>
		<path fill="#6D829F" d="M61.332,26.363c0.25,2.646,0.451,5.29,0.637,7.935c0.148,2.646,0.346,5.29,0.455,7.935
			c0.117,2.646,0.275,5.291,0.35,7.937l0.263,7.937l0.098,2.961l-2.663-1.493l-8.349-4.681l-8.283-4.787
			c-2.771-1.582-5.5-3.229-8.237-4.865c-2.735-1.641-5.485-3.256-8.19-4.947l-2.672-1.671l2.66-1.506
			c2.789-1.579,5.552-3.202,8.363-4.746c2.813-1.541,5.594-3.13,8.432-4.63c2.824-1.521,5.654-3.032,8.512-4.498
			c2.852-1.478,5.725-2.918,8.627-4.305c-2.593,1.907-5.218,3.761-7.865,5.577c-2.639,1.828-5.307,3.611-7.979,5.384
			c-2.659,1.794-5.375,3.499-8.06,5.252c-2.688,1.75-5.422,3.421-8.13,5.136l-0.013-3.177c2.792,1.542,5.54,3.162,8.302,4.755
			c2.76,1.599,5.526,3.184,8.255,4.836l8.209,4.915l8.146,5.021l-2.565,1.47l0.263-7.937c0.074-2.646,0.231-5.29,0.35-7.935
			c0.109-2.646,0.307-5.291,0.455-7.936C60.881,31.652,61.082,29.009,61.332,26.363z"/>
	</g>
</g>
</svg>
