<?xml version="1.0" encoding="utf-8"?>
<!-- Generator: Adobe Illustrator 15.0.0, SVG Export Plug-In . SVG Version: 6.00 Build 0)  -->
<!DOCTYPE svg PUBLIC "-//W3C//DTD SVG 1.1//EN" "http://www.w3.org/Graphics/SVG/1.1/DTD/svg11.dtd">
<svg version="1.1" id="Layer_1" xmlns="http://www.w3.org/2000/svg" xmlns:xlink="http://www.w3.org/1999/xlink" x="0px" y="0px"
	 width="80px" height="80px" viewBox="0 0 80 80" enable-background="new 0 0 80 80" xml:space="preserve">
<g>
	<path fill="#6D829F" d="M13.001,35.239c0.66-1.292,1.666-2.449,2.934-3.258c1.261-0.811,2.759-1.31,4.3-1.372l-0.311,0.103
		c2.448-2.024,4.908-4.032,7.389-6.015c2.464-2.003,4.968-3.953,7.457-5.922l0.295-0.233l0.421-0.005
		c1.071-0.012,2.256,0.07,3.426,0.677c1.188,0.6,2.033,1.82,2.388,2.919c0.726,2.235,0.615,4.252,0.679,6.188l0.08,11.628
		c0.03,3.875-0.024,7.752-0.035,11.627c-0.037,1.932,0.086,3.959-0.65,6.213c-0.354,1.109-1.216,2.354-2.421,2.961
		c-1.186,0.621-2.382,0.717-3.463,0.715l-0.442-0.002l-0.335-0.258c-2.517-1.932-4.989-3.922-7.486-5.881
		c-2.491-1.967-4.952-3.973-7.426-5.967l0.438,0.146c-2.396-0.094-4.703-1.172-6.241-2.903c-1.564-1.713-2.343-4.037-2.174-6.243
		c0.15,2.208,1.188,4.265,2.758,5.659c1.564,1.401,3.64,2.144,5.657,2.022l0.21-0.013l0.229,0.158
		c2.611,1.808,5.233,3.599,7.826,5.428c2.586,1.841,5.196,3.647,7.764,5.517l-0.776-0.26c0.844-0.017,1.639-0.156,2.167-0.474
		c0.525-0.308,0.854-0.771,1.083-1.498c0.228-0.713,0.315-1.59,0.354-2.494c0.046-0.909,0.034-1.846,0.029-2.825
		c-0.01-3.877-0.065-7.752-0.036-11.628l0.08-11.628c0.025-1.918,0.099-3.858-0.354-5.345c-0.231-0.738-0.574-1.223-1.118-1.539
		c-0.543-0.33-1.35-0.485-2.203-0.511l0.715-0.238c-2.594,1.829-5.173,3.678-7.793,5.473c-2.604,1.816-5.228,3.606-7.861,5.38
		l-0.163,0.11l-0.147-0.007c-1.359-0.063-2.761,0.199-4.019,0.828C14.96,33.098,13.826,34.039,13.001,35.239z"/>
	<path fill="#6D829F" d="M46.298,26.776c1.466-0.338,3.111,0.061,4.474,0.875c1.357,0.833,2.494,2.012,3.352,3.34
		c1.716,2.685,2.48,5.82,2.488,8.985c-0.004,3.063-0.771,6.274-2.484,8.937c-0.854,1.33-1.99,2.51-3.354,3.342
		c-1.359,0.813-3.01,1.213-4.475,0.873c1.454-0.342,2.653-1.063,3.575-2.041c0.946-0.942,1.64-2.104,2.187-3.313
		c1.084-2.45,1.539-5.11,1.553-7.847c-0.01-2.633-0.465-5.368-1.549-7.796c-0.547-1.21-1.237-2.372-2.188-3.317
		C48.953,27.838,47.753,27.114,46.298,26.776z"/>
	<path fill="#6D829F" d="M55.132,22.526c1.925-0.348,4.015,0.24,5.734,1.328c1.721,1.112,3.137,2.661,4.207,4.39
		c2.174,3.468,3.094,7.563,3.129,11.583c0.003,4.024-0.974,8.112-3.125,11.585c-1.07,1.729-2.486,3.279-4.209,4.391
		c-1.722,1.088-3.813,1.676-5.736,1.326c1.913-0.332,3.558-1.244,4.841-2.492c1.303-1.229,2.282-2.752,3.057-4.357
		c1.527-3.236,2.16-6.857,2.178-10.45c0.025-1.801-0.16-3.6-0.52-5.357c-0.328-1.767-0.914-3.471-1.652-5.097
		c-0.771-1.604-1.756-3.129-3.061-4.357C58.688,23.767,57.046,22.854,55.132,22.526z"/>
</g>
<line fill="none" stroke="#FFFFFF" stroke-width="4" stroke-miterlimit="10" x1="63.031" y1="14.071" x2="15.684" y2="65.745"/>
</svg>
