<?xml version="1.0" encoding="utf-8"?>
<!-- Generator: Adobe Illustrator 15.0.0, SVG Export Plug-In . SVG Version: 6.00 Build 0)  -->
<!DOCTYPE svg PUBLIC "-//W3C//DTD SVG 1.1//EN" "http://www.w3.org/Graphics/SVG/1.1/DTD/svg11.dtd">
<svg version="1.1" id="Layer_1" xmlns="http://www.w3.org/2000/svg" xmlns:xlink="http://www.w3.org/1999/xlink" x="0px" y="0px"
	 width="80px" height="80px" viewBox="0 0 80 80" enable-background="new 0 0 80 80" xml:space="preserve">
<g>
	<path fill="#6D829F" d="M28.239,34.299c0.148,2.646,0.346,5.29,0.456,7.936c0.115,2.646,0.274,5.289,0.349,7.936l0.262,7.936
		l-2.565-1.467l8.146-5.022l8.208-4.915c2.729-1.652,5.495-3.237,8.254-4.836c2.764-1.594,5.512-3.214,8.303-4.756l-0.014,3.178
		c-2.707-1.715-5.44-3.387-8.129-5.137c-2.685-1.753-5.398-3.458-8.06-5.252c-2.673-1.771-5.34-3.556-7.98-5.384
		c-2.646-1.815-5.271-3.67-7.865-5.577c2.904,1.388,5.777,2.827,8.627,4.306c2.858,1.465,5.688,2.976,8.513,4.498
		c2.837,1.499,5.618,3.089,8.432,4.629c2.812,1.544,5.574,3.167,8.363,4.746l2.66,1.506l-2.673,1.671
		c-2.705,1.691-5.455,3.307-8.19,4.947c-2.737,1.635-5.468,3.283-8.237,4.865l-8.283,4.787l-8.348,4.681l-2.665,1.493l0.099-2.961
		l0.262-7.937c0.074-2.646,0.232-5.29,0.349-7.937c0.11-2.645,0.308-5.29,0.456-7.935c0.187-2.646,0.387-5.29,0.636-7.935
		C27.852,29.008,28.053,31.652,28.239,34.299z"/>
</g>
</svg>
