<?xml version="1.0" encoding="utf-8"?>
<!-- Generator: Adobe Illustrator 15.0.0, SVG Export Plug-In . SVG Version: 6.00 Build 0)  -->
<!DOCTYPE svg PUBLIC "-//W3C//DTD SVG 1.1//EN" "http://www.w3.org/Graphics/SVG/1.1/DTD/svg11.dtd">
<svg version="1.1" id="Layer_2" xmlns="http://www.w3.org/2000/svg" xmlns:xlink="http://www.w3.org/1999/xlink" x="0px" y="0px"
	 width="80px" height="80px" viewBox="0 0 80 80" enable-background="new 0 0 80 80" xml:space="preserve">
<g>
	<g>
		<line x1="31.5" y1="18.5" x2="31.5" y2="61.5"/>
		<path fill="#495587" d="M31.5,18.5c0.833,1.792,1.423,3.583,2.02,5.375c-0.04,1.792-0.011,3.583-0.02,5.375V40v10.75v5.375
			c-0.608,1.792-1.198,3.583-2,5.375c-0.802-1.792-1.392-3.583-2-5.375V50.75V40V29.25c-0.009-1.792,0.02-3.583-0.02-5.375
			C30.076,22.083,30.666,20.292,31.5,18.5z"/>
	</g>
	<g>
		<line x1="48.5" y1="18.5" x2="48.5" y2="61.5"/>
		<path fill="#495587" d="M48.5,18.5c0.834,1.792,1.424,3.583,2.02,5.375c-0.039,1.792-0.011,3.583-0.02,5.375V40v10.75v5.375
			c-0.608,1.792-1.197,3.583-2,5.375c-0.803-1.792-1.392-3.583-2-5.375V50.75V40V29.25c-0.009-1.792,0.02-3.583-0.02-5.375
			C47.076,22.083,47.666,20.292,48.5,18.5z"/>
	</g>
</g>
</svg>
