<?xml version="1.0" encoding="utf-8"?>
<!-- Generator: Adobe Illustrator 15.0.0, SVG Export Plug-In . SVG Version: 6.00 Build 0)  -->
<!DOCTYPE svg PUBLIC "-//W3C//DTD SVG 1.1//EN" "http://www.w3.org/Graphics/SVG/1.1/DTD/svg11.dtd">
<svg version="1.1" id="Layer_2" xmlns="http://www.w3.org/2000/svg" xmlns:xlink="http://www.w3.org/1999/xlink" x="0px" y="0px"
	 width="80px" height="80px" viewBox="0 0 80 80" enable-background="new 0 0 80 80" xml:space="preserve">
<g>
	<g>
		<g>
			<line fill="none" x1="47.83" y1="23.028" x2="47.83" y2="57.419"/>
			<path fill="#495587" d="M47.83,23.028c0.531,1.433,0.91,2.866,1.291,4.299c-0.025,1.433-0.006,2.866-0.012,4.299v8.598v8.598
				v4.299c-0.389,1.434-0.768,2.865-1.279,4.299c-0.514-1.434-0.891-2.865-1.279-4.299v-4.299v-8.598v-8.598
				c-0.006-1.433,0.012-2.866-0.014-4.299C46.918,25.894,47.297,24.461,47.83,23.028z"/>
		</g>
		<g>
			<line fill="none" x1="58.703" y1="23.028" x2="58.703" y2="57.419"/>
			<path fill="#495587" d="M58.703,23.028c0.533,1.433,0.91,2.866,1.291,4.299c-0.023,1.433-0.006,2.866-0.012,4.299v8.598v8.598
				v4.299c-0.389,1.434-0.766,2.865-1.279,4.299c-0.514-1.434-0.891-2.865-1.279-4.299v-4.299v-8.598v-8.598
				c-0.006-1.433,0.012-2.866-0.012-4.299C57.793,25.894,58.17,24.461,58.703,23.028z"/>
		</g>
	</g>
	<g>
		<path fill="#495587" d="M21.564,34.864c0.095,2.117,0.221,4.231,0.292,6.347c0.074,2.116,0.175,4.229,0.223,6.348l0.168,6.349
			l-1.641-1.173l5.21-4.017l5.25-3.932c1.745-1.321,3.514-2.589,5.279-3.867c1.768-1.275,3.525-2.571,5.312-3.804l-0.01,2.541
			c-1.731-1.371-3.48-2.709-5.201-4.108c-1.717-1.402-3.452-2.766-5.155-4.2c-1.71-1.417-3.416-2.844-5.104-4.306
			c-1.692-1.452-3.371-2.935-5.031-4.46c1.857,1.11,3.695,2.261,5.518,3.444c1.828,1.171,3.639,2.38,5.446,3.597
			c1.814,1.199,3.592,2.471,5.393,3.702c1.799,1.235,3.566,2.533,5.349,3.796l1.703,1.204l-1.713,1.337
			c-1.729,1.353-3.489,2.645-5.237,3.957c-1.75,1.307-3.498,2.626-5.268,3.891l-5.299,3.829l-5.34,3.743l-1.705,1.194l0.063-2.368
			l0.168-6.349c0.047-2.116,0.148-4.231,0.223-6.35c0.07-2.115,0.196-4.23,0.292-6.346c0.119-2.116,0.248-4.231,0.407-6.346
			C21.317,30.632,21.446,32.747,21.564,34.864z"/>
	</g>
</g>
</svg>
