<?xml version="1.0" encoding="utf-8"?>
<!-- Generator: Adobe Illustrator 15.0.0, SVG Export Plug-In . SVG Version: 6.00 Build 0)  -->
<!DOCTYPE svg PUBLIC "-//W3C//DTD SVG 1.1//EN" "http://www.w3.org/Graphics/SVG/1.1/DTD/svg11.dtd">
<svg version="1.1" id="Layer_1" xmlns="http://www.w3.org/2000/svg" xmlns:xlink="http://www.w3.org/1999/xlink" x="0px" y="0px"
	 width="80px" height="80px" viewBox="0 0 80 80" enable-background="new 0 0 80 80" xml:space="preserve">
<g>
	<g>
		<g>
			<path fill="#495587" d="M24.375,41.594l-2.672-1.671l2.66-1.506c2.789-1.579,5.552-3.202,8.363-4.746
				c2.813-1.541,5.592-3.13,8.43-4.63c2.824-1.521,5.654-3.032,8.514-4.498c2.854-1.478,5.727-2.918,8.627-4.305
				c-2.593,1.907-5.218,3.761-7.863,5.577c-2.641,1.828-5.309,3.61-7.979,5.384c-2.659,1.794-5.375,3.499-8.06,5.252
				c-2.688,1.75-5.422,3.421-8.13,5.136"/>
		</g>
	</g>
	<g>
		<path fill="#495587" d="M26.264,38.413c2.709,1.715,5.442,3.386,8.131,5.136c2.685,1.754,5.4,3.459,8.06,5.252
			c2.671,1.773,5.339,3.557,7.979,5.385c2.646,1.815,5.271,3.67,7.863,5.576c-2.9-1.387-5.773-2.826-8.627-4.305
			c-2.859-1.466-5.689-2.977-8.514-4.498c-2.838-1.5-5.617-3.089-8.43-4.63c-2.812-1.544-5.574-3.167-8.363-4.746l-2.66-1.506
			l2.672-1.671"/>
	</g>
</g>
</svg>
