<?xml version="1.0" encoding="utf-8"?>
<!-- Generator: Adobe Illustrator 15.0.0, SVG Export Plug-In . SVG Version: 6.00 Build 0)  -->
<!DOCTYPE svg PUBLIC "-//W3C//DTD SVG 1.1//EN" "http://www.w3.org/Graphics/SVG/1.1/DTD/svg11.dtd">
<svg version="1.1" id="Layer_1" xmlns="http://www.w3.org/2000/svg" xmlns:xlink="http://www.w3.org/1999/xlink" x="0px" y="0px"
	 width="80px" height="80px" viewBox="0 0 80 80" enable-background="new 0 0 80 80" xml:space="preserve">
<g>
	<path fill="#495587" d="M52.396,26.363c0.25,2.645,0.449,5.289,0.637,7.935c0.148,2.645,0.346,5.29,0.455,7.935
		c0.117,2.646,0.275,5.291,0.35,7.938l0.262,7.938l0.101,2.961l-2.665-1.493l-8.35-4.681l-8.283-4.787
		c-2.77-1.582-5.499-3.23-8.237-4.865c-2.735-1.641-5.485-3.256-8.19-4.947l-2.673-1.671l2.66-1.506
		c2.789-1.579,5.552-3.202,8.363-4.746c2.813-1.54,5.595-3.13,8.432-4.629c2.824-1.522,5.654-3.033,8.514-4.498
		c2.851-1.479,5.724-2.918,8.627-4.306c-2.594,1.907-5.219,3.762-7.864,5.577c-2.642,1.828-5.308,3.612-7.98,5.384
		c-2.66,1.794-5.375,3.499-8.06,5.252c-2.688,1.75-5.421,3.422-8.129,5.137l-0.014-3.178c2.792,1.542,5.54,3.162,8.303,4.756
		c2.759,1.599,5.525,3.184,8.255,4.836l8.208,4.915l8.146,5.022l-2.564,1.467l0.262-7.937c0.074-2.646,0.232-5.29,0.35-7.937
		c0.109-2.646,0.309-5.29,0.455-7.936C51.947,31.652,52.148,29.008,52.396,26.363z"/>
</g>
</svg>
