<?xml version="1.0" encoding="utf-8"?>
<!-- Generator: Adobe Illustrator 15.0.0, SVG Export Plug-In . SVG Version: 6.00 Build 0)  -->
<!DOCTYPE svg PUBLIC "-//W3C//DTD SVG 1.1//EN" "http://www.w3.org/Graphics/SVG/1.1/DTD/svg11.dtd">
<svg version="1.1" id="Layer_1" xmlns="http://www.w3.org/2000/svg" xmlns:xlink="http://www.w3.org/1999/xlink" x="0px" y="0px"
	 width="80px" height="80px" viewBox="0 0 80 80" enable-background="new 0 0 80 80" xml:space="preserve">
<g>
	<polyline fill="#D2D3D4" points="20.306,44.191 20.306,17.631 49.482,17.631 49.482,47.165 24.643,47.165 	"/>
	<path fill="#6D829F" d="M20.306,44.191c-0.217-4.426-0.313-8.854-0.472-13.28c-0.117-4.427-0.224-8.854-0.289-13.281l-0.012-0.746
		l0.771-0.016c4.863-0.096,9.727-0.128,14.588-0.182l14.59-0.055l1.002-0.004l-0.004,1.002l-0.068,14.767
		c-0.046,4.922-0.1,9.845-0.195,14.767l-0.015,0.75l-0.72-0.015l-6.211-0.127l-6.209-0.162c-4.141-0.146-8.28-0.242-12.421-0.445
		c4.141-0.204,8.28-0.301,12.421-0.446l6.209-0.161l6.211-0.127l-0.734,0.734c-0.098-4.922-0.148-9.845-0.195-14.767L48.484,17.63
		l0.998,0.998l-14.589-0.055c-4.861-0.053-9.725-0.085-14.588-0.182l0.762-0.761c-0.065,4.427-0.173,8.854-0.289,13.281
		C20.619,35.338,20.521,39.766,20.306,44.191z"/>
</g>
<g>
	<polyline fill="#D2D3D4" points="31.169,60.41 31.169,33.849 60.348,33.849 60.348,63.383 35.506,63.383 	"/>
	<path fill="#6D829F" d="M31.169,60.41c-0.217-4.428-0.313-8.854-0.472-13.281c-0.117-4.427-0.225-8.854-0.289-13.281l-0.012-0.746
		l0.771-0.016c4.863-0.096,9.728-0.128,14.589-0.182l14.59-0.055l1.002-0.004l-0.005,1.002l-0.067,14.767
		c-0.045,4.922-0.1,9.845-0.194,14.767l-0.015,0.75l-0.721-0.015l-6.211-0.126l-6.211-0.162c-4.14-0.146-8.28-0.243-12.42-0.446
		c4.14-0.204,8.28-0.3,12.42-0.446l6.211-0.162l6.211-0.125l-0.734,0.733c-0.098-4.922-0.149-9.845-0.194-14.767L59.35,33.848
		l0.998,0.998l-14.59-0.055c-4.863-0.053-9.726-0.085-14.589-0.182l0.761-0.761c-0.064,4.427-0.172,8.854-0.289,13.281
		C31.482,51.557,31.386,55.982,31.169,60.41z"/>
</g>
<line fill="none" stroke="#FFFFFF" stroke-miterlimit="10" x1="23.851" y1="21.597" x2="37.521" y2="21.597"/>
<line fill="none" stroke="#FFFFFF" stroke-miterlimit="10" x1="23.851" y1="25.395" x2="34.895" y2="25.395"/>
<line fill="none" stroke="#FFFFFF" stroke-miterlimit="10" x1="23.851" y1="29.382" x2="39.8" y2="29.382"/>
<line fill="none" stroke="#FFFFFF" stroke-miterlimit="10" x1="23.851" y1="33.18" x2="27.977" y2="33.18"/>
<line fill="none" stroke="#FFFFFF" stroke-miterlimit="10" x1="34.896" y1="38.234" x2="48.566" y2="38.234"/>
<line fill="none" stroke="#FFFFFF" stroke-miterlimit="10" x1="34.896" y1="42.032" x2="45.939" y2="42.032"/>
<line fill="none" stroke="#FFFFFF" stroke-miterlimit="10" x1="34.896" y1="46.02" x2="50.848" y2="46.02"/>
<line fill="none" stroke="#FFFFFF" stroke-miterlimit="10" x1="34.896" y1="49.818" x2="39.021" y2="49.818"/>
</svg>
