<?xml version="1.0" encoding="utf-8"?>
<!-- Generator: Adobe Illustrator 15.0.0, SVG Export Plug-In . SVG Version: 6.00 Build 0)  -->
<!DOCTYPE svg PUBLIC "-//W3C//DTD SVG 1.1//EN" "http://www.w3.org/Graphics/SVG/1.1/DTD/svg11.dtd">
<svg version="1.1" id="Layer_1" xmlns="http://www.w3.org/2000/svg" xmlns:xlink="http://www.w3.org/1999/xlink" x="0px" y="0px"
	 width="80px" height="80px" viewBox="0 0 80 80" enable-background="new 0 0 80 80" xml:space="preserve">
<polyline fill="#D2D3D4" points="20.711,55.629 20.711,20.721 59.057,20.721 59.057,59.535 26.411,59.535 "/>
<path fill="#495587" d="M20.711,55.629c-0.217-5.818-0.313-11.637-0.472-17.455c-0.117-5.818-0.225-11.636-0.29-17.454l-0.008-0.754
	l0.77-0.007l19.173-0.182l19.173-0.055l1.002-0.003l-0.004,1.001l-0.066,19.407l-0.194,19.408l-0.007,0.746l-0.729-0.012
	l-8.162-0.127l-8.16-0.162c-5.44-0.146-10.882-0.242-16.322-0.445c5.44-0.205,10.882-0.301,16.322-0.447l8.16-0.162l8.162-0.127
	l-0.732,0.736L58.13,40.127L58.061,20.72l0.998,0.998l-19.171-0.055l-19.173-0.182l0.761-0.761
	c-0.065,5.818-0.172,11.636-0.29,17.454C21.025,43.994,20.928,49.813,20.711,55.629z"/>
</svg>
