<?xml version="1.0" encoding="utf-8"?>
<!-- Generator: Adobe Illustrator 15.0.0, SVG Export Plug-In . SVG Version: 6.00 Build 0)  -->
<!DOCTYPE svg PUBLIC "-//W3C//DTD SVG 1.1//EN" "http://www.w3.org/Graphics/SVG/1.1/DTD/svg11.dtd">
<svg version="1.1" id="Layer_1" xmlns="http://www.w3.org/2000/svg" xmlns:xlink="http://www.w3.org/1999/xlink" x="0px" y="0px"
	 width="80px" height="80px" viewBox="0 0 80 80" enable-background="new 0 0 80 80" xml:space="preserve">
<g>
	<path fill="#495587" d="M20.602,55.752c-0.201-2.908-0.386-5.818-0.534-8.727c-0.167-2.909-0.273-5.818-0.414-8.729l-0.322-8.728
		c-0.117-2.909-0.173-5.817-0.251-8.727L19.04,19.36l1.563-0.038c3.196-0.078,6.391-0.179,9.587-0.214l9.586-0.149
		c3.197-0.055,6.391-0.044,9.585-0.068l9.587-0.042l2.014-0.009l-0.019,2.005c-0.049,6.469-0.028,12.938-0.137,19.406l-0.152,9.704
		l-0.235,9.704l-0.037,1.501l-1.434-0.031c-2.722-0.063-5.441-0.148-8.162-0.254c-2.722-0.105-5.44-0.177-8.162-0.313
		c-2.72-0.133-5.441-0.232-8.161-0.396c-2.722-0.145-5.441-0.307-8.162-0.505c2.721-0.199,5.44-0.359,8.162-0.505
		c2.72-0.164,5.44-0.266,8.161-0.396c2.722-0.138,5.44-0.209,8.162-0.314c2.721-0.104,5.44-0.189,8.162-0.252l-1.47,1.47
		l-0.237-9.704l-0.15-9.703c-0.106-6.47-0.088-12.938-0.139-19.407l1.995,1.997l-9.586-0.042c-3.194-0.025-6.391-0.015-9.585-0.069
		l-9.586-0.149c-3.196-0.034-6.391-0.136-9.587-0.214l1.522-1.521c-0.08,2.909-0.135,5.817-0.251,8.727l-0.323,8.728
		c-0.141,2.909-0.247,5.817-0.414,8.727C20.988,49.934,20.803,52.844,20.602,55.752z"/>
</g>
</svg>
