<?xml version="1.0" encoding="utf-8"?><svg xmlns="http://www.w3.org/2000/svg" xmlns:xlink="http://www.w3.org/1999/xlink" version="1.1" class="page" pageAlignment="none" x="0px" y="0px" width="80px" height="80px" viewBox="0 0 80 80" enable-background="new 0 0 80 80" xml:space="preserve"><defs/><style type="text/css"/><style type="text/css"/><g type="LAYER" name="workspace" id="workspace" locked="true"/><g id="Layer 01" type="LAYER" name="Layer 01"><path transform="matrix(1 0 0 1 17.511961722487854 18.947368421052335)" width="10.154577364075365" height="9.952153110048094" stroke-width="1.25" stroke-miterlimit="3" stroke="#495587" fill="#495587" fill-opacity="0" d="M1.4210854715202004e-14,3.552713678800501e-15 L10.15457736407538,3.552713678800501e-15 L10.15457736407538,9.952153110048098 L1.4210854715202004e-14,9.952153110048098 L1.4210854715202004e-14,3.552713678800501e-15 Z "/><path transform="matrix(0.9999999999999999 0 0 0.9999999999999999 52.248803827750976 18.94736842105227)" width="10.154577364075365" height="9.952153110048094" stroke-width="1.25" stroke-miterlimit="3" stroke="#495587" fill="#495587" fill-opacity="0" d="M1.4210854715202004e-14,3.552713678800501e-15 L10.15457736407538,3.552713678800501e-15 L10.15457736407538,9.952153110048098 L1.4210854715202004e-14,9.952153110048098 L1.4210854715202004e-14,3.552713678800501e-15 Z "/><path transform="matrix(0.9999999999999999 0 0 0.9999999999999999 34.641148325357875 18.947368421052065)" width="10.154577364075365" height="9.952153110048094" stroke-width="1.25" stroke-miterlimit="3" stroke="#495587" fill="#495587" fill-opacity="0" d="M1.4210854715202004e-14,3.552713678800501e-15 L10.15457736407538,3.552713678800501e-15 L10.15457736407538,9.952153110048098 L1.4210854715202004e-14,9.952153110048098 L1.4210854715202004e-14,3.552713678800501e-15 Z "/><path transform="matrix(0.9999999999999999 0 0 0.9999999999999999 17.554290265330636 35.023923444976056)" width="10.154577364075365" height="9.952153110048094" stroke-width="1.25" stroke-miterlimit="3" stroke="#495587" fill="#495587" fill-opacity="0" d="M1.4210854715202004e-14,3.552713678800501e-15 L10.15457736407538,3.552713678800501e-15 L10.15457736407538,9.952153110048098 L1.4210854715202004e-14,9.952153110048098 L1.4210854715202004e-14,3.552713678800501e-15 Z "/><path transform="matrix(0.9999999999999998 0 0 0.9999999999999998 52.291132370593786 35.023923444976006)" width="10.154577364075365" height="9.952153110048094" stroke-width="1.25" stroke-miterlimit="3" stroke="#495587" fill="#495587" fill-opacity="0" d="M1.4210854715202004e-14,3.552713678800501e-15 L10.15457736407538,3.552713678800501e-15 L10.15457736407538,9.952153110048098 L1.4210854715202004e-14,9.952153110048098 L1.4210854715202004e-14,3.552713678800501e-15 Z "/><path transform="matrix(0.9999999999999998 0 0 0.9999999999999998 34.68347686820067 35.02392344497578)" width="10.154577364075365" height="9.952153110048094" stroke-width="1.25" stroke-miterlimit="3" stroke="#495587" fill="#495587" fill-opacity="0" d="M1.4210854715202004e-14,3.552713678800501e-15 L10.15457736407538,3.552713678800501e-15 L10.15457736407538,9.952153110048098 L1.4210854715202004e-14,9.952153110048098 L1.4210854715202004e-14,3.552713678800501e-15 Z "/><path transform="matrix(0.9999999999999999 0 0 0.9999999999999999 17.554290265330636 50.71770334928199)" width="10.154577364075365" height="9.952153110048094" stroke-width="1.25" stroke-miterlimit="3" stroke="#495587" fill="#495587" fill-opacity="0" d="M1.4210854715202004e-14,3.552713678800501e-15 L10.15457736407538,3.552713678800501e-15 L10.15457736407538,9.952153110048098 L1.4210854715202004e-14,9.952153110048098 L1.4210854715202004e-14,3.552713678800501e-15 Z "/><path transform="matrix(0.9999999999999998 0 0 0.9999999999999998 52.291132370593786 50.717703349281926)" width="10.154577364075365" height="9.952153110048094" stroke-width="1.25" stroke-miterlimit="3" stroke="#495587" fill="#495587" fill-opacity="0" d="M1.4210854715202004e-14,3.552713678800501e-15 L10.15457736407538,3.552713678800501e-15 L10.15457736407538,9.952153110048098 L1.4210854715202004e-14,9.952153110048098 L1.4210854715202004e-14,3.552713678800501e-15 Z "/><path transform="matrix(0.9999999999999998 0 0 0.9999999999999998 34.68347686820067 50.71770334928164)" width="10.154577364075365" height="9.952153110048094" stroke-width="1.25" stroke-miterlimit="3" stroke="#495587" fill="#495587" fill-opacity="0" d="M1.4210854715202004e-14,3.552713678800501e-15 L10.15457736407538,3.552713678800501e-15 L10.15457736407538,9.952153110048098 L1.4210854715202004e-14,9.952153110048098 L1.4210854715202004e-14,3.552713678800501e-15 Z "/></g></svg>