<?xml version="1.0" encoding="utf-8"?>
<!-- Generator: Adobe Illustrator 15.0.0, SVG Export Plug-In . SVG Version: 6.00 Build 0)  -->
<!DOCTYPE svg PUBLIC "-//W3C//DTD SVG 1.1//EN" "http://www.w3.org/Graphics/SVG/1.1/DTD/svg11.dtd">
<svg version="1.1" id="Layer_1" xmlns="http://www.w3.org/2000/svg" xmlns:xlink="http://www.w3.org/1999/xlink" x="0px" y="0px"
	 width="80px" height="80px" viewBox="0 0 80 80" enable-background="new 0 0 80 80" xml:space="preserve">
<path fill="#495587" d="M29.013,59.146c-0.41-7.063-0.682-14.125-0.884-21.187c-0.116-3.53-0.197-7.062-0.269-10.593
	c-0.085-3.531-0.146-7.062-0.183-10.593l-0.013-1.319l1.347-0.015c3.637-0.04,7.274-0.114,10.911-0.115l10.911-0.047l1.501-0.006
	l-0.005,1.502c-0.026,7.852-0.032,15.704-0.162,23.556c-0.038,3.926-0.118,7.854-0.209,11.777
	c-0.071,3.927-0.196,7.853-0.315,11.776l-0.022,0.839l-0.784-0.029l-9.289-0.338c-3.096-0.138-6.192-0.287-9.289-0.472
	c3.096-0.184,6.191-0.331,9.289-0.47l9.289-0.339l-0.813,0.812c-0.119-3.928-0.244-7.854-0.313-11.779
	c-0.091-3.926-0.171-7.853-0.209-11.776c-0.13-7.852-0.139-15.704-0.162-23.556l1.496,1.496l-10.911-0.047
	c-3.637,0-7.274-0.075-10.911-0.115l1.334-1.334c-0.036,3.531-0.097,7.062-0.183,10.593c-0.07,3.531-0.151,7.063-0.269,10.593
	C29.694,45.023,29.423,52.086,29.013,59.146z"/>
<circle fill="#D2D3D4" stroke="#6D829F" stroke-miterlimit="10" cx="40" cy="41" r="5.771"/>
<circle fill="#D2D3D4" stroke="#6D829F" stroke-miterlimit="10" cx="40" cy="56" r="5.771"/>
<circle fill="#495587" stroke="#D2D3D4" stroke-miterlimit="10" cx="40" cy="26" r="5.772"/>
</svg>
