<?xml version="1.0" encoding="utf-8"?>
<!-- Generator: Adobe Illustrator 15.0.0, SVG Export Plug-In . SVG Version: 6.00 Build 0)  -->
<!DOCTYPE svg PUBLIC "-//W3C//DTD SVG 1.1//EN" "http://www.w3.org/Graphics/SVG/1.1/DTD/svg11.dtd">
<svg version="1.1" id="Layer_1" xmlns="http://www.w3.org/2000/svg" xmlns:xlink="http://www.w3.org/1999/xlink" x="0px" y="0px"
	 width="80px" height="80px" viewBox="0 0 80 80" enable-background="new 0 0 80 80" xml:space="preserve">
<g>
	<path fill="#D2D3D4" d="M15.902,40.792c0,5.376,4.352,9.729,9.729,9.729l27.271-0.737c0,0,7.223-1.604,7.223-7.826
		c0-5.426-3.564-7.367-5.578-5.332c-1.277,1.292,2.262-3.706,0.934-7.062c-0.442-1.121-2.334-1.494-3.916-1.609
		c-1.582-0.115-1.91,0.432-2.053-0.061c-0.143-0.483,1.236-0.604,1.592-1.234c0.617-1.098,0.767-2.525,0.767-2.525
		s2.123-8.549-9.654-7.813c-4.716,0.294-6.708,4.864-6.708,4.864c-6.111,0-11.056,4.945-11.056,11.056
		C19.727,32.24,15.902,36.065,15.902,40.792"/>
	<path fill="#6D829F" d="M15.902,40.792c0.03,3.565,2.182,6.962,5.333,8.501c1.563,0.793,3.321,1.113,5.067,0.982l5.317-0.195
		l21.271-0.727l-0.082,0.01c1.547-0.408,3.09-1.146,4.33-2.17c1.248-1.023,2.153-2.426,2.42-3.996
		c0.239-1.547,0.063-3.286-0.563-4.712c-0.324-0.711-0.793-1.355-1.399-1.763c-0.604-0.404-1.343-0.534-1.972-0.259
		c-0.338,0.138-0.547,0.318-0.886,0.648l-0.104,0.085l-0.105,0.062c-0.028,0.013-0.008,0.01-0.079,0.035
		c-0.093,0.03-0.222,0.034-0.326-0.002c-0.192-0.044-0.334-0.261-0.351-0.46c-0.002-0.075,0.004-0.09,0.011-0.138
		c0.016-0.1,0.022-0.1,0.034-0.148c0.043-0.143,0.084-0.237,0.127-0.343l0.246-0.589c0.322-0.771,0.609-1.544,0.812-2.333
		c0.197-0.786,0.317-1.587,0.271-2.358c-0.027-0.384-0.099-0.758-0.229-1.105l-0.021-0.066c0.022,0.051-0.015-0.027-0.019-0.034
		l-0.067-0.14c-0.043-0.04-0.051-0.078-0.117-0.138c-0.096-0.115-0.24-0.212-0.385-0.306c-0.623-0.358-1.438-0.53-2.24-0.633
		c-0.396-0.047-0.838-0.092-1.197-0.082c-0.191,0.004-0.381,0.022-0.568,0.051c-0.219,0.023-0.313,0.087-0.723,0.108
		c-0.121-0.001-0.342-0.06-0.469-0.21c-0.121-0.136-0.152-0.242-0.18-0.323l-0.007-0.017l-0.018-0.097l-0.002-0.02l-0.005-0.04
		c-0.006,0.004,0-0.188,0.037-0.272c0.068-0.181,0.148-0.258,0.22-0.324c0.286-0.244,0.481-0.292,0.68-0.393
		c0.396-0.182,0.688-0.316,0.772-0.54c0.355-0.669,0.566-1.487,0.671-2.256l0.004-0.027l0.006-0.036
		c0.36-1.75,0.045-3.785-1.176-5.112c-1.214-1.358-3.125-1.939-4.998-2.125c-0.947-0.096-1.91-0.101-2.871-0.049
		c-0.95,0.047-1.831,0.248-2.68,0.654c-1.67,0.795-3.035,2.285-3.862,3.937l-0.108,0.216l-0.218-0.002
		c-2.807-0.037-5.61,1.093-7.617,3.083c-2.019,1.975-3.213,4.769-3.243,7.617l-0.002,0.199l-0.194-0.003
		c-2.191-0.04-4.39,0.832-5.971,2.384C16.893,36.36,15.931,38.547,15.902,40.792c-0.05-2.24,0.83-4.505,2.426-6.124
		c1.577-1.633,3.83-2.604,6.123-2.623l-0.196,0.196c-0.058-2.951,1.13-5.914,3.229-8.022c2.077-2.128,5.03-3.381,8.022-3.39
		l-0.326,0.214c0.894-1.853,2.3-3.437,4.163-4.377c0.914-0.462,1.978-0.725,2.983-0.774c0.994-0.059,1.998-0.061,3.004,0.036
		c1.977,0.19,4.115,0.782,5.576,2.385c0.721,0.786,1.195,1.783,1.408,2.808c0.211,1.037,0.221,2.062,0.002,3.125l0.012-0.063
		c-0.121,0.908-0.332,1.762-0.762,2.599c-0.029,0.063-0.15,0.277-0.254,0.367c-0.107,0.117-0.222,0.196-0.33,0.269
		c-0.221,0.141-0.433,0.235-0.625,0.325c-0.183,0.081-0.394,0.186-0.424,0.225c-0.015,0.001,0.004,0.014,0.032-0.071
		c0.027-0.032,0-0.175,0.007-0.118l0.004,0.04l0.002,0.02c-0.006-0.036,0.018,0.094-0.017-0.077l0.002,0.001
		c0.004,0.019,0.013,0.014-0.034-0.044c-0.062-0.063-0.168-0.099-0.188-0.091l0.532-0.1c0.229-0.037,0.465-0.06,0.695-0.065
		c0.49-0.012,0.893,0.033,1.34,0.081c0.871,0.114,1.76,0.268,2.621,0.749c0.211,0.133,0.424,0.276,0.607,0.481
		c0.092,0.085,0.189,0.234,0.273,0.363l0.073,0.145l0.052,0.109l0.028,0.084c0.168,0.448,0.259,0.915,0.293,1.376
		c0.063,0.925-0.073,1.823-0.297,2.676c-0.222,0.855-0.53,1.674-0.867,2.465l-0.245,0.582c-0.039,0.091-0.08,0.192-0.099,0.252
		c-0.002,0.002-0.017,0.052-0.004,0.005c0.002-0.022,0-0.01-0.002-0.06c0-0.183-0.15-0.347-0.31-0.404
		c-0.092-0.036-0.209-0.033-0.287-0.003l-0.041,0.017c-0.012,0.005-0.024,0.012-0.035,0.021c-0.008,0.005,0.013-0.012,0.019-0.016
		c0.265-0.262,0.707-0.652,1.17-0.817c0.951-0.414,2.082-0.187,2.867,0.362c0.806,0.549,1.354,1.342,1.728,2.168
		c0.373,0.832,0.574,1.716,0.666,2.596c0.09,0.894,0.102,1.759-0.063,2.668c-0.31,1.793-1.375,3.404-2.754,4.516
		c-1.388,1.125-2.979,1.879-4.709,2.326l-0.035,0.01h-0.047l-21.278,0.424l-5.32,0.094c-1.793,0.088-3.641-0.297-5.225-1.153
		c-1.591-0.849-2.936-2.136-3.847-3.679C16.328,44.357,15.875,42.564,15.902,40.792z"/>
</g>
<g>
	<path fill="#6D829F" d="M43.787,29.628c-0.232-1.323-0.695-2.528-1.338-3.612c-0.641-1.069-1.477-2.08-2.421-2.833
		c-0.959-0.708-2.211-1.051-3.483-1.227c-1.278-0.19-2.609-0.203-3.937-0.348c1.315-0.179,2.633-0.387,3.995-0.348
		c1.346,0.045,2.778,0.298,3.993,1.137c1.152,0.858,2.021,1.955,2.615,3.22C43.797,26.875,44.023,28.301,43.787,29.628z"/>
</g>
<polygon fill="#6D829F" points="39.265,49.813 48.65,60.613 37.851,51.227 "/>
<g>
	<polygon fill="#6D829F" points="49.096,49.532 57.416,59.266 47.682,50.945 	"/>
</g>
<polygon fill="#6D829F" points="28.367,50.521 41.289,64.857 26.953,51.936 "/>
</svg>
