<?xml version="1.0" encoding="utf-8"?>
<!-- Generator: Adobe Illustrator 15.0.0, SVG Export Plug-In . SVG Version: 6.00 Build 0)  -->
<!DOCTYPE svg PUBLIC "-//W3C//DTD SVG 1.1//EN" "http://www.w3.org/Graphics/SVG/1.1/DTD/svg11.dtd">
<svg version="1.1" id="Layer_1" xmlns="http://www.w3.org/2000/svg" xmlns:xlink="http://www.w3.org/1999/xlink" x="0px" y="0px"
	 width="80px" height="80px" viewBox="0 0 80 80" enable-background="new 0 0 80 80" xml:space="preserve">
<path fill="#495587" d="M23.167,40c1.403-0.834,2.806-1.424,4.208-2.021c1.403,0.039,2.806,0.012,4.208,0.021H40h8.417h4.208
	c1.402,0.607,2.807,1.197,4.208,2c-1.403,0.803-2.806,1.393-4.208,2h-4.208H40h-8.417c-1.403,0.01-2.806-0.02-4.208,0.02
	C25.973,41.424,24.57,40.834,23.167,40z"/>
<path fill="#495587" d="M40,23.166c0.833,1.403,1.423,2.807,2.021,4.209c-0.041,1.401-0.014,2.806-0.021,4.209V40v8.417v4.208
	c-0.607,1.402-1.198,2.807-2,4.209c-0.802-1.402-1.392-2.807-2-4.209v-4.208V40v-8.416c-0.009-1.403,0.02-2.808-0.021-4.209
	C38.576,25.973,39.166,24.569,40,23.166z"/>
</svg>
