<?xml version="1.0"?>
<svg width="100" height="100" xmlns="http://www.w3.org/2000/svg" xmlns:svg="http://www.w3.org/2000/svg">
 <g>
  <title>Layer 1</title>
  <path fill="#ffffff" id="svg_1" d="m68.767998,28.264999l-54.650002,0c-2.801001,0 -5.079,2.277 -5.079,5.077999l0,54.59c0,2.800003 2.278,5.078003 5.079,5.078003l54.650002,0c2.801003,0 5.079002,-2.278 5.079002,-5.078003l0,-54.59c0,-2.800999 -2.278999,-5.077999 -5.079002,-5.077999zm-3.443001,5.778999c1.200996,0 2.175003,0.976002 2.175003,2.178001c0,1.200001 -0.974007,2.175999 -2.175003,2.175999c-1.204002,0 -2.176998,-0.975998 -2.176998,-2.175999c0,-1.202 0.973003,-2.178001 2.176998,-2.178001zm-7.799995,0c1.202999,0 2.177002,0.976002 2.177002,2.178001c0,1.200001 -0.974003,2.175999 -2.177002,2.175999c-1.201,0 -2.174999,-0.975998 -2.174999,-2.175999c0.000999,-1.202 0.973999,-2.178001 2.174999,-2.178001zm10.517998,53.164001l-53.200999,0l0,-43.407001l53.200999,0l0,43.407001zm-39.612999,-13.571999l8.457001,-8.458l-8.457001,-8.459c-1.257999,-1.257999 -1.257999,-3.297001 0,-4.554001c1.257999,-1.257999 3.295,-1.257999 4.553001,0l8.459999,8.458l8.459,-8.458c1.257999,-1.257999 3.296001,-1.257999 4.554001,0c1.257999,1.257 1.257999,3.296001 0,4.554001l-8.457001,8.459l8.457001,8.458c1.257999,1.258003 1.257999,3.298004 0,4.554001c-0.629002,0.628998 -1.454002,0.944 -2.277,0.944c-0.825001,0 -1.648003,-0.315002 -2.276001,-0.944l-8.459,-8.458l-8.459999,8.458c-0.628002,0.628998 -1.451,0.944 -2.275002,0.944s-1.647999,-0.315002 -2.277,-0.944c-1.259998,-1.256004 -1.259998,-3.296005 -0.001999,-4.554001zm55.489998,-65.723001l-54.649998,0c-2.801001,0 -5.079,2.276999 -5.079,5.078l0,10.804l5.804001,0l0,-0.346001l53.199999,0l0,43.407003l-4.836998,0l0,5.803001l5.562996,0c2.801003,0 5.079002,-2.277 5.079002,-5.078003l0,-54.59c-0.000999,-2.801002 -2.278999,-5.078001 -5.080002,-5.078001zm-11.241997,10.132999c-1.201004,0 -2.175003,-0.975 -2.175003,-2.176001c0,-1.202 0.973999,-2.177 2.175003,-2.177c1.203003,0 2.177002,0.975 2.177002,2.177c-0.001007,1.201 -0.974007,2.176001 -2.177002,2.176001zm7.799995,0c-1.204002,0 -2.177002,-0.975 -2.177002,-2.176001c0,-1.202 0.973,-2.177 2.177002,-2.177c1.200996,0 2.175003,0.975 2.175003,2.177c-0.000999,1.201 -0.973999,2.176001 -2.175003,2.176001z"/>
 </g>
</svg>